<svg xmlns="http://www.w3.org/2000/svg" viewBox="0 0 992.89 103.09"><g fill-rule="evenodd" data-name="Layer 2"><path d="M82.82 18.65A41.39 41.39 0 0053.76 4.52C42.9.2 30 1.69 21.37 10.8c-8.16 8.62-15.67 18-19.21 29.54A48.8 48.8 0 006.3 78.69c14.5 25.54 51.46 28.51 73.24 11.68a47.2 47.2 0 0018.3-35.94c.44-13.79-6.19-25.73-15.02-35.78z" fill="#f19aaf"/><path d="M230.77 24.26c-11-15.63-30.34-27-50-21.71a37 37 0 00-15.19 8.58c-24.5 15.11-29.42 58.61-6.61 78 12.61 10.7 30.18 16.23 46.39 10.46a51.09 51.09 0 0032.3-33.69 49.89 49.89 0 00-6.89-41.64z" fill="#ffe58f"/><path d="M385.31 33.64a42.74 42.74 0 00-17.81-13.28c-.43-.35-.88-.68-1.34-1a27.22 27.22 0 00-6.77-10.55C353.68 3.56 346.17-.33 338.18 0c-8.49.4-14.57 3.64-21.18 8.81-10.23 7.94-18.26 17.78-22 30.4-4.93 16.65 1.52 33.25 12.89 45.44 10.11 10.83 24.39 17.83 39.23 18.41 16 .63 32.38-7.62 40.74-21.39a42.49 42.49 0 00-2.55-48.03z" fill="#619e4f"/><path d="M525.16 20.66a41.46 41.46 0 00-31.38-12.57 44.9 44.9 0 00-5.39.56c-7.26-1.55-16.39-1.49-22.57 3.14-10.43 7.86-19.1 15.57-23.66 28.28a40.2 40.2 0 004.28 34.84c14.9 22.84 45.81 25.73 68.3 12.72 23.7-13.69 30.12-46.81 10.42-66.97z" fill="#cfd5df"/><path d="M682 34.92c-4.09-8.49-10.89-15.36-18.61-20.63-8.33-5.68-17.1-7.43-26.88-8.69-7-.92-16.43 4-21.21 8.78a27.17 27.17 0 00-2.58 3 57.29 57.29 0 00-3.64 2.72c-16 13-17.47 38.55-7.43 55.37 10.71 18 34.66 26.3 54.44 20.09 10.46-3.28 20.75-9.95 26.15-19.79 7.3-13.22 6.17-27.64-.24-40.85zm-51.93 30l-.08-.19.69.15c.38.56 0 .57-.57.03z" fill="#c38e7e"/><path d="M827.5 21.06a42.21 42.21 0 00-10-6.45c-7.39-7.26-18-11.09-28.53-7.55-9.29 3.12-17.66 6.9-25 13.49-8.49 7.62-13.35 18.92-13.92 30.2C748.88 73.4 767.59 88.31 787 95s43-1.1 53.16-19.21C851 56.51 843.69 34.5 827.5 21.06z" fill="#2592ab"/><path d="M981.19 33.45c-6.25-6.57-14-12.08-21.57-17.06a23.62 23.62 0 00-2.82-1.58c-7.41-7.66-18.35-11.9-29.08-8.14-9.81 3.43-19 7.3-26.71 14.52C892.59 29.1 887 40.91 887 52.56 886.87 76 906.61 93 928.61 96.61c20.65 3.44 47.57.23 59.58-19.4 9.02-14.74 4.15-32.04-7-43.76z" fill="#d85a42"/></g></svg>