<svg xmlns="http://www.w3.org/2000/svg" viewBox="0 0 456.68 528.05"><defs><style>.cls-1,.cls-2{fill:#1c1c1c}.cls-2{fill-rule:evenodd}</style></defs><g id="Layer_2" data-name="Layer 2"><g id="export"><g id="beskydy-outlines"><path class="cls-1" d="M380.72 428.24c-.27-.9-.62-1.9-1-3a223.22 223.22 0 00-34.85-59.76 197 197 0 00-45.61-41.21 185.36 185.36 0 00-22.65-12.54 196.54 196.54 0 00-20-7.81 175.22 175.22 0 00-24.06-6.13l-3.68-.68c-1-.15-1.12-.16-1.32 0l-.17.12-.47 2.87c-.08.52.29.6 1.31.82l3.7.73a175.54 175.54 0 0123.52 5.88 195.52 195.52 0 0119.63 7.47 186.93 186.93 0 0122.31 12.1 197.35 197.35 0 0145.43 40 226.75 226.75 0 0135.6 58.58l1.16 2.91c.36.89.51 1.28.87 1.28a.79.79 0 00.2 0c.53-.15.36-.62.08-1.63zM87 326.93l-2.13-3.46c33.65-20.68 72.34-30.54 115.06-29.28 2.82.08 5.66.22 8.44.41l-.27 4c-2.73-.18-5.52-.32-8.29-.4C157.93 297 120 306.68 87 326.93zm-41.95 33.89l-2.3-2.13h-.21c-.15 0-.33 0-1 .77l-.56.63c-2 2.27-6.75 7.57-12.19 15a168.64 168.64 0 00-18.22 31c-.34.81-.63 1.51-.07 1.77a.53.53 0 00.24.06c.43 0 .73-.59 1.06-1.24 7.9-14.68 19.12-30.01 32.42-44.38l.19-.2c.67-.74.66-.93.65-1.07zm-23.86 117.8L68.91 471c15.88-2.6 31.73-5.35 47.4-8.8l.81 4c-31.81 5.84-63.87 9.1-95.81 13.25zm183.92-122.08c-.06-.61-.06-.63-5.39-.22q-5.75.45-11.47.86c-9.63.71-19.59 1.44-29.24 2.31-12.1 1.12-26.11 2.55-39.23 5.33-6.09 1.34-12.52 3-18.32 5.9a21.13 21.13 0 00-7.71 6.1 13.46 13.46 0 00-2.11 9.74 13 13 0 005.5 8.06 33.52 33.52 0 008 4.09 110.73 110.73 0 0016.2 4.26c4.24.84 8.37 1.57 12.36 2.28 5.95 1.06 11.58 2.06 16.85 3.26 7.12 1.61 16.09 4 22.35 8.27a17.35 17.35 0 016.09 6.66 14.27 14.27 0 011.3 7.24 15.14 15.14 0 01-4.54 9.05c-.59.64-1.18 1.19-1.63 1.61l-.11.1c-.93.83-1.12 1-.81 1.43l1.85 2.25h.29c.17 0 .33-.1 1.2-.82a24 24 0 002-1.91 23.52 23.52 0 003.22-4.23 16.87 16.87 0 002.33-7.17 17.87 17.87 0 00-1.7-9.26 21 21 0 00-7.41-8.1c-6.75-4.52-15.37-6.85-23.68-8.7-5.46-1.2-11.21-2.17-17.29-3.21-3.91-.66-7.95-1.35-12.06-2.12a107.06 107.06 0 01-15.74-4 29.88 29.88 0 01-7.3-3.61 9.87 9.87 0 01-4.24-5.99 10.3 10.3 0 011.53-7.47c1.69-2.45 4.57-4.17 6.59-5.25 5.45-2.82 11.67-4.49 17.56-5.87 12.82-2.89 26.23-4.47 38.87-5.84 8.85-.94 18-1.78 26.84-2.59q6.87-.63 13.77-1.28c5.33-.53 5.33-.55 5.28-1.16z"/><path class="cls-1" d="M225.46 355.52l-.23-2c18-2.08 42.48-5.82 48.16-14.17a7 7 0 001-6c-1.39-5.15-10.72-13.35-47.31-23.17l.53-2c30.13 8.11 46.52 16.38 48.71 24.57a9 9 0 01-1.25 7.68c-4.75 7.02-20.07 11.66-49.61 15.09zM207.6 305.4c-16.5-3.72-30.92-6.2-36.36-7.1l-.24-.05h-.08a1 1 0 01-.89-1.14l1.14-.86c11.43 1.44 24.54 3.53 36.92 5.9l-.24 1.24h.2z"/><path class="cls-1" d="M225.21 358.92l-.21-2c26.12-2.69 53.63-6.72 59.65-16.25a8 8 0 00.62-7.38c-2.92-8.22-23.56-17.13-58.13-25.08l.46-2c25 5.74 55.54 15 59.59 26.39a10.06 10.06 0 01-.82 9.14c-6.47 10.26-33.22 14.31-61.16 17.18zm-105.06 22.02a8.35 8.35 0 011.46-2.56 17.08 17.08 0 015.13-4 60.58 60.58 0 0113.32-4.88 252 252 0 0129.74-5.24c9.7-1.23 19.79-2.27 29.55-3.27l1.64-.17c4.21-.43 4.21-.49 4.16-1.06s-.05-.63-4.28-.3c-11.67.9-21.39 1.68-31.31 2.73a244.64 244.64 0 00-30.14 4.81 63.53 63.53 0 00-14 4.91 19.74 19.74 0 00-6 4.58 11.26 11.26 0 00-2.06 3.53l-.14.55a12.13 12.13 0 00-.56 3.21 10.66 10.66 0 002.42 7.33 18.24 18.24 0 005.66 4.47 54.88 54.88 0 0012.26 4.54c7.61 1.94 15 3.14 21.44 4.2l4.41.71c5.59.9 10.87 1.74 15.49 2.59a137.34 137.34 0 0122.21 5.58l1.85.7a3.59 3.59 0 001 .28.4.4 0 00.42-.32l1.05-2.49c.21-.5-.18-.67-1.05-1l-1.92-.78a136.39 136.39 0 00-22.9-5.64c-4.92-.87-10.54-1.72-16.5-2.62l-3.5-.54c-6.44-1-13.74-2.12-21.15-3.93a52.43 52.43 0 01-11.58-4.11c-4.3-2.12-6.74-5.4-6.54-8.83a9 9 0 01.38-2.34zM79.28 527.26a73.85 73.85 0 0011.85-3.52c3.91-1.4 7.79-2.92 11.64-4.49 7.7-3.14 15.28-6.55 22.77-10.14l1.65 3.72c-7.79 3.12-15.64 6-23.58 8.7-4 1.32-8 2.59-12 3.74s-8 2.36-12.32 2.78zM229 155.7h-4.06l.1-7q.15-11.19.35-22.37l4.07.08c-.15 7.45-.25 14.9-.36 22.34z"/><path class="cls-2" d="M208.82 78.53c.61-7.84 1.2-17.35 1.73-28 .34-5.32.2-11 1.67-16.16a14.81 14.81 0 013.78-6.72 10.87 10.87 0 016.76-3.15 6.6 6.6 0 015.94 3 14.59 14.59 0 012 7.38 49.52 49.52 0 01-.38 8.23c-.29 2.8-.54 5.53-.77 8.2-.88 10.66-1.25 20.2-1.34 28.08l1.84.11c.85-7.82 1.83-17.27 3.14-27.82.34-2.63.68-5.34 1-8.1a51.67 51.67 0 00.62-8.88 18.44 18.44 0 00-2.62-9.59 11.33 11.33 0 00-4.11-3.75 10.73 10.73 0 00-5.57-1.21 14.94 14.94 0 00-9.51 4.44 16 16 0 00-3 4.13 22.65 22.65 0 00-1.75 4.53 40.63 40.63 0 00-1.25 8.93c-.1 2.87-.1 5.57-.13 8.25-.1 10.66-.07 20.18.08 28.05z"/><path class="cls-1" transform="rotate(-88.38 206.064 141.005)" d="M191.05 138.97h30.03v4.07h-30.03z"/><path class="cls-1" d="M205.18 498.68l-.78-4 16.27-3.17a4 4 0 003.21-4c-.22-10.11-.55-20.44-.87-30.44-1.14-36.11-2.32-73.44.87-109.71 1.05-12 1.23-24.54 1.41-36.65.06-4.13.12-8.25.21-12.32.44-19.3.79-42.41 0-67.47-.14-4.43-.29-8.37-.43-12.09-.18-4.79-.35-9.2-.46-13.8l4.06-.09c.11 4.57.28 9 .46 13.73.14 3.73.29 7.68.43 12.13.79 25.15.45 48.33 0 67.68-.09 4.07-.15 8.17-.21 12.29-.18 12.18-.36 24.78-1.43 36.94-3.16 36-2 73.24-.85 109.23.32 10 .65 20.35.88 30.48a8 8 0 01-6.5 8.05zM201.71 465c-.15-45.87.1-95 3-143.44l.51-8.22c.9-14.25 1.84-29 1.5-43.43-.22-9.33-1-18.83-1.69-28-.43-5.45-.88-11.08-1.21-16.65-.41-6.82-.67-13.88-.8-21.55l4.07-.07c.12 7.62.38 14.61.78 21.38.33 5.52.78 11.14 1.21 16.57.73 9.24 1.48 18.79 1.7 28.23.34 14.64-.59 29.45-1.5 43.78-.17 2.74-.35 5.48-.51 8.21-2.9 48.33-3.16 97.38-3 143.19zm247.8-123a142 142 0 00-43.44-16.45 144.09 144.09 0 00-41.28-2.1 153.75 153.75 0 00-31.14 6 128.49 128.49 0 00-16.58 6.2c-2.36 1.08-2.31 1.25-2.18 1.74l1.2 2.28.06.23.22.11c.27.13.27.14 2.35-.83a128.61 128.61 0 0116-6.13 155.36 155.36 0 0130.36-6.26 143.32 143.32 0 0183.72 16.37 10 10 0 002.83 1.27c.21 0 .29-.11.39-.29.31-.47.19-.62-2.51-2.14z"/><path class="cls-2" d="M293 374.76a59.42 59.42 0 0121.5 9.45 55 55 0 019.84 8.69 34.5 34.5 0 016.9 11.62c.32 1.07.54 2.18.78 3.27l.13 1.67a6.08 6.08 0 010 1.65 17.66 17.66 0 01-.46 3.26 10.92 10.92 0 01-1.25 2.85c-2.12 3.48-6.9 5-11.95 5.36a81.43 81.43 0 01-16.05-.8c-5.52-.72-11.15-1.71-16.9-2.67s-11.39-1.87-16.84-3a81.37 81.37 0 01-15.44-4.48c-4.65-2-8.68-5-9.54-9a10.65 10.65 0 01-.26-3.11 18.14 18.14 0 01.63-3.22 6.77 6.77 0 01.56-1.56l.66-1.53c.59-1 1.16-1.93 1.81-2.84a34.59 34.59 0 0110.31-8.73 55.18 55.18 0 0112.14-5 59.21 59.21 0 0123.43-1.88l.41-2.42a59.51 59.51 0 00-24.78.63 56.84 56.84 0 00-13.29 4.86 38.48 38.48 0 00-12.06 9.61c-.83 1.08-1.58 2.26-2.33 3.45l-.9 1.93a9 9 0 00-.78 2 22.84 22.84 0 00-.94 4.33 15.77 15.77 0 00.29 4.67 15.37 15.37 0 004.85 8.08 29.3 29.3 0 007.56 4.77 84.07 84.07 0 0016.52 5c5.62 1.2 11.33 2.13 17.06 3.09s11.42 1.94 17.13 2.64a82.8 82.8 0 0017.25.66 29.2 29.2 0 008.7-2 15.37 15.37 0 007.23-6.06 16.14 16.14 0 001.79-4.32 22.89 22.89 0 00.53-4.4 10.27 10.27 0 00-.08-2.15l-.26-2.13c-.32-1.36-.64-2.73-1.07-4a38.34 38.34 0 00-8.27-13 56.54 56.54 0 00-11-8.93 59.41 59.41 0 00-23.21-8.68z"/><path class="cls-1" d="M262.69 419.08c.48-.75.9-1.41.39-1.76s-1 .26-1.52 1c-7.72 10.22-13.72 22.4-16.46 33.4a40.26 40.26 0 00-1.1 13.77 27.07 27.07 0 001.94 7.67c.44 1 .61 1.06.76 1.11l.2.08 2.66-1.26c.51-.27.21-.91 0-1.47a24.43 24.43 0 01-1.77-6.57 38.29 38.29 0 01.7-12.6c2.16-10.51 7.36-22.68 14.2-33.37zm50.75 31.74a96.73 96.73 0 00-5.1-25c-.17-.49-.42-1.23-1-1s-.42.93-.3 1.43a124.16 124.16 0 013 24.81 78 78 0 01-.83 13.75c-.05.33-.17 1.1.42 1.19l2.9.48.16-.13c.1-.07.27-.2.37-.94a67.86 67.86 0 00.38-14.59z"/><path class="cls-2" d="M358.52 432.59a30.79 30.79 0 019.1 7.87c2.64 3.38 5 7.73 5.14 12.28a7.64 7.64 0 01-2.09 5.72 5 5 0 01-2.66 1 12.26 12.26 0 01-3.54-.3c-5.05-1.13-10.3-3.9-15.71-6.5s-10.8-5.05-14.82-8.32a12 12 0 01-2.43-2.6 5 5 0 01-.82-2.73 7.62 7.62 0 013.2-5.18c3.66-2.7 8.53-3.54 12.82-3.56a31 31 0 0111.81 2.28l.81-1.65a30.83 30.83 0 00-12.52-3.5c-4.71-.25-10.13.21-15.07 3.48a11.16 11.16 0 00-5 7.89 8.94 8.94 0 001.3 5.1 16 16 0 003.18 3.62c4.76 4 10.24 6.38 15.64 9.06s10.71 5.41 16.78 6.68a15.69 15.69 0 004.82.25 8.88 8.88 0 004.81-2.12 11.2 11.2 0 003.12-8.8c-.49-5.9-3.48-10.45-6.59-14a30.71 30.71 0 00-10.49-7.67z"/><path class="cls-2" d="M322.51 473.22a17.59 17.59 0 011.65-5.93 39.76 39.76 0 014.13-6.63 106 106 0 019.47-10.89l-.75-1A38.53 38.53 0 00326 459a27.22 27.22 0 00-4.07 7.45 13.88 13.88 0 00-.62 6.89zm35.36-13.69a49.77 49.77 0 00-1.24 6.79 45.1 45.1 0 00-.46 6.9l1.18.31a18.82 18.82 0 002.14-6.84 18.54 18.54 0 00-.39-7.17zM166 515.18a87.32 87.32 0 01-18.51.28 54.48 54.48 0 01-20-5.61 30.12 30.12 0 01-15.08-17.5c-.24-1-.49-2.09-.74-3.15-.12-.53-.28-1.05-.37-1.59l-.14-1.67c-.1-1.11-.21-2.23-.31-3.37s.09-2.3.13-3.47v-.83h.16l.69.1c.57.09 1.15.21 1.72.34s1.14.28 1.71.46l.43.14c.22.06.54.19.81.29a18 18 0 011.7.7c2.27 1.09 5.32 2.92 7.82 4.3-.17-.42-.51-1.06-.84-1.69s-.65-1.26-1-1.9l-2.06-4c-.29-.63-.58-1.27-.88-1.91l-.45-1-.22-.49-.09-.28c-.24-.74-.53-1.48-.71-2.28a31.37 31.37 0 01-1-10.58 32.21 32.21 0 013.41-12.14c.23-.4.2-.46.35-.38a30.29 30.29 0 013.42 1.08 34.37 34.37 0 013.47 1.57l.43.24c.32.16.6.34.9.52.6.36 1.2.72 1.81 1.14l3.69 2.49c0-1.55-.12-3.23-.11-5v-2.7c0-.44.08-.89.11-1.35a31.71 31.71 0 014.11-12.57 33.45 33.45 0 012.23-3.29c.41-.55.85-1.08 1.32-1.61l.34-.39.13.07 1.64 1a33.07 33.07 0 013.81 2.85 31.24 31.24 0 016.86 8.58 31.83 31.83 0 011.93 4.27c.84 2.72 1.58 5.47 2.15 7.66l3.23-4a28 28 0 011.57-1.71l.53-.53.4-.38a27.86 27.86 0 013.42-2.69l.84-.54a28.44 28.44 0 012.42 3.1 28 28 0 013.14 6.27c.18.5.33 1 .47 1.45l.1.35.16.67c.11.48.22.95.33 1.4.34 1.94.65 3.71.93 5.28 1.31-1.29 2.7-2.73 4-4 .65-.64 1.47-1.27 1.65-1.43l1-.76a27.38 27.38 0 014.27-2.53c4.32-1.54 2.25-2.19 4.35 1.4a28.8 28.8 0 012.11 7.37c.07.56.14 1.1.18 1.61 0 .26 0 .51.06.76s0 .77 0 1.14c0 1.91-.08 3.63-.13 5.06l3.46-1.52 1.71-.67.35-.13.21-.07.44-.15a30.68 30.68 0 013.49-.87 28 28 0 013.5-.41c1.08-.08 2.7 0 2.52 0h.17v1.03c0 1.17-.06 2.33-.09 3.47q-.31 3.41-.76 6.66c-1.48 8.61-4.9 16.12-9.82 21.69a46.25 46.25 0 01-17.18 11.59 83 83 0 01-17.8 4.76l.25 1.82a83.18 83.18 0 0018.55-4.29 48.22 48.22 0 0018.46-11.89c5.44-5.89 9.27-14 11-23.06.36-2.28.65-4.61.9-7 .05-1.19.1-2.4.14-3.61 0-.91.07-1.82.1-2.73v-1.62l-1.62-.17a30.78 30.78 0 00-8.79.26 30.75 30.75 0 00-4 .94l-1 .31-.26.1v-1.64c0-.58-.11-1.19-.18-1.82a32.42 32.42 0 00-2.29-8.42c-.33-.74-.68-1.49-1.08-2.25l-.3-.56c-.12-.2-.36-.63-.55-.93l-1.22-2-2.23.64-1 .32-.71.25c-.85.3-1.7.66-2.54 1.05a31.3 31.3 0 00-4.92 2.86c-.4.28-.78.57-1.17.87l-.45.36-.11.09v-.22l-.14-.48c-.15-.54-.32-1.09-.52-1.66a31.59 31.59 0 00-3.56-7.24 30.47 30.47 0 00-2.83-3.65c-.47-.55-1-1.05-1.5-1.58l-.78-.78c-.29 0-.64.29-1 .42l-1.93 1.13-1.12.7a31.38 31.38 0 00-4 3.1l-.89.83-.06-.21a36.73 36.73 0 00-2.19-4.87 35.32 35.32 0 00-7.81-9.78 36.43 36.43 0 00-4.34-3.24c-.75-.46-1.28-.78-2.08-1.22l-2.89-1.49-1.55 1.62-.77.8-.41.48c-.53.6-1 1.2-1.5 1.82a38.43 38.43 0 00-2.52 3.75 35.56 35.56 0 00-4.59 14.29c0 .52-.08 1-.11 1.53v.18l-.57-.3a36 36 0 00-3.94-1.76 34.33 34.33 0 00-4-1.24l-1.75-.38-.9-.19c-.15 0-.31-.07-.45-.08l-.2.37-1.58 2.85a35.94 35.94 0 00-3.73 13.73 35.14 35.14 0 001.32 11.9c.23.89.56 1.72.84 2.55l.11.31v.09l.08.17.15.33c.07.15.31.47.27.51a3.26 3.26 0 00-.5-.21l-.73-.23c-.66-.2-1.31-.36-2-.51s-1.32-.27-2-.36l-.52-.07-.83-.09c-.54-.07-1.1-.09-1.65-.12l-1.66-.09c-.2-.08-.09.2-.13.29v1.23c0 1-.08 2-.11 3 0 1.25-.09 2.5-.08 3.73s.25 2.46.38 3.67l.19 1.8c.1.6.28 1.18.42 1.76.29 1.17.58 2.32.88 3.46a33 33 0 0016.91 19 55.75 55.75 0 0021.18 5.43 86.7 86.7 0 0019-.85z"/><path class="cls-2" d="M325.21 515.41a29.22 29.22 0 0013.93 8.71 52.94 52.94 0 009 1.94 46.71 46.71 0 009.88.35 34.53 34.53 0 0010.42-2.2 22.33 22.33 0 009.41-6.74 20.56 20.56 0 004.28-11.47 13.46 13.46 0 00.11-1.55l-.07-2.08a23.84 23.84 0 00-.19-2.79c0-.2 0-.51-.11-.61h-.7l-1.37.08a18.68 18.68 0 00-2.79.36h-.07c.11-.4.22-.81.34-1.23a22 22 0 00.48-3 21.1 21.1 0 00-.4-6.51 21.87 21.87 0 00-.88-3c-.2-.48-.37-1-.59-1.4l-.47-1-.64-1.13-.63-1.11s0-.11-.08-.12h-.16l-.3.06-.62.13c-.79.16-1.62.35-2.36.57a21.56 21.56 0 00-2.43.89l-.53.25-.06.06v-.08l-.08-.57c-.06-.47-.17-.94-.26-1.4a21.74 21.74 0 00-1.9-5.23 20.22 20.22 0 00-1.39-2.29c-.25-.37-.5-.72-.78-1.06s-.44-.55-1.05-1.24l-1.51-1.58-.19-.19-.09-.1-.13.07-.47.25-1 .49c-.31.18-.62.32-.93.51l-.72.43-1 .68a20.79 20.79 0 00-5.84 6.41c-.34.56-.61 1.13-.89 1.67s-.54 1.23-.48 1.15c-.06.19-.09.46-.14.65-.12-.12-.24-.25-.38-.37l-.31-.25c-.3-.25-.59-.47-.87-.67s-.47-.34-.89-.61-.77-.47-1.1-.65l-1.48-.77c-.77.81-1.55 1.58-2.18 2.39q-.63.81-1.14 1.62a19 19 0 00-1.56 3.14 6.32 6.32 0 00-.46 1.55 4.63 4.63 0 00-.09.73 7 7 0 00-1-.77 19.08 19.08 0 00-2.31-1.35q-.57-.27-1.08-.48l-.49-.19-.65-.23c-.84-.28-1.54-.43-2.08-.58a25.8 25.8 0 00-1.42 2.49 15.39 15.39 0 00-.62 1.53 16.66 16.66 0 00-.68 2.47l1.79.41a18.88 18.88 0 01.75-2.17c.17-.4.37-.84.62-1.32a7.12 7.12 0 01.53-.86l.69.28.64.29c.29.14.6.29.92.46a17.43 17.43 0 012.13 1.39 42.67 42.67 0 013.84 3.63c.13-.66.32-1.6.56-2.78a15.44 15.44 0 012.43-6.05 14.76 14.76 0 011-1.33 5.53 5.53 0 01.42-.42l1 .73c.23.18.47.37.71.58.06.06.39.35.6.56a9.64 9.64 0 01.7.72c.93 1.05 2 2.39 3 3.59.44-1.39.86-3.31 1.52-5.09a11.93 11.93 0 01.78-1.86c.25-.44.49-.91.79-1.36a17.72 17.72 0 015-5.14l.84-.54.22-.12c.08-.06.13 0 .16.08-.09-.11.27.32.45.57s.42.58.62.88a17.38 17.38 0 011.09 1.88 18.05 18.05 0 011.48 4.26c.06.38.15.75.19 1.14l.09.72v4.11l-.09 2.78 3.26-2.17a17.93 17.93 0 011.81-1.11 14.72 14.72 0 011.41-.69 15.4 15.4 0 011.95-.69l.1.23c.18.36.31.74.47 1.12a18.78 18.78 0 01.7 2.42 17.39 17.39 0 01.31 5.21 18.3 18.3 0 01-.39 2.37l-.15.57-.07.27v.14l-.05.16v.15c-.35.83-.64 1.61-1 2.42l-4.11 7.84c2.37-1.32 5.31-3 7.41-4.14a13.06 13.06 0 012.88-1h.07v.8a8.16 8.16 0 01-.08 1.31 16.63 16.63 0 01-3.27 9.28 18.76 18.76 0 01-7.67 5.69 31.84 31.84 0 01-9.29 2.23 45.08 45.08 0 01-9.22 0 52.35 52.35 0 01-8.59-1.46 27.89 27.89 0 01-13.33-7.27z"/><path class="cls-2" d="M278.17 525.56c5.18.47 10.67.93 16.62 1a72.14 72.14 0 009.29-.36 28.48 28.48 0 009.9-2.72 41.13 41.13 0 004.57-2.82c.72-.5 1.45-1 2.19-1.49a28.79 28.79 0 002.31-1.72 27.25 27.25 0 007.37-9.5 26.79 26.79 0 002-6.1 25.29 25.29 0 00.45-3.29v-.84a7.91 7.91 0 000-1.05v-2.28s-.1-.05-.15-.08l-.34-.15-1.33-.57-.68-.27-.4-.15c-.54-.2-1.1-.38-1.66-.54a26.34 26.34 0 00-3.44-.76 28.33 28.33 0 00-3.58-.29h-.88c0-.11.08-.22.13-.34a29.83 29.83 0 00.58-3.19 27 27 0 00-.15-7.68 26.13 26.13 0 00-1.08-4.31 22.9 22.9 0 00-.88-2.23l-.27-.59-.5-1-.53-1-.27-.5h-.57c-.76 0-1.55.07-2.3.13-.44 0-.88.09-1.33.16a27.62 27.62 0 00-2.71.54c-.45.12-.91.25-1.37.4l-.9.3h-.11v-.1a28 28 0 00-.35-4 28.59 28.59 0 00-3-8.91A27.75 27.75 0 00302 455a26.39 26.39 0 00-1.8-2c-.32-.33-.65-.65-1-1l-.52-.47-.91-.77-1-.81-.25-.21c-.09-.08-.19.05-.28.06l-.55.24-2.12.92a27.79 27.79 0 00-2.51 1.37 29.11 29.11 0 00-4.6 3.48 28.62 28.62 0 00-6.12 8.24c-.35.69-.65 1.46-.92 2.05v.08c-.33-.45-.64-.95-1-1.41a27.72 27.72 0 00-4.89-5 29.32 29.32 0 00-2.78-2c-.49-.28-1-.59-1.45-.84l-.76-.4-1.34-.63-.68-.32c-.23-.11-.46-.28-.64 0l-1.13.88-.56.44-.46.36-.6.53a24.51 24.51 0 00-2.23 2.21 28.05 28.05 0 00-5.75 9.7 26.64 26.64 0 00-1.17 4.63l-.05.27v.33l-.15-.1-.31-.18a29.18 29.18 0 00-7.08-2.95l-1.46-.34-.79-.17-.4-.09c-.12 0-.17.17-.26.25l-.95 1.15c-.28.34-.72.84-.83 1a27.9 27.9 0 00-4.12 26 40.84 40.84 0 005 10.85 28.17 28.17 0 008.13 7.78 38.38 38.38 0 004.64 2.54 46.7 46.7 0 004.75 1.78 77.25 77.25 0 0018.11 3.09l.14-1.83a78.55 78.55 0 01-17.45-3.61c-1.52-.45-2.93-1.2-4.43-1.81a35.32 35.32 0 01-4.23-2.47 25.56 25.56 0 01-7.14-7.18 38 38 0 01-4.42-10.16 24.58 24.58 0 013.94-22.78 3.11 3.11 0 01.25-.32l.15-.18c.08-.08.16 0 .37 0a25.37 25.37 0 013.1 1.09 24.16 24.16 0 013 1.54 69.41 69.41 0 015.76 4.23l.22-3.53c.05-.63.11-1.28.16-1.93 0-.33 0-.67.09-1a4.88 4.88 0 01.08-.51l.05-.23a23.17 23.17 0 011.06-4 24.27 24.27 0 015-8.25 21.26 21.26 0 011.92-1.87l.52-.45.12-.11s.08-.07.08 0l.65.35c.42.21.82.48 1.23.72a24.69 24.69 0 016.5 6c.32.39.59.83.91 1.28l.85 1.46.42.73.4.87c.53 1.13 1.06 2.31 1.6 3.55l1.54 3.49c.43-2 1-4.36 1.55-7.05.32-1.38.76-2.51 1.16-3.87.28-.65.49-1.2.81-1.81a24.15 24.15 0 015.19-7 25.93 25.93 0 013.91-3c.69-.43 1.41-.8 2.12-1.16l.33-.15.5.46.84.81c.55.56 1.06 1.14 1.54 1.73a24 24 0 012.46 3.7 24.47 24.47 0 012.6 7.56 23.44 23.44 0 01.32 3.46c0 2.34-.27 4.67-.42 6.65 1.73-.82 3.59-1.8 5.21-2.47l1.06-.41.59-.19c.38-.13.77-.24 1.16-.34a19.6 19.6 0 012.27-.48l1.19-.16v.05l.2.44a19.9 19.9 0 01.77 1.87 21.51 21.51 0 011 3.64 23.48 23.48 0 01.22 6.58 21.85 21.85 0 01-.49 2.95c-.52 1.85-1.07 3.6-1.6 5.25l3.33-.36 1.62-.12h1.14a24.45 24.45 0 013.1.21 24 24 0 013 .61c.48.13 1 .28 1.43.45l.55.19c.1 0 0 .21.06.31v1.25a22.57 22.57 0 01-.35 2.86 23.44 23.44 0 01-1.66 5.35A24.12 24.12 0 01321 515c-.64.57-1.33 1.07-2 1.57l-2.19 1.55a37.62 37.62 0 01-4.18 2.73 26 26 0 01-8.87 2.66 74.67 74.67 0 01-9 .61c-5.83.1-11.3-.16-16.47-.42zm21.33-323.51a14.15 14.15 0 00-2.59 9.55 13 13 0 005 9.29 27.52 27.52 0 009.59 4.67 73.74 73.74 0 0010.5 2.16c14.38 1.9 29.78 1.85 46 2.05l24.93.15c8.52 0 17.26 0 26.23-.59a122.84 122.84 0 0013.64-1.56 42.77 42.77 0 0013.81-4.64 20.7 20.7 0 006-5.18 19 19 0 003.39-7.35 25.16 25.16 0 00.58-3.9 17.65 17.65 0 00-.16-4.21 16.86 16.86 0 00-3.63-7.66 17.73 17.73 0 00-12-6.13 17.34 17.34 0 00-3.06 0c-.49 0-1 .12-1.43.2l-.68.14h-.17V189a10 10 0 000-1.1l-.12-2.17a25.24 25.24 0 00-13.23-19.54 26.77 26.77 0 00-6.79-2.43 27.91 27.91 0 00-6.54-.43 25.07 25.07 0 00-5.68 1 3.24 3.24 0 00-.36.2v-.35l-.08-1.6c-.05-.71 0-1.43-.16-2.13a32 32 0 00-2.16-8.11 30 30 0 00-9.86-12.34 29.65 29.65 0 00-27.42-4 29.52 29.52 0 00-17.31 16.35 28.78 28.78 0 00-2.2 10.32 20.69 20.69 0 000 2.49l.1 1.21.06.59v.24c.09.63.31 1.35.46 1.95a9.21 9.21 0 00-1.53-.58l-.38-.11-.62-.15c-.55-.12-1.09-.23-1.62-.31a24.1 24.1 0 00-5.75-.17 23.32 23.32 0 00-8.55 2.51l1.08 2.2a21.43 21.43 0 0112.74-1.65c.46.08.93.19 1.41.31l.94.26c.4.14.8.24 1.22.42 1.65.66 3.63 1.65 5.49 2.57-.45-2-1.26-4.66-1.56-6.93l-.1-.88v-.54l-.05-1.08a18 18 0 01.09-2.19 25.53 25.53 0 0117.49-22.71 25.24 25.24 0 0131.22 14.27 27.22 27.22 0 011.71 6.74c.1.59.06 1.19.11 1.78v2.35c-.17 2.48-.83 5.49-1.23 8.15l4-2a23.8 23.8 0 014.31-1.83 19.67 19.67 0 014.5-.77 22.81 22.81 0 015.13.4 22.23 22.23 0 015.28 1.94 19.84 19.84 0 018.4 8.9 20.15 20.15 0 011.79 6.35l.08 1.68a8.07 8.07 0 010 .85 16.59 16.59 0 01-.16 1.9c-.4 2.61-1.31 5.92-1.88 8.58l3.93-2.28a21.3 21.3 0 014.35-2.18l.54-.17.38-.09.45-.09c.31-.05.63-.1.95-.13a11.69 11.69 0 012.05 0 12 12 0 018 4.12 11.06 11.06 0 012.36 4.94 11.18 11.18 0 01.09 2.79 19.48 19.48 0 01-.43 3 13.51 13.51 0 01-6.76 8.93 37.78 37.78 0 01-11.95 4 114.87 114.87 0 01-13 1.58c-8.73.62-17.4.76-25.88.86l-24.9.23c-16.17.09-31.52.47-45.49-1a72.15 72.15 0 01-10.07-1.75 24.71 24.71 0 01-8.56-3.78c-4.86-3.41-5.38-10.49-2.32-15zm-135.2-79.52a77.25 77.25 0 01-14.45 14 72.22 72.22 0 01-19.36 10.06 69.52 69.52 0 01-11.2 2.81 76.41 76.41 0 01-11.89.93 71.27 71.27 0 01-63.13-39.83 74.19 74.19 0 01-3.93-56.16 72.37 72.37 0 0137-42.26A70.39 70.39 0 01129.5 8.7a68.46 68.46 0 0121.8 11.79 75.82 75.82 0 0115.77 17.3q1.5 2.43 3 4.81l2.44 5a45.91 45.91 0 012 5 36.51 36.51 0 011.69 5q.69 2.53 1.36 5c.28 1.7.57 3.37.84 5 .13.83.3 1.65.4 2.48s.11 1.65.17 2.47q.16 2.46.33 4.86h2.46c-.05-1.65-.11-3.33-.16-5 0-.85-.05-1.7-.08-2.56s-.21-1.72-.32-2.58c-.23-1.73-.46-3.49-.69-5.26-.41-1.74-.83-3.5-1.24-5.29a39.85 39.85 0 00-1.6-5.31 46.21 46.21 0 00-2-5.32q-1.18-2.62-2.41-5.29l-3-5.13a78.65 78.65 0 00-16.23-18.66 72.26 72.26 0 00-23-13 74.78 74.78 0 00-56.1 3 77.35 77.35 0 00-40.06 45.5A79.07 79.07 0 0039.33 113a75.38 75.38 0 0068.09 41.74 78.87 78.87 0 0012.58-1.3 72.13 72.13 0 0011.75-3.26 74.31 74.31 0 0020-11.14 77.87 77.87 0 0014.49-15z"/><path class="cls-2" d="M56.3 66.14c-.17 0-.31.4-.13.89a8.32 8.32 0 003.19 3.54 24 24 0 005 2.6 33 33 0 0013.27 2.12A23.78 23.78 0 0090.51 71a18.57 18.57 0 006.31-8c.18-.43.19-.78 0-.87s-.46.11-.73.47a22.9 22.9 0 01-6.89 6.52 25.07 25.07 0 01-11.71 3.34A38.93 38.93 0 0165.12 71a29.34 29.34 0 01-4.9-1.83 8.58 8.58 0 01-3.32-2.45c-.21-.35-.39-.6-.6-.58zM119.72 58c-.13.14 0 .43.25.72 1.72 1.58 4.58 2.57 7.84 3a28.67 28.67 0 0011-.68 18.19 18.19 0 009.62-5.72 11 11 0 002.52-8.1c0-.38-.19-.64-.38-.64s-.36.25-.44.6a12 12 0 01-3.42 6.59 19.31 19.31 0 01-8.64 4.49A37.15 37.15 0 01128 59.41a19.31 19.31 0 01-7.56-1.41c-.3-.13-.6-.15-.72 0z"/><path class="cls-1" d="M101.54 111.83c-16.19 0-30.8-4.8-38.71-10.88-3.8-2.93-5.91-6-6.08-9l2-.13c.13 2.31 2 5 5.29 7.48 10 7.72 31.38 13.28 52.72 9l.4 2a78.7 78.7 0 01-15.62 1.53z"/><path class="cls-1" d="M51.74 98.91h-.11a1 1 0 01-.9-1.1c0-.34 1-8.27 16-8.27a1 1 0 110 2c-13.11 0-14 6.17-14 6.43a1 1 0 01-.99.94zm39.27 209.23l3.93-13.82 1.95.56-2.96 10.42 29.86-7.59-7.58-7.74 1.45-1.42 10.05 10.26-36.7 9.33z"/><path class="cls-1" d="M91.38 296.8l4.8-13.57 1.92.68-3.54 9.99 23.22-5.9-7.87-7.09 1.36-1.51 10.69 9.63-30.58 7.77zm.83-11.06l4.53-11.24 1.89.77-3.04 7.51 15.98-4.06-6.26-5.15 1.3-1.57 9.34 7.7-23.74 6.04z"/><path class="cls-1" d="M93.24 276.81l6.22-12.25 11.33 7.78zm6.79-10l-3.91 7.7 11-2.81z"/><path class="cls-1" transform="rotate(-14.26 107.094 308.335)" d="M106.1 303.16h2.03v10.37h-2.03z"/><path class="cls-1" transform="rotate(-14.27 113.284 306.158)" d="M112.3 301.57h2.03v9.37h-2.03z"/><path class="cls-1" d="M186.8 287.4l-37.86-.69 7.44-12.29 1.74 1.06-5.62 9.27 30.81.56-5.27-9.47 1.78-.99 6.98 12.55z"/><path class="cls-1" d="M183.84 276.45l-31.55-.57 8.21-11.83 1.67 1.16-6.04 8.7 23.95.44-5.72-8.91 1.71-1.11 7.77 12.12z"/><path class="cls-1" d="M180.51 265.87l-24.5-.44 7.34-9.64 1.62 1.23-4.91 6.44 16.47.31-4.66-6.63 1.65-1.17 6.99 9.9z"/><path class="cls-1" d="M178 257.67l-19.22-.35 9.81-10.8zm-9.58-2.21l5.14.1-5-5.95-5.24 5.76z"/><path class="cls-1" transform="rotate(-88.55 164.365 290.909)" d="M159.45 289.9h9.87v2.03h-9.87z"/><path class="cls-1" transform="rotate(-88.55 170.9 291.029)" d="M165.98 290.02h9.87v2.03h-9.87z"/><path class="cls-1" d="M293.38 307.01l-34.91-14.68 11.47-8.66 1.22 1.62-8.65 6.53 28.4 11.95-1.38-10.75 2.02-.26 1.83 14.25z"/><path class="cls-1" d="M294.69 295.74l-29.08-12.23 12-7.94 1.12 1.7-8.84 5.84 22.09 9.28-2.01-10.4 1.99-.38 2.73 14.13z"/><path class="cls-1" d="M295.52 284.68l-22.59-9.5 10.39-6.23 1.05 1.74-6.95 4.17 15.19 6.39-1.88-7.88 1.97-.48 2.82 11.79z"/><path class="cls-1" d="M296.25 276.14l-17.73-7.45 13.12-6.39zm-12.81-7.59l9.46 4-2.46-7.39z"/><path class="cls-1" transform="rotate(-67.24 270.515 303.85)" d="M263.54 302.83h13.93v2.03h-13.93z"/><path class="cls-1" transform="rotate(-67.24 276.534 306.377)" d="M269.56 305.36h13.93v2.03h-13.93z"/><path class="cls-2" d="M14.47 327.59L8.8 339.86l-3.47 7.71c-1.62 3.7-3.39 7.72-5.33 12.14l24.37-4.55 27-5.32 27-5.57 24.21-5.27-9.58-9.11-6.19-5.75-10-9.12-1.28 1.32 9.4 9.71 5.93 6 3.39 3.41.85.85.21.23.39.43-.55.06h-.36l-.53.1-5.1.93-11.6 2.19-27 5.32-27 5.56L12 353.66l-5 1.12-.52.11h-.11l-.27.11-.52.17c.06-.19.12-.37.19-.55l.1-.29q.22-.57.45-1.11c.63-1.56 1.23-3 1.8-4.47l3.14-7.84c1.88-4.82 3.45-8.87 4.9-12.6z"/><path class="cls-2" d="M20.46 300.62c-2 3.5-4.08 7.34-6.55 11.92l-4 7.47-2.24 4.24-4.06 7.85 20.69-3.87 21.86-4.3L68 319.42 88.55 315l-6.79-5.66-3.71-3-6.58-5.34c-4-3.26-7.5-6-10.66-8.45l-1.19 1.4c2.94 2.73 6.18 5.69 10.05 9.16l6.33 5.57 3.6 3.17.47.42a.94.94 0 01.18.17l.19.18.33.34-.77.04h-.37l-1 .19-2.11.38-9.38 1.76-21.84 4.37-21.81 4.5-9.33 2-2.1.46-1 .22-.24.06h-.07l-.7.23.18-.44.09-.24.11-.23.27-.56 2.09-4.32 3.64-7.65c2.23-4.7 4.07-8.69 5.72-12.34z"/><path class="cls-2" d="M24 279.38c-1.76 2.75-3.67 5.8-5.89 9.43l-3.57 5.91-2.18 3.68-3.89 6.72 16.49-3 16.15-3.16 16.12-3.35L73.61 292l-6.19-4.68-3.42-2.57-5.59-4.07c-3.44-2.48-6.39-4.55-9.08-6.41l-1.12 1.45c2.47 2.15 5.21 4.47 8.48 7.19L62 287.3l2.73 2.22.51.5h-.56c-.24 0 .12-.08-1.34.19l-6.93 1.28-16.15 3.16L24.14 298l-6.88 1.51a5 5 0 00-1.31.34l-.52.19q.13-.35.27-.66l1.65-3.11 3.22-6.11c2-3.77 3.58-7 5-9.91z"/><path class="cls-2" d="M37 278.31c2.61-.36 5.45-.78 8.82-1.33l5.5-.92 10.67-2-14.29-9.5-6.64-4.36-8.92-5.74-6 8.75-4.44 6.59-9.44 14.3 10.6-2.31 5.42-1.28c3.32-.81 6.1-1.52 8.66-2.2l-.37-1.8c-2.61.37-5.45.79-8.83 1.33l-5.49.92-1.33.22h-.39l-.65.05.48-.51.19-.2c.1-.12 0 .1.4-.51l4.12-5.73 8.24-11.77L45.49 268l6 3.69a3.05 3.05 0 00.57.32l.25.1.64.29-.62.2-.37.12-1.31.31-5.42 1.29c-3.32.8-6.1 1.51-8.66 2.19zm21.71 109.48a10.73 10.73 0 01-4.28-.62 7.19 7.19 0 01-3.57-2.75 5.28 5.28 0 01-.78-2.1c-.17-1-.35-2.1-.54-3.19-.37-2.16-.8-4.4-1.26-6.7a197.37 197.37 0 00-5.9-23l-1.8.37a196.72 196.72 0 003.47 23.47c.46 2.29.94 4.52 1.43 6.66l.74 3.15a8.58 8.58 0 001.71 3.49 9.68 9.68 0 005.75 3.35 11.07 11.07 0 005.39-.35z"/><path class="cls-2" d="M58.9 346.12a198.5 198.5 0 003.47 23.47c.46 2.29.94 4.52 1.43 6.67.26 1.07.5 2.11.75 3.14a5.31 5.31 0 01.09 2.24 7.19 7.19 0 01-2.22 3.91 10.48 10.48 0 01-3.71 2.24l.36 1.8a11 11 0 005.11-1.77 9.72 9.72 0 004-5.31 8.75 8.75 0 00.21-3.89c-.17-1-.35-2.1-.53-3.18-.38-2.17-.8-4.41-1.26-6.7a198.87 198.87 0 00-5.9-23z"/><path class="cls-1" d="M433.58 321.48l-37.19-7.15 9.43-10.84 1.54 1.33-7.12 8.18 30.26 5.82-3.57-10.23 1.91-.67 4.74 13.56z"/><path class="cls-1" d="M432.54 310.19l-30.99-5.97 10.12-10.24 1.44 1.43-7.44 7.54 23.52 4.52-4.11-9.76 1.87-.79 5.59 13.27z"/><path class="cls-1" d="M431.06 299.19L407 294.56l8.88-8.24 1.38 1.49-5.93 5.51 16.18 3.12-3.47-7.33 1.84-.87 5.18 10.95z"/><path class="cls-1" d="M430 290.69l-18.89-3.64 11.52-8.95zm-14.1-4.78l10.1 1.93-3.93-6.72z"/><path class="cls-1" transform="rotate(-77.81 410.673 321.783)" d="M405.02 320.77h11.29v2.03h-11.29z"/><path class="cls-1" transform="rotate(-77.81 417.09 323.022)" d="M411.44 322h11.29v2.03h-11.29z"/><path class="cls-1" d="M359.17 320.5l3.99-12.05 1.93.63-2.89 8.71 25.72-5.39-6.13-6.82 1.51-1.35 8.49 9.44-32.62 6.83z"/><path class="cls-1" d="M359.89 310.69l4.76-11.82 1.88.75-3.34 8.3 19.86-4.16-6.38-6.26 1.42-1.45 9.1 8.92-27.3 5.72z"/><path class="cls-1" d="M361 301.13l4.46-9.82 1.85.84-2.8 6.17 13.48-2.83-5.03-4.52 1.35-1.51 8.02 7.2-21.33 4.47z"/><path class="cls-1" d="M361.76 293.74l6.44-11.42 10.48 7.88zm7.07-8.4l-3.1 5.49 8.14-1.7z"/><path class="cls-1" transform="rotate(-12.05 373.422 320.973)" d="M372.28 316.6h2.03v8.54h-2.03z"/><path class="cls-1" transform="rotate(-12.04 378.943 319.787)" d="M377.83 315.44h2.03v8.54h-2.03z"/><path class="cls-2" d="M254.69 79.61c3-.63 5.93-1.58 8.91-2.21a29.59 29.59 0 019.21-.5c3.23.26 6.61.86 10.27 1.17a67 67 0 0011.4-.13c3.9-.33 7.91-.88 12-1.34 2.07-.22 4.18-.44 6.32-.55 1.07 0 2.15-.11 3.23-.11a19.3 19.3 0 013.05.12 3.42 3.42 0 012 1 26.91 26.91 0 012.08 2.52l4.54 5.82 8.74 11.2c-2.45 3.46-5.07 7.18-7.85 11.12-3.14 4.38-6.12 9.28-10.44 12.2a12.88 12.88 0 01-7.3 2.19 90.73 90.73 0 01-9.2-.75 131.21 131.21 0 00-20.5.06c-7 .48-14 1.13-21.23 1.51s-14.63.66-22.17.76c-15.09.2-30.66-.39-46.53-1.58-14.18-1-28.26-2.12-40.87-2.27-6.3-.11-12.23.05-17.58.37-2.68.14-5.21.38-7.58.61-1.19.1-2.33.27-3.42.4l-.48.06h-.08c-.29-1.59-.58-3.16-.86-4.72-.41-2.43-.82-4.82-1.21-7.15-.74-4.68-1.3-9.15-1.62-13.26a96.13 96.13 0 01-.29-11.11c.07-1.62.17-3.11.32-4.45 0-.67.14-1.3.24-1.89 0-.3.08-.59.12-.86s0-.12 0-.2h.69c.46 0 .92 0 1.38.07.92.07 1.84.17 2.76.29l5.5.76a50.92 50.92 0 005.53.48c1.83 0 3.59-.12 5.37-.18 7.07-.26 13.88-.61 20.36-.74 13-.23 25 .32 36.22.88s21.57 1.19 31.32 1.51 18.93.84 27.61-1.18l-.54-2.39c-8.18 1.76-17.28 1.07-27 .78s-20.06-1-31.28-1.49-23.31-.91-36.42-.48c-6.57.22-13.31.69-20.34 1.08-1.75.09-3.55.24-5.31.28a48.86 48.86 0 01-5.26-.31l-5.5-.62c-.94-.1-1.89-.19-2.85-.23-.49 0-1-.05-1.46-.05h-.95a3.92 3.92 0 00-1.11.1l-.51 2.25c-.14.6-.29 1.24-.4 1.93-.26 1.36-.48 2.89-.69 4.54a101.41 101.41 0 00-.61 11.41c0 4.23.19 8.82.54 13.62.2 2.39.41 4.84.62 7.32l.36 3.74.09 1 .26 1.82c.2 1.18.28 2.51.57 3.58l5.62-.65c1.06-.12 2.16-.27 3.31-.35 2.3-.21 4.75-.42 7.36-.54 5.21-.28 11-.41 17.17-.28 12.37.2 26.32 1.31 40.56 2.34 15.93 1.19 31.76 1.76 47 1.49 7.63-.12 15.12-.42 22.43-.88s14.46-1.14 21.28-1.67a128.94 128.94 0 0119.68-.26 88.22 88.22 0 009.79.65 19.36 19.36 0 005.23-.84 17.76 17.76 0 004.7-2.32 29.84 29.84 0 006.71-6.71c1.8-2.38 3.3-4.72 4.82-6.94l9.42-14L331 82.84l-4.62-5.75a27.94 27.94 0 00-2.52-2.91 7.43 7.43 0 00-4.12-2A22.3 22.3 0 00316 72c-1.16 0-2.3.1-3.42.17-2.24.15-4.41.42-6.51.68-4.21.55-8.16 1.17-11.94 1.57a65.49 65.49 0 01-10.83.37c-3.46-.21-6.88-.72-10.29-.91a32.11 32.11 0 00-10 .83c-3.14.77-6 1.8-8.84 2.48zm-32.3 75.25c-7.52.48-15.56-.26-24.26-.14s-17.9.74-27.84 1.36c-5 .3-10.12.58-15.48.7-2.68 0-5.44.09-8.18 0s-5.59-.44-8.69-.29a14.87 14.87 0 00-8.86 3.45c-1.28 1-2.33 2.14-3.44 3.22l-3.4 3.26q-3.43 3.28-7.13 6.61l-3.77 3.31c-.85.7-3.67 3.21-5.91 5.39l23 16.1c2 1.35 3.84 2.72 6 4.14a26.58 26.58 0 003.64 2 15.79 15.79 0 004.39 1.2 41.92 41.92 0 008.36-.14l8.07-.61c10.87-.78 22.38-1.43 34 .12 5.79.77 11.8 2.15 18.2 2.78a189.69 189.69 0 0019 .53c18.94-.06 37.51-.59 54-1.39 8.26-.39 16-.84 23-1.32l10-.71 11.11-.89a34.56 34.56 0 000-3.51l-.05-1.78-.06-1.07-.18-3.83c-.12-2.54-.17-5-.22-7.46-.06-4.86 0-9.46.16-13.66s.39-8 .65-11.26c.14-1.62.27-3.11.38-4.44.07-.67.13-1.29.19-1.88s.11-.94.16-1.38.08-.91.12-1.34c-.16-.14-.59 0-.87-.05s-.65 0-1 .05l-1.49.09-2.22.15-4.37.27-8.4.56c-5.52.31-10.79.55-15.84.71-10.11.33-19.34.29-27.87-.15s-16.43-1.34-24-1-14.36 1.83-20.87 2.28l.16 2.44c6.73-.34 13.57-1.69 20.83-2s15.1.58 23.74 1 17.94.36 28.09-.1c5.08-.23 10.37-.56 15.89-1l16-1.27c0 .05 0 .11-.05.17v.07a.65.65 0 010 .22l-.31 1.87c-.2 1.34-.43 2.83-.68 4.45-.48 3.25-1 7.07-1.42 11.3s-.83 8.88-1.1 13.81c-.13 2.46-.25 5-.31 7.57 0 1.74-.08 3.51-.11 5.31l-16.31 1c-7 .4-14.72.8-22.95 1.15-16.46.7-35 1.18-53.81 1.24a183.3 183.3 0 01-18.44-.49c-5.93-.56-11.88-1.91-18-2.71-12.32-1.6-24.19-.83-35.14 0l-8.08.67a38.14 38.14 0 01-7.27.23 13.16 13.16 0 01-5.82-2.34c-2-1.26-4-2.7-5.93-4L120.29 186l-5.07-3.43-2.06-1.39-.4-.25c0-.31-.07-.11 1.38-1.8l3.32-3.74q3.33-3.66 6.62-7.06l3.28-3.36a40.59 40.59 0 013.25-3.11 12.37 12.37 0 017.48-3c2.74-.16 5.61.18 8.46.26s5.59 0 8.31 0c5.41-.12 10.59-.4 15.57-.69 10-.6 19.13-1.22 27.72-1.27s16.62.64 24.4.13z"/></g></g></g></svg>