<svg xmlns="http://www.w3.org/2000/svg" viewBox="0 0 608.02 699.43"><defs><clipPath id="clip-path"><path id="SVGID" class="cls-1" d="M497.42 80.35c38.07 33.24 49.06 97.38 58.87 160.34 9.81 63.12 18.3 125.35-5.13 171.77s-79.22 76.88-141.6 107.48-131.2 61.36-196.37 51S86.68 509.11 62.51 446.29c-24.3-63-11.27-137.06 10.4-200.91C94.73 181.54 125 127.94 169.26 95.73s102.36-43.2 163.86-47.3S459.5 47 497.42 80.35z"/></clipPath><style>.cls-1{fill:#55b0e3}.cls-3{fill:#69ac4c}.cls-6{fill:#b8872e}.cls-7{fill:#30824d}.cls-8{fill:#c8aa77}.cls-9{fill:#866122}.cls-11,.cls-12{fill:#343333}.cls-12{fill-rule:evenodd}</style></defs><g id="Layer_2" data-name="Layer 2"><g id="export"><g id="beskydska-pohadka"><path id="SVGID-2" data-name="SVGID" class="cls-1" d="M497.42 80.35c38.07 33.24 49.06 97.38 58.87 160.34 9.81 63.12 18.3 125.35-5.13 171.77s-79.22 76.88-141.6 107.48-131.2 61.36-196.37 51S86.68 509.11 62.51 446.29c-24.3-63-11.27-137.06 10.4-200.91C94.73 181.54 125 127.94 169.26 95.73s102.36-43.2 163.86-47.3S459.5 47 497.42 80.35z"/><g clip-path="url(#clip-path)"><path class="cls-1" d="M42.08 39.63h531.46v540.66H42.08z"/></g><path class="cls-3" d="M304.17 40.7c-.84-8-7.91-11.85-14.19-11.46h-.05a2 2 0 01-1.88 1.4 6 6 0 00-.95 0c-.08 0-.55.09-.24 0l-.24.06a6.77 6.77 0 00-.77.22l-.23.08-.26.11a11 11 0 00-1.58 1l-.18.14-.28.24c-.25.21-.49.43-.72.65-.46.46-.9.94-1.32 1.45l-.19.23-.19.27c-.19.26-.38.52-.55.79a19.54 19.54 0 00-1.72 3.12 1.44 1.44 0 01-.7.7c-1.86 10.31-2.07 21-3.37 31.41-1.47 11.78-1.68 23 1.34 34.59 2 7.75 9.73 10.06 16 7.62 5.3-.74 10.1-4.56 10.15-11.5-.14-20.46 4.26-40.65 2.12-61.12zM297.38 177c0-1.69.05-3.38.08-5.08.23-15.53-23.9-15.54-24.13 0l-.42 28.08a12 12 0 0010.46 11.85 13.63 13.63 0 0010.5-3.54 12.72 12.72 0 005.77-10.3l.3-13.38a11 11 0 00-2.56-7.63zm-26.94 214.67q-12-.09-24-.71a4 4 0 00-4 4 4.1 4.1 0 004 4q12 .62 24 .71a4 4 0 000-8z"/><path class="cls-3" d="M127.55 689c.7-.51 1.36-1 2-1.59 2-.79 4-1.58 6-2.39 8.84-3.62 17.58-7.51 26.19-11.58a43.86 43.86 0 01-17.69-22.58c-.38-1.5-.78-3-1.16-4.55-.18-.75-.43-1.53-.56-2.31l-.24-2.38c-.16-1.61-.32-3.22-.51-4.86 0-1.61.08-3.24.11-4.9.05-1.32.1-2.6.13-3.92l.08-1.1v-.53c0-.11-.11-.48.16-.38l2.2.11c.72 0 1.47.08 2.2.16l1.07.11.7.11c.85.13 1.74.29 2.6.48s1.74.4 2.6.67l1 .29a4.54 4.54 0 01.67.3c0-.08-.27-.49-.37-.67l-.19-.46-.11-.21v-.14l-.14-.4c-.37-1.1-.8-2.2-1.1-3.35a44.64 44.64 0 01-1.5-7.4c-24.26 4.38-48.63 7.65-73 10.69.17-1 .3-2 .42-2.94l11.83-1.88c20.21-3.32 40.45-6.83 60.42-11.18 0-1 0-2 .08-3a47.17 47.17 0 014.91-18.12c.69-1.24 1.39-2.49 2.09-3.76l.27-.48c.18 0 .37.08.59.11l1.18.24 2.3.51a43.58 43.58 0 015.34 1.64 47.25 47.25 0 015.17 2.33c.24.11.51.24.75.37v-.19c0-.67.08-1.34.13-2a50.5 50.5 0 011.8-9 48.78 48.78 0 014.32-9.89 50.11 50.11 0 013.32-4.93c.62-.83 1.29-1.61 2-2.41l.54-.62 1-1.07c.67-.7 1.34-1.42 2-2.12 1.07.54 2.36 1.21 3.8 2 1.08.59 1.77 1 2.77 1.6a51 51 0 015.71 4.27 46.69 46.69 0 0110.29 12.92 43.52 43.52 0 012.89 6.41c.14.34.09.24.09.29l1.17-1.1a40.63 40.63 0 015.23-4.1l1.48-.91 2.57-1.45c.43-.16.89-.59 1.26-.56l1 1c.67.7 1.37 1.37 2 2.09s1 1.21 1.5 1.8c.46-.43 1-.91 1.48-1.45 2.11-2.33 5.57-6.24 6.16-12.35a19.4 19.4 0 00-1.77-9.92 23.83 23.83 0 00-8.28-9c-7.59-5.17-18.1-8.39-29.71-11s-24.69-4.55-38.55-7.29a145 145 0 01-21.28-5.6 42.81 42.81 0 01-10.46-5.31c-3.24-2.3-6.22-5.84-7-10.21a17.05 17.05 0 012.68-12.36c2.57-3.57 6.24-5.9 9.94-7.83 7.51-3.78 15.71-5.9 24-7.72 16.64-3.51 34-5.39 51.68-7s35.63-2.79 53.67-4.16c1.85-.13 3.33-.24 4.37-.29q.86-23.13 2.2-46.25.31-5.43.67-10.86t.67-11c-17.16-3.81-32.33-6.57-41-8.07-41.36 3.3-79.4 15.22-113.45 35.68 1.77 1.63 3.65 3.4 5.63 5.25l12.71 12-32 6.94L81 458.84a271.86 271.86 0 016.92 27.64c.59 3 1.15 6 1.66 8.82.24 1.45.48 2.84.7 4.21a11.43 11.43 0 01-.3 5.12 12.75 12.75 0 01-5.28 7 14.49 14.49 0 01-6.76 2.37 14.4 14.4 0 01-7.1.45 12.82 12.82 0 01-7.62-4.45 11.5 11.5 0 01-2.22-4.59c-.29-1.34-.64-2.74-1-4.16-.65-2.81-1.29-5.76-1.91-8.79-.88-4.4-1.66-8.66-2.3-12.68-7.36 8.07-26.51 29.92-40.79 56.48 0 .08-.08.14-.11.22.16.2.4.51.66.87a45.18 45.18 0 00-2.91 6.21C8.3 555 4.86 567 4.48 579.33c-.23 7.4 1.56 15.07 2.76 22.36 2 12.17 18.29 20.19 26.25 28.86"/><path d="M524.43 214.92l.05 1.17v.68l-.05 1.23c-.22 3.3-1.1 7.26-1.61 10.78l5.25-2.69a33.84 33.84 0 015.69-2.44 26.42 26.42 0 016-1 30.17 30.17 0 016.78.51 28.57 28.57 0 016.94 2.58 26.15 26.15 0 0111.1 11.74 26.61 26.61 0 012.36 8.36l.11 2.23a7 7 0 010 1.12c0 .73-.08 1.66-.19 2.5-.53 3.45-1.74 7.82-2.49 11.34l5.17-3a28.39 28.39 0 015.77-2.87l.69-.22.51-.13.59-.11a10.08 10.08 0 011.26-.16 12.63 12.63 0 012.68 0 15.83 15.83 0 0110.62 5.42 14.58 14.58 0 013.11 6.51 15 15 0 01.13 3.7 26.92 26.92 0 01-.56 4 17.88 17.88 0 01-8.93 11.77c-4.58 2.7-10.16 4.21-15.76 5.3a151.35 151.35 0 01-17.16 2.07c-11.5.83-23 1-34.12 1.15s-22.17.19-32.87.3c-21.31.13-41.58.61-60-1.29a93.94 93.94 0 01-13.29-2.31 32.59 32.59 0 01-11.29-5c-5.44-3.84-6.76-11.13-4.56-16.89l8.93-.56 13.16-.94 14.55-1.21a40.2 40.2 0 00-.05-4.64l-.06-2.33-.08-1.42c-.08-1.69-.16-3.38-.24-5-.16-3.35-.24-6.65-.29-9.84-.08-6.41 0-12.49.21-18V227a28 28 0 0115.51-1.55c.59.11 1.23.24 1.85.4.4.11.83.22 1.23.35a16.91 16.91 0 011.61.54c2.2.88 4.8 2.17 7.26 3.4-.61-2.71-1.66-6.16-2.06-9.14l-.13-1.18-.06-.7-.05-1.42a21.49 21.49 0 01.11-2.89 33.64 33.64 0 0123.08-30A33.26 33.26 0 01522 203.68a34.57 34.57 0 012.25 8.88c.15.77.12 1.58.18 2.36z" fill="#d1e8f5"/><path d="M235.89 92.59c.06 1.1.14 2.17.22 3.24.08 1.48.19 2.93.29 4.37-8.31-.18-17-.18-26 .11-8.66.3-17.56.91-26.84 1.42-2.3.11-4.66.32-7 .38a62.8 62.8 0 01-7-.49l-7.29-.85c-1.23-.14-2.49-.24-3.78-.32-.61 0-1.26-.06-1.9-.06h-1.26a5.08 5.08 0 00-1.48.13c-.18.91-.42 1.91-.67 3-.18.81-.37 1.66-.51 2.55-.34 1.79-.64 3.8-.91 6a138.3 138.3 0 00-.83 15c0 5.07.22 10.54.62 16.25-27.29 4.77-54.15-2.39-67-12.28-3.86-3-6.25-6.09-6.87-8.87a34.12 34.12 0 0110.43-1.37 1.35 1.35 0 001.34-1.34 1.33 1.33 0 00-1.34-1.34C68.18 118.14 67 128.59 66.92 129a1.36 1.36 0 001.21 1.48h.13a1.36 1.36 0 001.34-1.21c0-.21.51-3.7 5.58-6.14.83 3.33 3.48 6.76 7.72 10 10.43 8 29.7 14.34 51.07 14.34a103.59 103.59 0 0017.75-1.5c.24 2.84.48 5.76.75 8.71.16 1.64.29 3.27.45 4.93l.14 1.26.35 2.42c.24 1.55.37 3.29.75 4.71 2.36-.29 4.82-.56 7.39-.85 1.43-.16 2.87-.38 4.37-.49 3-.26 6.28-.53 9.71-.69 6.89-.38 14.5-.54 22.65-.38 4.72.08 9.63.27 14.67.51a101.92 101.92 0 01-15.26 13.94 95.29 95.29 0 01-40.32 17 101.08 101.08 0 01-15.68 1.2 94 94 0 01-83.29-52.49 97.92 97.92 0 01-5.18-74.1A95.58 95.58 0 01102 15.92a92.81 92.81 0 0168.82-4.48A90.35 90.35 0 01199.62 27a99.47 99.47 0 0120.81 22.82c1.31 2.14 2.6 4.23 3.88 6.35 1.07 2.2 2.15 4.37 3.22 6.54a65.76 65.76 0 012.71 6.62 51.76 51.76 0 012.22 6.68c.59 2.22 1.21 4.45 1.8 6.62.37 2.25.72 4.45 1.1 6.65.16 1.14.4 2.21.53 3.31zM195.82 73a14.51 14.51 0 003.32-10.69c0-.51-.24-.86-.51-.86s-.48.35-.56.8a16 16 0 01-4.53 8.69c-2.71 2.71-6.79 4.72-11.4 5.92a49 49 0 01-13.27 1.53c-4-.11-7.56-.64-10-1.82-.4-.22-.78-.24-1 0s0 .56.34.93c2.26 2.09 6 3.38 10.35 4a38.27 38.27 0 0014.48-.91c5.19-1.38 9.88-4 12.78-7.59zm-68.07 10.05c.24-.57.24-1 0-1.16s-.62.16-1 .62a30.43 30.43 0 01-9.09 8.61 33.5 33.5 0 01-15.46 4.42 51.73 51.73 0 01-16.33-1.9 40 40 0 01-6.49-2.42A11.73 11.73 0 0175.07 88c-.27-.43-.51-.75-.8-.72s-.4.53-.16 1.18a11 11 0 004.21 4.66A32.07 32.07 0 0085 96.53a43.42 43.42 0 0017.51 2.79 31.22 31.22 0 0016.94-5.66 24.61 24.61 0 008.3-10.61z" fill="#f7c751"/><path class="cls-3" d="M556.84 370.88l5.17 8.88-13.29-2.58 8.12-6.3zm2.89 11.16l4.29 9.03-21.36-4.1 7.34-6.81 9.73 1.88zm1.26 11.2l5.23 12.41-31.01-5.97 9.46-9.6 16.32 3.16zm2.5 14.61l4.47 12.76-39.91-7.69 8.87-10.19 26.57 5.12zm-70.24-26.4l-10.75 2.25 4.1-7.27 6.65 5.02zm5.44 8.39l-17.8 3.72 3.43-7.5 8.23-1.75 6.14 5.53zm6.68 10.91l-26.19 5.49 4.18-10.45 13.96-2.92 8.05 7.88zm-1.18 2.97l7.58 8.42-33.91 7.11 3.57-10.75 22.76-4.78z"/><path class="cls-6" d="M492.88 418.84l4.71-1 1.85 8.71c-1.66 0-3.27 0-4.88.06z"/><path class="cls-3" d="M383.18 349.79l3.24 9.76-12.47-5.26 9.23-4.5zm.53 11.52l2.34 9.74-20.06-8.42 8.58-5.18 9.14 3.86zm-1.04 11.24l2.54 13.19-29.14-12.23 11.24-7.45 15.36 6.49zm-.59 14.79l1.71 13.41-37.45-15.76 10.78-8.15 24.96 10.5z"/><path class="cls-6" d="M360.82 410.21c-1.85-.83-3.65-1.58-5.44-2.33l5.79-13.75 5.47 2.3zm-136.53-31.44l-.29 10.72c-2 .19-4 .4-6 .67l.32-11.5zm-75.17 29.14c-1.85.75-3.7 1.52-5.55 2.33l-2.31-9.12 5.74-1.44z"/><path class="cls-3" d="M235.28 364.58l6.56 11.83-40.64-.75 7-11.56 27.08.48zm-4.99-13.96l7.29 11.31-31.6-.56 7.69-11.07 16.62.32zm-3.16-10.81l5.76 8.18-21.71-.4 6.06-7.99 9.89.21zm-11.66-2.92l6.91-7.58 6.62 7.85-6.78-.13-6.75-.14zm-61.61 46.22l9.46 9.65-39.4 10.03 3.7-13.01 26.24-6.67zm1.53-3.17l-30.62 7.81 4.48-12.71 16.14-4.1 10 9zm-8.2-12.22l-21.08 5.36 3.95-9.7 9.11-2.31 8.02 6.65zm-5.82-9.28l-14.56 3.7 5.18-10.15 9.38 6.45z"/><path class="cls-6" d="M85.29 503.5a9.72 9.72 0 01-2.93 5.15 14 14 0 01-4.9 3 14.12 14.12 0 01-5.66-.83 9.27 9.27 0 01-4.69-3.62 7.11 7.11 0 01-1-2.76c-.21-1.37-.45-2.79-.69-4.21-.51-2.84-1.05-5.82-1.66-8.85-2.18-10.72-4.64-20.4-6.89-27.64 3.62-.69 7.29-1.42 11-2.14 3.4-.7 6.81-1.42 10.13-2.09a276.84 276.84 0 004.34 28.15c.62 3 1.26 5.95 1.91 8.79.32 1.39.64 2.79 1 4.13a7 7 0 01.04 2.92z"/><path class="cls-7" d="M101.16 418.92L112 430.16c2.42 2.44 5 5.06 7.83 7.93 1.45 1.45 2.92 3 4.48 4.51l1.12 1.12.27.3.51.56-.72.08H125l-.69.13c-2.12.38-4.37.81-6.73 1.23l-15.31 2.87-35.63 7c-12.5 2.66-24.64 5.11-35.53 7.4-5.44 1.18-10.57 2.28-15.23 3.27-2.33.54-4.58 1-6.67 1.48l-.7.16-.16.05-.3.11a6 6 0 00-.69.21c.08-.24.18-.48.26-.72l.14-.4c.19-.49.4-1 .59-1.45.83-2.07 1.61-4 2.38-5.9 1.5-3.75 2.87-7.18 4.13-10.35 2.12-5.47 4-10.21 5.66-14.55 3.62-.67 7.5-1.42 11.55-2.17 8.82-1.75 18.69-3.68 28.82-5.66s20-4.13 28.79-5.95c4.02-.89 7.86-1.72 11.48-2.5zm5.41-6.05l-1 .08h-.16l-.33.08-1.34.24c-.91.16-1.85.32-2.78.51-3.81.69-8 1.47-12.39 2.3-8.82 1.75-18.68 3.7-28.85 5.69s-20 4.12-28.76 6c-4.4.94-8.55 1.85-12.33 2.65-.94.22-1.85.4-2.76.62-.43.08-.89.19-1.32.29l-.32.08h-.11l-.91.32.24-.59.11-.29c0-.14 0 0 .16-.32l.35-.76c1-1.95 1.87-3.86 2.76-5.68 1.74-3.64 3.32-7 4.8-10.08 2.6-5.52 4.8-10.27 6.81-14.64 1.47-.26 3-.53 4.5-.83l21.31-4.15 21.26-4.43c1.53-.34 3-.67 4.51-1 3.53 3.24 7.39 6.76 11.92 10.83 2.55 2.28 5.31 4.75 8.34 7.43q2.25 2 4.75 4.18l.61.53a1.45 1.45 0 01.24.25l.25.24zm-23-29.95c-2.81.51-5.87 1.07-9.14 1.69-6.52 1.26-13.81 2.71-21.31 4.16s-14.75 3.08-21.26 4.42c-3.25.72-6.3 1.37-9.09 2-1.9.43-1.42.35-1.72.46s-.48.16-.69.24c.13-.3.24-.59.37-.86l2.17-4.1 4.24-8.07c2.31-4.4 4.24-8.23 6-11.77l4.21-1c4.37-1.07 8-2 11.42-2.9 3.44-.48 7.19-1 11.64-1.76 1.37-.25 2.76-.46 4.26-.73 3 2.6 6.27 5.36 10.11 8.55 2.14 1.77 4.47 3.7 7 5.79 1.15.94 2.36 1.91 3.59 2.93a8.47 8.47 0 01.67.67h-.72c-.32.04.18-.09-1.75.28zm-14.99-23.13c-.58.16-1.17.29-1.74.42-2.57.62-5 1.16-7.13 1.69-4.4 1.08-8.07 2-11.42 2.9-3.46.48-7.21 1-11.66 1.74l-7.24 1.23-1.77.3h-.51l-.86.08c.22-.22.41-.46.65-.67l.24-.27c.13-.16-.05.13.54-.67 1.66-2.33 3.48-4.88 5.44-7.56 3.32-4.75 7-10.05 10.86-15.52 5.65 3.54 11.15 7 16.05 10.08 2.82 1.74 5.5 3.37 7.94 4.88.83.5.56.32.75.4l.28.18.86.38c-.3.1-.56.18-.83.29z"/><path class="cls-8" d="M375.54 449.43c-7.72 12.2-42.2 17.56-75.74 21.1 0-.62.08-1.21.14-1.8 37.37-4.5 56.83-10.53 63-19.57a11.87 11.87 0 001.61-10.16c-2.82-10.56-23.52-21.2-61.53-31.66 43.59 10.29 69.59 21.71 73.35 32.3 1.28 3.68 1.02 6.87-.83 9.79z"/><path class="cls-3" d="M300.72 458.79c1.39-16.06 1.63-32.68 1.87-48.74 45.79 12.63 57.59 23.06 59.35 29.68a9.07 9.07 0 01-1.26 7.93c-7.18 10.56-37.23 15.52-60.55 18.34.18-2.41.37-4.83.59-7.21z"/><path class="cls-9" d="M438 538l.16 2.17a7.73 7.73 0 010 2.2 23.22 23.22 0 01-.59 4.28 13.6 13.6 0 01-1.67 3.76c-2.78 4.61-9.11 6.59-15.76 7.07a83.94 83.94 0 01-14.13-.26c-2.33-.22-4.69-.49-7.05-.78-7.29-.94-14.71-2.25-22.3-3.54s-15-2.44-22.2-3.94a105.91 105.91 0 01-20.37-5.9c-6.14-2.65-11.45-6.57-12.6-11.85a14.41 14.41 0 01-.32-4.07 21 21 0 01.83-4.26 8.08 8.08 0 01.72-2.07l.89-2c.75-1.26 1.52-2.55 2.38-3.75a45.24 45.24 0 0113.59-11.5 73.06 73.06 0 0116-6.62 78.62 78.62 0 0130.91-2.52 78.73 78.73 0 0128.36 12.46 73.91 73.91 0 0113 11.48 46 46 0 019.11 15.3c.42 1.42.72 2.9 1.04 4.34z"/><path class="cls-8" d="M157.94 497.12a25.77 25.77 0 017.8-5.92 82.89 82.89 0 0118.36-6.41c12.76-3 26.11-4.77 39.68-6.25s27.39-2.54 41.28-3.54c1.07-.08 2-.13 2.71-.21 0-1.31.08-2.66.13-4l-4.31.46c-18 1.71-36 3.24-53.59 5.12s-34.93 4-51.37 7.69c-8.15 1.9-16.22 4.13-23.32 7.83-3.49 1.85-6.84 4.1-9 7.13a14.36 14.36 0 00-2.12 10.35c.64 3.48 3 6.35 6 8.42a41 41 0 009.81 4.85 145.8 145.8 0 0020.85 5.28c10.84 2 21.21 3.59 30.91 5.44l3.73.73c1.37.26 2.74.56 4.08.85 11.79 2.6 22.62 5.74 31 11.37a27.31 27.31 0 019.57 10.43 23.38 23.38 0 012.17 11.87 21.9 21.9 0 01-3 9.17 29.32 29.32 0 01-4.18 5.44 26.15 26.15 0 01-2 1.91 41.25 41.25 0 014.67 9.51c.27.75.48 1.48.69 2.18l.17.64v.08a.44.44 0 000 .21l.13-.13.62-.46c.51-.4 1-.8 1.53-1.15a42 42 0 016.49-3.78c1.09-.51 2.22-1 3.35-1.39l.93-.32 1.37-.43c1-.27 2-.57 2.92-.83.57.88 1.1 1.76 1.64 2.62.24.38.56 1 .7 1.24l.4.72c.53 1 1 2 1.42 3a42.31 42.31 0 013 11.09c.08.83.19 1.64.24 2.42 0 .37.05.75.05 1.12v.54c0 .19 0 .35-.05.51l.34-.14 1.29-.43c.3-.08.62-.18.91-.24-.08-21.74-.08-44 .14-66.61-.46-.19-1-.38-1.56-.59-4.82-1.85-15-4.8-29.43-7.4-7.21-1.32-15.5-2.63-24.67-4.1-4.58-.76-9.35-1.53-14.34-2.44-1.23-.22-2.49-.46-3.78-.73-3.81-.75-7.69-1.61-11.69-2.63a71.42 71.42 0 01-16-5.92 23.15 23.15 0 01-7.26-5.71 13.42 13.42 0 01-3.06-9.22 21.14 21.14 0 01.91-4.83 14.51 14.51 0 012.74-4.41z"/><path class="cls-3" d="M267.74 475.14c-.78 22.09-1.2 44.1-1.42 65.87a2.75 2.75 0 01-.29-.11c-5.07-1.9-15.5-4.91-30.11-7.4-7.29-1.31-15.63-2.55-24.77-3.94s-19.14-2.89-29.57-5.41a70.61 70.61 0 01-15.41-5.5c-4.88-2.41-9.33-6.68-9-12.22a18.4 18.4 0 01.69-4.11 12.48 12.48 0 012-3.56 23.55 23.55 0 017-5.39 79.77 79.77 0 0117.75-6.49c12.52-3.21 25.79-5.2 39.3-6.94s27.31-3.11 41.17-4.53z"/><path class="cls-7" d="M225.36 584a35.15 35.15 0 013.19 4.11 36.83 36.83 0 014.15 8.28c.24.64.43 1.29.62 1.9l.13.46.22.88c.13.65.29 1.26.43 1.85.45 2.58.86 4.91 1.23 7 1.72-1.71 3.57-3.62 5.31-5.25a28.15 28.15 0 012.2-1.88l1.34-1a34.33 34.33 0 015.63-3.32c5.71-2 3-2.9 5.73 1.85a37.11 37.11 0 012.79 9.7c.08.75.19 1.45.24 2.15 0 .32.08.67.08 1 0 .51 0 1 .06 1.5 0 2.52-.11 4.77-.16 6.68l4.55-2 2.26-.89.45-.16.3-.11.56-.18a35.6 35.6 0 019.22-1.69c1.23-.08 3-.06 3.33 0h.21v1.37c-.05 1.53-.08 3.05-.13 4.58-.27 3-.59 5.93-1 8.77a61.17 61.17 0 01-8.74 23.05 45.17 45.17 0 01-4.23 5.58 61.1 61.1 0 01-22.65 15.28 108.42 108.42 0 01-23.68 6.15 114.59 114.59 0 01-24.39.37 71.59 71.59 0 01-26.43-7.39c-.81-.41-1.59-.84-2.36-1.29a39.77 39.77 0 01-17.56-21.8c-.32-1.36-.65-2.76-1-4.15-.16-.7-.37-1.4-.48-2.12l-.19-2.17c-.13-1.48-.27-3-.4-4.45s.11-3.06.16-4.59v-1.09h.21l.91.14c.75.1 1.53.26 2.28.43s1.5.37 2.25.61l.56.19c.3.08.73.27 1.08.37.72.27 1.47.59 2.25.94 3 1.42 7 3.84 10.32 5.69-.24-.57-.67-1.42-1.13-2.26l-1.28-2.49c-.89-1.71-1.8-3.46-2.74-5.23-.37-.83-.77-1.68-1.15-2.52l-.59-1.28-.29-.65-.14-.37c-.29-1-.67-2-.94-3a37 37 0 01-1.23-6.76 40.08 40.08 0 01-.13-7.21 42 42 0 014.5-16c.29-.53.27-.61.46-.5a43.33 43.33 0 014.5 1.42 41.38 41.38 0 014.58 2.09l.57.29c.43.22.8.46 1.18.7.8.48 1.58.94 2.41 1.5l4.85 3.3c0-2.07-.16-4.26-.13-6.65 0-1.13-.06-2.52 0-3.57.05-.56.08-1.15.13-1.77a40.82 40.82 0 011.64-7.9 41.75 41.75 0 013.78-8.69 42.53 42.53 0 012.94-4.34c.54-.73 1.13-1.42 1.75-2.12l.45-.51.06-.05.16.08c.67.4 1.39.83 2.17 1.28a46.08 46.08 0 015 3.76 40.75 40.75 0 019.06 11.34 40.1 40.1 0 012.55 5.63 195.9 195.9 0 012.81 10.1l4.29-5.25c.73-.83 1.42-1.61 2.07-2.25l.7-.7.53-.51a37.71 37.71 0 014.51-3.54l1.09-.7s.13-.02.16-.02z"/><path class="cls-6" d="M299.59 106.58c12.79.3 25 1.1 36.43-1.55 4-.83 7.83-2.09 11.74-2.92a38.87 38.87 0 0112.15-.65c4.26.33 8.74 1.13 13.56 1.53a88.16 88.16 0 0015-.16c5.15-.45 10.43-1.18 15.9-1.77 2.71-.29 5.49-.59 8.31-.72 1.42-.08 2.84-.16 4.29-.14a24.36 24.36 0 014 .14 4.56 4.56 0 012.63 1.37 41.74 41.74 0 012.76 3.32c1.93 2.52 3.94 5.07 6 7.69q5.5 7 11.52 14.77-4.86 6.89-10.34 14.67c-4.16 5.79-8.1 12.25-13.78 16.08a17 17 0 01-9.63 2.9c-3.67.11-7.72-.59-12.17-1a175.43 175.43 0 00-27 .06c-9.2.64-18.47 1.5-28 2s-19.3.86-29.24 1c-19.92.27-40.46-.51-61.39-2.06-18.72-1.37-37.29-2.82-53.91-3-8.31-.16-16.14.06-23.19.49-3.54.18-6.89.5-10 .8-1.58.13-3.09.35-4.53.54l-.62.08h-.19c-.38-2.09-.75-4.18-1.13-6.22-.53-3.21-1.07-6.35-1.6-9.43-1-6.17-1.72-12.07-2.12-17.51a127.27 127.27 0 01-.38-14.64c.08-2.14.22-4.1.4-5.87.08-.91.19-1.71.33-2.52l.16-1.12v-.27h.92c.61 0 1.23 0 1.82.08 1.23.1 2.44.24 3.64.37 2.44.35 4.88.7 7.27 1a65.78 65.78 0 007.29.64c2.41 0 4.75-.16 7.08-.24 9.33-.35 18.31-.8 26.86-1 17.18-.32 33 .4 47.8 1.15s28.49 1.69 41.36 2.11zm110.85 98.2c6.76-.53 13.78-1.1 21.15-1.69l-.08.24v.38c-.13.78-.26 1.61-.4 2.47-.29 1.77-.59 3.72-.91 5.87-.53 3.67-1.1 7.91-1.63 12.54-.08.78-.16 1.56-.25 2.36-.56 5.58-1.09 11.72-1.44 18.23-.16 3.25-.32 6.57-.41 10-.05 2.31-.1 4.64-.16 7-6.19.37-13.43.83-21.5 1.31-3.16.19-6.43.38-9.78.54-6.49.35-13.35.69-20.51 1-21.71.91-46.11 1.55-71 1.63-8.31 0-16.46.11-24.31-.64s-15.68-2.52-23.78-3.59c-16.25-2.09-31.9-1.07-46.35.05l-10.67.89a49.46 49.46 0 01-9.57.29 17.44 17.44 0 01-7.7-3.08c-2.6-1.66-5.28-3.57-7.8-5.28q-7.71-5.19-14.61-9.92l-6.7-4.53-2.73-1.85-.53-.33c0-.42-.08-.16 1.82-2.38l4.37-4.93q4.38-4.83 8.74-9.33c1.47-1.48 2.89-3 4.34-4.43s2.84-2.92 4.26-4.1a16.45 16.45 0 019.87-3.91c3.62-.19 7.43.24 11.18.35s7.37 0 11 0c7.13-.19 14-.54 20.54-.94 13.16-.78 25.25-1.61 36.56-1.66s21.93.85 32.2.16c8.87-.43 17.91-2.23 27.48-2.63s19.92.75 31.31 1.29 23.67.48 37.08-.14c6.66-.27 13.63-.7 20.92-1.24z"/><path class="cls-3" d="M602.26 464.17a49.27 49.27 0 00-7.41-10.11c.32-.11.62-.24.94-.34a12 12 0 01-2.11-.93c-12-12-29.33-17.15-46.21-20l2.75-12.81-5.82-1.12-2.73 12.65c1.25.28 2.5.62 3.75.94-2.52-.4-5-.77-7.5-1.1a23.15 23.15 0 00-7.21.23 194.35 194.35 0 00-49.07-1 203.89 203.89 0 00-40.18 8.29 167.6 167.6 0 00-21.26 8.09l-.54.25a262.35 262.35 0 0134.77 35.46 301.34 301.34 0 0124.7 35.4l-1.53.27A304.45 304.45 0 00452.77 484a260 260 0 00-60.08-53 243.21 243.21 0 00-29.51-16 261.8 261.8 0 00-25.95-10 248.66 248.66 0 00-33.08-8.15c-.46-.08-.91-.19-1.34-.27-.06 2.63-.08 5.28-.14 7.94 32.41 7.58 71 19.51 76.22 34.23a13.32 13.32 0 01-1.07 12.06c-8.34 13.22-42.25 18.63-78.18 22.41-2.11 32.5-1.82 65.57-1 98.21a43.39 43.39 0 00-5.25 4.07c-1.04-38.9-1.39-78.5 1.96-117.19 1.4-15.85 1.64-32.36 1.88-48.34v-.78c.08-5.2.16-10.37.27-15.49.59-25.44 1-55.92 0-89-.16-5.85-.38-11.05-.56-16s-.38-9.7-.51-14.45c-6 0-12-.16-18-.75-1.72-.16-3.43-.37-5.12-.61.19 8.41.48 16.27.94 23.94.42 7.26 1 14.69 1.6 21.85.94 12.19 2 24.77 2.26 37.23.32 14.8-.33 29.79-1.18 44.48-.24 4.45-.54 8.9-.81 13.29-.24 3.6-.45 7.21-.69 10.83-2.36 39.36-3.41 79.06-3.78 117.91-.25 23.08-.25 45.86-.17 68.06a37.11 37.11 0 014.19-.4 44.1 44.1 0 016.38.21l2.06.24c0 .06 0 .12.05.18v1.94c-.06 1.21-.08 2.41-.14 3.6-.05 1.6-.13 3.21-.18 4.77-.33 3.16-.73 6.24-1.18 9.25a65.34 65.34 0 01-7.8 21.31l16.29-3.17a5.24 5.24 0 004.24-5.25c-.13-5.22-.27-10.49-.42-15.76a60.73 60.73 0 0021.37 14.64c0 .14-.07.28-.09.42a33.18 33.18 0 001.23 15.18 51.5 51.5 0 005.84 13.4 34 34 0 009.41 9.46 45 45 0 005.58 3.25 53.06 53.06 0 005.84 2.38 101.91 101.91 0 0023 4.77c6.81.35 14.05.7 21.74.57a100.66 100.66 0 0011.83-.81 34.2 34.2 0 0011.68-3.51 50.66 50.66 0 005.6-3.55c.94-.7 1.9-1.37 2.87-2.06s1.82-1.32 2.68-2.07a31.49 31.49 0 008.33-11.18 30.44 30.44 0 002.2-7 29.13 29.13 0 00.46-3.78l.05-1.63c0-.14 0-.38-.08-.41l-.72-.26c-.62-.22-1.26-.43-1.88-.59a32.37 32.37 0 00-3.94-.81 29.13 29.13 0 00-4.08-.27h-1.5l-2.14.16-4.4.48c.7-2.17 1.42-4.5 2.12-6.94a29.71 29.71 0 00.64-3.89 31 31 0 00-.29-8.68 25.84 25.84 0 00-1.26-4.8c-.3-.8-.62-1.66-1-2.47l-.27-.59h-.11c-.51.08-1 .13-1.55.21a23.68 23.68 0 00-3 .62c-.51.13-1 .29-1.52.45l-.78.27-1.42.54c-2.12.88-4.59 2.17-6.87 3.27.22-2.63.54-5.71.57-8.8a30.49 30.49 0 00-.43-4.55 32.3 32.3 0 00-3.43-10 30.14 30.14 0 00-3.25-4.87 29.48 29.48 0 00-2-2.28l-1.12-1.1-.67-.59-.43.19a30.69 30.69 0 00-2.79 1.55 32.83 32.83 0 00-5.15 3.89 31.73 31.73 0 00-6.86 9.22c-.43.8-.7 1.53-1.07 2.39-.54 1.79-1.1 3.29-1.53 5.12l-2 9.27-2-4.58c-.72-1.64-1.42-3.19-2.11-4.69l-.51-1.13-.57-1-1.12-1.91-.05-.06a40.32 40.32 0 00.54-8.29 40.1 40.1 0 012.81 3.26c.48.62.88 1.26 1.31 1.88v-.1c.38-.78.75-1.8 1.24-2.71a36.92 36.92 0 018.07-10.88 39.34 39.34 0 016.05-4.59c1.08-.67 2.2-1.23 3.3-1.79l2.82-1.21.72-.32c.13 0 .27-.19.38-.08l.32.27 1.31 1.07 1.21 1 .67.61c.45.43.88.86 1.31 1.29.86.86 1.64 1.77 2.39 2.68a39.22 39.22 0 013.8 5.76 37.87 37.87 0 013.35 8.74c.25 1 .43 2 .59 3a30.73 30.73 0 01.46 5.3.36.36 0 010 .14l.16-.06 1.18-.4c.62-.19 1.21-.35 1.8-.51a29.62 29.62 0 013.59-.72c.59-.08 1.15-.16 1.74-.22 1-.08 2-.13 3-.16h.75l.35.67.7 1.31.67 1.29.38.78c.45 1 .8 2 1.15 3a35.74 35.74 0 011.42 5.68 35.09 35.09 0 01.19 10.13 38 38 0 01-.75 4.21c-.06.14-.14.3-.19.43h1.18a39.17 39.17 0 014.72.38c1.18.19 2.36.43 3.48.72.35.08.7.16 1 .27.75.21 1.47.45 2.2.72l.53.19.89.38 1.62.68c.27.32.52.67.8 1v2.38a10.52 10.52 0 010 1.4l-.05 1.1a37.79 37.79 0 01-.59 4.34 36.56 36.56 0 01-2.66 8.07 35 35 0 01-6.24 9.19l1.15-1c4.32 4.47 10.46 7.77 17.61 9.59a68.38 68.38 0 0011.32 1.93 59.63 59.63 0 0012.17 0 40.78 40.78 0 0012.25-3 24.46 24.46 0 0010.13-7.5 22 22 0 004.32-12.23 12.71 12.71 0 00.11-1.74l-.06-.88v-.14h-.05a.18.18 0 00-.08 0 17.71 17.71 0 00-3.81 1.32c-2.76 1.44-6.65 3.72-9.76 5.46 1.34-2.57 3.25-6.19 5.42-10.34.48-1.08.88-2.1 1.34-3.19l.05-.19.08-.22.06-.18.08-.38.21-.72a29 29 0 00.51-3.14c.06-.68 0-1.36 0-2 11.8-11.44 17.26-28.46 19-44.81a65.48 65.48 0 00-3.1-27.36c29.73-8.79 57-24.36 78.27-48.11 16.8-18.84 28.73-42.09 15.35-66.52zM420.82 564.76a87.05 87.05 0 01-13.7 0 126.48 126.48 0 015.73 30 88 88 0 01-.48 19c-.05.46-.16.81-.24.81l-1.74-.3-1.77-.29c-.06 0-.06-.38 0-.81a104.53 104.53 0 001.1-18.25 164.29 164.29 0 00-3.43-30.19c-2.74-.24-5.5-.54-8.23-.86-7.54-.91-15.07-2.22-22.6-3.48s-15.1-2.5-22.52-4.08c-2.74-.59-5.44-1.2-8.13-1.93a153.44 153.44 0 00-9.68 18.4c-.55-.39-1.1-.79-1.67-1.15a134.51 134.51 0 0110.71-17.44 85.82 85.82 0 01-13-4.5 39.15 39.15 0 01-10-6.27 20.61 20.61 0 01-6.41-10.67 20.85 20.85 0 01-.37-6.17 30.84 30.84 0 011.23-5.71 13.18 13.18 0 011.05-2.65l1.18-2.55c1-1.58 2-3.14 3.08-4.56a50.71 50.71 0 0115.9-12.68 74.62 74.62 0 0117.53-6.4 85.79 85.79 0 0163.32 10.61 75.18 75.18 0 0114.48 11.8 50.49 50.49 0 0110.91 17.16c.56 1.71 1 3.51 1.42 5.3l.29 2.82a1.94 1.94 0 010 .24 29.79 29.79 0 00-1.38 4.41 35.57 35.57 0 00-9.54 16.87c-.53.28-1.05.58-1.59.81a38.68 38.68 0 01-11.45 2.71zm14.28 82.94l-1.34-.32-1-.24a22.64 22.64 0 01.79-2.91 29.57 29.57 0 001.51 3c0 .08.1.15.15.23zm-2-40a51.18 51.18 0 00-5.44 8.74 23.23 23.23 0 00-2.2 7.86l-1.61.08a18.3 18.3 0 01.81-9.09 35.75 35.75 0 015.38-9.84 52 52 0 0111.72-11.55 50 50 0 01-4.77-3.52 20.16 20.16 0 01-4.18-4.77 11.61 11.61 0 01-1.75-6.73 13.67 13.67 0 012-5.66 29 29 0 004.38 12.26c2.11 3.27 4.23 6.58 6.06 10a126.52 126.52 0 00-10.38 12.25z"/><path d="M602.26 464.17a49.27 49.27 0 00-7.41-10.11c.32-.11.62-.24.94-.34a12 12 0 01-2.11-.93c-12-12-29.33-17.15-46.21-20l2.75-12.81-5.82-1.12-2.73 12.65c1.25.28 2.5.62 3.75.94-2.52-.4-5-.77-7.5-1.1a23.15 23.15 0 00-7.21.23 194.35 194.35 0 00-49.07-1 203.89 203.89 0 00-40.18 8.29 167.6 167.6 0 00-21.26 8.09l-.54.25a262.35 262.35 0 0134.77 35.46 301.34 301.34 0 0124.7 35.4H479a10.49 10.49 0 011.16 3.42 10.41 10.41 0 011.63 2.37c6.12 12.58 12.93 24.62 18.61 37.44a10.56 10.56 0 01.92 4.95 10.59 10.59 0 01.87 1.91c0 .11 0 .14.07.22l.19.28c.29.45.55.92.84 1.38.67 1 1.41 2 2.13 3a35 35 0 013.29 5.63c29.71-8.8 56.92-24.36 78.21-48.09 16.79-18.73 28.72-41.98 15.34-66.41z" fill="#329655"/><path class="cls-7" d="M428.78 652.28a61.3 61.3 0 01-9.38-1.13 42.31 42.31 0 001-4.34c.85-4.59 1.67-10.92-.27-15.34-3.37-7.7-10.05-6.65-16.75-5A30.59 30.59 0 00403 618c-.93-5.66-3.82-13-7.92-17.13a7.94 7.94 0 00-7.82-2.07c-10.14 3.5-14.89 12-18 21.19a58.83 58.83 0 00-6.72-7 7 7 0 00-1.84-.92c-2.22-4.77-10.48-7.13-14.89-1.4-3.55 4.62-9.2 14.1-8.2 20.92a54 54 0 00-10.56-5.49c-4.11-1.73-8.73 1.9-9.89 5.62-8 25.58 1.22 49.21 28.27 55.94a158.22 158.22 0 0047.77 4.57c7.68-.51 14.19-1.52 20.15-4.72 1.56.21 3.16-1.24 4.89-2.55.56-.42 1.09-.84 1.62-1.26a44.53 44.53 0 007.36-7.12c1-1.29 2.47-2.41 2.73-3.73 1.78-2.18 2.71-4.58 4.45-6.78 4.49-5.64 1.68-13.17-5.62-13.79z"/><path class="cls-9" d="M492.8 593.53a59.61 59.61 0 00-3.27-8.2A26.22 26.22 0 00484 577c-4.36-4.19-10.59-7-16.25-8.92-7.2-2.43-14.56-1.42-21.71.64-3.69 1.06-7.44 2.2-9.47 5.76-2.3 4-1.33 8.72 1.62 12.07a5.67 5.67 0 002.22 1.51c1.28 2.32 3.76 4 6.08 5.28s5.7 2.26 7.73 3.13c1.12.47 2.11 1.21 3.19 1.77a51.36 51.36 0 004.81 2.09 121.35 121.35 0 0016.78 5.72c4 1 8.05 1.5 11.33-1.6 2.98-2.81 3.55-7.12 2.47-10.92z"/><path class="cls-8" d="M467.71 605.33c-2.06-.83-4.11-1.66-6.16-2.51l-.93-.39-.84-.36c-1-.44-2-.88-3-1.34-1.84-.83-3.63-1.76-5.48-2.57a26.72 26.72 0 00-3.85-1.46c-.25-.07-.51-.13-.76-.18a6.77 6.77 0 00-8.86.52 6.92 6.92 0 00-1.86 5.29c-3.92 2.56-6.61 7.55-8.31 11.52-2.37 5.5-5 12.61-2.85 18.58.91 2.51 2.33 4.86 4.89 5.94a12 12 0 003.39.81c.48.09 1 .17 1.45.28.69.15 1.37.34 2.05.56.25.08 1.14.43 1.28.46a27.36 27.36 0 013.88 2.25c4.43 3.09 9.84-1.12 10.08-5.79 0-.33.36-2.72 0-1.13 0-.17.07-.38.1-.58l.23-.05c.62-.15 1.25-.26 1.88-.4h.67c.18 0 .71 0 1 .06a3.62 3.62 0 01.33.2c2.22 1.47 6.38 1.16 8.12-1.05a9 9 0 002.35-5.45 8.63 8.63 0 000-.88 2.5 2.5 0 010-.25c.36-.43.73-.84 1.07-1.27 2.94-3.74 3.73-8 4.75-12.51.93-3.9-1.12-6.89-4.62-8.3z"/><path class="cls-7" d="M492.78 659.47a30.78 30.78 0 001.36-13.25c-.43-4.39-3.34-8.11-8-8.13a14 14 0 00-3.5.41 8.58 8.58 0 00-1.25-3.52c.22-.5.38-.86.43-1 3.69-9.78-11.85-14-15.51-4.32a63.25 63.25 0 00-3.07 10.48c-2.91-7.74-15.59-7.21-15.5 2.47a3.41 3.41 0 01-.78 2 7.92 7.92 0 00-1.45.29 18.17 18.17 0 00-3.05-2.34 17.39 17.39 0 00-1.77-.91 6.49 6.49 0 00-2.2-.73c-1 0-1.59.78-2.09 1.52a11.11 11.11 0 00-1 2 3.59 3.59 0 00-.36 2 1.16 1.16 0 00-.19.66 18 18 0 01-.15 2.94 2.51 2.51 0 010-.27 1.23 1.23 0 000 .71 1.38 1.38 0 00.34.6 1.34 1.34 0 00.89.35.88.88 0 00.12.21 1.64 1.64 0 00.82.46 2 2 0 00.69 0 1.43 1.43 0 00.41.09l.45.17a7.9 7.9 0 00-1.94 2.89c-.75 2.36-.59 4.67-1.08 7.08-.42 1.57-.85 3.13-1.3 4.69a7.7 7.7 0 00-.41 1.56c-6.62 2.74-4.37 12.71 1.69 15.16 15 6.05 33.21 10.16 49.15 5.76a7.47 7.47 0 004.56-3.45A14.61 14.61 0 00491 685c4.35-3.08 4.34-8.08 7.77-11.54 4.91-4.97.75-14.68-5.99-13.99z"/><path class="cls-8" d="M160.46 669.42c-7.07-5.67-11.08-13.47-13.41-22.11q-.87-3.22-1.47-6.53c-.36-1.95-1.11-4.57-.82-6.6.17-1.2-.8-3.16.43-3.72 1.59-.73 1.9-1.47 3.56-1.12 9.07 1.94 10.18-4.6 8-8.43a6.35 6.35 0 00-.15-2.27c-1.06-3.85-4.65-5.2-8.25-4.68l-65.93 9.47L51.21 629c-9.54 1.37-22.7-.15-28.46 9.07-5.5 8.81-2.3 19.61 1.5 28.4a53.94 53.94 0 0014.46 20c7.74 6.47 16.77 9.62 26.67 11A181.31 181.31 0 0097 699.33c12.18-.49 24-3.47 35.6-7 9.85-3 20.59-5.69 27.91-13.43 2.23-2.42 2.85-7.16-.05-9.48zm249.86-83.86c-1-12.06-1.18-26.59-16.08-29-6-1-12.07-1-18.15-1.93a28.39 28.39 0 00-11.34.26c-7-4.68-17.56-4.89-23.67 4a106.12 106.12 0 00-15.7 34.59c-2.42 10-5.5 24.9 1.75 33.56a3.82 3.82 0 011-.17 4.64 4.64 0 012.29.75 8.19 8.19 0 001 .59c.78.31 1.57.57 2.36.83l1.29.45c.54.19 1.11.28 1.64.49a4.6 4.6 0 01.82.35 15 15 0 011.51-6 31.2 31.2 0 012.06-7.49c2.15-4.76 6.2-7.58 10.21-10.64a3.75 3.75 0 013.94 0 47.76 47.76 0 0110.44 10.37 24.92 24.92 0 013.16 5.91 26 26 0 012.52-5.64c3.47-5.74 8-11.65 13.8-15.23 2.45-1.52 5.56-2.87 8.3-1.25 2.51 1.48 4.8 4.68 6.06 7.23 2.18 4.42 3 9.75 3.11 14.94a17.25 17.25 0 002.86-2.28c8.3-8.13 5.7-24.25 4.82-34.69z"/><path class="cls-6" d="M550.67 420.68a3 3 0 00-.47-1.5 4.14 4.14 0 00-2.41-1.85 4.09 4.09 0 00-3.1.41 3.89 3.89 0 00-1.84 2.4q-.65 4.23-1.69 8.38a4.21 4.21 0 00.4 3.09 4.1 4.1 0 002.41 1.85 4 4 0 003.09-.4 4.13 4.13 0 001.85-2.41 82.13 82.13 0 001.69-8.37 3 3 0 00.07-1.6zm-251.41-34.89a11.37 11.37 0 00.86-6.17c-2.08-15.47.74-32.94.44-48.67l-1-50.41c-.16-8.45-8.26-11.71-14.46-9.81-6.65-3.56-17.95 2.21-16.25 12.39 5.56 33.43 4.71 68.25 6 102.05a10.63 10.63 0 001.75 5.53 212.15 212.15 0 00-2.11 31.63c-1.41 12.9-3.09 25.78-3.84 38.76-.71 12.09 1.43 24 .9 36.09-.28 6.25-1.21 12.33-.94 18.61.26 5.81.94 11.6.93 17.42a55.44 55.44 0 01-.88 9.36 12 12 0 00.46 7.14c-3.35 2.93-3.32 7.56-3.08 11.76.27 4.51 1.78 8.78 2.23 13.24 1.06 10.49-.64 21.25-1.6 31.69-.32 3.54 3.68 6 6.79 5.17 1.07-.29 3.52-1.35 4.53-.38a5.2 5.2 0 003.1 1.49c-.12 4 .33 7.92-.08 11.9a52.18 52.18 0 01-4.09 14.5 4 4 0 00-.12 2.48 28.76 28.76 0 01-3.31 2.36 5.48 5.48 0 00-1.92 7.34 5.42 5.42 0 007.33 1.92c1.33-.83 2.6-1.71 3.84-2.66a5.85 5.85 0 003.12.14c2.95-.63 5.85-1 7.44-4a10 10 0 00.78-5.78 4.88 4.88 0 001.07-3.16 188.89 188.89 0 00-2.76-26.72 5.23 5.23 0 001-3c.17-9.15 1-18.57 0-27.68-.46-4.41-1.57-9-.85-13.45.76-4.76 1.86-8.85-1-13.23-.14-.21-.3-.42-.46-.63a5.27 5.27 0 001.19-3.25c-.08-5.71 0-11.42.32-17.12 1.28-8.18 1.37-16.94 1.66-24.79.47-12.68.14-25.43.17-38.12 0-7.36-.22-14.93-.46-22.57a10.24 10.24 0 002.44-6.66q0-7.35-.05-14.71a9.56 9.56 0 00-.34-2.43 112.94 112.94 0 001.82-17.27c0-5.9-2.46-12.92-.88-18.63a12.8 12.8 0 00.31-1.67zm.49-186.65a9.06 9.06 0 000-5.82c-.92-2.59-.72-3.6-.47-6.81a73.81 73.81 0 00.13-8.8c.3-4-1.31-8-5.11-10l-.11-.06a11.11 11.11 0 00-7.75-1.06 10.26 10.26 0 00-4.19-.87c-5.5 0-11.13 4.91-10.73 10.72.21 3 .42 6.07.45 9.11 0 1.39 0 2.78-.1 4.17a10.67 10.67 0 005.71 16.59 11.84 11.84 0 004.88.47c.64 0 1.29-.08 2-.15s1.14-.14 1.72-.19c1.35-.08 1.49 0 .41.1a9.65 9.65 0 008.22-1.11 3.85 3.85 0 002.21.65c3.9-.03 4.82-4.72 2.73-6.94zm.9-166.92a8.19 8.19 0 00-6.59-1.11 3.24 3.24 0 00-4.08 0C280.46 38 278.09 49.05 276.58 60A272.9 272.9 0 00274 99.09c0 2.36 1.84 3.76 4 4a117.15 117.15 0 0020.68.62 4.14 4.14 0 004-4q2.1-24.24 3.17-48.56c.36-6.45 1.15-14.95-5.2-18.93z"/><path class="cls-11" d="M502.28 565a74.86 74.86 0 00-1.37-4 294.82 294.82 0 00-46-78.85 260.22 260.22 0 00-60.18-54.36 244.4 244.4 0 00-29.88-16.54 255.65 255.65 0 00-26.3-10.25 232.61 232.61 0 00-31.74-8.08L302 392c-1.31-.2-1.48-.21-1.75 0l-.22.17-.62 3.79c-.11.67.39.78 1.73 1.08l4.89 1a233.53 233.53 0 0131 7.75 257.32 257.32 0 0125.87 9.92 246.66 246.66 0 0129.45 16 260.43 260.43 0 0159.92 52.81 299 299 0 0147 77.29l1.53 3.83c.48 1.18.68 1.69 1.15 1.69a1 1 0 00.27-.05c.65-.36.47-.97.06-2.28zM114.8 431.32l-2.8-4.57c44.39-27.28 95.44-40.29 151.8-38.63 3.72.11 7.47.29 11.14.54l-.36 5.35c-3.6-.25-7.28-.42-10.94-.53-55.29-1.6-105.35 11.11-148.84 37.84zM59.43 476l-3-2.8h-.28c-.19 0-.43 0-1.33 1l-.73.83c-2.67 3-8.92 10-16.09 19.8a222.58 222.58 0 00-24 41c-.45 1.06-.83 2-.09 2.33a.75.75 0 00.31.08c.57 0 1-.77 1.41-1.64C26 517.21 40.79 496.94 58.34 478l.25-.27c.88-1 .87-1.22.86-1.4zM28 631.43l63-10c21-3.43 41.87-7.07 62.54-11.62l1.07 5.25c-42 7.71-84.27 12-126.4 17.48zm242.59-161.05c-.07-.8-.07-.83-7.11-.29q-7.58.59-15.13 1.13c-12.7.94-25.84 1.9-38.57 3-16 1.48-34.45 3.37-51.76 7-8 1.77-16.52 3.94-24.16 7.79-3.5 1.83-7.44 4.22-10.18 8A17.76 17.76 0 00120.9 510a17.1 17.1 0 007.26 10.63 44.88 44.88 0 0010.61 5.37 147.8 147.8 0 0021.38 5.62c5.59 1.1 11 2.06 16.31 3 7.85 1.4 15.27 2.72 22.22 4.3 9.4 2.13 21.23 5.29 29.49 10.91a23.07 23.07 0 018 8.78 18.85 18.85 0 011.71 9.56c-.59 6.09-4.1 9.9-6 11.95-.78.83-1.55 1.55-2.15 2.11l-.15.14c-1.22 1.09-1.47 1.32-1.07 1.88l2.44 3h.39c.22 0 .44-.14 1.59-1.08a30.13 30.13 0 002.68-2.53 30.65 30.65 0 004.25-5.57 22.39 22.39 0 003.08-9.47 23.53 23.53 0 00-2.25-12.2 27.7 27.7 0 00-9.77-10.7c-8.91-6-20.28-9-31.25-11.47-7.2-1.58-14.78-2.87-22.81-4.23-5.15-.88-10.48-1.78-15.9-2.8a143 143 0 01-20.72-5.2 39 39 0 01-9.63-4.77 13.06 13.06 0 01-5.72-8 13.66 13.66 0 012-9.87c2.23-3.23 6-5.49 8.69-6.91 7.19-3.74 15.39-5.94 23.17-7.76 16.9-3.8 34.6-5.89 51.27-7.7 11.68-1.24 23.75-2.34 35.42-3.42q9.06-.82 18.17-1.69c7.05-.67 7.05-.7 6.98-1.5z"/><path class="cls-11" d="M297.45 469l-.31-2.67c23.69-2.74 56-7.67 63.54-18.69a9.19 9.19 0 001.27-7.94c-1.8-6.74-14.09-17.52-62.37-30.52l.7-2.58c39.75 10.7 61.37 21.6 64.26 32.41a11.84 11.84 0 01-1.65 10.13c-6.26 9.24-26.44 15.37-65.44 19.86zm-23.56-66.09c-21.78-4.91-40.8-8.19-48-9.37l-.32-.06h-.12a1.3 1.3 0 01-1.17-1.51l1.5-1.13c15.08 1.9 32.38 4.66 48.71 7.78l-.31 1.64.25.06z"/><path class="cls-11" d="M297.12 473.52l-.27-2.67c34.45-3.54 70.75-8.86 78.69-21.43a10.57 10.57 0 00.81-9.74c-3.85-10.85-31.08-22.6-76.68-33.08l.6-2.62c32.91 7.57 73.27 19.75 78.61 34.81a13.29 13.29 0 01-1.07 12.06c-8.54 13.5-43.81 18.88-80.69 22.67zm-138.61 29.05a11.21 11.21 0 011.93-3.38 22.6 22.6 0 016.77-5.23c5.67-3.07 12.07-5 17.57-6.43 12.87-3.29 26.46-5.27 39.24-6.91s26.11-3 39-4.31l2.17-.23c5.55-.57 5.55-.64 5.48-1.4s-.07-.83-5.64-.4c-15.4 1.19-28.22 2.22-41.31 3.61-12.81 1.38-26.49 3.1-39.77 6.25-5.74 1.43-12.44 3.31-18.52 6.48a26.11 26.11 0 00-8 6 14.74 14.74 0 00-2.71 4.65l-.19.73a16 16 0 00-.74 4.23A14.05 14.05 0 00157 516a23.94 23.94 0 007.46 5.89 72.41 72.41 0 0016.18 6c10 2.56 19.72 4.15 28.28 5.55l5.81.94c7.38 1.18 14.35 2.29 20.44 3.41 13.9 2.48 24.25 5.43 29.3 7.36l2.44.92a4.77 4.77 0 001.33.37.54.54 0 00.55-.42l1.39-3.29c.27-.65-.25-.88-1.39-1.37l-2.53-1c-5.28-2-16-5-30.21-7.44-6.49-1.15-13.91-2.27-21.77-3.46l-4.62-.7c-8.5-1.31-18.13-2.8-27.91-5.18a69.74 69.74 0 01-15.27-5.43c-5.67-2.8-8.9-7.13-8.63-11.65a12.06 12.06 0 01.5-3.1zm-53.92 193.04c5.23-.86 10.49-2.86 15.64-4.64s10.27-3.86 15.35-5.93c10.16-4.15 20.17-8.64 30-13.38l2.16 4.91c-10.26 4.11-20.62 8-31.1 11.47-5.24 1.75-10.5 3.42-15.81 5s-10.57 3.11-16.26 3.66zm197.58-490.19l-5.36-.07.13-9.2q.21-14.75.47-29.51l5.36.11c-.19 9.82-.33 19.65-.47 29.47z"/><path class="cls-12" d="M275.49 103.61c.81-10.35 1.58-22.89 2.28-36.94.45-7 .26-14.52 2.2-21.33a19.59 19.59 0 015-8.86 14.38 14.38 0 018.93-4.16 8.73 8.73 0 017.83 4c1.77 2.61 2.5 6.18 2.67 9.75a66.14 66.14 0 01-.5 10.86c-.39 3.68-.72 7.29-1 10.81-1.16 14.06-1.65 26.65-1.77 37.05l2.42.14c1.13-10.31 2.43-22.78 4.15-36.7q.66-5.2 1.37-10.69a65.88 65.88 0 00.81-11.71c-.15-4.07-.79-8.56-3.44-12.65a14.94 14.94 0 00-5.42-5 14.33 14.33 0 00-7.36-1.6A19.77 19.77 0 00281 32.44a21.35 21.35 0 00-4 5.45 29.5 29.5 0 00-2.3 6 53.29 53.29 0 00-1.58 11.78C273 59.43 273 63 273 66.53c-.12 14.06-.08 26.63.11 37z"/><path class="cls-11" transform="rotate(-88.38 271.854 186.023)" d="M252.05 183.34h39.62v5.36h-39.62z"/><path class="cls-11" d="M270.69 657.9l-1-5.26 21.47-4.19a5.21 5.21 0 004.23-5.24c-.29-13.33-.72-27-1.14-40.15-1.51-47.63-3.06-96.89 1.14-144.74 1.39-15.85 1.63-32.38 1.86-48.36.08-5.44.16-10.87.28-16.25.58-25.46 1-55.94 0-89-.18-5.85-.38-11.06-.57-16-.24-6.32-.46-12.14-.61-18.2l5.36-.12c.14 6 .37 11.82.61 18.12.19 4.91.39 10.13.57 16 1 33.19.59 63.76 0 89.29-.12 5.37-.2 10.78-.28 16.21-.23 16.08-.48 32.7-1.88 48.75-4.17 47.53-2.62 96.62-1.12 144.1.41 13.2.84 26.84 1.15 40.2a10.56 10.56 0 01-8.57 10.62zm-4.57-44.43c-.21-60.52.13-125.34 4-189.24.22-3.62.44-7.23.67-10.85 1.19-18.79 2.42-38.22 2-57.29-.29-12.31-1.28-24.84-2.24-36.95-.57-7.19-1.16-14.63-1.59-22-.54-9-.89-18.32-1.05-28.45l5.36-.08c.17 10.05.51 19.27 1 28.21.43 7.28 1 14.69 1.59 21.86 1 12.18 2 24.78 2.25 37.24.45 19.31-.79 38.86-2 57.76-.22 3.61-.45 7.22-.67 10.83-3.83 63.75-4.17 128.47-4 188.91zM593 451.17a187.11 187.11 0 00-57.31-21.7 190.07 190.07 0 00-54.45-2.78 204.43 204.43 0 00-41.1 8 170.57 170.57 0 00-21.87 8.18c-3.1 1.43-3.05 1.66-2.87 2.3l1.59 3 .08.32.28.13c.36.18.36.19 3.1-1.09a169.83 169.83 0 0121.16-8.08 204.92 204.92 0 0140.06-8.26 189.1 189.1 0 01110.45 21.59c2.32 1.23 3.26 1.68 3.74 1.68.27 0 .38-.14.51-.38.38-.68.22-.88-3.37-2.91z"/><path class="cls-12" d="M386.51 494.42a78.28 78.28 0 0128.37 12.46 72.75 72.75 0 0113 11.47 45.74 45.74 0 019.12 15.32c.41 1.43.71 2.88 1 4.33l.16 2.19a8.38 8.38 0 010 2.18 22.73 22.73 0 01-.6 4.3 14 14 0 01-1.65 3.76c-2.8 4.6-9.1 6.57-15.77 7.08a107.06 107.06 0 01-21.14-1.06c-7.29-1-14.71-2.25-22.29-3.53s-15-2.46-22.23-3.94a107 107 0 01-20.36-5.91c-6.13-2.65-11.45-6.58-12.59-11.83a14.26 14.26 0 01-.34-4.1 23.33 23.33 0 01.84-4.25 8.17 8.17 0 01.73-2.06l.87-2c.77-1.26 1.53-2.54 2.39-3.75a45.52 45.52 0 0113.61-11.51 72.83 72.83 0 0116-6.61 78.35 78.35 0 0130.89-2.52l.54-3.19a78 78 0 00-32.69.83 74.83 74.83 0 00-17.53 6.41 50.45 50.45 0 00-15.91 12.67c-1.09 1.43-2.09 3-3.07 4.55l-1.2 2.56a12.54 12.54 0 00-1 2.66 29.72 29.72 0 00-1.23 5.71 20.71 20.71 0 00.38 6.15 20.19 20.19 0 006.4 10.67 38.25 38.25 0 0010 6.29 110.07 110.07 0 0021.79 6.61c7.42 1.58 14.95 2.81 22.51 4.08s15.07 2.56 22.6 3.49a110.14 110.14 0 0022.76.86 38.42 38.42 0 0011.47-2.69 20.25 20.25 0 009.54-8 20.49 20.49 0 002.36-5.7 29.64 29.64 0 00.7-5.8 12.31 12.31 0 00-.1-2.85l-.3-2.81c-.42-1.79-.85-3.59-1.41-5.3a50.73 50.73 0 00-10.91-17.17 75.05 75.05 0 00-14.48-11.78 78.17 78.17 0 00-30.62-11.45z"/><path class="cls-11" d="M346.56 552.89c.64-1 1.19-1.86.52-2.33s-1.28.34-2 1.29c-10.19 13.49-18.11 29.55-21.72 44.07a52.89 52.89 0 00-1.49 18.2 35.64 35.64 0 002.56 10.12c.58 1.31.8 1.39 1 1.46l.28.1 3.5-1.66c.67-.35.28-1.2-.05-1.94a32.43 32.43 0 01-2.34-8.67 50.77 50.77 0 01.92-16.62c2.94-13.91 9.8-29.91 18.82-44.02zm66.96 41.87a127.7 127.7 0 00-6.73-33c-.23-.63-.56-1.62-1.34-1.38s-.55 1.22-.4 1.89A162.52 162.52 0 01409 595a101.07 101.07 0 01-1 18.1c-.07.43-.23 1.44.55 1.57l3.82.63.23-.17c.12-.09.34-.26.48-1.24a90.24 90.24 0 00.44-19.13z"/><path class="cls-12" d="M473 570.71a40.84 40.84 0 0112 10.38c3.49 4.46 6.59 10.21 6.77 16.2a10 10 0 01-2.76 7.55 6.51 6.51 0 01-3.5 1.37 15.69 15.69 0 01-4.67-.4c-6.67-1.49-13.58-5.14-20.72-8.57s-14.26-6.66-19.56-11a15.91 15.91 0 01-3.2-3.42 6.63 6.63 0 01-1.09-3.6 10 10 0 014.23-6.84c4.82-3.56 11.25-4.68 16.91-4.7a40.82 40.82 0 0115.59 3l1.06-2.18a40.52 40.52 0 00-16.52-4.61c-6.22-.34-13.36.27-19.88 4.58a14.75 14.75 0 00-6.57 10.42 11.68 11.68 0 001.72 6.72 20.72 20.72 0 004.2 4.78c6.26 5.26 13.5 8.42 20.62 12s14.14 7.14 22.15 8.81a20.82 20.82 0 006.35.34 11.72 11.72 0 006.34-2.81 14.75 14.75 0 004.12-11.61c-.65-7.78-4.59-13.77-8.69-18.45a40.74 40.74 0 00-13.84-10.12z"/><path class="cls-12" d="M425.48 624.32a23 23 0 012.19-7.83 52.94 52.94 0 015.43-8.75 144 144 0 0112.5-14.37l-1-1.27a50.82 50.82 0 00-14.56 13.38 36.09 36.09 0 00-5.37 9.83 18.35 18.35 0 00-.82 9.1zm46.66-18.06a63.54 63.54 0 00-1.64 9 60.92 60.92 0 00-.62 9.09l1.57.41a24.65 24.65 0 002.82-9 24.19 24.19 0 00-.51-9.45zM219 679.67a115.52 115.52 0 01-24.42.37 71.91 71.91 0 01-26.43-7.4 39.77 39.77 0 01-19.9-23.09c-.32-1.37-.65-2.75-1-4.15-.16-.7-.36-1.39-.48-2.11l-.19-2.19c-.14-1.47-.27-3-.41-4.45 0-1.51.12-3 .17-4.58v-1.09h.22l.9.14c.76.11 1.51.27 2.27.44s1.51.38 2.26.61l.56.18c.29.09.72.26 1.07.38.73.26 1.49.58 2.25.94 3 1.43 7 3.84 10.32 5.67-.24-.57-.68-1.4-1.11-2.24l-1.31-2.5-2.72-5.23-1.05-2.5-.59-1.28-.29-.65-.12-.36c-.31-1-.7-2-.94-3a41.27 41.27 0 01-1.38-14 42.45 42.45 0 014.49-16c.3-.54.27-.62.47-.51a40.66 40.66 0 014.51 1.43 42.08 42.08 0 014.57 2.07l.57.31c.42.22.79.45 1.19.69.79.47 1.58.95 2.39 1.51l4.87 3.28c0-2-.16-4.26-.15-6.63v-3.57c0-.57.09-1.17.14-1.77a41.84 41.84 0 015.42-16.6 44.23 44.23 0 012.94-4.34c.54-.72 1.13-1.42 1.74-2.11l.45-.53.05-.05.18.1 2.16 1.28a43.7 43.7 0 015 3.76 41.26 41.26 0 019.06 11.32 41.81 41.81 0 012.54 5.64c1.11 3.57 2.09 7.21 2.83 10.1l4.27-5.24c.73-.84 1.43-1.63 2.07-2.26l.7-.7.53-.5a35.87 35.87 0 014.51-3.55l1.11-.71h.05a38.49 38.49 0 013.2 4.08 37.78 37.78 0 014.13 8.28c.24.66.45 1.3.62 1.92l.14.46.21.88c.15.63.29 1.25.43 1.85l1.23 7c1.73-1.71 3.56-3.61 5.33-5.25.86-.85 1.94-1.68 2.18-1.88l1.34-1a36.4 36.4 0 015.65-3.34c5.7-2 3-2.89 5.75 1.86a37.86 37.86 0 012.78 9.72c.09.73.19 1.44.24 2.12 0 .34.07.67.07 1l.06 1.5c0 2.53-.11 4.79-.17 6.68l4.57-2 2.25-.88.45-.17.29-.1.57-.18a36.76 36.76 0 019.23-1.71c1.43-.09 3.56 0 3.32 0h.23v1.31c0 1.54-.08 3.06-.11 4.57-.28 3-.61 5.93-1 8.79-2 11.36-6.47 21.26-13 28.61a60.91 60.91 0 01-22.66 15.3 109.85 109.85 0 01-23.67 6.25l.34 2.4a109.31 109.31 0 0024.46-5.66 63.73 63.73 0 0024.37-15.68c7.17-7.78 12.23-18.44 14.46-30.43.46-3 .85-6.09 1.18-9.23.06-1.57.13-3.17.19-4.77 0-1.19.08-2.39.13-3.6v-2.13l-2.13-.22a40.5 40.5 0 00-6.37-.23 42.2 42.2 0 00-5.23.56 43.92 43.92 0 00-5.22 1.24l-1.3.42-.34.13c0-.15 0-.32.05-.51v-.53c0-.36-.05-.74-.07-1.12 0-.77-.14-1.58-.24-2.41a41.83 41.83 0 00-3-11.1c-.43-1-.9-2-1.42-3l-.4-.74c-.16-.27-.46-.84-.71-1.23l-1.62-2.62-2.94.84-1.37.42-.92.33c-1.13.4-2.25.87-3.37 1.38a42.52 42.52 0 00-6.48 3.78c-.52.36-1 .75-1.54 1.14l-.6.48-.15.12v-.29l-.18-.63c-.2-.71-.43-1.45-.69-2.2a42.85 42.85 0 00-4.69-9.55 42 42 0 00-3.74-4.81c-.62-.73-1.32-1.38-2-2.08l-1-1c-.38 0-.84.39-1.26.56l-2.58 1.43-1.48.93a42.09 42.09 0 00-5.23 4.08l-1.16 1.1s0 .06-.09-.28a48.55 48.55 0 00-2.88-6.42 46.84 46.84 0 00-10.31-12.91 49.58 49.58 0 00-5.72-4.27c-1-.6-1.69-1-2.74-1.6l-3.82-2-2 2.14-1 1.06-.54.62c-.7.79-1.36 1.59-2 2.41a46.63 46.63 0 00-3.33 5 47 47 0 00-6.1 18.89c0 .69-.1 1.36-.15 2v.23l-.75-.39a46.56 46.56 0 00-10.5-4l-2.32-.5-1.19-.25c-.2 0-.4-.09-.59-.11l-.27.49-2.07 3.76a47.28 47.28 0 00-4.92 18.12 45.76 45.76 0 001.69 15.77c.29 1.18.73 2.27 1.1 3.36l.15.41v.12l.1.22.2.45c.09.19.41.61.36.67a4.65 4.65 0 00-.67-.29l-1-.29c-.86-.26-1.73-.48-2.6-.68s-1.74-.35-2.61-.47l-.68-.1-1.09-.11c-.72-.09-1.46-.12-2.19-.16l-2.19-.12c-.26-.1-.11.26-.17.39v.54l-.06 1.07c-.05 1.32-.1 2.62-.14 3.92 0 1.66-.13 3.3-.11 4.93s.33 3.24.5 4.84l.25 2.38c.14.78.37 1.55.55 2.32.39 1.53.78 3 1.16 4.56A43.62 43.62 0 00166.39 676a74 74 0 0027.94 7.17 114.48 114.48 0 0025-1.13z"/><path class="cls-12" d="M429 680c4.31 5.19 10.88 9.19 18.38 11.49a69.35 69.35 0 0011.91 2.51 61.71 61.71 0 0013 .47 45.63 45.63 0 0013.75-2.91 29.54 29.54 0 0012.42-8.89 27.15 27.15 0 005.64-15.09 15.66 15.66 0 00.14-2l-.09-2.76a34.45 34.45 0 00-.24-3.67c-.06-.26 0-.67-.16-.81h-.92l-1.81.1a23.77 23.77 0 00-3.67.47h-.1c.14-.53.29-1.07.44-1.62a29.14 29.14 0 00.64-3.92 28 28 0 00-.53-8.6 29.42 29.42 0 00-1.16-4c-.26-.62-.49-1.25-.78-1.85l-.62-1.29-.84-1.49-.83-1.46c0-.06-.06-.15-.11-.17l-.2.05-.41.08-.81.17c-1.05.22-2.14.46-3.11.75a26.17 26.17 0 00-3.21 1.18c-.62.28-.68.32-.7.33l-.08.07v-.11l-.1-.75c-.08-.63-.23-1.24-.34-1.85a28.81 28.81 0 00-2.51-6.9 29.71 29.71 0 00-1.83-3c-.33-.48-.67-.95-1-1.39s-.58-.73-1.38-1.64l-2-2.08-.25-.25-.12-.13-.16.08-.64.33-1.25.66c-.42.23-.82.42-1.23.66l-1 .57-1.32.9a27.42 27.42 0 00-7.71 8.46c-.45.73-.81 1.49-1.17 2.2a16.32 16.32 0 00-.63 1.52 8.23 8.23 0 00-.19.86 5.9 5.9 0 00-.51-.49l-.4-.33a24.213 24.213 0 00-2.32-1.69c-.55-.36-1-.62-1.46-.86l-1.95-1c-1 1.06-2.05 2.09-2.88 3.14a25.11 25.11 0 00-3.55 6.29 8.39 8.39 0 00-.62 2c-.07.37-.09.72-.12 1a8.74 8.74 0 00-1.28-1 24 24 0 00-3.05-1.78c-.5-.24-1-.45-1.42-.63l-.66-.26c-.26-.1-.58-.2-.85-.29-1.12-.37-2-.58-2.75-.77a32.31 32.31 0 00-1.87 3.29c-.34.73-.6 1.4-.82 2a21.88 21.88 0 00-.89 3.26l2.36.55a24.5 24.5 0 011-2.87c.23-.53.49-1.11.82-1.75a11.55 11.55 0 01.7-1.13l.92.37.84.38c.39.18.79.39 1.21.61a22.44 22.44 0 012.81 1.83 56.73 56.73 0 015.07 4.79c.18-.87.42-2.11.73-3.67a21 21 0 011.34-4.53 22.28 22.28 0 011.87-3.44 21.09 21.09 0 011.31-1.76 7.38 7.38 0 01.55-.56l1.3 1c.3.23.61.49.93.76.08.08.52.46.79.74s.62.6.93.95c1.22 1.38 2.61 3.15 3.9 4.74.59-1.84 1.13-4.36 2-6.72a15.85 15.85 0 011-2.45c.33-.59.65-1.2 1.05-1.8a23.27 23.27 0 016.55-6.78l1.1-.7.29-.17h.06c.1-.08.16 0 .21.1-.12-.14.35.42.59.75s.55.76.82 1.16a22.45 22.45 0 011.44 2.49 23.41 23.41 0 011.94 5.61c.08.5.2 1 .26 1.5l.11 1c0 .56 0 1.16.06 1.74.05 1.14 0 2.42-.05 3.68l-.12 3.67 4.3-2.87c.78-.52 1.57-1 2.38-1.46s1.59-.79 1.87-.91a22.11 22.11 0 012.57-.92h.05l.14.3c.23.48.41 1 .62 1.48a25.46 25.46 0 01.91 3.19 22.19 22.19 0 01.41 6.87 23.09 23.09 0 01-.5 3.14l-.2.74-.1.37-.05.18-.06.21-.08.2c-.45 1.09-.84 2.13-1.32 3.19L485 671.22c3.13-1.75 7-4 9.78-5.47a17.63 17.63 0 013.8-1.32h.09v1.06a12.23 12.23 0 01-.1 1.72 22 22 0 01-4.32 12.25 24.67 24.67 0 01-10.12 7.51 41.76 41.76 0 01-12.25 2.94 59.61 59.61 0 01-12.17 0 69.2 69.2 0 01-11.27-1.91c-7.14-1.83-13.29-5.12-17.59-9.6z"/><path class="cls-12" d="M367 693.36c6.84.63 14.08 1.24 21.93 1.36a99.16 99.16 0 0012.26-.48 37.72 37.72 0 0013.06-3.59 53.88 53.88 0 006-3.73l2.89-2c1-.71 2.06-1.44 3-2.27a35.86 35.86 0 009.73-12.53 35.22 35.22 0 002.66-8 36.52 36.52 0 00.58-4.34l.06-1.11a11.3 11.3 0 000-1.39l-.05-1.84v-1.16s-.13-.07-.2-.11l-.44-.19-1.76-.76-.89-.36-.53-.2c-.72-.26-1.45-.49-2.19-.71a34.4 34.4 0 00-4.55-1 36.64 36.64 0 00-4.72-.39h-1.16l.18-.45a37.06 37.06 0 00.76-4.21 35.47 35.47 0 00-.2-10.13 33.22 33.22 0 00-1.42-5.67 30.86 30.86 0 00-1.16-2.94l-.36-.79-.66-1.27-.7-1.32-.35-.66h-.75c-1 .05-2 .1-3 .18-.58 0-1.16.13-1.75.21a33.19 33.19 0 00-3.57.72c-.6.16-1.21.33-1.81.52l-1.19.39-.15.05a1.19 1.19 0 000-.14 36.76 36.76 0 00-.46-5.29 37.35 37.35 0 00-7.77-17.51c-.74-.92-1.53-1.82-2.37-2.69-.43-.43-.86-.86-1.3-1.27l-.68-.62-1.21-1-1.32-1.08-.33-.27c-.11-.11-.24.06-.36.08l-.73.31-2.8 1.22c-1.12.56-2.23 1.13-3.31 1.8a38.87 38.87 0 00-6.07 4.59 37.55 37.55 0 00-8.07 10.88c-.47.9-.86 1.92-1.21 2.7v.06c-.43-.6-.84-1.25-1.33-1.87a36.81 36.81 0 00-6.45-6.62 38.28 38.28 0 00-3.67-2.61c-.64-.37-1.26-.77-1.92-1.11l-1-.52-1.77-.84-.89-.42c-.3-.15-.61-.37-.84 0l-1.49 1.16-.75.58c-.26.2-.51.39-.6.48l-.79.7a33.91 33.91 0 00-3 2.92 37 37 0 00-7.58 12.79 35.58 35.58 0 00-1.48 6.1l-.06.35v.44l-.2-.13-.41-.24a37.11 37.11 0 00-9.33-3.89l-1.93-.45-1-.23-.53-.11c-.15 0-.22.22-.34.32l-1.26 1.52c-.37.46-.95 1.11-1.1 1.36a36.93 36.93 0 00-5.5 34.36 53.79 53.79 0 006.64 14.3 37.29 37.29 0 0010.72 10.27 49.06 49.06 0 006.13 3.35 64.85 64.85 0 006.27 2.35 101.63 101.63 0 0023.9 4.09l.19-2.42a102.23 102.23 0 01-23-4.76 59.3 59.3 0 01-5.85-2.38 46.77 46.77 0 01-5.57-3.26 33.58 33.58 0 01-9.42-9.47 50.44 50.44 0 01-5.84-13.4 32.44 32.44 0 015.2-30.06 4.66 4.66 0 01.32-.42l.21-.24c.11-.1.21 0 .49.07a31.07 31.07 0 014.09 1.44 33.3 33.3 0 013.94 2 91.15 91.15 0 017.59 5.58l.31-4.66c.06-.82.13-1.67.2-2.54 0-.43.06-.88.12-1.3 0-.21.07-.45.11-.67l.06-.31a29.7 29.7 0 011.4-5.22 32.13 32.13 0 016.62-10.89 28.3 28.3 0 012.54-2.47l.68-.59.17-.14c.05 0 .11-.08.11 0l.85.45c.56.29 1.08.64 1.63 1a32.74 32.74 0 018.58 7.91c.41.52.78 1.1 1.19 1.7l1.12 1.92.56 1 .53 1.14c.69 1.49 1.4 3 2.11 4.69l2 4.59c.57-2.6 1.27-5.75 2.05-9.29.42-1.82 1-3.31 1.53-5.11.37-.86.65-1.58 1.06-2.39a32.27 32.27 0 016.85-9.22 34.6 34.6 0 015.16-3.9c.91-.57 1.86-1.05 2.8-1.53a3.43 3.43 0 01.43-.2l.67.6 1.11 1.08c.71.73 1.39 1.49 2 2.27a32.15 32.15 0 016.67 14.86 30.62 30.62 0 01.43 4.57c0 3.09-.36 6.16-.55 8.78 2.27-1.09 4.73-2.39 6.86-3.27l1.41-.53.77-.26q.76-.26 1.53-.45c1-.27 2-.48 3-.64l1.56-.2h.06a.14.14 0 010 .06l.27.58a25.66 25.66 0 011 2.47 29.25 29.25 0 011.26 4.81 31 31 0 01.29 8.67 34 34 0 01-.64 3.9c-.7 2.44-1.42 4.75-2.13 6.93l4.4-.48 2.14-.16h1.51a32.38 32.38 0 014.08.28 29.6 29.6 0 013.92.81c.64.17 1.27.37 1.89.58l.73.26c.12 0 .05.28.08.41l-.05 1.65a31.45 31.45 0 01-11 22c-.85.75-1.76 1.42-2.66 2.07s-1.93 1.38-2.89 2.05a50.18 50.18 0 01-5.51 3.6 34.39 34.39 0 01-11.7 3.51 98.07 98.07 0 01-11.82.8c-7.69.13-14.91-.21-21.73-.56zm28.13-426.8a18.65 18.65 0 00-3.42 12.6 17.25 17.25 0 006.54 12.25 36.34 36.34 0 0012.65 6.17 97.14 97.14 0 0013.91 2.85c19 2.51 39.28 2.44 60.65 2.7l32.88.2c11.25 0 22.77 0 34.61-.78a157.06 157.06 0 0018-2.06c6-1.16 12.3-2.69 18.22-6.11a27.43 27.43 0 008-6.84 25.15 25.15 0 004.53-9.7 32.66 32.66 0 00.76-5.15 22.67 22.67 0 00-.21-5.55 22 22 0 00-4.79-10.1 23.38 23.38 0 00-15.84-8.04 22.67 22.67 0 00-4 0c-.65.06-1.27.15-1.88.26l-.9.18-.22.05v-.1a14 14 0 000-1.45l-.16-2.87a33.92 33.92 0 00-3.09-10.8 33.34 33.34 0 00-14.36-15 35.78 35.78 0 00-9-3.2 36.73 36.73 0 00-8.63-.57 32.71 32.71 0 00-7.49 1.38 3 3 0 00-.47.25v-.45l-.1-2.11c-.07-.94 0-1.89-.21-2.82a42.34 42.34 0 00-2.85-10.7 39.83 39.83 0 00-13-16.33A38.73 38.73 0 00497 177.5a38.16 38.16 0 00-18 1.92A38.91 38.91 0 00456.13 201a38.22 38.22 0 00-2.9 13.62 25.49 25.49 0 000 3.27l.12 1.61.09.77.05.32c.13.83.41 1.79.61 2.57a13.8 13.8 0 00-2-.77l-.51-.14-.82-.19c-.73-.16-1.44-.31-2.14-.41a30.72 30.72 0 00-7.58-.22 30.38 30.38 0 00-11.28 3.31l1.43 2.9a28.13 28.13 0 0116.8-2.17c.6.1 1.22.24 1.86.4l1.23.34c.53.19 1.06.32 1.61.56 2.18.87 4.8 2.17 7.26 3.38-.6-2.69-1.67-6.14-2.07-9.14l-.13-1.16-.05-.71-.06-1.42a25.56 25.56 0 01.11-2.89 33.67 33.67 0 0123.08-30A33.29 33.29 0 01522 203.67a36 36 0 012.25 8.9 22.78 22.78 0 01.14 2.34l.06 1.18a6.61 6.61 0 010 .67l-.05 1.25c-.22 3.27-1.09 7.25-1.62 10.76l5.27-2.68a31.15 31.15 0 015.68-2.42 25.77 25.77 0 016-1 30.48 30.48 0 016.76.52 29.1 29.1 0 017 2.57 26 26 0 0111.09 11.74 26.4 26.4 0 012.36 8.37l.11 2.22a8.25 8.25 0 010 1.11c0 .74-.08 1.67-.2 2.52-.54 3.44-1.73 7.8-2.49 11.32l5.19-3a27.76 27.76 0 015.74-2.88l.71-.22.5-.12.59-.12c.41-.07.83-.13 1.26-.17a15.21 15.21 0 012.7 0 15.89 15.89 0 0110.61 5.43 14.61 14.61 0 013.11 6.52 15.41 15.41 0 01.12 3.68 25.48 25.48 0 01-.57 4 17.78 17.78 0 01-8.92 11.78c-4.58 2.71-10.17 4.21-15.76 5.3a155.59 155.59 0 01-17.15 2.08c-11.5.82-22.94 1-34.13 1.14l-32.86.29c-21.33.13-41.57.63-60-1.28a95 95 0 01-13.28-2.3 32.65 32.65 0 01-11.3-5c-6.4-4.5-7.09-13.84-3.05-19.75zM216.76 161.65a101.78 101.78 0 01-19.07 18.44 95 95 0 01-25.54 13.28 93.6 93.6 0 01-14.77 3.71 101.29 101.29 0 01-15.69 1.22 94 94 0 01-83.29-52.55 97.83 97.83 0 01-5.18-74.08A95.43 95.43 0 01102 15.92a92.76 92.76 0 0168.82-4.46A90.13 90.13 0 01199.61 27a100.13 100.13 0 0120.81 22.83c1.31 2.13 2.6 4.25 3.89 6.34l3.21 6.56a57.23 57.23 0 012.7 6.63 49.46 49.46 0 012.23 6.64q.9 3.36 1.79 6.64.57 3.36 1.11 6.64c.17 1.09.4 2.18.53 3.27s.14 2.18.22 3.26c.15 2.16.29 4.3.44 6.41h3.24c-.07-2.18-.14-4.4-.21-6.64 0-1.12-.07-2.25-.1-3.38s-.28-2.26-.42-3.4c-.31-2.29-.61-4.6-.92-6.94q-.81-3.45-1.64-7a51.72 51.72 0 00-2.11-7 62 62 0 00-2.62-7l-3.17-7c-1.29-2.23-2.6-4.49-3.91-6.77a103.9 103.9 0 00-21.42-24.62 95.21 95.21 0 00-30.37-17.1 98.67 98.67 0 00-74 4c-24 11.18-44 33.09-52.87 59.94A104.32 104.32 0 0051.89 149a99.43 99.43 0 0089.83 55.07 105.15 105.15 0 0016.6-1.67 96 96 0 0015.51-4.3 97.53 97.53 0 0026.39-14.7 102.47 102.47 0 0019.12-19.83z"/><path class="cls-12" d="M74.27 87.25c-.22 0-.4.53-.17 1.19a10.87 10.87 0 004.22 4.66A31 31 0 0085 96.53a43.15 43.15 0 0017.5 2.79 31.28 31.28 0 0017-5.65A24.69 24.69 0 00127.74 83c.23-.56.24-1 0-1.14s-.61.15-1 .62a30.17 30.17 0 01-9.09 8.6 33 33 0 01-15.46 4.41 51.26 51.26 0 01-16.33-1.9 37.38 37.38 0 01-6.47-2.41A11.43 11.43 0 0175.07 88c-.28-.44-.52-.77-.8-.75zm83.67-10.75c-.17.18 0 .56.34.94 2.26 2.09 6 3.4 10.34 4a37.9 37.9 0 0014.49-.9c5.11-1.33 9.8-3.93 12.7-7.54a14.54 14.54 0 003.32-10.69c0-.51-.25-.85-.49-.85s-.49.33-.58.8a15.93 15.93 0 01-4.52 8.69 25.45 25.45 0 01-11.4 5.92 49.11 49.11 0 01-13.27 1.52c-4-.1-7.57-.64-10-1.81-.37-.23-.76-.26-.93-.08z"/><path class="cls-11" d="M134 147.53c-21.36 0-40.64-6.33-51.07-14.35-5-3.86-7.79-8-8-11.82l2.67-.16c.18 3 2.67 6.53 7 9.86 13.24 10.19 41.39 17.51 69.55 11.8l.53 2.63a104 104 0 01-20.68 2.04z"/><path class="cls-11" d="M68.26 130.49h-.14a1.34 1.34 0 01-1.2-1.45c0-.45 1.27-10.9 21.17-10.9a1.34 1.34 0 010 2.68c-17.29 0-18.46 8.14-18.5 8.48a1.34 1.34 0 01-1.33 1.19zm51.8 276.04l5.19-18.23 2.58.73-3.91 13.75 39.39-10.01-10-10.22 1.92-1.87 13.26 13.54-48.43 12.31z"/><path class="cls-11" d="M120.56 391.57l6.33-17.9 2.53.89-4.66 13.18 30.63-7.79L145 370.6l1.79-2 14.12 12.71-40.35 10.26z"/><path class="cls-11" d="M121.65 376.97l5.98-14.82 2.49 1.01-4 9.91 21.07-5.36-8.25-6.8 1.7-2.06 12.33 10.16-31.32 7.96z"/><path class="cls-11" d="M123 365.19l8.22-16.19 14.94 10.27zm9-13.2l-5.16 10.15 14.55-3.7z"/><path class="cls-11" transform="rotate(-14.26 141.301 406.8)" d="M139.97 399.96h2.68v13.68h-2.68z"/><path class="cls-11" transform="rotate(-14.27 149.446 403.913)" d="M148.16 397.86h2.68v12.36h-2.68z"/><path class="cls-11" d="M246.45 379.17l-49.96-.91 9.82-16.22 2.29 1.39-7.4 12.23 40.64.74-6.95-12.49 2.34-1.3 9.22 16.56z"/><path class="cls-11" d="M242.54 364.71l-41.62-.75 10.83-15.6 2.2 1.53-7.97 11.48 31.6.57-7.55-11.76 2.25-1.45 10.26 15.98zm-4.4-13.95l-32.31-.59 9.68-12.71 2.13 1.62-6.48 8.5 21.74.4-6.16-8.74 2.19-1.54 9.21 13.06z"/><path class="cls-11" d="M234.86 339.94l-25.36-.46 12.94-14.24zM222.23 337l6.77.12-6.63-7.85-6.91 7.61z"/><path class="cls-11" transform="rotate(-88.55 216.848 383.793)" d="M210.36 382.46h13.02v2.68h-13.02z"/><path class="cls-11" transform="rotate(-88.55 225.46 383.948)" d="M218.97 382.61h13.02v2.68h-13.02z"/><path class="cls-11" d="M387.05 405.03L341 385.66l15.12-11.42 1.61 2.14-11.41 8.62 37.48 15.76-1.83-14.18 2.66-.34 2.42 18.79z"/><path class="cls-11" d="M388.78 390.16l-38.37-16.13 15.84-10.47 1.48 2.24-11.66 7.7 29.13 12.25-2.65-13.72 2.63-.51 3.6 18.64z"/><path class="cls-11" d="M389.87 375.57l-29.79-12.53 13.71-8.22 1.37 2.3-9.17 5.5 20.04 8.43-2.48-10.4 2.61-.63 3.71 15.55z"/><path class="cls-11" d="M390.84 364.31l-23.39-9.84 17.3-8.42zm-16.9-10l12.48 5.25-3.24-9.74z"/><path class="cls-11" transform="rotate(-67.24 356.89 400.863)" d="M347.68 399.52h18.38v2.68h-18.38z"/><path class="cls-11" transform="rotate(-67.24 364.83 404.202)" d="M355.62 402.86H374v2.68h-18.38z"/><path class="cls-12" d="M19.08 432.18l-7.47 16.2c-1.4 3.11-2.91 6.47-4.58 10.16l-7 16 32.16-6 35.63-7 35.57-7.35 32-6.92-12.69-12-8.16-7.6-13.17-12-1.69 1.74L112 430.16l7.83 7.93 4.47 4.51 1.11 1.12.28.3.51.57-.72.07H125l-.69.12-6.73 1.23-15.31 2.88-35.64 7-35.54 7.41-15.22 3.27-6.68 1.48-.69.16h-.15l-.3.1-.69.22c.08-.25.17-.49.25-.72l.14-.39.59-1.42 2.38-5.88 4.14-10.36 6.46-16.62z"/><path class="cls-12" d="M27 396.6c-2.59 4.62-5.39 9.69-8.65 15.73-1.62 3-3.37 6.29-5.27 9.86-.95 1.78-1.93 3.64-3 5.59q-2.56 5-5.36 10.36L32.06 433l28.84-5.67 28.78-5.95 27.14-5.88-8.95-7.47-4.9-4-8.68-7c-5.35-4.3-9.89-7.89-14.07-11.15l-1.57 1.85c3.89 3.6 8.16 7.51 13.27 12.09l8.35 7.43 4.74 4.19.62.55.25.22.24.25.44.44-1 .07h-.15l-.33.06-1.34.24-2.79.51-12.37 2.32-28.84 5.68-28.79 6-12.31 2.65-2.76.61-1.33.3-.32.07h-.15l-.92.31.23-.57.14-.32a1.35 1.35 0 01.13-.31l.36-.74q1.44-3 2.75-5.7c1.74-3.65 3.34-7 4.81-10.09 2.94-6.2 5.37-11.46 7.55-16.28z"/><path class="cls-12" d="M31.66 368.58c-2.32 3.63-4.84 7.65-7.76 12.44l-4.72 7.8-2.88 4.86q-2.46 4.24-5.13 8.87l21.76-4 21.31-4.17 21.26-4.42 21.61-4.73L89 379l-4.54-3.37L77 370.3c-4.55-3.28-8.43-6-12-8.46l-1.49 1.92c3.26 2.82 6.88 5.9 11.19 9.48l7 5.79 3.69 2.97.68.66h-.73c-.33 0 .16-.1-1.77.26l-9.15 1.68-21.31 4.17-21.26 4.42-9.08 2c-1.92.42-1.42.35-1.73.45l-.69.25.37-.87 2.17-4.1 4.24-8.06c2.59-5 4.73-9.21 6.65-13.08z"/><path class="cls-12" d="M48.76 367.17c3.45-.48 7.2-1 11.64-1.75l7.25-1.21 14.08-2.62L62.93 349l-8.76-5.75c-3.82-2.45-7.76-5-11.76-7.58l-7.9 11.55c-2 3-4 5.94-5.85 8.69l-12.46 18.9 14-3.05 7.15-1.69c4.38-1.06 8-2 11.42-2.9l-.48-2.37c-3.45.48-7.2 1-11.65 1.75l-7.25 1.21-1.75.3-.52.05-.85.06.63-.68.24-.25c.14-.16 0 .13.54-.68L33.1 359 44 343.48l16 10.09 8 4.86c.85.53.58.33.76.42l.24.15.84.38-.81.27-.5.16-1.73.41-7.15 1.69c-4.37 1.06-8 2-11.41 2.9zm28.7 144.43a13.91 13.91 0 01-5.66-.82 9.5 9.5 0 01-4.7-3.62 6.88 6.88 0 01-1-2.77l-.71-4.21c-.5-2.85-1-5.81-1.66-8.83A260.27 260.27 0 0055.91 461l-2.38.48a261 261 0 004.58 31c.61 3 1.24 6 1.89 8.8.33 1.41.66 2.79 1 4.15a11.43 11.43 0 002.23 4.57 12.78 12.78 0 007.59 4.41 14.47 14.47 0 007.12-.46zm.25-54.97a258.73 258.73 0 004.58 31c.61 3 1.24 6 1.89 8.79l1 4.15a6.86 6.86 0 01.13 2.95 9.57 9.57 0 01-2.93 5.17 14 14 0 01-4.89 2.94l.48 2.38a14.43 14.43 0 006.73-2.33 12.82 12.82 0 005.29-7 11.62 11.62 0 00.29-5.13c-.24-1.37-.47-2.77-.71-4.2-.5-2.86-1.06-5.82-1.67-8.84a260.52 260.52 0 00-7.78-30.32z"/><path class="cls-11" d="M572.02 424.13l-49.07-9.44 12.45-14.3 2.02 1.76-9.39 10.78 39.92 7.69-4.71-13.5 2.53-.88 6.25 17.89z"/><path class="cls-11" d="M570.64 409.23l-40.88-7.87 13.35-13.52 1.9 1.89-9.82 9.94 31.03 5.97-5.42-12.87 2.47-1.05 7.37 17.51z"/><path class="cls-11" d="M568.7 394.72l-31.74-6.11 11.71-10.87 1.82 1.96-7.83 7.28 21.35 4.1-4.58-9.66 2.42-1.15 6.85 14.45z"/><path class="cls-11" d="M567.31 383.5l-24.91-4.8 15.2-11.81zm-18.59-6.31l13.28 2.56-5.18-8.87z"/><path class="cls-11" transform="rotate(-77.81 541.8 424.528)" d="M534.34 423.19h14.89v2.68h-14.89z"/><path class="cls-11" transform="rotate(-77.81 550.256 426.156)" d="M542.8 424.82h14.89v2.68H542.8z"/><path class="cls-11" d="M473.84 422.84l5.27-15.91 2.54.84-3.8 11.49 33.93-7.11-8.09-9 1.99-1.79 11.21 12.46-43.05 9.02z"/><path class="cls-11" d="M474.8 409.89l6.27-15.6 2.49 1-4.4 10.95 26.2-5.49-8.43-8.26 1.88-1.92 12 11.77-36.01 7.55z"/><path class="cls-11" d="M476.26 397.28l5.88-12.96 2.44 1.12-3.69 8.13 17.79-3.73-6.64-5.97 1.79-1.99 10.57 9.5-28.14 5.9z"/><path class="cls-11" d="M477.26 387.53l8.5-15.07 13.82 10.39zm9.33-11.09l-4.09 7.25 10.74-2.25z"/><path class="cls-11" transform="rotate(-12.05 492.66 423.42)" d="M491.14 417.68h2.68v11.27h-2.68z"/><path class="cls-11" transform="rotate(-11.5 501.337 414.46)" d="M498.46 416.15h2.68v11.27h-2.68z"/><path class="cls-12" d="M336 105c4-.83 7.83-2.08 11.75-2.92a38.86 38.86 0 0112.15-.65c4.26.34 8.72 1.12 13.55 1.54a90.28 90.28 0 0015-.17c5.15-.44 10.43-1.17 15.89-1.78 2.73-.29 5.51-.58 8.33-.72 1.41-.07 2.84-.14 4.27-.14a25.31 25.31 0 014 .16 4.47 4.47 0 012.63 1.37 34.64 34.64 0 012.83 3.31l6 7.68 11.52 14.77-10.35 14.68c-4.14 5.78-8.08 12.24-13.77 16.09a16.92 16.92 0 01-9.63 2.88c-3.67.1-7.72-.59-12.15-1a173.24 173.24 0 00-27 .08c-9.19.63-18.46 1.5-28 2s-19.31.88-29.25 1c-19.91.27-40.45-.51-61.38-2.07-18.72-1.35-37.29-2.8-53.93-3-8.31-.14-16.13.07-23.19.5-3.53.18-6.87.5-10 .8-1.56.13-3.06.35-4.51.53l-.63.08h-.1c-.38-2.09-.76-4.17-1.13-6.22-.55-3.2-1.08-6.36-1.6-9.44-1-6.17-1.71-12.06-2.14-17.49a129.93 129.93 0 01-.38-14.66c.09-2.13.23-4.1.43-5.87.07-.88.19-1.71.31-2.49.05-.39.11-.77.16-1.14s.05-.16 0-.26a1.43 1.43 0 01.3 0h.6c.61 0 1.22 0 1.83.1 1.22.09 2.43.22 3.65.37l7.25 1a66 66 0 007.29.64c2.42 0 4.75-.16 7.09-.24 9.33-.34 18.31-.81 26.86-1 17.17-.31 33 .41 47.79 1.15s28.45 1.58 41.31 2 25 1.12 36.43-1.55l-.72-3.15c-10.78 2.31-22.79 1.41-35.58 1s-26.46-1.3-41.27-2-30.75-1.21-48-.64c-8.67.3-17.56.91-26.83 1.43-2.31.12-4.68.32-7 .37a62.77 62.77 0 01-7-.48l-7.29-.86a65.73 65.73 0 00-3.76-.3c-.63 0-1.27-.06-1.92-.07h-1.25a5.29 5.29 0 00-1.47.14l-.67 3c-.19.79-.38 1.64-.52 2.54q-.53 2.72-.91 6a133.79 133.79 0 00-.82 15c0 5.58.25 11.64.71 18 .27 3.15.55 6.38.83 9.66.15 1.63.31 3.28.47 4.93l.12 1.27.34 2.4c.26 1.55.38 3.3.76 4.72l7.41-.86c1.4-.16 2.85-.36 4.37-.47 3-.26 6.27-.54 9.71-.7 6.86-.37 14.49-.54 22.65-.37 16.31.27 34.72 1.73 53.5 3.09 21 1.57 41.91 2.32 62 2q15.09-.26 29.59-1.16c9.64-.56 19.07-1.51 28.07-2.21a170.4 170.4 0 0126-.34c4.09.29 8.36 1 12.92.86a26.64 26.64 0 006.9-1.11 23.68 23.68 0 006.21-3.07 39 39 0 008.84-8.85c2.38-3.14 4.36-6.22 6.36-9.15l12.43-18.43-14.38-18-6.09-7.58a38.31 38.31 0 00-3.33-3.85 10 10 0 00-5.44-2.68 28.33 28.33 0 00-5-.15c-1.52 0-3 .13-4.5.22-3 .21-5.82.55-8.59.9-5.55.72-10.76 1.54-15.75 2.07a85.88 85.88 0 01-14.29.49c-4.57-.28-9.08-1-13.58-1.2A42.41 42.41 0 00347 98.6c-4.15 1-7.94 2.38-11.67 3.28zm-42.6 99.3c-9.92.64-20.53-.34-32-.18s-23.61 1-36.73 1.79c-6.55.4-13.35.78-20.43.93-3.52.06-7.16.11-10.79 0s-7.37-.58-11.46-.38a19.65 19.65 0 00-11.7 4.54c-1.68 1.36-3.08 2.82-4.54 4.24l-4.47 4.31c-3 2.89-6.16 5.8-9.41 8.72l-5 4.37c-1.12.92-4.85 4.23-7.79 7.11L169.42 261c2.59 1.79 5.07 3.6 7.92 5.47a32.58 32.58 0 004.81 2.66 20.9 20.9 0 005.79 1.59 55.74 55.74 0 0011-.19l10.64-.8c14.34-1 29.52-1.89 44.81.15 7.64 1 15.57 2.84 24 3.68s16.8.72 25.1.7c25-.09 49.49-.79 71.29-1.84 10.9-.52 21.12-1.11 30.4-1.74l13.16-.94 14.66-1.17a42.59 42.59 0 00-.05-4.64l-.07-2.35-.07-1.4c-.08-1.7-.17-3.39-.25-5.06-.15-3.34-.22-6.63-.28-9.84-.08-6.41 0-12.48.21-18s.52-10.55.85-14.84c.19-2.14.36-4.1.51-5.86.09-.88.17-1.71.25-2.48s.14-1.24.21-1.83.1-1.2.15-1.76c-.2-.19-.77 0-1.14-.07s-.85 0-1.3.06l-1.95.13-2.94.19-5.77.37-11.16.66q-10.9.62-20.9.94c-13.33.43-25.51.38-36.76-.2s-21.68-1.77-31.65-1.26-18.94 2.41-27.53 3l.2 3.23c8.89-.45 17.91-2.24 27.49-2.65s19.92.77 31.32 1.3 23.66.48 37.06-.14q10-.45 21-1.26l21.15-1.68a1.8 1.8 0 00-.06.22v.11a2.33 2.33 0 010 .28c-.13.77-.27 1.6-.42 2.47-.27 1.76-.57 3.73-.9 5.87a375.262 375.262 0 00-3.32 33.12c-.17 3.25-.32 6.59-.41 10l-.14 7-21.51 1.33c-9.25.53-19.43 1.05-30.29 1.51-21.71.93-46.11 1.56-71 1.65-8.32 0-16.48.11-24.34-.65s-15.66-2.52-23.76-3.58c-16.25-2.1-31.91-1.09-46.36 0l-10.66.89a50.44 50.44 0 01-9.58.3 17.28 17.28 0 01-7.68-3.09c-2.6-1.66-5.28-3.56-7.82-5.27l-14.61-9.92-6.72-4.52-2.71-1.85-.52-.32c0-.42-.1-.15 1.82-2.39l4.37-4.92q4.39-4.83 8.74-9.32l4.32-4.43a55.9 55.9 0 014.29-4.1 16.34 16.34 0 019.87-3.91c3.61-.21 7.41.24 11.16.34s7.38 0 11 0c7.14-.16 14-.53 20.55-.91 13.14-.8 25.24-1.62 36.56-1.68s21.93.85 32.19.18z"/></g></g></g></svg>