<svg xmlns="http://www.w3.org/2000/svg" viewBox="0 0 570.4 687.49"><defs><style>.cls-2{fill:#f9dccd}.cls-3{fill:#fff}.cls-4{fill:#e3e7e7}.cls-5{fill:#e65c6c}.cls-6{fill:#b8a6a1}.cls-8{fill:#bde1e8}.cls-10,.cls-9{fill:#1c1c1c}.cls-9{fill-rule:evenodd}</style></defs><g id="Layer_2" data-name="Layer 2"><g id="export"><g id="doktor"><path d="M329.88 113.12c71.71 46.27 117.53 122.13 141.63 211.37 24.16 89.06 26.72 191.44-22.42 237.78s-149.7 36.64-229 16.94-137.29-49.62-173.7-97-51.25-112.69-45-190.41S35 124 97.62 87.23 258 66.91 329.88 113.12z" fill="#ebe8f5"/><path class="cls-2" d="M104.53 118.85a12.17 12.17 0 014.42-8.31 17.87 17.87 0 0110.14-3.45 27.73 27.73 0 019.7 1.14q-.87 2.74-1.59 5.54a17.6 17.6 0 00-8.45-2.54 13.22 13.22 0 00-7.26 2 12.31 12.31 0 00-4 4c-.13.21-.16.43 0 .5s.26 0 .45-.18a17.84 17.84 0 014.92-3.26 2.63 2.63 0 00-.29.37 9 9 0 00-1.48 4.72 13 13 0 002.49 7.94.27.27 0 00.34.14.33.33 0 00.14-.35c-.32-1.83-1.22-4.61-1.09-7.65a10.12 10.12 0 012-5.88 13.11 13.11 0 013.78-.45 22 22 0 018.14 2A150.8 150.8 0 00123 136.2a18.61 18.61 0 01-16.74-8.82 13.77 13.77 0 01-1.73-8.53zm331.23-6.22a18.43 18.43 0 01-10.86 8.9 17 17 0 01-5.38.82 155.51 155.51 0 00-5.75-20.55 23.44 23.44 0 018.72-2.73 12.41 12.41 0 013.78.24 10.3 10.3 0 012.34 5.74c.29 3-.45 5.86-.67 7.71a.35.35 0 00.16.35c.11 0 .24 0 .35-.16a13.15 13.15 0 002-8.08 8.94 8.94 0 00-1.72-4.61 2.45 2.45 0 00-.29-.35 17.72 17.72 0 015.06 3 .49.49 0 00.47.16c.11-.08.08-.29-.08-.5a12.06 12.06 0 00-4.21-3.76 13.21 13.21 0 00-7.34-1.59 17.6 17.6 0 00-9 3.47q-1-2.82-2.15-5.57a28.63 28.63 0 0110.39-2h.26a18.17 18.17 0 0110.25 2.86A12.26 12.26 0 01437 104a13.78 13.78 0 01-1.24 8.63zm-37.88-28.98c.48.93.95 1.86 1.4 2.78-.58.64-1.08 1.22-1.48 1.72a70.61 70.61 0 00-6.94 10.73c-.4-.21-.79-.45-1.19-.66a47.51 47.51 0 00-7.34-2.91 109.72 109.72 0 00-16.05-3.74 166.82 166.82 0 00-17.62-1.88 123.87 123.87 0 00-19 .32 60.92 60.92 0 00-10.06 1.8 28.72 28.72 0 00-5.19 2 14.08 14.08 0 00-5.06 3.94c-.37.53-.72 1.06-1 1.62s-.42 1-.63 1.48a21.84 21.84 0 00-.82 2.92c-.19.84-.32 1.69-.43 2.54-23.89-17.88-54.46-4.9-66.06 1.24-.13-1.24-.29-2.51-.55-3.78a22.09 22.09 0 00-.85-2.92c-.19-.5-.37-1-.61-1.48s-.69-1.09-1-1.62a14.34 14.34 0 00-5.09-3.94 28.44 28.44 0 00-5.19-2A60.33 60.33 0 00217 90a124.2 124.2 0 00-19-.32 166.53 166.53 0 00-17.59 1.88 110.6 110.6 0 00-16.07 3.74 46.78 46.78 0 00-7.34 2.92 23.8 23.8 0 00-3.37 2.09 48.8 48.8 0 00-11.2-7.65c1.35-3.08 2.8-6.07 4.34-9a155.61 155.61 0 0136-45.48 144.87 144.87 0 0145-26.57 148.64 148.64 0 0122.83-6.25 159.77 159.77 0 0121.62-2.2A159.73 159.73 0 01294 5.35a148.64 148.64 0 0122.8 6.25 144.87 144.87 0 0145 26.57 155.61 155.61 0 0136.08 45.48z"/><path class="cls-3" d="M377 130.43a11.26 11.26 0 11-15.86-15.34 20.21 20.21 0 00-2.81-.21 19 19 0 1019 19 17.84 17.84 0 00-.33-3.45zm1.75 20.45a28.3 28.3 0 01-22.62 10.46c-9-.19-17.67-3.87-22.88-10.36-5.41-6.38-6.76-15.09-5.28-22.59a30.05 30.05 0 0111.37-18.12 31.62 31.62 0 018.71-4.63 34 34 0 019-1.59c5.8.24 12.56 1.14 17.93 5.32s8.48 11.26 9.73 19a28.08 28.08 0 01-6.01 22.51z"/><path class="cls-2" d="M387.5 140.87a31.49 31.49 0 00.23-13.06 42 42 0 00-3.81-11.61 25 25 0 00-7.52-8.84 25.85 25.85 0 00-9.83-4.16 46.68 46.68 0 00-9.59-.77 36.15 36.15 0 00-9.59 1.22 33.52 33.52 0 00-9.56 4.61 32.44 32.44 0 00-13.22 32.53 28 28 0 005.78 12.47 30.65 30.65 0 0011.31 8.66 37.4 37.4 0 0014.3 3.18 31.58 31.58 0 0025.5-11.94 30.51 30.51 0 006-12.29zm-70.36-.87a153.74 153.74 0 01-3.57-20.44 72.77 72.77 0 01-.37-9.83 29.46 29.46 0 01.45-4.53 17.84 17.84 0 01.53-2l.32-.82a2.37 2.37 0 00.31-.53c1.09-1.48 3.9-2.86 6.68-3.68a53.31 53.31 0 018.92-1.86 124.22 124.22 0 0118.07-.9 170 170 0 0117.11 1.11 114.9 114.9 0 0115.58 2.76 44.07 44.07 0 016.91 2.28c.5.21 1 .45 1.48.69a1.25 1.25 0 00.58.79l1.81.8a5.21 5.21 0 01.95 1.11c1.24 3.57 1.69 7.89 2 12.29s.32 9.06.19 13.88a149.62 149.62 0 01-3.84 30.43 45.73 45.73 0 01-2.57 7.45 15.77 15.77 0 01-1.8 3.12 9 9 0 01-1 1c-.24.27-.9.45-1.3.72a24.53 24.53 0 01-7.55 1.82 78 78 0 01-8.74.43c-12-.08-24.9-1.72-38-3.79.1-.05-.16 0-.8-.69a18.59 18.59 0 01-2-2.75 59 59 0 01-4.06-8.45 157.45 157.45 0 01-6.29-20.41z"/><path class="cls-3" d="M219.51 133.32c1.4 7.47-.21 16-5.69 22.17s-14.07 9.61-22.92 9.56-17.58-3.34-23.25-9.25a20.49 20.49 0 01-5.35-10.38c-.75-3.79-.06-7.71.82-11.52 1.75-7.52 5.43-14.2 10.62-18.52a28 28 0 0117.32-6.3 34.64 34.64 0 018.88 1.62 30.69 30.69 0 018.58 4.63 29.41 29.41 0 0110.99 17.99zm-10 3.28a18.12 18.12 0 00-.31-3.39 11 11 0 11-15.53-15A19 19 0 00191 118a18.58 18.58 0 1018.56 18.59z"/><path class="cls-2" d="M233 105.16a18 18 0 00-.5-2l-.32-.82a4.86 4.86 0 01-.35-.53c-1.08-1.48-3.89-2.86-6.67-3.68a52.46 52.46 0 00-8.9-1.86 124.36 124.36 0 00-18.07-.9 170.37 170.37 0 00-17.11 1.11 115.48 115.48 0 00-15.6 2.76 43.48 43.48 0 00-6.89 2.28 17.61 17.61 0 00-3 1.59.67.67 0 01-.16.31l-1.75 1.7a50.94 50.94 0 00-2 12.08c-.29 4.42-.31 9.06-.18 13.88.16 4.42.45 9 1 13.69a122.4 122.4 0 002.92 16.74A44.31 44.31 0 00158 169a17.76 17.76 0 001.8 3.13 8.22 8.22 0 001 1 8.71 8.71 0 001.32.72 24.6 24.6 0 007.55 1.82 77.4 77.4 0 008.74.43c12-.08 24.88-1.72 38-3.79-.08-.05.16 0 .8-.69a18.49 18.49 0 002-2.75 63 63 0 004.05-8.45c1.32-3.34 2.49-6.73 3.52-10.12s2-6.89 2.78-10.31a153.89 153.89 0 003.6-20.44 72.81 72.81 0 00.38-9.83 28.2 28.2 0 00-.54-4.56zm-16.48 52.68c-6.06 7.23-15.92 11-25.64 11s-19.41-3.68-25.88-10.54a23.79 23.79 0 01-6.09-12.3c-.11-.59-.16-1.19-.22-1.8a24.78 24.78 0 01.11-4.88 50.63 50.63 0 011.22-6.17c2.06-8 6.28-15.18 12.16-19.68a27.49 27.49 0 019.4-4.79 38.2 38.2 0 0119 0 31.74 31.74 0 0122.1 24 31.17 31.17 0 01-.06 12.9 30.45 30.45 0 01-.9 3.26 27.9 27.9 0 01-5.18 9z"/><path class="cls-2" d="M162.32 201.23c15 16.58 44.53 27.87 81.72 31 7.39.64 14.8.93 22.17.93 46.62 0 91.75-12.32 115.38-32.26a6.42 6.42 0 01.32 3.68 1.33 1.33 0 00.55 1.75 1.41 1.41 0 00.64.16 1.33 1.33 0 001.16-.69c.24-.42 2-4.34-4-13.09a1.33 1.33 0 00-2.2 1.49 28.42 28.42 0 012.44 4.13c-26.62 23-82.46 35.92-136.25 31.26-37.19-3.21-66.46-14.47-80.71-31a27.83 27.83 0 012.46-3.69 1.32 1.32 0 00-.26-1.85 1.33 1.33 0 00-1.85.26 29.8 29.8 0 00-3.37 5.43l-.18.16.08.08c-2.15 4.61-1.22 6.91-1.06 7.23a1.23 1.23 0 001.16.74 1.78 1.78 0 00.53-.1 1.39 1.39 0 00.72-1.73s-.45-1.24.55-3.89zm144.07-81a155.56 155.56 0 003.52 21.48 153.78 153.78 0 006.6 21.51 63.47 63.47 0 004.63 9.59 23.23 23.23 0 003.05 4.05 9.8 9.8 0 004.87 2.81c13.59 2.06 26.54 3.55 39.31 3.41a78.88 78.88 0 009.54-.68 29.46 29.46 0 009.67-2.68 14.52 14.52 0 002.43-1.51 15.05 15.05 0 002-2.15 25 25 0 002.44-4.42 49.8 49.8 0 002.65-8.61 141.51 141.51 0 002.75-31.84 136 136 0 00-.95-14.3 52.71 52.71 0 00-2.68-12 2.54 2.54 0 00.43-.64l.34-.74a87 87 0 015.43-10.28 151.12 151.12 0 0110.25 33.46 142.29 142.29 0 012.17 17 137.29 137.29 0 01-1.4 31.74 111.31 111.31 0 01-9.11 29.16 102.73 102.73 0 01-16.53 24.26 112.4 112.4 0 01-21.72 18.07q-2.65 1.71-5.35 3.25a156.12 156.12 0 01-43.12 16.45 225.15 225.15 0 01-23.47 4c-7.6.85-14.89 1.25-21.85 1.49-6.94-.24-14.23-.64-21.83-1.49a225.15 225.15 0 01-23.47-4 159.18 159.18 0 01-38.7-14c-3.31-1.75-6.57-3.63-9.77-5.69a112.4 112.4 0 01-21.72-18.07 102.73 102.73 0 01-16.53-24.26 111.31 111.31 0 01-9.11-29.16 137.29 137.29 0 01-1.4-31.74c.08-1.22.18-2.41.31-3.63a151 151 0 019.75-41.13 55 55 0 019.22 7.49l.58.53a65.41 65.41 0 00-1.93 9.88 138.73 138.73 0 00-1 14.3 141.55 141.55 0 002.84 31.86 51.73 51.73 0 002.67 8.61 22.67 22.67 0 002.44 4.42 14 14 0 002 2.15 13.47 13.47 0 002.44 1.51 29.3 29.3 0 009.64 2.68 78.78 78.78 0 009.56.68c12.77.14 25.72-1.35 39.28-3.41a9.62 9.62 0 004.88-2.81 23.17 23.17 0 003-4.05 63.57 63.57 0 004.66-9.59 149.71 149.71 0 006.57-21.51 154.17 154.17 0 003.55-21.48c.19-2.23.27-4.48.29-6.73 8.53-4.9 41.86-21.69 65.51-.56.08 2.42.16 4.86.37 7.27zm-2 56.63a19.81 19.81 0 001-10.12 41.64 41.64 0 00-6.52-16.18 45.94 45.94 0 00-9.24-10.78c-1.17-.9-2.17-1.25-2.28-1s.58.88 1.56 1.83a50 50 0 018.11 11.1 42.25 42.25 0 015.38 15.44 16.65 16.65 0 01-1.12 8.45 13.48 13.48 0 01-5.9 6.41 28.21 28.21 0 01-9.25 3.1 57.36 57.36 0 01-10.43.87c-7.1 0-14.17-.71-19.79-3.68a16.07 16.07 0 01-6.49-6 17 17 0 01-2-8.29c0-5.75 1.93-11.15 4.16-15.68a41 41 0 017.92-11.12c1-1 1.69-1.65 1.53-1.86s-1.11.14-2.22 1a39 39 0 00-9.14 10.91 36.59 36.59 0 00-5.27 16.69 19.42 19.42 0 002.12 9.93 18.82 18.82 0 007.71 7.55c6.49 3.57 14.06 4.32 21.5 4.32a60.39 60.39 0 0011.1-1A30.38 30.38 0 00297.2 185a16.74 16.74 0 007.18-8.19zm253.53-40.18c1.69 1.35-3.58 9.54-5.83 13-3.55 5.51-5.22 8.27-4.47 10.33a2.53 2.53 0 001.66 1.59c2.73.9 5.75-1.67 9.57-4.95 2.3-2 6.54-5.59 7.84-4.9-.4 3.07-12.59 13.61-19.9 20-6 5.24-11.73 10.17-14.51 13.46-1.22 1.43-2.94 4.68-5.64 9.9-.77-.92-1.59-1.8-2.41-2.65a47.81 47.81 0 00-6.07-5.21.2.2 0 00-.11-.06c4.88-10.65 6.31-16.95 5-22.17a86.55 86.55 0 00-3.21-9.3c-1.93-5.11-5.56-14.64-4-16.31.16-.16.79-.32 2.3.1 4.48 1.36 5.3 5.75 6.07 9.65.58 3.12 1.35 7 5 6.54 3-.37 4.82-5 8-13.91 2.06-5.85 4.87-13.88 7.2-15a.42.42 0 01.34 0 .63.63 0 01.4.35c.88 1.91-1.27 7.65-2.81 11.86-2.43 6.57-4.37 11.77-1.11 13.73 3.55 2.09 6.49-2.63 9.91-8.08 1.93-3.1 4.85-7.76 6.46-8.06a.39.39 0 01.32.09z"/><path class="cls-4" d="M329.28 269.07c-3.5 6.17-16.37 29-32 57.24a105.38 105.38 0 00-3.82-22.15 93.17 93.17 0 00-3.81-10.72 14.91 14.91 0 006.57-5.06 12.63 12.63 0 000-13.78 202.39 202.39 0 0022.49-3.12c3.47-.69 6.99-1.48 10.57-2.41z"/><path class="cls-5" d="M295.53 279.37a10.53 10.53 0 01-1.93 7.15 13.89 13.89 0 01-7.23 4.29 38.35 38.35 0 01-9.78 1.14c-6.81 0-13.64-1.16-17.61-4.85a9.1 9.1 0 01-2.92-6.67 9.43 9.43 0 011.54-5.3c5.09.21 10 .21 14.73.13 6.86.14 14.06 0 21.61-.5a9.42 9.42 0 011.59 4.61z"/><path class="cls-4" d="M253.57 280.32a11.5 11.5 0 003.16 9 17.27 17.27 0 006.27 4.11 89.59 89.59 0 00-4.63 11.15 105.12 105.12 0 00-5 23.31c-14.43-25.91-26.62-47.58-32.21-57.46 1.62.37 3.23.72 4.85 1a206 206 0 0024.13 3.25c1.8.14 3.58.24 5.32.32a10.87 10.87 0 00-1.89 5.32z"/><path class="cls-5" d="M272.62 362.73c-6.39-11.63-12.74-23.07-18.7-33.8a1.52 1.52 0 00.32-.93 130.42 130.42 0 016.22-22.67 101 101 0 015-11.05l.4.11a40.62 40.62 0 0010.78 1.32 38 38 0 0010.62-1.4 98.24 98.24 0 014.08 10.52 135.13 135.13 0 015.06 21.58c0 .4.13.77.32.9-6.25 11.23-12.93 23.26-19.6 35.42a8.24 8.24 0 00-1.06 2.2h-2.33a8.65 8.65 0 00-1.11-2.2z"/><path class="cls-3" d="M276.19 365.16a.32.32 0 00.19.08c.21 0 .48-.37 1.46-2.06 25.56-43.68 49.71-86 54.3-94a10.69 10.69 0 00.55-1c3-.82 5.94-1.75 8.93-2.78 1.32 4.66 2.78 9.75 4.34 15.26.88 3 1.78 6 2.73 9.19.48 1.59.95 3.2 1.46 4.84.24.8.5 1.62.77 2.47l.18.61a1.26 1.26 0 00.13.39c0 .08.08.14.08.19s-.08.16-.21.13l-1.75-.08c-1.8-.05-3.63-.13-5.45-.18-3.68-.11-7.45-.22-11.29-.35l-3.57-.08-2.86-.05c-.74-.24-.29.58-.32 1l.18 1.4c.32 2.31.61 4.64.93 7 .53 3.95 1.09 7.95 1.64 12 .29 2 .56 4 .85 6 .08.64.24 1.75.29 2.07a.93.93 0 00-.21.18l-1.11 1c-2.92 2.7-5.78 5.38-8.58 8-5.62 5.25-11 10.31-16.11 15.1-10.22 9.62-19.15 18.41-26.51 25.69l-4.24.06c-7.42-7.29-16.4-16.08-26.67-25.67-5.17-4.77-10.6-9.83-16.24-15l-8.66-7.95c-.51-.43-1.35-1.19-1.54-1.38l.05-.29.22-1.48c.29-2 .55-4 .84-6 .56-4.08 1.09-8.08 1.65-12 .29-2.28.58-4.55.9-6.78a18 18 0 00.26-2.78l-2.89.05-3.73.11-11.31.32c-1.83.08-3.66.13-5.46.18l-1.85.08c-.13 0-.32.08-.24-.1a.46.46 0 01.08-.19 2 2 0 00.11-.34l.18-.61c.27-.82.53-1.65.77-2.47.5-1.64 1-3.25 1.48-4.84 1-3.18 1.86-6.26 2.76-9.22 1.4-4.93 2.75-9.54 4-13.8 3.39 1.06 6.78 2 10.12 2.78 5.19 9.14 28.84 50.51 54.06 93.53 1 1.69 1.25 2.06 1.46 2.06a.3.3 0 00.18-.08c.11-.05.19-.1.19-.23H276c0-.08.09-.03.19.02z"/><path class="cls-6" d="M411.81 653.17c2 4.26 2.47 9.27.53 13.51s-5.69 7.68-10.28 10c-8.34 4-18.09 5.09-27.49 5.17-4.71.18-9.43-.37-14.09-.61l-7-.85a94.89 94.89 0 01-6.88-1c-4.56-.82-9.12-1.54-13.54-2.63l-6.62-1.51-1.64-.37a9 9 0 01-1.3-.37 8.18 8.18 0 01-5-5.48 7.81 7.81 0 01-.26-2.62l.11-3.18c.29-4.24.79-8.5 1.4-12.69 2.54-16.82 5.64-32.79 7.42-47.84.9-7.52 1.48-14.8 1.69-21.82a116.46 116.46 0 00-.95-17.67c5.9-.21 11.81-.5 17.72-.93 6.41-.45 12.79-1 19.18-1.82a212.16 212.16 0 01-3.85 34c-1.37 7-3 14.52-5.21 22.6-1.14 4.05-2.31 8.26-3.74 12.61l-2.17 6.67c-1.06 3-2.15 6-3.26 9.14a4.82 4.82 0 00-.08 2.94 2.07 2.07 0 00.51 1 2.93 2.93 0 001.35 1 4.73 4.73 0 00.63.13 7.21 7.21 0 00.72-.4l1.53-1c1-.64 2.1-1.27 3.18-1.91 1.83-1.11 3.71-2.28 5.62-3.44a36.38 36.38 0 015.14-2.84l2.72-1.27c.93-.45 1.94-.66 2.92-1l3-1c1-.21 2.07-.39 3.13-.6 2.09-.56 4.26-.43 6.46-.64a40.48 40.48 0 016.63.66c8.85 1.52 17.77 7.37 21.77 16.06zM258 668.45a8.1 8.1 0 01-2.49 4.4 8.42 8.42 0 01-2.17 1.43 12 12 0 01-1.22.45l-1.61.37-6.68 1.51c-4.47 1.11-9.06 1.85-13.64 2.67l-3.47.61-3.5.43-7 .87c-4.72.27-9.48.82-14.25.64-9.48-.06-19.31-1.2-27.73-5.25-4.56-2.33-8.4-5.75-10.18-10s-1.29-9.24.67-13.51a27 27 0 019.14-10.64 32 32 0 013-1.86l3.13-1.53a35.92 35.92 0 016.54-1.86l1.67-.34c.55-.08 1.11-.08 1.67-.11 1.08-.08 2.2-.18 3.28-.21a40.29 40.29 0 016.46.66c1 .21 2.07.4 3.1.58 1 .35 2 .67 3 1a35.65 35.65 0 015.64 2.31 37.36 37.36 0 015.09 2.83c1.93 1.17 3.81 2.33 5.64 3.45 1.09.63 2.12 1.27 3.18 1.9l1.53.93c.24.13.56.4.72.4a2.09 2.09 0 00.61-.13 2.88 2.88 0 001.35-1 2 2 0 00.5-1 4.59 4.59 0 00-.08-2.94c-1.11-3.15-2.22-6.25-3.28-9.3-.74-2.33-1.48-4.61-2.2-6.83-1.4-4.48-2.59-8.8-3.71-13-2.2-8.32-3.76-16-5-23.23a213.39 213.39 0 01-3.36-35.26c12.05 1.85 24.1 3 36.18 3.89a120.6 120.6 0 00-.88 17.43c.22 7.1.77 14.47 1.67 22 1.75 15.2 4.77 31.36 7.31 48.34q1 6.36 1.51 12.85l.11 3.2a11.74 11.74 0 01-.25 2.85z"/><path class="cls-5" d="M88.29 585.31c-5 .39-10.6.68-12.53.55a50.1 50.1 0 01.66-9.8c1.38-.37 7-.42 11.84-.24h1.35v-1.38a101.9 101.9 0 01.48-12.1c2.12-.35 9.54 0 11 1 .18 1.7.08 6.83 0 10l-.06 1.48 1.49-.1c5.11-.37 11.15-.56 12.74-.27A41.19 41.19 0 01116 585c-1.46.35-6.86.08-11.39-.37l-1.57-.13.11 1.56c.4 5.86.63 12.45.48 14-2.18.61-11.69.82-14.33.51-.14-2 .08-8.24.42-13.83l.11-1.51z"/><path class="cls-6" d="M151.91 548.38c-2.06.53-4.37 1-6.86 1.48v1.62a14.58 14.58 0 01-.43 3.23 7 7 0 01-.74 1.86 5.14 5.14 0 01-.82 1 7.38 7.38 0 01-1.11.66 27.33 27.33 0 01-6.49 1.3c-2.12.23-4.24.39-6.39.5-2.3.13-4.58.19-6.59.21h-4.64l-1-.09a3.05 3.05 0 01-1.22-.58 4.1 4.1 0 01-.82-1.14 9.72 9.72 0 01-.66-1.72c-.29-1-.48-1.91-.66-2.78-7.13.59-14.91 1.09-23.26 1.49-3.86.18-7.86.34-12 .47v.72c-.08.64-.16 1.3-.29 2-.06.34-.14.66-.22 1a8.06 8.06 0 01-.42 1.32 3.18 3.18 0 01-1.11 1.46 3.84 3.84 0 01-1.78.5l-2.06.24c-2.76.24-5.59.4-8.48.5s-5.8.16-8.66 0a26 26 0 01-4.37-.53c-.19-.05-.35-.08-.58-.16s-.53-.24-.8-.37a3.72 3.72 0 01-1.24-1.08 7.79 7.79 0 01-1.06-2.28 15.12 15.12 0 01-.51-2.73H36.37a207.18 207.18 0 001.83 23.89c.56 4.18 1.25 8.37 2.15 12.53a65.19 65.19 0 003.57 11.94c.8 1.72 1.83 3.42 2.47 3.53a18 18 0 005.32 1.45 95.78 95.78 0 0013.14.88c9 .08 18.33-.43 27.7-1.14 3.16-.24 6.28-.53 9.41-.85 6.2-.58 12.31-1.3 18.35-2.09 4.53-.59 9-1.25 13.43-2a167 167 0 006.52-1.21c1-.24 2.09-.48 3.07-.75a14 14 0 002.15-.71c-.06.18.39-.48.76-1.17a16.82 16.82 0 001.06-2.59 57.61 57.61 0 001.57-6c.87-4.11 1.45-8.32 1.93-12.48a223 223 0 001.27-24.63c-.02-2.22-.07-4.47-.16-6.7zm-33.8 38.35c-.39.56-1.21 1.67-12.21.69.82 12.8.16 13.86-.08 14.23-.42.66-1.21 1.06-4.42 1.38-.08 0-4.16.31-8 .31-2.91 0-5.64-.18-6.25-.84-.39-.43-1-1.06-.21-14.44-12.45 1-12.92.32-13.4-.29-.93-1.22-.45-12.24 1-13.7.38-.37 1.25-1.27 12.37-1 0-11.68.77-12.4 1.2-12.79a4.29 4.29 0 012.27-.64l2.2-.08a35.12 35.12 0 018.85 1c.48.15 2 .66 2.2 2a76.57 76.57 0 01.08 9.35c12-.79 12.9.08 13.32.48 1.48 1.45 2.28 12.61 1.08 14.34z"/><path d="M141.53 546a29.29 29.29 0 01.08 5.3 12 12 0 01-.4 2.51 4.84 4.84 0 01-.37.88c-.08.13-.1.08-.13.16a.43.43 0 00-.19.08 29 29 0 01-5.48.92c-2 .19-4.08.32-6.2.45l-6.46.24-4.48.08h-.05a3.06 3.06 0 00-.16-.35l-.18-.58c-.27-.82-.48-1.64-.67-2.46-.37-1.62-.63-3.16-.82-4.59s-.34-2.75-.4-3.94v-1.67c0-.5 0-.53.11-.74a.8.8 0 01.37-.16 9 9 0 011-.24c.66-.13 1.32-.24 1.93-.35l3.47-.42c2.14-.19 3.92-.37 5.59-.53 2.7.11 5.67.24 8.82.56.77.08 1.56.16 2.36.29.39.05.76.13 1.13.21s.3.08.43.16 0 0 .13.48.19.79.27 1.19c.09.77.22 1.62.3 2.52zm-66.46-.77c.05.37.11.79.13 1.24a27.51 27.51 0 01.06 2.92 52.75 52.75 0 01-.53 6.7c-.08.58-.19 1.16-.29 1.75l-.22.84c0 .22-.18.61-.15.53s0 0-.11 0l-2 .16c-2.68.19-5.46.34-8.29.45s-5.7.16-8.37.08a24.16 24.16 0 01-3.66-.34l-.34-.08-.13-.06c-.11 0-.08-.05-.19-.13a4.7 4.7 0 01-.58-1.19 24.3 24.3 0 01-.9-6.44c0-1 0-2 .05-2.94 0-.48.08-.93.13-1.35s.08-.61.11-.87c-.19-.32 1.77-.69 2.91-.93s2.44-.45 3.53-.61l5.66-.82h5.88c1.12 0 2.34 0 3.66.13.66 0 1.35.1 2 .16.34 0 .71.1 1 .16s.27.05.4.13a1.56 1.56 0 01.24.51z" fill="#8f8a89"/><path class="cls-6" d="M150 532.22a82.22 82.22 0 011.83 13.49c-2.07.53-4.37 1-6.89 1.53-.08-.55-.13-1.11-.21-1.67-.13-1-.32-1.88-.53-2.78-.13-.47-.24-.93-.4-1.4a4.13 4.13 0 00-1-1.78 4 4 0 00-1.88-.74c-.47-.08-.92-.13-1.35-.16-.87-.05-1.72-.1-2.54-.1-3.28-.06-6.28.13-9 .34-1.69-.08-3.5-.1-5.69-.05-1.09 0-2.28.08-3.61.18-.66.06-1.35.11-2.12.22-.37.08-.76.13-1.16.23a4.45 4.45 0 00-1.7.77 4.4 4.4 0 00-.92 2.36 14.7 14.7 0 00-.16 2 37.72 37.72 0 00.16 4.29c.05.74.13 1.48.26 2.28-10.25.84-21.9 1.5-34.67 2a38.27 38.27 0 000-3.85c-.06-1.11-.14-2.17-.3-3.2-.08-.53-.18-1-.31-1.56a4.1 4.1 0 00-1-1.91A4.61 4.61 0 0075 542c-.45-.08-.87-.1-1.24-.13h-2.23c-1.37 0-2.62.06-3.76.14-2.28.16-4.18.37-5.93.58-1.75 0-3.6 0-5.83.21-1.11.08-2.3.19-3.65.37-.69.08-1.41.19-2.18.35-.53.13-2.25.42-2.78 1.67a16.72 16.72 0 00-.47 1.74c-.08.51-.19 1-.24 1.51a30.16 30.16 0 00-.29 3.26v2.12c-4.32.05-7.79 0-10.09 0 0-3.31.08-6.57.32-9.75.32-3.76.82-7.65 2-10.43.37-.64.53-1.06.9-1.27a1.18 1.18 0 00.27-.22l.5-.23a7.06 7.06 0 011-.51 40.78 40.78 0 015-1.59c3.47-.92 7-1.64 10.51-2.25 14-2.46 27.21-3.79 39.13-4.82 11.94-.26 25.27-.5 39.33.8a53.85 53.85 0 0110.17 1.85c1.67.66 2 .79 2.78 2.14a24.45 24.45 0 011.78 4.68zm-22.56-24.9a53.54 53.54 0 011.19 11c-1.19 0-2.38-.06-3.58-.06l-2-7.84a28.94 28.94 0 00-3-7.6 10.86 10.86 0 00-5.19-4.55 2.93 2.93 0 00.34-.53 13.51 13.51 0 001.49-6.81 20.35 20.35 0 016.65 6.44 30.63 30.63 0 014.1 9.95zm-60.08-4.07a17.38 17.38 0 00-5.69 7.86 28.75 28.75 0 00-1.56 10.28v.71c-1.33.16-2.68.35-4 .53-.29.06-.58.08-.87.14A37.76 37.76 0 0157.06 510a30.11 30.11 0 015.85-10.49 32 32 0 018.37-6.78 12.64 12.64 0 001.14 5A10.42 10.42 0 0073.8 500a20.18 20.18 0 00-6.44 3.25z"/><path class="cls-2" d="M86.94 471.8a25.64 25.64 0 00.55-9.29 75.72 75.72 0 00-2.11-11.63 38.21 38.21 0 005.88.56 43.73 43.73 0 005.58-.19A79 79 0 0098 463.91a26.7 26.7 0 001.11 4.37c.11.37.32.77.48 1.17a4.34 4.34 0 00.66 1.22 4.17 4.17 0 001.08 1.29c.27.24.53.43.8.64l.16.13a19 19 0 012.57 2.89 42.29 42.29 0 012.38 3.6 30.41 30.41 0 013.44 8.08c.75 2.81.69 5.64-.47 7.68s-3.58 3.58-6.57 4.42a38.58 38.58 0 01-9.83 1.22 36 36 0 01-9.8-1c-3-.76-5.35-2.27-6.36-4.31s-.84-5 0-7.77a30.7 30.7 0 013.79-7.92 27.09 27.09 0 012.51-3.33c.24-.24.45-.45.66-.64s.72-.79 1.06-1.19a5 5 0 00.8-1.35 8 8 0 00.47-1.31z"/><path class="cls-8" d="M362.54 429.34a9.7 9.7 0 00-7.65-1.24 19.39 19.39 0 00-7.28 1.93 10 10 0 00-3.47 3 10.16 10.16 0 00-1.73 4.66 13.83 13.83 0 002.71 9.93 11.64 11.64 0 0010.35 4.64c3.68-.4 7.58-1.86 10-5a11.72 11.72 0 002.12-5.08 15.31 15.31 0 00-.05-5.06 11.58 11.58 0 00-5-7.78zm6.76 20.59c-3.07 3.94-8.45 6.06-14 6.64a15.45 15.45 0 01-13.64-6 20.11 20.11 0 01-4.29-13.88 13.49 13.49 0 016.51-10.86 35.21 35.21 0 0111.31-4.16 19.13 19.13 0 015.62.27 15 15 0 015.43 2.54 16.94 16.94 0 016.3 11.42c.57 4.65-.17 10.1-3.24 14.03z"/><path class="cls-8" d="M364.35 437.58a10.24 10.24 0 01-1.78 7.45c-1.59 2-4.42 3.17-7.5 3.49a8.18 8.18 0 01-7.07-3.12 10.91 10.91 0 01-2.38-7.42 7.06 7.06 0 013.33-5.8 19.79 19.79 0 016.25-2.52 8.33 8.33 0 016 1.72 9.21 9.21 0 013.15 6.2z"/><path class="cls-5" d="M281.33 404.26a5.05 5.05 0 015.27 4.87 6.12 6.12 0 01-1.08 4.27 6.6 6.6 0 01-4.37 2 4.66 4.66 0 01-4-1.72 6.54 6.54 0 01-1.45-4.29c-.09-2.98 3.06-4.39 5.63-5.13zm-4.9 41.3c-.1-2.95 3-4.38 5.59-5.09a5 5 0 015.27 4.85 6.09 6.09 0 01-1.08 4.29 6.38 6.38 0 01-4.35 1.93 4.46 4.46 0 01-4-1.72 6.37 6.37 0 01-1.43-4.26zm4.9 35.65a5 5 0 015.27 4.84 6.12 6.12 0 01-1.08 4.27 6.47 6.47 0 01-4.37 2 4.66 4.66 0 01-4-1.72 6.49 6.49 0 01-1.45-4.29c-.09-2.98 3.06-4.39 5.63-5.1z"/><path class="cls-3" d="M527.13 206.1a11.93 11.93 0 00-.61-1.51 24.19 24.19 0 00-1.67-2.94 36 36 0 00-4.42-5.43 38.65 38.65 0 00-5.38-4.61 33.44 33.44 0 00-3.63-2.33 72.9 72.9 0 01-10.62 16.29 97.55 97.55 0 01-7.52 8.08c-2.62 2.57-5.54 4.85-8.29 7.26-11.55 9.14-24.74 15.81-38.35 20.9l-5.14 1.9-2.55 1-2.62.74-10.51 2.91a101.73 101.73 0 01-10.63 2.33l-10.7 2.07c-7.18.82-14.38 1.78-21.58 2.46l-20 .93c-1.54.82-3.07 1.64-4.64 2.38 7.42 9.75 23.34 45.35 3.32 161.55a16.13 16.13 0 016.06 2.44 19.3 19.3 0 018 12.95 25.09 25.09 0 010 8.43 19.64 19.64 0 01-3.5 8.31 19.85 19.85 0 01-7.39 5.78 30 30 0 01-9.11 2.41 18.22 18.22 0 01-9.59-1.62 20.06 20.06 0 01-7.28-5.88 22.93 22.93 0 01-4.61-16.42 16.26 16.26 0 012.73-7.68 16.69 16.69 0 015.66-5 33.78 33.78 0 0112.32-3.6c.42-.08.88-.13 1.33-.21 21.16-122 2.17-153.21-2.94-159.11-3.58 1.58-7.21 3-10.81 4.29 1.72 4.55 3.57 9.53 5.56 14.86 1.06 2.91 2.17 5.9 3.29 9 .55 1.54 1.13 3.12 1.69 4.74.29.79.58 1.62.87 2.44.4 1.24.85 2.49 1.28 3.76l.34 1.14c.05.32.48.92-.16.77h-11.49c-3.69 0-7.47 0-11.31-.05h-2.2s-.06 0 0 .05c.24 1.56.45 3.15.69 4.74.56 3.95 1.14 7.92 1.69 12 .3 2 .56 4.05.85 6 .16 1.29.35 2.62.53 3.92.13.29-.21.39-.34.58l-.56.5-.9.82-1.11 1-8.72 7.84-16.56 14.55c-10.51 9.27-20.1 17.37-28 24l-.66-.72-4.24.06-.56.61c-8-6.63-17.69-14.63-28.28-23.87-5.3-4.63-10.86-9.51-16.67-14.57-2.88-2.57-5.82-5.16-8.79-7.81l-2.94-2.65c-.26-.13-.19-.4-.16-.64l.11-.74.16-1.22.21-1.51c.26-2 .55-4 .85-6 .55-4.05 1.13-8.05 1.69-12 .24-1.67.5-3.34.74-5v-.05h-2.07c-3.84 0-7.63.05-11.31.05h-12.05l.18-.58.35-1.14c.45-1.3.87-2.57 1.3-3.84l.87-2.44c.56-1.62 1.14-3.21 1.67-4.77 1.14-3.12 2.22-6.14 3.28-9.06 1.78-4.79 3.45-9.29 5-13.45-4.05-1.27-8.11-2.76-12.13-4.43-3.37 10.33-13.06 48.5 3.44 105.27l.21-.06c14.94-2.83 28.64 4 39.73 19.68a95.64 95.64 0 0111.95 23.79l-2.3.72c13.82 36.26 19.2 51.49 14.41 60.26a14.06 14.06 0 01-7.1 6c.37 2.76-1.06 4.61-3.95 5.38a4.47 4.47 0 01-5.14-2.7l-7.37.55a5.14 5.14 0 01.88 2.31c.37 2.78-1.06 4.61-3.92 5.37a4.18 4.18 0 01-4.32-1.43 19.12 19.12 0 01-6.81 1.43 12 12 0 01-4.37-.79c-9.35-3.55-15.15-18.67-28.18-55.44L189 434c-.74-1.38-18.59-33.93-9.48-53.4a22.48 22.48 0 0113.27-11.79c-17.3-59.49-6.78-98.45-3.23-108.81-.4-.16-.8-.34-1.19-.53a138.13 138.13 0 00-22.1 13.86 195.71 195.71 0 00-21 18.4 216.52 216.52 0 00-33.59 44.72 247.27 247.27 0 00-21.77 51.65A303.51 303.51 0 0079 442.27a4.12 4.12 0 00.37.42 7 7 0 001.22.95 11.81 11.81 0 003.17 1.46c.35.11.72.21 1.09.29a29 29 0 006.46.8 36.83 36.83 0 007.82-.58 24.75 24.75 0 003.63-1 12.22 12.22 0 002.14-1 244.22 244.22 0 0118-72.87 176.53 176.53 0 0118.59-33.5 136 136 0 0125.43-27.13l.88-.71 2.65-2.25-.16 3.55q-2.06 44.75-2.25 89.58c-.16 29.85.16 59.73 2.57 89.42.66 7.39 1.43 14.78 2.52 22.12a135.84 135.84 0 004.69 21.46 34.28 34.28 0 004.37 9.37 10 10 0 001.51 1.7 7.49 7.49 0 001.85 1.19 35.85 35.85 0 004.74 2.07c6.76 2.33 14.09 3.65 21.35 4.84 29.35 4.35 59.28 5.35 89 5.54 14.88 0 29.8-.29 44.63-1.27 6.44-.45 12.87-1 19.23-1.75 1-.11 1.93-.24 2.89-.37 3.65-.5 7.28-1.11 10.83-1.85s7.15-1.65 10-3.13c.72-.34 1.19-.77 1.83-1.11a6.86 6.86 0 001.06-1.49 21.42 21.42 0 001.77-4.66 84.59 84.59 0 002.15-10.62c1.06-7.28 1.67-14.67 2.12-22.09.85-14.83 1.06-29.77 1-44.68-.13-29.83-1.32-59.68-3.26-89.45-1-14.92-2.09-29.8-3.65-44.61-.8-7.42-1.7-14.81-2.81-22.17-.56-3.66-1.17-7.34-1.91-10.94a69 69 0 00-2.83-10.49l-.9-2.38 2.54-.13c.56 0 1.09-.06 1.64-.11a225.36 225.36 0 0040.61-6.46 204.2 204.2 0 0040.18-14.46 144.71 144.71 0 0035-23.84 115.14 115.14 0 0014-15.82 113 113 0 0010.39-17.32 2.54 2.54 0 00-.02-.69zm-254.57 203a6.65 6.65 0 013.65-5.21 11.69 11.69 0 014.85-1.14 6.4 6.4 0 015.19.71 7.76 7.76 0 013.47 5.22 8.81 8.81 0 01-1.38 7 9.64 9.64 0 01-6.8 3.49 8 8 0 01-7.18-3.23 9.26 9.26 0 01-1.8-6.84zm15.78 83.47a9.53 9.53 0 01-6.8 3.49 7.94 7.94 0 01-7.18-3.23 9.25 9.25 0 01-1.8-6.8 6.65 6.65 0 013.65-5.22 12 12 0 014.85-1.14 6.4 6.4 0 015.19.71 7.85 7.85 0 013.47 5.22 8.81 8.81 0 01-1.38 6.97zm.72-40.71a9.57 9.57 0 01-6.81 3.47 8 8 0 01-7.2-3.21 9.3 9.3 0 01-1.78-6.81 6.7 6.7 0 013.66-5.24 12.08 12.08 0 014.82-1.11 6.53 6.53 0 015.22.69 8 8 0 013.47 5.24 9 9 0 01-1.38 6.97z"/><path class="cls-3" d="M249.39 473.92a3.9 3.9 0 014.34 1.38c2.86-1.3 4.72-2.86 5.8-4.85 4.27-7.76-1.37-23.52-14.62-58.19l-2.73.87c-.13-.45-14.09-43.44-42.62-38-6.46 1.22-10.67 4.08-12.87 8.76-6.14 13.12 4.58 37.78 9.25 46.17l-2 1.14c12.53 35.31 18.46 51.12 26.78 54.28 2.43.92 5.27.79 9-.56 0-.13-.06-.29-.08-.42-.38-2.79 1.45-4.16 4.18-5a3.88 3.88 0 014.5 1.53l7.37-.55-.06-.24a5.27 5.27 0 01-.37-1.33v-.74l-.05-.29a.1.1 0 00.08 0c.07-2.1 1.71-3.24 4.1-3.96z"/><path class="cls-9" d="M272.34 272.14c-6.95-.22-14.25-.64-21.83-1.48a219.73 219.73 0 01-23.48-4c-16-3.69-32.91-9.7-48.48-19.72a111.51 111.51 0 01-21.71-18.06 102.06 102.06 0 01-16.54-24.26 111 111 0 01-9.11-29.16 136.6 136.6 0 01-1.39-31.72 152.16 152.16 0 0117-60 155.51 155.51 0 0136.06-45.48 144.52 144.52 0 0145-26.57 146.88 146.88 0 0122.84-6.27 156.8 156.8 0 0121.64-2.21V0A150.19 150.19 0 00250 1.33a143.16 143.16 0 00-71.28 32 158.2 158.2 0 00-38.34 47 155.93 155.93 0 00-18.11 62.9 141.45 141.45 0 001.55 33.47 116.34 116.34 0 0010 31.08 107.49 107.49 0 0018 25.78 116 116 0 0023.33 18.76c16.6 10.2 34.25 15.95 50.82 19.22a210.87 210.87 0 0024.13 3.25c7.76.55 15.18.66 22.22.54z"/><path class="cls-9" d="M272.34 3.21A156.66 156.66 0 01294 5.42a146.88 146.88 0 0122.83 6.23 144.52 144.52 0 0145 26.57 155.35 155.35 0 0136.05 45.48 152 152 0 0117 60 136 136 0 01-1.39 31.72 111 111 0 01-9.11 29.16 102.06 102.06 0 01-16.54 24.26 111.51 111.51 0 01-21.71 18.06c-15.57 10-32.45 16-48.48 19.72a220 220 0 01-23.47 4c-7.59.84-14.89 1.26-21.83 1.48v3.19c7 .12 14.46 0 22.21-.54a210.87 210.87 0 0024.13-3.25c16.57-3.27 34.22-9 50.82-19.22a116 116 0 0023.33-18.76 107.21 107.21 0 0018-25.78 116.34 116.34 0 0010-31.08 141.45 141.45 0 001.55-33.47 155.93 155.93 0 00-18.11-62.9 158 158 0 00-38.34-47 143.07 143.07 0 00-71.28-32A150.14 150.14 0 00272.34 0z"/><path class="cls-10" d="M131.34 107.26a29.63 29.63 0 00-12.34-2.81 20.35 20.35 0 00-12.14 3.38 15.83 15.83 0 00-6.33 10.52 17.77 17.77 0 001.76 11.2 20.77 20.77 0 006.61 7.45 23.84 23.84 0 007.4 3.52 22.72 22.72 0 005.94.82 18.66 18.66 0 004.19-.46c1.37-.28 1.5-.5 1.6-.67l.15-.25-1-3.68c-.21-.71-1.12-.51-1.81-.37a16.07 16.07 0 01-7.8-.15c-2.32-.6-8.08-2.61-11.33-8.3a13.74 13.74 0 01-1.69-8.52 12.22 12.22 0 014.41-8.33 18 18 0 0110.16-3.43 28.33 28.33 0 0111.53 1.74c1 .41 1.94.78 2.27 0s-.6-1.16-1.58-1.66z"/><path class="cls-9" d="M107.46 117.76c.1.07.28 0 .46-.17a15.49 15.49 0 0110.79-4.42c4.87.12 9 2.29 11.56 3.51.23.1.43.1.5 0s0-.28-.21-.44a19 19 0 00-11.83-4.95 13.28 13.28 0 00-7.23 2 12.48 12.48 0 00-4 4c-.13.2-.15.41-.04.47z"/><path class="cls-9" d="M115.76 112.39a.29.29 0 00-.38-.08 6.43 6.43 0 00-2.84 2.4 9 9 0 00-1.47 4.71 13.13 13.13 0 002.48 7.94.29.29 0 00.34.14.32.32 0 00.14-.36c-.33-1.83-1.21-4.61-1.08-7.65a10.11 10.11 0 012.72-6.74.32.32 0 00.09-.36z"/><path class="cls-10" d="M440.9 103.3a15.9 15.9 0 00-6.9-10.17 20.56 20.56 0 00-12.31-2.69 29.58 29.58 0 00-12.16 3.5c-.93.53-1.81 1-1.44 1.75s1.29.29 2.24-.16a28.43 28.43 0 0111.24-2.38h.27A18 18 0 01432.09 96a12.18 12.18 0 014.88 8.08 13.72 13.72 0 01-1.22 8.59c-2.93 5.87-8.57 8.19-10.84 8.92a16.18 16.18 0 01-7.82.57c-.7-.1-1.58-.23-1.76.49l-.81 3.72.16.24c.12.17.25.37 1.61.57a18.08 18.08 0 003.12.26 22.11 22.11 0 007-1.17 24.14 24.14 0 007.2-3.92 20.92 20.92 0 006.15-7.78 17.78 17.78 0 001.14-11.27z"/><path class="cls-9" d="M434 103.09c.1-.07.07-.28-.07-.5a12.53 12.53 0 00-4.21-3.75 13.27 13.27 0 00-7.34-1.59 19 19 0 00-11.53 5.59c-.19.18-.26.36-.19.46s.28.08.5 0c2.51-1.36 6.49-3.75 11.35-4.15a15.5 15.5 0 0111 3.82c.19.13.37.19.49.12z"/><path class="cls-9" d="M425.39 98.18a.34.34 0 00.11.36 10.1 10.1 0 013.09 6.58c.3 3-.43 5.85-.65 7.7a.32.32 0 00.16.35.29.29 0 00.33-.17 13.12 13.12 0 002-8.06 8.87 8.87 0 00-1.73-4.62 6.45 6.45 0 00-3-2.24.29.29 0 00-.31.1zm-234.33 10.97a33.66 33.66 0 018.87 1.59 30.55 30.55 0 018.57 4.65 29.42 29.42 0 0111 18c1.41 7.45-.23 16-5.69 22.15s-14.07 9.62-22.91 9.57-17.6-3.33-23.27-9.25a20.62 20.62 0 01-5.36-10.39c-.73-3.78-.05-7.7.82-11.51 1.77-7.52 5.44-14.19 10.64-18.52s11.59-6.08 17.32-6.29v-1.6a33.87 33.87 0 00-9.49 1.17 27.51 27.51 0 00-9.39 4.78c-5.89 4.52-10.09 11.7-12.16 19.68a46.92 46.92 0 00-1.22 6.18 23.2 23.2 0 006.21 19c6.48 6.88 16.13 10.43 25.88 10.54s19.58-3.73 25.65-11a28.07 28.07 0 006.05-12.19 31.21 31.21 0 000-12.91 31.8 31.8 0 00-22.07-24 34.26 34.26 0 00-9.49-1.22zM357 104.1c5.8.24 12.56 1.15 17.94 5.33s8.47 11.25 9.7 19a28.28 28.28 0 01-28.55 33c-9-.18-17.66-3.87-22.89-10.36-5.4-6.38-6.75-15.09-5.26-22.59a30 30 0 0111.37-18.11 31.68 31.68 0 018.71-4.65 34.94 34.94 0 019-1.59v-1.6a35.32 35.32 0 00-9.59 1.21 33.21 33.21 0 00-9.57 4.62 32.37 32.37 0 00-13.21 32.51 28 28 0 005.78 12.47A30.51 30.51 0 00341.7 162a37.55 37.55 0 0014.3 3.15 31.57 31.57 0 0025.52-11.93 30.83 30.83 0 006-12.31 31.78 31.78 0 00.24-13 41.83 41.83 0 00-3.83-11.58 24.85 24.85 0 00-7.51-8.85 25.39 25.39 0 00-9.84-4.17 45.1 45.1 0 00-9.58-.76z"/><path class="cls-9" d="M200 138.35a11 11 0 01-6.28-20.06 18.85 18.85 0 00-2.73-.22 18.58 18.58 0 1018.57 18.58 17.83 17.83 0 00-.32-3.37 11 11 0 01-9.24 5.07zm167.49-2.67a11.26 11.26 0 01-6.42-20.52 18.34 18.34 0 00-2.8-.23 19 19 0 1019 19 18.68 18.68 0 00-.33-3.45 11.27 11.27 0 01-9.45 5.2z"/><path class="cls-10" d="M420 90.84a21 21 0 00-2.91-7 9.07 9.07 0 00-3.17-3 7.37 7.37 0 00-4.77-.85 14.08 14.08 0 00-6.95 3.56 36 36 0 00-4.39 4.62A69.91 69.91 0 00390.85 99l-1.2-.67a46.54 46.54 0 00-7.32-2.92 112.5 112.5 0 00-16.06-3.72 159.12 159.12 0 00-17.6-1.89 123.94 123.94 0 00-19 .31 61.69 61.69 0 00-10.06 1.82 27.82 27.82 0 00-5.19 2 14.64 14.64 0 00-5.08 4c-.35.53-.7 1.06-1 1.61s-.43 1-.63 1.49a23 23 0 00-.84 2.91c-.17.86-.3 1.71-.42 2.55-23.89-17.89-54.45-4.91-66.06 1.23-.13-1.25-.29-2.5-.55-3.78a23 23 0 00-.84-2.91c-.2-.5-.38-1-.62-1.49s-.67-1.08-1-1.61a14.64 14.64 0 00-5.08-4 27.82 27.82 0 00-5.19-2A61.5 61.5 0 00217 90.06a123.92 123.92 0 00-19-.31 159.12 159.12 0 00-17.6 1.89 112.5 112.5 0 00-16.06 3.72 46.54 46.54 0 00-7.34 2.92 26.64 26.64 0 00-3.37 2.08 49.78 49.78 0 00-11.54-7.81 26.21 26.21 0 00-6.34-2.09 13.61 13.61 0 00-7.91.75 11.79 11.79 0 00-5.84 5.87 22.36 22.36 0 00-2.06 7.34c-.2 1.49.46 1.89.87 2s1.2.07 1.73-1.38c1.66-4.93 4.3-8.27 7.07-9 3.26-.84 6.75.82 9.41 2.36a55.67 55.67 0 0110.08 8l.56.55a64.56 64.56 0 00-1.93 9.89 138.73 138.73 0 00-1 14.3 142 142 0 002.8 31.86 48.9 48.9 0 002.67 8.62 23.07 23.07 0 002.43 4.41 12.49 12.49 0 002.05 2.16 13.14 13.14 0 002.43 1.52 30.09 30.09 0 009.66 2.68 76.49 76.49 0 009.55.66c12.76.14 25.72-1.35 39.29-3.41a9.7 9.7 0 004.87-2.8 23.81 23.81 0 003.05-4.06 63.56 63.56 0 004.65-9.59 154 154 0 006.58-21.5 154.1 154.1 0 003.53-21.48c.18-2.24.27-4.48.29-6.73 8.54-4.91 41.86-21.69 65.52-.57 0 2.44.08 4.87.28 7.3a155.59 155.59 0 003.53 21.48 154 154 0 006.58 21.5 63.56 63.56 0 004.65 9.59 23.35 23.35 0 003.06 4.06 9.63 9.63 0 004.86 2.8c13.58 2.06 26.53 3.55 39.3 3.41a76.46 76.46 0 009.54-.66 30.09 30.09 0 009.66-2.68 13.55 13.55 0 002.44-1.52 12.81 12.81 0 002-2.16 23.07 23.07 0 002.43-4.41 48.9 48.9 0 002.67-8.62 142 142 0 002.76-31.83 138.73 138.73 0 00-1-14.3 54.48 54.48 0 00-2.67-12 2.13 2.13 0 00.4-.63l.35-.76a90.83 90.83 0 016.15-11.42 32.94 32.94 0 013.18-4.19 9.27 9.27 0 013.87-2.86c1.17-.4 2.51.09 3.72 1.35a19.76 19.76 0 013.54 5.35c.68 1.33 1.45 1.27 1.86 1.13s1.09-.57.74-2zm-186.89 28.74a154.42 154.42 0 01-3.58 20.42 155.87 155.87 0 01-6.32 20.43 58.53 58.53 0 01-4.06 8.45 16.5 16.5 0 01-2 2.76c-.64.67-.89.65-.79.69-13.09 2.07-26 3.7-38 3.78a73 73 0 01-8.74-.43 24.19 24.19 0 01-7.55-1.81 7.5 7.5 0 01-1.32-.73 6.45 6.45 0 01-1-1 17 17 0 01-1.8-3.1 45.3 45.3 0 01-2.55-7.47 147.53 147.53 0 01-3.86-30.43c-.13-4.81-.12-9.46.18-13.88a50 50 0 012-12.08l1.73-1.69a1.09 1.09 0 00.16-.31 17 17 0 013-1.6 44.65 44.65 0 016.9-2.28 116.52 116.52 0 0115.6-2.75 167.09 167.09 0 0117.1-1.11 126.94 126.94 0 0118.06.89 58.06 58.06 0 018.92 1.85c2.78.84 5.59 2.22 6.68 3.71a3.36 3.36 0 00.32.51l.32.83a16.39 16.39 0 01.52 2 30.7 30.7 0 01.47 4.53 71.32 71.32 0 01-.39 9.82zm162 11.59a148.18 148.18 0 01-3.85 30.43 45.32 45.32 0 01-2.56 7.47 17 17 0 01-1.8 3.1 6.45 6.45 0 01-1 1 7.5 7.5 0 01-1.32.73 24.12 24.12 0 01-7.54 1.81 73.26 73.26 0 01-8.75.43c-12-.08-24.88-1.71-38-3.78.1 0-.15 0-.79-.69a17.08 17.08 0 01-2-2.76 58.53 58.53 0 01-4.06-8.45 155.87 155.87 0 01-6.3-20.46 156.07 156.07 0 01-3.58-20.43 71.32 71.32 0 01-.38-9.83 30.7 30.7 0 01.47-4.53 16.39 16.39 0 01.52-2l.32-.83a3.36 3.36 0 00.32-.51c1.09-1.49 3.91-2.87 6.69-3.71a57.69 57.69 0 018.91-1.85 126.94 126.94 0 0118.06-.89 167.29 167.29 0 0117.11 1.11 116.65 116.65 0 0115.59 2.75 44.65 44.65 0 016.9 2.28c.51.21 3.86 2.29 3.86 2.29a4.62 4.62 0 011 1.11 49.33 49.33 0 012 12.28c.29 4.47.3 9.12.17 13.93z"/><path class="cls-9" d="M261 139.27c-.1-.18-1.1.14-2.24 1a38.74 38.74 0 00-9.13 10.92 36.59 36.59 0 00-5.28 16.67 19.83 19.83 0 002.12 9.93 19.18 19.18 0 007.71 7.57c6.51 3.55 14.08 4.32 21.52 4.3a60.19 60.19 0 0011.09-1 30.43 30.43 0 0010.42-3.66 16.71 16.71 0 007.17-8.17 19.64 19.64 0 001-10.11 42 42 0 00-6.52-16.19 45.49 45.49 0 00-9.26-10.78c-1.15-.9-2.16-1.23-2.27-1s.58.87 1.58 1.82a49.77 49.77 0 018.09 11.1 42.19 42.19 0 015.39 15.44 17 17 0 01-1.11 8.45 13.54 13.54 0 01-5.92 6.4 27.86 27.86 0 01-9.24 3.11 60.36 60.36 0 01-10.44.88c-7.11 0-14.18-.72-19.77-3.68a15.91 15.91 0 01-6.5-6 16.93 16.93 0 01-2-8.29c0-5.75 1.94-11.15 4.17-15.68a41 41 0 017.91-11.14c.99-1.01 1.7-1.65 1.51-1.89z"/><path class="cls-10" d="M266.2 233.27c-7.37 0-14.78-.3-22.16-.94-38.92-3.33-69.43-15.51-83.71-33.33l2.07-1.66c13.83 17.31 43.67 29.12 81.87 32.4 54.21 4.69 110.48-8.41 136.85-31.79l1.76 2c-23.26 20.55-69.17 33.32-116.68 33.32z"/><path class="cls-10" d="M160.51 207a1.28 1.28 0 01-1.16-.74c-.21-.43-1.83-4.45 4.54-12.9A1.32 1.32 0 11166 195c-5.33 7.08-4.25 10.19-4.24 10.22a1.35 1.35 0 01-.71 1.71 1.29 1.29 0 01-.54.07zm222.59-.42a1.28 1.28 0 01-.63-.16 1.32 1.32 0 01-.56-1.75c.06-.15 1.12-3.19-3.82-10.37a1.33 1.33 0 012.19-1.5c6 8.75 4.21 12.67 4 13.09a1.33 1.33 0 01-1.18.69zm-193.31 52.14a135.76 135.76 0 00-23.56 14.56 192.67 192.67 0 00-21 18.42 217 217 0 00-33.61 44.69A248.87 248.87 0 0089.83 388a306.36 306.36 0 00-10.91 55.13l-.17-1.26c-.09-.19.11.17.2.27a6.88 6.88 0 00.46.52 7.59 7.59 0 001.23 1 12.21 12.21 0 003.16 1.45 27.29 27.29 0 007.56 1.09 36.64 36.64 0 007.8-.59 23.82 23.82 0 003.64-1 12.68 12.68 0 002.92-1.49l-.9 1.87a235.15 235.15 0 016.18-37.9 231.69 231.69 0 0112-36.37 176.12 176.12 0 0118.57-33.49 135.71 135.71 0 0126.3-27.85l2.66-2.25-.17 3.54q-2.07 44.75-2.24 89.58c-.17 29.85.17 59.75 2.58 89.42.64 7.41 1.42 14.8 2.5 22.13a138.09 138.09 0 004.68 21.46 34.14 34.14 0 004.38 9.37 12.07 12.07 0 001.5 1.71 7.75 7.75 0 001.86 1.18 33.52 33.52 0 004.74 2.06c6.76 2.33 14.1 3.67 21.37 4.86 29.32 4.35 59.25 5.35 89 5.52 14.9 0 29.8-.27 44.63-1.26 7.41-.5 14.81-1.12 22.12-2.13 3.66-.5 7.28-1.1 10.85-1.84s7.13-1.66 10-3.13c.72-.34 1.19-.77 1.83-1.12a6.61 6.61 0 001.06-1.48 23.55 23.55 0 001.78-4.66 88.08 88.08 0 002.14-10.63c1.06-7.27 1.65-14.68 2.1-22.09.87-14.84 1.07-29.76 1-44.67-.12-29.83-1.31-59.68-3.25-89.47-.94-14.89-2.11-29.77-3.67-44.6-.78-7.41-1.68-14.81-2.79-22.16-.55-3.67-1.17-7.33-1.91-10.94a67.53 67.53 0 00-2.83-10.49l-.89-2.39 2.53-.14a224.78 224.78 0 0042.25-6.56 204.14 204.14 0 0040.19-14.47 143.7 143.7 0 0035-23.84 114.32 114.32 0 0014-15.8 116.7 116.7 0 0010.8-18.11l-.24 1.48a10.09 10.09 0 00-.37-1.27 13.73 13.73 0 00-.62-1.51 24 24 0 00-1.66-3 35.54 35.54 0 00-4.43-5.43 40.58 40.58 0 00-5.36-4.62 32.38 32.38 0 00-5.93-3.45l3.47-1.63a70.08 70.08 0 01-11.8 19.05 101 101 0 01-7.52 8.09c-2.64 2.57-5.54 4.83-8.3 7.25-11.54 9.14-24.75 15.81-38.36 20.9l-5.12 1.9-2.56.95-2.63.74-10.5 2.92a104.94 104.94 0 01-10.63 2.33l-10.69 2.07c-7.19.82-14.38 1.76-21.58 2.45l-21.68 1-.07-5.3 21.33-1c7.08-.68 14.13-1.6 21.19-2.41l10.45-2a104.27 104.27 0 0010.38-2.27l10.24-2.85 2.55-.72 2.48-.92 5-1.84c13.2-4.94 25.94-11.39 36.95-20.11 2.63-2.31 5.4-4.47 7.9-6.91a93.69 93.69 0 007.13-7.66 65.88 65.88 0 0010.85-17.34l1.06-2.65 2.4 1a36.8 36.8 0 017.11 4.09 45.54 45.54 0 016.05 5.21 41.06 41.06 0 015.08 6.24 29.44 29.44 0 012 3.61c.3.64.57 1.3.82 2a13 13 0 01.62 2.36l.14.78-.37.7A122.61 122.61 0 01521 227.08a119.48 119.48 0 01-14.79 16.34 148.68 148.68 0 01-36.42 24.3 209 209 0 01-41.17 14.39 229 229 0 01-43.13 6.26l1.64-2.52a70.29 70.29 0 013.2 11.15c.8 3.7 1.47 7.41 2.08 11.12 1.22 7.42 2.21 14.86 3.09 22.3 1.75 14.89 3.1 29.81 4.23 44.75q3.19 44.81 3.64 89.77c.08 15-.06 30-.89 45-.42 7.5-1 15-2.06 22.55a92 92 0 01-2.25 11.34 28.2 28.2 0 01-2.21 5.79 11.54 11.54 0 01-2.28 3 26.13 26.13 0 01-2.9 1.86c-3.83 1.94-7.56 2.7-11.32 3.65-3.76.79-7.51 1.42-11.26 2-7.5 1.06-15 1.71-22.5 2.24-15 1.06-30 1.4-45 1.45s-30-.51-45-1.39-29.95-2.26-44.87-4.62c-7.45-1.28-14.9-2.65-22.28-5.23a39.56 39.56 0 01-5.51-2.43 12.82 12.82 0 01-2.81-1.89 16.85 16.85 0 01-2.19-2.49 38.86 38.86 0 01-5.04-10.94 142.66 142.66 0 01-4.75-22.33c-1.07-7.47-1.82-15-2.42-22.45-4.18-59.94-1.92-119.83 1.45-179.57l2.49 1.29a132.12 132.12 0 00-25.25 27.53 172.65 172.65 0 00-17.68 33 227.55 227.55 0 00-11.21 35.83 232.18 232.18 0 00-5.47 37l-.06 1.16-.83.71v.05a16.37 16.37 0 01-4.5 2.42 29.22 29.22 0 01-4.47 1.25 41.73 41.73 0 01-9 .7 32.58 32.58 0 01-9-1.34 18.21 18.21 0 01-4.45-2.06 12.63 12.63 0 01-2.06-1.65 10.62 10.62 0 01-.94-1.05 7.41 7.41 0 01-.91-1.52l-.25-.56.08-.7a311.93 311.93 0 0111.09-56.09A253.78 253.78 0 01107 333.78 222.24 222.24 0 01141.42 288a196.83 196.83 0 0121.63-19 140 140 0 0124.66-15.19z"/><path class="cls-10" d="M333 267.43v-.13l-1.67-.94c-.3-.17-.37-.13-1.33 1.58-2.76 4.88-27.69 49-52.87 94.84-1.23 2.25-1.19 2.27-.87 2.45a.4.4 0 00.19.07c.21 0 .46-.37 1.46-2.08 25.56-43.66 49.72-86 54.3-94 .79-1.57.79-1.65.79-1.79z"/><path class="cls-9" d="M277.88 377.85c7.93-6.65 17.51-14.73 28-24l16.53-14.63 8.73-7.82 1.11-1 .9-.81.54-.51c.15-.18.48-.29.35-.58-.18-1.3-.36-2.6-.54-3.92-.27-2-.55-4-.82-6q-.87-6.07-1.7-12c-.23-1.6-.47-3.18-.7-4.75v-.05h2.21l11.29.05h11.51c.63.17.21-.44.15-.77l-.35-1.14c-.42-1.27-.85-2.52-1.27-3.76-.29-.82-.58-1.63-.86-2.44q-.86-2.4-1.69-4.74L348 280c-2.16-5.78-4.17-11.14-6-16l-.78.26c1.42 5 3 10.48 4.69 16.42q1.31 4.44 2.72 9.21.72 2.37 1.46 4.82c.25.82.51 1.64.76 2.46l.19.62a4.06 4.06 0 00.13.41.48.48 0 01.08.18c.09.18-.07.14-.21.12l-1.74-.07-5.46-.18-11.28-.34-3.57-.09-2.87-.05c-.73-.23-.29.57-.32 1l.19 1.43q.46 3.45.93 7 .81 5.89 1.64 12c.28 2 .57 4 .85 6 .12.84.35 2.49.3 2.05s0-.05-.22.19l-1.1 1-8.59 8-16.1 15.11c-10.22 9.61-19.15 18.4-26.51 25.67zM207.51 264l-6 16c-1.05 2.91-2.15 5.94-3.27 9.06q-.84 2.34-1.69 4.76c-.29.81-.57 1.62-.86 2.44l-1.3 3.84-.35 1.15-.18.57a5.66 5.66 0 00.59 0h11.44l11.32-.06h2.07v.05c-.24 1.64-.49 3.29-.73 5q-.84 5.91-1.71 12l-.84 6-.2 1.5-.17 1.21-.1.75c0 .25-.12.51.15.65l2.94 2.64 8.8 7.8 16.67 14.57c10.6 9.25 20.28 17.26 28.28 23.87l.56-.61c-7.41-7.27-16.39-16.07-26.69-25.65l-16.22-15.06-8.68-7.94c-.62-.57-1.84-1.68-1.52-1.37s0 .06.05-.29l.21-1.5q.42-3 .85-6.05.82-6.09 1.63-12c.3-2.28.6-4.55.9-6.79a17.8 17.8 0 00.28-2.76h-2.88l-3.73.1-11.32.34-5.47.18-1.84.07c-.13 0-.33.07-.24-.1a1.07 1.07 0 01.07-.19 2.69 2.69 0 00.11-.33l.2-.63c.25-.82.51-1.65.76-2.46l1.47-4.84q1.42-4.77 2.75-9.23l4.75-16.45z"/><path class="cls-10" d="M272.62 362.78c-23.61-42.9-46.48-83.44-52.93-94.84-.95-1.69-1-1.76-1.34-1.58l-1.54.88c-.29.19-.29.25.68 2 4.56 8 28.65 50.16 54.35 94 1 1.71 1.25 2.08 1.46 2.08a.4.4 0 00.19-.07c.32-.2.36-.25-.87-2.47z"/><path class="cls-9" d="M281.32 404.33a5 5 0 015.27 4.85 6 6 0 01-1.09 4.28 6.41 6.41 0 01-4.34 2 4.59 4.59 0 01-4-1.72 6.47 6.47 0 01-1.46-4.28c-.11-3 3-4.36 5.6-5.08l-.27-1.58a12.3 12.3 0 00-4.82 1.14 6.66 6.66 0 00-3.67 5.23 9.35 9.35 0 001.79 6.8 8 8 0 007.2 3.22 9.58 9.58 0 006.81-3.48 8.92 8.92 0 001.36-7 7.83 7.83 0 00-3.47-5.23 6.58 6.58 0 00-5.2-.71zm.68 36.2a5 5 0 015.27 4.85 6.06 6.06 0 01-1.08 4.28 6.45 6.45 0 01-4.35 1.95 4.58 4.58 0 01-4-1.72 6.42 6.42 0 01-1.46-4.28c-.11-2.95 3-4.36 5.59-5.08l-.26-1.57a12.14 12.14 0 00-4.83 1.13 6.65 6.65 0 00-3.66 5.23 9.31 9.31 0 001.79 6.8 8 8 0 007.19 3.22 9.62 9.62 0 006.82-3.48 8.92 8.92 0 001.36-7 7.92 7.92 0 00-3.47-5.23 6.53 6.53 0 00-5.2-.7zm73.14-18.8a18.78 18.78 0 015.62.26 14.65 14.65 0 015.43 2.54 17 17 0 016.31 11.41c.61 4.68-.13 10.11-3.2 14s-8.44 6.09-14 6.66a15.47 15.47 0 01-13.66-6 20.12 20.12 0 01-4.28-13.89 13.33 13.33 0 016.51-10.85 35.09 35.09 0 0111.3-4.16l-.26-1.57a34.2 34.2 0 00-12.32 3.59 16.53 16.53 0 00-5.66 5 16.33 16.33 0 00-2.73 7.67 23 23 0 004.61 16.41 20 20 0 007.28 5.88 18.06 18.06 0 009.6 1.62 29 29 0 009.11-2.41 19.45 19.45 0 007.38-5.78 19.08 19.08 0 003.49-8.31 25.31 25.31 0 000-8.42 19.36 19.36 0 00-8-12.94 16.46 16.46 0 00-6.48-2.55 19.38 19.38 0 00-6.26.21z"/><path class="cls-9" d="M355.14 429.73a8.3 8.3 0 016 1.7 9.25 9.25 0 013.25 6.2 10.34 10.34 0 01-1.77 7.46c-1.6 2-4.44 3.16-7.51 3.48a8.13 8.13 0 01-7.13-3.11 11 11 0 01-2.38-7.41 7.12 7.12 0 013.33-5.82 20.27 20.27 0 016.25-2.5l-.26-1.57a19.3 19.3 0 00-7.27 1.93 9.93 9.93 0 00-3.48 3 10 10 0 00-1.73 4.66 13.82 13.82 0 002.71 9.94 11.58 11.58 0 0010.35 4.62c3.68-.38 7.58-1.86 10-5a11.67 11.67 0 002.11-5.1 15.26 15.26 0 00-.05-5.05 11.62 11.62 0 00-4.95-7.74 9.76 9.76 0 00-7.66-1.24zm-73.82 51.53a5 5 0 015.27 4.85 6 6 0 01-1.09 4.28 6.4 6.4 0 01-4.34 1.94 4.56 4.56 0 01-4-1.71 6.47 6.47 0 01-1.46-4.28c-.11-2.95 3-4.36 5.6-5.08l-.27-1.58a12.13 12.13 0 00-4.82 1.14 6.64 6.64 0 00-3.67 5.23 9.35 9.35 0 001.79 6.8 8 8 0 007.2 3.22 9.58 9.58 0 006.81-3.48 8.94 8.94 0 001.36-7 7.81 7.81 0 00-3.47-5.22 6.54 6.54 0 00-5.2-.71z"/><path class="cls-10" d="M193.55 371.45c-21.18-70.12-3.76-112.44-3-114.21l4.88 2.08c-.18.41-17.38 42.47 3.2 110.6z"/><path class="cls-9" d="M239.13 483.39c.37 2.77-1.06 4.61-3.93 5.38s-5.27-1.48-5.63-4.25 1.46-4.14 4.19-5 5 1.11 5.37 3.87zm15.62-5.55c.37 2.77-1.06 4.61-3.92 5.37s-5.27-1.47-5.64-4.24 1.46-4.15 4.19-5 5.01 1.11 5.37 3.87z"/><path class="cls-10" d="M189 434c-.77-1.38-18.62-33.92-9.49-53.38 3.31-7.08 9.57-11.53 18.58-13.23 14.94-2.84 28.65 4 39.73 19.68a95.72 95.72 0 0112 23.78l-7.58 2.38c-.14-.43-14.08-43.42-42.63-38-6.45 1.23-10.66 4.1-12.86 8.79-6.15 13.11 4.58 37.76 9.24 46.16z"/><path class="cls-10" d="M224.08 488.77a12.18 12.18 0 01-4.36-.79c-9.5-3.61-15.31-19.11-28.71-57l2.5-.89c12.77 36.1 18.78 52.19 27.15 55.37 3.77 1.44 8.5.33 15.79-3.7l1.28 2.32c-5.73 3.2-10 4.69-13.65 4.69zm21.55-8.25l-.52-2.6c8.16-1.66 12.47-3.88 14.42-7.41 4.31-7.85-1.54-24-15.21-59.76l2.47-.95c14.33 37.51 20 53.08 15.06 62-2.39 4.33-7.09 6.86-16.22 8.72zm115.72-59.13l-5.22-.91c24.23-139.42-3.76-160.63-4-160.83l2.87-4.45c1.25.8 31.47 21.64 6.35 166.19z"/><path class="cls-9" d="M81.9 448a95.71 95.71 0 011.6 14.76 23.37 23.37 0 01-.9 7.61 3.51 3.51 0 01-.34.7c-.12.22-.22.47-.37.54s-.13.19-.45.48a12.88 12.88 0 00-1 .9 30 30 0 00-3.25 3.83 35.15 35.15 0 00-4.83 9.18c-1.1 3.39-1.85 7.64 0 11.86s6.2 6.61 9.94 7.58a40.47 40.47 0 0011.5 1.26 42.14 42.14 0 0011.45-1.53 20.11 20.11 0 005.55-2.55 13 13 0 004.39-4.81c2.1-4 1.71-8.41.7-11.84a35 35 0 00-4.42-9.36 44.47 44.47 0 00-2.92-3.93 23.1 23.1 0 00-3.55-3.58l-.38-.24-.19-.12-.1-.06c-.07.12.13-.29-.17.27.25-.53.09-.26.11-.36 0 .06-.19-.16-.32-.33a7 7 0 01-.79-1.44 26 26 0 01-1.21-3.68 113.11 113.11 0 01-2.5-14.68l-2.56.12A91 91 0 0098 464a30.18 30.18 0 001.1 4.38c.11.37.32.78.48 1.17a5.93 5.93 0 00.66 1.22 4.75 4.75 0 001.1 1.3c.26.22.53.43.8.62a1 1 0 00.16.13 19.61 19.61 0 012.56 2.9 41.69 41.69 0 012.4 3.6 31.16 31.16 0 013.44 8.07c.73 2.8.69 5.64-.48 7.7s-3.59 3.57-6.58 4.41a38.43 38.43 0 01-9.81 1.22 36.92 36.92 0 01-9.82-1c-3-.76-5.34-2.28-6.34-4.33s-.87-5-.05-7.74a31.38 31.38 0 013.79-7.92 27 27 0 012.54-3.33c.22-.25.44-.47.64-.66s.74-.79 1.06-1.19a4.84 4.84 0 00.79-1.34 7.29 7.29 0 00.54-1.33 25.73 25.73 0 00.55-9.31 78.43 78.43 0 00-3.11-15.18z"/><path class="cls-10" d="M131.72 506.25a31.63 31.63 0 00-5.55-10.86 21.12 21.12 0 00-11.42-7.39c-.37-.11-1.33-.41-1.61.32s.64 1.18 1 1.36a20.08 20.08 0 019.22 7.72 30.31 30.31 0 014.05 10 51.74 51.74 0 011.16 13c0 .28 0 1.14.71 1.23l3.8.25.22-.2c.08-.07.34-.29.35-1.13a48.69 48.69 0 00-1.93-14.3zM75.14 490c-.31-.72-1.26-.39-1.68-.25a31.42 31.42 0 00-13 7.49 32.12 32.12 0 00-7.53 11.34 39.38 39.38 0 00-2.69 16 1.74 1.74 0 00.38 1.22l.24.19 3.77-.41c.75-.06.7-1 .67-1.43a38.5 38.5 0 011.8-14.05 30.51 30.51 0 015.85-10.47 31.57 31.57 0 0111.2-8.21c.39-.24 1.3-.7.99-1.42z"/><path class="cls-10" d="M125.34 519.5l-2.26-9a29 29 0 00-3-7.59 10.76 10.76 0 00-8-5.3c-1-.14-1.23.3-1.31.57s-.09.78.88 1.16a8.79 8.79 0 015.37 5.14 29.82 29.82 0 011.69 6.72l.06.33c.69 4.51 1.35 8 1.64 9.19a1.16 1.16 0 00.47.8l.27.14 3.71-.92c.34-.12.67-.5.48-1.24zm-46.98-19.69c-.11-.34-.42-.7-1.39-.51a22.19 22.19 0 00-9.61 4 17.59 17.59 0 00-5.7 7.87 29.58 29.58 0 00-1.57 10.28v.77a1.22 1.22 0 00.31.93l.23.2 3.79-.17c.13 0 .78-.09.74-1.11v-.8a29.53 29.53 0 01.75-8.75 14.61 14.61 0 013.73-6.63 23 23 0 017.84-4.89c.91-.38.98-.86.88-1.19z"/><path class="cls-9" d="M96 522.79c12-.27 25.28-.49 39.33.81a54.87 54.87 0 0110.19 1.84c1.66.66 2 .79 2.76 2.17a21.69 21.69 0 011.67 4.66c1.65 7 2 14.92 2.12 22.89a220.4 220.4 0 01-1.27 24.64c-.46 4.17-1.06 8.37-1.92 12.47a53.71 53.71 0 01-1.57 6 20.38 20.38 0 01-1.05 2.6c-.37.68-.83 1.34-.78 1.17a12.65 12.65 0 01-2.14.7c-1 .27-2 .51-3.09.74-2.12.45-4.3.86-6.5 1.24-4.41.75-8.9 1.41-13.44 2-9.08 1.19-18.35 2.18-27.74 2.92s-18.68 1.23-27.73 1.15a94.54 94.54 0 01-13.14-.88 18.54 18.54 0 01-5.31-1.45c-.63-.1-1.68-1.81-2.46-3.54A63.53 63.53 0 0140.34 593c-.9-4.15-1.58-8.35-2.14-12.51a215.48 215.48 0 01-1.87-24.59c-.06-4 0-7.93.31-11.74s.82-7.66 2-10.42c.35-.65.51-1.06.9-1.28a1.64 1.64 0 00.25-.21l.5-.25a7.88 7.88 0 011-.49 38.5 38.5 0 015-1.61c3.47-.92 7-1.64 10.5-2.25 14-2.46 27.21-3.78 39.13-4.82l-.17-3.19A373.47 373.47 0 0056 522.72c-3.6.5-7.26 1.11-11 2a44.36 44.36 0 00-5.76 1.66 15 15 0 00-1.54.67l-.78.38-.9.62a6.3 6.3 0 00-1.55 1.54 11.29 11.29 0 00-1 1.66c-1.95 4.29-2.39 8.27-2.89 12.37s-.6 8.18-.63 12.33a210.17 210.17 0 001.42 25.42c.5 4.32 1.15 8.69 2 13.1a69.06 69.06 0 003.88 13.43 23 23 0 001.89 3.52 14.19 14.19 0 001.44 1.83 13.36 13.36 0 002.18 1.62 24.57 24.57 0 007.66 2.33 101.37 101.37 0 0014.23 1.08c9.42.13 18.88-.36 28.42-1.1s18.92-1.79 28.14-3.05c4.61-.63 9.18-1.33 13.72-2.15 2.27-.4 4.53-.85 6.81-1.36 1.13-.26 2.28-.53 3.45-.86a14 14 0 004.1-1.65c.42-.33.89-.65 1.28-1l.85-1.06a15.25 15.25 0 001.16-1.94 28.36 28.36 0 001.41-3.57 60.32 60.32 0 001.7-6.8c.87-4.46 1.42-8.85 1.83-13.19a216.76 216.76 0 00.8-25.44c-.29-8.28-.83-16.33-2.93-24.26a26.34 26.34 0 00-2.4-6c-.35-.52-.68-1-1.06-1.52a12 12 0 00-1.53-1.42 11.18 11.18 0 00-1.74-1l-1.59-.59a57 57 0 00-11.41-1.7c-14.59-.81-27.89 0-39.92 1z"/><path class="cls-10" d="M93.46 603.4c-2.91 0-5.65-.18-6.25-.84-.4-.43-1-1.08-.22-14.43-12.45.93-12.93.3-13.41-.3-.92-1.22-.45-12.25 1-13.69.39-.39 1.25-1.29 12.39-1 0-11.68.77-12.4 1.19-12.79 1.45-1.34 10.65-.6 13.31.31.49.16 2 .67 2.2 2a79 79 0 01.07 9.36c12-.8 12.91.08 13.31.47 1.43 1.38 2.25 12.59 1 14.28-.4.55-1.21 1.67-12.21.69.81 12.78.15 13.85-.07 14.21-.43.68-1.23 1.08-4.45 1.38-.01.04-4.08.35-7.86.35zm-4.16-2.8c2.65.32 12.16.11 14.31-.51.18-1.5-.06-8.11-.46-14l-.1-1.56 1.55.15c4.53.45 9.93.69 11.4.36a40.34 40.34 0 00-.79-10.54c-1.58-.3-7.63-.11-12.74.27l-1.48.11.06-1.48c.13-3.21.24-8.34 0-10-1.49-.9-8.9-1.3-11-1a100.8 100.8 0 00-.46 12.11v1.38h-1.37c-4.78-.17-10.46-.11-11.84.24a49.39 49.39 0 00-.65 9.81 125.34 125.34 0 0012.54-.55l1.52-.12-.1 1.52c-.31 5.56-.54 11.8-.39 13.81z"/><path class="cls-9" d="M61.93 544.24h5.87c1.12 0 2.34.05 3.66.12.67 0 1.35.09 2.05.16.35.05.7.09 1 .15s.26.06.4.15 0 .13.12.44.11.79.15 1.23c.06.89.07 1.88.06 2.92a58.84 58.84 0 01-.54 6.71c-.09.58-.19 1.18-.31 1.75l-.2.83a4.38 4.38 0 01-.17.54h-.09l-2 .17c-2.67.19-5.47.34-8.3.44s-5.69.17-8.35.08a22.84 22.84 0 01-3.67-.34l-.35-.07a.29.29 0 00-.13-.05c-.12 0-.08 0-.19-.15a4 4 0 01-.57-1.18 24 24 0 01-.9-6.43c0-1 0-2 .05-3 0-.47.07-.91.12-1.34s.08-.6.12-.89c-.19-.29 1.77-.68 2.9-.92s2.44-.44 3.52-.61l5.68-.8-.11-1.6c-1.74 0-3.59.06-5.82.22-1.11.08-2.32.18-3.67.36-.67.08-1.38.2-2.15.36-.53.12-2.25.4-2.78 1.67a13.5 13.5 0 00-.48 1.74c-.1.49-.19 1-.26 1.51q-.21 1.54-.27 3.24a24.93 24.93 0 00.74 7.52 7.25 7.25 0 001 2.25 3.72 3.72 0 001.25 1.11c.26.13.52.25.78.35a4.26 4.26 0 00.61.16 23.86 23.86 0 004.37.53c2.83.14 5.71.1 8.64 0s5.73-.29 8.48-.53l2.07-.22a4.24 4.24 0 001.78-.5 3.22 3.22 0 001.1-1.48 7.65 7.65 0 00.42-1.31c.09-.36.16-.7.22-1 .13-.69.21-1.34.28-2a49.58 49.58 0 00.25-7.19 30.09 30.09 0 00-.29-3.22 12.86 12.86 0 00-.32-1.57 4 4 0 00-1-1.88 4.18 4.18 0 00-1.81-.66c-.44-.06-.86-.09-1.25-.11-.78 0-1.52-.06-2.21-.05-1.39 0-2.63.08-3.77.15-2.28.15-4.17.36-5.93.58zM128 539c-1.7-.07-3.51-.1-5.7 0-1.09 0-2.28.07-3.6.17-.66.06-1.36.13-2.11.23-.38.06-.77.13-1.18.22a4.2 4.2 0 00-1.69.79 4.56 4.56 0 00-.93 2.36 18.63 18.63 0 00-.16 2 37.55 37.55 0 00.16 4.28 47.43 47.43 0 00.67 4.94 28.52 28.52 0 00.66 2.79 9.27 9.27 0 00.67 1.73 4 4 0 00.81 1.13 3.12 3.12 0 001.23.59c.31 0 .64.06 1 .06h4.63c2 0 4.3-.09 6.6-.22s4.28-.26 6.38-.49a28.48 28.48 0 006.49-1.3 8.24 8.24 0 001.12-.66 5.23 5.23 0 00.82-1 7.43 7.43 0 00.75-1.84 16.7 16.7 0 00.43-3.24 32.38 32.38 0 00-.36-5.9c-.13-.95-.31-1.88-.53-2.8-.13-.46-.23-.91-.4-1.38a4 4 0 00-1-1.79 4 4 0 00-1.88-.74c-.47-.07-.92-.12-1.36-.15-.87-.07-1.71-.11-2.53-.12-3.28 0-6.28.13-9 .35v1.59c2.68.12 5.65.25 8.8.55.79.08 1.58.17 2.37.29.39.06.77.14 1.13.22s.31.09.44.17 0 0 .13.48.18.77.26 1.17c.14.82.27 1.67.35 2.54a32.55 32.55 0 01.08 5.32 13.72 13.72 0 01-.4 2.51 4.43 4.43 0 01-.38.88c-.06.12-.1.07-.12.15a.29.29 0 00-.18.07 28.8 28.8 0 01-5.49.93c-2 .19-4.09.33-6.19.44l-6.48.26-4.46.07h-.07c-.07 0-.07-.18-.15-.35l-.2-.58c-.26-.8-.47-1.64-.66-2.45-.36-1.63-.62-3.17-.82-4.6s-.33-2.75-.38-3.94a15.11 15.11 0 010-1.65c.06-.62 0-.55.11-.75a.75.75 0 01.35-.17c.31-.09.64-.17 1-.24.67-.13 1.31-.24 1.94-.32 1.26-.19 2.41-.32 3.47-.44l5.59-.53z"/><path class="cls-10" d="M143.6 550.22l-.47-2.61a114.22 114.22 0 0011.36-2.6l.74 2.54a116 116 0 01-11.63 2.67zm-66.7 5.72l-.09-2.65c14.12-.47 26.91-1.19 38-2.14l.23 2.63c-11.13.96-23.97 1.69-38.14 2.16zm-37.25.61h-6.51v-2.65s5.78.06 14.94 0v2.65z"/><path class="cls-9" d="M209.86 555.11c-.66 11.51.07 24 2.16 38.66 1.12 7.32 2.52 15.2 4.61 23.67 1 4.24 2.18 8.65 3.54 13.2l2.11 7c.55 1.61 1.1 3.27 1.67 5 0 .24.33.64-.09.68-.32-.19-1-.8-1.44-1.16-.3-.24-.39-.36-.85-.69l-2.57-1.72a37.49 37.49 0 00-5.52-3.18 36.83 36.83 0 00-6.18-2.64l-3.3-1.12-3.5-.73a46.06 46.06 0 00-7.33-.82c-1.26 0-2.53.12-3.8.18-.64 0-1.29 0-1.93.13l-1.91.36a42.6 42.6 0 00-7.64 2.11l-3.67 1.75c-1.22.6-2.33 1.44-3.51 2.16a32.48 32.48 0 00-11 12.83c-2.5 5.28-3.38 12-.81 17.94s7.48 10.22 12.81 12.95c9.83 4.7 20.3 5.73 30.27 5.79 5 .16 9.93-.42 14.83-.72l7.23-1 3.59-.47 3.53-.65c4.7-.88 9.37-1.69 13.9-2.86l6.79-1.6c.58-.15 1.07-.24 1.74-.44a13.81 13.81 0 002-.73 13.47 13.47 0 003.5-2.36 13.22 13.22 0 004-7.22 15.31 15.31 0 00.16-3.87l-.18-3.46c-.42-4.52-1-8.91-1.72-13.2-2.85-17.14-6.19-33.09-8.32-48.09q-1.62-11.25-2.28-21.67a120.38 120.38 0 01.53-19.81l-2.37-.37a116.91 116.91 0 00-1.26 20.29c.22 7.08.78 14.44 1.67 22 1.75 15.19 4.78 31.34 7.32 48.33.64 4.24 1.14 8.54 1.49 12.85l.12 3.2a11.21 11.21 0 01-.12 2.81 8.1 8.1 0 01-2.49 4.41 8.3 8.3 0 01-2.17 1.42 9.81 9.81 0 01-1.22.44c-.43.12-1.08.24-1.6.37l-6.69 1.51c-4.47 1.11-9 1.86-13.65 2.68l-3.46.61-3.49.44-7 .87c-4.71.26-9.48.8-14.25.62-9.49-.06-19.33-1.18-27.75-5.23-4.55-2.34-8.39-5.75-10.16-10s-1.3-9.24.66-13.51a27.18 27.18 0 019.13-10.64c1-.62 1.92-1.35 3-1.87l3.12-1.52a37 37 0 016.57-1.86l1.64-.34c.56-.07 1.12-.08 1.67-.12 1.11-.06 2.21-.19 3.31-.2a40.16 40.16 0 016.44.66l3.11.6 3 1a33.46 33.46 0 015.62 2.3 35 35 0 015.11 2.83l5.63 3.43 3.17 1.93 1.54.93c.23.12.55.39.71.39a2.37 2.37 0 00.62-.14 3.07 3.07 0 001.36-1 2.28 2.28 0 00.5-1 4.81 4.81 0 00-.08-2.94q-1.68-4.75-3.3-9.3c-.75-2.33-1.47-4.61-2.19-6.83-1.4-4.47-2.61-8.79-3.71-12.95-2.21-8.32-3.75-16-5-23.23-2.41-14.39-3.53-26.78-3.33-37.93zm155.03 2.5c0 10.87-1.32 22.91-3.87 36.9-1.36 7-3 14.5-5.21 22.6-1.14 4-2.31 8.26-3.73 12.6l-2.17 6.67q-1.59 4.47-3.26 9.13a4.81 4.81 0 00-.08 2.94 2.21 2.21 0 00.5 1 3.15 3.15 0 001.36 1 2.14 2.14 0 00.62.12 2.85 2.85 0 00.71-.39l1.55-.94 3.17-1.92 5.64-3.43a33.77 33.77 0 015.12-2.84l2.74-1.28a29.88 29.88 0 012.89-1l3-1 3.13-.6a41.47 41.47 0 016.46-.65 38.44 38.44 0 016.63.68c8.82 1.47 17.73 7.33 21.75 16 2 4.28 2.46 9.28.52 13.53s-5.7 7.67-10.27 10c-8.36 4-18.1 5.09-27.49 5.15-4.73.18-9.45-.35-14.12-.59l-7-.87c-2.32-.26-4.62-.57-6.89-1-4.56-.83-9.09-1.53-13.51-2.63l-6.63-1.49-1.64-.38a7.31 7.31 0 01-1.31-.39 8.11 8.11 0 01-5.22-8.11l.11-3.16c.28-4.25.8-8.5 1.42-12.7 2.53-16.8 5.63-32.78 7.41-47.82.9-7.52 1.47-14.82 1.69-21.83a115.61 115.61 0 00-1.27-20.09l-2.37.37a118 118 0 01.53 19.61c-.43 6.87-1.21 14-2.29 21.44-2.16 14.85-5.56 30.62-8.41 47.6-.69 4.25-1.3 8.6-1.66 13.1l-.16 3.43a13.07 13.07 0 00.37 3.95 13.33 13.33 0 004.37 6.9 13.49 13.49 0 003.58 2.12 13.79 13.79 0 001.93.62l1.67.39 6.72 1.6c4.49 1.16 9.12 1.92 13.77 2.8 2.32.48 4.68.81 7.06 1.1l7.16.94c4.84.28 9.7.85 14.68.69 9.87-.07 20.24-1.08 30-5.69 5.35-2.7 10.44-6.93 12.93-12.85a8.51 8.51 0 00.78-2.24l.57-2.3a36.83 36.83 0 00.27-4.68 31.94 31.94 0 00-.74-4.53 24.67 24.67 0 00-1.51-4.23 32.49 32.49 0 00-11-12.91A36.17 36.17 0 00391 632a43.24 43.24 0 00-7.64-.69c-2.5.25-5 .18-7.35.81l-3.51.73c-1.12.34-2.22.75-3.31 1.11s-2.2.69-3.2 1.19l-3 1.45a38.13 38.13 0 00-5.53 3.18l-2.58 1.66c-.5.35-.57.46-.88.7-.46.37-1.12 1-1.45 1.17-.43 0-.1-.45-.09-.69l1.62-4.78c.72-2.32 1.41-4.58 2.1-6.8 1.36-4.43 2.48-8.73 3.56-12.84 2.09-8.26 3.58-15.91 4.78-23 2.23-14.28 3.2-26.41 2.72-37.66zm-72.09-284.2a9.71 9.71 0 012.72 6 10.51 10.51 0 01-1.94 7.15 13.64 13.64 0 01-7.21 4.28 38.42 38.42 0 01-9.79 1.15c-6.8 0-13.63-1.16-17.61-4.84a9.06 9.06 0 01-2.9-6.68 9.57 9.57 0 012.19-6.22l-1.16-1.1a11 11 0 00-3.52 7.21 11.5 11.5 0 003.13 9 19.38 19.38 0 009.11 5.06 40.49 40.49 0 0010.77 1.31 37.79 37.79 0 0010.8-1.44 16.31 16.31 0 008.76-5.88c4-6.12 1.69-13.4-2.28-16.22z"/><path class="cls-10" d="M265.93 292.5l-1.67-.9h-.14c-.08 0-.21.06-.51.66a89 89 0 00-5.25 12.35 106.15 106.15 0 00-5 23.3c-.05.58-.09 1.08.31 1.13h.05c.36 0 .43-.47.52-1a130.89 130.89 0 016.21-22.68 100.18 100.18 0 015.41-11.9c.2-.37.41-.77.07-.96zm31.3 33.87a106.26 106.26 0 00-3.83-22.15 79.13 79.13 0 00-4.4-11.91c-.22-.45-.4-.79-.75-.64l-1.52.8h-.14l-.06.14c-.05.12-.07.24.19.76a91.74 91.74 0 014.52 11.45 134.56 134.56 0 015.07 21.6c.08.5.15 1 .51 1h.05c.44-.02.4-.52.36-1.05zm230.85-125.91l-3.29-1.7.63-1.23c3.42-6.63 5.48-10.63 6.85-12.26 2.79-3.28 8.48-8.22 14.51-13.45 7.33-6.36 19.5-16.92 19.91-20-1.3-.69-5.54 2.92-7.85 4.91-3.82 3.27-6.84 5.84-9.57 5a2.56 2.56 0 01-1.66-1.61c-.74-2.06.94-4.81 4.48-10.32 2.25-3.5 7.51-11.69 5.83-13-.17-.14-.24-.13-.31-.12-1.62.28-4.54 5-6.47 8-3.41 5.48-6.36 10.2-9.9 8.08-3.27-1.94-1.34-7.13 1.09-13.7 1.56-4.21 3.69-10 2.81-11.86a.64.64 0 00-.4-.37h-.33c-2.33 1.1-5.15 9.13-7.22 15-3.13 8.89-4.9 13.54-8 13.92-3.68.44-4.44-3.42-5-6.54-.74-3.89-1.58-8.31-6.06-9.64-1.49-.44-2.14-.28-2.29-.11-1.55 1.67 2.08 11.19 4 16.31a89.35 89.35 0 013.2 9.31c1.33 5.55-.36 12.37-6 24.31l-3.35-1.59c5.27-11.09 6.89-17.21 5.77-21.85a82.94 82.94 0 00-3.06-8.86c-3.86-10.14-6.18-17-3.28-20.16 1.31-1.41 3.35-1.72 6.06-.91 6.65 2 7.85 8.31 8.65 12.5.25 1.29.62 3.25 1 3.61 1-.75 3.31-7.23 4.82-11.53 3.27-9.26 5.67-15.46 9.13-17.1a4.07 4.07 0 013.17-.18 4.3 4.3 0 012.51 2.29c1.54 3.31-.52 8.85-2.69 14.71-1 2.82-2.73 7.37-2.61 9 1.22-.89 3.42-4.42 4.8-6.62 2.94-4.72 5.72-9.17 9-9.73a4 4 0 013.25.86c4.3 3.42-.44 10.8-5 17.93-1.23 1.91-2.78 4.33-3.56 5.92a45.44 45.44 0 004.77-3.77c4.48-3.85 9.58-8.22 13.09-4.55a3.22 3.22 0 01.89 2.45c-.19 4.28-8.13 11.47-21.19 22.8-5.92 5.13-11.51 10-14.11 13-1.1 1.3-3.43 5.83-6.38 11.55z"/></g></g></g></svg>