<svg id="Layer_1" data-name="Layer 1" xmlns="http://www.w3.org/2000/svg" viewBox="0 0 1200 1200"><defs><style>.cls-2{fill:#1d1d1b}</style></defs><path d="M604.48 533.93c1.78-11.93-1.48-20.43-14.58-19.77-1.84.09-4 .18-6.24.33a31.77 31.77 0 00-17.77-3.81c-.13 0-.25 0-.38.06-4-1.51-9 .3-8.37 5.55.34 2.74-4.4 5.74-5.87 7.72a13.21 13.21 0 00-2.83 6.47c-.64 5 2.24 9.39 5.73 12.71a26.47 26.47 0 009 5.49 81.55 81.55 0 00-9.38 17.55c-7.55 20.15-2.48 42.38 13.49 56.89 2.45 2.22 6.65 2.67 9 0a198.27 198.27 0 0013.22-16.4c4-5.51 9-11.83 10.73-18.52S599 575 597 568.81l-5.94-18.75c7.36-2.17 12.11-7.33 13.42-16.13zM404.11 868.1a17.11 17.11 0 00-8.47-9.75c-2-1-4.13-.93-6.17-1.63-3.29-1.13-4-2.84-6.38-5.13a14 14 0 00-11.44-3.72c-4.28-2.41-11.23 1-9.51 7.1 2.57 9.13-6.46 6.93-11.61 9.13a11.93 11.93 0 00-6.91 10 13 13 0 005.28 11.12 16.7 16.7 0 006.17 3c3.89 1.06 2.18-.41 2.91 3.06.88 4.2.33 7.54 4.17 10.57 4.08 3.21 10.24 2.54 15.1 2 3.93-.4 7.53-1.44 10.08-4.64s2.36-7.54 5.62-9.88c3.86-2.78 7.49-3.73 9.94-8.27a16.74 16.74 0 001.22-12.96z" fill="#e70000" opacity=".5"/><path class="cls-2" d="M510.06 355.42a36.76 36.76 0 00-14.64-22.5 37.17 37.17 0 00-10.95-5.35 44.53 44.53 0 00-22-.06 31.7 31.7 0 00-10.89 5.55c-6.83 5.24-11.7 13.57-14.09 22.82a54.64 54.64 0 00-1.42 7.16 27.25 27.25 0 00.12 7.75 27.67 27.67 0 007.08 14.21c7.51 8 18.7 12.1 30 12.22s22.73-4.3 29.73-12.69a32.7 32.7 0 007-14.14 36.48 36.48 0 00.06-14.97zm-10.21 26.38c-6.2 7.24-16.31 11.15-26.56 11.09s-20.4-3.86-27-10.72a23.86 23.86 0 01-6.22-12.05c-.85-4.38-.06-8.93.95-13.34 2.05-8.73 6.31-16.46 12.34-21.47s13.44-7.06 20.08-7.3a39.12 39.12 0 0110.28 1.85 35.32 35.32 0 019.94 5.38 34.11 34.11 0 0112.76 20.87c1.67 8.64-.23 18.54-6.57 25.69zm148.28 7.47a43.38 43.38 0 0016.54 3.67 36.63 36.63 0 0029.59-13.83 35.88 35.88 0 007-14.27 37 37 0 00.28-15.13 48.84 48.84 0 00-4.45-13.44 28.81 28.81 0 00-8.7-10.25 29.36 29.36 0 00-11.39-4.83 51.91 51.91 0 00-11.11-.89 41 41 0 00-11.13 1.41 38.33 38.33 0 00-11.08 5.35 37.39 37.39 0 00-15.08 22.57 38 38 0 00-.25 15.12 32.44 32.44 0 006.65 14.46 35.19 35.19 0 0013.13 10.06zm-16-38.89a34.75 34.75 0 0113.18-21 36.64 36.64 0 0110.1-5.4 40.55 40.55 0 0110.41-1.85c6.73.28 14.56 1.34 20.8 6.19s9.81 13 11.25 22a32.8 32.8 0 01-33.11 38.23c-10.38-.21-20.47-4.48-26.53-12-6.23-7.36-7.81-17.46-6.08-26.17z"/><path class="cls-2" d="M483.78 361.86a12.76 12.76 0 01-7.27-23.25 22.1 22.1 0 00-3.17-.26 21.55 21.55 0 1021.54 21.55 21.87 21.87 0 00-.37-3.91 12.77 12.77 0 01-10.73 5.87zm183.56 16.94a22 22 0 0021.66-26 13.05 13.05 0 11-18.42-17.8 21.68 21.68 0 00-3.24-.27 22 22 0 100 44.09zM546.7 416.43c7.55 4.12 16.32 5 24.95 5a69.64 69.64 0 0012.85-1.16 35.47 35.47 0 0012-4.27 19.43 19.43 0 008.32-9.48 22.82 22.82 0 001.19-11.71c-1.12-7.44-4.29-13.6-7.56-18.77a53.07 53.07 0 00-10.73-12.51c-1.34-1-2.52-1.42-2.63-1.17s.67 1 1.82 2.1a58.26 58.26 0 019.38 12.87c2.83 5.16 5.51 11.23 6.25 17.9a19.59 19.59 0 01-1.29 9.8 15.6 15.6 0 01-6.86 7.42 32.23 32.23 0 01-10.72 3.6 68.17 68.17 0 01-12.09 1c-8.25 0-16.45-.83-22.93-4.25a18.62 18.62 0 01-7.54-7 19.69 19.69 0 01-2.34-9.61c0-6.67 2.24-12.93 4.83-18.18a47.56 47.56 0 019.17-12.92c1.15-1.13 2-1.88 1.8-2.16s-1.28.16-2.6 1.22a44.84 44.84 0 00-10.58 12.66c-3 5.33-5.81 11.77-6.13 19.33a22.93 22.93 0 002.46 11.51 22.23 22.23 0 008.98 8.78zm13.89 55.49c54.08 0 106.35-14.28 133.77-37.43.87 2.84.42 4.17.38 4.27a1.54 1.54 0 00.65 2 1.58 1.58 0 00.73.18 1.54 1.54 0 001.35-.8c.26-.49 2.36-5-4.62-15.17a1.54 1.54 0 10-2.53 1.74 36.85 36.85 0 012.82 4.75c-30.86 26.74-95.59 41.67-158 36.28-43.1-3.7-77-16.77-93.58-36a39.23 39.23 0 012.84-4.3 1.54 1.54 0 00-2.45-1.85A37.1 37.1 0 00438 432l-.2.16a.39.39 0 01.08.1c-2.47 5.35-1.4 8-1.22 8.4a1.49 1.49 0 001.35.85 1.77 1.77 0 00.63-.13 1.58 1.58 0 00.82-2s-.5-1.45.65-4.53c17.39 19.24 51.61 32.3 94.75 36 8.59.72 17.14 1.07 25.73 1.07zm17.79 215.5a11.1 11.1 0 007.9-4 10.35 10.35 0 001.58-8.08 9.09 9.09 0 00-4-6.06 7.59 7.59 0 00-6-.82 14.17 14.17 0 00-5.6 1.31 7.74 7.74 0 00-4.26 6.03 10.8 10.8 0 002.08 7.88 9.29 9.29 0 008.3 3.74zm-.27-17.17a5.82 5.82 0 016.12 5.62 7 7 0 01-1.26 5 7.49 7.49 0 01-5 2.26 5.3 5.3 0 01-4.61-2 7.49 7.49 0 01-1.69-5c-.17-3.41 3.47-5.05 6.44-5.88zm6.55 40.96a7.59 7.59 0 00-6-.82 14.16 14.16 0 00-5.6 1.32 7.73 7.73 0 00-4.25 6.06 10.83 10.83 0 002.08 7.89 9.3 9.3 0 008.34 3.73 11.12 11.12 0 007.9-4 10.35 10.35 0 001.58-8.08 9.15 9.15 0 00-4.05-6.1zm-.87 11.59a7.49 7.49 0 01-5 2.26 5.3 5.3 0 01-4.61-2 7.47 7.47 0 01-1.69-5c-.13-3.42 3.51-5.06 6.48-5.89a5.81 5.81 0 016.11 5.62 7 7 0 01-1.29 5.01zM655 700.11a11.11 11.11 0 00-6 8.89 16 16 0 003.14 11.52 13.41 13.41 0 0012 5.35c4.27-.44 8.79-2.15 11.56-5.82a13.47 13.47 0 002.44-5.9 17.24 17.24 0 00-.06-5.87 13.47 13.47 0 00-5.74-9 11.37 11.37 0 00-8.88-1.44 22.58 22.58 0 00-8.46 2.27zm15.64 1.56a10.76 10.76 0 013.78 7.18c.33 2.95-.2 6.35-2.06 8.65s-5.14 3.67-8.7 4a9.42 9.42 0 01-8.27-3.61 12.66 12.66 0 01-2.76-8.59 8.22 8.22 0 013.86-6.74 23.34 23.34 0 017.24-2.9 9.56 9.56 0 016.88 2.01zm-86.8 56.76a7.59 7.59 0 00-6-.82 14.17 14.17 0 00-5.6 1.31A7.74 7.74 0 00568 765a10.8 10.8 0 002.08 7.88 9.29 9.29 0 008.34 3.74 11.1 11.1 0 007.9-4 10.35 10.35 0 001.58-8.08 9.09 9.09 0 00-4.06-6.11zM583 770a7.49 7.49 0 01-5 2.26 5.3 5.3 0 01-4.61-2 7.49 7.49 0 01-1.69-5c-.13-3.42 3.51-5.06 6.48-5.89a5.82 5.82 0 016.12 5.62A7 7 0 01583 770zm-210.76 94.7a91.21 91.21 0 00-.08-10.86c-.26-1.52-2-2.11-2.55-2.3-3.09-1.06-13.75-1.91-15.44-.36-.49.45-1.38 1.27-1.39 14.82-12.91-.38-13.91.66-14.36 1.11-1.67 1.67-2.22 14.46-1.15 15.87.54.71 1.11 1.44 15.54.35-.91 15.49-.21 16.24.25 16.74.7.76 3.87 1 7.25 1 4.38 0 9.11-.36 9.19-.37 3.73-.35 4.66-.82 5.15-1.6.26-.42 1-1.66.08-16.47 12.76 1.13 13.7-.17 14.16-.81 1.4-2 .45-15-1.21-16.55-.47-.47-1.55-1.5-15.44-.57zm14.2 15.1c-1.7.38-8 .1-13.21-.42l-1.8-.18.12 1.81c.46 6.8.74 14.46.53 16.2-2.49.72-13.52 1-16.59.59-.17-2.33.09-9.56.49-16l.11-1.77-1.76.15a143.57 143.57 0 01-14.54.63c-.19-2.53.26-9.93.76-11.37 1.59-.41 8.18-.47 13.72-.28h1.59v-1.59a120.82 120.82 0 01.53-14.05c2.47-.39 11.06.07 12.79 1.12.21 2 .08 7.91-.07 11.64l-.06 1.71 1.71-.12c5.93-.44 12.94-.66 14.78-.31.71 2.06 1.28 10.35.9 12.24z"/><path class="cls-2" d="M912.25 374.64c-4.07-4.25-10 .82-15.18 5.28a54.29 54.29 0 01-5.53 4.36c.91-1.84 2.7-4.64 4.13-6.85 5.31-8.28 10.8-16.83 5.82-20.79a4.66 4.66 0 00-3.77-1c-3.78.65-7 5.81-10.42 11.28-1.59 2.55-4.15 6.65-5.56 7.67-.14-1.89 1.82-7.16 3-10.42 2.52-6.8 4.9-13.22 3.12-17.06a5 5 0 00-2.91-2.65 4.68 4.68 0 00-3.68.2c-4 1.9-6.79 9.09-10.58 19.83-1.75 5-4.4 12.5-5.59 13.37-.47-.42-.9-2.69-1.18-4.19-.93-4.86-2.32-12.21-10-14.49-3.14-.94-5.51-.58-7 1.06-3.36 3.62-.68 11.6 3.81 23.37a100.39 100.39 0 013.55 10.27c1.18 4.93-.31 11.33-5.29 22.29a36.89 36.89 0 00-4.49-2.28l-2.79-1.19-1.23 3.08a76 76 0 01-12.58 20.1 109.9 109.9 0 01-8.25 8.89c-2.9 2.82-6.12 5.32-9.16 8-12.77 10.11-27.54 17.58-42.84 23.31l-5.77 2.13-2.88 1.08-3 .84-11.86 3.3c-3.92 1.25-8 1.79-12 2.63L720 488.41c-8.18.93-16.36 2-24.56 2.79l-11.53.54a131.68 131.68 0 0023.5-19.49 124.24 124.24 0 0020.9-29.89 134.81 134.81 0 0011.54-36 163.48 163.48 0 001.8-38.8 176.59 176.59 0 00-2.22-18.34 25.87 25.87 0 006.91-1.32 27.81 27.81 0 008.36-4.55 24.2 24.2 0 007.13-9 20.67 20.67 0 001.32-13.07 18.44 18.44 0 00-8-11.79 23.92 23.92 0 00-14.27-3.13c-.68.05-1.37.12-2.05.2a24.1 24.1 0 00-3.3-7.85 10.52 10.52 0 00-3.68-3.43 8.54 8.54 0 00-5.53-1 13.32 13.32 0 00-4.89 1.83l-.77-1.48a183.19 183.19 0 00-44.44-54.45A165.91 165.91 0 00593.55 203a217.64 217.64 0 00-51.69 0 165.81 165.81 0 00-82.65 37.14 183.22 183.22 0 00-44.45 54.45q-3.06 5.7-5.72 11.69a15.78 15.78 0 00-8.85.92 13.76 13.76 0 00-6.8 6.81 25.72 25.72 0 00-2.38 8.51.2.2 0 000 .07h-1a23.6 23.6 0 00-14.08 3.91 18.35 18.35 0 00-7.34 12.2 20.7 20.7 0 002 13 24.22 24.22 0 007.63 8.61 27.92 27.92 0 008.58 4.08 26.24 26.24 0 006.89.95h.31c-.06.74-.13 1.48-.19 2.23a163.48 163.48 0 001.8 38.8 134.83 134.83 0 0011.55 36A124.21 124.21 0 00428 472.25 134.05 134.05 0 00455.05 494c2.8 1.72 5.62 3.32 8.46 4.83A176.44 176.44 0 00441 513.39a229.63 229.63 0 00-25.08 22A257.85 257.85 0 00376 588.45a295.17 295.17 0 00-25.77 61.16 362.16 362.16 0 00-12.86 65l-.09.82.29.65a8.53 8.53 0 001.06 1.76 12.86 12.86 0 001.08 1.22 15.05 15.05 0 002.39 1.91 21.1 21.1 0 005.17 2.39h.07a102.43 102.43 0 011.42 14.64 26.82 26.82 0 01-1 8.83 3.73 3.73 0 01-.4.8c-.13.26-.25.55-.42.64s-.15.21-.53.55a13.12 13.12 0 00-1.15 1 34.9 34.9 0 00-3.77 4.44 41 41 0 00-5.61 10.62 26.78 26.78 0 00-1.15 5.15A36.9 36.9 0 00322 778a37.4 37.4 0 00-8.73 13.14 45.78 45.78 0 00-3.15 17.45c-1.95.35-3.92.74-5.91 1.19a53.23 53.23 0 00-6.68 1.93 16.52 16.52 0 00-1.78.77l-.91.44-1 .73a7.08 7.08 0 00-1.8 1.78 12.37 12.37 0 00-1.18 1.93c-2.27 5-2.78 9.59-3.36 14.34s-.69 9.49-.73 14.3a243.17 243.17 0 001.65 29.47c.59 5 1.33 10.07 2.36 15.18a80.8 80.8 0 004.51 15.58 27.08 27.08 0 002.18 4.07 17.16 17.16 0 001.68 2.13 15.06 15.06 0 002.53 1.88 27.88 27.88 0 008.82 2.69 114.43 114.43 0 0016.5 1.25c10.93.16 21.89-.41 32.95-1.27s21.94-2.07 32.63-3.53c5.35-.74 10.64-1.55 15.91-2.49 2.63-.47 5.25-1 7.89-1.58 1.32-.3 2.64-.61 4-1a16.27 16.27 0 004.75-1.92c.49-.38 1-.74 1.48-1.14l1-1.23a18.44 18.44 0 001.39-2.29 33 33 0 001.63-4.13 67.86 67.86 0 002-7.89 154.3 154.3 0 002.12-15.3 251.47 251.47 0 00.94-29.49c-.34-9.6-1-18.93-3.4-28.12a30.64 30.64 0 00-2.79-6.94c-.4-.6-.78-1.18-1.22-1.76a14.51 14.51 0 00-1.78-1.65 13.07 13.07 0 00-2-1.1l-1.85-.69a65.79 65.79 0 00-13.22-2c-.82 0-1.62-.07-2.42-.1a57.25 57.25 0 00-2.25-14.26 36.69 36.69 0 00-6.44-12.59 24.82 24.82 0 00-11.18-8 24.82 24.82 0 00-.67-3 40.33 40.33 0 00-5.22-10.78 49.9 49.9 0 00-3.39-4.56 25.67 25.67 0 00-4.19-4.13l-.44-.28-.23-.14-.11-.06h-.06c-.08.14.15-.34-.19.32.28-.62.1-.32.12-.42-.05.06-.22-.19-.37-.4a8.33 8.33 0 01-.92-1.66 30.94 30.94 0 01-1.4-4.27 115.79 115.79 0 01-2.54-14.15l.62-.1a35.12 35.12 0 005.18-1.45 19.22 19.22 0 005.21-2.82l.06-.05 1-.82.08-1.34A268.17 268.17 0 01386 674.7a264.33 264.33 0 0113-41.55 200.08 200.08 0 0120.5-38.28 153.33 153.33 0 0126.19-29.29c-3.79 67.89-6.21 135.94-1.46 204 .7 8.68 1.57 17.36 2.81 26a163.55 163.55 0 005.51 25.88c1.43 4.27 3 8.57 5.89 12.6a18.86 18.86 0 002.54 2.89 14.55 14.55 0 003.25 2.18 45.12 45.12 0 006.39 2.82 151.33 151.33 0 0024.59 5.85c-.51 12.57.37 26.17 2.62 42 1.3 8.48 2.92 17.61 5.34 27.44 1.21 4.91 2.53 10 4.11 15.3.8 2.64 1.61 5.34 2.45 8.09l1.94 5.75c0 .27.37.73-.11.78-.37-.22-1.13-.92-1.67-1.35-.34-.27-.45-.41-1-.8l-3-1.91a45.27 45.27 0 00-6.4-3.69 43.93 43.93 0 00-7.17-3.06l-3.83-1.3-4.06-.84c-2.71-.72-5.61-.67-8.5-.95-1.45 0-2.92.14-4.4.2-.74.06-1.49.07-2.23.16l-2.22.42a48.28 48.28 0 00-8.86 2.45l-4.25 2c-1.42.7-2.71 1.67-4.07 2.51a37.66 37.66 0 00-12.85 15c-2.89 6.13-3.91 13.94-.94 20.8s8.68 11.85 14.85 15c11.4 5.46 23.55 6.64 35.1 6.71 5.83.19 11.52-.47 17.19-.83l8.39-1.09 4.16-.55 4.09-.76c5.45-1 10.87-2 16.12-3.31l7.87-1.86c.68-.17 1.24-.28 2-.5a17.19 17.19 0 002.3-.86 15.43 15.43 0 004-2.73 15.27 15.27 0 004.59-8.38 17.44 17.44 0 00.19-4.48l-.21-4c-.49-5.24-1.17-10.33-2-15.3-3.3-19.87-7.17-38.37-9.64-55.76q-1.87-13-2.64-25.13a146.44 146.44 0 01.32-19.87l5.56.37c17.37 1 34.76 1.61 52.15 1.62q14.38 0 28.77-.51a142.44 142.44 0 01.38 20.26c-.51 8-1.41 16.27-2.66 24.86-2.5 17.22-6.45 35.5-9.75 55.19-.81 4.93-1.51 10-1.93 15.19l-.19 4a15.16 15.16 0 00.44 4.59 15.38 15.38 0 009.22 10.45 15.9 15.9 0 002.23.72l1.94.46 7.79 1.84c5.2 1.35 10.57 2.23 16 3.25 2.69.56 5.42.95 8.18 1.28l8.31 1.08c5.61.33 11.25 1 17 .8 11.44-.07 23.46-1.24 34.76-6.59 6.2-3.12 12.1-8 15-14.9a9.9 9.9 0 00.9-2.6l.67-2.67a41 41 0 00.3-5.42 35 35 0 00-.85-5.25 28.59 28.59 0 00-1.75-4.91 37.68 37.68 0 00-12.78-15 41.66 41.66 0 00-17.19-7c-3-.73-6-.63-8.86-.81-2.9.28-5.8.21-8.52.94l-4.07.84c-1.3.4-2.57.87-3.84 1.3a36.29 36.29 0 00-3.71 1.37l-3.47 1.68a44.41 44.41 0 00-6.42 3.69l-3 1.92a12.63 12.63 0 00-1 .82c-.54.43-1.29 1.13-1.68 1.36-.5 0-.12-.53-.11-.81.64-1.89 1.27-3.73 1.89-5.54.82-2.69 1.63-5.31 2.43-7.88 1.58-5.14 2.88-10.12 4.12-14.9 2.43-9.56 4.16-18.43 5.55-26.68 2.38-15.26 3.5-28.38 3.23-40.55l1-.13c4.35-.61 8.7-1.35 13-2.27 4.36-1.1 8.69-2 13.12-4.22a32.32 32.32 0 003.37-2.16 13.42 13.42 0 002.64-3.47 33.38 33.38 0 002.64-6.71 106.87 106.87 0 002.61-13.15c1.23-8.73 1.89-17.44 2.39-26.15 1-17.41 1.12-34.8 1-52.17q-.43-52.12-4.22-104.08c-1.3-17.32-2.87-34.61-4.9-51.88-1-8.63-2.17-17.25-3.58-25.86-.71-4.3-1.49-8.6-2.42-12.88a94.33 94.33 0 00-2.69-10.14 269.57 269.57 0 0047.11-7.1 242.24 242.24 0 0047.74-16.68 172.32 172.32 0 0042.21-28.17 138.41 138.41 0 0017.15-19 141.78 141.78 0 0013.33-21.87l.43-.81-.16-.91a14.36 14.36 0 00-.72-2.73c-.29-.8-.6-1.56-.95-2.29a32.74 32.74 0 00-2.35-4.19l-.23-.33c3.22-6.22 5.74-11.09 7-12.53 3-3.56 9.49-9.18 16.35-15.13 15.14-13.14 24.35-21.47 24.57-26.44a3.77 3.77 0 00-1.02-2.87zM741 309.46a21 21 0 0111.89 3.31 14.22 14.22 0 015.65 9.37 15.91 15.91 0 01-1.41 10c-3.41 6.8-9.94 9.49-12.58 10.33a20.44 20.44 0 01-6.26.94 180.82 180.82 0 00-6.66-23.81 27 27 0 0110.12-3.18 15.43 15.43 0 014.39.28 11.87 11.87 0 012.69 6.67c.34 3.51-.51 6.78-.76 8.92a.36.36 0 00.18.41.35.35 0 00.39-.19 15.2 15.2 0 002.36-9.35 10.46 10.46 0 00-2-5.36c-.11-.14-.22-.25-.33-.38a19.94 19.94 0 015.86 3.42c.22.19.44.26.55.17s.08-.32-.08-.57a14.33 14.33 0 00-4.88-4.35 15.27 15.27 0 00-8.51-1.84 20.83 20.83 0 00-10.45 4c-.79-2.16-1.6-4.31-2.47-6.43a32.7 32.7 0 0112-2.35zm-13.47-9.37c1.35-.46 2.91.11 4.31 1.57a22.13 22.13 0 013.7 5.42 35.07 35.07 0 00-7.69 2.73q-1.65-3.93-3.47-7.74a8.61 8.61 0 013.19-1.98zM464 245.77a167.85 167.85 0 0152.2-30.8 170.41 170.41 0 0126.47-7.22 180.25 180.25 0 0125.08-2.57 180.1 180.1 0 0125.08 2.57 170.41 170.41 0 0126.42 7.25 167.85 167.85 0 0152.2 30.8 180.42 180.42 0 0141.81 52.74c.55 1.05 1.09 2.13 1.63 3.2-.67.74-1.26 1.45-1.73 2a80.42 80.42 0 00-8 12.46l-1.39-.78a54.45 54.45 0 00-8.49-3.39 130.58 130.58 0 00-18.62-4.31 183.52 183.52 0 00-20.41-2.19 143.25 143.25 0 00-22 .36 71.69 71.69 0 00-11.65 2.1 32.59 32.59 0 00-6 2.29 16.76 16.76 0 00-5.89 4.59c-.42.6-.82 1.23-1.19 1.86s-.49 1.15-.73 1.73a25.78 25.78 0 00-1 3.37c-.2 1-.36 2-.49 3-27.7-20.75-63.13-5.7-76.59 1.42-.15-1.44-.34-2.9-.64-4.38a25.78 25.78 0 00-1-3.37c-.24-.58-.45-1.14-.72-1.73s-.78-1.26-1.2-1.86a16.67 16.67 0 00-5.89-4.59 32.51 32.51 0 00-6-2.29 72 72 0 00-11.66-2.1 143.23 143.23 0 00-22-.36 183.08 183.08 0 00-20.4 2.19 130.72 130.72 0 00-18.71 4.24 54.85 54.85 0 00-8.49 3.39 30.88 30.88 0 00-3.9 2.41 57.84 57.84 0 00-13-8.85c1.58-3.56 3.25-7.06 5-10.46a180.22 180.22 0 0141.9-52.72zm170 154.7a19.73 19.73 0 01-2.34-3.2 68.92 68.92 0 01-4.7-9.79 192.69 192.69 0 01-11.46-47.38 83.07 83.07 0 01-.44-11.39 34.63 34.63 0 01.55-5.25 17.8 17.8 0 01.59-2.27l.37-1a3.7 3.7 0 00.38-.59c1.26-1.73 4.53-3.33 7.75-4.3a66.16 66.16 0 0110.3-2.11 145.56 145.56 0 0120.94-1 196.4 196.4 0 0119.83 1.29 135.21 135.21 0 0118.09 3.19 52.69 52.69 0 018 2.63c.59.26 4.48 2.67 4.48 2.67a5.38 5.38 0 011.12 1.28c1.45 4.15 2 9.15 2.35 14.24s.36 10.52.21 16.09c-.43 11.12-1.44 23.22-4.47 35.28a52.54 52.54 0 01-3 8.66 20.17 20.17 0 01-2.09 3.6 8 8 0 01-1.13 1.13 8.64 8.64 0 01-1.54.85 28.24 28.24 0 01-8.75 2.1 83.55 83.55 0 01-10.13.49c-13.91-.08-28.85-2-44-4.38.15-.08-.14-.06-.91-.84zm-131.24.8c-15.18 2.41-30.11 4.3-44 4.38a83.55 83.55 0 01-10.13-.49 28.24 28.24 0 01-8.75-2.1 8.52 8.52 0 01-1.53-.85 7.52 7.52 0 01-1.14-1.13 19.56 19.56 0 01-2.08-3.6 51.63 51.63 0 01-3-8.66c-3-12.06-4.05-24.16-4.48-35.28-.15-5.57-.13-11 .22-16.09s.88-9.89 2.28-14l2-2a1.69 1.69 0 00.18-.36 20.05 20.05 0 013.47-1.87 53.06 53.06 0 018-2.63 135.21 135.21 0 0118.09-3.19 196.4 196.4 0 0119.83-1.29 145.56 145.56 0 0120.94 1 66.16 66.16 0 0110.34 2.22c3.23 1 6.49 2.57 7.75 4.3a3.7 3.7 0 00.38.59l.37 1a17.76 17.76 0 01.6 2.27 36 36 0 01.55 5.25 84.72 84.72 0 01-.45 11.39 180.45 180.45 0 01-4.15 23.7 178.25 178.25 0 01-7.33 23.68 67.86 67.86 0 01-4.7 9.79 19.73 19.73 0 01-2.34 3.2c-.68.75-1.02.73-.9.77zm-100.55-88.42a9.36 9.36 0 014.08-.06c-1.58 3.95-3 8-4.35 12.07a34.22 34.22 0 00-7.78-2c1.93-5.5 4.91-9.24 8.05-10.01zm-14 46c-2.69-.69-9.36-3-13.14-9.62a15.88 15.88 0 01-2-9.88 14.16 14.16 0 015.12-9.66 20.83 20.83 0 0111.76-4 32.27 32.27 0 0111.33 1.31c-.65 2.11-1.27 4.24-1.84 6.38a20.62 20.62 0 00-9.82-2.91 15.28 15.28 0 00-8.4 2.31 14.44 14.44 0 00-4.63 4.61c-.15.26-.17.5 0 .58s.33 0 .54-.2a20.16 20.16 0 015.67-3.74 3.9 3.9 0 00-.31.4 10.38 10.38 0 00-1.71 5.45 15.18 15.18 0 002.87 9.21.34.34 0 00.4.17.38.38 0 00.16-.42c-.38-2.12-1.41-5.34-1.26-8.87a11.85 11.85 0 012.32-6.8 15.41 15.41 0 014.37-.53 26.21 26.21 0 019.46 2.25 180.9 180.9 0 00-4.54 24.52 20.41 20.41 0 01-6.32-.57zm45.55 108a118.17 118.17 0 01-19.17-28.13 128.58 128.58 0 01-10.56-33.81 157.87 157.87 0 01-1.61-36.78 175.83 175.83 0 0111.65-51.89 64.82 64.82 0 0110.7 8.66l.66.64a73.64 73.64 0 00-2.19 11.46 159.39 159.39 0 00-1.12 16.58c-.11 11.48.37 23.8 3.2 36.9a58.25 58.25 0 003.09 10 26.71 26.71 0 002.83 5.12 14.49 14.49 0 002.37 2.5 15.82 15.82 0 002.82 1.77 35 35 0 0011.19 3.1 91.66 91.66 0 0011.07.77c14.8.16 29.83-1.57 45.56-4a11.26 11.26 0 005.64-3.25 27.48 27.48 0 003.55-4.7 75.81 75.81 0 005.39-11.12 190.68 190.68 0 0011.71-49.84c.22-2.6.32-5.2.34-7.81 9.9-5.69 48.53-25.14 76-.65 0 2.83.1 5.65.33 8.46a191.24 191.24 0 0011.72 49.84 73.85 73.85 0 005.39 11.12 28 28 0 003.54 4.7 11.26 11.26 0 005.64 3.25c15.74 2.38 30.76 4.11 45.56 4a91.52 91.52 0 0011.04-.74 35 35 0 0011.19-3.1 16.25 16.25 0 002.83-1.77 15.3 15.3 0 002.37-2.5 26.64 26.64 0 002.82-5.12 57.38 57.38 0 003.09-10c2.83-13.1 3.31-25.42 3.2-36.9a159.44 159.44 0 00-1.11-16.61 63.16 63.16 0 00-3.1-13.88 2.56 2.56 0 00.47-.73l.41-.88a105.37 105.37 0 016.3-11.92A176 176 0 01733 368.11a157.85 157.85 0 01-1.6 36.78 129 129 0 01-10.56 33.81 118.2 118.2 0 01-19.18 28.13 129.28 129.28 0 01-25.17 20.94c-18.06 11.61-37.63 18.59-56.21 22.86a252.94 252.94 0 01-27.28 4.64c-8.79 1-17.25 1.46-25.31 1.71-8.05-.25-16.51-.74-25.31-1.71a252.77 252.77 0 01-27.21-4.64c-18.58-4.27-38.17-11.25-56.17-22.86a129.34 129.34 0 01-25.21-20.94zm162.77 113a122.73 122.73 0 00-4.44-25.62 99.18 99.18 0 00-4.41-12.42 17.64 17.64 0 007.61-5.88 14.61 14.61 0 000-16 237.94 237.94 0 0026.11-3.6c4-.79 8.14-1.73 12.27-2.8-3.95 7.02-18.89 33.47-37.11 66.27zm-50.87 1.92c-16.71-30.05-30.87-55.18-37.34-66.63 1.88.42 3.76.83 5.62 1.19a240.65 240.65 0 0028 3.77q3.12.23 6.18.36a12.62 12.62 0 00-2.16 6.13 13.35 13.35 0 003.62 10.41 20.41 20.41 0 007.31 4.77 102.64 102.64 0 00-5.39 12.91 124 124 0 00-5.8 27zm6.52-47.31a10.52 10.52 0 01-3.37-7.74 11 11 0 011.79-6.16c5.87.22 11.58.26 17.07.17 7.94.13 16.31 0 25-.59a11.16 11.16 0 011.85 5.35 12.16 12.16 0 01-2.24 8.28 15.86 15.86 0 01-8.37 5 44.41 44.41 0 01-11.28 1.23c-7.89 0-15.81-1.33-20.42-5.59zm-171.7 249.71a14.85 14.85 0 003.12-2.73 10 10 0 014 4.88 35.25 35.25 0 012 7.8l.07.38c.48 3.19 1 6 1.33 7.93-9.9.15-19.21.79-27.95 1.46-11 .35-22.87 1-35.55 2.3v-.38a34.27 34.27 0 01.86-10.14 17 17 0 014.33-7.68 24 24 0 016.81-4.63 19.76 19.76 0 007.95 4.09 47.3 47.3 0 0013.34 1.47 49.24 49.24 0 0013.21-1.78 23.1 23.1 0 006.48-2.97zm-62.38 8.68a35.47 35.47 0 016.78-12.14 37.11 37.11 0 019.7-7.88 15.44 15.44 0 001.33 5.83 13 13 0 001.62 2.6 23.29 23.29 0 00-7.48 3.72 20.26 20.26 0 00-6.6 9.13 34 34 0 00-1.82 11.89v.85c-1.54.19-3.09.38-4.66.59l-1 .15a44.53 44.53 0 012.13-14.74zm108.68 80.83c-.54 4.84-1.23 9.71-2.23 14.47a62.3 62.3 0 01-1.81 6.91 27.07 27.07 0 01-1.22 3c-.43.79-1 1.55-.91 1.35a14.91 14.91 0 01-2.47.82c-1.15.31-2.36.58-3.59.85-2.46.53-5 1-7.54 1.44-5.11.87-10.32 1.63-15.58 2.33-10.53 1.38-21.28 2.54-32.16 3.39s-21.66 1.43-32.15 1.34a111.67 111.67 0 01-15.23-1 21.25 21.25 0 01-6.16-1.68c-.73-.11-1.94-2.09-2.86-4.1a74.62 74.62 0 01-4.15-13.85c-1-4.81-1.83-9.67-2.48-14.5a250.71 250.71 0 01-2.14-27.71h11.83a23.22 23.22 0 00.63 3.16 8.85 8.85 0 001.23 2.62 4.39 4.39 0 001.45 1.28 9.1 9.1 0 00.9.4 4.64 4.64 0 00.7.19 28.26 28.26 0 005.07.62c3.29.16 6.63.11 10 0s6.64-.33 9.83-.61l2.4-.25a4.86 4.86 0 002.06-.59 3.67 3.67 0 001.28-1.71 8.62 8.62 0 00.49-1.52c.1-.42.18-.82.25-1.21.15-.79.24-1.55.33-2.3 0-.28 0-.54.07-.81 15.05-.53 28.77-1.3 40.85-2.3.2 1 .43 2.1.77 3.24a10.65 10.65 0 00.77 2 4.7 4.7 0 00.94 1.3 3.66 3.66 0 001.43.69c.35 0 .74.07 1.11.07h5.38c2.34 0 5-.1 7.65-.25 2.49-.13 4.95-.31 7.39-.57a32.73 32.73 0 007.53-1.51 8.25 8.25 0 001.29-.76 5.77 5.77 0 001-1.16 8.45 8.45 0 00.88-2.13 19.13 19.13 0 00.49-3.76v-1.86c2.86-.55 5.52-1.12 7.94-1.73q.15 3.87.19 7.79a257.7 257.7 0 01-1.45 28.61zm-117.33-35.94c0-.54.08-1 .13-1.55l.15-1c-.22-.34 2-.79 3.36-1.07 1.47-.29 2.83-.51 4.08-.71l6.58-.93h6.82c1.3 0 2.7.06 4.24.14.77 0 1.56.11 2.38.19.4 0 .8.1 1.19.18s.3.07.46.17.06.14.14.51.13.91.17 1.42c.08 1 .09 2.18.07 3.38a65.18 65.18 0 01-.63 7.79c-.1.67-.21 1.36-.35 2l-.23 1a5.25 5.25 0 01-.2.62h-.11l-2.26.19c-3.11.22-6.35.4-9.64.52s-6.59.19-9.68.09a26.15 26.15 0 01-4.25-.4c-.13 0-.33 0-.41-.08a.22.22 0 00-.14-.05c-.14 0-.09-.07-.23-.18a4.91 4.91 0 01-.66-1.36 28 28 0 01-1-7.46c-.07-1.15-.05-2.33.02-3.41zm76.55-6.67c.06-.71 0-.63.12-.86a.82.82 0 01.41-.2c.36-.1.74-.19 1.12-.27.76-.15 1.52-.28 2.24-.38 1.46-.21 2.8-.37 4-.5l6.48-.62c3.11.13 6.55.29 10.2.64.91.09 1.84.19 2.74.33.46.07.9.16 1.32.25s.35.11.51.2a3.33 3.33 0 01.15.56c.13.42.2.9.3 1.36.17.95.31 1.93.4 2.94a37.33 37.33 0 01.1 6.17 16.09 16.09 0 01-.47 2.91 5.33 5.33 0 01-.44 1c-.07.14-.11.08-.13.18a.35.35 0 00-.22.08 33.45 33.45 0 01-6.36 1.07c-2.34.23-4.74.38-7.18.52l-7.51.29-5.17.09a.07.07 0 01-.08 0l-.17-.41-.24-.67c-.3-.93-.55-1.9-.76-2.84-.42-1.88-.72-3.67-1-5.33s-.38-3.19-.44-4.57c.08-.71.08-1.36.08-1.94zm34.64-20.41c1.92.77 2.31.92 3.2 2.51a25.34 25.34 0 011.94 5.41 94.76 94.76 0 012.1 15.63c-2.41.62-5.09 1.2-8 1.76-.06-.64-.14-1.27-.23-1.89-.15-1.1-.37-2.18-.62-3.24-.15-.54-.26-1.06-.46-1.61a3.43 3.43 0 00-3.31-2.93c-.54-.08-1.07-.14-1.57-.18-1-.08-2-.12-2.94-.13-3.8 0-7.27.15-10.41.4-2-.08-4.07-.11-6.6-.06-1.27 0-2.65.09-4.18.21-.77.06-1.58.14-2.45.26-.43.07-.89.15-1.37.26a4.9 4.9 0 00-2 .91 5.33 5.33 0 00-1.07 2.73 22.25 22.25 0 00-.19 2.31 45.12 45.12 0 00.18 5c.08.86.17 1.75.29 2.66-11.89 1-25.37 1.74-40.15 2.25q.09-2.31 0-4.44a34.06 34.06 0 00-.32-3.73 16.83 16.83 0 00-.38-1.82 4.83 4.83 0 00-1.1-2.23 5.06 5.06 0 00-2.11-.76c-.51-.06-1-.1-1.44-.13-.91 0-1.76-.06-2.56 0-1.61 0-3.05.09-4.38.17-2.64.18-4.83.41-6.87.68-2 0-4.16.07-6.74.24-1.3.1-2.7.22-4.26.42q-1.17.15-2.49.42c-.62.15-2.62.47-3.23 1.94a17 17 0 00-.56 2c-.11.57-.22 1.16-.29 1.76a36.35 36.35 0 00-.32 3.76v2.48h-11.68c0-3.85.09-7.64.38-11.34.35-4.34.95-8.87 2.33-12.08.41-.74.59-1.23 1.05-1.47l.3-.25.57-.29a11.42 11.42 0 011.21-.57 49.21 49.21 0 015.8-1.87c4-1.06 8.13-1.89 12.18-2.61 16.22-2.84 31.54-4.38 45.37-5.58 13.86-.31 29.31-.57 45.6.94a62.49 62.49 0 0111.8 2.1zM395 778.18a35.24 35.24 0 014.69 11.54 61.17 61.17 0 011.38 12.75c-1.39 0-2.78-.06-4.15-.07l-2.28-9.09a33.76 33.76 0 00-3.46-8.8 12.62 12.62 0 00-6-5.28c.13-.21.27-.41.39-.63a16 16 0 001.73-7.88 23.58 23.58 0 017.7 7.46zm-29.49-38.8a33.75 33.75 0 001.28 5.08c.12.43.37.9.55 1.35a6.47 6.47 0 00.77 1.42 5.5 5.5 0 001.27 1.51q.45.38.93.72a.86.86 0 00.18.14 22.9 22.9 0 013 3.37 43.94 43.94 0 012.78 4.18 35.49 35.49 0 014 9.35c.85 3.25.8 6.54-.56 8.93s-4.15 4.13-7.62 5.1a44.07 44.07 0 01-11.41 1.47 42.09 42.09 0 01-11.38-1.14c-3.5-.87-6.19-2.63-7.35-5s-1-5.77-.06-9a37.1 37.1 0 014.39-9.18 31.56 31.56 0 013-3.86c.26-.29.51-.54.74-.77a17.57 17.57 0 001.23-1.38 5.5 5.5 0 00.92-1.55 9.19 9.19 0 00.62-1.54 29.74 29.74 0 00.64-10.79 85.68 85.68 0 00-2.45-13.49 44.23 44.23 0 006.81.67 52.23 52.23 0 006.48-.25 96.56 96.56 0 001.25 14.66zm175.37 159.26c2 17.61 5.54 36.34 8.49 56 .73 4.92 1.32 9.9 1.72 14.9l.14 3.71a12.35 12.35 0 01-.14 3.26 9.38 9.38 0 01-2.89 5.11 9.54 9.54 0 01-2.51 1.64 10 10 0 01-1.42.51c-.49.15-1.24.29-1.85.44l-7.76 1.79c-5.18 1.28-10.48 2.15-15.82 3.1l-4 .71-4.05.51-8.16 1c-5.46.3-11 .93-16.52.72-11-.07-22.41-1.37-32.18-6.06-5.27-2.72-9.72-6.67-11.78-11.65s-1.51-10.73.77-15.67a31.44 31.44 0 0110.58-12.34c1.17-.71 2.23-1.57 3.45-2.16l3.62-1.76a42.65 42.65 0 017.61-2.17l1.91-.38c.64-.09 1.29-.1 1.93-.15 1.29-.07 2.56-.21 3.83-.22 2.54.24 5.06.12 7.47.75l3.62.7 3.44 1.12a39.8 39.8 0 016.52 2.67 40.33 40.33 0 015.92 3.29l6.53 4 3.68 2.23 1.78 1.09c.27.14.64.45.82.44a2.64 2.64 0 00.72-.15 3.63 3.63 0 001.58-1.1 2.55 2.55 0 00.58-1.2 5.64 5.64 0 00-.09-3.41q-1.95-5.5-3.83-10.78c-.86-2.7-1.71-5.34-2.53-7.92-1.63-5.18-3-10.19-4.3-15-2.57-9.64-4.36-18.6-5.85-26.94a247.89 247.89 0 01-3.91-40.93c14 2.14 27.93 3.53 41.93 4.54a144.17 144.17 0 00-1 20.21c.27 8.2.92 16.74 1.95 25.55zm129.65-7.9c-1.58 8.1-3.48 16.81-6 26.2-1.31 4.69-2.68 9.58-4.32 14.62q-1.23 3.78-2.51 7.73-1.86 5.18-3.79 10.58a5.64 5.64 0 00-.09 3.41 2.46 2.46 0 00.58 1.2 3.42 3.42 0 001.58 1.1 2.65 2.65 0 00.71.15c.2 0 .56-.31.83-.45l1.79-1.09 3.68-2.23 6.53-4a39.64 39.64 0 015.94-3.29l3.18-1.49c1.06-.51 2.23-.77 3.36-1.18l3.45-1.11 3.62-.7c2.42-.64 5-.49 7.49-.75 2.53.22 5.15.12 7.69.79 10.23 1.7 20.56 8.49 25.22 18.56 2.29 5 2.85 10.75.61 15.68s-6.61 8.9-11.92 11.58c-9.69 4.61-21 5.9-31.87 6-5.48.21-11-.41-16.36-.69l-8.08-1c-2.68-.31-5.35-.66-8-1.19-5.29-1-10.54-1.77-15.67-3l-7.68-1.74-1.91-.43a10.17 10.17 0 01-1.51-.45 9.56 9.56 0 01-5.76-6.36 9.66 9.66 0 01-.3-3l.13-3.67c.33-4.93.93-9.86 1.64-14.73 3-19.48 6.53-38 8.6-55.44 1-8.72 1.7-17.18 2-25.3a140.65 140.65 0 00-1.1-20.51c6.85-.26 13.7-.58 20.54-1.06 7.4-.53 14.8-1.17 22.2-2.11-.28 11.63-1.8 24.56-4.5 39.37zm180.75-429.51A132 132 0 01835 479.54c-11.92 11.25-25.85 20.34-40.62 27.65A237.36 237.36 0 01747.8 524a261.51 261.51 0 01-49 7.6l-2.93.16 1 2.77a78.47 78.47 0 013.29 12.15c.85 4.19 1.57 8.44 2.21 12.7 1.29 8.52 2.32 17.09 3.23 25.69 1.82 17.19 3.16 34.44 4.25 51.71 2.25 34.53 3.64 69.14 3.78 103.73 0 17.29-.2 34.58-1.21 51.79-.52 8.59-1.21 17.18-2.43 25.6a102.66 102.66 0 01-2.48 12.33 28.09 28.09 0 01-2.06 5.41 7.81 7.81 0 01-1.24 1.71c-.74.4-1.28.9-2.12 1.3-3.33 1.71-7.58 2.65-11.6 3.63s-8.33 1.55-12.57 2.14c-8.47 1.17-17.06 1.88-25.65 2.46-17.19 1.14-34.47 1.48-51.74 1.47-34.5-.2-69.21-1.37-103.21-6.4-8.43-1.39-16.93-2.94-24.76-5.65a38.26 38.26 0 01-5.51-2.38 9.18 9.18 0 01-2.15-1.37 13.6 13.6 0 01-1.74-2c-2.23-3-3.76-7-5.07-10.86a158.51 158.51 0 01-5.43-24.89c-1.26-8.49-2.17-17.06-2.91-25.65-2.79-34.4-3.18-69.06-3-103.67s1-69.28 2.6-103.86l.19-4.11-3.08 2.61A157 157 0 00416 592.45a204.85 204.85 0 00-21.54 38.83 268.68 268.68 0 00-13.86 42.16 275.2 275.2 0 00-7 42.34 18.07 18.07 0 01-2.47 1.15 28.69 28.69 0 01-4.21 1.17 42.44 42.44 0 01-9.05.69 32 32 0 01-8.77-1.26 14.86 14.86 0 01-3.67-1.68 9.61 9.61 0 01-1.42-1.12c-.16-.17-.3-.33-.44-.5a355.28 355.28 0 0112.52-62.87 288.86 288.86 0 0125.22-59.88 251.91 251.91 0 0139-51.82 222.92 222.92 0 0124.39-21.36 162.17 162.17 0 0125.64-16.06l1.37.63c-4.12 12-16.3 57.18 3.78 126.18-7.19 2.62-12.38 7.17-15.42 13.65-10.58 22.56 10.12 60.29 11 61.88l3-1.65c15.09 42.61 21.81 60.17 32.67 64.3a14 14 0 005.06.92 22.7 22.7 0 007.87-1.65 5 5 0 005 1.64c3.32-.88 5-3 4.55-6.23s-3.09-5.43-6.23-4.47-5.28 2.57-4.86 5.78c0 .17.08.34.12.51-4.28 1.52-7.6 1.71-10.44.63-9.61-3.65-16.53-22-31-62.94l2.36-1.31c-5.39-9.73-17.84-38.32-10.71-53.51 2.55-5.44 7.43-8.78 14.91-10.19 33.1-6.25 49.27 43.59 49.42 44.1l3.18-1c15.29 40.18 21.81 58.49 16.88 67.49-1.27 2.31-3.41 4.13-6.72 5.63a4.51 4.51 0 00-5-1.59c-2.73.83-4.67 2.14-4.89 4.54h-.07l.06.3a7.16 7.16 0 000 .91 6.27 6.27 0 00.48 1.63v.17a5.22 5.22 0 006 3.13c3.33-.88 5-3 4.56-6.23 4-1.78 6.6-4 8.23-7 5.59-10.16-.64-27.83-16.69-69.86l2.67-.84a110.31 110.31 0 00-13.86-27.57c-12.85-18.2-28.74-26.11-46.06-22.82h-.22c-19.16-65.87-7.89-110.13-4-122 4.68 1.94 9.38 3.65 14.05 5.14q-2.69 7.26-5.79 15.61l-3.79 10.5c-.65 1.81-1.3 3.66-2 5.52l-1 2.83c-.5 1.47-1 3-1.51 4.45l-.41 1.33-.21.67h13.95l13.13-.06h2.4v.06c-.28 1.9-.57 3.82-.85 5.75-.65 4.57-1.31 9.22-2 13.92q-.49 3.53-1 7l-.24 1.74-.19 1.4-.12.87c-.05.29-.14.6.17.75l3.41 3.07 10.2 9L535 611.82c12.29 10.71 23.52 20 32.8 27.67l.64-.72c-8.6-8.42-19-18.62-30.94-29.73l-18.81-17.46-10.06-9.21a85.65 85.65 0 00-1.76-1.59c-.09-.09-.07-.07 0 0l.05-.33.25-1.74q.48-3.48 1-7l1.89-13.93q.53-4 1.05-7.87a21.37 21.37 0 00.32-3.2h-3.34l-4.33.11-13.12.39-6.34.21-2.14.08c-.14 0-.38.09-.27-.12a1.8 1.8 0 01.08-.21s0-.07.13-.39l.22-.72c.3-1 .59-1.91.89-2.86.57-1.9 1.14-3.76 1.71-5.6 1.09-3.69 2.16-7.26 3.18-10.71q2.47-8.56 4.63-16 5.89 1.84 11.73 3.26c6 10.59 33.44 58.54 62.67 108.41 1.15 2 1.45 2.41 1.69 2.41a.45.45 0 00.22-.09c.37-.21.42-.24-1-2.83-7.41-13.47-14.75-26.72-21.67-39.17a1.87 1.87 0 00.36-1.08 152.14 152.14 0 017.2-26.29 116.62 116.62 0 015.76-12.83l.47.14a47 47 0 0012.48 1.52 43.94 43.94 0 0012.31-1.62 111.29 111.29 0 014.72 12.18 153.56 153.56 0 015.88 25 2 2 0 00.34 1c-7.23 13-15 27-22.7 41.06-1.43 2.59-1.38 2.62-1 2.83a.45.45 0 00.22.09c.24 0 .53-.44 1.69-2.41 29.64-50.63 57.65-99.7 63-109 .3-.52.5-.89.65-1.17 3.42-1 6.87-2 10.31-3.23l5.06 17.7 3.16 10.68c.55 1.83 1.12 3.7 1.69 5.59.29.94.58 1.9.88 2.85l.22.73c.08.26.16.5.15.46a1.38 1.38 0 01.1.22c.1.2-.08.16-.25.13l-2-.08-6.33-.21-13.08-.39-4.14-.11-3.33-.06c-.84-.26-.33.67-.36 1.13l.22 1.65q.53 4 1.08 8.08c.62 4.56 1.25 9.2 1.89 13.89.33 2.34.66 4.68 1 7 .11.75.29 2.06.34 2.38 0 .11 0 .09 0 0s0 0-.25.22l-1.28 1.17q-5.07 4.71-10 9.24L604.11 609c-11.85 11.14-22.2 21.33-30.74 29.77l.76.83c9.2-7.72 20.3-17.09 32.49-27.85l19.17-17 10.12-9.07 1.28-1.16 1-.94.63-.59c.17-.21.56-.34.4-.67-.2-1.51-.41-3-.62-4.55q-.46-3.46-1-7-1-7-2-13.88-.4-2.77-.81-5.51s0-.06 0 0h2.57l13.08.06h13.34c.74.2.25-.51.19-.89l-.41-1.33c-.5-1.46-1-2.91-1.48-4.36l-1-2.82c-.66-1.86-1.32-3.69-2-5.5-1.31-3.6-2.59-7.1-3.81-10.46-2.33-6.21-4.48-12-6.46-17.26 4.18-1.47 8.36-3.11 12.53-5 5.92 6.83 27.93 42.94 3.42 184.5-.53.07-1.05.14-1.56.24a39.65 39.65 0 00-14.28 4.16 19.16 19.16 0 00-6.56 5.83 19 19 0 00-3.17 8.89 26.66 26.66 0 005.35 19 23.16 23.16 0 008.43 6.82 21.09 21.09 0 0011.14 1.88 33.81 33.81 0 0010.56-2.79 22.7 22.7 0 008.56-6.71 22.32 22.32 0 004.05-9.63 29.33 29.33 0 000-9.76 22.46 22.46 0 00-9.29-15 18.84 18.84 0 00-7-2.84c23.2-134.66 4.75-176-3.89-187.29 1.81-.89 3.62-1.81 5.42-2.78l23.21-1.07c8.35-.81 16.69-1.9 25-2.85l12.38-2.4a123.72 123.72 0 0012.33-2.7l12.39-3.32 3-.87 3-1.1 5.94-2.19c15.78-5.91 31.1-13.65 44.47-24.24 3.2-2.81 6.57-5.43 9.62-8.41a115.63 115.63 0 008.73-9.38 84.93 84.93 0 0012.3-18.87 39.67 39.67 0 014.23 2.68 46.49 46.49 0 016.21 5.35 41.41 41.41 0 015.14 6.3 28.38 28.38 0 011.93 3.42c.27.58.51 1.17.72 1.75.08.21.15.46.22.69a132.49 132.49 0 01-12.06 20.1zM670.22 690.72a16.77 16.77 0 016.29 2.95 19.78 19.78 0 017.33 13.22c.7 5.43-.16 11.72-3.72 16.27s-9.78 7.06-16.27 7.72a17.93 17.93 0 01-15.83-7 23.36 23.36 0 01-5-16.11 15.51 15.51 0 017.55-12.58c4.19-2.64 8.89-3.88 13.1-4.82a21.5 21.5 0 016.55.35zm215.68-290c-7 6.06-13.6 11.79-16.82 15.6-1.4 1.65-3.41 5.42-6.55 11.5-.9-1.07-1.83-2.1-2.8-3.1a52.5 52.5 0 00-7-6l-.11-.08c5.64-12.31 7.28-19.64 5.83-25.68a102.92 102.92 0 00-3.72-10.8c-2.26-5.93-6.46-17-4.67-18.91.18-.19.93-.38 2.66.14 5.19 1.54 6.16 6.65 7 11.17.68 3.62 1.57 8.1 5.83 7.58 3.53-.44 5.59-5.83 9.22-16.13 2.39-6.79 5.67-16.1 8.36-17.38a.43.43 0 01.39 0 .74.74 0 01.46.42c1 2.22-1.45 8.88-3.25 13.75-2.83 7.62-5.06 13.64-1.27 15.9 4.1 2.45 7.52-3 11.48-9.37 2.24-3.59 5.62-9 7.5-9.33.09 0 .16 0 .36.14 2 1.54-4.15 11-6.76 15.09-4.11 6.4-6 9.58-5.2 12a3 3 0 001.93 1.87c3.17 1 6.67-2 11.09-5.75 2.68-2.31 7.6-6.5 9.1-5.7-.46 3.4-14.57 15.65-23.06 23.02z"/></svg>