<svg xmlns="http://www.w3.org/2000/svg" viewBox="0 0 1600 1000"><defs><style>.cls-1{fill:#ebe8f5}.cls-14,.cls-2{opacity:.1}.cls-14,.cls-3{fill:#7867ab}.cls-4{fill:#fff}.cls-5{fill:#efdd7f}.cls-8{fill:#fadccd}.cls-9{fill:#ee7723}.cls-10{fill:#c3bca2}.cls-12,.cls-13{fill:#1c1c1c}.cls-12{fill-rule:evenodd}</style></defs><g id="Layer_2" data-name="Layer 2"><g id="export"><g id="mala-carodejka-cover"><path class="cls-1" d="M0 0h1600v1000H0z"/><g class="cls-2"><path class="cls-3" d="M924.53 377.55c59.79 46.51 94.38 117.15 108.71 197.93 14.41 80.62 8.68 171.34-38.4 208.47S859.63 804.66 791.06 781s-117.5-54.59-146-99.35-36.5-103.6-24.91-171.83S663 364.13 721.22 336.52s143.41-5.44 203.31 41.03z"/></g><path class="cls-4" d="M917.17 264.53c72.61 56.47 114.61 142.27 132 240.37 17.5 97.9 10.54 208.07-46.62 253.16s-164.2 25.14-247.48-3.54-142.7-66.29-177.29-120.65-44.32-125.81-30.25-208.66 52-177 122.72-210.51 174.17-6.6 246.92 49.83z"/><g class="cls-2"><path class="cls-3" d="M1291.73 319.06c34.27-4.28 68.2 7.34 98.86 28.76s58 52.45 54.84 79.59-36.92 50.27-66.64 64.77-55.49 20.28-79.1 15-45.17-21.63-63.43-47.36-33.18-60.8-23.31-88.47 44.49-47.96 78.78-52.29z"/></g><g class="cls-2"><path class="cls-3" d="M377.48 537.82c41.15 32 65 80.64 74.83 136.24s6 117.94-26.43 143.49-93.07 14.26-140.27-2-80.88-37.55-100.49-68.39S160 675.86 168 628.89s29.48-100.31 69.56-119.31 98.69-3.75 139.92 28.24z"/></g><g class="cls-2"><path class="cls-3" d="M487.51 232.85c3.09 19.31-2.83 38.73-14.35 56.49s-28.53 33.86-44 32.58-29.11-19.92-37.89-36.44-12.56-31-10-44.45 11.36-26 25.56-36.81 33.74-20 49.59-14.91 27.97 24.23 31.09 43.54z"/></g><g class="cls-2"><path class="cls-3" d="M1420.75 597.56c2.92 18.27-2.68 36.66-13.58 53.47s-27 32.05-41.61 30.84-27.56-18.87-35.91-34.49-11.89-29.34-9.52-42.08 10.75-24.59 24.2-34.85 31.94-18.89 46.94-14.11 26.52 22.93 29.48 41.22z"/></g><g class="cls-2"><path class="cls-3" d="M1197.13 736.94c-6.59 7.76-16.28 12-27.2 13.43s-23 .16-27.76-6.37-2-18.27 1.59-27.34 8-15.45 14.19-19 14.12-4.29 23.21-2.34 19.31 6.61 22.67 14.58-.11 19.28-6.7 27.04z"/></g><path class="cls-5" d="M1072.19 301.16a55.61 55.61 0 018.19 3.46 50.56 50.56 0 01-8.57.75h-1.08l-.18 1.08a106.58 106.58 0 01-2.23 11.45 76.2 76.2 0 01-.23-11.22l.05-1.1-1.08-.21a43.9 43.9 0 01-6.57-1.82 38.18 38.18 0 017.42-.84l1.1-.06.13-1.07a67.58 67.58 0 012-10.43 59 59 0 01.21 8.71l-.06 1zm-6.39-46.9a72.31 72.31 0 0110.83 4.13 68.56 68.56 0 01-11.5.93h-1.07l-.18 1.06c-.9 5.46-2.29 11.7-3.32 14.27-.64-2.62-.82-8.7-.56-14v-1.13l-1.1-.21a59.92 59.92 0 01-8.94-2.23 52.7 52.7 0 0110.12-1.1h1.08l.12-1.08c.72-5.11 2-10.93 3.06-12.88.51 1.74.74 6.28.49 11l-.05 1z"/><path d="M1046 286l.59.08h-.62l-.08.1-.1.18-1.08 2.05c-1.67 3.21-3.42 6.39-5.14 9.55-.79 1.47-1.61 2.93-2.41 4.39a29.83 29.83 0 00-7-3.64c.31-.57.62-1.16.92-1.75 1.72-3.16 3.44-6.37 5.21-9.5l1.34-2.36a5.42 5.42 0 00.51-.82c.16-.26.23-.59.59-.72a5.07 5.07 0 013.9-.67 4.59 4.59 0 013.16 2.11 1.69 1.69 0 01.21.67v.3z" fill="#563b22"/><path d="M1035.87 304.65c-2.21 4-4.39 8-6.55 11.91-6.7 12.17-13.14 23.87-19.27 35-12.17 22.31-23.13 42-31.6 58.86a43.15 43.15 0 00-7.42-.69c8.8-16.51 19.4-36.45 31.31-58.76 5.93-11.22 12.2-23 18.69-35.27 2.59-4.83 5.19-9.7 7.86-14.66a26.89 26.89 0 016.98 3.61z" fill="#b2a192"/><path class="cls-5" d="M1014.61 252.77c5.81 1.8 12.4 4.29 14.43 5.7-2.31.77-9.29 1.33-15.35 1.41h-1.08l-.15 1.08c-1.29 7.65-3.26 16.38-4.6 19-1.05-2.83-1.33-11.27-1-18.74l.05-1.13-1.1-.21c-4.78-.85-10.22-2.23-12.17-3.23 2.18-.82 8.31-1.52 13.68-1.67h1.08l.15-1.06c1-7.41 3-15.88 4.16-17.14.9 1.38 1.34 7.9 1 14.76l-.06 1z"/><path class="cls-8" d="M982.66 415c.07.15.35.64-.44 1.8-2.05 3-6.83 4-10.63 3.62-2.77-.29-5.11-1.24-6.34-2.57v-.08l-.13-.05a1.7 1.7 0 01-.31-.41 6.14 6.14 0 004.78-2.57 6.7 6.7 0 001.18-2.43c4.83.03 10.86.8 11.89 2.69zm-3.83 7.14c.64 1.41 1.34 3.49.8 4.6-.11.2-.39.77-1.67 1-5.16.82-13.76.59-16.48-2.08a2.41 2.41 0 01-.75-2.23 4 4 0 011.44-2.9 2.61 2.61 0 011.72-.39 13.37 13.37 0 007.44 2.8 14 14 0 001.85.1 17.46 17.46 0 005.65-.9zm-1.44 8.27a3 3 0 01.82 2.15c-.15.77-1.15 1.29-2 1.6-3.69 1.43-13 .92-15.22-2-.26-.31-1-1.29.44-3.34 2.85 1.49 7 1.93 10.57 1.93a49.35 49.35 0 005.39-.34z"/><path class="cls-9" d="M971.67 648.42c.26.44.49.85.72 1.26a3.17 3.17 0 01-.34.28l-3.18 2.42c-4 2.85-7.73 5.39-11.68 7.83-4.67 2.8-10 5.95-15.94 7.65a21.07 21.07 0 01-9.27.41 12.37 12.37 0 01-7.75-4.49 7.54 7.54 0 01-1-1.7v-3.31a103.24 103.24 0 00-1.23-12.42 180.63 180.63 0 00-6.16-25.93c-.41-1.31-.72-2.11-1.44-1.9s-.56 1-.23 2.36a217.83 217.83 0 014.52 25.9 113 113 0 01.69 12c0 .85 0 1.67-.05 2.44a46 46 0 01-.92 8.27l-.26 1.23a3.92 3.92 0 01-.23.82v.13a2 2 0 01-.39.64 2.19 2.19 0 01-.48.51 9.71 9.71 0 01-3.34 1.75 39.26 39.26 0 01-7.5 1.59c-3 .41-5.62.67-7.47.85-.33 0-.64.07-.92.1 0-1.28-.16-2.57-.23-3.83-.67-9.39-1.59-18.4-2.62-27s-2.23-16.86-3.62-24.66c-.69-3.91-1.44-7.71-2.29-11.38a94.63 94.63 0 00-1.43-5.44c-.26-.87-.57-1.77-.9-2.67a11.71 11.71 0 00-1.52-2.87 6.14 6.14 0 00-2.25-1.52 7.42 7.42 0 00-1.13-.41c2-19.76 2.92-43.74-1-70.18-.52-3.44-1.16-6.91-1.85-10.42l-.26-1.21v-.15c-.08-.13.12-.13.15-.16l4.59-1.77 5.16-2c1.7-.75 3.37-1.57 5.06-2.36A112.4 112.4 0 00903.8 504a162.11 162.11 0 0018.92-12.12c.23 1.8.53 4.11 1 6.88.51 3.34 1.18 7.27 2 11.63 2.13 11.22 4.73 22.82 7.73 34.5 4.39 17 9.14 32.78 14.5 48.18 3.57 10.22 7.14 19.56 10.91 28.52.67 1.65 1.39 3.26 2.13 4.88.39.87.8 1.77 1.18 2.65 1.11 2.51 2.26 5.08 3.55 7.67l1.31 2.62c.82 1.72 1.64 3.44 2.56 5.13z"/><path class="cls-8" d="M968 409.54a4.59 4.59 0 01-.57 3.7 3.81 3.81 0 01-3.44 1.84 7.16 7.16 0 01-4.28-1.82c-.7-.54-1.47-1.18-2-.59s.18 1.26.82 1.87a8.69 8.69 0 004.72 2.62l-1.2.52v.1a4.11 4.11 0 00-1.31.56 6.33 6.33 0 00-2.62 4.73 5 5 0 001.26 4.18c-2.23 3.16-1.23 5.37-.44 6.44 1.59 2.08 4.91 3.19 8.4 3.6a36 36 0 01-4.62 2.67 1.38 1.38 0 01-.13-.28 14.22 14.22 0 00-2.31-2.8 19 19 0 00-2.47-1.93 36.06 36.06 0 00-5.1-2.8c-.88-.38-1.75-.74-2.62-1.1l-1.31-.49a2.81 2.81 0 01-.31-.1c.2-1.46.51-3.72 1.08-6.57a62.6 62.6 0 013.77-13.25c1-2.21 2.36-4.85 4.44-5.77a2.78 2.78 0 011.39-.23l2.21.28a12.46 12.46 0 014.1 1.46 5.18 5.18 0 012.54 3.16z"/><path class="cls-10" d="M957.91 442.14a1.17 1.17 0 00-.08.2c-.33.78-.74 1.57-1.13 2.37a93.88 93.88 0 01-5.39 9.37 125.49 125.49 0 01-13.81 17.43 139.89 139.89 0 01-15.17 13.83 161 161 0 01-21.07 14.07c-3.19 1.92-6.52 3.47-9.81 5.06-1.64.79-3.26 1.61-4.9 2.36s-3.34 1.33-5 2c-1.83.74-3.62 1.46-5.42 2.21-1.44.74-4 .82-2.77 2.9l.87 3.82c.74 3.39 1.44 6.78 2 10.14 4.31 25.6 4.13 49.16 3.1 68.77-.72-.18-1.43-.3-2.15-.46-2.42-.43-4.78-.77-7.06-1.05-4.57-.54-8.91-.93-13-1.23-8.29-.59-15.74-.95-22.59-1.21-13.71-.49-25-.62-35.76-.67-10.37-.25-21.33-.43-34.6-.38-6.65 0-13.87.13-21.9.43-4 .16-8.22.36-12.68.7-2.24.18-4.52.41-6.88.72-1 .15-2 .3-3.06.54-.18-12 1.29-25.75 4-41.38q2.08-12.13 5.21-25.85 1.59-6.86 3.39-14.17c.62-2.42 1.26-4.88 1.9-7.4q1.54-5.53 3.13-11.32h-.46a28.61 28.61 0 00-7.54 1.08c-.52.2-1.06.38-1.6.56l-1.18.46c-.79.36-1.61.72-2.44 1.11a76.89 76.89 0 00-10.06 5.96 70.78 70.78 0 00-10.27 8.44 31.78 31.78 0 00-2.38 2.8 9.48 9.48 0 00-1.88 3.93 8.12 8.12 0 00.85 4.44 19.21 19.21 0 002 3.31 48.42 48.42 0 005.72 6.49c.93.93 1.85 1.75 2.65 2.49.36.31.69.59 1 .88-2 2.31-3.62 4.21-5 5.8-.82.95-1.57 1.8-2.26 2.59-.15.18-.31.39-.49.57l-.26-.21-1.72-1.44c-1.16-1-2.28-1.92-3.39-2.87-2.23-2-4.41-3.88-6.49-5.85-2.49-2.31-4.91-4.68-7.14-7.06a1.05 1.05 0 00-.64-.67 91.196 91.196 0 01-3.72-4.29c-.85-1-1.57-2.1-2.37-3.15a30.2 30.2 0 01-1.84-3.21 13 13 0 01-.7-1.62c-.1-.49-.23-1-.38-1.52a4.92 4.92 0 01.87-2.43c2.54-3.83 6.57-7.06 10.27-10 1.44-1.13 2.9-2.21 4.34-3.26 6.16-4.52 12.32-8.47 18.15-12.14q10.2-6.31 19.2-11.48a93.53 93.53 0 007.6 6.42c1.9 1.31 3.85 2.54 5.72 3.8.95.62 1.85 1.28 2.85 1.82l3 1.54c2 1 3.88 2.13 5.85 3l5.93 2.41a40.77 40.77 0 005.88 2c2 .6 3.88 1.19 5.78 1.75 3.87.77 7.62 1.64 11.27 2.18 3.67.36 7.19.88 10.57 1s6.63.13 9.71.18a126.3 126.3 0 0047.28-8 104.69 104.69 0 0015-6.78c.18.31.39.67.59 1l.77 1.54c.36.85.8 1.77 1.26 2.82.85.06 1.75-.05 2.65-.07.66-.05 1.33-.13 2-.21 1.26-.23 2.54-.36 3.82-.67a70 70 0 007.7-2.15 89.2 89.2 0 0015.48-7.09 136.14 136.14 0 0026-19.76c1.23-1.18 2.46-2.39 3.67-3.62s2.36-2.39 3.54-3.6 2.26-2.54 3.41-3.82c2.21-2.59 4.62-5.14 6.7-8 1.08-1.36 2.16-2.77 3.26-4.16l1.49-1.92s0-.08.1 0l1.49.57c.77.3 1.57.64 2.31 1a31.72 31.72 0 014.34 2.41 16.22 16.22 0 011.8 1.44 8.55 8.55 0 01.72.77c.2.2.43.61.46.61z"/><path class="cls-3" d="M948.74 333.07a37.57 37.57 0 01-.12 11.5 65.71 65.71 0 01-7.47 21.07 102.87 102.87 0 01-10.91 16.28 21.34 21.34 0 00-4.68-1.44 27.35 27.35 0 00-15.32 1.72q-1.35-3.81-3-7.32a90.08 90.08 0 00-10.19-16.53 17.25 17.25 0 001.77-2 7.45 7.45 0 00.66-1.05l.24-.44a5.25 5.25 0 00.41-2 13.3 13.3 0 00-.47-3 30.47 30.47 0 00-4.33-9.27 36.85 36.85 0 00-5.5-6.44 91.27 91.27 0 0110.83 4.41c4 2 7.68 4.26 10 7.14a5.91 5.91 0 011.67 4.46 6.93 6.93 0 01-2.44 4 13.53 13.53 0 00-1.23 1.08 9.38 9.38 0 00-1 .82c-.57.52-.85.93-.75 1.13s.59.21 1.36 0a12.52 12.52 0 001.34-.48c.46-.26 1-.57 1.57-.95a9 9 0 003.74-5.16 8.63 8.63 0 00-1.69-6.81c-2.65-3.82-6.52-6.49-10.6-9-8-4.62-17.36-8.06-27.55-10.93-.36-.13-.74-.23-1.13-.34-21.28-5.72-46.15-8.67-72.51-8.29-24.34.47-47.37 4.78-66.8 12.25-1.67.61-3.31 1.28-4.93 2-10.19 4.34-19.3 9.55-26.44 16.05-3.54 3.23-6.65 6.83-8.39 11a14.22 14.22 0 00-1.26 6.55 10.86 10.86 0 002.13 5.85 18.37 18.37 0 001.26 1.39 7.29 7.29 0 001.18.82c.69.41 1.16.51 1.31.33s0-.64-.44-1.26c-.2-.3-.46-.66-.74-1.05s-.54-.9-.85-1.36c-1.72-2.87-1.59-6.57.28-9.91s4.8-6.42 8.24-9.19a65.8 65.8 0 016.76-4.64 34.69 34.69 0 00-5.88 10.06 15.59 15.59 0 00-1.08 7.06.86.86 0 010 .23 2.28 2.28 0 00.24 1l.15.36a7.71 7.71 0 00.46.9l.28.34a8.94 8.94 0 001.08 1.12 21.6 21.6 0 002.29 1.78 103.08 103.08 0 00-6.16 15.6 27 27 0 00-16-2 18.42 18.42 0 00-9.29 4.42 9.78 9.78 0 00-1.33 1.48 79.28 79.28 0 01-7.63-16.53 56.32 56.32 0 01-2.72-22 42.09 42.09 0 018.7-21.56 61.83 61.83 0 0119.72-15.86c1.87-1.16 4-1.95 6-3l3.12-1.46 3.21-1.24c2.15-.79 4.26-1.69 6.47-2.41s4.46-1.36 6.72-2.05 4.55-1.26 6.88-1.82c.59-.16 1.18-.29 1.77-.44q2.58-.66 5.24-1.28c4.75-.88 9.55-1.88 14.43-2.65a430.67 430.67 0 0146.92-4.47q7.17-.3 14.45-.43c20.33-.34 40.2.05 59.15 2 .82.05 1.61.15 2.41.23 2.46.28 4.9.52 7.34.85s4.8.77 7.19 1.13c4.83.64 9.42 1.85 14 2.82 9.09 2.36 17.89 5.08 25.65 9.24s14.53 9.53 18.35 16.53l1.39 2.62a24 24 0 011 2.75 28.49 28.49 0 011.47 5.69zm-2.51-97.7a43.07 43.07 0 01.87 9c-.1 1.93-.28 5.52-1.9 6.09a5 5 0 01-2.87-.49 20.46 20.46 0 01-3.75-2.16 60.59 60.59 0 01-7.21-6 189.48 189.48 0 01-13.25-14.14c-7.52-8.8-15.25-18.66-24.26-31-2.26-3.16-3.69-5.14-4.7-6.34a38.51 38.51 0 006.17-11.66c.43-2.13.64-3.34-.47-3.59s-1.49.92-2 2.87c-1.6 4.29-4.5 8.06-7.42 11.5a104.64 104.64 0 01-8.76 8.88c-3.08 2.8-5.64 4.91-7.24 6.17-.79.66-1.54 1.2-2.13 1.66l-.89.65a16.06 16.06 0 00-2-2 15.31 15.31 0 00-9.14-3.72.85.85 0 00-.44 1.64 19.23 19.23 0 018.86 8.63c0 .35 0 .64-.05.87l.08.33c.15.44.35 1 .43 1.34l.44 1.61c.1.41.2.8.28 1.21.28 1.26.57 2.52.77 3.77.44 2.44.82 4.91 1.1 7.37.65 5 1 9.73 1.31 13.53.47 7.21.77 14.32.9 21.74.1 5.55.16 10.09.16 13.74a226.76 226.76 0 00-40.18-5.19 21.25 21.25 0 00-.79-6.55 16.6 16.6 0 00-8.73-9.7 31.65 31.65 0 00-13.66-2.9 25.94 25.94 0 00-13.68 3.31 17.08 17.08 0 00-7.75 10.45 25.5 25.5 0 00-.7 5.42c-21.12 1.2-36.16 6.08-43.51 9 5.78-9.52 14.1-23.05 24.7-39.61 7.83-12.17 16.43-25.39 26.23-39.4l7.81-10.91c1-1.29 2-2.59 3-3.9 1.78-2.37 3.6-4.8 5.52-7.17l4.52-5.52c1-1.18 2-2.28 3.06-3.38.59-.65 1.2-1.31 1.82-2a26.11 26.11 0 013.44-3.28l1.72-1.52a22.26 22.26 0 012.8-2.2l3.54-2.6c8.11-5.9 16.51-12 25.62-17.17 11.45-6.49 20.94-9.37 29.85-9 .49.06 1 .11 1.52.13.82.08 1.64.13 2.38.26a12 12 0 013 1.15 34.84 34.84 0 016.24 4.83 97.44 97.44 0 0111 13.12 242.14 242.14 0 0118.58 30.78 273.4 273.4 0 0114.81 34.06 124.77 124.77 0 014.95 17.99z"/><path class="cls-8" d="M935.83 395.42c.54 6.37-3.82 11.76-8.7 14.3a19.82 19.82 0 01-7.55 2.33 19.47 19.47 0 01-5.16-.23c.08-1.61.18-3.23.26-4.82 0-2.39-.15-4.75-.38-7.06a68.42 68.42 0 00-1.47-8.78c2.49-.93 6.16-2.47 10.32-2.31a11 11 0 012.8.43 9.81 9.81 0 011.57 6c-.11 2.95-1.19 5.57-1.65 7.29a.29.29 0 00.11.36c.1.08.23 0 .33-.1a12.75 12.75 0 003-7.47 8.61 8.61 0 00-1.05-4.67 4.24 4.24 0 00-.47-.72 8.49 8.49 0 011.16.61 15.79 15.79 0 013.57 3.24c.15.18.31.28.41.23s.13-.26 0-.46a10.47 10.47 0 00-3.18-4.19 11.41 11.41 0 00-6.58-2.38 15.77 15.77 0 00-6.77 1.3 19.43 19.43 0 00-3.8 2.11c-.54-2.28-1.16-4.49-1.88-6.62a28.79 28.79 0 0114.12-.34 16.14 16.14 0 017.5 3.93 12.17 12.17 0 013.49 8.02z"/><path class="cls-9" d="M919.69 414.47a7 7 0 00.79 0c-1.56 9.76-2.59 28 .26 43.38a138.64 138.64 0 01-24 19.13 90.61 90.61 0 01-14.66 7.31 65.26 65.26 0 01-7.27 2.34c-1.18.36-2.38.54-3.56.8l-1.67.25a5.3 5.3 0 01-1 .08c-.23-.49-.46-.9-.64-1.28-.31-.62-.59-1.13-.88-1.62a11.7 11.7 0 00-.61-1c2.87-1.64 5.75-3.44 8.57-5.36a96.12 96.12 0 0022.67-21.54c6.44-8.63 11.52-18.12 14-28a49.77 49.77 0 001.62-7.37c.23-1.21.43-2.44.66-3.64a29.93 29.93 0 00.29-3.68v-.53a20.2 20.2 0 005.43.73z"/><path class="cls-8" d="M911.22 400.22q.25 3.34.25 6.78c-.15 2.26-.31 4.57-.46 6.9a33.52 33.52 0 01-.33 3.49c-.23 1.18-.47 2.34-.7 3.52a46 46 0 01-1.61 7c-2.44 9.42-7.37 18.49-13.56 26.75a94.47 94.47 0 01-21.74 20.9 113.44 113.44 0 01-24.77 13.29 133.32 133.32 0 01-46.18 9.35c-12.12-.46-27-2.16-42.1-8.47l-5.67-2.44c-1.93-.85-3.73-2-5.63-3l-2.82-1.54c-.95-.51-1.82-1.21-2.72-1.8l-5.47-3.72a94.36 94.36 0 01-19.07-19.76 87.05 87.05 0 01-11.84-24.75c-.59-2.16-1.15-4.29-1.72-6.39s-.71-4.29-1.05-6.39c-.18-1.06-.36-2.11-.51-3.16s-.13-2.11-.21-3.13c-.13-2.11-.25-4.16-.38-6.19a88.21 88.21 0 013.1-22.77 116.14 116.14 0 015.73-16.94 37 37 0 0013.24 4.9 27.62 27.62 0 003.75.26 24.64 24.64 0 004.59-.44l.77-.23a12.44 12.44 0 003.29-1.24 13 13 0 003-2c.31-.26.64-.54 1.05-.83l.31-.25v-.05a41.73 41.73 0 009.91 2.79 46.25 46.25 0 007.39.57c1.52 0 3.06-.08 4.6-.21a42 42 0 007.47-1.36 25.1 25.1 0 004.11-1.56l.28-.16a7.27 7.27 0 001-.54 16.77 16.77 0 006.57 3.6 36 36 0 0010.78 1.51q1.92 0 3.93-.15a34.93 34.93 0 009.06-1.93 13.83 13.83 0 003.75-2 33.35 33.35 0 006.16 2.75 28.64 28.64 0 009.09 1.59 22.75 22.75 0 004.23-.38 14.19 14.19 0 007.83-4 8.4 8.4 0 002-3.21 31.07 31.07 0 004.11 2.42 26.17 26.17 0 0011.35 2.59c.72 0 1.46 0 2.26-.1a27 27 0 008.31-2.13l.31-.13a21.73 21.73 0 003.85-2.16 6.56 6.56 0 002.29-4.36 24.38 24.38 0 0010.52 2.57h.28a21.18 21.18 0 0011.35-3.47c.44-.31.85-.62 1.23-.92a92.24 92.24 0 019.22 16.39 76.52 76.52 0 016.22 24.34zm-30.09 30.55a23.64 23.64 0 004.72-19.36 32 32 0 00-2.92-8.78 20.22 20.22 0 00-1.13-1.9l2.36-3.87-2.16-1.34-1.88 3.06a15.62 15.62 0 00-2.92-2.67l-.62-.41 1.13-3.57-2.44-.8-1 3.13a19 19 0 00-4.55-1.43l.41-4.21-2.54-.26-.41 4.08a39.19 39.19 0 00-4.77-.18h-.59l-.88-4-2.51.54.77 3.65a22.49 22.49 0 00-4.06.72 12.86 12.86 0 00-1.41.46l-2.49-3.55-2.11 1.49 2.16 3.06a25.27 25.27 0 00-3.41 2 4.91 4.91 0 00-.47.36l-3.1-2.64-1.67 1.95 2.75 2.33a24.17 24.17 0 00-7.39 12.73 24.75 24.75 0 00-.2 9.94 21.4 21.4 0 004.41 9.52c4.52 5.75 12 8.91 19.49 9.06a24.12 24.12 0 0019.43-9.11zm-47.82 17.74a1.28 1.28 0 00-2.54-.31c-2 16.35-16.64 21.77-28.6 21.33-13.5-.41-28.24-8-29-21.26a1.29 1.29 0 00-2.57.16c.88 14.78 16.87 23.23 31.5 23.67h1.23c12.8.02 27.9-6.1 29.98-23.59zM814 433.69a9.65 9.65 0 00.8-5.77 12.73 12.73 0 00-1.52-4.26c-.23-.39-.51-.59-.74-.52a.82.82 0 00-.23.88c.46 2.36.85 5.67-.87 8.26s-5.37 4.06-9.35 4-7.75-1.59-9.52-4.11a7.67 7.67 0 01-1.36-4.13 14.71 14.71 0 01.49-4c.1-.41 0-.77-.21-.88s-.51.11-.74.49a12.44 12.44 0 00-1.65 4.24 9.48 9.48 0 001 5.8c2.15 4 7.08 6.13 12 6.24a16.28 16.28 0 007.06-1.49 10.29 10.29 0 004.84-4.75zm-43.38-8.11a24 24 0 000-10 24.37 24.37 0 00-7-12.66l2.67-2.26-1.67-2-3 2.55a8.38 8.38 0 00-.9-.7 22.47 22.47 0 00-3-1.77l2-2.85-2.11-1.46-2.26 3.21a18.78 18.78 0 00-2-.67 28.51 28.51 0 00-3.59-.72l.66-3.13-2.42-.52-.75 3.49h-1.18a28.45 28.45 0 00-4.36.21l-.36-3.55-2.57.26.41 3.8a21.13 21.13 0 00-4.54 1.72l-1-3-2.44.77 1.13 3.57c-.33.23-.64.48-1 .74a17.86 17.86 0 00-2.57 2.34l-1.87-3-2.19 1.33 2.31 3.75a30.44 30.44 0 00-5.18 10.86 39.08 39.08 0 00-.95 4.77 17.73 17.73 0 00.08 5.24 18.5 18.5 0 004.74 9.63c5.06 5.36 12.58 8.13 20.16 8.21s15.24-2.9 20-8.55a22 22 0 004.75-9.61z"/><path class="cls-10" d="M904 855.27a10.41 10.41 0 01-1.49 6.34c-1.08 2.08-3.08 3.57-5.08 4.88a21 21 0 01-7.11 2.26 21.42 21.42 0 01-3.83.23l-2-.05h-1a4.18 4.18 0 00-.95 0h-.52c-5.49.39-11 .59-16.27.64a126 126 0 01-15.48-.66 29.89 29.89 0 01-6.85-1.47 7.77 7.77 0 01-1.26-.64l-.41-.31c-.11-.13-.21-.28-.31-.41a4.54 4.54 0 01-.82-2.36 31.38 31.38 0 01.23-6.7q.47-3.54.85-7a105.26 105.26 0 00.77-13.68 87.28 87.28 0 00-3-21.59 54.73 54.73 0 006.55.49 42.4 42.4 0 008-.46 70.6 70.6 0 00.11 22.23 68.6 68.6 0 003.51 13.4 31.13 31.13 0 003.47 6.75 9.84 9.84 0 003.34 3.21 4.28 4.28 0 001.54.48l.82.11.54-.05 1.95-.16a24.84 24.84 0 008-1.9 18.37 18.37 0 006.93-5.18c1.85-2.13 3.23-4.34 4.77-5.34a8.17 8.17 0 015.85-.85 12.36 12.36 0 013.32.85 12.81 12.81 0 011.51.67l1.31.92a8.61 8.61 0 013.01 5.35z"/><path class="cls-9" d="M896.35 353a.93.93 0 01-.05.46l-.15.31a2.55 2.55 0 01-.31.54 12.49 12.49 0 01-2.13 2.41 10.89 10.89 0 01-1.13 1 18.15 18.15 0 01-9.52 3.57 22.87 22.87 0 01-10.58-1.83 26.42 26.42 0 00-1.87-8.62 36.33 36.33 0 00-4.68-8.7c-.48-.62-1.1-1.36-1.72-.93s-.07 1.31.31 1.9a37.7 37.7 0 013.6 8.58 22.31 22.31 0 011.07 8.49 3.69 3.69 0 01-1.25 2.6 18.2 18.2 0 01-3.47 1.61 22.42 22.42 0 01-7.14 1.44 22.07 22.07 0 01-11.19-2.46 24.29 24.29 0 01-5.31-3.7 2.85 2.85 0 00-.88-.54.65.65 0 000-.2 43 43 0 00-1.95-6.22c-.28-.82-.59-1.64-.87-2.49a43.66 43.66 0 01-2.19-8.75c-.1-.72-.15-1.67-1-1.64s-.74 1.05-.72 1.77a42.41 42.41 0 001.39 9.37c.23.95.49 1.9.74 2.85a44.61 44.61 0 011.31 5.7 12.41 12.41 0 01.13 2.38v.34a.14.14 0 000 .1c0 .31 0 .62-.08.9a4.5 4.5 0 01-1.52 2.44 11 11 0 01-5.82 2.51 22.82 22.82 0 01-11-1.46 34.4 34.4 0 01-5.31-2.52 13.75 13.75 0 00-.21-2.56 36.59 36.59 0 00-1.54-5.91c-.41-1.31-.82-2.67-1.13-4a20.41 20.41 0 01.05-9.86c.23-.85.47-1.8-.25-2s-1.11.7-1.39 1.52a21.35 21.35 0 00-1 10.86c.26 1.59.62 3.08 1 4.54a34.93 34.93 0 011 5.29 11.24 11.24 0 010 2.05 1.82 1.82 0 01-.61 1 9.68 9.68 0 01-3.42 1.72 31.94 31.94 0 01-8 1.31 36.16 36.16 0 01-12.94-1.59c-3.75-1.26-5.11-3.08-5.24-3.23a1.51 1.51 0 00-.77-.77 40.3 40.3 0 01-.36-7.47 33 33 0 013.55-14.15c.43-.79.92-1.67.28-2.08s-1.23.39-1.75 1.16a34.59 34.59 0 00-5.08 14.83 59.4 59.4 0 00-.41 7.83v.98c0 .15 0 .23-1.07.77l-.23.13a20.67 20.67 0 01-3.42 1.15 39 39 0 01-6.72 1 44.22 44.22 0 01-10.86-.62 37.24 37.24 0 01-10.27-3.36l-.39-.18a5.69 5.69 0 00-.66-.28c0-.93 0-2 .07-3.21.39-5.75 2-10.29 4.7-13.53 1.44-1.49 1.87-2 1.36-2.51s-1-.13-2.62 1.33c-3.21 3.39-5.21 8.24-6 14.45a41.28 41.28 0 00-.33 5.65v2.05c-.07.06-.15.11-.2.16a10.33 10.33 0 01-2.29 1.36 9.82 9.82 0 01-2.51.9c-.28.07-.57.13-.77.2a21.49 21.49 0 01-7-.07 33.69 33.69 0 01-12.37-5 16 16 0 01-2.39-1.87 2.18 2.18 0 01-.51-.54 1.9 1.9 0 00-.23-.26c-.08-.12-.08-.15-.11-.56a11.5 11.5 0 011-5 31.9 31.9 0 015.39-8.81 50 50 0 0112.25-10.42q.64-.39 1.26-.69c.69-.28 1.38-.57 2.08-.82 19.92-7.5 44-11.89 69.69-12.38s50.08 2 71 6.68c.95.23 1.9.43 2.83.69a50 50 0 015.77 3.26 40.59 40.59 0 0110.63 9.86 26.79 26.79 0 014.11 7.83 10.18 10.18 0 01.32 1.96z"/><path class="cls-3" d="M893 678.07c.44 7.91.69 16 .38 24.31-.1 2.44-.28 4.91-.59 7.29a20.89 20.89 0 01-1.56 6.47c-.26.46-.18.31-.23.36s0 0-.21 0a8.33 8.33 0 01-2.64-1.21c-2-1.23-4.06-2.82-6.24-4.39a35.25 35.25 0 00-3.52-2.34 14.36 14.36 0 00-2.18-1 6.77 6.77 0 00-3.05-.46 13.43 13.43 0 00-4.73 1.54 42.29 42.29 0 00-3.69 2.2c-2.31 1.52-4.5 3.16-6.63 4.42a14.84 14.84 0 01-1.38.72h-.05a10.69 10.69 0 01-2.21-1.93c-1.49-1.56-3-3.41-4.72-5.21-.29-.31-.6-.62-.9-.92-2.13-2-4.55-4.29-8.29-5.06a10.8 10.8 0 00-5.5.33 13.61 13.61 0 00-4.46 2.65c-2.44 2.13-4.16 4.44-6 6.13s-3.41 2.49-5.21 2-4.1-2-6.11-3.64-4-3.75-6.44-5.75a12.19 12.19 0 00-2.13-1.52 5.54 5.54 0 00-3.8-.8 7.74 7.74 0 00-3 1.29 17.61 17.61 0 00-2 1.44c-2.44 1.95-4.52 4-6.65 5.9a31.75 31.75 0 01-6.21 4.67 2 2 0 01-.83.23 4.19 4.19 0 01-1-.36 17.93 17.93 0 01-3-2.15c-2-1.77-4-3.8-6.08-5.83-1.06-1-2.11-2-3.31-3a21.86 21.86 0 00-2-1.46 9.78 9.78 0 00-1.28-.7 8 8 0 00-1.87-.51 8.84 8.84 0 00-3.24.59 20.23 20.23 0 00-2.23 1c-1.36.72-2.59 1.49-3.83 2.26s-2.51 1.65-3.74 2.42-2.19 1.41-3.26 2.08c-2.26 1.33-4.75 2.74-6.63 3.08a1.93 1.93 0 01-.84 0 1.26 1.26 0 00-.34-.13 2.56 2.56 0 00-.46-.33 12.52 12.52 0 01-2-2.59c-1.28-2.16-2.41-4.68-4-7.22a13.6 13.6 0 00-3.44-3.72 7.33 7.33 0 00-6-1 28.29 28.29 0 00-7.83 4.13c-2.18 1.54-4.31 3.08-6.47 4.62a25.12 25.12 0 01-6 3.41 1.6 1.6 0 01-.21 0h-.08s-.07 0-.1-.1l.02-.28-.2-.72c-.16-.48-.21-1.1-.34-1.64a52.77 52.77 0 01-.41-7.21 248.14 248.14 0 012.44-28.91c1.21-9.34 2.65-18.35 4.11-27s3-16.84 4.54-24.61c.77-3.91 1.57-7.68 2.36-11.35.44-1.82.85-3.62 1.26-5.37.21-.87.44-1.74.64-2.59l.36-1.26.16-.61.1-.23a.52.52 0 01.39-.36 11.24 11.24 0 011.48-.44c1.08-.26 2.21-.46 3.34-.62 2.26-.33 4.49-.56 6.68-.77 4.36-.38 8.54-.64 12.52-.84 8-.41 15.17-.62 21.77-.77 13.25-.29 24.18-.34 34.55-.31 10.71.28 22 .67 35.66 1.39 6.83.38 14.25.84 22.43 1.54 4.11.35 8.4.77 12.87 1.38 2.25.28 4.54.64 6.82 1.08.82.18 1.67.36 2.49.59a7.89 7.89 0 01.9.23 6.7 6.7 0 012.41 1 10.15 10.15 0 01.85 1.83c.28.77.54 1.59.77 2.41.46 1.69.87 3.44 1.26 5.24.77 3.56 1.44 7.31 2.08 11.16 1.23 7.73 2.28 15.92 3.21 24.49s1.74 17.56 2.31 26.85c.03 1.52.13 3 .19 4.49zm-118-38.35l1.77-.74c-.18-.44-.62-1.47-6.5-1.23-.18-1-.38-2-.64-2.93a26.54 26.54 0 00-1.95-5.37 7 7 0 00-2.16-2.54 11.28 11.28 0 00-2.67-1.33 30.71 30.71 0 00-8.29-1.52 19.14 19.14 0 01.21-3.33l-1.9-.31a21.32 21.32 0 00-.23 3.54h-.11a53.1 53.1 0 00-8.16.41c-.15-1.56-.31-3-.41-3.9l-1.93.21c0 .17.21 1.87.42 4a35.61 35.61 0 00-8.19 2.28c-2.6 1.13-5.27 2.75-6.37 5.55a42.39 42.39 0 00-2.31 12c-1.75.15-3.62.25-5.39.33l.08 1.92c1.07 0 3-.12 5.18-.3 0 1-.1 1.9-.13 2.85v4.75h-5.1l-.08 1.92c.77 0 2 .06 3.44.06h1.82a47.12 47.12 0 001 8c-2.38.57-4.28 1.16-4.44 1.21l.59 1.85c.06 0 1.95-.62 4.32-1.18a30.48 30.48 0 001 3.16 22.48 22.48 0 001.29 2.54 9.16 9.16 0 002 2.31 14.63 14.63 0 005.37 2.67 35.27 35.27 0 005.36 1c-.13 2.52.28 4.8 2.13 5.5l.67-1.8c-.77-.28-1-1.72-.87-3.54 1.36.07 2.74.1 4.13.07s2.8-.07 4.21-.2c-.13 2.85.26 5.08 1.74 5.49l.57-1.82c-.36-.34-.46-1.82-.31-3.85 1.82-.18 3.67-.44 5.52-.8a45.68 45.68 0 006-1.51l1.51-.64a10 10 0 001.64-1 7.18 7.18 0 002-3.52 43.28 43.28 0 001.18-10.71 11.42 11.42 0 013.36.31l.72-1.79a13.21 13.21 0 00-4-.47c0-3.15-.21-6.26-.49-9.29a9.9 9.9 0 013.88-.18l.61-1.82a11 11 0 00-4.67.08c-.23-2.1-.51-4.21-.9-6.26 2.29-.11 4.06-.05 4.54.25a1 1 0 01-.06-.38z"/><path class="cls-4" d="M882.82 412a20.63 20.63 0 01-4.41 16.58 20.85 20.85 0 01-16.66 7.68c-6.62-.13-13-2.85-16.89-7.6s-5-11.09-3.9-16.66a22.23 22.23 0 018.34-13.43 23.85 23.85 0 016.44-3.49 25.34 25.34 0 016.68-1.26c4.33.23 9.37.95 13.32 4.06s6.19 8.3 7.08 14.12zm-6.72 3.59a14.68 14.68 0 00-.23-2.59 8.46 8.46 0 11-11.94-11.53 14.62 14.62 0 00-2.1-.15 14.27 14.27 0 1014.27 14.27z"/><path class="cls-5" d="M869.12 279.49v4.59a418.07 418.07 0 00-42.92-2.2 22.24 22.24 0 002.54-7.65 224.17 224.17 0 0140.38 5.26z"/><path class="cls-10" d="M857.59 808.3c0 .1 0 .13-.05.56a2.55 2.55 0 01-.59 1.08 4.57 4.57 0 01-2.65 1.23 42.17 42.17 0 01-8.13.41 48.45 48.45 0 01-8.22-.69 9 9 0 01-3.1-1.13 1.36 1.36 0 01-.54-.61 1 1 0 01.07-.67c.13-.44 1.21-.93 2.21-1.16a23.08 23.08 0 013.24-.56c2.15-.23 4.23-.36 6.08-.54 1.87.18 4 .31 6.11.54a28.78 28.78 0 013.29.51 4.5 4.5 0 012.28 1.03z"/><path class="cls-8" d="M851.3 804.37c-1.95 0-3.75.18-5.39.31-1.64-.13-3.44-.28-5.42-.31-.77-9-1.72-18.2-2.69-28-2.29-22.26-4.62-45.23-4.88-65.41.39-.39.77-.77 1.16-1.11a6.25 6.25 0 015.41-1.79c1.83.28 3.8 1.85 5.6 3.59a8.07 8.07 0 01.64.67c.33 11.37 1.87 55.44 5.57 92.05z"/><path class="cls-5" d="M825.37 266.12a20.54 20.54 0 01.9 9.81 24.33 24.33 0 01-1.64 5.95H820a13.91 13.91 0 002-9.55 10.21 10.21 0 00-2-4.57 12.16 12.16 0 00-4-3.26 22.41 22.41 0 00-9.89-2.18 19.39 19.39 0 00-10 2.23 11.5 11.5 0 00-5.62 8.06 15 15 0 001.87 10c-1.51.07-3 .15-4.49.25a21.87 21.87 0 01-1.67-5.82 24.06 24.06 0 01.8-9.94 14.51 14.51 0 016.72-8.29 23.59 23.59 0 0111.89-2.64 30.06 30.06 0 0112.19 2.36 13.9 13.9 0 017.57 7.59z"/><path d="M819 273a12 12 0 01-.56 6.85 15 15 0 01-1.08 2.11c-2.26 0-4.49 0-6.75.07q-7.93.12-15.74.52a13.3 13.3 0 01-1.28-9.27 8.45 8.45 0 014.34-5.62 16.16 16.16 0 018.19-1.64 20.3 20.3 0 018.39 1.64A7.71 7.71 0 01819 273z" fill="#bf8bbd"/><path class="cls-5" d="M783.76 274.28a21.57 21.57 0 002.7 8.7c-13 .85-25.77 2.26-38.17 4.29-4.65.77-9.24 1.77-13.81 2.67l.61-1c.8-1.34 1.72-2.83 2.72-4.5 4.91-2.15 21.41-8.72 45.95-10.16z"/><path class="cls-3" d="M768.31 648.66c.21 2.82.33 5.72.33 8.65-1.82.1-3.33.25-3.69.28l.18 1.92c1-.1 2.23-.18 3.49-.25a41.21 41.21 0 01-1.08 9.57 5.47 5.47 0 01-.77 1.7c-.26.12-.59.33-.95.51l-1.21.51a45.18 45.18 0 01-5.41 1.45c-1.47.28-3 .51-4.44.69.15-1 .33-2.08.56-3.16l-1.87-.41c-.26 1.23-.52 2.52-.7 3.77-1.56.18-3.1.26-4.64.31h-3.57a32.74 32.74 0 01.92-3.55l-1.82-.61c-.2.66-.69 2.21-1.08 4-5.31-.36-10.21-1.72-11.7-6.29-.34-.85-.64-1.7-.9-2.54a19.28 19.28 0 013.82-.34l.11-1.92a22.1 22.1 0 00-4.47.38 51.38 51.38 0 01-1.26-7.49c2.83-.18 5.44-.62 6.37-1.49l-1.36-1.35c-.46.46-2.52.77-5.16.92-.11-1.59-.18-3.13-.23-4.64v-3.11c3-.33 5.91-.92 6.75-1.87l-1.39-1.3c-.43.44-2.54.88-5.29 1.21a41.83 41.83 0 011.52-11.21c.9-2 3.21-3.36 5.7-4.26a34.17 34.17 0 017.7-1.72c.31 2.57.64 5.14.85 5.93l1.87-.46c-.18-.69-.49-3.11-.77-5.67a52.18 52.18 0 017.73-.11.63.63 0 01.23 0c.05 3 .2 5.83.23 6l1.9-.1c0-.08-.16-2.82-.21-5.78a29.84 29.84 0 017.22 1.54 9.32 9.32 0 011.89 1 3.93 3.93 0 011.19 1.49 23.56 23.56 0 011.54 4.7c.18.77.33 1.54.48 2.31-1.2.1-2.59.26-4.13.44l.23 1.92c1.39-.15 2.85-.31 4.24-.43q.54 3.12.84 6.44v.38c-1.69.42-3 .8-3.36.9l.56 1.85c.88-.18 1.91-.46 3.01-.71z"/><path class="cls-4" d="M767.59 416.11a19.87 19.87 0 01-4.34 16.74c-4 4.69-10.6 7.24-17.3 7.21s-13.35-2.54-17.61-7a15.56 15.56 0 01-4.05-7.81c-.57-2.82-.06-5.77.59-8.7 1.33-5.72 4.1-10.8 8-14.09a21.23 21.23 0 0113.14-4.88 25.39 25.39 0 016.75 1.26 23.47 23.47 0 016.5 3.57 22.27 22.27 0 018.32 13.7zm-7.34 3.23a14 14 0 00-.26-2.59 8.44 8.44 0 11-11.91-11.5 14.51 14.51 0 00-2.1-.18 14.28 14.28 0 1014.27 14.27z"/><path class="cls-8" d="M765.46 708.6a26.51 26.51 0 012.26 2c-.21 20.25-2.57 43.41-4.85 65.79-1 9.76-2 19-2.72 27.93-2 0-3.78.18-5.42.31-1.64-.13-3.41-.28-5.39-.31 3.77-37.32 5.29-82.4 5.6-92.62.82-.54 1.61-1 2.43-1.56 1.16-.72 2.31-1.44 3.44-2a11.69 11.69 0 011.62-.77 5.35 5.35 0 00.64-.21h.18l.06-.29v.34h.12l.57.31a12.37 12.37 0 011.46 1.08z"/><path class="cls-10" d="M766.26 808.48a.85.85 0 01.07.67 1.13 1.13 0 01-.51.61 9.07 9.07 0 01-3.13 1.13 47.92 47.92 0 01-8.19.69 42.45 42.45 0 01-8.16-.41 4.66 4.66 0 01-2.65-1.23 2.32 2.32 0 01-.56-1.08c-.11-.43-.13-.46-.08-.56a4.5 4.5 0 012.31-1 27.3 27.3 0 013.26-.51c2.18-.23 4.24-.36 6.11-.54 1.87.18 3.93.31 6.11.54a23.45 23.45 0 013.23.56c1.01.2 2.06.65 2.19 1.13zm-6.5 48.52a31.49 31.49 0 01.26 6.7 4.82 4.82 0 01-.85 2.36c-.1.13-.2.28-.31.41l-.41.31a6.7 6.7 0 01-1.26.64 29.44 29.44 0 01-6.85 1.47 125.89 125.89 0 01-15.48.66c-5.31-.05-10.75-.25-16.25-.64h-.51a4.6 4.6 0 00-1 0h-1l-1.93.05a21 21 0 01-3.82-.23 20.78 20.78 0 01-7.11-2.26c-2-1.31-4-2.8-5.09-4.88a10.36 10.36 0 01-1.51-6.34 8.79 8.79 0 012.93-5.36l1.31-.92a9.54 9.54 0 011.51-.67 11.87 11.87 0 013.29-.85 8.21 8.21 0 015.87.85c1.54 1 2.93 3.21 4.75 5.34a18.6 18.6 0 006.93 5.18 25.22 25.22 0 008 1.9l2 .16.54.05.82-.11a4.5 4.5 0 001.57-.48 10.32 10.32 0 003.34-3.21 31.42 31.42 0 003.44-6.75 67.21 67.21 0 003.51-13.4 68.86 68.86 0 00.11-22.23 42.59 42.59 0 008 .46 54.6 54.6 0 006.57-.49 87.3 87.3 0 00-3 21.59 105.13 105.13 0 00.74 13.68q.48 3.49.89 7.01z"/><path class="cls-9" d="M730.32 500l-.05.25c-.34 1.26-.65 2.52-.95 3.75-.62 2.54-1.24 5-1.83 7.47-1.15 4.93-2.2 9.7-3.18 14.35-1.1 5.29-2.08 10.4-2.9 15.35a33.74 33.74 0 00-5.47-5.54c0-.06.08-.08.11-.13s.05 0 .07-.08c-.64-.51-1.33-1.08-2-1.69-.44-.39-.46-.44-.69-.65l-.54-.53c-.75-.72-1.59-1.54-2.44-2.47a45.79 45.79 0 01-5.08-6.21 14.09 14.09 0 01-1.49-2.72 4.63 4.63 0 01-.46-2.26 6 6 0 011.2-2.11 22.19 22.19 0 012.11-2.26 67.57 67.57 0 019.83-7.57 80.56 80.56 0 019.6-5.34c.74-.33 1.49-.64 2.21-.92.56-.23 1.13-.44 1.67-.62a2.68 2.68 0 01.28-.07z"/><path class="cls-8" d="M720.74 545q-.57 3.63-1.08 7.09c-.66 4.54-1.2 8.91-1.64 13.14a27.22 27.22 0 01-11.6 12.92c-5.85 3.05-12.37 3.72-17.48 1.77a11.56 11.56 0 01-6-5.14 11.13 11.13 0 01-1.26-7.39 10.32 10.32 0 013.59-6.11c.28-.23.57-.46.87-.67a6 6 0 00.52-.38 12.22 12.22 0 011.38-.67 1.61 1.61 0 011.75.33 13.18 13.18 0 012.62 4.21c.25.52.51 1 .77 1.57l.18.31a10.52 10.52 0 002.41 3.28 4.72 4.72 0 002.75 1.18 4.4 4.4 0 001.36 0 3.76 3.76 0 001.2-.23 15.5 15.5 0 006.06-3.64l.28-.23a34.53 34.53 0 004.14-4.5c.51-.66 1.1-1.43 1.64-2.25.26-.39.49-.77.72-1.16a6.53 6.53 0 00.69-2 7.87 7.87 0 00-1.56-5.16l-.26-.36a28.61 28.61 0 00-4-4.39l-.26-.2c-.18-.16-.33-.28-.46-.41.44-.59.92-1.21 1.46-1.9 1.42-1.8 3-3.88 4.91-6.32 1.71 1.46 4.94 4.38 6.3 7.31z"/><path class="cls-9" d="M715.66 459.6a92.76 92.76 0 0010.53 12.32c-6 3.08-12.35 6.54-19 10.47-5.08 3-10.39 6.24-15.78 9.91 1.18-8.63 2.13-18.56 1.23-24.7l-.67-4.59-3.54 3c-1.8 1.51-4.54 1.1-6.65.43 12.63-15.35 15.76-38.63 13.89-52.08a21.6 21.6 0 004.46-.92v.43c0 1.08.08 2.18.13 3.26s.31 2.18.49 3.29c.33 2.18.59 4.41 1 6.62s1.13 4.42 1.69 6.68a87.7 87.7 0 0012.22 25.88zm1.93 110.63a27.56 27.56 0 01-9.89 10.25 27.1 27.1 0 01-13.22 3.67 20.9 20.9 0 01-6.7-1.08 15.24 15.24 0 01-8-6.44 15 15 0 01-1.93-9.89 13.46 13.46 0 01.59-2.41 14.33 14.33 0 014.14-6.14c.38-.36.82-.66 1.25-1l.57-.41a11.35 11.35 0 012.33-1.18 5.81 5.81 0 015.78 1 12.64 12.64 0 012.88 3.65l1.74 3.36a6.85 6.85 0 001.49 2.16 1.44 1.44 0 001.26.05 12.75 12.75 0 004.36-2.93 30.92 30.92 0 003.54-3.95c.52-.67 1-1.31 1.39-2a10.19 10.19 0 00.54-.9l.1-.26a4.42 4.42 0 00-1-2.08 24.57 24.57 0 00-3.55-3.72c-.15-.13-.25-.23-.38-.33-.16.2-.36.43-.54.64l-3.26-2.57-1.77-1.46c-1.16-1-2.31-1.95-3.47-2.9-2.26-2-4.49-3.93-6.62-5.93-1.77-1.67-3.52-3.34-5.19-5.06-1.23 5.21-3.64 15.35-8.21 31.17-.54 1.79-1.08 3.67-1.67 5.62-3.82 12.73-7.62 24.1-12 35.81-2.75 7.41-5.78 14.91-9 22.28-1.77 4.11-3.72 8.26-5.6 12.17L642 650.07l.18.25s.36.34.64.59l1.34 1.24a90.27 90.27 0 007.93 6.44 72.54 72.54 0 0013.25 7.75 50.29 50.29 0 009 3.11l1 .23c.54.13 1 .26 1.59.36l4.09.51 3 .05.26-.3 1.26-1.72a44.43 44.43 0 002.56-4.5c.34-.66.7-1.38 1-2.15a67.61 67.61 0 003.44-9.58 89.23 89.23 0 002.17-11.35c.41-4.16.62-5.62 2.13-5.49s1.52 1.56 1.31 5.8a95.22 95.22 0 01-1.67 12 78.51 78.51 0 01-3.08 10.39c.21 1.28 1.52 8 6 9.45.1-.77.2-1.57.3-2.34 1.34-9.42 2.85-18.46 4.45-27.11s3.23-16.86 4.92-24.67q1.27-5.85 2.57-11.39c.46-1.83.93-3.65 1.36-5.42.26-.9.49-1.8.72-2.67l.41-1.33.21-.67.38-1a4.11 4.11 0 012.29-1.88l.2-.07a164 164 0 01.38-24.37z"/><path class="cls-8" d="M703.72 384v.08a97.35 97.35 0 00-1.57 6 18.13 18.13 0 00-11-3.23 12.91 12.91 0 00-6.85 2.51 12 12 0 00-3.52 4.16c-.13.23-.13.44 0 .49s.29 0 .44-.21a17 17 0 014.44-3.49c-.08.11-.13.23-.2.34a8.89 8.89 0 00-1.06 4.67 12.88 12.88 0 003 7.47c.11.13.26.18.36.1s.13-.2.11-.36a30.49 30.49 0 01-1.67-7.29 9.74 9.74 0 011.49-5.85 13 13 0 013.59-.72A25.64 25.64 0 01702 390.9a75.11 75.11 0 00-2.08 16.61c0 1.39.11 2.77.18 4.16a20.05 20.05 0 01-5.88.38 19.67 19.67 0 01-7.54-2.33c-4.88-2.54-9.27-7.93-8.7-14.3a12.12 12.12 0 013.41-8 16 16 0 017.5-3.93 28.9 28.9 0 0114.83.51z"/><path class="cls-12" d="M802.09 498.2c-12.09-.47-27-2.15-42.08-8.46l-5.69-2.45c-1.91-.86-3.71-2-5.61-3l-2.83-1.55c-1-.51-1.81-1.19-2.73-1.78l-5.46-3.73a94.66 94.66 0 01-19.06-19.78 86.53 86.53 0 01-11.85-24.74q-.87-3.23-1.71-6.39c-.43-2.14-.71-4.28-1.07-6.39l-.51-3.15c-.06-1.05-.13-2.1-.19-3.15-.13-2.08-.25-4.15-.38-6.18A87.92 87.92 0 01706 384.7a113.36 113.36 0 016.58-18.84l-1.39-.69a105.45 105.45 0 00-7.52 18.89 86.17 86.17 0 00-3.83 23.43c.08 2.1.17 4.24.25 6.39l.15 3.26c.15 1.09.31 2.18.47 3.27.33 2.19.6 4.42 1 6.65s1.12 4.41 1.69 6.65a87.38 87.38 0 0012.23 25.85 94.35 94.35 0 0020 20.49c1.9 1.32 3.83 2.55 5.71 3.81 1 .6 1.86 1.29 2.85 1.81l3 1.55c2 1 3.86 2.13 5.85 3l5.92 2.42a46.37 46.37 0 005.88 2l5.78 1.73c3.88.78 7.62 1.64 11.26 2.19 3.67.36 7.19.87 10.58 1l9.7.17z"/><path class="cls-12" d="M894 357a95.91 95.91 0 0111 18.87 76.78 76.78 0 016.19 24.34q.25 3.33.25 6.75c-.15 2.28-.31 4.58-.47 6.92a31.63 31.63 0 01-.33 3.5c-.23 1.16-.46 2.32-.68 3.5a48.29 48.29 0 01-1.62 7c-2.46 9.43-7.37 18.48-13.55 26.76A94.28 94.28 0 01873 475.55a113.31 113.31 0 01-24.77 13.31 133.43 133.43 0 01-46.18 9.34v1.55a126.17 126.17 0 0047.29-8 112.32 112.32 0 0025.67-13.32 95.16 95.16 0 0022.66-21.55c6.44-8.62 11.53-18.12 14-28a49.74 49.74 0 001.61-7.37l.66-3.65a30.1 30.1 0 00.3-3.66c.13-2.43.25-4.84.38-7.21 0-2.38-.17-4.73-.4-7a77 77 0 00-7-25.05 92.75 92.75 0 00-12-18.82zm-193 54.42a20.43 20.43 0 01-6.89.61 20 20 0 01-7.55-2.33c-4.87-2.55-9.25-7.94-8.69-14.3a12.16 12.16 0 013.4-8 15.9 15.9 0 017.5-3.92 29 29 0 0115 .54l.59-1.43a27.2 27.2 0 00-16.21-2.12 18.34 18.34 0 00-9.28 4.41 15.26 15.26 0 00-4.62 10.31 16.57 16.57 0 003.08 10.81 20.13 20.13 0 007.9 6.49 20.83 20.83 0 008.81 2 19.83 19.83 0 007.54-1.57z"/><path class="cls-12" d="M680.77 394c.1.06.27 0 .43-.2a15 15 0 0110.07-5.13c4.72-.27 8.85 1.49 11.44 2.47.23.08.43.06.49 0s0-.27-.24-.41a18.35 18.35 0 00-11.82-3.84 12.89 12.89 0 00-6.83 2.5 12.1 12.1 0 00-3.54 4.17c-.11.21-.11.44 0 .44z"/><path class="cls-12" d="M688.36 388.18a.29.29 0 00-.37-.05 6.26 6.26 0 00-2.55 2.55 8.6 8.6 0 00-1.05 4.66 12.69 12.69 0 003 7.47.28.28 0 00.35.11.3.3 0 00.1-.35c-.46-1.75-1.54-4.36-1.65-7.31a9.76 9.76 0 012.09-6.72.31.31 0 00.08-.36zm223.77 24.69a19.83 19.83 0 007.54 1.57 20.87 20.87 0 008.82-2 20.1 20.1 0 007.89-6.49 16.57 16.57 0 003.06-10.78 15.26 15.26 0 00-4.62-10.31 18.34 18.34 0 00-9.28-4.41 27.18 27.18 0 00-16.2 2.12l.58 1.43a29 29 0 0115-.54 15.9 15.9 0 017.5 3.92 12.17 12.17 0 013.41 8c.55 6.36-3.82 11.75-8.7 14.3a19.94 19.94 0 01-7.55 2.33 20.46 20.46 0 01-6.89-.61z"/><path class="cls-12" d="M932.94 394c.11 0 .13-.24 0-.47a10.48 10.48 0 00-3.17-4.18 11.4 11.4 0 00-6.58-2.37 15.55 15.55 0 00-6.78 1.31 21.17 21.17 0 00-4.47 2.57c-.19.13-.28.3-.22.4s.25.12.47 0c2.5-.88 6.42-2.69 10.91-2.52a12.08 12.08 0 015.82 1.75 14.8 14.8 0 013.58 3.24c.18.27.34.35.44.27z"/><path class="cls-12" d="M925.36 388.18a.31.31 0 000 .36 9.81 9.81 0 012.1 6.72c-.12 2.95-1.2 5.56-1.66 7.31a.29.29 0 00.11.35.27.27 0 00.34-.11 12.69 12.69 0 003-7.47 8.68 8.68 0 00-1-4.66 6.32 6.32 0 00-2.55-2.55.29.29 0 00-.34.05zM746 397.57a25.63 25.63 0 016.75 1.27 23.22 23.22 0 016.5 3.57 22.33 22.33 0 018.29 13.68 19.89 19.89 0 01-4.33 16.72c-4 4.7-10.63 7.25-17.33 7.21s-13.33-2.52-17.61-7a15.52 15.52 0 01-4-7.79 21.19 21.19 0 01.6-8.71c1.33-5.73 4.09-10.81 8-14.11a21.4 21.4 0 0113.13-4.84V396a22.6 22.6 0 00-14.66 4.54c-4.59 3.49-7.87 9.06-9.49 15.24a34.56 34.56 0 00-1 4.78 18.12 18.12 0 004.83 14.86c5.06 5.37 12.56 8.13 20.15 8.22s15.24-2.9 20-8.57a22 22 0 004.71-9.52 24.35 24.35 0 000-10.06 24.65 24.65 0 00-17.21-18.59 26.45 26.45 0 00-7.33-.9zm116.41-3.78c4.34.21 9.36.93 13.3 4s6.2 8.32 7.1 14.11a20.87 20.87 0 01-21.08 24.27c-6.62-.13-13-2.85-16.88-7.61s-5-11.08-3.92-16.64a22.32 22.32 0 018.36-13.44 23.87 23.87 0 016.44-3.5 26.37 26.37 0 016.68-1.23v-1.55a26.21 26.21 0 00-7.27.87 25 25 0 00-7.28 3.46 24.53 24.53 0 00-9.94 14.76 24.94 24.94 0 00-.18 9.94 21.31 21.31 0 004.4 9.53c4.52 5.74 12 8.91 19.5 9.05a24.07 24.07 0 0019.47-9.12 23.61 23.61 0 004.73-19.34 31.65 31.65 0 00-2.94-8.78 19 19 0 00-5.75-6.72c-4.8-3.38-10.26-3.74-14.74-3.65z"/><path class="cls-12" d="M752.87 420.63a8.46 8.46 0 01-4.82-15.41 14.27 14.27 0 1012.18 14.1 14.76 14.76 0 00-.25-2.59 8.45 8.45 0 01-7.11 3.9zm115.87-3.79a8.46 8.46 0 01-4.82-15.41 14.63 14.63 0 00-2.1-.17 14.28 14.28 0 1014.27 14.28 13.79 13.79 0 00-.25-2.59 8.43 8.43 0 01-7.1 3.89z"/><path class="cls-13" transform="rotate(-31.58 727.122 402.758)" d="M725.95 400.13h2.57v5.31h-2.57z"/><path class="cls-13" transform="rotate(-17.49 733.047 398.015)" d="M731.85 395.76h2.57v4.6h-2.57z"/><path class="cls-13" transform="rotate(-5.86 739.745 394.872)" d="M738.98 392.81h2.57v4.62h-2.57z"/><path class="cls-13" transform="rotate(-77.94 748.83 394.857)" d="M746.7 393.58h4.18v2.57h-4.18z"/><path class="cls-13" transform="rotate(-54.94 757.423 397.072)" d="M754.99 395.78h4.75v2.57h-4.75z"/><path class="cls-13" transform="rotate(-40.41 763.507 401.192)" d="M761.13 399.92h4.89v2.57h-4.89z"/><path class="cls-13" transform="rotate(-58.42 881.696 398.425)" d="M879.01 397.15h5.31v2.57h-5.31z"/><path class="cls-13" transform="rotate(-72.49 875.702 393.71)" d="M873.46 392.42h4.6v2.57h-4.6z"/><path class="cls-13" transform="rotate(-84.17 868.587 390.78)" d="M866.32 389.48h4.62v2.57h-4.62z"/><path class="cls-13" transform="rotate(-12.06 860.035 390.462)" d="M858.83 388.42h2.57v4.18h-2.57z"/><path class="cls-13" transform="rotate(-35.11 851.499 392.7)" d="M850.25 390.34h2.57v4.75h-2.57z"/><path class="cls-13" transform="rotate(-49.63 845.41 396.849)" d="M844.04 394.4h2.57v4.89h-2.57z"/><path class="cls-12" d="M791.48 423.12c-.22-.1-.52.09-.75.48a11.69 11.69 0 00-1.64 4.25 9.26 9.26 0 001 5.8c2.17 4 7.08 6.14 12 6.22a16 16 0 007.06-1.47 10.38 10.38 0 004.92-4.73 9.65 9.65 0 00.79-5.78 12.73 12.73 0 00-1.52-4.26c-.21-.39-.51-.6-.73-.51s-.31.45-.23.87c.46 2.36.83 5.67-.87 8.27s-5.37 4.05-9.36 4-7.75-1.59-9.51-4.11a7.74 7.74 0 01-1.37-4.13 14.69 14.69 0 01.49-4c.01-.44-.07-.8-.28-.9z"/><path class="cls-13" d="M803.29 472.09h-1.22c-14.63-.45-30.63-8.9-31.49-23.67a1.28 1.28 0 112.56-.15c.77 13.25 15.52 20.83 29 21.25 12 .42 26.65-5 28.61-21.33a1.3 1.3 0 011.43-1.12 1.28 1.28 0 011.12 1.43c-2.1 17.5-17.2 23.59-30.01 23.59z"/><path class="cls-12" d="M699.51 371.5c.15-.19 0-.66-.42-1.27l-.75-1.05c-.24-.43-.53-.88-.85-1.35a9.79 9.79 0 01.29-9.92c1.76-3.37 4.79-6.42 8.25-9.18 7-5.53 16-10.05 25.89-13.8 19.93-7.49 44.06-11.88 69.68-12.37s50.09 2 71 6.69c10.4 2.42 20 5.32 28.08 9.29 4 2 7.68 4.27 10 7.13a6 6 0 011.68 4.47 7 7 0 01-2.45 4c-.46.37-.86.73-1.22 1.08a11 11 0 00-1 .83c-.55.51-.82.91-.72 1.13s.58.2 1.34 0a13 13 0 001.34-.47c.47-.27 1-.59 1.57-1a9.09 9.09 0 003.78-5.11 8.74 8.74 0 00-1.7-6.8c-2.66-3.84-6.52-6.5-10.6-9-8.28-4.81-18.06-8.32-28.67-11.27-21.3-5.72-46.17-8.69-72.53-8.28s-51.32 5.54-71.73 14.21c-10.17 4.34-19.31 9.56-26.44 16-3.53 3.24-6.63 6.82-8.4 11a14.13 14.13 0 00-1.25 6.53 10.93 10.93 0 002.13 5.87q.68.8 1.26 1.38a6.88 6.88 0 001.18.82c.66.5 1.12.62 1.26.44z"/><path class="cls-12" d="M678.89 388.45a76.92 76.92 0 01-8.95-18.63 55.54 55.54 0 01-2.73-22 42.08 42.08 0 018.69-21.55 62.06 62.06 0 0119.73-15.86c1.88-1.16 4-2 6-3l3.06-1.44 3.2-1.22c2.15-.79 4.27-1.7 6.48-2.41l6.72-2.06c2.23-.75 4.55-1.27 6.87-1.83l7-1.71c4.77-.86 9.56-1.87 14.44-2.64a453.31 453.31 0 0161.38-4.9c21.19-.37 41.87.06 61.55 2.22 2.46.29 4.92.51 7.34.84l7.2 1.15c4.81.64 9.42 1.85 14 2.81 9.08 2.36 17.89 5.1 25.64 9.25S941.07 315 944.9 322l1.38 2.63a20.58 20.58 0 011 2.74 29.13 29.13 0 011.42 5.64 38.54 38.54 0 01-.14 11.5 65.57 65.57 0 01-7.48 21.07 101.82 101.82 0 01-11.68 17.24l2.27 2.11a100.42 100.42 0 0012.91-17.39 68.25 68.25 0 008.74-22.23 42.87 42.87 0 00.54-13 35 35 0 00-1.46-6.63 27.29 27.29 0 00-1.15-3.25l-1.53-3.13c-4.35-8.37-12-14.55-20.25-19.23s-17.54-7.69-27-10.29c-4.77-1.07-9.56-2.38-14.49-3.1l-7.4-1.27c-2.48-.37-5-.62-7.5-.93-20.12-2.4-41.08-2.94-62.51-2.57a429.52 429.52 0 00-62.35 5.29c-5 .83-9.92 1.92-14.79 2.87l-7.15 1.93c-2.39.62-4.78 1.18-7.09 2l-7 2.25c-2.3.78-4.52 1.77-6.75 2.63l-3.33 1.35-3.22 1.58c-2.12 1.11-4.31 2-6.31 3.27a67.09 67.09 0 00-21.14 17.86 46.87 46.87 0 00-9.1 24.53 59.07 59.07 0 003.75 23.69 77.49 77.49 0 0010.27 19.18z"/><path class="cls-13" d="M951.51 234.39a127 127 0 00-4.9-18.91 271.19 271.19 0 00-14.69-35 246.34 246.34 0 00-18.76-31.82 104.38 104.38 0 00-11.73-14.11 40.74 40.74 0 00-7.57-5.91 18.08 18.08 0 00-5-1.9 24 24 0 00-3.18-.38l-1.58-.14a49.81 49.81 0 00-18 2.64 86 86 0 00-15.73 7.07c-9.54 5.36-18 11.49-26.27 17.42l-3.77 2.73a29.35 29.35 0 00-3.07 2.41l-1.67 1.46a35.51 35.51 0 00-4.15 4c-.57.63-1.16 1.26-1.75 1.89-1.14 1.22-2.28 2.45-3.37 3.72l-4.64 5.66c-2 2.45-3.9 5-5.72 7.37-1 1.31-2 2.61-3 3.93l-7.92 11c-10 14.28-18.61 27.51-26.42 39.69a1860.696 1860.696 0 00-29.92 48.43l-4.07 7c-.23.44-.84 1.6.25 2.22l3.67 2.17a1.32 1.32 0 00.64.19c.71 0 1.18-.71 1.41-1.07l4.42-7.18c5.43-9 15.52-25.68 29.72-47.85 7.83-12.18 16.43-25.39 26.24-39.43l7.81-10.89c1-1.28 2-2.6 3-3.92 1.77-2.36 3.6-4.8 5.52-7.14l4.52-5.54c1-1.16 2-2.27 3-3.39l1.83-2a28.13 28.13 0 013.42-3.3c.57-.49 1.15-1 1.73-1.52a23.86 23.86 0 012.79-2.2l3.56-2.6c8.11-5.89 16.51-12 25.6-17.16 11.46-6.5 21-9.38 29.87-9 .49.05 1 .09 1.52.12a19.44 19.44 0 012.38.27 11.68 11.68 0 013 1.14 33.89 33.89 0 016.22 4.83 97.6 97.6 0 0111 13.1 245.62 245.62 0 0118.57 30.8 270 270 0 0114.81 34.06 123.65 123.65 0 015 18 43.4 43.4 0 01.87 9c-.1 1.93-.28 5.52-1.9 6.08a4.66 4.66 0 01-2.86-.48 20.63 20.63 0 01-3.76-2.15 63.27 63.27 0 01-7.22-6 189.7 189.7 0 01-13.23-14.14c-7.54-8.81-15.25-18.66-24.27-31-2.25-3.15-3.69-5.12-4.68-6.34a38.75 38.75 0 006.15-11.65c.44-2.13.63-3.35-.46-3.61s-1.49.95-2 2.88c-1.59 4.28-4.5 8.06-7.41 11.5a104.65 104.65 0 01-8.76 8.88c-3.09 2.82-5.64 4.91-7.24 6.18-.81.66-1.53 1.2-2.14 1.66l-.88.65a16.82 16.82 0 00-2-2 15.54 15.54 0 00-9.15-3.73.93.93 0 00-1 .6.92.92 0 00.57 1.06 19.22 19.22 0 018.85 8.61v.88l.07.33c.17.44.36 1 .45 1.35l.43 1.62c.1.39.21.78.29 1.19.29 1.26.55 2.51.76 3.78.45 2.43.82 4.91 1.11 7.37.64 5 1 9.71 1.3 13.53.47 7.21.77 14.32.91 21.74.18 9.73.14 16.4.11 20.38v2.42c0 1.51 0 2.81 1.13 2.84h5.54l.28-.29c.21-.2.44-.44.43-2.55v-1.81c0-3.79 0-10.84-.45-21.22-.28-7.5-.73-14.71-1.39-22.07-.45-4.56-.91-9.06-1.65-13.85-.38-2.57-.83-5.15-1.35-7.66-.27-1.33-.59-2.67-.92-4-.11-.46-.24-.91-.37-1.37l-.8-2.48.49-.53 2.77-2.6c2.47-2.31 4.75-4.57 7-6.89s4.85-5.19 7.47-8.54c.84 1.32 2.06 3.14 3.82 5.72 8.71 12.54 16.26 22.64 23.77 31.79a190.69 190.69 0 0013.28 14.75 69.77 69.77 0 007.66 6.61 26.92 26.92 0 004.66 2.75 12.09 12.09 0 002.87.88 7.16 7.16 0 003.6-.2c2.55-.76 4.08-3.31 4.62-5.27a22 22 0 00.82-5.4 47.94 47.94 0 00-.81-10.16z"/><path class="cls-12" d="M789.57 286.43c.19-.17-.05-.74-.49-1.49a20.84 20.84 0 01-2.76-7.91 23.86 23.86 0 01.79-9.93 14.53 14.53 0 016.72-8.3 23.59 23.59 0 0111.89-2.64 30 30 0 0112.18 2.37 13.93 13.93 0 017.47 7.55 20.56 20.56 0 01.88 9.82 23.9 23.9 0 01-2.64 8c-.41.76-.62 1.35-.42 1.5s.73-.22 1.28-.94a22.3 22.3 0 003.66-19.36 16.6 16.6 0 00-8.73-9.69 31.29 31.29 0 00-13.65-2.89 25.81 25.81 0 00-13.68 3.29 17.21 17.21 0 00-7.77 10.46c-1.91 8 .49 15.27 4 19.26.53.71 1.1 1.04 1.27.9z"/><path class="cls-12" d="M797.14 285.38a12.91 12.91 0 01-3.53-12.19 8.47 8.47 0 014.32-5.61 16.61 16.61 0 018.21-1.65 20.58 20.58 0 018.38 1.66 7.76 7.76 0 014.5 5.32 11.78 11.78 0 01-.58 6.85 13.13 13.13 0 01-3.55 5.09l.94 1.24a14 14 0 006.17-13.77 10.26 10.26 0 00-2-4.58 12 12 0 00-4-3.27 22.76 22.76 0 00-9.9-2.18 19 19 0 00-10 2.25 11.52 11.52 0 00-5.62 8c-1 6.19 1.9 11.65 5.61 14z"/><path class="cls-13" d="M872.43 280.26c-13.41-3.37-27.64-5.3-44.81-6.08l.11-2.56c17.35.78 31.75 2.74 45.33 6.14zm-136.14 4.9l-1.18-2.28c.77-.4 19-9.7 49.7-11.26l.13 2.56c-30.08 1.54-48.46 10.88-48.65 10.98z"/><path class="cls-12" d="M728.08 470.89q-9.84 5-20.94 11.48A242.14 242.14 0 00684 497.53c-3.9 3.1-8 6.13-11.3 11a8.54 8.54 0 00-1.47 4.91l.55 2.34a19.12 19.12 0 00.86 2.07 31.48 31.48 0 002.15 3.77c.84 1.13 1.65 2.31 2.54 3.4a123.11 123.11 0 0011.88 12.47c2.14 2 4.36 4 6.63 5.92l3.46 2.92 1.77 1.45 3.27 2.58c.53-.62 1.1-1.23 1.68-2l1.33-1.69c.64-.81 1.34-1.7 2.11-2.7l6.59-8.46.06-.09c-.64-.51-1.32-1.07-2-1.7-.44-.38-.46-.42-.68-.63l-.55-.54a71.42 71.42 0 01-2.45-2.46 46.56 46.56 0 01-5.08-6.21 15.26 15.26 0 01-1.48-2.73 4.69 4.69 0 01-.47-2.26 6.13 6.13 0 011.21-2.09 27.78 27.78 0 012.1-2.28 67 67 0 019.84-7.57 76.26 76.26 0 019.6-5.33c.75-.34 1.49-.65 2.2-.94l1.69-.61a1.31 1.31 0 01.26-.09v.26c-.32 1.26-.63 2.51-1 3.75-.61 2.53-1.22 5-1.82 7.48q-1.72 7.38-3.16 14.33-2.89 13.91-4.65 26.22c-2.41 16.41-3.32 30.86-2.38 43.48l2.32-.15c-.28-12.35 1.18-26.52 4-42.7 1.39-8.1 3.12-16.7 5.21-25.86q1.56-6.87 3.38-14.16l1.91-7.39c1-3.72 2.06-7.49 3.12-11.33h-.46a28.76 28.76 0 00-7.54 1.1l-1.58.55-1.2.48c-.8.34-1.61.7-2.42 1.09a79.37 79.37 0 00-10.03 5.96 70.81 70.81 0 00-10.26 8.45 28.61 28.61 0 00-2.38 2.78 9.29 9.29 0 00-1.88 3.94 8.26 8.26 0 00.86 4.43 19.1 19.1 0 002 3.31 49.25 49.25 0 005.72 6.5c.93.92 1.84 1.74 2.65 2.48l1 .87-5 5.79-2.23 2.6-.49.57v.06c0 .06 0 0 0 0l-.26-.21-1.73-1.43-3.4-2.89c-2.22-1.94-4.4-3.87-6.49-5.84a123.8 123.8 0 01-11.48-12c-.85-1-1.58-2.11-2.36-3.15a24.7 24.7 0 01-1.86-3.22 11.53 11.53 0 01-.69-1.6c-.12-.51-.24-1-.39-1.51a5.28 5.28 0 01.88-2.44c2.53-3.83 6.56-7.08 10.26-10.05 7.61-5.91 15.3-10.86 22.5-15.39s14-8.56 20.37-12.18z"/><path class="cls-13" d="M720.81 561.5l-.15-.27-.27-.06c-.62-.15-.76.21-1.37 1.73l-.34.83c-2.69 6.53-7 11.65-12.27 14.42-5.86 3.06-12.39 3.72-17.49 1.77a11.66 11.66 0 01-6-5.15 11.1 11.1 0 01-1.25-7.39 10.29 10.29 0 013.58-6.11c.28-.24.57-.45.87-.66s.4-.28.52-.38a9.54 9.54 0 011.38-.67 1.6 1.6 0 011.74.32 13.43 13.43 0 012.64 4.21c.25.52.51 1 .77 1.56l.17.32a10.19 10.19 0 002.41 3.28 4.92 4.92 0 002.76 1.19 4.6 4.6 0 001.34 0 4.85 4.85 0 001.22-.22 15.82 15.82 0 006.05-3.65l.28-.25a36.72 36.72 0 004.15-4.49c.5-.65 1.09-1.42 1.63-2.25.25-.37.49-.77.71-1.16a5.52 5.52 0 00.69-2 7.85 7.85 0 00-1.56-5.16l-.24-.37a27.42 27.42 0 00-4-4.38l-.23-.21c-1.79-1.58-2.1-1.45-2.49-1l-2 2.64-.2.21v.28c0 .35.16.49 1.49 1.64a24.11 24.11 0 013.54 3.72 4.36 4.36 0 011 2.1l-.09.23c-.16.3-.34.6-.55.92-.4.63-.88 1.29-1.37 1.95a32.57 32.57 0 01-3.55 4 12.68 12.68 0 01-4.38 2.93c-.41.11-1 .2-1.24 0a6.58 6.58 0 01-1.5-2.17l-1.75-3.35a12 12 0 00-2.87-3.66 5.83 5.83 0 00-5.77-1 12.84 12.84 0 00-2.34 1.18l-.56.43a15.52 15.52 0 00-1.27 1 14.32 14.32 0 00-4.71 8.54 14.83 14.83 0 001.93 9.89 15.28 15.28 0 008 6.45 20.91 20.91 0 006.71 1.07 27 27 0 0013.23-3.68c5.6-3.27 10.07-9 12.6-16.1.69-2.52.48-2.87.4-3.02zm.34-15.5c-1.32-4.36-7.95-9.25-8-9.29l1.51-2.08c.3.22 7.39 5.44 9 10.63z"/><path class="cls-12" d="M881.46 599.85c2.13-20.22 3.38-45.13-.68-72.71-.5-3.44-1.15-6.91-1.85-10.42l-.26-1.22v-.15c-.08-.12.12-.13.15-.15l4.6-1.77 5.15-2c1.7-.74 3.37-1.56 5.07-2.35 3.39-1.6 6.85-3.15 10.15-5.11a152.13 152.13 0 0037.69-28.73A125.1 125.1 0 00955.82 457a94.94 94.94 0 005.67-9.94c.4-.87.83-1.71 1.21-2.62l.45-1.08.48-1.25a10.67 10.67 0 00-1-2.43 12.87 12.87 0 00-2.3-2.81 22.59 22.59 0 00-2.46-1.93 34.68 34.68 0 00-5.12-2.79c-.86-.4-1.73-.76-2.6-1.1l-1.31-.49c-.63-.2-1.41-.5-2.22-.73l-1.22-.37c-.18 0-.44-.24-.57-.06l-.4.5c-.52.64-1.06 1.33-1.59 2l-1.71 2.26-3.13 4.13c-2 2.8-4.31 5.29-6.44 7.87-1.1 1.27-2.13 2.58-3.25 3.79l-3.39 3.57a142.51 142.51 0 01-28.19 23.4 91 91 0 01-14.66 7.31 63.26 63.26 0 01-7.27 2.35c-1.19.35-2.39.53-3.57.79l-1.67.25a4.41 4.41 0 01-.95.08l-.64-1.28c-.31-.61-.6-1.14-.87-1.62a18.92 18.92 0 00-1.68-2.51l-1.76 1.51A20.5 20.5 0 01865 486c.23.47.48 1 .77 1.55.38.83.8 1.75 1.27 2.81.84.06 1.75 0 2.64-.06l2-.21c1.25-.22 2.55-.36 3.81-.68a64.42 64.42 0 007.71-2.15 90.74 90.74 0 0015.49-7.08 140.56 140.56 0 0029.63-23.38l3.54-3.61c1.17-1.22 2.25-2.54 3.4-3.82 2.22-2.6 4.62-5.13 6.71-7.94l3.25-4.18 1.5-1.92s.05-.08.1 0l1.48.57c.78.32 1.56.65 2.32 1a31.21 31.21 0 014.34 2.4 20.63 20.63 0 011.8 1.44c.27.25.47.52.72.77s.44.62.45.61c0 .08.05-.12-.09.2-.33.79-.74 1.58-1.12 2.38a94 94 0 01-5.41 9.36 122.8 122.8 0 01-13.79 17.44 151.57 151.57 0 01-36.26 27.89c-3.17 1.93-6.52 3.47-9.79 5.06-1.65.78-3.26 1.61-4.9 2.35l-5 2-5.45 2.2c-1.42.76-4 .82-2.76 2.92l.88 3.81c.73 3.41 1.43 6.78 2 10.15 4.52 26.91 4.09 51.59 2.93 71.77z"/><path class="cls-13" d="M970.86 408.61a8.28 8.28 0 00-1.3-2.9l-.12-.14a10.28 10.28 0 00-2.11-2 15.11 15.11 0 00-5.18-2.23l-2.57-.47a6.75 6.75 0 00-3.21.37 10.33 10.33 0 00-4.42 3.47 23.55 23.55 0 00-2.48 4.08 64.31 64.31 0 00-4.55 14.11c-.85 3.94-1.25 6.79-1.43 8-.11.83-.16 1.59.55 1.73l3.35.38.29.05.22-.17c.19-.13.34-.32.47-1.35.17-1.3.51-4 1.22-7.69a65.26 65.26 0 013.77-13.25c1-2.2 2.39-4.84 4.45-5.76a2.8 2.8 0 011.39-.24l2.22.29a12.1 12.1 0 014.09 1.46 5.07 5.07 0 012.48 3.16 4.53 4.53 0 01-.57 3.68 3.82 3.82 0 01-3.43 1.85 7.12 7.12 0 01-4.29-1.81c-.69-.55-1.47-1.19-2-.6s.18 1.25.82 1.87a9 9 0 005.29 2.74 6.22 6.22 0 005.76-2.54 7.42 7.42 0 001.29-6.09z"/><path class="cls-13" d="M973.18 423a18.68 18.68 0 01-1.87-.1c-4.61-.46-8.07-2.44-9.25-5.28l2.37-1c.79 1.89 3.59 3.35 7.14 3.71 3.8.4 8.58-.58 10.63-3.61.79-1.17.52-1.65.43-1.81-1.15-2.09-8.69-2.83-13.68-2.65l-.08-2.57c2.25-.07 13.7-.22 16 4 .51.92.83 2.45-.55 4.49-2.43 3.61-7.17 4.82-11.14 4.82z"/><path class="cls-13" d="M972 430.68c-4.46 0-9.76-.66-12.36-3.2a5 5 0 01-1.5-4.43 6.3 6.3 0 012.62-4.73 5.84 5.84 0 014.48-.6l-.74 2.46a3.22 3.22 0 00-2.37.31 4 4 0 00-1.45 2.91 2.41 2.41 0 00.76 2.24c2.7 2.65 11.3 2.9 16.47 2.06 1.3-.21 1.57-.79 1.66-1 .67-1.43-.57-4.36-1.28-5.55l2.21-1.3c.29.49 2.81 4.9 1.39 7.94a4.42 4.42 0 01-3.57 2.43 43.31 43.31 0 01-6.32.46z"/><path class="cls-13" d="M970.68 437.46c-4.51 0-9.6-1-11.69-3.8-.82-1.09-1.84-3.39.6-6.68l2.06 1.53c-1.65 2.23-.87 3.26-.61 3.6 2.24 2.95 11.5 3.45 15.21 2 .8-.31 1.79-.84 2-1.6.21-1-.92-2.37-1.23-2.68l1.79-1.83c.25.25 2.48 2.5 2 5-.31 1.53-1.51 2.7-3.55 3.47a19.52 19.52 0 01-6.58.99z"/><path class="cls-13" d="M961.11 443.26l-.58-2.5c3-.7 8-4.19 9.71-5.48l1.56 2c-.27.24-6.53 5.02-10.69 5.98z"/><path class="cls-12" d="M970.92 409.84c8.81-16.52 19.46-36.52 31.4-58.91l18.68-35.28 10-18.65c1.71-3.14 3.43-6.34 5.21-9.48l1.35-2.35c.21-.36.35-.54.5-.83s.24-.6.58-.73a5.06 5.06 0 013.92-.66 4.66 4.66 0 013.15 2.1 2 2 0 01.2.67v.28c-1.43-.14 2.12.22.93.11a6.62 6.62 0 00-1-.07v.05l-.06.1-.12.18-1.07 2.05c-1.66 3.2-3.42 6.38-5.12 9.53l-10.21 18.59-19.26 35c-12.17 22.3-23.13 42-31.64 58.88l1.42.61c8.95-16.27 20.44-35.92 32.9-58 6.24-11 12.81-22.69 19.63-34.79l10.32-18.55c1.72-3.16 3.48-6.32 5.18-9.59.58-1.25 2.72-4.16 1.14-6.72a8.15 8.15 0 00-5.63-4 8.69 8.69 0 00-6.68 1.16 3.69 3.69 0 00-1.23 1.28c-.34.48-.74 1-1 1.47l-1.37 2.41c-1.82 3.21-3.52 6.4-5.23 9.58l-9.87 18.72-18.35 35.49c-11.56 22.59-21.75 42.84-30.05 59.62z"/><path class="cls-13" d="M1037.41 305.81a26.73 26.73 0 00-9.8-5.17l.57-2.5a28.85 28.85 0 0110.86 5.69zm-29.67-22.73a1.89 1.89 0 01-1.4-.67c-2.52-2.8-2.26-15.62-2.08-20.22-8.4-1.58-13-3.26-13.63-5a1.78 1.78 0 01.3-1.78c1.73-2.16 10.53-2.81 15.25-3 1.77-12.21 4-18.39 6.66-18.39a2.17 2.17 0 011.61.72c2.17 2.29 2 11.72 1.86 15.85 5 1.56 14.44 4.81 15.58 7.2a1.78 1.78 0 01.07 1.46c-.28.71-1.13 2.84-17.17 3.14-2.21 13.05-4.41 20-6.54 20.6a1.81 1.81 0 01-.51.09zm-14.1-26.45c2 1 7.41 2.38 12.18 3.24l1.1.2v1.12c-.36 7.48-.08 15.92 1 18.74 1.34-2.63 3.33-11.35 4.59-19l.18-1.06h1.07c6.05-.08 13-.65 15.35-1.42-2-1.4-8.63-3.89-14.43-5.68l-1-.29.06-1c.36-6.85-.08-13.36-1-14.77-1.17 1.28-3.13 9.74-4.16 17.15l-.16 1.07h-1.08c-5.34.18-11.52.87-13.7 1.7zm66.78 21.54a1.77 1.77 0 01-1.31-.62c-2-2.22-1.9-11.66-1.74-15.9-10-1.9-10.57-3.53-10.78-4.07a1.69 1.69 0 01.28-1.67c1.38-1.72 7.74-2.28 12.07-2.46 2.15-14.52 4.68-14.52 5.52-14.52a2 2 0 011.47.66c1.73 1.83 1.7 8.72 1.55 12.49 5.34 1.68 11.45 3.94 12.32 5.77a1.62 1.62 0 01.06 1.36c-.26.66-1 2.38-13.64 2.64-2.65 15.46-4.66 16-5.33 16.25a1.84 1.84 0 01-.47.07zM1050 257.08a57.93 57.93 0 008.92 2.24l1.11.2v1.13c-.26 5.28-.08 11.38.54 14 1-2.57 2.43-8.81 3.34-14.28l.17-1.05h1.08a68.44 68.44 0 0011.49-.94 71.56 71.56 0 00-10.84-4.12l-1-.29v-1c.24-4.66 0-9.21-.51-10.95-1 1.94-2.31 7.78-3 12.88l-.15 1.07h-1.08a55.07 55.07 0 00-10.07 1.11zm18.12 65.26a1.65 1.65 0 01-1.28-.65c-1.58-2-1.5-10.22-1.38-14-7.63-1.67-8.2-3.11-8.39-3.6a1.66 1.66 0 01.19-1.61c1.08-1.52 5.52-2.08 9.45-2.28 1.69-12.87 3.63-12.87 4.57-12.87a1.82 1.82 0 011.31.58c1.42 1.49 1.48 7.25 1.34 11.14 3.58 1.28 8.78 3.39 9.59 5.08a1.67 1.67 0 01.09 1.31c-.24.68-.79 2.22-10.69 2.47-2.09 13.78-3.64 14.2-4.39 14.41a1.92 1.92 0 01-.41.02zm-7.64-18.8a41.44 41.44 0 006.56 1.82l1.07.22v1.1a77.65 77.65 0 00.23 11.22 106.56 106.56 0 002.24-11.46l.16-1.08h1.09a51.67 51.67 0 008.57-.74 56.56 56.56 0 00-8.17-3.47l-.91-.32v-1a56.25 56.25 0 00-.21-8.7 69 69 0 00-2 10.41l-.14 1.09h-1.09a41.33 41.33 0 00-7.4.91z"/><path class="cls-12" d="M798.72 592c-10.38-.27-21.34-.45-34.62-.39-6.64 0-13.86.14-21.88.44-4 .15-8.23.35-12.69.7-2.22.17-4.51.39-6.88.71-1.18.17-2.38.35-3.64.64a14.63 14.63 0 00-2 .57 4.16 4.16 0 00-2.3 1.86l-.38 1-.21.67-.4 1.34-.72 2.66-1.36 5.44q-1.32 5.52-2.58 11.38-2.52 11.72-4.92 24.69c-1.58 8.64-3.12 17.67-4.44 27.09a246.9 246.9 0 00-2.7 29.56 52.11 52.11 0 00.42 8 19.32 19.32 0 00.4 2.13l.33 1.12.17.56a8.39 8.39 0 00.4.79 12.16 12.16 0 001 1.5 5.42 5.42 0 001.56.9 5.78 5.78 0 001.81.25 4.92 4.92 0 001-.1 4.14 4.14 0 00.72-.16 17.34 17.34 0 004.17-1.89c1.21-.72 2.34-1.47 3.45-2.23l6.45-4.55a24.59 24.59 0 016.22-3.36 1.73 1.73 0 011-.06c.22 0 .46.16.76.31a8.55 8.55 0 012 2.27c1.31 2 2.41 4.51 3.92 7.06a16.67 16.67 0 003 3.89c.4.31.81.61 1.22.9a15.76 15.76 0 001.57.67 7.33 7.33 0 003.24.09 17.25 17.25 0 004.6-1.62c1.37-.66 2.63-1.38 3.87-2.13 2.47-1.48 4.81-3.06 7.14-4.53 1.16-.73 2.32-1.45 3.45-2a14.29 14.29 0 011.61-.76c.27-.11.43-.12.65-.2s.15 0 .17 0 0 0 0-.06l.05-.39v.45s0-.06.12 0l.57.31a14.61 14.61 0 011.41 1.07c1 .81 2 1.77 3 2.74 2 2 4 4 6.32 6.05a22.87 22.87 0 004 2.86 8.21 8.21 0 003.11 1 5.86 5.86 0 001.86-.15 8.26 8.26 0 001.48-.5 20 20 0 004.25-2.69c1.23-1 2.35-2 3.46-2.94 2.19-2 4.29-4 6.4-5.69a16.32 16.32 0 011.51-1.1 7.06 7.06 0 01.9-.5c.06 0-.18-.09.28.16a9.66 9.66 0 011.36 1c2 1.65 4.07 3.78 6.36 5.7s4.81 3.95 8.51 4.8a9.45 9.45 0 005.75-.48 14.57 14.57 0 004.32-2.92c2.26-2.19 3.94-4.42 5.75-6s3.57-2.18 5.41-1.81 3.79 1.85 5.59 3.6 3.5 3.88 5.51 6a13.07 13.07 0 004.12 3.2 15.14 15.14 0 001.94.39c.64-.13 1.32-.18 1.94-.37a19.33 19.33 0 002.22-1.15c2.53-1.53 4.64-3.15 6.81-4.58s4.47-2.76 6-2.92a.72.72 0 01.36 0s.3.08.48.14a8 8 0 011.38.65c1 .57 2 1.28 3.08 2 2.09 1.48 4.17 3.1 6.59 4.57a13.08 13.08 0 004.44 1.86 4.46 4.46 0 001.75 0 3.69 3.69 0 001.73-.56 5.19 5.19 0 002.3-2.4 16.58 16.58 0 001.45-4.29 38.93 38.93 0 00.65-4c.31-2.62.46-5.19.56-7.73.3-10.14-.21-19.87-.86-29.26s-1.58-18.4-2.63-27-2.23-16.87-3.61-24.67c-.69-3.89-1.43-7.68-2.28-11.36-.43-1.84-.89-3.65-1.43-5.43-.28-.9-.57-1.79-.92-2.68a11.6 11.6 0 00-1.5-2.88 6 6 0 00-2.27-1.52 14.81 14.81 0 00-2-.67c-1.28-.37-2.5-.61-3.72-.85-2.42-.46-4.77-.78-7.06-1.06-4.58-.56-8.92-.92-13.05-1.23-8.27-.6-15.72-.95-22.57-1.2-13.71-.5-25-.64-35.76-.68v2.33c10.7.29 22 .68 35.66 1.4 6.82.37 14.24.83 22.44 1.53 4.09.36 8.39.78 12.87 1.38 2.24.3 4.53.64 6.82 1.09 1.14.24 2.3.48 3.39.81a6.91 6.91 0 012.4 1 9.21 9.21 0 01.85 1.83c.28.77.53 1.59.77 2.42.47 1.68.88 3.43 1.27 5.22.77 3.59 1.44 7.33 2.06 11.19 1.24 7.72 2.3 15.91 3.23 24.49s1.73 17.54 2.31 26.84 1 18.95.6 28.75c-.1 2.44-.27 4.89-.57 7.3a21.77 21.77 0 01-1.57 6.46c-.26.46-.19.3-.24.36s0 0-.21 0a9 9 0 01-2.63-1.22c-2-1.23-4-2.82-6.24-4.39-1.1-.78-2.22-1.58-3.51-2.32a14.12 14.12 0 00-2.2-1 6.65 6.65 0 00-3-.45 13.1 13.1 0 00-4.73 1.54 37.58 37.58 0 00-3.7 2.19c-2.31 1.51-4.5 3.16-6.62 4.41a13.2 13.2 0 01-1.38.73h-.07a9.7 9.7 0 01-2.2-1.92c-1.75-1.84-3.5-4.06-5.61-6.14s-4.56-4.29-8.3-5.06a10.8 10.8 0 00-5.5.34 14 14 0 00-4.47 2.64c-2.44 2.12-4.16 4.43-6 6.14s-3.42 2.49-5.21 2-4.1-2-6.12-3.64-4-3.75-6.43-5.77a16.19 16.19 0 00-2.12-1.51 5.61 5.61 0 00-3.81-.79 8.07 8.07 0 00-3 1.27c-.73.48-1.38 1-2 1.44-2.43 2-4.52 4-6.65 5.91a30.28 30.28 0 01-6.2 4.67 1.6 1.6 0 01-.83.22 3.46 3.46 0 01-1-.35 18.79 18.79 0 01-3-2.15c-2-1.77-4-3.8-6.08-5.82-1-1-2.1-2-3.31-3a20.55 20.55 0 00-2-1.47 14.71 14.71 0 00-1.31-.7 7.78 7.78 0 00-1.86-.5 8.34 8.34 0 00-3.25.59 19 19 0 00-2.21 1c-1.38.72-2.61 1.49-3.83 2.26-2.41 1.53-4.72 3.09-7 4.49s-4.73 2.75-6.62 3.09a2.35 2.35 0 01-.85 0 .94.94 0 00-.34-.14 3.57 3.57 0 00-.43-.34 11.56 11.56 0 01-2-2.59c-1.3-2.15-2.44-4.68-4.06-7.21a13.21 13.21 0 00-3.42-3.73 7.29 7.29 0 00-6-1 28.15 28.15 0 00-7.85 4.14l-6.46 4.6a24.88 24.88 0 01-6 3.43 1.07 1.07 0 01-.23.06h-.05s-.08-.05-.11-.11l-.11-.36-.21-.73a14.9 14.9 0 01-.32-1.64 48.53 48.53 0 01-.42-7.21 248.71 248.71 0 012.43-28.91c1.22-9.35 2.64-18.35 4.11-27s3-16.84 4.55-24.63c.77-3.9 1.57-7.68 2.37-11.34.42-1.82.83-3.62 1.24-5.38.22-.88.43-1.74.65-2.6l.35-1.24.17-.61.09-.25c0-.2.29-.32.4-.36a11.62 11.62 0 011.49-.43c1.07-.26 2.2-.45 3.33-.62 2.24-.33 4.48-.57 6.66-.76 4.37-.39 8.55-.64 12.54-.85 8-.4 15.16-.61 21.77-.76 13.24-.29 24.18-.34 34.54-.32z"/><path class="cls-12" d="M729.34 633c.91-2 3.23-3.36 5.7-4.26a35.08 35.08 0 018.24-1.81 56.57 56.57 0 019.16-.23 33 33 0 019.35 1.73 7.82 7.82 0 011.91 1 3.75 3.75 0 011.17 1.47 22.73 22.73 0 011.55 4.7 79.52 79.52 0 011.66 10.67c.35 3.69.55 7.47.54 11.29a46.5 46.5 0 01-1.1 11.23 4.79 4.79 0 01-.78 1.69c-.24.14-.59.35-.93.53l-1.21.5a43.49 43.49 0 01-5.42 1.41 68.16 68.16 0 01-11.1 1.22c-7.06 0-15.2-.32-17.24-6.45-2.45-6-2.87-12.58-3.08-18.48 0-5.92.16-11.62 1.58-16.22l-1.44-.58c-1.89 5-2.33 10.67-2.56 16.8 0 6.12.08 12.79 2.67 19.69a21.88 21.88 0 001.3 2.55 9.91 9.91 0 002 2.31 14.61 14.61 0 005.37 2.66 41.87 41.87 0 0011.43 1.21 68.07 68.07 0 0011.71-1.18 41.77 41.77 0 006-1.53l1.53-.62a14.44 14.44 0 001.64-1 7.12 7.12 0 002-3.51 48.27 48.27 0 001.21-12.27 113.46 113.46 0 00-.66-11.64 80.94 80.94 0 00-1.92-11.12 25.82 25.82 0 00-1.93-5.39 7.07 7.07 0 00-2.16-2.52 11 11 0 00-2.67-1.35 34.52 34.52 0 00-10.33-1.62 55.51 55.51 0 00-9.59.61 35.71 35.71 0 00-8.67 2.34c-2.61 1.13-5.28 2.75-6.39 5.54z"/><path class="cls-13" d="M720.29 646.69l-.07-1.93c5.59-.19 12.1-1 12.89-1.81l1.43 1.29c-1.68 1.86-11.33 2.35-14.25 2.45zm3.37 9.24c-1.44 0-2.68 0-3.44-.06l.07-1.93c5.5.21 12-.13 12.87-1l1.34 1.38c-1.4 1.35-6.88 1.61-10.84 1.61zm-.99 10.99l-.58-1.83c.3-.1 7.6-2.4 11.79-2.18l-.1 1.92c-3.91-.19-11.04 2.07-11.11 2.09zm21.54 15.99c-4.08-1.53-1.2-11-.58-12.94l1.83.6c-1.31 4-2.24 9.91-.58 10.53zm9.9.03c-2.67-.73-1.85-7.4-.69-12.87l1.88.4c-1.06 5-1.36 10-.63 10.63zm11.01-23.45l-.18-1.92c.91-.09 9-.85 11.33.07l-.71 1.79c-1.4-.56-7.14-.26-10.44.06zm.19-10.07l-.56-1.84c.88-.27 8.7-2.62 11.47-1.7l-.61 1.83c-1.61-.56-7.19.76-10.3 1.71zm-2.31-9.14l-.23-1.91c13.09-1.58 13.77 0 14 .58l-1.77.75a.57.57 0 00.16.22c-.9-.57-7.01-.26-12.16.36zm-19.39-7.34c-.44-1.75-1.5-11.87-1.54-12.29l1.92-.2c.3 2.89 1.15 10.68 1.49 12zm9.27-.17c0-.37-.55-9.11 0-12.39l1.9.33c-.52 3 0 11.85 0 11.94zm-53.38 45.69c-9.5-1.46-11.19-13.76-11.25-14.29l5.09-.64c0 .09 1.23 9 6.94 9.85z"/><path class="cls-13" d="M696.82 635.52c-1.51-.14-1.72 1.34-2.12 5.49a89.52 89.52 0 01-2.19 11.32 69.09 69.09 0 01-3.43 9.57 46.4 46.4 0 01-3.6 6.64l-1.27 1.74-.25.28h-3l-4.07-.51c-.54-.1-1.08-.23-1.6-.36l-1-.22a50.41 50.41 0 01-9-3.1 74.34 74.34 0 01-13.25-7.77 91.59 91.59 0 01-7.94-6.44l-1.32-1.23a7.49 7.49 0 00-.65-.59L642 650l5.53-10.61c1.87-3.89 3.84-8 5.61-12.15a410.18 410.18 0 009-22.28c4.37-11.71 8.19-23.09 12-35.81 5.75-19.3 8.57-31.28 9.93-37l.66-3c.19-1 .43-2.21-.82-2.5l-3.28-.76c-1.24-.3-1.59.89-1.86 1.87l-.75 2.93c-1.39 5.7-4.27 17.54-10 36.61-3.83 12.57-7.63 23.82-12 35.39-2.72 7.31-5.7 14.7-8.86 22-1.71 4-3.65 8.08-5.47 11.91l-3.08 6.15-2.74 5.09a18.38 18.38 0 00-.86 1.72l-.81 1.66.66.65.66.68c.46.48 1 1.05 1.68 1.69l2.74 2.51c1.78 1.55 4.6 3.94 8.57 6.77a80.87 80.87 0 0014.49 8.24 55.3 55.3 0 0010.14 3.35l.92.21c.64.14 1.28.29 2 .41l4.62.52h2.08c1 0 2.34 0 3.43-.07h.62l1.55-2.23 1.59-2.65a59.15 59.15 0 003.49-7.57 76.18 76.18 0 003.09-10.39 93.26 93.26 0 001.67-12c.13-4.25.12-5.72-1.38-5.82zm-6.21-138.31l-5.07-.8c1.64-10.38 2.42-18.87 2.26-24.52-5.46 1.28-11.33-2.11-11.64-2.29l-2.8-1.66 2.26-2.33c13.8-14.31 16.92-39.43 14.68-51.89l5.05-.91c2.36 13.14-.47 37.67-13.61 53.63 2.09.68 4.85 1.1 6.65-.44l3.54-3 .67 4.59c1.07 7.34-.49 20.16-1.99 29.62zm232.6 161.53a105 105 0 00-1.21-12.41 184.26 184.26 0 00-6.17-25.94c-.42-1.3-.71-2.09-1.43-1.9s-.56 1-.24 2.36a215.63 215.63 0 014.52 25.91 112.86 112.86 0 01.69 12 50.35 50.35 0 01-1 10.7l-.27 1.23a5.47 5.47 0 01-.2.82l-.08.14a1.66 1.66 0 01-.36.62 1.8 1.8 0 01-.49.52 10 10 0 01-3.36 1.76 40.58 40.58 0 01-7.49 1.59c-3.05.4-5.6.65-7.47.84-1 .09-1.79.17-2.38.25-1.39.15-1.52.32-1.64.48l-.17.22.44 3.65c.06.48.43.61 1 .61a9.2 9.2 0 001-.08l2.11-.24c1.91-.22 4.54-.51 7.86-1h.25a43.44 43.44 0 008.09-2 14.08 14.08 0 004.81-2.79 5.61 5.61 0 001.11-1.26 5.2 5.2 0 00.85-1.62 6.66 6.66 0 00.42-1.57l.25-1.34a51.52 51.52 0 00.56-11.55z"/><path class="cls-13" d="M980.56 650.71c-.87-1.85-1.87-3.77-2.86-5.61l-2-3.82c-.84-1.6-1.61-3.23-2.37-4.85-.43-.92-.86-1.84-1.31-2.75-1.19-2.41-2.26-4.89-3.38-7.48-.39-.9-.79-1.8-1.18-2.69-.69-1.56-1.38-3.11-2-4.71-3.66-8.83-7.14-18-10.65-28.18-5.27-15.16-10-30.72-14.51-47.58-3-11.55-5.73-23-8-34-.88-4.29-1.59-8.12-2.12-11.41-.52-2.8-.84-5.09-1.08-6.83l-.49-3.15c-.2-1.12-.41-2.23-1.65-2.08l-4.11.48-.32.39c-.4.46-.36.92-.25 2.05l.36 3.12c.22 1.82.52 4.2 1 7.09.5 3.34 1.17 7.26 2 11.64 2.13 11.21 4.72 22.81 7.72 34.48 4.4 17 9.15 32.8 14.51 48.18 3.57 10.23 7.14 19.57 10.91 28.53.65 1.63 1.39 3.25 2.13 4.88.39.88.79 1.75 1.18 2.65 1.1 2.49 2.25 5.07 3.55 7.66.44.87.86 1.75 1.29 2.63.82 1.71 1.66 3.42 2.57 5.12l2.1 3.9c.26.43.5.85.73 1.27l-.32.28-3.21 2.42c-3.94 2.85-7.72 5.38-11.67 7.81-4.67 2.8-10 6-15.93 7.67a21 21 0 01-9.28.4 12.4 12.4 0 01-7.75-4.49 8.27 8.27 0 01-1.45-3.21 1.87 1.87 0 00-.84-1.35l-.65-.52-.82.72c-.84.73-1 3.33.9 6.32a16 16 0 009.76 6.41 22.15 22.15 0 005.47.66 28.44 28.44 0 005.68-.6 47.65 47.65 0 009.62-3.37c2.66-1.21 5.39-2.58 8.09-4.07 4.86-2.67 8.95-5.18 12.31-7.29l8.75-5.74zM921.1 459.84c-3.5-16.57-2.16-37.07-.41-46.8l2.52.45c-1.71 9.54-3 29.61.4 45.82zm-21.44-110a30.46 30.46 0 00-4.36-9.27 43.13 43.13 0 00-11.48-11.32 49.32 49.32 0 00-7.41-4.24l-.34-.17c-1.12-.53-1.35-.45-1.52-.39l-.26.11-1.48 3.38c-.28.68.5 1 1.19 1.37l.38.17a50.19 50.19 0 016.79 3.72 40.45 40.45 0 0110.61 9.8 27 27 0 014.13 7.84 10.09 10.09 0 01.42 2.07 1.1 1.1 0 01-.05.46l-.15.29a2.43 2.43 0 01-.3.54 14.65 14.65 0 01-3.26 3.38 18.14 18.14 0 01-9.57 3.62 22.84 22.84 0 01-10.58-1.81 26.11 26.11 0 00-1.87-8.63 36.91 36.91 0 00-4.67-8.71c-.49-.61-1.1-1.36-1.73-.91s-.08 1.3.31 1.89a37.1 37.1 0 013.6 8.56 22.66 22.66 0 011.08 8.5 3.69 3.69 0 01-1.25 2.6 19.5 19.5 0 01-3.47 1.61 23.42 23.42 0 01-7.16 1.46 22.17 22.17 0 01-11.18-2.48 25.23 25.23 0 01-5.32-3.69 2.9 2.9 0 00-.76-.59 1.77 1.77 0 010-.21 50.5 50.5 0 00-1.95-6.21c-.3-.82-.6-1.64-.88-2.48a43 43 0 01-2.18-8.76c-.09-.72-.15-1.66-1-1.64s-.75 1.05-.74 1.77a42 42 0 001.39 9.38c.23.95.49 1.9.75 2.84a48 48 0 011.31 5.69 14.56 14.56 0 01.13 2.4l-.06.06v.38a8.44 8.44 0 01-.07.89 4.53 4.53 0 01-1.51 2.45 11 11 0 01-5.83 2.51 22.64 22.64 0 01-11-1.47 31.6 31.6 0 01-5.3-2.52 16 16 0 00-.2-2.57 41 41 0 00-1.54-5.89c-.42-1.31-.85-2.66-1.16-4a20.12 20.12 0 01.07-9.85c.22-.84.47-1.79-.27-2s-1.09.7-1.39 1.51a21.6 21.6 0 00-1 10.87c.25 1.57.61 3.08 1 4.54a37.33 37.33 0 011 5.29 11.14 11.14 0 010 2 1.71 1.71 0 01-.63 1 9.73 9.73 0 01-3.4 1.74 31.28 31.28 0 01-8 1.29 36.19 36.19 0 01-13-1.59c-3.76-1.26-5.1-3.07-5.22-3.24a1.89 1.89 0 00-.79-.77 40.27 40.27 0 01-.35-7.45 32.74 32.74 0 013.54-14.17c.44-.77.93-1.65.27-2.06s-1.21.38-1.74 1.16a34.35 34.35 0 00-5.07 14.82 57.8 57.8 0 00-.41 7.84v.96c0 .17 0 .24-1.08.79l-.23.12a20.22 20.22 0 01-3.41 1.15 37.58 37.58 0 01-6.73 1 44.23 44.23 0 01-10.85-.61 37.83 37.83 0 01-10.27-3.35l-.39-.18a4.39 4.39 0 00-.66-.29c0-.93 0-2 .07-3.21.38-5.73 2-10.3 4.7-13.53 1.44-1.48 1.87-2 1.36-2.52s-1-.12-2.62 1.33c-3.2 3.4-5.21 8.27-6 14.48a42.54 42.54 0 00-.34 5.63v2.06l-.2.15a9.39 9.39 0 01-2.22 1.47 10 10 0 01-2.52.89l-.76.2a22.1 22.1 0 01-7-.06 34 34 0 01-12.37-5 18 18 0 01-2.39-1.87 2.92 2.92 0 01-.51-.55 2.71 2.71 0 00-.23-.26c-.09-.13-.09-.14-.1-.55a11.35 11.35 0 011-5.05 31.54 31.54 0 015.39-8.78 49.24 49.24 0 0112.22-10.42 47.39 47.39 0 018-3.81c1.39-.51 2-.79 1.82-1.46l-1.18-3.51-.24-.11c-.22-.1-.38-.18-2.1.47a50.2 50.2 0 00-8.81 4.29 53.6 53.6 0 00-13.3 11.58 35.33 35.33 0 00-5.93 10.15 15.42 15.42 0 00-1.07 7.06.9.9 0 010 .23 2.53 2.53 0 00.22 1l.17.38a5.86 5.86 0 00.46.89l.27.32a8 8 0 001.1 1.14 20 20 0 003 2.21 37.47 37.47 0 0014 5.29 28.76 28.76 0 003.74.25 23.61 23.61 0 004.57-.44l.79-.23a13.33 13.33 0 003.25-1.25 12.75 12.75 0 003-2c.32-.25.67-.53 1.06-.82l.32-.25v-.05a42.12 42.12 0 009.92 2.78 47.25 47.25 0 007.39.58c1.52 0 3-.07 4.6-.21a41.7 41.7 0 007.47-1.37 23.8 23.8 0 004.1-1.55l.29-.16a9.67 9.67 0 001-.54 16.78 16.78 0 006.56 3.6 36 36 0 0010.77 1.51c1.29 0 2.61-.05 3.95-.16a34.62 34.62 0 009.06-1.92 14.56 14.56 0 003.75-2 34.43 34.43 0 006.16 2.75 28.84 28.84 0 009.07 1.59 23.59 23.59 0 004.24-.38 14.38 14.38 0 007.84-4 8.93 8.93 0 002-3.22 30.13 30.13 0 004.09 2.41 26 26 0 0011.34 2.6c.73 0 1.49 0 2.26-.1a27.13 27.13 0 008.33-2.13l.32-.15a20.56 20.56 0 003.83-2.14 6.55 6.55 0 002.3-4.36 24.48 24.48 0 0010.51 2.57 1 1 0 00.3 0 21 21 0 0011.32-3.48 17.34 17.34 0 004.3-4 6.44 6.44 0 00.67-1.05l.23-.44a5 5 0 00.4-2 13.94 13.94 0 00-.48-3.07zm-136.3 455.88l-3.33-.28c.8-9.32 1.78-18.89 2.81-29 2.38-23.19 4.83-47.16 4.9-67.94h3.34c-.07 20.94-2.54 45-4.92 68.27-1.03 10.1-2.01 19.66-2.8 28.95z"/><path class="cls-12" d="M743.83 813a69.73 69.73 0 01-1 23.3 66.39 66.39 0 01-3.8 12.48 28.23 28.23 0 01-3.15 5.73 6.3 6.3 0 01-1.81 1.76c-.1.06-.12.06-.18.05s0 0-.08 0h-.37l-1.72-.18c-4.61-.51-8.77-2.09-11.59-5.73-1.54-1.75-2.82-4.24-5.62-6.32a10.15 10.15 0 00-2.3-1.22l-1.23-.43-1.23-.21a16.58 16.58 0 00-4.74 0 17.29 17.29 0 00-4.53 1.13 13.27 13.27 0 00-2.22 1l-2.06 1.42a14 14 0 00-4.88 8.81 15.71 15.71 0 002.18 9.77c1.61 3 4.32 5.11 7.07 6.86a25.72 25.72 0 009.06 2.89 24.65 24.65 0 004.6.27l2.26-.08h1.74c5.64.35 11.16.51 16.62.49a125.24 125.24 0 0016.14-1 34 34 0 008-2 12.93 12.93 0 002.09-1.12c.36-.26.72-.57 1.06-.86l.82-1.07a9.12 9.12 0 001.59-4.55 34.15 34.15 0 00-.47-7.81q-.55-3.56-1.09-7a108.27 108.27 0 01-1.25-13.17 92.14 92.14 0 012.25-23.4l-2.25-.58a87.24 87.24 0 00-3.62 24 103.35 103.35 0 00.78 13.77q.42 3.45.85 7a31.3 31.3 0 01.25 6.69 4.51 4.51 0 01-.84 2.35 3.3 3.3 0 00-.3.43l-.41.31a10.59 10.59 0 01-1.26.62 30.39 30.39 0 01-6.86 1.48 128 128 0 01-15.48.66c-5.31 0-10.77-.26-16.26-.64h-.51a4.9 4.9 0 00-1 0h-1l-1.94.07a19.48 19.48 0 01-3.82-.25 20.45 20.45 0 01-7.12-2.24c-2-1.32-4-2.8-5.07-4.87a10.43 10.43 0 01-1.51-6.35 8.66 8.66 0 012.92-5.36l1.31-.92a8.14 8.14 0 011.5-.67 12.13 12.13 0 013.3-.86 8.27 8.27 0 015.87.84c1.54 1 2.92 3.22 4.76 5.35a18.42 18.42 0 006.93 5.19 25 25 0 008 1.9l1.95.15h.54l.83-.08a4.57 4.57 0 001.54-.5 10.25 10.25 0 003.35-3.2 31.89 31.89 0 003.44-6.75 71.35 71.35 0 003.23-37.76z"/><path class="cls-13" d="M749.18 805.76l-3.32-.34c4.38-42.29 5.78-95.38 5.79-95.91l3.34.08c.01.54-1.42 53.76-5.81 96.17z"/><path class="cls-12" d="M754.72 806.2c1.86.17 3.93.3 6.1.54a24.75 24.75 0 013.23.55c1 .25 2.06.73 2.2 1.16a.86.86 0 01.07.67 1.22 1.22 0 01-.53.61 8.57 8.57 0 01-3.11 1.12 47.07 47.07 0 01-8.2.71 41.66 41.66 0 01-8.16-.42 4.62 4.62 0 01-2.64-1.22 2.53 2.53 0 01-.58-1.09c-.09-.42-.11-.44-.07-.55a4.46 4.46 0 012.31-1c1.07-.24 2.19-.38 3.27-.51 2.17-.23 4.24-.36 6.11-.53v-1.55c-1.88-.15-4-.31-6.23-.33a27.26 27.26 0 00-3.64.19 6.49 6.49 0 00-4.29 1.94 3.72 3.72 0 00-.57 3.14 5.64 5.64 0 001.12 2.43 7.8 7.8 0 004.43 2.53 39.16 39.16 0 009 .65 42.79 42.79 0 008.91-.94 11.06 11.06 0 004.39-1.93 4.27 4.27 0 001.62-2.59 4 4 0 00-.65-3 4.49 4.49 0 00-2.14-1.61 9.22 9.22 0 00-2.06-.56 23.71 23.71 0 00-3.66-.25c-2.29 0-4.36.18-6.23.33z"/><path class="cls-13" d="M837.26 805.72c-.79-9.3-1.77-18.87-2.81-29-2.38-23.26-4.84-47.31-4.91-68.24h3.34c.07 20.77 2.52 44.73 4.89 67.91 1 10.15 2 19.73 2.81 29.06z"/><path class="cls-12" d="M854.5 812.62a68.47 68.47 0 00-.28 24.36 67.43 67.43 0 003.52 13.4 31.89 31.89 0 003.44 6.75 10.25 10.25 0 003.35 3.2 4.57 4.57 0 001.54.5l.83.08h.54l1.95-.15a25.09 25.09 0 008-1.9 18.42 18.42 0 006.93-5.19c1.84-2.13 3.22-4.33 4.76-5.35a8.27 8.27 0 015.87-.84 12.33 12.33 0 013.3.86 8.14 8.14 0 011.5.67l1.31.92a8.64 8.64 0 012.91 5.36 10.35 10.35 0 01-1.5 6.35c-1.06 2.07-3.06 3.55-5.07 4.87a20.45 20.45 0 01-7.12 2.24 19.53 19.53 0 01-3.83.25l-1.93-.07h-1a4.85 4.85 0 00-1 0h-.51c-5.5.38-10.95.59-16.27.64a128.07 128.07 0 01-15.48-.66 30.3 30.3 0 01-6.85-1.48 10.59 10.59 0 01-1.26-.62l-.41-.31a2.61 2.61 0 00-.31-.43 4.59 4.59 0 01-.83-2.35 30.66 30.66 0 01.25-6.69q.43-3.57.85-7a103.35 103.35 0 00.75-13.68 87.62 87.62 0 00-3.62-24l-2.25.58a91.7 91.7 0 012.24 23.4 108.2 108.2 0 01-1.24 13.17q-.54 3.43-1.09 7a33.59 33.59 0 00-.47 7.81 9.12 9.12 0 001.59 4.55l.82 1.07c.34.29.7.6 1.06.86a13.28 13.28 0 002.08 1.12 34.17 34.17 0 008 2 125.24 125.24 0 0016.14 1c5.46 0 11-.14 16.62-.49h1.73l2.27.08a24.65 24.65 0 004.6-.27 25.72 25.72 0 009.06-2.89c2.75-1.75 5.46-3.85 7.07-6.86a15.71 15.71 0 002.18-9.77 14 14 0 00-4.88-8.81l-2.07-1.42a12.82 12.82 0 00-2.21-1 17.26 17.26 0 00-4.54-1.13 9.88 9.88 0 00-2.32-.18 10 10 0 00-2.41.16l-1.23.21-1.23.43a10.15 10.15 0 00-2.3 1.22c-2.8 2.08-4.08 4.57-5.62 6.32-2.82 3.64-7 5.22-11.6 5.73l-1.71.18h-.45c-.08 0-.08 0-.18-.05a6.3 6.3 0 01-1.81-1.76 28.23 28.23 0 01-3.15-5.73 66.39 66.39 0 01-3.8-12.48 69.73 69.73 0 01-1-23.3z"/><path class="cls-13" d="M851.44 805.76c-4.39-42.41-5.79-95.63-5.8-96.17l3.33-.08c0 .53 1.41 53.62 5.79 95.91z"/><path class="cls-12" d="M845.9 804.65c-1.87-.15-3.94-.31-6.23-.33a23.83 23.83 0 00-3.67.25 9.15 9.15 0 00-2 .56 4.49 4.49 0 00-2.14 1.61 3.92 3.92 0 00-.65 3 4.27 4.27 0 001.62 2.59 11.06 11.06 0 004.39 1.93 42.79 42.79 0 008.91.94 39.16 39.16 0 009-.65 7.8 7.8 0 004.43-2.53 5.76 5.76 0 001.12-2.43 3.72 3.72 0 00-.57-3.14 6.51 6.51 0 00-4.29-1.94 27.26 27.26 0 00-3.64-.19c-2.28 0-4.36.18-6.23.33v1.55c1.87.17 3.94.3 6.11.53 1.08.13 2.2.27 3.27.51a4.37 4.37 0 012.3 1c0 .11 0 .13-.06.55a2.53 2.53 0 01-.58 1.09 4.66 4.66 0 01-2.64 1.22 41.66 41.66 0 01-8.16.42 47 47 0 01-8.2-.71 8.57 8.57 0 01-3.11-1.12 1.22 1.22 0 01-.53-.61.86.86 0 01.07-.67c.14-.43 1.2-.91 2.2-1.16a24.75 24.75 0 013.23-.55c2.17-.24 4.23-.37 6.1-.54z"/><path class="cls-14" d="M409.82 396.23c9.88 3.06 21.12 7.31 24.57 9.71-3.93 1.31-15.83 2.27-26.14 2.4h-1.84l-.26 1.84c-2.19 13-5.56 27.9-7.83 32.35-1.79-4.8-2.27-19.19-1.66-31.91l.09-1.93-1.88-.35c-8.14-1.44-17.4-3.8-20.73-5.5 3.72-1.4 14.17-2.58 23.31-2.85l1.83-.08.27-1.8c1.74-12.63 5.11-27.06 7.08-29.2 1.53 2.36 2.27 13.46 1.66 25.14l-.09 1.7zm-63.37-287.45c9.88 3.06 21.12 7.3 24.57 9.7-3.93 1.32-15.83 2.28-26.15 2.41H343l-.26 1.84c-2.19 13-5.56 27.89-7.83 32.35-1.79-4.81-2.27-19.19-1.66-31.92l.09-1.92-1.88-.35c-8.14-1.44-17.41-3.8-20.73-5.51 3.72-1.4 14.17-2.58 23.31-2.84l1.83-.09.26-1.79c1.75-12.64 5.12-27.06 7.09-29.21 1.53 2.36 2.27 13.47 1.66 25.14l-.09 1.71zm-232.71 93.39c9.88 3.06 21.12 7.3 24.57 9.71-3.93 1.31-15.83 2.27-26.15 2.4h-1.83l-.26 1.84c-2.19 13-5.56 27.89-7.83 32.35-1.79-4.81-2.27-19.19-1.66-31.91l.09-1.93-1.88-.35c-8.14-1.44-17.4-3.8-20.73-5.51 3.72-1.39 14.17-2.57 23.31-2.84l1.83-.08.26-1.8c1.75-12.63 5.12-27.06 7.09-29.2 1.53 2.36 2.27 13.46 1.66 25.14l-.09 1.7zm38.37 603.55c9.88 3.06 21.11 7.3 24.57 9.7-3.94 1.32-15.83 2.28-26.15 2.41h-1.83l-.27 1.83c-2.18 13-5.55 27.9-7.82 32.36-1.8-4.81-2.28-19.2-1.66-31.92l.08-1.92-1.88-.35c-8.13-1.44-17.4-3.81-20.72-5.51 3.72-1.4 14.16-2.58 23.3-2.84l1.84-.09.26-1.79c1.75-12.64 5.12-27.07 7.08-29.21 1.53 2.36 2.28 13.47 1.67 25.14l-.09 1.71z"/><path class="cls-1" d="M323.75 623.28c9.88 3.06 21.12 7.3 24.57 9.71-3.93 1.31-15.82 2.27-26.14 2.4h-1.84l-.26 1.84c-2.19 13-5.55 27.89-7.83 32.35-1.79-4.81-2.27-19.19-1.66-31.92l.09-1.92-1.88-.35c-8.13-1.44-17.4-3.8-20.72-5.51 3.71-1.4 14.16-2.58 23.3-2.84l1.84-.09.26-1.79c1.75-12.64 5.11-27.06 7.08-29.21 1.53 2.36 2.27 13.47 1.66 25.14l-.08 1.71zm960.45-229c9.89 3.06 21.12 7.3 24.58 9.7-3.94 1.31-15.83 2.28-26.15 2.41h-1.84l-.26 1.83c-2.18 13-5.55 27.9-7.82 32.36-1.8-4.81-2.28-19.2-1.67-31.92l.09-1.92-1.88-.35c-8.13-1.45-17.4-3.81-20.72-5.51 3.71-1.4 14.16-2.58 23.3-2.84l1.84-.09.26-1.79c1.75-12.64 5.12-27.07 7.08-29.21 1.53 2.36 2.28 13.47 1.66 25.14l-.08 1.71zm88.07 51.03c5.6 1.74 12 4.14 13.92 5.5-2.23.75-9 1.29-14.82 1.37h-1l-.15 1c-1.23 7.38-3.14 15.81-4.43 18.33-1-2.72-1.29-10.87-.94-18.08v-1.09l-1.07-.2c-4.61-.82-9.86-2.16-11.74-3.13 2.1-.79 8-1.46 13.2-1.61l1-.05.15-1c1-7.16 2.9-15.34 4-16.55.86 1.33 1.29 7.63.94 14.24l-.05 1zM1358.61 383c5.6 1.74 12 4.14 13.92 5.5-2.23.75-9 1.29-14.81 1.37h-1l-.15 1c-1.24 7.38-3.15 15.81-4.44 18.33-1-2.72-1.29-10.87-.94-18.09v-1.09l-1.07-.19c-4.6-.82-9.86-2.16-11.74-3.13 2.1-.79 8-1.46 13.21-1.61h1l.15-1c1-7.16 2.89-15.34 4-16.56.87 1.34 1.29 7.64.94 14.25v1z"/><path class="cls-14" d="M533.26 701.21c7.77 2.4 16.61 5.74 19.33 7.63-3.1 1-12.45 1.79-20.57 1.89h-1.45l-.2 1.45c-1.72 10.25-4.37 22-6.16 25.46-1.41-3.79-1.79-15.11-1.31-25.12l.1-1.52-1.48-.28c-6.4-1.13-13.69-3-16.3-4.33 2.92-1.1 11.14-2 18.33-2.24l1.45-.06.2-1.42c1.38-9.94 4-21.29 5.57-23 1.21 1.85 1.79 10.59 1.31 19.78l-.07 1.34zm770.43-526.72c14 4.32 29.82 10.31 34.7 13.7-5.56 1.86-22.35 3.21-36.92 3.4h-2.59l-.37 2.59c-3.09 18.4-7.84 39.39-11 45.68-2.53-6.79-3.21-27.1-2.35-45.06l.13-2.72-2.66-.49c-11.48-2-24.57-5.37-29.26-7.78 5.25-2 20-3.64 32.9-4l2.6-.13.37-2.53c2.47-17.84 7.22-38.21 10-41.24 2.16 3.34 3.21 19 2.34 35.5l-.12 2.41zm-1.52 666.74c11.23 3.48 24 8.3 27.93 11-4.48 1.49-18 2.58-29.72 2.73h-2.09l-.3 2.09c-2.48 14.81-6.31 31.7-8.89 36.77-2-5.46-2.59-21.81-1.89-36.28l.1-2.18-2.14-.4c-9.24-1.64-19.78-4.32-23.56-6.26 4.23-1.59 16.1-2.93 26.49-3.23l2.09-.1.3-2c2-14.36 5.81-30.76 8-33.2 1.74 2.69 2.58 15.31 1.89 28.58l-.1 1.94zM280.23 277.93c15.27 4.73 32.63 11.29 38 15-6.08 2-24.46 3.52-40.4 3.72H275l-.41 2.84c-3.38 20.13-8.58 43.11-12.09 50-2.77-7.43-3.52-29.66-2.57-49.33l.13-3-2.9-.54c-12.57-2.23-26.89-5.88-32-8.51 5.75-2.17 21.89-4 36-4.4l2.83-.13.41-2.77c2.7-19.53 7.9-41.82 10.95-45.14 2.36 3.65 3.51 20.82 2.56 38.86l-.13 2.63zM661 110c8.65 2.68 18.49 6.39 21.52 8.5-3.45 1.15-13.86 2-22.89 2.1H658l-.23 1.61c-1.92 11.41-4.86 24.42-6.85 28.33-1.57-4.21-2-16.81-1.46-27.95l.08-1.68-1.65-.31c-7.12-1.26-15.23-3.33-18.14-4.82 3.25-1.22 12.4-2.26 20.4-2.49l1.61-.07.23-1.57c1.53-11.07 4.48-23.7 6.2-25.57 1.34 2.06 2 11.79 1.45 22l-.07 1.49zm467 46.89c8.65 2.68 18.49 6.39 21.51 8.5-3.44 1.15-13.85 2-22.89 2.1h-1.6l-.23 1.61c-1.92 11.41-4.86 24.42-6.86 28.33-1.56-4.21-2-16.81-1.45-27.94l.08-1.69-1.65-.31c-7.12-1.26-15.23-3.33-18.14-4.82 3.25-1.22 12.4-2.26 20.4-2.49l1.61-.07.23-1.57c1.53-11.06 4.47-23.7 6.2-25.57 1.34 2.07 2 11.79 1.45 22l-.07 1.49zM583.82 885.56c8.65 2.68 18.49 6.39 21.52 8.49-3.45 1.15-13.86 2-22.89 2.11h-1.61l-.23 1.61c-1.92 11.4-4.86 24.42-6.85 28.32-1.57-4.21-2-16.8-1.46-27.94l.08-1.68-1.65-.31c-7.12-1.26-15.23-3.33-18.14-4.82 3.25-1.23 12.4-2.26 20.4-2.49l1.61-.08.23-1.57c1.53-11.06 4.48-23.69 6.2-25.57 1.34 2.07 2 11.79 1.45 22l-.07 1.5z"/></g></g></g></svg>