<svg id="Layer_1" data-name="Layer 1" xmlns="http://www.w3.org/2000/svg" viewBox="0 0 1200 1200"><defs><style>.cls-2{fill:#eede78}.cls-5{fill:#fadbcb}.cls-6{fill:#f17706}.cls-7{fill:#c2bca0}.cls-8{fill:#7964ac}.cls-9{fill:#fff}.cls-11,.cls-12{fill:#1c1c1c}.cls-11{fill-rule:evenodd}</style></defs><path d="M462 913.18C360.75 852 294.19 748.85 257.18 626.25c-37.1-122.35-44.82-264 21.35-330.2 66-66.1 205.82-56.86 316.45-32.81 110.71 24.23 192.15 63.1 244.51 127.28 52.44 64.36 75.55 153.92 70.07 261.81-5.56 107.72-39.7 233.76-124.91 287.23-85.38 53.54-221.32 34.69-322.65-26.38z" fill="#eae7f4"/><path class="cls-2" d="M924 336.7a71.16 71.16 0 0110.4 4.41 65.46 65.46 0 01-10.89.94h-1.37l-.23 1.37a133.71 133.71 0 01-2.85 14.58 98.47 98.47 0 01-.29-14.26l.06-1.4-1.37-.27a57.71 57.71 0 01-8.35-2.31 49.38 49.38 0 019.43-1.08l1.4-.06.16-1.37a85.86 85.86 0 012.55-13.25 73.38 73.38 0 01.26 11.06l-.07 1.24zm-8.14-59.6a91.93 91.93 0 0113.77 5.25 88.36 88.36 0 01-14.63 1.17h-1.37l-.22 1.33c-1.15 6.95-2.91 14.88-4.21 18.14-.82-3.32-1.05-11.06-.72-17.78l.06-1.43-1.4-.26a76.57 76.57 0 01-11.35-2.84 67.44 67.44 0 0112.85-1.4h1.37l.17-1.37c.91-6.49 2.57-13.89 3.88-16.37.65 2.21.94 8 .62 13.93l-.07 1.27z"/><path d="M890.64 317.45l.75.1h-.78l-.1.13-.13.23-1.38 2.64c-2.12 4.08-4.34 8.13-6.52 12.14-1 1.86-2.06 3.72-3.07 5.58a37.37 37.37 0 00-8.88-4.63c.4-.72.79-1.47 1.18-2.22 2.19-4 4.37-8.09 6.62-12.07l1.7-3a7.27 7.27 0 00.65-1c.2-.33.29-.75.75-.91a6.37 6.37 0 015-.85 5.81 5.81 0 014 2.67 2 2 0 01.26.85v.39z" fill="#573b20"/><path d="M877.82 341.14c-2.8 5.12-5.58 10.14-8.32 15.14-8.51 15.46-16.7 30.34-24.5 44.46-15.46 28.35-29.39 53.41-40.16 74.81a54.92 54.92 0 00-9.43-.88c11.19-21 24.67-46.33 39.81-74.68 7.53-14.25 15.49-29.23 23.75-44.82 3.29-6.14 6.59-12.34 10-18.63a34.31 34.31 0 018.85 4.6z" fill="#b2a090"/><path class="cls-2" d="M850.81 275.21c7.37 2.28 15.76 5.44 18.33 7.24-2.93 1-11.81 1.69-19.5 1.79h-1.37l-.2 1.37c-1.63 9.72-4.14 20.82-5.84 24.14-1.34-3.58-1.7-14.32-1.24-23.81l.07-1.44-1.41-.26c-6.07-1.07-13-2.84-15.46-4.11 2.77-1 10.57-1.92 17.39-2.12L843 278l.19-1.34c1.31-9.43 3.82-20.2 5.29-21.79 1.14 1.76 1.69 10 1.24 18.75l-.07 1.28z"/><path class="cls-5" d="M810.19 481.36c.1.19.46.81-.55 2.28-2.61 3.85-8.68 5.12-13.51 4.6-3.52-.36-6.49-1.57-8.06-3.26v-.1l-.17-.07a2 2 0 01-.39-.52 7.82 7.82 0 006.07-3.26 8.59 8.59 0 001.5-3.1c6.14.07 13.81 1.07 15.11 3.43zm-4.86 9.1c.82 1.79 1.7 4.44 1 5.84-.13.26-.49 1-2.12 1.27-6.55 1-17.48.75-20.94-2.64a3.07 3.07 0 01-.95-2.84c.26-1.83.88-3.07 1.83-3.69a3.38 3.38 0 012.19-.49 16.9 16.9 0 009.46 3.56 17.82 17.82 0 002.35.13 22.28 22.28 0 007.18-1.14zM803.51 501a3.82 3.82 0 011 2.74c-.2 1-1.47 1.63-2.48 2-4.7 1.82-16.48 1.17-19.35-2.58-.32-.39-1.24-1.63.56-4.24 3.62 1.89 8.87 2.44 13.44 2.44a60.67 60.67 0 006.83-.36z"/><path class="cls-6" d="M796.23 778c.33.55.62 1.07.91 1.6-.13.13-.26.22-.42.36l-4.05 3.06c-5 3.62-9.82 6.85-14.84 10-5.94 3.56-12.66 7.57-20.26 9.72a26.62 26.62 0 01-11.78.53 15.68 15.68 0 01-9.85-5.71 9.38 9.38 0 01-1.21-2.16c0-1.33 0-2.74-.06-4.2a131.28 131.28 0 00-1.6-15.79 231.45 231.45 0 00-7.83-32.95c-.52-1.67-.91-2.68-1.83-2.42s-.71 1.31-.29 3a276 276 0 015.74 32.96 140.14 140.14 0 01.88 15.3c0 1.08 0 2.12-.06 3.1a57.32 57.32 0 01-1.18 10.5l-.32 1.57a5.1 5.1 0 01-.3 1l-.06.17a2.47 2.47 0 01-.49.81 2.83 2.83 0 01-.62.66 12.23 12.23 0 01-4.24 2.21 50.34 50.34 0 01-9.53 2c-3.88.52-7.14.85-9.49 1.07l-1.18.13c-.06-1.63-.19-3.26-.29-4.86-.85-11.94-2-23.39-3.33-34.35s-2.84-21.43-4.6-31.35c-.88-5-1.82-9.79-2.9-14.45-.56-2.32-1.14-4.64-1.83-6.92-.32-1.11-.72-2.25-1.14-3.39a15 15 0 00-1.92-3.66 7.82 7.82 0 00-2.88-1.92 9.22 9.22 0 00-1.43-.52c2.48-25.12 3.72-55.59-1.21-89.2-.65-4.37-1.47-8.77-2.35-13.24l-.32-1.54v-.19c-.09-.16.17-.16.2-.2 1.92-.75 3.88-1.5 5.84-2.25 2.19-.85 4.34-1.7 6.56-2.54s4.27-2 6.42-3a144.54 144.54 0 0012.92-6.5 206.09 206.09 0 0024-15.4c.29 2.29.68 5.22 1.24 8.75.65 4.24 1.5 9.23 2.54 14.78 2.71 14.25 6 29 9.82 43.84 5.58 21.67 11.61 41.66 18.43 61.24 4.54 13 9.07 24.86 13.87 36.24.85 2.09 1.76 4.15 2.71 6.2.49 1.11 1 2.25 1.5 3.36 1.4 3.2 2.87 6.46 4.5 9.76l1.66 3.32c1.05 2.19 2.09 4.38 3.27 6.53z"/><path class="cls-5" d="M791.57 474.44a5.84 5.84 0 01-.72 4.7 4.88 4.88 0 01-4.37 2.35 9.18 9.18 0 01-5.45-2.32c-.88-.68-1.86-1.5-2.51-.75s.22 1.6 1 2.38a11.06 11.06 0 006 3.33l-1.53.65s0 .1.06.13a5.2 5.2 0 00-1.66.72c-1.83 1.17-2.94 3.2-3.33 6a6.3 6.3 0 001.6 5.32c-2.84 4-1.56 6.82-.55 8.19 2 2.64 6.23 4 10.66 4.57a45.63 45.63 0 01-5.87 3.39 1.89 1.89 0 01-.16-.36 18.13 18.13 0 00-2.94-3.56 24.28 24.28 0 00-3.13-2.44 45.07 45.07 0 00-6.49-3.56c-1.11-.49-2.22-.94-3.33-1.4l-1.66-.62c-.13 0-.26-.1-.39-.13.26-1.86.65-4.73 1.37-8.35a79.45 79.45 0 014.83-16.84c1.24-2.8 3-6.16 5.65-7.34a3.58 3.58 0 011.76-.29l2.8.36a15.87 15.87 0 015.22 1.86 6.58 6.58 0 013.14 4.01z"/><path class="cls-7" d="M778.74 515.87s0 .07-.09.26c-.43 1-.95 2-1.44 3a117.6 117.6 0 01-6.85 11.87 158.3 158.3 0 01-17.55 22.15 178.11 178.11 0 01-19.28 17.59 204.72 204.72 0 01-26.79 17.88c-4 2.44-8.28 4.4-12.46 6.42-2.09 1-4.14 2.06-6.23 3l-6.33 2.55c-2.32 1-4.6 1.86-6.88 2.8-1.83 1-5.09 1.05-3.53 3.69l1.11 4.86c1 4.31 1.83 8.61 2.51 12.89 5.49 32.52 5.26 62.47 4 87.4-.91-.23-1.82-.39-2.74-.59-3.07-.55-6.07-1-9-1.34-5.81-.68-11.32-1.17-16.57-1.56-10.54-.75-20-1.21-28.71-1.54-17.42-.62-31.81-.78-45.45-.84-13.18-.33-27.11-.56-44-.49-8.45 0-17.62.16-27.83.55-5.09.2-10.44.46-16.12.88-2.84.23-5.74.52-8.74.92-1.27.19-2.55.39-3.88.68-.23-15.27 1.63-32.72 5.12-52.59 1.76-10.28 4-21.2 6.62-32.85q2-8.71 4.31-18c.78-3.07 1.6-6.2 2.41-9.4q2-7 4-14.38h-.59c-3 .23-5.8.16-9.59 1.37-.65.26-1.33.49-2 .72l-1.5.59c-1 .45-2.06.91-3.1 1.4a99.44 99.44 0 00-12.79 7.53 90 90 0 00-13.05 10.74 43 43 0 00-3 3.55 12 12 0 00-2.38 5 10.44 10.44 0 001.07 5.65 25.2 25.2 0 002.48 4.21 62.77 62.77 0 007.28 8.25c1.17 1.18 2.35 2.22 3.36 3.17.45.39.88.75 1.27 1.1-2.54 2.94-4.6 5.36-6.33 7.38l-2.87 3.29c-.2.23-.39.49-.62.72v.07h-.07l-.32-.27-2.19-1.82c-1.47-1.21-2.9-2.45-4.31-3.66-2.83-2.48-5.61-4.92-8.25-7.43-3.16-2.94-6.23-5.94-9.07-9a1.39 1.39 0 00-.81-.84c-1.67-1.8-3.23-3.63-4.74-5.45-1.07-1.34-2-2.68-3-4a38.67 38.67 0 01-2.35-4.07 17.68 17.68 0 01-.88-2.06c-.13-.62-.29-1.27-.49-1.92a6.46 6.46 0 011.11-3.1c3.23-4.86 8.36-9 13.05-12.76 1.83-1.43 3.69-2.8 5.52-4.14 7.83-5.74 15.66-10.77 23.06-15.43q13-8 24.4-14.59a117.49 117.49 0 009.66 8.16c2.41 1.66 4.89 3.23 7.28 4.83 1.2.78 2.34 1.63 3.62 2.31l3.75 2c2.51 1.27 4.93 2.71 7.44 3.79l7.53 3.06a53.53 53.53 0 007.47 2.55l7.34 2.22c4.93 1 9.69 2.08 14.33 2.77 4.66.46 9.13 1.11 13.44 1.3s8.41.17 12.33.23a160.07 160.07 0 0060.09-10.18 132.12 132.12 0 0019-8.61l.76 1.31 1 2c.46 1.08 1 2.25 1.6 3.59 1.08.07 2.22-.06 3.36-.1.85-.06 1.7-.16 2.55-.26 1.6-.29 3.23-.45 4.86-.84a91.69 91.69 0 009.79-2.74 114.34 114.34 0 0019.67-9 172.61 172.61 0 0033-25.12q2.36-2.25 4.67-4.6c1.5-1.5 3-3 4.5-4.57s2.87-3.23 4.34-4.86c2.8-3.29 5.87-6.52 8.51-10.11 1.37-1.73 2.74-3.52 4.14-5.29l1.9-2.44s.06-.1.13 0l1.89.72c1 .39 2 .82 2.94 1.27a42.3 42.3 0 015.51 3.07 21.21 21.21 0 012.28 1.83 11.91 11.91 0 01.92 1c.26.26.55.78.58.78z"/><path class="cls-8" d="M767.1 377.25a47.77 47.77 0 01-.17 14.62c-1.43 9.66-5.15 18.66-9.49 26.78a130.18 130.18 0 01-13.86 20.69 27.58 27.58 0 00-5.94-1.83 34.73 34.73 0 00-19.48 2.19 96.73 96.73 0 00-3.82-9.3 112.54 112.54 0 00-13-21 20.35 20.35 0 002.25-2.55 9.11 9.11 0 00.85-1.33l.3-.56a6.67 6.67 0 00.52-2.58 17.65 17.65 0 00-.59-3.78 38.72 38.72 0 00-5.51-11.78 47.84 47.84 0 00-7-8.19 120 120 0 0113.84 5.6c5 2.55 9.76 5.42 12.76 9.07 1.5 1.8 2.38 3.79 2.12 5.68s-1.57 3.65-3.1 5.12a18.56 18.56 0 00-1.57 1.37 11.45 11.45 0 00-1.27 1c-.72.65-1.08 1.17-.94 1.43s.75.26 1.72 0a16.12 16.12 0 001.7-.62c.59-.32 1.27-.72 2-1.2a11.33 11.33 0 004.76-6.56 10.94 10.94 0 00-2.15-8.65c-3.36-4.86-8.29-8.25-13.47-11.38-10.15-5.88-22.06-10.25-35-13.9-.46-.16-.94-.29-1.43-.43-27.05-7.27-58.66-11-92.17-10.53-30.92.58-60.19 6.07-84.88 15.56-2.12.78-4.21 1.63-6.27 2.51-12.95 5.51-24.53 12.14-33.6 20.39-4.5 4.11-8.45 8.68-10.67 14a18 18 0 00-1.6 8.32 13.78 13.78 0 002.71 7.43 23 23 0 001.6 1.77 8.37 8.37 0 001.5 1c.88.52 1.47.65 1.66.42s0-.81-.55-1.59c-.26-.4-.59-.85-.95-1.34s-.68-1.14-1.07-1.73c-2.19-3.66-2-8.35.36-12.59s6.1-8.16 10.47-11.68a83.55 83.55 0 018.58-5.91 44.48 44.48 0 00-7.47 12.79 19.94 19.94 0 00-1.37 9 1 1 0 010 .3 2.84 2.84 0 00.29 1.23l.2.46a9 9 0 00.59 1.14l.36.43a11.09 11.09 0 001.37 1.43 26.51 26.51 0 002.9 2.25 131.25 131.25 0 00-7.83 19.84 34.24 34.24 0 00-20.29-2.55 23.47 23.47 0 00-11.81 5.61 13.69 13.69 0 00-1.69 1.89 100.65 100.65 0 01-9.69-21c-2.74-8.74-4.37-18.3-3.46-28a53.5 53.5 0 0111.06-27.4c6.39-8.12 15.14-14.88 25.06-20.16 2.38-1.47 5.08-2.48 7.63-3.75l3.88-1.83 4.08-1.57c2.74-1 5.42-2.15 8.22-3.06s5.68-1.73 8.55-2.61 5.77-1.6 8.74-2.32l2.25-.55c2.19-.56 4.41-1.11 6.66-1.63 6-1.11 12.13-2.39 18.33-3.36a543.18 543.18 0 0159.64-5.68c6.07-.26 12.2-.46 18.37-.56 25.83-.42 51.09.07 75.16 2.55 1 .06 2.06.19 3.07.29 3.13.36 6.23.65 9.33 1.08s6.1 1 9.13 1.43c6.14.82 12 2.35 17.85 3.59 11.55 3 22.74 6.46 32.59 11.75s18.47 12.1 23.33 21l1.76 3.33a26.19 26.19 0 011.3 3.49 36.56 36.56 0 011.76 7.21zm-3.2-124.16a54.59 54.59 0 011.1 11.41c-.13 2.45-.36 7-2.42 7.74-1 .32-2.47-.17-3.65-.62a26.3 26.3 0 01-4.76-2.74 79.17 79.17 0 01-9.17-7.64 242.77 242.77 0 01-16.83-18c-9.56-11.19-19.38-23.72-30.83-39.38-2.87-4-4.7-6.53-6-8.06 3-4.21 6.16-9.07 7.83-14.81.55-2.71.81-4.24-.59-4.57s-1.89 1.18-2.58 3.66c-2 5.45-5.71 10.24-9.43 14.61A135 135 0 01675.49 206c-3.92 3.56-7.18 6.23-9.2 7.83-1 .85-2 1.53-2.71 2.12l-1.14.82a20.5 20.5 0 00-2.51-2.52 19.52 19.52 0 00-11.62-4.73 1.08 1.08 0 00-.55 2.09 24.49 24.49 0 0111.25 11 10.4 10.4 0 01-.06 1.11l.1.43c.19.55.45 1.3.55 1.69l.56 2.06c.13.52.26 1 .35 1.53.36 1.6.72 3.2 1 4.8.56 3.1 1 6.23 1.41 9.36.81 6.3 1.27 12.36 1.66 17.19.59 9.17 1 18.21 1.14 27.64.13 7 .2 12.82.2 17.45a290.29 290.29 0 00-51.06-6.59 26.79 26.79 0 00-1-8.32 21.07 21.07 0 00-11.09-12.33c-5.29-2.64-11.32-3.59-17.36-3.69S573.12 276 568 279.12a21.75 21.75 0 00-9.85 13.28 32.44 32.44 0 00-.88 6.88c-26.85 1.54-46 7.73-55.3 11.42 7.34-12.1 17.91-29.3 31.39-50.34 9.95-15.46 20.88-32.26 33.34-50.08l9.92-13.86c1.27-1.63 2.51-3.3 3.78-5 2.25-3 4.57-6.1 7-9.1l5.75-7c1.24-1.5 2.57-2.9 3.88-4.3.75-.82 1.53-1.67 2.31-2.55a33.33 33.33 0 014.38-4.17c.71-.62 1.43-1.28 2.18-1.93a30.55 30.55 0 013.56-2.8l4.5-3.3c10.31-7.5 21-15.23 32.56-21.82 14.55-8.26 26.62-11.91 37.94-11.49.62.07 1.27.13 1.93.17 1 .09 2.08.16 3 .32a15.46 15.46 0 013.78 1.47 44.1 44.1 0 017.93 6.13 124.23 124.23 0 0114 16.67 308.64 308.64 0 0123.62 39.12 347.87 347.87 0 0118.82 43.29 158.17 158.17 0 016.36 22.96z"/><path class="cls-5" d="M750.69 456.5c.68 8.09-4.86 14.94-11.06 18.17a25.37 25.37 0 01-9.59 3 25.67 25.67 0 01-6.56-.3c.1-2 .23-4.11.33-6.13-.07-3-.2-6-.49-9a90.51 90.51 0 00-1.86-11.16c3.16-1.17 7.83-3.13 13.11-2.94a14.17 14.17 0 013.56.56 12.41 12.41 0 012 7.63c-.13 3.76-1.5 7.08-2.09 9.27a.38.38 0 00.13.46c.13.09.29 0 .42-.13a16.09 16.09 0 003.85-9.5 11 11 0 00-1.33-5.94 5.89 5.89 0 00-.59-.91 11.39 11.39 0 011.47.78 19.74 19.74 0 014.53 4.11c.2.23.39.36.52.3s.17-.33.07-.59a13.29 13.29 0 00-4.05-5.32 14.47 14.47 0 00-8.35-3 20.11 20.11 0 00-8.61 1.66 24 24 0 00-4.83 2.68c-.68-2.91-1.47-5.71-2.38-8.42a36.52 36.52 0 0117.94-.42 20.38 20.38 0 019.53 5 15.47 15.47 0 014.33 10.14z"/><path class="cls-6" d="M730.17 480.7h1c-2 12.4-3.3 35.53.32 55.14a176.33 176.33 0 01-30.5 24.3 115.16 115.16 0 01-18.63 9.3 86 86 0 01-9.23 3c-1.5.45-3 .68-4.53 1l-2.13.32a7.19 7.19 0 01-1.2.1c-.3-.62-.59-1.14-.82-1.63-.39-.78-.75-1.43-1.11-2a15.13 15.13 0 00-.78-1.31c3.65-2.09 7.31-4.37 10.9-6.82a122.09 122.09 0 0028.8-27.37c8.19-11 14.65-23 17.78-35.62 1.15-3 1.41-6.27 2.06-9.37.29-1.53.55-3.1.85-4.63a38 38 0 00.36-4.67v-.68a25 25 0 006.86.94z"/><path class="cls-5" d="M719.4 462.6c.23 2.84.33 5.71.33 8.61-.2 2.87-.39 5.81-.59 8.78a40.74 40.74 0 01-.42 4.43l-.89 4.47c-.65 2.94-.91 6-2.05 8.94-3.1 12-9.36 23.49-17.23 34a120.05 120.05 0 01-27.63 26.55 144.1 144.1 0 01-31.48 16.9 169.76 169.76 0 01-58.69 11.88c-15.4-.59-34.26-2.74-53.5-10.77-2.39-1-4.8-2.06-7.21-3.1s-4.73-2.51-7.15-3.78c-1.17-.66-2.38-1.31-3.59-2s-2.31-1.53-3.46-2.29c-2.31-1.56-4.6-3.13-6.94-4.73a119.72 119.72 0 01-24.24-25.12c-7-9.82-11.68-20.71-15-31.45-.75-2.74-1.47-5.44-2.19-8.12-.55-2.71-.91-5.45-1.34-8.12-.23-1.34-.45-2.68-.65-4s-.16-2.68-.26-4c-.16-2.67-.33-5.28-.49-7.86-.16-10.27 1.73-20.06 3.95-28.93a145.92 145.92 0 017.27-21.54 46.78 46.78 0 0016.87 6.17 34.76 34.76 0 004.76.33 30.93 30.93 0 005.84-.56l1-.29a16.07 16.07 0 004.14-1.6 16.66 16.66 0 003.85-2.51c.4-.33.82-.69 1.34-1.05l.39-.32v-.07a53 53 0 0012.6 3.56 59.31 59.31 0 009.39.71q2.89 0 5.84-.26a53.52 53.52 0 009.49-1.73 30 30 0 005.22-2l.36-.19a8.41 8.41 0 001.21-.69 21.24 21.24 0 008.35 4.57 45.84 45.84 0 0013.7 1.93c1.64 0 3.3-.07 5-.2a44.32 44.32 0 0011.51-2.45 17.81 17.81 0 004.77-2.57 44.1 44.1 0 007.82 3.49 36.86 36.86 0 0011.55 2 28.72 28.72 0 005.39-.49 18.07 18.07 0 0010-5.09 10.8 10.8 0 002.54-4.08 37.58 37.58 0 005.12 3.14 33.18 33.18 0 0014.42 3.29c.91 0 1.86 0 2.87-.13a34.17 34.17 0 0010.57-2.7l.39-.17a27.32 27.32 0 004.9-2.74 8.32 8.32 0 002.9-5.54 31.06 31.06 0 0013.38 3.26c.13 0 .29.06.36 0A27 27 0 00698.2 412c.55-.4 1.07-.79 1.56-1.18a116.2 116.2 0 0111.78 20.88 97.25 97.25 0 017.86 30.9zm-38.23 38.82a30.09 30.09 0 006-24.6 40.73 40.73 0 00-3.72-11.16 21 21 0 00-1.44-2.41l3-4.93-2.78-1.69-2.38 3.88a19.79 19.79 0 00-3.72-3.39l-.78-.53 1.43-4.53-3.1-1-1.23 4a24.36 24.36 0 00-5.78-1.83l.52-5.35-3.23-.32-.52 5.18a48.7 48.7 0 00-6.07-.23h-.75l-1.11-5.12-3.19.69 1 4.63a29.64 29.64 0 00-5.15.91c-.59.17-1.21.36-1.79.59l-3.17-4.5-2.67 1.89 2.74 3.88a32.58 32.58 0 00-4.34 2.55c-.2.13-.39.29-.59.45l-4-3.36-2.12 2.48 3.49 3a30.71 30.71 0 00-9.46 16.22 31.63 31.63 0 00-.26 12.62 27.26 27.26 0 005.61 12.11c5.74 7.3 15.24 11.32 24.76 11.51a30.67 30.67 0 0024.8-11.64zM620.39 524a1.59 1.59 0 00-1.41-1.79 1.62 1.62 0 00-1.82 1.4c-2.48 20.78-21.14 27.67-36.35 27.11-17.16-.52-35.88-10.18-36.86-27a1.63 1.63 0 00-3.26.2c1.11 18.79 21.43 29.52 40 30.07h1.56c16.31.01 35.49-7.78 38.14-29.99zm-24.54-18.82a12.21 12.21 0 001-7.34 16.38 16.38 0 00-1.93-5.42c-.29-.49-.65-.75-1-.65s-.39.59-.29 1.11c.59 3 1.08 7.21-1.11 10.5-2 3.3-6.82 5.16-11.87 5.06s-9.86-2-12.11-5.22a9.92 9.92 0 01-1.73-5.25 19.24 19.24 0 01.62-5.09c.13-.52 0-1-.26-1.11s-.65.13-.94.62a15.66 15.66 0 00-2.09 5.38 11.94 11.94 0 001.24 7.38c2.74 5.05 9 7.79 15.2 7.92a20.25 20.25 0 009-1.89 13.07 13.07 0 006.27-6.04zm-55.13-10.31a30.48 30.48 0 000-12.76 31.08 31.08 0 00-8.91-16.11l3.4-2.87-2.12-2.51-3.79 3.23a9.39 9.39 0 00-1.14-.88 28 28 0 00-3.75-2.25l2.54-3.63-2.67-1.86-2.87 4.08c-.85-.32-1.7-.62-2.55-.85a35.17 35.17 0 00-4.57-.91l.85-4-3.19-.65-.95 4.43h-1.5a36.56 36.56 0 00-5.55.26l-.45-4.5-3.27.33.53 4.83a26.41 26.41 0 00-5.78 2.18l-1.21-3.82-3.1 1 1.44 4.54c-.42.29-.82.62-1.24.94a24.2 24.2 0 00-3.26 3l-2.38-3.85-2.78 1.7 2.94 4.76a38.79 38.79 0 00-6.59 13.8 51.73 51.73 0 00-1.21 6.07 22.91 22.91 0 00.1 6.66 23.61 23.61 0 006 12.23c6.42 6.82 16 10.34 25.61 10.44s19.37-3.69 25.38-10.86a28.07 28.07 0 006.04-12.21z"/><path class="cls-7" d="M710.17 1040.92a13.31 13.31 0 01-1.89 8.06c-1.37 2.64-3.92 4.53-6.46 6.2a27 27 0 01-9 2.87 26.44 26.44 0 01-4.86.29l-2.48-.06h-1.24a6.83 6.83 0 00-1.21 0h-.65c-7 .49-13.93.75-20.68.81a157.76 157.76 0 01-19.68-.85 38.08 38.08 0 01-8.71-1.85 11.13 11.13 0 01-1.59-.82l-.53-.39c-.13-.17-.26-.36-.39-.52a5.7 5.7 0 01-1-3 40 40 0 01.29-8.51q.59-4.5 1.08-8.91a132.94 132.94 0 001-17.39 110.69 110.69 0 00-3.76-27.43 71.93 71.93 0 008.32.62 54 54 0 0010.22-.59 89 89 0 00.13 28.25 86.48 86.48 0 004.47 17 39.44 39.44 0 004.4 8.58 12.43 12.43 0 004.24 4.08 5.5 5.5 0 002 .62l1 .13.69-.06 2.48-.2a31.9 31.9 0 0010.11-2.41 23.31 23.31 0 008.81-6.59c2.35-2.71 4.11-5.52 6.07-6.79s4.5-1.53 7.43-1.08a16.27 16.27 0 014.21 1.08 18.76 18.76 0 011.93.85l1.66 1.17a11 11 0 013.59 6.84z"/><path class="cls-6" d="M700.51 402.54a1.32 1.32 0 01-.06.58l-.2.4a3.51 3.51 0 01-.39.68 16.58 16.58 0 01-2.71 3.07 13.55 13.55 0 01-1.43 1.24 23 23 0 01-12.11 4.49 29 29 0 01-13.44-2.31 33.51 33.51 0 00-2.38-11 46.5 46.5 0 00-5.94-11.06c-.62-.78-1.4-1.72-2.18-1.17s-.1 1.66.39 2.41a47.69 47.69 0 014.57 10.9 28.51 28.51 0 011.37 10.8 4.63 4.63 0 01-1.6 3.29A22.79 22.79 0 01660 417a28.61 28.61 0 01-9.07 1.83 28 28 0 01-14.22-3.14A30.92 30.92 0 01630 411a3.86 3.86 0 00-1.11-.69.59.59 0 000-.26 53 53 0 00-2.48-7.89c-.35-1-.75-2.09-1.1-3.17a56.16 56.16 0 01-2.78-11.12c-.13-.92-.19-2.12-1.27-2.09s-.95 1.34-.91 2.25a53.17 53.17 0 001.65 11.9c.29 1.2.62 2.41.94 3.62a58.48 58.48 0 011.67 7.24 17 17 0 01.16 3l-.06.07v.36a.21.21 0 000 .13 10.28 10.28 0 01-.1 1.14 5.68 5.68 0 01-1.92 3.1 14 14 0 01-7.41 3.2 29 29 0 01-14-1.86 46.22 46.22 0 01-6.76-3.2 16 16 0 00-.26-3.26 47.27 47.27 0 00-2-7.51c-.53-1.66-1-3.39-1.44-5.08a25.76 25.76 0 01.07-12.53c.29-1.08.58-2.29-.33-2.58s-1.4.88-1.76 1.93a27.13 27.13 0 00-1.27 13.8c.32 2 .78 3.91 1.2 5.77a45.15 45.15 0 011.28 6.72 14.8 14.8 0 01.06 2.61 2.27 2.27 0 01-.78 1.27 12.53 12.53 0 01-4.34 2.19 40.89 40.89 0 01-10.21 1.66 46.32 46.32 0 01-16.45-2c-4.76-1.6-6.49-3.92-6.65-4.11a2 2 0 00-1-1 51.74 51.74 0 01-.46-9.49c.2-4.77 1.11-11.78 4.51-18 .55-1 1.17-2.12.35-2.64s-1.4.52-2.04 1.52c-4.21 6.26-5.84 13.7-6.46 18.85a75.78 75.78 0 00-.53 9.95v1.24c0 .2 0 .3-1.37 1l-.3.16a24.93 24.93 0 01-4.34 1.47 50.28 50.28 0 01-8.54 1.31 56.59 56.59 0 01-13.8-.79 47.51 47.51 0 01-13.05-4.27l-.49-.23a7.23 7.23 0 00-.85-.36c0-1.17 0-2.54.1-4.07.49-7.31 2.51-13.09 6-17.2 1.83-1.89 2.38-2.54 1.73-3.19s-1.34-.17-3.33 1.69c-4.08 4.31-6.62 10.47-7.6 18.37a52.42 52.42 0 00-.43 7.18v2.61a1.46 1.46 0 00-.26.19 12.71 12.71 0 01-2.91 1.73 12 12 0 01-3.19 1.14c-.36.1-.72.17-1 .26a27.28 27.28 0 01-8.91-.09 42.87 42.87 0 01-15.72-6.4 20.59 20.59 0 01-3-2.38 3 3 0 01-.65-.68 1.55 1.55 0 00-.29-.33c-.1-.16-.1-.2-.14-.72a14.63 14.63 0 011.23-6.44 40.55 40.55 0 016.85-11.19 63.32 63.32 0 0115.56-13.25c.56-.32 1.08-.62 1.6-.88.88-.36 1.76-.72 2.65-1 25.31-9.53 56-15.11 88.57-15.73s63.65 2.55 90.17 8.48c1.21.3 2.42.56 3.59.89a64.39 64.39 0 017.34 4.14A51.5 51.5 0 01694.74 390a33.65 33.65 0 015.22 9.95 12.49 12.49 0 01.55 2.59z"/><path class="cls-8" d="M696.24 815.72c.55 10 .88 20.39.49 30.89-.13 3.1-.36 6.23-.75 9.27s-1 6.23-2 8.22c-.33.59-.23.39-.3.46s0 .06-.26 0a10.54 10.54 0 01-3.36-1.53c-2.54-1.57-5.15-3.59-7.93-5.58a44.45 44.45 0 00-4.47-3 18.44 18.44 0 00-2.77-1.3 8.75 8.75 0 00-3.88-.59 17.15 17.15 0 00-6 2c-1.7.88-3.2 1.83-4.7 2.8-2.94 1.93-5.71 4-8.42 5.62a17 17 0 01-1.76.91h-.06a13.11 13.11 0 01-2.81-2.45c-1.89-2-3.78-4.34-6-6.62-.36-.39-.75-.78-1.15-1.18-2.7-2.54-5.77-5.44-10.53-6.42a13.66 13.66 0 00-7 .42 17.42 17.42 0 00-5.68 3.36c-3.1 2.71-5.29 5.65-7.6 7.8s-4.34 3.16-6.62 2.58-5.22-2.48-7.77-4.64-5.09-4.76-8.19-7.3a15.27 15.27 0 00-2.71-1.93 7 7 0 00-4.82-1 9.59 9.59 0 00-3.79 1.63 23.62 23.62 0 00-2.51 1.83c-3.1 2.48-5.74 5.09-8.45 7.5s-5.51 4.83-7.9 5.94a2.51 2.51 0 01-1 .29 5.49 5.49 0 01-1.24-.45 23.75 23.75 0 01-3.78-2.74c-2.58-2.26-5.09-4.83-7.73-7.41-1.34-1.27-2.68-2.58-4.21-3.85a28.16 28.16 0 00-2.55-1.86 12.07 12.07 0 00-1.63-.88 10.35 10.35 0 00-2.38-.65 11 11 0 00-4.11.75 22.11 22.11 0 00-2.84 1.34c-1.73.91-3.29 1.89-4.86 2.87s-3.2 2.08-4.76 3.06-2.78 1.8-4.15 2.65c-2.87 1.69-6 3.49-8.41 3.91a2.42 2.42 0 01-1.08 0 2.3 2.3 0 00-.42-.16 4.19 4.19 0 00-.59-.42 16.23 16.23 0 01-2.51-3.3c-1.64-2.74-3.07-5.94-5.13-9.17a17.37 17.37 0 00-4.37-4.73 9.38 9.38 0 00-7.6-1.24c-4.21 1.28-7 3.33-9.95 5.26-2.77 2-5.48 3.91-8.22 5.87-2.61 1.79-5.48 3.72-7.63 4.34-.07 0-.2 0-.27.06H455s-.1 0-.13-.13v-.06l-.13-.46-.26-.91c-.19-.62-.26-1.41-.42-2.09a63.64 63.64 0 01-.52-9.17c.13-12.53 1.56-24.89 3.1-36.73s3.36-23.4 5.2-34.32 3.81-21.4 5.77-31.29c1-5 2-9.75 3-14.42.56-2.31 1.08-4.6 1.6-6.82.26-1.1.55-2.21.82-3.29l.45-1.6.2-.78.13-.3c0-.26.36-.42.49-.45a15.07 15.07 0 011.89-.56c1.37-.32 2.81-.58 4.24-.78 2.87-.42 5.71-.72 8.48-1 5.55-.49 10.87-.81 15.92-1.08 10.12-.52 19.28-.78 27.67-1 16.83-.36 30.73-.43 43.91-.4 13.6.36 28 .85 45.31 1.77 8.68.49 18.11 1.07 28.52 2 5.22.46 10.67 1 16.34 1.77 2.87.35 5.78.81 8.68 1.37 1 .22 2.12.45 3.17.75a10 10 0 011.14.29 8.52 8.52 0 013.06 1.34 13.25 13.25 0 011.08 2.31c.36 1 .69 2 1 3.07.59 2.15 1.11 4.37 1.6 6.66 1 4.53 1.82 9.29 2.64 14.19 1.57 9.82 2.9 20.22 4.08 31.12s2.22 22.31 2.93 34.12c.04 1.86.21 3.76.28 5.65zM546.33 767l2.25-1c-.23-.55-.78-1.86-8.25-1.56-.23-1.24-.49-2.48-.82-3.72a32.6 32.6 0 00-2.48-6.82 8.74 8.74 0 00-2.74-3.23 14.74 14.74 0 00-3.39-1.7 38.66 38.66 0 00-10.54-1.92 25.85 25.85 0 01.26-4.24l-2.41-.39a27.4 27.4 0 00-.29 4.5h-.13a67.71 67.71 0 00-10.38.52c-.19-2-.39-3.79-.52-5l-2.45.26c0 .23.26 2.38.52 5a45.12 45.12 0 00-10.4 2.9c-3.3 1.43-6.69 3.49-8.09 7a53.55 53.55 0 00-2.94 15.4c-2.22.2-4.6.33-6.85.43l.1 2.44c1.37 0 3.85-.16 6.59-.39-.07 1.21-.13 2.41-.17 3.62 0 2 0 4 .07 6-2.12.06-4.37 0-6.49 0l-.1 2.45c1 0 2.54.07 4.37.07h2.32a58.9 58.9 0 001.33 10.15c-3 .72-5.44 1.47-5.64 1.53l.75 2.35c.07 0 2.48-.78 5.48-1.5a36 36 0 001.31 4 25.73 25.73 0 001.63 3.23 11.57 11.57 0 002.61 2.94 18.2 18.2 0 006.82 3.39 44.49 44.49 0 006.81 1.24c-.16 3.2.36 6.1 2.71 7l.85-2.28c-1-.36-1.24-2.18-1.11-4.5 1.73.1 3.49.13 5.25.1s3.56-.1 5.35-.26c-.16 3.62.33 6.46 2.22 7l.72-2.32c-.46-.42-.59-2.32-.39-4.89 2.32-.23 4.66-.56 7-1a56.08 56.08 0 007.57-1.93l1.93-.81a13 13 0 002.08-1.21 9.12 9.12 0 002.58-4.47 55.1 55.1 0 001.5-13.61 14.3 14.3 0 014.28.4l.91-2.29a17 17 0 00-5.15-.58c0-4-.27-8-.62-11.81a12.27 12.27 0 014.92-.23l.78-2.32c-1.33-.46-3.58-.29-5.93.1-.3-2.68-.66-5.35-1.14-8 2.9-.13 5.15-.07 5.77.32a1.61 1.61 0 01-.22-.36z"/><path class="cls-9" d="M683.32 477.54a26.22 26.22 0 01-5.61 21.07 26.5 26.5 0 01-21.18 9.76c-8.41-.16-16.57-3.62-21.46-9.66-5.06-5.94-6.33-14.09-5-21.17a28.26 28.26 0 0110.6-17.06 30.1 30.1 0 018.23-4.48 31.88 31.88 0 018.48-1.6c5.52.3 11.91 1.21 16.93 5.16s7.87 10.61 9.01 17.98zm-8.55 4.57a18.75 18.75 0 00-.29-3.3 10.75 10.75 0 11-15.17-14.65 18.14 18.14 0 1015.46 17.95z"/><path class="cls-2" d="M665.9 309.17V315a531.46 531.46 0 00-54.55-2.81 28.11 28.11 0 003.23-9.72c19.42.99 35.89 3.11 51.32 6.7z"/><path class="cls-7" d="M651.25 981.22c.06.13 0 .16-.07.72a3.23 3.23 0 01-.75 1.37 5.75 5.75 0 01-3.36 1.56 54.87 54.87 0 01-10.34.53 62.48 62.48 0 01-10.44-.89 11.45 11.45 0 01-3.95-1.43 1.81 1.81 0 01-.68-.78 1.22 1.22 0 01.1-.85c.16-.56 1.53-1.18 2.8-1.47a29.42 29.42 0 014.11-.72c2.74-.29 5.39-.45 7.74-.68 2.38.23 5 .39 7.76.68a40.27 40.27 0 014.18.65 5.82 5.82 0 012.9 1.31z"/><path class="cls-5" d="M643.26 976.23c-2.48 0-4.77.23-6.85.39-2.09-.16-4.38-.36-6.89-.39-1-11.42-2.18-23.13-3.42-35.53-2.91-28.28-5.88-57.48-6.2-83.12.49-.49 1-1 1.47-1.41 2.28-2 4.53-2.74 6.88-2.28s4.83 2.35 7.11 4.57a9.27 9.27 0 01.82.84c.42 14.39 2.38 70.41 7.08 116.93z"/><path class="cls-2" d="M610.31 292.17a26.19 26.19 0 011.14 12.46 30.29 30.29 0 01-2.09 7.57h-5.87a17.76 17.76 0 002.61-12.13 12.91 12.91 0 00-2.51-5.81 15.36 15.36 0 00-5.06-4.15 28.39 28.39 0 00-12.53-2.77 24.61 24.61 0 00-12.69 2.84 14.62 14.62 0 00-7.15 10.24 19 19 0 002.39 12.73c-1.93.1-3.82.19-5.71.32a27.48 27.48 0 01-2.12-7.4 30.49 30.49 0 011-12.63 18.46 18.46 0 018.54-10.54c4.25-2.44 9.6-3.39 15.11-3.36a38.47 38.47 0 0115.5 3 17.72 17.72 0 019.44 9.63z"/><path d="M602.25 300.85a15.22 15.22 0 01-.72 8.71 18.64 18.64 0 01-1.37 2.67c-2.87 0-5.71 0-8.58.1-6.72.1-13.38.33-20 .65a16.87 16.87 0 01-1.58-11.77 10.77 10.77 0 015.51-7.15 20.71 20.71 0 0110.36-2.06 26.18 26.18 0 0110.67 2.09 9.85 9.85 0 015.71 6.76z" fill="#c088bd"/><path class="cls-2" d="M557.42 302.54a27.33 27.33 0 003.43 11.06c-16.54 1.08-32.76 2.87-48.51 5.45-5.91 1-11.75 2.25-17.55 3.4l.78-1.24c1-1.7 2.18-3.59 3.46-5.71 6.23-2.78 27.2-11.13 58.39-12.96z"/><path class="cls-8" d="M537.78 778.33c.26 3.59.43 7.28.43 11-2.32.13-4.24.32-4.7.35l.23 2.45c1.27-.13 2.84-.23 4.44-.32A52.08 52.08 0 01536.8 804a6.71 6.71 0 01-1 2.16c-.33.16-.75.42-1.21.65l-1.53.65a59.49 59.49 0 01-6.89 1.8c-1.86.36-3.75.65-5.64.88.19-1.31.42-2.65.72-4l-2.39-.52c-.32 1.57-.65 3.2-.88 4.8-2 .23-3.94.32-5.9.39h-4.54a40.88 40.88 0 011.18-4.5l-2.32-.79c-.26.85-.88 2.81-1.37 5.12-6.75-.45-13-2.18-14.87-8a41.61 41.61 0 01-1.15-3.23 24.24 24.24 0 014.86-.42l.13-2.45a28 28 0 00-5.67.49 64.28 64.28 0 01-1.6-9.53c3.59-.22 6.92-.78 8.09-1.89l-1.73-1.73c-.59.59-3.2 1-6.56 1.18-.13-2-.22-4-.29-5.91v-4c3.85-.42 7.51-1.17 8.58-2.38l-1.79-1.63c-.56.56-3.23 1.11-6.72 1.54a53.17 53.17 0 011.92-14.2c1.14-2.54 4.08-4.27 7.25-5.41a43.07 43.07 0 019.78-2.19c.39 3.26.82 6.53 1.08 7.54l2.38-.59c-.23-.88-.62-3.95-1-7.21a66.71 66.71 0 019.82-.13 1 1 0 01.3 0c.06 3.85.26 7.41.29 7.67l2.41-.13c0-.1-.19-3.59-.26-7.34a37.35 37.35 0 019.17 2 11.16 11.16 0 012.41 1.27 4.83 4.83 0 011.5 1.89 29 29 0 012 6c.23 1 .43 2 .62 2.94-1.53.13-3.29.32-5.25.55l.29 2.45c1.76-.2 3.62-.39 5.39-.56.45 2.65.81 5.39 1.07 8.19v.49c-2.16.52-3.85 1-4.28 1.14l.72 2.35c1.16-.4 2.46-.74 3.86-1.07z"/><path class="cls-9" d="M536.87 482.79c1.34 7.21-.26 15.37-5.51 21.27s-13.48 9.2-22 9.17-17-3.23-22.38-8.87a19.77 19.77 0 01-5.16-9.92c-.71-3.59-.06-7.34.75-11.06 1.7-7.28 5.22-13.74 10.22-17.91a27 27 0 0116.7-6.2 32.15 32.15 0 018.58 1.6 29.61 29.61 0 018.25 4.53 28.35 28.35 0 0110.55 17.39zm-9.33 4.11a18 18 0 00-.33-3.29A10.73 10.73 0 11512.08 469a18.12 18.12 0 1015.46 17.91z"/><path class="cls-5" d="M534.16 854.51a32.87 32.87 0 012.87 2.61c-.26 25.74-3.26 55.17-6.16 83.61-1.27 12.4-2.48 24.11-3.46 35.5-2.51 0-4.8.23-6.88.39-2.09-.16-4.34-.36-6.86-.39 4.8-47.44 6.73-104.72 7.12-117.71 1-.68 2.05-1.34 3.1-2 1.46-.91 2.93-1.83 4.37-2.58a14.94 14.94 0 012-1c.33-.14.56-.14.82-.27s.19 0 .23 0 0 0 0-.06l.07-.36v.42c.06 0 0-.06.16 0l.72.39a14.5 14.5 0 011.9 1.45z"/><path class="cls-7" d="M535.17 981.45a1.08 1.08 0 01.1.85 1.46 1.46 0 01-.65.78 11.4 11.4 0 01-4 1.43 61.75 61.75 0 01-10.41.89 55.24 55.24 0 01-10.37-.53 5.87 5.87 0 01-3.36-1.56 2.9 2.9 0 01-.72-1.37c-.13-.56-.16-.59-.1-.72a5.82 5.82 0 012.94-1.31 38.33 38.33 0 014.14-.65c2.77-.29 5.38-.45 7.77-.68 2.38.23 5 .39 7.76.68a30.21 30.21 0 014.11.72c1.29.29 2.62.91 2.79 1.47zm-8.25 61.69a40.15 40.15 0 01.33 8.51 6.07 6.07 0 01-1.08 3c-.13.16-.26.35-.39.52l-.52.39a10.29 10.29 0 01-1.6.82 37.17 37.17 0 01-8.71 1.85 157.76 157.76 0 01-19.68.85c-6.75-.06-13.66-.32-20.65-.81h-.65a7.36 7.36 0 00-1.24 0h-1.24l-2.44.06a26.18 26.18 0 01-4.87-.29 26.68 26.68 0 01-9-2.87c-2.58-1.67-5.12-3.56-6.46-6.2a13.07 13.07 0 01-1.93-8.06 11.17 11.17 0 013.72-6.82l1.67-1.17a13.68 13.68 0 011.92-.85 15.74 15.74 0 014.18-1.08c2.93-.45 5.61-.19 7.47 1.08s3.72 4.08 6 6.79a23.54 23.54 0 008.81 6.59 32.29 32.29 0 0010.11 2.41l2.48.2.69.06 1-.13a5.59 5.59 0 002-.62 13 13 0 004.24-4.08 39.33 39.33 0 004.38-8.58 85.79 85.79 0 004.47-17 87.85 87.85 0 00.13-28.25 53.94 53.94 0 0010.21.59 71.63 71.63 0 008.35-.62 110.7 110.7 0 00-3.75 27.43 132.77 132.77 0 00.94 17.39q.57 4.39 1.11 8.89z"/><path class="cls-6" d="M489.5 589.41l-.07.33c-.42 1.59-.81 3.19-1.2 4.76-.79 3.23-1.57 6.39-2.32 9.49-1.47 6.27-2.8 12.33-4 18.24-1.41 6.72-2.65 13.21-3.69 19.51a43 43 0 00-6.95-7c0-.06.1-.1.13-.16s.07 0 .1-.1c-.82-.65-1.7-1.37-2.55-2.15-.55-.49-.58-.56-.88-.82l-.68-.68c-1-.92-2-2-3.1-3.14a57.3 57.3 0 01-6.46-7.89 17.93 17.93 0 01-1.89-3.46 6.11 6.11 0 01-.59-2.87 7.6 7.6 0 011.53-2.67 28.69 28.69 0 012.68-2.88 86.12 86.12 0 0112.44-9.64 101 101 0 0112.21-6.79c.94-.42 1.89-.81 2.8-1.17.72-.29 1.44-.55 2.12-.78a1.63 1.63 0 01.37-.13z"/><path class="cls-5" d="M477.33 646.56c-.49 3.07-.94 6.07-1.37 9-.85 5.77-1.53 11.32-2.09 16.7v.07c-3.42 7.4-8.61 13.18-14.74 16.41-7.44 3.88-15.73 4.73-22.22 2.25a14.73 14.73 0 01-7.67-6.53 14.17 14.17 0 01-1.59-9.39 13.13 13.13 0 014.56-7.77c.36-.29.72-.58 1.11-.85a5 5 0 00.68-.45 16.2 16.2 0 011.77-.84 2 2 0 012.21.42c1.31 1.11 2.29 3.17 3.33 5.35.33.65.65 1.31 1 2l.23.39a13.19 13.19 0 003.07 4.18 6.08 6.08 0 003.49 1.5 6.22 6.22 0 001.73 0 5.2 5.2 0 001.53-.29A19.74 19.74 0 00460 674l.36-.29a44.46 44.46 0 005.25-5.71c.65-.85 1.4-1.83 2.09-2.87.32-.49.62-1 .91-1.47a8.66 8.66 0 00.88-2.58 10 10 0 00-2-6.55l-.32-.46a35.18 35.18 0 00-5.13-5.58l-.32-.26c-.23-.2-.43-.36-.59-.52.55-.75 1.17-1.54 1.86-2.42 1.79-2.28 3.85-4.92 6.23-8 2.27 1.87 6.38 5.59 8.11 9.27z"/><path class="cls-6" d="M470.87 538.06a117.71 117.71 0 0013.38 15.66c-7.6 3.91-15.69 8.32-24.18 13.31-6.46 3.85-13.21 7.92-20.06 12.59 1.5-11 2.71-23.59 1.57-31.38l-.85-5.84-4.5 3.85c-2.29 1.92-5.78 1.4-8.45.55 16.05-19.51 20-49.1 17.65-66.19a27.22 27.22 0 005.67-1.18v.56c0 1.37.1 2.77.17 4.14s.39 2.77.62 4.18c.42 2.77.75 5.61 1.27 8.41.72 2.81 1.44 5.61 2.15 8.48a111.07 111.07 0 0015.56 32.86zm2.45 140.61a34.94 34.94 0 01-12.56 13 34.43 34.43 0 01-16.8 4.67 26.72 26.72 0 01-8.52-1.37 19.37 19.37 0 01-10.21-8.19 19 19 0 01-2.45-12.56 17.93 17.93 0 016-10.87c.49-.45 1-.84 1.6-1.27l.71-.52a15.07 15.07 0 013-1.5 7.37 7.37 0 017.34 1.27 16 16 0 013.66 4.63l2.21 4.28a8.72 8.72 0 001.9 2.74 1.78 1.78 0 001.6.06c1.92-.55 4-2.28 5.54-3.71a39.32 39.32 0 004.5-5c.66-.85 1.24-1.66 1.77-2.48.26-.39.48-.78.68-1.14l.13-.33a5.68 5.68 0 00-1.24-2.64 31 31 0 00-4.5-4.73c-.2-.16-.33-.29-.49-.42-.2.26-.46.55-.69.81l-4.14-3.26-2.25-1.86c-1.47-1.24-2.94-2.48-4.4-3.69-2.87-2.51-5.71-5-8.42-7.53-2.25-2.12-4.47-4.24-6.59-6.43-1.57 6.62-4.63 19.51-10.44 39.61-.69 2.28-1.37 4.66-2.12 7.14-4.86 16.18-9.69 30.63-15.27 45.51-3.49 9.43-7.34 19-11.45 28.32-2.25 5.22-4.73 10.5-7.11 15.46l-7 13.48.23.32s.46.43.82.75l1.69 1.57A117.44 117.44 0 00390.1 791a92.1 92.1 0 0016.83 9.85 63.56 63.56 0 0011.48 4l1.21.29c.69.16 1.34.33 2 .46l5.19.65 3.78.07c.1-.14.2-.23.33-.4l1.6-2.18a57.44 57.44 0 003.26-5.71c.43-.85.88-1.76 1.31-2.74a86.71 86.71 0 004.39-12.29 114.55 114.55 0 002.77-14.39c.52-5.28.78-7.14 2.71-7s1.92 2 1.66 7.37a120.7 120.7 0 01-2.12 15.24 100.68 100.68 0 01-3.91 13.21c.26 1.64 1.92 10.22 7.66 12 .13-1 .26-2 .4-3 1.69-12 3.62-23.46 5.64-34.45s4.11-21.43 6.26-31.35c1.08-5 2.16-9.79 3.27-14.49.58-2.31 1.17-4.63 1.72-6.88.33-1.14.62-2.28.92-3.39l.52-1.7.26-.85.49-1.27a5.16 5.16 0 012.9-2.38l.26-.1a208.63 208.63 0 01.43-30.9z"/><path class="cls-5" d="M455.7 442v.1c-.72 2.48-1.4 5-2 7.67a22.94 22.94 0 00-13.93-4.11 16.39 16.39 0 00-8.71 3.19 15.19 15.19 0 00-4.47 5.29c-.16.29-.16.55 0 .62s.35 0 .55-.26a21.19 21.19 0 015.64-4.44c-.09.13-.16.29-.26.42a11.29 11.29 0 00-1.33 5.94 16.28 16.28 0 003.85 9.5.35.35 0 00.45.13.42.42 0 00.13-.46c-.58-2.19-1.95-5.51-2.12-9.27a12.5 12.5 0 011.89-7.43 16.85 16.85 0 014.57-.92c5.42-.29 10.25 1.5 13.54 2.77a94.68 94.68 0 00-2.64 21.11c.06 1.76.13 3.53.23 5.29a24.13 24.13 0 01-17.09-2.47c-6.19-3.23-11.77-10.08-11.06-18.17a15.52 15.52 0 014.34-10.18 20.24 20.24 0 019.53-5 36.75 36.75 0 0118.89.68z"/><path class="cls-11" d="M580.72 587.12c-15.38-.6-34.25-2.74-53.48-10.75l-7.24-3.12c-2.42-1.08-4.72-2.51-7.12-3.78l-3.6-2c-1.21-.65-2.3-1.51-3.47-2.27l-6.94-4.74a119.93 119.93 0 01-24.22-25.13c-7-9.79-11.7-20.7-15.07-31.45q-1.09-4.1-2.17-8.11c-.54-2.72-.9-5.45-1.35-8.12-.22-1.35-.44-2.68-.65-4s-.17-2.67-.25-4l-.47-7.86c-.17-10.27 1.69-20.06 3.92-28.94a144.41 144.41 0 018.39-23.92l-1.76-.88a133 133 0 00-9.56 24c-2.59 9-4.8 18.95-4.87 29.78q.15 4 .32 8.12l.18 4.14.6 4.16c.43 2.78.76 5.61 1.29 8.44.71 2.8 1.42 5.62 2.15 8.46 3.38 11.23 8.22 22.64 15.54 32.86a120.48 120.48 0 0025.35 26c2.42 1.67 4.87 3.24 7.27 4.83 1.21.77 2.36 1.64 3.62 2.3l3.75 2c2.51 1.27 4.91 2.7 7.43 3.78l7.53 3.06a56.76 56.76 0 007.47 2.55l7.35 2.2c4.93 1 9.68 2.09 14.31 2.79 4.67.45 9.14 1.11 13.44 1.32l12.34.22zm116.85-179.45a123 123 0 0114 24 97.7 97.7 0 017.87 30.93c.21 2.82.31 5.68.32 8.59-.2 2.89-.41 5.82-.61 8.78a39.34 39.34 0 01-.42 4.46c-.29 1.47-.57 2.95-.86 4.44-.66 2.95-.93 6-2.06 8.93-3.12 12-9.36 23.49-17.22 34a119.87 119.87 0 01-27.66 26.53 144.2 144.2 0 01-31.48 16.92 169.68 169.68 0 01-58.69 11.87v2a160.33 160.33 0 0060.09-10.2A142.29 142.29 0 00673.44 562a121 121 0 0028.8-27.39c8.19-11 14.65-23 17.8-35.6 1.14-3 1.41-6.26 2.05-9.36q.42-2.34.84-4.65a40.29 40.29 0 00.38-4.65q.24-4.63.48-9.16c-.06-3-.22-6-.5-8.94a97.72 97.72 0 00-9-31.84 116.92 116.92 0 00-15.21-23.91z"/><path class="cls-11" d="M452.29 476.83a26 26 0 01-8.75.77 25.34 25.34 0 01-9.6-3c-6.2-3.24-11.75-10.09-11.05-18.17a15.51 15.51 0 014.33-10.18 20.27 20.27 0 019.53-5 36.66 36.66 0 0119 .69l.74-1.82a34.58 34.58 0 00-20.6-2.69 23.28 23.28 0 00-11.79 5.6 19.46 19.46 0 00-5.87 13.1 21 21 0 003.89 13.7 25.53 25.53 0 0010 8.25 26.58 26.58 0 0011.21 2.53 25.39 25.39 0 009.58-2z"/><path class="cls-11" d="M426.53 454.73c.13.07.34 0 .55-.25 2.29-2.57 6.77-6.2 12.8-6.53s11.24 1.91 14.54 3.14c.29.1.54.09.62 0s-.05-.34-.31-.52a23.35 23.35 0 00-15-4.87 16.23 16.23 0 00-8.69 3.18 15.27 15.27 0 00-4.5 5.29c-.15.23-.15.49-.01.56z"/><path class="cls-11" d="M436.17 447.29a.36.36 0 00-.47-.06 8 8 0 00-3.24 3.24 11 11 0 00-1.33 5.93 16.19 16.19 0 003.84 9.49.35.35 0 00.44.14.39.39 0 00.14-.45c-.59-2.22-2-5.54-2.11-9.28a12.41 12.41 0 012.67-8.55.42.42 0 00.06-.46zm284.39 31.39a25.43 25.43 0 009.58 2 26.55 26.55 0 0011.21-2.53 25.53 25.53 0 0010-8.25 21 21 0 003.89-13.7 19.45 19.45 0 00-5.86-13.1 23.3 23.3 0 00-11.8-5.6 34.59 34.59 0 00-20.6 2.69l.74 1.82a36.66 36.66 0 0119-.69 20.35 20.35 0 019.54 5 15.51 15.51 0 014.33 10.18c.69 8.08-4.86 14.93-11.06 18.17a25.29 25.29 0 01-9.59 3 26.09 26.09 0 01-8.76-.77z"/><path class="cls-11" d="M747 454.73c.14-.06.16-.31.05-.59a13.44 13.44 0 00-4-5.32 14.49 14.49 0 00-8.36-3 19.92 19.92 0 00-8.62 1.67 27.3 27.3 0 00-5.68 3.27c-.24.17-.35.38-.28.51s.32.15.6.06c3.17-1.11 8.17-3.42 13.87-3.2a15.21 15.21 0 017.39 2.23 18.64 18.64 0 014.55 4.12c.16.2.36.31.48.25z"/><path class="cls-11" d="M737.37 447.29a.42.42 0 00.07.46 12.51 12.51 0 012.67 8.55c-.15 3.74-1.53 7.06-2.11 9.28a.37.37 0 00.14.45c.13.08.3 0 .43-.14a16.06 16.06 0 003.84-9.49 10.94 10.94 0 00-1.33-5.93 7.94 7.94 0 00-3.24-3.24.36.36 0 00-.47.06zm-227.88 11.94a33.06 33.06 0 018.57 1.61 29.44 29.44 0 018.26 4.54 28.38 28.38 0 0110.54 17.39c1.33 7.18-.27 15.36-5.51 21.25s-13.5 9.21-22 9.16-16.96-3.18-22.35-8.86a19.65 19.65 0 01-5.13-9.9c-.72-3.6-.08-7.37.76-11.07 1.69-7.29 5.2-13.73 10.19-17.93a27.12 27.12 0 0116.72-6.19v-2a28.71 28.71 0 00-18.69 5.77c-5.83 4.44-10 11.52-12.06 19.36a45.43 45.43 0 00-1.22 6.08 23 23 0 006.14 18.88c6.43 6.84 16 10.35 25.6 10.46s19.38-3.7 25.4-10.89a27.87 27.87 0 006-12.11 30.91 30.91 0 000-12.78 31.33 31.33 0 00-21.86-23.63 33.9 33.9 0 00-9.34-1.14zm147.88-4.81c5.52.27 11.9 1.19 16.91 5.15s7.88 10.57 9 17.92a26.53 26.53 0 01-26.8 30.85c-8.41-.17-16.56-3.62-21.45-9.67-5.06-5.94-6.35-14.09-5-21.15a28.27 28.27 0 0110.62-17.08 30 30 0 018.19-4.45 33.24 33.24 0 018.48-1.57v-2a33.83 33.83 0 00-9.24 1.1 31.79 31.79 0 00-9.24 4.41 31.08 31.08 0 00-12.63 18.75 31.51 31.51 0 00-.24 12.63 27.11 27.11 0 005.6 12.12c5.74 7.3 15.25 11.32 24.78 11.5a30.58 30.58 0 0024.74-11.59 30 30 0 006-24.58 40.35 40.35 0 00-3.73-11.15 24.23 24.23 0 00-7.31-8.54c-6.1-4.3-13-4.76-18.74-4.65z"/><path class="cls-11" d="M518.17 488.53A10.74 10.74 0 01512 469a19.5 19.5 0 00-2.67-.21 18.14 18.14 0 1018.14 18.13 18.81 18.81 0 00-.31-3.29 10.74 10.74 0 01-8.99 4.9zm147.25-4.81a10.74 10.74 0 01-6.13-19.58 18.13 18.13 0 1015.47 17.92 18.81 18.81 0 00-.31-3.29 10.74 10.74 0 01-9.03 4.95z"/><path class="cls-12" transform="rotate(-31.58 485.496 465.806)" d="M483.95 462.48h3.26v6.75h-3.26z"/><path class="cls-12" transform="rotate(-17.49 493.022 459.816)" d="M491.45 456.92h3.26v5.85h-3.26z"/><path class="cls-12" transform="rotate(-5.86 501.751 455.856)" d="M500.51 453.19h3.26v5.87h-3.26z"/><path class="cls-12" transform="rotate(-77.94 513.005 455.8)" d="M510.31 454.16h5.31v3.26h-5.31z"/><path class="cls-12" transform="rotate(-54.94 523.918 458.605)" d="M520.85 456.96h6.03v3.26h-6.03z"/><path class="cls-12" transform="rotate(-40.41 531.712 463.82)" d="M528.65 462.21h6.22v3.26h-6.22z"/><path class="cls-12" transform="rotate(-58.42 681.872 460.323)" d="M678.47 458.69h6.75v3.26h-6.75z"/><path class="cls-12" transform="matrix(.3 -.95 .95 .3 38.15 960.67)" d="M671.42 452.68h5.85v3.26h-5.85z"/><path class="cls-12" transform="rotate(-84.17 665.242 450.589)" d="M662.34 448.95h5.87v3.26h-5.87z"/><path class="cls-12" transform="rotate(-12.06 654.382 450.199)" d="M652.82 447.6h3.26v5.31h-3.26z"/><path class="cls-12" transform="rotate(-35.11 643.518 453.046)" d="M641.92 450.04h3.26v6.03h-3.26z"/><path class="cls-12" transform="rotate(-49.63 635.724 458.318)" d="M634.03 455.2h3.26v6.22h-3.26z"/><path class="cls-11" d="M567.23 491.7c-.27-.13-.66.12-1 .61a14.9 14.9 0 00-2.09 5.4 11.77 11.77 0 001.24 7.37c2.75 5.06 9 7.8 15.19 7.91a20.48 20.48 0 009-1.87 13.27 13.27 0 006.25-6 12.28 12.28 0 001-7.35 16.1 16.1 0 00-1.93-5.41c-.27-.5-.64-.76-.92-.65s-.4.57-.31 1.1c.59 3 1.07 7.22-1.1 10.51s-6.83 5.15-11.89 5.05-9.85-2-12.09-5.22a9.91 9.91 0 01-1.74-5.26 18.84 18.84 0 01.62-5.07c.14-.53.04-.99-.23-1.12z"/><path class="cls-12" d="M582.25 553.94h-1.57c-18.58-.57-38.92-11.31-40-30.08a1.63 1.63 0 013.26-.19c1 16.84 19.72 26.48 36.85 27 15.22.54 33.86-6.34 36.36-27.1a1.66 1.66 0 011.81-1.43 1.63 1.63 0 011.43 1.82c-2.68 22.21-21.86 29.98-38.14 29.98z"/><path class="cls-11" d="M450.35 426.09c.19-.23 0-.83-.54-1.61l-.95-1.33c-.31-.54-.67-1.12-1.08-1.72-2.2-3.66-2-8.37.37-12.6s6.08-8.16 10.48-11.67c8.89-7 20.28-12.78 32.91-17.54 25.33-9.52 56-15.1 88.55-15.72s63.66 2.55 90.2 8.51c13.22 3.07 25.45 6.76 35.68 11.79 5 2.55 9.76 5.43 12.75 9.06a7.68 7.68 0 012.14 5.69c-.2 1.91-1.57 3.66-3.12 5.11-.58.47-1.1.93-1.55 1.37a14.76 14.76 0 00-1.29 1.05c-.7.65-1 1.17-.92 1.44s.74.26 1.71 0a17.9 17.9 0 001.69-.6c.61-.33 1.28-.74 2-1.22a11.53 11.53 0 004.78-6.55c.71-3.09-.49-6.29-2.15-8.65-3.39-4.87-8.3-8.26-13.48-11.39-10.53-6.1-22.95-10.57-36.44-14.31-27.06-7.28-58.68-11.05-92.17-10.54s-65.23 7.06-91.16 18.07c-12.94 5.51-24.55 12.15-33.61 20.38-4.48 4.13-8.43 8.67-10.67 14a18 18 0 00-1.6 8.3 14 14 0 002.72 7.46c.56.67 1.1 1.26 1.6 1.76a9.32 9.32 0 001.5 1c.88.55 1.47.7 1.65.46z"/><path class="cls-11" d="M424.14 447.63A97.58 97.58 0 01412.76 424c-2.76-8.72-4.39-18.28-3.46-28a53.4 53.4 0 0111.05-27.39c6.41-8.13 15.15-14.87 25.07-20.15 2.38-1.47 5.08-2.49 7.62-3.77l3.89-1.83 4.07-1.55c2.73-1 5.42-2.16 8.23-3.07l8.54-2.62c2.83-.95 5.79-1.61 8.74-2.33l8.89-2.16c6.06-1.1 12.15-2.38 18.36-3.36a574.76 574.76 0 0178-6.23c26.92-.47 53.21.08 78.22 2.83 3.12.36 6.25.64 9.33 1.06l9.15 1.47c6.11.81 12 2.34 17.84 3.56 11.54 3 22.74 6.48 32.59 11.76s18.46 12.11 23.33 21l1.75 3.33a27.76 27.76 0 011.32 3.49 37.09 37.09 0 011.8 7.17 48.66 48.66 0 01-.18 14.61c-1.44 9.65-5.15 18.66-9.5 26.78a128.9 128.9 0 01-14.85 21.91l2.89 2.68a127.87 127.87 0 0016.4-22.09c4.87-8.3 9.17-17.66 11.12-28.26a54.32 54.32 0 00.67-16.51 42.71 42.71 0 00-1.85-8.42 32.29 32.29 0 00-1.46-4.14l-2-4c-5.52-10.63-15.3-18.5-25.73-24.44-10.59-5.94-22.29-9.77-34.29-13.08-6.06-1.36-12.15-3-18.41-3.94l-9.4-1.61c-3.16-.47-6.34-.79-9.54-1.19-25.57-3.05-52.21-3.73-79.44-3.26a545.29 545.29 0 00-79.2 6.75c-6.34 1.06-12.59 2.44-18.79 3.65l-9.16 2.35c-3 .78-6.07 1.51-9 2.54l-8.83 2.86c-2.91 1-5.73 2.25-8.58 3.35l-4.23 1.7-4.09 2c-2.69 1.41-5.48 2.53-8 4.16-10.45 5.84-19.9 13.38-26.86 22.69a59.41 59.41 0 00-11.56 31.17 74.8 74.8 0 004.76 30.12A98.71 98.71 0 00421 450z"/><path class="cls-12" d="M770.61 251.85a163.62 163.62 0 00-6.22-24 346 346 0 00-18.68-44.51c-8.18-16.18-15.75-29-23.84-40.43A132.44 132.44 0 00707 124.94a51.45 51.45 0 00-9.63-7.51A22.84 22.84 0 00691 115a34.85 34.85 0 00-4-.48l-2-.17a63.42 63.42 0 00-22.81 3.35 109.39 109.39 0 00-20 9c-12.12 6.81-22.94 14.6-33.39 22.14l-4.8 3.45a39 39 0 00-3.9 3.07c-.7.63-1.42 1.24-2.13 1.85a45.82 45.82 0 00-5.27 5c-.73.81-1.48 1.61-2.22 2.4-1.46 1.57-2.91 3.12-4.28 4.73l-5.91 7.2c-2.56 3.11-5 6.29-7.27 9.37-1.25 1.66-2.49 3.32-3.78 5l-10.06 14c-12.72 18.15-23.66 35-33.58 50.44-18.33 28.69-31.15 50.07-38 61.56l-5.17 8.91c-.29.55-1.07 2 .31 2.82l4.67 2.76a1.71 1.71 0 00.82.23c.89 0 1.49-.9 1.79-1.35l5.62-9.13c6.89-11.41 19.72-32.63 37.76-60.82 9.95-15.48 20.88-32.26 33.36-50.1l9.92-13.84c1.26-1.63 2.51-3.3 3.77-5 2.25-3 4.57-6.1 7-9.08l5.75-7c1.25-1.48 2.56-2.89 3.88-4.31.76-.81 1.52-1.64 2.32-2.52a36 36 0 014.35-4.19c.73-.63 1.46-1.25 2.19-1.94a33.68 33.68 0 013.55-2.79l4.53-3.3c10.31-7.49 21-15.24 32.53-21.81 14.57-8.26 26.65-11.92 38-11.48.63.07 1.28.12 1.93.16a28.29 28.29 0 013 .33 15.09 15.09 0 013.79 1.46 42.48 42.48 0 017.9 6.14 122.37 122.37 0 0114 16.65 312.63 312.63 0 0123.6 39.14 343.75 343.75 0 0118.82 43.28 157.56 157.56 0 016.29 22.87 55 55 0 011.1 11.43c-.13 2.45-.35 7-2.41 7.72-1 .35-2.47-.14-3.64-.61a25.61 25.61 0 01-4.78-2.73 80 80 0 01-9.17-7.64 238.79 238.79 0 01-16.82-18c-9.58-11.19-19.38-23.71-30.84-39.39-2.86-4-4.69-6.5-6-8 3-4.21 6.15-9.06 7.82-14.81.55-2.71.8-4.25-.59-4.59s-1.89 1.21-2.57 3.66c-2 5.45-5.73 10.25-9.42 14.62A134.73 134.73 0 01675.48 206c-3.93 3.59-7.17 6.25-9.22 7.86-1 .83-1.94 1.53-2.71 2.11l-1.12.82a20.66 20.66 0 00-2.52-2.53 19.74 19.74 0 00-11.62-4.73 1.09 1.09 0 00-.55 2.1 24.53 24.53 0 0111.26 10.9c0 .49 0 .83-.06 1.13l.08.41c.22.56.46 1.33.57 1.72l.56 2.06c.13.5.26 1 .36 1.51.36 1.61.7 3.2 1 4.81.56 3.09 1 6.23 1.41 9.36.82 6.3 1.28 12.35 1.65 17.19.59 9.17 1 18.21 1.15 27.63.24 12.38.18 20.85.15 25.91v3.08c0 1.91 0 3.56 1.43 3.6h7.04l.36-.36c.26-.27.56-.57.55-3.25v-2.3c0-4.82-.07-13.78-.57-27-.36-9.53-.93-18.7-1.76-28-.58-5.8-1.17-11.51-2.11-17.6-.48-3.27-1-6.55-1.72-9.73-.33-1.69-.74-3.4-1.17-5.12-.14-.57-.3-1.15-.47-1.74l-1-3.15.55-.69 3.53-3.3c3.14-2.94 6-5.81 8.87-8.76s6.16-6.6 9.5-10.86c1.05 1.68 2.61 4 4.85 7.28 11.07 15.93 20.66 28.77 30.2 40.39a240 240 0 0016.88 18.75 87.08 87.08 0 009.74 8.4 32.13 32.13 0 005.92 3.49 15 15 0 003.65 1.13 9.2 9.2 0 004.57-.25c3.24-1 5.19-4.22 5.88-6.7a28.31 28.31 0 001-6.87 60.71 60.71 0 00-.98-12.85z"/><path class="cls-11" d="M564.81 318c.24-.21-.07-.94-.62-1.89a26.43 26.43 0 01-3.52-10 30.33 30.33 0 011-12.63 18.47 18.47 0 018.54-10.55c4.25-2.43 9.59-3.4 15.11-3.34s11 .89 15.48 3a17.73 17.73 0 019.49 9.61 26.19 26.19 0 011.12 12.47 30.13 30.13 0 01-3.36 10.17c-.51 1-.78 1.73-.53 1.92s.93-.28 1.63-1.2a28.29 28.29 0 004.64-24.61 21.1 21.1 0 00-11.08-12.31c-5.28-2.64-11.31-3.6-17.35-3.68S573.11 276 568 279.09a21.8 21.8 0 00-9.88 13.28c-2.43 10.2.62 19.41 5 24.48.74.9 1.47 1.31 1.69 1.15z"/><path class="cls-11" d="M574.42 316.65c-3.57-3.16-5.89-9.36-4.48-15.49a10.78 10.78 0 015.49-7.14 21.14 21.14 0 0110.43-2.09 26.22 26.22 0 0110.65 2.07 9.86 9.86 0 015.72 6.76 15.11 15.11 0 01-.73 8.71A17.09 17.09 0 01597 316l1.18 1.57a17.78 17.78 0 007.9-17.5 13 13 0 00-2.5-5.82 15.09 15.09 0 00-5.06-4.16 28.6 28.6 0 00-12.57-2.76 24.28 24.28 0 00-12.7 2.85 14.61 14.61 0 00-7.14 10.22c-1.23 7.86 2.41 14.8 7.13 17.84z"/><path class="cls-12" d="M670.11 310.14c-17-4.29-35.13-6.74-57-7.72l.15-3.26c22 1 40.34 3.48 57.6 7.81zm-173.01 6.23l-1.51-2.9c1-.5 24.18-12.32 63.17-14.31l.16 3.26c-38.22 1.95-61.59 13.83-61.82 13.95z"/><path class="cls-11" d="M486.65 552.41c-8.33 4.25-17.2 9.08-26.61 14.6a307.48 307.48 0 00-29.42 19.26c-4.95 3.94-10.16 7.79-14.35 13.92-.91 1.68-2 3.48-1.87 6.25l.69 3a21.35 21.35 0 001.1 2.63 38.59 38.59 0 002.73 4.79c1.07 1.44 2.1 2.94 3.23 4.33A157 157 0 00437.24 637c2.72 2.55 5.55 5 8.43 7.53l4.4 3.7 2.25 1.85 4.15 3.28c.67-.8 1.4-1.56 2.13-2.5l1.7-2.14 2.68-3.43 8.37-10.76.09-.11c-.82-.65-1.69-1.36-2.55-2.15-.56-.49-.59-.55-.87-.81l-.7-.68c-.95-.94-2-2-3.1-3.14a58.55 58.55 0 01-6.46-7.88 19.49 19.49 0 01-1.89-3.47 5.9 5.9 0 01-.59-2.87 7.71 7.71 0 011.54-2.66 32.73 32.73 0 012.66-2.9 85.57 85.57 0 0112.52-9.62 96 96 0 0112.2-6.77c1-.44 1.89-.83 2.8-1.19l2.14-.78a1.65 1.65 0 01.34-.12v.33c-.41 1.6-.81 3.18-1.21 4.76q-1.18 4.83-2.32 9.51-2.17 9.38-4 18.21-3.67 17.68-5.9 33.32c-3.07 20.86-4.23 39.22-3 55.26l2.94-.19c-.34-15.7 1.5-33.71 5.13-54.27q2.65-15.44 6.62-32.87 2-8.73 4.3-18 1.2-4.62 2.43-9.39l4-14.4h-.59c-3 .25-5.81.16-9.58 1.39l-2 .7-1.52.61c-1 .43-2.05.89-3.08 1.39a99.17 99.17 0 00-12.81 7.55 88.7 88.7 0 00-13 10.73 35.21 35.21 0 00-3 3.53 11.89 11.89 0 00-2.39 5 10.45 10.45 0 001.09 5.63 23.44 23.44 0 002.48 4.21 62.21 62.21 0 007.27 8.26 97.35 97.35 0 003.36 3.15l1.27 1.11-6.36 7.37c-1 1.22-2 2.31-2.84 3.3l-.62.73c-.05.07 0 0 0 .07l-.34-.27-2.2-1.82-4.61-3.6c-2.83-2.47-5.6-4.92-8.25-7.42a156.57 156.57 0 01-14.6-15.3c-1.07-1.31-2-2.67-3-4a33.13 33.13 0 01-2.36-4.1 16.63 16.63 0 01-.88-2q-.21-1-.48-1.92a6.49 6.49 0 011.11-3.11c3.22-4.86 8.34-9 13-12.76 9.68-7.51 19.45-13.8 28.6-19.57S480 559.61 488 555z"/><path class="cls-12" d="M477.42 667.57l-.19-.34-.35-.09c-.79-.18-1 .27-1.74 2.2l-.43 1.06c-3.42 8.3-9 14.81-15.59 18.32-7.45 3.89-15.75 4.74-22.23 2.25a14.79 14.79 0 01-7.67-6.54 14.09 14.09 0 01-1.58-9.4 13.08 13.08 0 014.55-7.76c.35-.3.72-.56 1.1-.83s.51-.37.66-.49a11.46 11.46 0 011.76-.84 2 2 0 012.21.4c1.32 1.13 2.3 3.18 3.35 5.35.32.66.64 1.33 1 2l.21.41a13.17 13.17 0 003 4.16 6.16 6.16 0 003.51 1.51 5.51 5.51 0 001.72 0 5.78 5.78 0 001.54-.29A20 20 0 00460 674l.36-.3a46.85 46.85 0 005.27-5.71c.64-.83 1.38-1.81 2.07-2.86.32-.48.63-1 .91-1.48a7.25 7.25 0 00.88-2.57 10 10 0 00-2-6.55l-.31-.47a34.53 34.53 0 00-5.14-5.57l-.3-.26c-2.28-2-2.66-1.84-3.17-1.34l-2.57 3.36-.25.26v.36c0 .44.2.62 1.89 2.09a29.89 29.89 0 014.5 4.72 5.6 5.6 0 011.23 2.66l-.11.3c-.21.38-.43.76-.7 1.17-.51.8-1.11 1.63-1.74 2.47a41 41 0 01-4.52 5c-1.57 1.44-3.62 3.17-5.56 3.72-.52.14-1.21.26-1.58-.06a8.61 8.61 0 01-1.9-2.77L445 666a15.34 15.34 0 00-3.64-4.65 7.39 7.39 0 00-7.33-1.28 15.7 15.7 0 00-3 1.5l-.72.54c-.55.41-1.1.82-1.61 1.27a18.34 18.34 0 00-6 10.86 18.92 18.92 0 002.46 12.56 19.36 19.36 0 0010.2 8.2 26.36 26.36 0 008.52 1.37 34.29 34.29 0 0016.81-4.68c7.12-4.16 12.8-11.43 16-20.46 1.1-2.97.83-3.47.73-3.66zm.43-19.69c-1.68-5.55-10.11-11.75-10.2-11.81l1.93-2.64c.38.28 9.39 6.91 11.39 13.5z"/><path class="cls-11" d="M681.59 716.3c2.7-25.7 4.3-57.35-.87-92.4-.64-4.37-1.46-8.79-2.35-13.24l-.37-1.56v-.19c-.09-.15.16-.16.19-.18l5.85-2.26 6.55-2.55c2.15-.94 4.28-2 6.44-3 4.31-2 8.71-4 12.9-6.49a193.23 193.23 0 0047.9-36.52 159 159 0 0018.25-23.19 119.68 119.68 0 007.2-12.63c.52-1.11 1.06-2.17 1.54-3.33l.58-1.37.6-1.59a13.35 13.35 0 00-1.27-3.09 16.19 16.19 0 00-2.92-3.57 30.37 30.37 0 00-3.13-2.46 44 44 0 00-6.5-3.54c-1.1-.51-2.2-1-3.31-1.39l-1.67-.62c-.79-.27-1.78-.64-2.82-.94l-1.54-.47c-.24 0-.57-.31-.73-.07l-.5.63c-.67.81-1.35 1.69-2 2.58l-2.17 2.87-4 5.25c-2.55 3.55-5.48 6.71-8.19 10-1.39 1.61-2.7 3.28-4.13 4.82l-4.3 4.54A181.23 181.23 0 01701 560.07a115.88 115.88 0 01-18.62 9.3 81.8 81.8 0 01-9.24 3c-1.52.45-3 .67-4.55 1l-2.12.32a6.18 6.18 0 01-1.2.09l-.82-1.62c-.39-.77-.76-1.45-1.11-2.06a23.6 23.6 0 00-2.13-3.19l-2.21 1.91a24.94 24.94 0 011.65 2.77l1 2c.48 1.05 1 2.23 1.62 3.57 1.06.07 2.22 0 3.35-.08l2.54-.27c1.6-.28 3.25-.45 4.85-.86a81.16 81.16 0 009.8-2.73 115.83 115.83 0 0019.68-9 179 179 0 0037.66-29.72l4.5-4.58c1.49-1.56 2.86-3.23 4.31-4.86 2.83-3.31 5.88-6.52 8.53-10.1l4.14-5.3 1.9-2.45s.07-.1.13 0l1.88.72c1 .4 2 .82 3 1.28a38.89 38.89 0 015.5 3.06 22.39 22.39 0 012.29 1.83c.35.31.61.65.92 1s.55.79.57.77v.05l-.11.25c-.42 1-1 2-1.43 3a116.72 116.72 0 01-6.96 11.83 155.58 155.58 0 01-17.53 22.17 192.46 192.46 0 01-46.08 35.45c-4 2.46-8.28 4.41-12.44 6.43-2.09 1-4.15 2-6.23 3l-6.34 2.56-6.9 2.79c-1.8 1-5.06 1-3.51 3.7l1.11 4.85c.94 4.33 1.82 8.62 2.53 12.89 5.74 34.21 5.19 65.57 3.72 91.22z"/><path class="cls-12" d="M795.2 473.26a10.44 10.44 0 00-1.65-3.68l-.15-.19a13.75 13.75 0 00-2.68-2.54 19 19 0 00-6.59-2.83l-3.26-.6a8.73 8.73 0 00-4.09.47 13.19 13.19 0 00-5.62 4.42 30.17 30.17 0 00-3.14 5.18 82.41 82.41 0 00-5.79 17.93c-1.08 5-1.59 8.63-1.81 10.17-.14 1.07-.21 2 .7 2.21l4.25.48.37.06.29-.21c.23-.17.43-.41.59-1.72.22-1.65.65-5.07 1.55-9.77A83.18 83.18 0 01773 475.8c1.25-2.79 3-6.15 5.65-7.32a3.61 3.61 0 011.76-.3l2.83.36a15.46 15.46 0 015.19 1.86 6.43 6.43 0 013.15 4 5.78 5.78 0 01-.72 4.68 4.83 4.83 0 01-4.36 2.34 8.9 8.9 0 01-5.45-2.3c-.88-.7-1.87-1.51-2.53-.75s.23 1.59 1 2.37a11.26 11.26 0 006.71 3.47 7.87 7.87 0 007.32-3.22 9.41 9.41 0 001.65-7.73z"/><path class="cls-12" d="M798.15 491.57a22.36 22.36 0 01-2.37-.12c-5.87-.59-10.26-3.1-11.76-6.72l3-1.24c1 2.4 4.56 4.26 9.08 4.71 4.82.51 10.9-.73 13.51-4.58 1-1.48.66-2.1.55-2.31-1.47-2.65-11-3.59-17.4-3.36l-.1-3.27c2.86-.09 17.42-.27 20.35 5.06.65 1.17 1.05 3.12-.7 5.71-3.08 4.55-9.11 6.12-14.16 6.12z"/><path class="cls-12" d="M796.69 501.31c-5.67 0-12.4-.84-15.71-4.07a6.39 6.39 0 01-1.91-5.63c.4-2.83 1.52-4.85 3.33-6a7.45 7.45 0 015.7-.76l-.94 3.12a4.1 4.1 0 00-3 .4c-1 .63-1.58 1.87-1.84 3.7a3.13 3.13 0 001 2.85c3.45 3.37 14.37 3.68 20.94 2.62 1.65-.27 2-1 2.11-1.26.85-1.81-.73-5.53-1.62-7l2.81-1.67c.37.63 3.57 6.24 1.76 10.1a5.61 5.61 0 01-4.54 3.08 52.92 52.92 0 01-8.09.52z"/><path class="cls-12" d="M795 509.93c-5.72 0-12.2-1.35-14.85-4.84-1-1.37-2.34-4.3.76-8.48l2.61 1.94c-2.09 2.83-1.1 4.14-.77 4.57 2.85 3.76 14.62 4.39 19.33 2.58 1-.39 2.28-1.06 2.48-2 .27-1.29-1.17-3-1.57-3.4l2.28-2.33c.33.31 3.15 3.18 2.48 6.39-.4 1.94-1.91 3.43-4.5 4.42a25.11 25.11 0 01-8.25 1.15z"/><path class="cls-12" d="M782.81 517.3l-.74-3.18c3.82-.89 10.2-5.33 12.34-7l2 2.59c-.35.29-8.32 6.36-13.6 7.59z"/><path class="cls-11" d="M795.28 474.82c11.19-21 24.73-46.41 39.9-74.86L859 355.12l12.71-23.75c2.18-4 4.36-8.07 6.63-12.05l1.7-3c.28-.46.45-.69.65-1.06s.3-.76.73-.92a6.4 6.4 0 015-.84 5.92 5.92 0 014 2.66 3 3 0 01.27.86v.39c-1.81-.17 2.7.28 1.19.15-1-.09-1.47-.13-1.21-.09v.06l-.08.12-.14.24-1.45 2.63c-2.11 4.07-4.35 8.11-6.51 12.12q-6.6 12-13 23.62L845 400.72c-15.46 28.34-29.39 53.42-40.2 74.82l1.8.78c11.37-20.67 26-45.64 41.82-73.69 7.92-14.05 16.27-28.84 25-44.22l13.1-23.57c2.19-4 4.42-8 6.59-12.19.74-1.59 3.46-5.29 1.45-8.54a10.4 10.4 0 00-7.16-5.12 11 11 0 00-8.48 1.49 4.69 4.69 0 00-1.57 1.62c-.43.61-.94 1.33-1.26 1.87l-1.8 3.03c-2.31 4.07-4.47 8.13-6.65 12.16L855 353.05c-8.11 15.68-15.91 30.78-23.32 45.1-14.69 28.71-27.63 54.44-38.18 75.77z"/><path class="cls-12" d="M879.78 342.61a33.88 33.88 0 00-12.46-6.61l.73-3.18a36.51 36.51 0 0113.8 7.24zm-37.7-28.89a2.36 2.36 0 01-1.78-.85c-3.21-3.55-2.88-19.85-2.65-25.69-10.67-2-16.5-4.15-17.32-6.35a2.28 2.28 0 01.38-2.26c2.19-2.75 13.39-3.57 19.38-3.81 2.25-15.52 5.11-23.38 8.47-23.38a2.74 2.74 0 012 .93c2.76 2.9 2.58 14.89 2.36 20.13 6.3 2 18.36 6.12 19.81 9.16a2.3 2.3 0 01.09 1.85c-.36.9-1.44 3.61-21.83 4-2.81 16.59-5.6 25.39-8.31 26.18a2 2 0 01-.6.09zm-17.93-33.61c2.5 1.25 9.43 3 15.48 4.12l1.41.25-.07 1.43c-.46 9.5-.1 20.23 1.23 23.81 1.7-3.34 4.23-14.43 5.83-24.15l.23-1.35h1.36c7.69-.1 16.56-.82 19.51-1.8-2.6-1.78-11-4.95-18.34-7.22l-1.21-.37.06-1.27c.46-8.71-.1-17-1.22-18.77-1.49 1.62-4 12.38-5.3 21.79l-.19 1.36-1.37.05c-6.81.19-14.64 1.06-17.41 2.12zM909 307.48a2.25 2.25 0 01-1.67-.78c-2.55-2.82-2.4-14.82-2.2-20.22-12.66-2.4-13.44-4.47-13.7-5.17a2.13 2.13 0 01.36-2.12c1.75-2.18 9.83-2.89 15.33-3.12 2.74-18.45 6-18.45 7-18.45a2.52 2.52 0 011.86.84c2.2 2.31 2.17 11.07 2 15.87 6.8 2.13 14.56 5 15.67 7.32a2.12 2.12 0 01.07 1.74c-.33.84-1.21 3-17.33 3.36-3.37 19.64-5.92 20.39-6.77 20.64a2.2 2.2 0 01-.62.09zm-13.23-26.8a73.54 73.54 0 0011.34 2.85l1.41.26-.07 1.43c-.32 6.72-.09 14.46.7 17.8 1.31-3.27 3.08-11.2 4.24-18.15l.22-1.35H915a88.53 88.53 0 0014.6-1.2 91 91 0 00-13.76-5.24l-1.22-.37.07-1.27c.31-5.94 0-11.71-.65-13.92-1.29 2.46-2.94 9.88-3.85 16.37l-.19 1.36h-1.37a70.84 70.84 0 00-12.84 1.43zm23.04 82.94a2.1 2.1 0 01-1.63-.82c-2-2.51-1.91-13-1.75-17.84-9.69-2.12-10.42-3.95-10.67-4.57a2.15 2.15 0 01.25-2.05c1.37-1.93 7-2.65 12-2.9 2.16-16.35 4.62-16.35 5.82-16.35a2.26 2.26 0 011.66.74c1.81 1.89 1.88 9.21 1.7 14.15 4.56 1.63 11.17 4.31 12.2 6.46a2.17 2.17 0 01.11 1.67c-.31.85-1 2.82-13.59 3.14-2.66 17.51-4.62 18-5.58 18.3a1.86 1.86 0 01-.52.07zm-9.71-23.89a53.43 53.43 0 008.34 2.32l1.36.27-.06 1.4A99.75 99.75 0 00919 358a138.16 138.16 0 002.85-14.57l.2-1.37h1.39a65.47 65.47 0 0010.88-.93 70.53 70.53 0 00-10.32-4.47l-1.15-.4.06-1.22a70.75 70.75 0 00-.27-11.06 88.4 88.4 0 00-2.54 13.23l-.18 1.38-1.39.05a52.46 52.46 0 00-9.43 1.09z"/><path class="cls-11" d="M576.43 706.37c-13.2-.34-27.12-.58-44-.5-8.44 0-17.62.18-27.82.56-5.1.19-10.46.45-16.11.89-2.84.22-5.74.5-8.75.9-1.51.21-3 .45-4.63.81a19.48 19.48 0 00-2.51.72 5.35 5.35 0 00-2.92 2.38l-.48 1.26-.26.86-.51 1.69-.93 3.39c-.56 2.27-1.14 4.58-1.72 6.92-1.11 4.68-2.21 9.5-3.27 14.46q-3.22 14.88-6.26 31.37c-2 11-4 22.46-5.64 34.44s-3.23 24.39-3.47 37.52a68.12 68.12 0 00.54 10.16 26 26 0 00.51 2.7l.42 1.43.21.71c.14.32.33.68.51 1a15 15 0 001.27 1.9 6.64 6.64 0 002 1.14 7.37 7.37 0 002.29.32 5.57 5.57 0 001.24-.13 6 6 0 00.91-.2 21.53 21.53 0 005.3-2.4c1.54-.91 3-1.87 4.38-2.84l8.2-5.77c2.66-1.8 5.56-3.63 7.92-4.28.55-.11 1-.21 1.21-.07.29 0 .59.19 1 .39a10.92 10.92 0 012.44 2.9c1.67 2.6 3.07 5.74 5 9a20.89 20.89 0 003.87 4.94c.5.39 1 .78 1.54 1.14a19.5 19.5 0 002 .85 9.23 9.23 0 004.09.07 21.91 21.91 0 005.86-2.06c1.74-.83 3.34-1.76 4.91-2.7 3.14-1.89 6.11-3.89 9.07-5.76 1.48-.93 3-1.84 4.39-2.59a17.58 17.58 0 012-1c.34-.14.55-.15.82-.25s.2 0 .21 0 0 .05 0-.08l.06-.5v.58s0-.07.15 0l.72.4a18.57 18.57 0 011.81 1.36c1.24 1 2.51 2.24 3.78 3.48 2.56 2.49 5.11 5.13 8 7.68a28.85 28.85 0 005.11 3.64 10.4 10.4 0 004.11 1.3 7.58 7.58 0 002.37-.19 9.72 9.72 0 001.89-.64 25.68 25.68 0 005.4-3.41c1.57-1.22 3-2.48 4.39-3.73 2.79-2.5 5.46-5.08 8.14-7.24.65-.53 1.31-1 1.91-1.4a9 9 0 011.15-.63c.08 0-.23-.11.35.19a14.68 14.68 0 011.74 1.26c2.54 2.1 5.16 4.81 8.07 7.25s6.11 5 10.83 6.11a12.11 12.11 0 007.3-.62 18.51 18.51 0 005.49-3.71c2.87-2.78 5-5.62 7.31-7.59s4.54-2.76 6.88-2.29 4.81 2.35 7.09 4.56 4.45 4.94 7 7.64a16.74 16.74 0 005.23 4.06 20.38 20.38 0 002.47.5c.82-.17 1.68-.23 2.47-.47a23.7 23.7 0 002.81-1.46c3.22-1.94 5.9-4 8.67-5.82s5.68-3.52 7.58-3.71a.78.78 0 01.46 0c.06 0 .38.1.61.18a10.37 10.37 0 011.75.83 46.47 46.47 0 013.91 2.56c2.66 1.88 5.31 4 8.39 5.81a16.63 16.63 0 005.63 2.36 5.56 5.56 0 002.23 0 4.65 4.65 0 002.2-.71 6.61 6.61 0 002.92-3.05 20.86 20.86 0 001.84-5.45 49.69 49.69 0 00.83-5.08c.39-3.32.59-6.59.7-9.81a370 370 0 00-1.01-37.16c-.85-11.92-2-23.39-3.33-34.36s-2.84-21.43-4.59-31.34c-.88-5-1.82-9.77-2.9-14.44-.55-2.34-1.14-4.64-1.82-6.91-.35-1.14-.72-2.27-1.16-3.4a14.3 14.3 0 00-1.92-3.66 7.66 7.66 0 00-2.88-1.93 21.25 21.25 0 00-2.5-.86c-1.62-.47-3.18-.77-4.73-1.08-3.08-.58-6.06-1-9-1.34-5.82-.71-11.33-1.17-16.59-1.56-10.51-.77-20-1.21-28.69-1.53-17.42-.64-31.82-.81-45.44-.86v3c13.59.38 28 .87 45.31 1.79 8.67.47 18.1 1 28.51 1.95 5.21.45 10.67 1 16.37 1.74 2.84.39 5.75.82 8.66 1.4 1.45.3 2.93.6 4.31 1a9.25 9.25 0 013.06 1.33 12.31 12.31 0 011.07 2.33c.36 1 .68 2 1 3.08.6 2.13 1.13 4.36 1.62 6.63 1 4.56 1.82 9.31 2.61 14.22 1.58 9.81 2.92 20.22 4.11 31.12s2.2 22.3 2.94 34.11 1.23 24.09.76 36.54c-.13 3.11-.35 6.22-.73 9.28s-1 6.23-2 8.21c-.32.59-.23.38-.3.46s0 .07-.26 0a11.12 11.12 0 01-3.35-1.55c-2.56-1.56-5.15-3.58-7.92-5.57-1.4-1-2.83-2-4.47-3a18.15 18.15 0 00-2.79-1.32 8.65 8.65 0 00-3.87-.57 17.13 17.13 0 00-6 2 51.37 51.37 0 00-4.69 2.79c-2.94 1.92-5.72 4-8.41 5.61a18 18 0 01-1.76.93h-.09a12.53 12.53 0 01-2.8-2.43c-2.22-2.35-4.44-5.17-7.12-7.8s-5.8-5.46-10.55-6.43a13.63 13.63 0 00-7 .43 17.86 17.86 0 00-5.68 3.35c-3.09 2.7-5.27 5.63-7.58 7.81s-4.35 3.16-6.62 2.57-5.21-2.47-7.79-4.63-5.08-4.76-8.16-7.33a19.46 19.46 0 00-2.7-1.92 7.06 7.06 0 00-4.83-1 10 10 0 00-3.91 1.5 31 31 0 00-2.52 1.83c-3.09 2.5-5.74 5.08-8.44 7.5s-5.51 4.85-7.88 5.93a2.17 2.17 0 01-1.06.29 4.14 4.14 0 01-1.23-.45 23.52 23.52 0 01-3.79-2.73c-2.58-2.25-5.09-4.83-7.73-7.39-1.32-1.29-2.67-2.58-4.21-3.85a24.1 24.1 0 00-2.53-1.88c-.48-.31-1.1-.6-1.65-.88a9.79 9.79 0 00-2.37-.64 10.61 10.61 0 00-4.13.75 25.56 25.56 0 00-2.82 1.32c-1.74.92-3.3 1.89-4.85 2.87-3.07 2-6 3.93-8.93 5.71s-6 3.49-8.41 3.92a2.75 2.75 0 01-1.08 0 1.38 1.38 0 00-.43-.17 4.63 4.63 0 00-.56-.43 14.82 14.82 0 01-2.51-3.29c-1.66-2.73-3.09-6-5.15-9.16a16.87 16.87 0 00-4.35-4.75 9.32 9.32 0 00-7.6-1.23c-4.23 1.27-7 3.33-10 5.26l-8.17 5.94c-2.6 1.8-5.47 3.74-7.63 4.36a2.08 2.08 0 01-.29.07H455c-.06 0-.1-.06-.14-.14v-.06l-.13-.46-.27-.93a19.15 19.15 0 01-.41-2.08 62.24 62.24 0 01-.53-9.16c.12-12.51 1.57-24.89 3.08-36.75s3.4-23.32 5.2-34.26 3.82-21.4 5.79-31.3q1.49-7.43 3-14.41c.54-2.31 1.06-4.6 1.58-6.84.28-1.11.55-2.21.83-3.3l.44-1.58.22-.78.11-.31c0-.26.37-.41.51-.45a14.75 14.75 0 011.89-.56c1.37-.33 2.81-.57 4.23-.78 2.86-.42 5.7-.72 8.47-1 5.56-.5 10.87-.82 15.93-1.08 10.13-.51 19.27-.78 27.68-1 16.82-.36 30.72-.43 43.9-.41z"/><path class="cls-11" d="M488.26 758.43c1.16-2.54 4.1-4.26 7.24-5.41a45.28 45.28 0 0110.47-2.3 71.1 71.1 0 0111.64-.29 41.51 41.51 0 0111.88 2.19 10 10 0 012.44 1.29 4.72 4.72 0 011.48 1.87 29.86 29.86 0 012 6 102.87 102.87 0 012.1 13.57c.44 4.68.7 9.48.68 14.34s-.21 9.88-1.39 14.28a6.21 6.21 0 01-1 2.14c-.3.18-.75.45-1.18.67l-1.55.63a51 51 0 01-6.88 1.8 85.3 85.3 0 01-14.1 1.55c-9 0-19.33-.41-21.92-8.19-3.11-7.57-3.65-16-3.92-23.49-.05-7.53.21-14.76 2-20.62l-1.83-.73c-2.4 6.36-3 13.56-3.26 21.35 0 7.78.1 16.25 3.4 25a30.79 30.79 0 001.64 3.24 12.49 12.49 0 002.6 2.94 18.71 18.71 0 006.82 3.38 53.49 53.49 0 0014.54 1.54 86.29 86.29 0 0014.88-1.5 55.4 55.4 0 007.57-1.94l2-.8a16.66 16.66 0 002.08-1.22 9 9 0 002.57-4.46c1.43-5.46 1.48-10.53 1.53-15.59a143 143 0 00-.84-14.79 102.58 102.58 0 00-2.43-14.14 32.88 32.88 0 00-2.46-6.84 9 9 0 00-2.74-3.21 14.08 14.08 0 00-3.4-1.71 44.18 44.18 0 00-13.12-2.07 70.31 70.31 0 00-12.2.78 46 46 0 00-11 3c-3.32 1.45-6.71 3.51-8.12 7.05z"/><path class="cls-12" d="M476.76 775.83l-.09-2.44c7.1-.26 15.38-1.24 16.38-2.31l1.82 1.64c-2.14 2.37-14.41 2.98-18.11 3.11zm4.24 11.74c-1.83 0-3.4 0-4.37-.07l.09-2.45c7 .26 15.2-.17 16.35-1.28l1.7 1.75c-1.77 1.73-8.7 2.05-13.77 2.05zm-1.22 13.97l-.74-2.33c.39-.12 9.66-3 15-2.77l-.12 2.44c-4.99-.23-14.05 2.63-14.14 2.66zm27.37 20.32c-5.17-1.94-1.52-14-.73-16.44l2.32.76c-1.66 5.11-2.84 12.6-.73 13.39zm12.58.04c-3.39-.93-2.34-9.4-.87-16.35l2.39.5c-1.35 6.38-1.72 12.7-.8 13.52zm14-29.8l-.23-2.43c1.16-.12 11.5-1.08 14.4.08L547 792c-1.78-.69-9.08-.3-13.27.1zm.27-12.79l-.72-2.34c1.12-.35 11-3.34 14.58-2.16l-.78 2.32c-2.08-.71-9.16.96-13.08 2.18zm-2.95-11.62l-.29-2.43c16.63-2 17.49 0 17.81.73l-2.25 1a.54.54 0 00.21.27c-1.18-.76-8.95-.36-15.48.43zm-24.66-9.33c-.55-2.23-1.9-15.08-1.95-15.63l2.43-.25c.38 3.67 1.47 13.58 1.9 15.29zm11.78-.22c0-.47-.69-11.58 0-15.74l2.41.41c-.66 3.88 0 15.07 0 15.18zm-67.83 58.07c-12.13-1.85-14.23-17.49-14.31-18.16l6.47-.82c0 .12 1.57 11.42 8.82 12.53z"/><path class="cls-12" d="M446.93 761.63c-1.92-.17-2.19 1.7-2.7 7a113.08 113.08 0 01-2.78 14.37 87.07 87.07 0 01-4.36 12.17 59.14 59.14 0 01-4.58 8.44l-1.61 2.2-.31.37-3.79-.06-5.16-.65c-.69-.13-1.37-.29-2-.45l-1.2-.29a63.78 63.78 0 01-11.5-3.94 94.14 94.14 0 01-16.83-9.87 117 117 0 01-10.11-8.18l-1.68-1.57c-.35-.33-.79-.75-.82-.75l-.23-.32 7-13.49c2.37-4.94 4.87-10.24 7.12-15.45 4.11-9.37 8-18.89 11.45-28.31 5.56-14.89 10.4-29.35 15.27-45.51 7.3-24.53 10.89-39.76 12.61-47.07l.84-3.77c.25-1.25.56-2.8-1-3.17l-4.16-1c-1.58-.38-2 1.13-2.37 2.38l-1 3.72c-1.76 7.24-5.42 22.29-12.73 46.52-4.87 16-9.69 30.28-15.19 45-3.45 9.28-7.23 18.67-11.26 27.9-2.17 5-4.63 10.27-7 15.14l-3.85 7.84-3.49 6.47c-.42.73-.76 1.45-1.09 2.18l-1 2.11.84.83c.26.25.53.54.84.87.59.6 1.27 1.32 2.14 2.14l3.48 3.19a138 138 0 0010.89 8.6 102.94 102.94 0 0018.31 10.48 71.35 71.35 0 0012.85 4.3l1.17.26c.81.18 1.62.37 2.53.52l5.87.66H429c1.29.05 3 0 4.36-.09h.79l2-2.83 2-3.37a74.27 74.27 0 004.43-9.62 96.86 96.86 0 003.93-13.21 118.78 118.78 0 002.1-15.32c.24-5.37.23-7.23-1.68-7.37zM439 585.87l-6.44-1c2.08-13.2 3.06-24 2.86-31.16-6.93 1.61-14.4-2.69-14.79-2.92l-3.56-2.1 2.87-3c17.55-18.18 21.51-50.09 18.66-65.94l6.43-1.15c3 16.69-.61 47.87-17.31 68.16 2.66.87 6.16 1.39 8.46-.56l4.49-3.82.85 5.83c1.4 9.33-.58 25.63-2.52 37.66zm295.65 205.27a133.25 133.25 0 00-1.6-15.77 234 234 0 00-7.83-33c-.54-1.66-.9-2.66-1.83-2.41s-.71 1.31-.29 3a276 276 0 015.74 32.92 142.7 142.7 0 01.87 15.31 63.48 63.48 0 01-1.23 13.59l-.34 1.57a5.63 5.63 0 01-.26 1l-.09.19a2.14 2.14 0 01-.47.79 2.31 2.31 0 01-.62.65 12.6 12.6 0 01-4.27 2.25 53.13 53.13 0 01-9.52 2c-3.88.5-7.12.82-9.49 1-1.26.13-2.28.23-3 .32-1.76.2-1.93.42-2.08.61l-.22.28.57 4.65c.07.61.54.78 1.21.78a9.93 9.93 0 001.25-.11c.67-.09 1.57-.19 2.68-.31 2.43-.27 5.77-.64 10-1.28h.31a55.29 55.29 0 0010.28-2.48 18.1 18.1 0 006.12-3.54 7.16 7.16 0 001.4-1.61 6.67 6.67 0 001.08-2 8.39 8.39 0 00.54-2l.31-1.7a65.32 65.32 0 00.78-14.7z"/><path class="cls-12" d="M807.53 780.94c-1.1-2.34-2.38-4.79-3.63-7.13l-2.55-4.81c-1.06-2-2-4.11-3-6.17-.55-1.17-1.1-2.33-1.66-3.49-1.51-3.06-2.88-6.21-4.3-9.5-.49-1.15-1-2.29-1.5-3.42-.88-2-1.75-4-2.54-6-4.64-11.22-9.07-22.94-13.54-35.81-6.7-19.27-12.73-39.05-18.43-60.48-3.89-14.67-7.29-29.2-10.12-43.18-1.11-5.45-2-10.31-2.7-14.5-.65-3.56-1.06-6.46-1.37-8.68l-.62-4c-.26-1.42-.52-2.83-2.1-2.64l-5.22.62-.41.49c-.5.58-.45 1.16-.32 2.6l.46 4c.28 2.31.66 5.34 1.28 9 .62 4.25 1.48 9.23 2.54 14.79 2.7 14.25 6 29 9.8 43.82 5.6 21.66 11.64 41.69 18.45 61.23 4.53 13 9.07 24.88 13.87 36.26.82 2.08 1.75 4.13 2.69 6.21.5 1.11 1 2.22 1.5 3.36 1.41 3.17 2.86 6.45 4.52 9.74.55 1.11 1.1 2.23 1.64 3.35 1 2.16 2.1 4.34 3.26 6.5l2.68 5c.32.55.63 1.08.93 1.62l-.42.35-4.08 2.93c-5 3.63-9.82 6.84-14.84 9.93-5.93 3.55-12.65 7.58-20.24 9.74a26.69 26.69 0 01-11.8.51 15.73 15.73 0 01-9.85-5.7 10.57 10.57 0 01-1.83-4.08 2.39 2.39 0 00-1.07-1.72l-.83-.66-1 .92c-1.06.93-1.26 4.22 1.14 8a20.42 20.42 0 0012.4 8.14 28.18 28.18 0 007 .84 36 36 0 007.21-.76 61.12 61.12 0 0012.15-4.16c3.38-1.54 6.85-3.29 10.28-5.18 6.18-3.39 11.38-6.58 15.65-9.26l11.12-7.3zM732 538.37c-4.44-21.06-2.74-47.11-.52-59.48l3.21.58c-2.18 12.11-3.84 37.62.5 58.22zm-27.29-139.8a38.37 38.37 0 00-5.54-11.78 54.74 54.74 0 00-14.58-14.39 64 64 0 00-9.42-5.39l-.44-.21c-1.42-.68-1.7-.58-1.93-.5l-.33.14-1.88 4.3c-.36.86.64 1.32 1.52 1.74l.47.22a61 61 0 018.63 4.73 51.37 51.37 0 0113.5 12.5 34.88 34.88 0 015.24 10 14 14 0 01.54 2.63 1.39 1.39 0 01-.08.58l-.18.38a3.45 3.45 0 01-.39.68 18 18 0 01-4.14 4.3 23.1 23.1 0 01-12.1 4.5 29.17 29.17 0 01-13.45-2.31 33.2 33.2 0 00-2.38-11 46.9 46.9 0 00-5.94-11.07c-.62-.77-1.4-1.72-2.2-1.15s-.09 1.65.4 2.4a47.61 47.61 0 014.58 10.89A28.76 28.76 0 01666 411.6a4.76 4.76 0 01-1.59 3.31 26.29 26.29 0 01-4.4 2 30.16 30.16 0 01-9.1 1.85 28.19 28.19 0 01-14.22-3.15 32.16 32.16 0 01-6.76-4.69 3.66 3.66 0 00-1.08-.7v-.27a62 62 0 00-2.48-7.89q-.57-1.56-1.11-3.15a54.21 54.21 0 01-2.78-11.13c-.11-.91-.18-2.12-1.26-2.08s-.95 1.32-.93 2.24A53.24 53.24 0 00622 399.9c.3 1.22.63 2.42 1 3.61a60.48 60.48 0 011.67 7.23 17.29 17.29 0 01.16 3.05l-.07.08v.36a.6.6 0 000 .12 9.89 9.89 0 01-.1 1.13 5.58 5.58 0 01-1.91 3.11 13.89 13.89 0 01-7.42 3.2 28.7 28.7 0 01-14-1.87 40.69 40.69 0 01-6.74-3.2 18.6 18.6 0 00-.25-3.26 51.67 51.67 0 00-2-7.49c-.53-1.67-1.07-3.39-1.47-5.1a25.71 25.71 0 01.09-12.52c.28-1.07.6-2.28-.35-2.57s-1.37.88-1.76 1.91a27.31 27.31 0 00-1.25 13.82c.3 2 .76 3.91 1.21 5.77a45.77 45.77 0 011.27 6.71 14.68 14.68 0 01.06 2.6 2.17 2.17 0 01-.79 1.27 12.25 12.25 0 01-4.32 2.21 39.92 39.92 0 01-10.21 1.64 45.65 45.65 0 01-16.46-2c-4.77-1.6-6.48-3.9-6.64-4.12a2.35 2.35 0 00-1-1 50.9 50.9 0 01-.44-9.46c.18-4.79 1.1-11.8 4.5-18 .55-1 1.18-2.1.34-2.62s-1.49.49-2.12 1.49c-4.21 6.25-5.83 13.7-6.45 18.84a75.5 75.5 0 00-.52 10v1.22c0 .21 0 .3-1.38 1l-.29.15a26.26 26.26 0 01-4.33 1.47 48.2 48.2 0 01-8.55 1.29 56.19 56.19 0 01-13.8-.78 48.35 48.35 0 01-13-4.25l-.49-.24a7.07 7.07 0 00-.84-.36c0-1.18 0-2.55.09-4.09.49-7.28 2.51-13.08 6-17.18 1.84-1.88 2.38-2.55 1.73-3.21s-1.33-.15-3.33 1.7c-4.07 4.31-6.63 10.5-7.61 18.39a57.15 57.15 0 00-.42 7.15v2.63l-.26.19a12.38 12.38 0 01-2.88 1.74 12.76 12.76 0 01-3.2 1.12l-1 .27a28.12 28.12 0 01-8.91-.08 43.29 43.29 0 01-15.73-6.41 23.3 23.3 0 01-3-2.37 3.86 3.86 0 01-.65-.7 2.23 2.23 0 00-.3-.33c-.1-.17-.11-.19-.13-.7a14.58 14.58 0 011.15-6.46 40 40 0 016.85-11.16 62.76 62.76 0 0115.53-13.25 59.84 59.84 0 0110.18-4.83c1.76-.65 2.59-1 2.31-1.86l-1.49-4.46-.32-.15c-.27-.12-.48-.23-2.67.6a65.27 65.27 0 00-11.19 5.46 67.55 67.55 0 00-16.83 14.82 44.71 44.71 0 00-7.54 12.9 19.48 19.48 0 00-1.36 9 2.77 2.77 0 010 .3 2.9 2.9 0 00.27 1.21l.22.48a7.62 7.62 0 00.58 1.13l.34.41a10.35 10.35 0 001.4 1.46 27 27 0 003.75 2.8 47.62 47.62 0 0017.81 6.72 38 38 0 004.77.32 29.21 29.21 0 005.81-.56l1-.29a16.86 16.86 0 004.14-1.58 16.69 16.69 0 003.84-2.52c.4-.33.84-.68 1.34-1l.4-.31v-.07a53.62 53.62 0 0012.62 3.43 60.41 60.41 0 009.39.73c1.93 0 3.89-.09 5.85-.27a52.47 52.47 0 009.49-1.74 30.44 30.44 0 005.21-2l.37-.2a13 13 0 001.21-.69 21.38 21.38 0 008.34 4.58 45.74 45.74 0 0013.69 1.92q2.46 0 5-.21a44.07 44.07 0 0011.52-2.44 18.61 18.61 0 004.77-2.58 44 44 0 007.82 3.5 36.7 36.7 0 0011.53 2 29.21 29.21 0 005.38-.5 18.35 18.35 0 0010-5.08 11.34 11.34 0 002.55-4.09 38.09 38.09 0 005.19 3.07 33.2 33.2 0 0014.42 3.3c.93 0 1.89 0 2.87-.12a34.47 34.47 0 0010.59-2.72l.4-.19a26.27 26.27 0 004.87-2.71 8.4 8.4 0 002.93-5.55 31.05 31.05 0 0013.35 3.27 1.21 1.21 0 00.38 0 26.64 26.64 0 0014.39-4.43 22 22 0 005.46-5.11 8.19 8.19 0 00.85-1.34l.3-.56a6.2 6.2 0 00.5-2.55 17.39 17.39 0 00-.57-3.72zM531.49 978l-4.22-.36c1-11.84 2.25-24 3.57-36.9 3-29.46 6.13-59.94 6.22-86.34h4.24c-.09 26.62-3.22 57.19-6.24 86.77-1.32 12.83-2.57 24.97-3.57 36.83z"/><path class="cls-11" d="M506.67 987.23a88.42 88.42 0 01-1.27 29.61 85.4 85.4 0 01-4.83 15.87 35.84 35.84 0 01-4 7.27 7.9 7.9 0 01-2.31 2.25c-.12.07-.14.07-.22.06s-.06 0-.1 0h-.47l-2.18-.23c-5.87-.65-11.15-2.65-14.74-7.28-1.95-2.23-3.58-5.39-7.14-8a13.38 13.38 0 00-2.92-1.54l-1.57-.55-1.56-.27a13 13 0 00-3.07-.2 13.12 13.12 0 00-3 .23 21.8 21.8 0 00-5.76 1.43 17.68 17.68 0 00-2.82 1.25l-2.62 1.8a17.86 17.86 0 00-6.2 11.21 20 20 0 002.77 12.41c2 3.83 5.48 6.49 9 8.72a32.92 32.92 0 0011.52 3.67 32.08 32.08 0 005.84.35l2.88-.11 1.44-.06h.77c7.16.43 14.18.64 21.12.61a158.53 158.53 0 0020.51-1.23A42.88 42.88 0 00526 1062a16.86 16.86 0 002.66-1.42c.45-.33.91-.72 1.33-1.09l1-1.36a11.59 11.59 0 002-5.79 42.56 42.56 0 00-.6-9.92c-.46-3-.92-6-1.37-8.88a136.33 136.33 0 01-1.59-16.74 116.36 116.36 0 012.85-29.73l-2.86-.74a111.41 111.41 0 00-4.6 30.51 131 131 0 001 17.38q.54 4.4 1.08 8.92a39.4 39.4 0 01.32 8.51 5.84 5.84 0 01-1.06 3 5.3 5.3 0 00-.39.54l-.52.39a10.85 10.85 0 01-1.6.79 38.23 38.23 0 01-8.71 1.88 161.74 161.74 0 01-19.67.84c-6.76-.06-13.69-.33-20.67-.8h-.66a6.58 6.58 0 00-1.23 0h-1.23l-2.46.08a24.62 24.62 0 01-4.86-.31 26.38 26.38 0 01-9.05-2.84c-2.55-1.69-5.1-3.57-6.45-6.2a13.24 13.24 0 01-1.9-8.08 11 11 0 013.7-6.8l1.66-1.17a10.75 10.75 0 011.92-.85 15.37 15.37 0 014.19-1.09c2.94-.47 5.59-.2 7.45 1.06s3.72 4.09 6.05 6.8a23.54 23.54 0 008.81 6.6 32.24 32.24 0 0010.12 2.42l2.48.18h.68l1.05-.1a5.7 5.7 0 002-.63 13 13 0 004.25-4.07 41 41 0 004.38-8.58 90.82 90.82 0 004.11-48z"/><path class="cls-12" d="M513.47 978l-4.22-.44c5.57-53.74 7.34-121.22 7.36-121.89l4.24.11c-.02.68-1.8 68.31-7.38 122.22z"/><path class="cls-11" d="M520.51 978.56c2.37.21 5 .38 7.75.68a31.21 31.21 0 014.11.7c1.27.31 2.62.93 2.8 1.47a1.13 1.13 0 01.08.85 1.44 1.44 0 01-.67.77 11 11 0 01-4 1.44 61 61 0 01-10.43.9 54.26 54.26 0 01-10.36-.53 6.07 6.07 0 01-3.36-1.56 3.14 3.14 0 01-.74-1.39c-.11-.53-.14-.56-.08-.69a5.64 5.64 0 012.93-1.33c1.36-.3 2.78-.48 4.15-.64 2.77-.29 5.39-.47 7.77-.67v-2c-2.38-.2-5-.4-7.92-.43a35.61 35.61 0 00-4.62.24c-1.6.32-3.52.4-5.45 2.48a4.73 4.73 0 00-.73 4 7.29 7.29 0 001.43 3.09 9.85 9.85 0 005.63 3.21 48.59 48.59 0 0011.43.83 55 55 0 0011.33-1.19 14 14 0 005.58-2.46 5.38 5.38 0 002-3.29 5 5 0 00-.82-3.81 5.83 5.83 0 00-2.72-2 11.75 11.75 0 00-2.61-.71 30.71 30.71 0 00-4.66-.31c-2.91 0-5.54.22-7.92.42z"/><path class="cls-12" d="M625.41 978c-1-11.82-2.25-24-3.57-36.86-3-29.56-6.15-60.12-6.23-86.73h4.24c.08 26.39 3.2 56.85 6.21 86.3 1.32 12.9 2.57 25.08 3.58 36.94z"/><path class="cls-11" d="M647.33 986.72a91 91 0 004.1 48 41 41 0 004.38 8.58 13.08 13.08 0 004.26 4.07 5.71 5.71 0 002 .63l1.05.1h.69l2.47-.18a32.17 32.17 0 0010.12-2.42 23.46 23.46 0 008.81-6.6c2.33-2.71 4.09-5.5 6.05-6.8s4.51-1.53 7.46-1.06a15.46 15.46 0 014.19 1.09 11 11 0 011.91.85l1.67 1.17a11.07 11.07 0 013.7 6.8 13.25 13.25 0 01-1.91 8.08c-1.35 2.63-3.89 4.51-6.45 6.2a26.39 26.39 0 01-9 2.84 24.72 24.72 0 01-4.87.31l-2.46-.08h-1.23a6.66 6.66 0 00-1.23 0h-.65c-7 .47-13.91.74-20.67.8a161.91 161.91 0 01-19.68-.84 38.23 38.23 0 01-8.71-1.88 10.7 10.7 0 01-1.59-.79l-.53-.39a5.3 5.3 0 00-.39-.54 5.84 5.84 0 01-1.06-3 39.4 39.4 0 01.32-8.51q.56-4.53 1.08-8.92a131 131 0 00.95-17.38 111 111 0 00-4.6-30.51l-2.85.74a117.26 117.26 0 012.85 29.73 136.33 136.33 0 01-1.59 16.74c-.45 2.91-.91 5.88-1.38 8.88a43.11 43.11 0 00-.6 9.92 11.69 11.69 0 002 5.79l1 1.36c.43.37.89.76 1.34 1.09a16.35 16.35 0 002.65 1.42 42.84 42.84 0 0010.22 2.51 158.42 158.42 0 0020.51 1.23c6.93 0 14-.18 21.11-.61h.78l1.43.06 2.88.11a32 32 0 005.84-.35 32.92 32.92 0 0011.52-3.67c3.5-2.23 6.94-4.89 9-8.72a20 20 0 002.76-12.41 17.85 17.85 0 00-6.19-11.21l-2.63-1.8a18 18 0 00-2.81-1.25 21.77 21.77 0 00-5.77-1.43 13.12 13.12 0 00-2.95-.23 12.87 12.87 0 00-3.06.2l-1.57.27-1.56.55a12.94 12.94 0 00-2.92 1.54c-3.56 2.65-5.19 5.81-7.15 8-3.58 4.63-8.87 6.63-14.73 7.28l-2.18.23h-.58c-.04 0-.1 0-.22-.06a8 8 0 01-2.31-2.25 36.34 36.34 0 01-4-7.27 85.4 85.4 0 01-4.83-15.87 88.41 88.41 0 01-1.26-29.61z"/><path class="cls-12" d="M643.43 978c-5.58-53.91-7.36-121.55-7.37-122.22l4.23-.11c0 .67 1.8 68.15 7.36 121.89z"/><path class="cls-11" d="M636.4 976.59c-2.38-.2-5-.4-7.93-.42a30.58 30.58 0 00-4.65.31 11.82 11.82 0 00-2.62.71 5.76 5.76 0 00-2.71 2 5 5 0 00-.83 3.81 5.38 5.38 0 002.05 3.29 14.1 14.1 0 005.58 2.46 55 55 0 0011.33 1.25 48.68 48.68 0 0011.44-.83 9.88 9.88 0 005.63-3.21 7.27 7.27 0 001.42-3.09 4.69 4.69 0 00-.72-4c-1.94-2.08-3.86-2.16-5.46-2.48a35.52 35.52 0 00-4.62-.24c-2.9 0-5.54.23-7.91.43v2c2.37.2 5 .38 7.76.67 1.37.16 2.79.34 4.15.64a5.55 5.55 0 012.93 1.33c.06.13 0 .16-.08.69a3.23 3.23 0 01-.73 1.39 6.1 6.1 0 01-3.36 1.56 54.41 54.41 0 01-10.37.53 61 61 0 01-10.43-.9 11.09 11.09 0 01-3.95-1.44 1.49 1.49 0 01-.67-.77 1.09 1.09 0 01.09-.85c.18-.54 1.52-1.16 2.8-1.47a31.06 31.06 0 014.1-.7c2.75-.3 5.38-.47 7.76-.68z"/><path d="M995.81 440.05c8.12 2.51 17.35 6 20.19 8-3.23 1.08-13 1.87-21.49 2H993l-.21 1.51c-1.8 10.71-4.57 22.92-6.43 26.59-1.48-4-1.87-15.78-1.37-26.23l.07-1.58-1.54-.29c-6.69-1.19-14.3-3.13-17-4.53 3-1.15 11.64-2.12 19.15-2.33l1.51-.07.21-1.48c1.44-10.38 4.21-22.24 5.82-24 1.26 1.94 1.87 11.07 1.37 20.66l-.07 1.4z" fill="#ededed"/></svg>