<svg id="Layer_1" data-name="Layer 1" xmlns="http://www.w3.org/2000/svg" viewBox="0 0 1200 1200"><defs><style>.cls-2{fill:#fff}.cls-3{fill:#c48d7c}.cls-4{fill:#fad5cb}.cls-5{fill:#ebbdb3}.cls-10,.cls-6{fill:#543f36}.cls-8{fill:#b07b6b}.cls-10{fill-rule:evenodd}</style></defs><path fill="#eae7f4" d="M0 0h1200v1200H0z"/><path class="cls-2" d="M460 212.65c-101 72.23-160.82 193.37-187.2 337C246.27 693 253 858.69 330.22 935.59c77 76.81 224.53 65 339.46 36.06 115-29.13 197.38-75.18 246.22-150.6 48.91-75.63 64-180.52 46.83-306.64C945.48 388.5 896 241.36 799.84 179.46c-96.3-61.99-238.66-38.95-339.84 33.19z"/><g id="medved"><path class="cls-3" d="M784.3 247.6a96 96 0 01-1 17.39 76.29 76.29 0 01-3.94 16c-3.61 10.05-9.6 18.46-17 23.94a45.22 45.22 0 01-21.2 8.07 177.34 177.34 0 00-8.91-19.17c-.09-.18-.18-.32-.27-.5a56.19 56.19 0 0020.93-21.11c3-5.49 5.51-12 5.39-19.23-.09-7-2.17-14.55-7.12-20.45a32.28 32.28 0 00-8.5-7.27 35.71 35.71 0 00-10-3.91 41.64 41.64 0 00-10.23-1 21.78 21.78 0 00-9.81 2.53c-5.84 3.16-9.75 8.14-12.46 12.91a53.22 53.22 0 00-4.53 10.79c-.51-.51-1-.95-1.55-1.43a159.2 159.2 0 00-12.94-10.37 64 64 0 0110.08-22.48 48.73 48.73 0 0123.34-17.65 54.08 54.08 0 0115.8-2.83 73.14 73.14 0 018.35.23 57 57 0 018.29 1.61 46.69 46.69 0 0115.47 7.25 49 49 0 0112 12.82c6.65 10.04 9.42 22.18 9.81 33.86z"/><path class="cls-4" d="M782.12 231.65a57.3 57.3 0 00-7.66-18 49 49 0 00-12-12.82 46.69 46.69 0 00-15.46-7.22 57 57 0 00-8.29-1.61 73.14 73.14 0 00-8.35-.23 54.14 54.14 0 00-15.8 2.83 49.07 49.07 0 00-14.25 8c31.12-11.41 68.03.67 81.81 29.05zm-27.9 21.41c.24 6.23-1.82 12.22-4.5 17.44A57.58 57.58 0 01731 291.55a178.59 178.59 0 00-33.75-43.5 57.56 57.56 0 015.31-10.88c2.8-4.35 6.58-8.65 11.65-11.15a18.51 18.51 0 018.26-1.88 39.33 39.33 0 019.24 1.14 29.73 29.73 0 0116.19 9.92 29 29 0 016.32 17.86z"/><path class="cls-5" d="M752.92 244.85a26.47 26.47 0 00-5-9.65 29.73 29.73 0 00-16.19-9.92 39.33 39.33 0 00-9.24-1.14 18.51 18.51 0 00-8.26 1.88c-5.07 2.5-8.85 6.8-11.65 11.15a57.56 57.56 0 00-5.31 10.88c2.66 2.5 5.25 5.13 7.79 7.84 7.19-18.04 33.13-23.26 47.86-11.04z"/><path class="cls-3" d="M519.42 233.89a159.92 159.92 0 00-14.1 11.21l-.51.45a53.3 53.3 0 00-4.2-9.81c-2.72-4.74-6.61-9.74-12.46-12.91a21.81 21.81 0 00-9.81-2.53 41.64 41.64 0 00-10.23 1 35.65 35.65 0 00-10.05 3.91 32.08 32.08 0 00-8.49 7.27c-4.95 5.9-7 13.47-7.13 20.45-.12 7.22 2.36 13.74 5.4 19.23a56.3 56.3 0 0019.88 20.51c-.2.36-.38.75-.59 1.1a177.91 177.91 0 00-8.86 19 44.52 44.52 0 01-19.88-7.87c-7.45-5.48-13.45-13.89-17.05-23.94a76.29 76.29 0 01-3.94-16 96 96 0 01-1-17.39c.38-11.68 3.16-23.82 9.84-33.92a48.8 48.8 0 0112-12.82 46.69 46.69 0 0115.47-7.25 56.73 56.73 0 018.29-1.61 73.08 73.08 0 018.35-.23 54.14 54.14 0 0115.8 2.83 48.77 48.77 0 0123.34 17.65 64 64 0 019.93 21.67z"/><path class="cls-4" d="M506.61 208.54a48.89 48.89 0 00-20.4-13.94 54.14 54.14 0 00-15.8-2.83 73.08 73.08 0 00-8.35.23 56.73 56.73 0 00-8.29 1.61 46.69 46.69 0 00-15.47 7.25 49 49 0 00-12.05 12.82 61.07 61.07 0 00-9.08 25.21c10.46-36.45 55.56-48.42 89.44-30.35zm-3.47 38.56a178.84 178.84 0 00-34.37 43.76A57.57 57.57 0 01451 270.5c-2.68-5.22-4.74-11.21-4.5-17.44a29 29 0 016.35-17.86 29.67 29.67 0 0116.22-9.92 38.9 38.9 0 019.21-1.14 18.51 18.51 0 018.26 1.88c5.06 2.5 8.85 6.8 11.65 11.15a54.67 54.67 0 014.95 9.93z"/><path class="cls-5" d="M503.14 247.1a54.67 54.67 0 00-4.95-9.93c-2.8-4.35-6.59-8.65-11.65-11.15a18.51 18.51 0 00-8.26-1.88 38.9 38.9 0 00-9.21 1.14 29.67 29.67 0 00-16.22 9.92 24.83 24.83 0 00-3.2 4.94c16.7-9.39 38.11-1.6 44.81 15.61 2.83-3.01 5.71-5.91 8.68-8.65z"/><path class="cls-2" d="M665.5 310.6a21.81 21.81 0 1021.79 21.79 21.28 21.28 0 00-.36-3.93 12.92 12.92 0 11-18.24-17.59 18.9 18.9 0 00-3.19-.27zm-28 29.45c-.71-3.66-.06-7.51.81-11.24 1.7-7.36 5.28-13.89 10.34-18.15a27.25 27.25 0 0117-6.2 33.52 33.52 0 018.67 1.58 30.67 30.67 0 018.38 4.59 28.76 28.76 0 0110.7 17.62c1.37 7.27-.24 15.59-5.57 21.58s-13.72 9.36-22.36 9.3-17.17-3.25-22.69-9a20.17 20.17 0 01-5.28-10.08zM534.62 310.6a21.81 21.81 0 1021.83 21.79 21.29 21.29 0 00-.39-3.93 12.92 12.92 0 11-18.22-17.59 18.82 18.82 0 00-3.22-.27zm-27.19 18.21c1.73-7.36 5.31-13.89 10.38-18.15a27.17 27.17 0 0116.93-6.2 33.36 33.36 0 018.68 1.58 30.19 30.19 0 018.37 4.59 28.64 28.64 0 0110.71 17.62c1.37 7.27-.24 15.59-5.55 21.58s-13.71 9.36-22.36 9.3-17.2-3.25-22.71-9a20 20 0 01-5.22-10.08c-.72-3.66-.06-7.51.77-11.24z"/><path class="cls-6" d="M636.46 397.5c.39 2.53-.71 5.75-2.65 8.65a34.11 34.11 0 01-7.4 7.87 33.17 33.17 0 01-42.33 0 34.28 34.28 0 01-7.39-7.87c-1.94-2.9-3-6.12-2.66-8.65a8.24 8.24 0 011.79-3.58 15.54 15.54 0 013.49-2.89 35.2 35.2 0 018.65-3.64 81.5 81.5 0 0117.29-2.62 81 81 0 0117.26 2.62 35.34 35.34 0 018.67 3.64 15.76 15.76 0 013.49 2.89 8.13 8.13 0 011.79 3.58z"/><path class="cls-4" d="M605.25 382.06a73.43 73.43 0 00-18.31 1.25 37 37 0 00-10.07 3.58 19.29 19.29 0 00-4.83 3.6 13.34 13.34 0 00-3.25 5.94c-.93 4.83.83 9.18 3 12.76a38.56 38.56 0 008.52 9.57 40.5 40.5 0 0022.22 9.12 100.63 100.63 0 001.4 11.6 2.82 2.82 0 00-.45.18l-.48.23-.24.09-.41.18-1.76.69-3.43 1.43a67.87 67.87 0 01-6.92 2.44c-1.13.36-2.26.81-3.43 1.14l-3.48.77-3.43.84c-1.17.23-2.33.29-3.49.47-9.18 1.28-18.42.54-26.56-2.86a38.58 38.58 0 01-19.05-16.49 13.12 13.12 0 01-1.4-2.74c-.39-1-.84-1.88-1.2-2.83-.41-2-1.22-3.91-1.25-5.87a24.08 24.08 0 011.4-11.54c2.83-7.33 8.56-13.45 14.94-18.1a83.89 83.89 0 0120.63-10.73 114.84 114.84 0 0121.22-5.63 146.11 146.11 0 0120.13-2.09 146.86 146.86 0 0120.15 2.09 113.36 113.36 0 0121.23 5.66 85.29 85.29 0 0120.66 10.73c6.38 4.68 12.07 10.83 14.9 18.19a24.68 24.68 0 011.37 11.57c0 2-.8 4-1.19 6l-1.13 2.86-.57 1.46-.77 1.34-1.52 2.75-1.91 2.5-.92 1.25-1.14 1.13-2.23 2.27a40.59 40.59 0 01-11 6.65c-8.11 3.28-17.44 3.75-26.66 2.32a52 52 0 01-7-1.37c-1.17-.27-2.36-.44-3.49-.8l-3.49-1.11c-2.29-.77-4.71-1.31-7-2.32l-3.49-1.37-3.52-1.31a99.14 99.14 0 001.45-11.67 40.53 40.53 0 0022.24-9.12 38.48 38.48 0 008.5-9.57c2.17-3.58 3.9-7.93 3-12.76a13.74 13.74 0 00-3.25-5.94 19.84 19.84 0 00-4.83-3.6 36.85 36.85 0 00-10.11-3.58 73.23 73.23 0 00-18.3-1.25z"/><path class="cls-5" d="M608.16 427.86h-.2a98.91 98.91 0 01-1.37 11.63l3.52 1.31 3.49 1.37c2.26 1 4.68 1.55 7 2.32l3.49 1.11c1.13.36 2.32.53 3.49.8a52 52 0 007 1.37c9.22 1.44 18.55 1 26.66-2.32a40.59 40.59 0 0011-6.65l2.23-2.27 1.14-1.13.92-1.25 1.91-2.5 1.52-2.75.77-1.34.57-1.46 1-2.44c-15.64 21.9-54.24 23.34-74.14 4.2zm-81.31-15.57a19.32 19.32 0 00.08 4.86c0 2 .84 3.9 1.25 5.87.36 1 .81 1.88 1.2 2.83a13.12 13.12 0 001.4 2.74 38.58 38.58 0 0019.05 16.49c8.14 3.4 17.38 4.15 26.56 2.86 1.16-.18 2.32-.24 3.49-.47l3.43-.84 3.48-.77c1.17-.33 2.3-.78 3.43-1.14a67.87 67.87 0 006.92-2.44l3.43-1.43 1.76-.69.41-.18.24-.09.48-.23a2.82 2.82 0 01.45-.18c-.58-3.14-.93-6.11-1.16-8.58-22.06 17.52-59.99 3.1-75.9-18.61z"/><path class="cls-3" d="M605.25 367.12a147.16 147.16 0 00-20.57.93 117 117 0 00-22.15 4.62A87.12 87.12 0 00540.11 383c-7.13 4.74-14 11.24-17.92 20.21a30.65 30.65 0 00-2.29 14.61c0 2.57.83 4.95 1.37 7.43.38 1.19.89 2.35 1.34 3.54a19.55 19.55 0 001.61 3.43 46 46 0 0022.45 20.3 54.58 54.58 0 0031 3.49c1.31-.24 2.63-.36 3.91-.71l3.81-1.14 3.79-1.19c1.22-.51 2.41-1.07 3.61-1.61a50.1 50.1 0 007-3.61l3.34-2.11 2.15-1.4.74.44 1.67 1.05 3.37 2a51.93 51.93 0 007.07 3.46l3.63 1.55c1.23.51 2.51.81 3.76 1.2a47.72 47.72 0 007.66 1.93 54.19 54.19 0 0031.07-2.89 46.21 46.21 0 0013.17-8.32l2.69-2.8 1.31-1.4 1.13-1.55 2.24-3.13 1.79-3.37.86-1.7.66-1.76 1.28-3.57c.45-2.48 1.22-4.86 1.22-7.4a31.12 31.12 0 00-2.24-14.61c-3.9-9-10.79-15.53-17.91-20.3A87.89 87.89 0 00648 372.7a115.71 115.71 0 00-22.18-4.65 147.85 147.85 0 00-20.57-.93zm138.83-8.64a146.26 146.26 0 01.3 32.31 102.94 102.94 0 01-7.78 29.93 82.65 82.65 0 01-16.69 24.36 94.92 94.92 0 01-22.13 16.46 8 8 0 01-.86.47c-16.55 8.89-34.22 13.57-50.77 16.43a327.39 327.39 0 01-46.48 4.29 327.12 327.12 0 01-46.47-4.29c-16.55-2.86-34.2-7.54-50.77-16.44-.84-.44-1.7-.89-2.54-1.37a96.37 96.37 0 01-20.45-15.56 82.46 82.46 0 01-16.69-24.36 103 103 0 01-7.75-29.92 146.87 146.87 0 01.3-32.31 170.21 170.21 0 019.72-40 179.23 179.23 0 019.3-20.87 177.29 177.29 0 0135.87-47.22 157.67 157.67 0 0115.56-12.79 139 139 0 0129-16.22 135.27 135.27 0 0123-7.1 137.7 137.7 0 0121.94-2.56 137.56 137.56 0 0121.94 2.56 135.09 135.09 0 0123 7.1c15.47 6.26 30.77 16.13 44.6 29a177.47 177.47 0 0135.86 47.22 184.61 184.61 0 019.48 21.32 171.52 171.52 0 019.51 39.56zm-47.22-18.13a30.8 30.8 0 000-12.79A31.35 31.35 0 00675 303.83a33.77 33.77 0 00-9.36-1.19 28.93 28.93 0 00-18.72 5.84c-5.82 4.47-10 11.57-12 19.47a39.66 39.66 0 00-1.22 6.08 22.49 22.49 0 00.09 6.65 23.82 23.82 0 006 12.22c6.44 6.83 16 10.35 25.67 10.47s19.41-3.7 25.43-10.89a27.74 27.74 0 005.97-12.13zm-130.85 0a31.4 31.4 0 00-21.88-36.52 34 34 0 00-9.39-1.19 28.82 28.82 0 00-18.69 5.84C510.21 313 506 320.05 504 328a48.45 48.45 0 00-1.23 6.08 23.22 23.22 0 006.17 18.87c6.41 6.83 16 10.35 25.64 10.47S554 359.67 560 352.48a28.07 28.07 0 006-12.13z"/><path class="cls-3" d="M321.58 798.86v1.64c-.86-.68-1.87-1.55-3-2.56-2.92-2.77-6.61-7.31-7.57-13.15a23 23 0 01-.18-7.63 38.63 38.63 0 011.76-7.63c3.58-10.38 10-19.86 16.31-28.62l11.74-15.86a93.06 93.06 0 008-12.26 120.39 120.39 0 005.46-14.22l.63-1.84c1.69-5.25 3.3-10.5 4.88-15.69 10.77-36.07 24.09-77.51 41.29-111.37a293.07 293.07 0 0125.38-42.22 183.24 183.24 0 0127-30 134.19 134.19 0 0141.65-25.61l4.07-1.54a11.87 11.87 0 002.05-1 140.36 140.36 0 0023.41 8.94c-.84 1.58-1.88 3.79-3 6.38a372 372 0 00-19.14 57.66 354.13 354.13 0 00-6.77 34.85 231.37 231.37 0 00-2.55 38.51c.12 3.34.24 6.7.36 10.1.39 3.4.78 6.83 1.19 10.26a84.18 84.18 0 001.85 10.31c.39 1.73.75 3.46 1.14 5.22s1 3.4 1.58 5.1a96.2 96.2 0 0021.76 38.31c10.43 11.12 24.12 19.52 39 24.59s31 7.1 47.11 6.92 32.13-2.62 46.89-8.2a94 94 0 0038.19-25.91 98.42 98.42 0 0020.33-39.11 163.59 163.59 0 005.13-41.17 252 252 0 00-3.13-38.43 351.26 351.26 0 00-7.1-34.79 365.94 365.94 0 00-19.67-57.48 142.51 142.51 0 00-3-6.32 131.18 131.18 0 0012.55-5.21 13.82 13.82 0 001.91.89l4 1.55A136.42 136.42 0 01745 497.82a187.46 187.46 0 0127.28 29.87 296.66 296.66 0 0125.72 42.1c17.77 34.13 31.43 75.33 42.46 111.14 1.61 5.18 3.25 10.4 5 15.65l.63 1.82a124.86 124.86 0 005.55 14.22 94.45 94.45 0 008 12.25l11.71 15.83c6.59 9.21 12.79 18.33 16.37 28.68a40.09 40.09 0 011.79 7.78 24.31 24.31 0 01-.21 7.69c-1 5.84-4.65 10.41-7.57 13.15-1.23 1.07-2.27 2-3.13 2.65v-1.76a76.75 76.75 0 00-5.79-25.89c-.44-1-.89-2.09-1.76-1.79s-.47 1.4-.15 2.47a78.9 78.9 0 013.82 25.16c-.21 8.29-2.71 15.54-6.92 19.83-3.45 3.64-8 6-14 7.21a44.4 44.4 0 01-6.14.84c1.28-2.15 2.45-4.3 3.52-6.47a89.48 89.48 0 006.46-17.25 34.78 34.78 0 001.19-10.05c-.15-2.5-.74-3.88-1.1-3.82s-.54 1.44-.93 3.7a89.46 89.46 0 01-2.17 9.33 91.82 91.82 0 01-6.8 16.43 88.55 88.55 0 01-5.28 8.79 65 65 0 01-5.3 6.8c-4.21 4.68-9.6 9.21-15.62 9.72a12 12 0 01-8.29-2.92c-2.57-2-4.59-4.62-4.41-7.22s2.14-5.6 4.5-8.28 5.18-5.37 7.9-8.2a51.37 51.37 0 007.67-9.68 29.2 29.2 0 002.5-6 45.4 45.4 0 001.61-6.09 36.17 36.17 0 00.51-13.08 21.12 21.12 0 00-2.33-6.65 15.74 15.74 0 00-5.15-5.34 18.07 18.07 0 00-7-2.29 6.48 6.48 0 00-4.86 1.28 8.36 8.36 0 00-2.35 3.9 31.16 31.16 0 00-.9 7l-.18 6.5c-.15 4.26-.47 8.5-1.82 12.19a10.44 10.44 0 01-7.69 7.16 20 20 0 01-6 .38 14.77 14.77 0 01-5.66-1.25 4.82 4.82 0 01-2.84-3.52 12.93 12.93 0 01.45-5.72c2.45-8.26 7.63-16.25 12.49-24.27 2.48-4 5-8.08 7.43-12.34s4.8-8.56 5.84-14.1a10.52 10.52 0 00.15-2.21 12.92 12.92 0 00-.2-2.15c-.24-1.22-.45-2.45-.75-3.67-.53-2.41-1.13-4.83-1.78-7.21-1.29-4.8-2.81-9.54-4.42-14.28a239.37 239.37 0 00-11.68-28 230.9 230.9 0 00-15.57-26.71 204 204 0 00-20-24.42c-2.41-2.26-4.83-4.56-6.92-6.5-2.8-2.62-5.18-4.79-6.64-6.17.23 6.89.5 13.78.77 20.63.12 4.33 0 8.68 0 13s-.12 8.65-.3 12.91-.27 8.56-.53 12.82c-.6 8.47-1 16.9-1.79 25.22-.39 4.15-.75 8.29-1.11 12.4s-.89 8.2-1.34 12.26c-3.66 32.49-8.61 63.35-14.37 92s-12.22 55-19.4 78.46c-3.76 11.69-7.22 22.84-11.24 33-1.94 5.13-3.67 10.14-5.82 14.76-1 2.42-2 4.77-3.07 7.07-.71 1.64-1.43 3.28-2.11 4.92-.6 1.46-1.26 3-1.73 4.38a62.8 62.8 0 017-2.06l1.7-.42c.24-.14.72 0 .84 0h.59c.78-.09 1.52-.24 2.27-.3a33 33 0 018.35.3 24.25 24.25 0 0112 5.36c5.78 5 7.19 11.72 4.77 16a15.34 15.34 0 01-6.08 5.49c-.57.32-1.1.62-1.52.89A19.79 19.79 0 00711 982.3a22.35 22.35 0 00-17.89-12.11 30.74 30.74 0 00-15.89 3c-.65.3-1 .69-.95 1s.66.33 1.34.18a37.39 37.39 0 0115-.78 20.37 20.37 0 0114.61 10.65 16.85 16.85 0 011.84 9.21 9.21 9.21 0 01-3.87 6.91 13 13 0 01-7.34 1.82 27.71 27.71 0 01-5.09-.53 10.53 10.53 0 00-.12-2.93 17.41 17.41 0 00-4-7.93 26.78 26.78 0 00-6.08-5.3 24.07 24.07 0 00-13.8-4.21c-3.22.12-5.13 1.52-4.95 1.82s2.12-.18 5 0a22.18 22.18 0 0112.19 4.62 24.16 24.16 0 015.13 5.07 14.47 14.47 0 012.89 6.47 6.62 6.62 0 01-2.24 5.93c-1.75 1.61-4.23 2.57-7.06 3.37a52.33 52.33 0 01-17.68 2 54.49 54.49 0 01-18.42-4.5 40.61 40.61 0 01-15.51-11.81 26.58 26.58 0 01-5.78-18.51c.54-6.74 3.64-13.36 8-19.32a69.07 69.07 0 009.93-21.73 123.93 123.93 0 003.9-22.3 216.16 216.16 0 00-.65-41.62 252.37 252.37 0 00-6.45-35.77c-2.78-10.53-5.91-20-10.38-27.58a115.06 115.06 0 0014.22-4 120.57 120.57 0 0027.43-13.62c1.19-.75 1.85-1.52 1.64-1.88s-1.22-.24-2.5.33a195.52 195.52 0 01-28.09 10.31 143.52 143.52 0 01-16.75 3.55 135.77 135.77 0 01-21.63 1.52 130.69 130.69 0 01-38.16-5.87 144.86 144.86 0 01-27.45-11.69c-1.22-.65-2.24-.86-2.45-.5s.36 1.13 1.46 2a100.22 100.22 0 0026.78 15 97.58 97.58 0 0013.23 4.11 1.67 1.67 0 00-.15.24c-4.62 7.66-7.78 17.29-10.61 28a248.18 248.18 0 00-6.41 35.77 216.13 216.13 0 00-.66 41.62 126.56 126.56 0 003.88 22.3 69.84 69.84 0 0010 21.73c4.32 6 7.42 12.58 8 19.32a26.59 26.59 0 01-5.79 18.51A40.45 40.45 0 01557.1 1006a54.15 54.15 0 01-18.39 4.5 52.3 52.3 0 01-17.68-2 17.32 17.32 0 01-7.07-3.37 6.62 6.62 0 01-2.23-5.93 14 14 0 012.89-6.47 24.16 24.16 0 015.13-5.07 22.07 22.07 0 0112.19-4.66c2.83-.15 4.77.48 4.95 0s-1.7-1.7-4.92-1.82a24.16 24.16 0 00-13.83 4.21 27.35 27.35 0 00-6.06 5.3 17.49 17.49 0 00-4 7.93 9.5 9.5 0 00-.12 2.93 27.73 27.73 0 01-5.1.53 13 13 0 01-7.33-1.82 9.22 9.22 0 01-3.88-6.91 16.68 16.68 0 011.85-9.21 20.35 20.35 0 0114.61-10.65 37.37 37.37 0 0115 .78c.69.15 1.23.09 1.35-.18s-.3-.66-1-1a30.7 30.7 0 00-15.89-3 22.39 22.39 0 00-17.89 12.11 19.84 19.84 0 00-2.14 11.06c-.54-.36-1.25-.78-2.12-1.28a15 15 0 01-6.08-5.49c-2.44-4.26-1-10.94 4.77-16a24 24 0 0112-5.36 33.08 33.08 0 018.35-.3c.75.06 1.52.21 2.3.3h.56c.12.06.63-.11.84 0l1.7.42a62.8 62.8 0 017 2.06c-.44-1.34-1.13-2.92-1.7-4.38l-2.14-4.92c-1-2.3-2-4.65-3.07-7.07-2.15-4.62-3.88-9.63-5.82-14.76-4-10.13-7.45-21.28-11.21-33-7.18-23.49-13.65-49.87-19.43-78.46s-10.71-59.48-14.34-92q-.68-6.09-1.34-12.26c-.39-4.11-.75-8.25-1.11-12.4-.83-8.32-1.22-16.75-1.82-25.22-.26-4.26-.35-8.53-.53-12.82s-.33-8.59-.3-12.91-.09-8.64 0-13c.24-6.85.51-13.74.77-20.63l-6.67 6.17c-2.09 1.94-4.51 4.24-6.89 6.5a204 204 0 00-20 24.42 230.9 230.9 0 00-15.57 26.71 239.59 239.59 0 00-11.71 28c-1.61 4.74-3.1 9.48-4.41 14.28-.63 2.38-1.26 4.8-1.79 7.21-.3 1.22-.51 2.45-.75 3.67a13.39 13.39 0 00-.12 4.38c1.05 5.54 3.55 9.78 5.87 14.1s4.92 8.32 7.4 12.34c4.86 8 10.05 16 12.49 24.27a12.5 12.5 0 01.45 5.72 4.82 4.82 0 01-2.84 3.52 14.77 14.77 0 01-5.66 1.25 20 20 0 01-6-.38 10.48 10.48 0 01-7.69-7.16c-1.34-3.69-1.67-7.93-1.82-12.19l-.18-6.5a31.16 31.16 0 00-.9-7 7.89 7.89 0 00-2.35-3.9 6.45 6.45 0 00-4.86-1.28 18.12 18.12 0 00-7 2.29 15.74 15.74 0 00-5.15 5.34 20.33 20.33 0 00-2.3 6.65 35.52 35.52 0 00.48 13.08 50.4 50.4 0 001.61 6.09 29.36 29.36 0 002.53 6 50.07 50.07 0 007.66 9.66c2.75 2.83 5.52 5.45 7.9 8.2s4.42 5.63 4.51 8.28-1.85 5.22-4.42 7.22a12 12 0 01-8.28 2.92c-6-.51-11.42-5-15.63-9.72a64.31 64.31 0 01-5.42-7 90.72 90.72 0 01-5.16-8.61 89.5 89.5 0 01-6.77-16.43 90.9 90.9 0 01-2.2-9.33c-.36-2.26-.51-3.67-.93-3.7s-.95 1.32-1.1 3.82a34.78 34.78 0 001.36 10.33 91.5 91.5 0 006.49 17.27c1.07 2.17 2.24 4.32 3.52 6.47a44.65 44.65 0 01-6.11-.84c-6-1.19-10.59-3.57-14-7.21-3.16-3.25-5.4-8.23-6.35-14.07a35.73 35.73 0 01-.54-5.76 79.66 79.66 0 013.79-25.16c.35-1.07.71-2.17-.15-2.47s-1.29.68-1.76 1.79a76 76 0 00-5.82 25.84z"/><path class="cls-4" d="M683.53 475.46c.57 1.7 1.44 4 2.51 6.59a400.89 400.89 0 0117.77 57.63c2.47 10.94 4.65 22.47 6.26 34.58a254.6 254.6 0 012.41 37.74 162.19 162.19 0 01-5.48 39.68 93.66 93.66 0 01-19.44 36.7 88.88 88.88 0 01-35.84 24c-14 5.21-29.27 7.54-44.77 7.69s-30.92-1.67-45.05-6.5a90.38 90.38 0 01-36.67-22.81c-9.87-10.25-16.63-22.83-20.75-35.86-.5-1.61-1.13-3.22-1.58-4.86s-.74-3.31-1.1-5a82.38 82.38 0 01-1.94-9.9c-.42-3.34-.86-6.61-1.28-9.89-.15-3.31-.33-6.59-.48-9.84a231.43 231.43 0 011.9-37.69c1.46-12.14 3.52-23.68 5.93-34.62a405.09 405.09 0 0117.23-57.83c1-2.69 1.91-5 2.48-6.71a199.77 199.77 0 0026.69 5.44 298.19 298.19 0 0047.34 2.32A298 298 0 00647 484a184.25 184.25 0 0036.53-8.54z"/><ellipse cx="610.76" cy="396.98" rx="11.09" ry="6.23" fill="#a47e73"/><path class="cls-8" d="M352.74 825.72c-3.17-5.56-6.1-11.29-7.63-17.5l-.72-3.52a1.21 1.21 0 00-1.31-1.06 33.11 33.11 0 01.57-6.66c.39-1.87-2.48-2.67-2.87-.79-1.38 6.68-.57 13.52.8 20.13a27.56 27.56 0 003.12 8.76c1.56 2.53 3.94 3 6.76 2.88a1.5 1.5 0 001.28-2.24zm-27.51-50.35c-.17.28-.31.56-.48.84a13.85 13.85 0 00-3.45 3.67 32.64 32.64 0 00-2.21 4.67q-1.05 2.48-2.09 5a13.64 13.64 0 00-.86 2.75 12.27 12.27 0 00-.55 4.45 2.4 2.4 0 001.55 2.39 15.4 15.4 0 013.41 2 1.49 1.49 0 001.81-.23 1.57 1.57 0 00.23-1.81c-.11-.24-.25-.47-.38-.7a1.63 1.63 0 00.59-1.16v-4.34c.14-.79.27-1.58.46-2.36.51-2.08 1.14-4.14 1.64-6.22a1.4 1.4 0 00-.43-1.4c1.12-2 2.21-4 3.36-6a1.49 1.49 0 00-2.6-1.55zm534.57 20.85a1.39 1.39 0 00-.5-1.07v-.66c0-1.92-3-1.93-3 0 .08 3.18.2 6.37.3 9.56a1.23 1.23 0 00-.38.13A3.3 3.3 0 00855 808a1 1 0 000 .17 34 34 0 01-2.81 8.13c-1.22 2.42-2.83 4.58-4.25 6.88-1.19 1.94-2.57 4.52.63 5.15A7.31 7.31 0 00855 827c3.28-2.79 4.46-7.69 4.71-12 .95-6.14.29-12.57.09-18.78zm23.02-8.22a41.65 41.65 0 00-8.07-13.81c-1.27-1.44-3.37.68-2.11 2.11.6.68 1.15 1.39 1.7 2.11a1.49 1.49 0 00-.67 2.05c3.17 5.85 3.34 12.66 3.49 19.16a1.51 1.51 0 002.25 1.28c2.22-.94 5.4-2.34 5.22-5.19a30.26 30.26 0 00-1.81-7.71zm-75.53 10.79a8.56 8.56 0 01-12.82-1.11c-1.65-2.28-1.84-5-1.52-7.77.37-3.18 1.16-6.34 1.78-9.48.31-1.56-1.91-2.74-2.72-1.14-3.33 6.54-7.37 14.65-5.35 22.21 2.14 8 13.12 6.31 18.66 3.41a1.35 1.35 0 00.61-1.78 11.49 11.49 0 003.47-2.23c1.4-1.32-.71-3.42-2.11-2.11zm-394.89-6.62a1.51 1.51 0 00-2.88 0 10.66 10.66 0 01-14.83 6.58c-2.14-1-3.08-2.79-3.9-4.94-.69-1.77-3.57-1-2.88.8a12.91 12.91 0 003.61 5.59c-1.1.32-1.14 2.08-.21 2.74a22.09 22.09 0 0016.93 3.66c2.75-.55 5-2.23 5.47-5.11.51-3.06-.38-6.43-1.31-9.32zM708 992.55a16.21 16.21 0 01-17.75-1.1 1.53 1.53 0 00-2.1 0 1.48 1.48 0 000 2.1 18.92 18.92 0 002.88 1.83 2.76 2.76 0 00-1.85 1.12c-.07-.2-.1-.39-.18-.59a1.18 1.18 0 00-1.28-.69 10.67 10.67 0 00.15-1.17 1.5 1.5 0 00-3 0c0 6.17-8.27 7.12-12.85 7.62a67.64 67.64 0 01-46.7-12.2c-1-.72-2.68.49-2.19 1.68 3.47 8.37 12.74 12.34 20.62 15.51a61 61 0 0014.65 4.34 21.08 21.08 0 006.49-.2 1.25 1.25 0 001.12.47c5.84-.33 12.68-.76 18-3.54a10.51 10.51 0 005.48-6.92 7.27 7.27 0 004.84 2.17 37.42 37.42 0 004.85-.14 13 13 0 004.42-.83 8.41 8.41 0 003.22-3l3.2-4.38c.88-1.3-.87-2.79-2.02-2.08zm14.52-11.14a1.53 1.53 0 00-2 .53 3.91 3.91 0 01-1.56 1.08 8.48 8.48 0 01-2.69.45c-1.75 0-3.51 0-4.93-.94a1.49 1.49 0 10-1.51 2.57 6.26 6.26 0 001.34.68 1.55 1.55 0 00.23 1.76l.21.26a3.77 3.77 0 00-.18.57 5.35 5.35 0 00.61 3.34c.65 1.22 2 1.23 3.19.78 1.85-.72 3.13-2.38 4.32-3.89a43.94 43.94 0 003.54-5.15 1.52 1.52 0 00-.57-2.04zM574.8 991.3c-5 2.14-8.95 6-14 8.09a56.38 56.38 0 01-16.48 3.58c-5.72.51-11.65.89-17.31-.28-2.76-.57-5.69-1.43-7.88-3.27s-3.47-4.68-2.26-7.33c.8-1.73-1.77-3.25-2.57-1.51a8.39 8.39 0 00-.77 3.67 1.52 1.52 0 00-2 .54 10.08 10.08 0 00-.66 1.76 2.08 2.08 0 00-1.55-1.85 18.47 18.47 0 00-3.07 0 13.66 13.66 0 01-3.28-.67 10.76 10.76 0 01-5.11-3.53c-2.86-3.69-2.64-9.13 1.19-12.08a1.55 1.55 0 00.54-2 1.5 1.5 0 00-2-.54 11.58 11.58 0 00-4.53 8.08 1.23 1.23 0 00-1.59 1c-.92 4.34-1.46 9.83 1.28 13.66s7.92 3.76 12.33 3.8a7.82 7.82 0 003.3-.34 4.43 4.43 0 002.09-2.24 1.18 1.18 0 00.07-.2 9.42 9.42 0 003.11 6.83 14 14 0 006.85 2.83c3 .56 5.93 1 8.89 1.56a29.44 29.44 0 008.63.52c3-.36 5.92-1 8.86-1.6 5.47-1.05 10.73-2.19 15.69-4.84a55.62 55.62 0 0014.12-11.25 1.5 1.5 0 00-1.89-2.39zm-84.99-4.15a1.4 1.4 0 00-.47-2 17.68 17.68 0 01-3.81-2.65 6.86 6.86 0 01-1.87-4.11c-.54-3.43-.48-7.36 2.26-9.87 1.41-1.31-.7-3.41-2.11-2.11a10.79 10.79 0 00-3.29 7.28 1.46 1.46 0 00-1.76 1.39c-.35 3.08-1.48 5.93-.84 9.07.51 2.53 1.71 5.54 3.83 7.13 1.66 1.25 5.13 3 7.07 1.56 1.54-1.09 1.65-3.78.99-5.69zm196.32-213.46c-58.25 27.53-117.31 22.37-165 3.25-1.29-.52-2.15 1.42-1 2.16 35.12 22 100.33 49 167.08-3.34 1.14-.84.15-2.65-1.08-2.07z"/><path d="M466.91 295.92c-4.89 1.25-10.08.53-15-.13a47.19 47.19 0 01-14.45-3.89 41.24 41.24 0 01-17.86-17.67c-1.84-3.37-7-.36-5.15 3A49.85 49.85 0 00425 290.61a2.59 2.59 0 00-.17 4.15 186.59 186.59 0 0016.59 12.78c2.84 1.95 5.74 4.13 9 5.39a11.23 11.23 0 004.37.73c1.74 0 3.64.42 5.25-.45 1.4-.76 2.22-2.26 3.06-3.54s1.92-2.7 2.69-4.11a4.41 4.41 0 00.46-3.42 22.68 22.68 0 002.29-.47c3.67-.94 2.09-6.67-1.63-5.75z" fill-rule="evenodd" fill="#b07b6b"/><path class="cls-8" d="M790.74 255.85c.56-3.75-5.18-5.37-5.75-1.58a70.08 70.08 0 01-15.18 34.56c-4.09 4.92-8.73 9.07-14.72 11.53a56.26 56.26 0 01-18.55 3.64c-3.72.18-3.81 5.79-.27 5.92a2.73 2.73 0 00-.24 1.14c0 1.45 1.38 3.19 3 3a29.9 29.9 0 003.63-.73 3.53 3.53 0 002.28.33c5.29-.93 10.47-2.18 15.11-5 4.26-2.57 8.75-5.58 12.1-9.28a3 3 0 00-.1-4.17c.48-.52 1-1 1.45-1.54a75.54 75.54 0 0017.24-37.82zm41.46 582.73a26.3 26.3 0 01-11.8-.62 12.79 12.79 0 01-5.77-3c-2.91-3.3 2.48-7.71 4.73-9.64a52.77 52.77 0 009.76-10.91c5.57-8.47 7.85-18.94 5.21-28.83a2.83 2.83 0 00-4.19-1.72 6 6 0 01-.21 5.12 5.64 5.64 0 01-.71 2.35c.95 9.36-3.05 18.53-9.48 25.42-3.35 3.59-8 6.34-10.41 10.74a11.43 11.43 0 00-1.35 5.76 3.41 3.41 0 00.09 2.69c1.84 4.14 6.21 6.43 10.35 7.67a31.7 31.7 0 0011.58 1.11 9.05 9.05 0 015.26-5.13 3.22 3.22 0 00-3.06-1.01zm-446.94-18.2a3.07 3.07 0 00-3.7-1.09c-.93-1.22-1.87-2.43-2.71-3.67-3.05-4.5-5.6-9.7-5.8-15.18-3.55-.5-4.93-4-4.16-6.91a2.32 2.32 0 00-1.43 1.93 28.72 28.72 0 002.4 16.36c2.22 5 5.63 9.07 8.78 13.48 1.94 2.7 5.36 8.7 1.36 11.35-2 1.37-5.49 1-7.82 1.1a23.36 23.36 0 01-8.55-1.13 2.52 2.52 0 00-2.45.45 4.89 4.89 0 011.37 1.53 11.89 11.89 0 00.74 1.11 22.3 22.3 0 002.94 2.89 27.29 27.29 0 004.81 2.82 16.93 16.93 0 003.51 1 6.1 6.1 0 012.8 1.11 16.7 16.7 0 008.07-2.93c3.49-2.44 6.51-6.41 6.35-10.86-.15-4.91-3.77-9.54-6.51-13.36z"/><path class="cls-5" d="M877 800c-.16-4.28-.4-8.52-.85-12.78 0-.2 0-.4-.09-.6q-.14-.9-.3-1.8c-.19-1-.42-2.07-.67-3.1s-.55-2-.88-3l-.45-1.28c-.1-.25-.19-.5-.29-.74v-.05a7.82 7.82 0 01-.46-1.42 2.4 2.4 0 00-1.38 2.52c.87 9.9 1.83 20.15-1 29.83a30.09 30.09 0 01-6.32 11.73 61 61 0 01-10.65 8.69 3 3 0 00-1.29 2.6 4.07 4.07 0 012.09-.47 5 5 0 001 0 22.32 22.32 0 004.47-1.33 5.24 5.24 0 011.34-.52c.82-.38 1.66-.73 2.5-1.07l.84-.33c.9-.83 1.83-1.62 2.79-2.38.34-.34.7-.67 1-1s.77-.95 1.15-1.43a6.14 6.14 0 011.5-2 38 38 0 004.66-9.29 45.32 45.32 0 002-8.22A5.89 5.89 0 01877 800z"/><path class="cls-10" d="M599.67 482.73a328.86 328.86 0 01-46.48-4.29c-16.54-2.87-34.21-7.53-50.78-16.42a95.86 95.86 0 01-23-16.93 82.88 82.88 0 01-16.7-24.36 103.51 103.51 0 01-7.71-29.92 146.53 146.53 0 01.3-32.34 174.66 174.66 0 0119-60.86 177 177 0 0135.85-47.22c13.85-12.88 29.14-22.75 44.6-29a126.15 126.15 0 0144.93-9.65v-3.6a125 125 0 00-47 8c-16.34 6-32.62 15.85-47.37 29a181.1 181.1 0 00-58.45 112.36 152 152 0 00-.21 34.24 109.51 109.51 0 008.71 32.34A89.53 89.53 0 00474 450.55a101.32 101.32 0 0025.08 17.79c17.81 9.05 36.22 13.3 53.25 15.65a296.81 296.81 0 0047.33 2.33z"/><path class="cls-10" d="M599.67 211.71a126.26 126.26 0 0144.94 9.65c15.45 6.28 30.74 16.15 44.6 29a177.38 177.38 0 0135.85 47.22 175.08 175.08 0 0119 60.86 147.13 147.13 0 01.29 32.34 103.19 103.19 0 01-7.78 29.92 82.88 82.88 0 01-16.7 24.36 95.67 95.67 0 01-23 16.93c-16.57 8.89-34.23 13.55-50.78 16.42a328.86 328.86 0 01-46.48 4.29v3.59A296.93 296.93 0 00647 484c17-2.35 35.44-6.6 53.25-15.64a101.57 101.57 0 0025.07-17.8A89.56 89.56 0 00744 424.08a109.8 109.8 0 008.7-32.34 151.46 151.46 0 00-.21-34.24A181.1 181.1 0 00694 245.11c-14.75-13.13-31-23-47.37-29a124.93 124.93 0 00-47-8zm-64.93 92.74a33.49 33.49 0 018.68 1.6 29.93 29.93 0 018.38 4.57 28.77 28.77 0 0110.71 17.62c1.36 7.28-.25 15.59-5.57 21.58s-13.72 9.37-22.35 9.32-17.19-3.25-22.72-9a20.06 20.06 0 01-5.22-10.14c-.72-3.66-.06-7.49.79-11.23 1.72-7.37 5.29-13.9 10.36-18.14a27.4 27.4 0 0116.94-6.22v-1.8a28.86 28.86 0 00-18.7 5.83C510.2 313 506 320.05 504 327.94a43.9 43.9 0 00-1.22 6.1 23.2 23.2 0 00.1 6.65 23.64 23.64 0 006.05 12.21c6.44 6.84 16 10.36 25.66 10.47s19.41-3.7 25.44-10.9a27.94 27.94 0 006-12.11 31.42 31.42 0 00-21.88-36.54 34.2 34.2 0 00-9.38-1.17z"/><path class="cls-10" d="M545.2 334.4a12.92 12.92 0 01-7.37-23.54 21.17 21.17 0 00-3.21-.26 21.81 21.81 0 1021.81 21.81 22.43 22.43 0 00-.37-4 12.91 12.91 0 01-10.86 5.99zm120.4-29.95a33.49 33.49 0 018.68 1.6 29.8 29.8 0 018.38 4.57 28.77 28.77 0 0110.71 17.62c1.36 7.28-.24 15.59-5.57 21.58s-13.72 9.37-22.35 9.32-17.19-3.25-22.71-9a19.91 19.91 0 01-5.22-10.14c-.72-3.66-.07-7.49.78-11.23 1.72-7.37 5.29-13.9 10.37-18.14s11.31-6 16.93-6.22v-1.8a28.82 28.82 0 00-18.69 5.83c-5.84 4.47-10 11.57-12.07 19.46a45.41 45.41 0 00-1.22 6.1 23 23 0 006.15 18.86c6.44 6.84 16 10.36 25.66 10.47s19.41-3.7 25.44-10.9a27.83 27.83 0 006-12.11 31 31 0 000-12.8 31.48 31.48 0 00-21.87-23.7 34.15 34.15 0 00-9.38-1.17z"/><path class="cls-10" d="M676.06 334.4a12.92 12.92 0 01-7.37-23.54 21.15 21.15 0 00-3.2-.26 21.81 21.81 0 1021.81 21.81 21.52 21.52 0 00-.38-4 12.9 12.9 0 01-10.86 5.99zm-70.82 34.67a148.22 148.22 0 0120.15 2.08 114.25 114.25 0 0121.23 5.65 84.17 84.17 0 0120.66 10.76c6.38 4.67 12.08 10.81 14.91 18.16a24.48 24.48 0 011.36 11.57c0 2-.79 4-1.17 6l-1.14 2.88-.56 1.44-.77 1.36-1.53 2.72-1.9 2.52-1 1.26-1.12 1.12-2.24 2.26a39 39 0 01-11 6.65c-8.11 3.3-17.41 3.77-26.65 2.34a55.15 55.15 0 01-7-1.36c-1.16-.28-2.35-.47-3.51-.81l-3.46-1.11a71.47 71.47 0 01-7-2.34l-3.49-1.35-4.49-1.69-.42-.11a11.49 11.49 0 00-1.75.64l-.46.23-.24.1-.44.17-1.74.69-3.44 1.43c-2.22 1.08-4.64 1.59-6.9 2.43-1.15.36-2.28.8-3.43 1.13l-3.48.78-3.45.83c-1.15.25-2.32.3-3.47.47-9.18 1.31-18.44.56-26.56-2.84a38.7 38.7 0 01-19.07-16.48 12.76 12.76 0 01-1.39-2.76c-.39-1-.85-1.87-1.2-2.83-.43-2-1.22-3.89-1.25-5.88a24 24 0 011.39-11.52c2.85-7.34 8.55-13.46 14.94-18.12a84.48 84.48 0 0120.65-10.72 114.91 114.91 0 0121.2-5.64 148 148 0 0120.13-2.07v-1.95a149 149 0 00-20.57.94 116.93 116.93 0 00-22.16 4.62 87.38 87.38 0 00-22.3 10.28c-7.13 4.75-14 11.24-17.92 20.23a30.49 30.49 0 00-2.28 14.61c0 2.55.82 4.94 1.35 7.42.39 1.2.9 2.36 1.35 3.54a18.51 18.51 0 001.61 3.43 45.79 45.79 0 0022.44 20.3 54.73 54.73 0 0031 3.49c1.3-.23 2.64-.37 3.91-.72l3.8-1.13 3.79-1.19c1.23-.49 2.42-1.06 3.62-1.6a50.71 50.71 0 007-3.6l3.33-2.13c.94-.64 2.75-1.75 2.15-1.46 0 .08 0 0-.07 0l.8.51 1.67 1 3.38 2a51.45 51.45 0 007.08 3.45l3.62 1.56c1.22.48 2.51.79 3.76 1.19a51.61 51.61 0 007.65 1.93 54.37 54.37 0 0031.08-2.89 46 46 0 0013.18-8.32l2.67-2.8 1.32-1.41 1.13-1.56 2.23-3.12 1.79-3.37.88-1.69.65-1.78 1.27-3.56c.46-2.48 1.23-4.88 1.23-7.4a31.1 31.1 0 00-2.25-14.61c-3.88-9-10.77-15.53-17.9-20.29A87.23 87.23 0 00648 372.69a116.23 116.23 0 00-22.18-4.63 149.39 149.39 0 00-20.6-.94z"/><path class="cls-10" d="M605.24 384.76a80.82 80.82 0 0117.28 2.65 34.15 34.15 0 018.66 3.64 15.38 15.38 0 013.49 2.86 8.65 8.65 0 011.79 3.6c.38 2.53-.72 5.75-2.66 8.63a33.3 33.3 0 01-7.4 7.87 33.09 33.09 0 01-42.32 0 33.51 33.51 0 01-7.4-7.87c-1.94-2.88-3-6.1-2.65-8.63a8.51 8.51 0 011.78-3.6 15.61 15.61 0 013.49-2.86 34.07 34.07 0 018.67-3.64 80.64 80.64 0 0117.27-2.65v-2.69a72.75 72.75 0 00-18.24 1.25 37.16 37.16 0 00-10.1 3.56 19.94 19.94 0 00-4.84 3.61 13.65 13.65 0 00-3.24 5.93c-.91 4.83.83 9.2 3 12.78a38.08 38.08 0 008.5 9.56 38.33 38.33 0 0049.92 0 38.08 38.08 0 008.5-9.56c2.17-3.58 3.91-7.95 3-12.78a13.65 13.65 0 00-3.24-5.93 19.89 19.89 0 00-4.83-3.61 37.28 37.28 0 00-10.1-3.56 72.83 72.83 0 00-18.29-1.25z"/><path class="cls-6" d="M607.82 424.35l-.28-.25h-4.66l-.22.22a1.12 1.12 0 00-.28.77 101.41 101.41 0 001.87 16.15 1 1 0 002 0 100 100 0 001.87-16.16 1.11 1.11 0 00-.3-.73z"/><path class="cls-10" d="M462.63 313.23a45.65 45.65 0 01-24.26-8.29c-7.44-5.49-13.43-13.89-17-23.95a76.54 76.54 0 01-3.95-16 97.64 97.64 0 01-1-17.37c.38-11.68 3.15-23.84 9.82-33.93a48.88 48.88 0 0112.07-12.81 46.53 46.53 0 0115.45-7.26 56.12 56.12 0 018.29-1.59 67.18 67.18 0 018.37-.26 55 55 0 0115.78 2.84 48.94 48.94 0 0123.35 17.64A65.49 65.49 0 01520 236.34l4.26-.69a65.63 65.63 0 00-9.13-27.15 54.46 54.46 0 00-25.92-21.92 61.48 61.48 0 00-18.33-4.05 73.2 73.2 0 00-9.71 0 62.93 62.93 0 00-9.87 1.64 55 55 0 00-18.84 8.5 57.53 57.53 0 00-14.73 15.45c-8 12.13-10.92 26.23-11.06 39.28a100.48 100.48 0 001.58 19.05 80.06 80.06 0 005.1 17.66c4.54 11.14 12.08 20.64 21.24 26.39a48.49 48.49 0 0028 7z"/><path class="cls-10" d="M472.11 293A56.79 56.79 0 01451 270.5c-2.67-5.22-4.73-11.21-4.5-17.43a29.18 29.18 0 016.35-17.88 29.78 29.78 0 0116.21-9.92 40.67 40.67 0 019.23-1.13 18.54 18.54 0 018.26 1.89c5.06 2.5 8.86 6.8 11.65 11.15a59.56 59.56 0 016.12 13.15l1.73-.49a55.48 55.48 0 00-5.45-14.1c-2.72-4.74-6.6-9.74-12.45-12.89a21.87 21.87 0 00-9.81-2.56 42.13 42.13 0 00-10.23 1 36.77 36.77 0 00-10 3.91 31.59 31.59 0 00-15.68 27.8c-.11 7.22 2.38 13.74 5.41 19.22a55.07 55.07 0 0023.44 22.41zm265.97 24.55a48.52 48.52 0 0028-7c9.15-5.75 16.7-15.25 21.24-26.39a80 80 0 005.09-17.66 99.66 99.66 0 001.59-19.08c-.14-13-3.07-27.15-11.06-39.28a57.49 57.49 0 00-14.72-15.45 55 55 0 00-18.85-8.5 62.62 62.62 0 00-9.86-1.64 73.35 73.35 0 00-9.72 0 61.48 61.48 0 00-18.33 4.05 54.51 54.51 0 00-25.92 21.92 65.63 65.63 0 00-9.13 27.15l4.27.69a65.47 65.47 0 0110.46-24.1 48.94 48.94 0 0123.35-17.64 55 55 0 0115.79-2.84 67 67 0 018.36.26 56.25 56.25 0 018.3 1.59 46.53 46.53 0 0115.45 7.26 48.84 48.84 0 0112.06 12.81c6.67 10.09 9.45 22.25 9.82 33.93a96.72 96.72 0 01-1 17.37 75.32 75.32 0 01-4 16c-3.6 10.06-9.58 18.46-17 23.95a45.62 45.62 0 01-24.26 8.29z"/><path class="cls-10" d="M729.43 294.61a55.07 55.07 0 0023.44-22.41c3-5.48 5.53-12 5.41-19.22a32.6 32.6 0 00-7.13-20.46 32.23 32.23 0 00-8.51-7.28 37 37 0 00-10-3.91 42.23 42.23 0 00-10.23-1 21.8 21.8 0 00-9.81 2.56c-5.85 3.15-9.74 8.11-12.45 12.89a55.86 55.86 0 00-5.45 14.1l1.73.49a59.62 59.62 0 016.13-13.15c2.78-4.35 6.59-8.65 11.65-11.15a18.5 18.5 0 018.25-1.89 40.6 40.6 0 019.23 1.13 29.81 29.81 0 0116.22 9.92 29.24 29.24 0 016.35 17.88c.22 6.22-1.84 12.21-4.5 17.43A56.85 56.85 0 01728.61 293z"/><path class="cls-6" d="M501.85 467l-1.49-4.75c-.68-2-2.51-1.43-4.47-.8l-4.3 1.47a142.35 142.35 0 00-45 26.95 193.14 193.14 0 00-28.75 31.44A297.83 297.83 0 00391.5 565c-14.34 28.23-27 63.21-41.08 113.38l-4.56 15.59-.44 1.38a118.49 118.49 0 01-4.85 13.57 93.81 93.81 0 01-7.28 11.6l-4.29 6.1c-2.25 3.17-4.51 6.37-6.73 9.63-6.35 9.43-12.84 19.6-16.38 31.19a44 44 0 00-1.72 9.09 29.31 29.31 0 00.61 9.54c1.52 7.42 6.29 12.82 10.08 16.08.61.5 5.86 4.74 8.41 4.74a2.13 2.13 0 00.37 0l.91-.2.47-.75c1.11-1.76-.4-3-2.17-4.39-1-.82-2.5-2-4.28-3.58-2.93-2.77-6.62-7.29-7.57-13.14a23.56 23.56 0 01-.18-7.63 37.89 37.89 0 011.75-7.64c3.57-10.38 10-19.84 16.32-28.62L340.61 725a94 94 0 008-12.26 118.22 118.22 0 005.48-14.22l.62-1.83c1.7-5.26 3.31-10.49 4.89-15.68 10.75-36.07 24.07-77.5 41.29-111.39a296.07 296.07 0 0125.35-42.2 185.75 185.75 0 0127-30 134.5 134.5 0 0141.65-25.59l4.06-1.57c1.84-.69 3.54-1.37 2.9-3.26z"/><path class="cls-6" d="M355.61 826.86H355a46.32 46.32 0 01-8.62-.93c-6-1.2-10.57-3.57-14-7.23-4.18-4.3-6.69-11.51-6.89-19.81a79.5 79.5 0 013.79-25.16c.35-1.07.71-2.17-.15-2.49s-1.28.71-1.74 1.81a76.14 76.14 0 00-5.78 25.85c-.32 9.32 2.25 17.76 7.06 23.14a28.33 28.33 0 008.43 6.46 35.19 35.19 0 008.13 2.84 47.62 47.62 0 009.64 1.22H356c1 0 1.13-.16 1.26-.29l.23-.23v-4.28c0-.84-1.04-.88-1.88-.9z"/><path class="cls-10" d="M342.42 789.1c-.34-.05-.94 1.33-1.1 3.83a35 35 0 001.2 10 89.25 89.25 0 006.48 17.35 80.17 80.17 0 0010.76 16.66 43.2 43.2 0 007.79 7.25 21.91 21.91 0 0010.68 4.21 16.65 16.65 0 0011.49-3.78 18.75 18.75 0 004.27-4.46 11.05 11.05 0 002-6.56 13.76 13.76 0 00-2-6.39 32.67 32.67 0 00-3.61-4.92c-2.61-3-5.4-5.65-8-8.41a46.76 46.76 0 01-6.92-8.72 39.66 39.66 0 01-3.58-10.59 31.51 31.51 0 01-.46-11.26 16.46 16.46 0 011.73-5 11.07 11.07 0 013.46-3.61 13.34 13.34 0 015-1.61c.71 0 1 0 1.17.16a3.85 3.85 0 01.8 1.55c.88 3.39.71 7.92.91 12.25s.45 9.05 2.14 13.71a16.73 16.73 0 004.14 6.46 14.88 14.88 0 006.95 3.66 24.41 24.41 0 007.43.5 19.26 19.26 0 007.5-1.78 9.62 9.62 0 005.34-6.78 17.3 17.3 0 00-.52-7.92c-2.9-9.52-8.19-17.37-13.07-25.51-2.48-4-5-8.07-7.31-12.18s-4.57-8.4-5.28-12.47a6.84 6.84 0 01-.09-1.39 7.14 7.14 0 01.18-1.46c.24-1.16.43-2.32.73-3.49.51-2.33 1.12-4.67 1.76-7 1.28-4.67 2.76-9.32 4.38-14a223.56 223.56 0 0111.66-27.29 217.75 217.75 0 0115.49-25.86 186.28 186.28 0 0119.7-23.25l2.39-2.17c.1-.12 0-.06 0-.1v.07l-.21 5.73c-.11 4.42 0 8.81 0 13.18s.15 8.73.33 13.06.28 8.64.56 12.92c.62 8.56 1 17.06 1.91 25.42q.58 6.29 1.17 12.49t1.44 12.4c3.83 32.68 9.05 63.65 15.12 92.35A796.37 796.37 0 00488.92 905c4 11.71 7.66 22.85 11.94 33 2.06 5.11 3.92 10.1 6.2 14.73l4.81 10.27a46.47 46.47 0 00-6.9-1.61 36.74 36.74 0 00-9.32-.24 27.41 27.41 0 00-14.49 5.85 21.1 21.1 0 00-7.16 10.62 14.79 14.79 0 001.26 11.38 13.28 13.28 0 009.16 6.25c2.6.45 4.12-.07 4.2-.63s-1.19-1.38-3.11-2.51a15.27 15.27 0 01-6.09-5.48c-2.42-4.28-1-11 4.77-16a24.07 24.07 0 0112-5.4 35 35 0 018.34-.28c.75.07 1.51.2 2.28.29l.59.07c.12.07.61-.11.83 0l1.69.4a69.47 69.47 0 017 2.06c-.47-1.35-1.14-2.91-1.72-4.4s-1.42-3.25-2.14-4.9q-1.5-3.46-3.07-7.07c-2.14-4.62-3.87-9.63-5.81-14.74-4-10.16-7.46-21.3-11.22-33-7.18-23.49-13.65-49.88-19.43-78.48s-10.7-59.44-14.34-91.94q-.68-6.1-1.34-12.26t-1.11-12.42c-.84-8.31-1.22-16.73-1.81-25.22-.27-4.25-.34-8.52-.53-12.8s-.34-8.59-.3-12.9-.1-8.66 0-13q.38-10.28.77-20.62l-6.67 6.15c-2.07 2-4.48 4.25-6.9 6.53a202.19 202.19 0 00-20 24.4 230.22 230.22 0 00-15.56 26.71 235.71 235.71 0 00-11.7 28c-1.63 4.74-3.12 9.49-4.41 14.29-.65 2.39-1.27 4.8-1.8 7.22-.3 1.2-.5 2.45-.75 3.67a11.91 11.91 0 00-.25 2.16 11.52 11.52 0 00.14 2.23c1 5.52 3.54 9.77 5.85 14.08s4.94 8.31 7.41 12.34c4.85 8 10.06 16 12.5 24.27a12.9 12.9 0 01.45 5.71 4.82 4.82 0 01-2.85 3.52 14.72 14.72 0 01-5.65 1.27 20 20 0 01-6-.4 10.45 10.45 0 01-7.71-7.16c-1.34-3.68-1.66-7.93-1.8-12.18q-.11-3.27-.19-6.51a30.58 30.58 0 00-.9-7 8.1 8.1 0 00-2.36-3.91 6.48 6.48 0 00-4.84-1.27 18.18 18.18 0 00-7 2.29 16 16 0 00-5.15 5.33 21.16 21.16 0 00-2.32 6.66 36.11 36.11 0 00.48 13.07 53 53 0 001.62 6.1 28.85 28.85 0 002.52 6 50.34 50.34 0 007.67 9.66c2.73 2.85 5.51 5.47 7.9 8.2s4.41 5.64 4.51 8.3-1.85 5.23-4.4 7.22a12.15 12.15 0 01-8.31 2.92c-6-.5-11.41-5-15.61-9.71a78.93 78.93 0 01-10.59-15.6 91.58 91.58 0 01-6.78-16.43 88.45 88.45 0 01-2.18-9.32c-.24-2.29-.4-3.67-.82-3.73z"/><path class="cls-6" d="M895.86 776.55a44.1 44.1 0 00-1.76-9.16c-3.53-11.51-9.77-21.29-16.4-31.13-2.16-3.18-4.37-6.3-6.57-9.39l-4.44-6.32a94.2 94.2 0 01-7.33-11.68 124.68 124.68 0 01-4.92-13.54l-5.18-17.07c-14.46-49.89-27.47-84.79-42.16-113.13a301 301 0 00-26.74-43.49 195.31 195.31 0 00-28.91-31.29 144 144 0 00-45.07-26.92l-4.29-1.43c-2-.64-2.51-.82-3.33-.39l-.76.39-1.77 5.58c-.57 1.82 1 2.45 2.84 3.19l4 1.55A136.19 136.19 0 01745 497.81a188.11 188.11 0 0127.3 29.89 299.18 299.18 0 0125.79 42.08c17.76 34.15 31.41 75.35 42.43 111.15 1.62 5.18 3.27 10.4 5 15.66l.61 1.8a126.14 126.14 0 005.55 14.23 93.33 93.33 0 008 12.24l11.71 15.83c6.59 9.22 12.81 18.35 16.37 28.69a39.31 39.31 0 011.79 7.79 23.83 23.83 0 01-.2 7.7c-1 5.83-4.66 10.38-7.58 13.12a84.765 84.765 0 01-4.41 3.69c-1.69 1.34-3.16 2.49-2.18 4l.46.87.93.19a2 2 0 00.36 0c2.48 0 7.73-4.25 8.38-4.79 3.72-3.21 8.47-8.59 10-15.94a29.39 29.39 0 00.55-9.46z"/><path class="cls-6" d="M872.8 773c-.44-1-.88-2.1-1.74-1.8s-.49 1.42-.15 2.48a79.64 79.64 0 013.8 25.18c-.21 8.29-2.72 15.5-6.9 19.8-3.47 3.66-8.06 6-14 7.23a46.33 46.33 0 01-8.63.93h-.6c-.84 0-1.89.06-1.89.92v4.3l.23.21c.13.13.3.29 1.26.29h1.14a47.69 47.69 0 009.62-1.21 35.64 35.64 0 008.18-2.86 28.09 28.09 0 008.39-6.44c4.82-5.38 7.4-13.82 7.08-23.15A76.22 76.22 0 00872.8 773z"/><path class="cls-10" d="M857.73 789.1c-.42.06-.55 1.44-.93 3.73a86.43 86.43 0 01-2.19 9.32 91.52 91.52 0 01-6.77 16.43 79.36 79.36 0 01-10.59 15.6c-4.2 4.68-9.61 9.21-15.62 9.71a12.12 12.12 0 01-8.3-2.92c-2.56-2-4.58-4.64-4.4-7.22s2.13-5.62 4.5-8.3 5.18-5.35 7.91-8.2a50.31 50.31 0 007.66-9.66 28.31 28.31 0 002.52-6 49.25 49.25 0 001.62-6.1 35.88 35.88 0 00.49-13.07 21.42 21.42 0 00-2.32-6.66 16 16 0 00-5.15-5.33 18.23 18.23 0 00-7-2.29 6.5 6.5 0 00-4.85 1.27 8.18 8.18 0 00-2.36 3.91 31.11 31.11 0 00-.89 7q-.11 3.24-.19 6.51c-.14 4.25-.46 8.5-1.81 12.18a10.45 10.45 0 01-7.7 7.16 20 20 0 01-6 .4 14.81 14.81 0 01-5.66-1.27 4.81 4.81 0 01-2.84-3.52 12.61 12.61 0 01.45-5.71c2.44-8.24 7.64-16.23 12.49-24.27 2.48-4 5-8.09 7.42-12.34s4.81-8.56 5.84-14.08a11.5 11.5 0 00.15-2.23A12.87 12.87 0 00813 741c-.25-1.22-.46-2.47-.75-3.67-.54-2.42-1.15-4.83-1.8-7.22-1.29-4.8-2.79-9.55-4.41-14.29a235.71 235.71 0 00-11.7-28 231.66 231.66 0 00-15.56-26.71 201.33 201.33 0 00-20-24.4l-6.9-6.53-6.66-6.15q.38 10.33.77 20.62c.12 4.33 0 8.68 0 13s-.13 8.62-.3 12.9-.25 8.55-.53 12.8c-.59 8.49-1 16.91-1.81 25.22q-.55 6.24-1.1 12.42t-1.34 12.26c-3.64 32.5-8.6 63.34-14.35 91.94s-12.25 55-19.42 78.48c-3.76 11.69-7.2 22.83-11.22 33-1.94 5.11-3.67 10.12-5.82 14.74q-1.56 3.6-3.07 7.07l-2.13 4.9c-.58 1.49-1.26 3.05-1.72 4.4a69.31 69.31 0 017-2.06l1.7-.4c.22-.15.7 0 .83 0l.58-.07c.78-.09 1.54-.22 2.29-.29a34.89 34.89 0 018.33.28 24 24 0 0112 5.4c5.8 5 7.19 11.7 4.77 16a15.25 15.25 0 01-6.08 5.48c-1.93 1.13-3.24 1.81-3.12 2.51s1.6 1.08 4.21.63a13.28 13.28 0 009.21-6.26 14.83 14.83 0 001.27-11.36A21 21 0 00719 967a27.35 27.35 0 00-14.49-5.83 36.75 36.75 0 00-9.32.24 46.8 46.8 0 00-6.9 1.61l4.82-10.29c2.28-4.63 4.13-9.62 6.2-14.73 4.27-10.16 8-21.3 11.94-33a796.37 796.37 0 0020.59-78.67c6.07-28.7 11.29-59.67 15.12-92.35l1.41-12.33q.71-6.21 1.16-12.49c.88-8.36 1.29-16.86 1.91-25.42.29-4.28.37-8.59.57-12.92s.36-8.68.33-13.06.11-8.76 0-13.18l-.21-5.73v-.07c0 .01-.07 0 0 .1l2.39 2.17a186.2 186.2 0 0119.77 23.23 217.83 217.83 0 0115.5 25.86 223.56 223.56 0 0111.66 27.29c1.61 4.63 3.1 9.28 4.38 14 .64 2.33 1.24 4.67 1.76 7 .29 1.17.48 2.33.72 3.49a6.49 6.49 0 01.18 1.46 6.19 6.19 0 01-.09 1.39c-.7 4.07-3 8.4-5.27 12.47s-4.83 8.14-7.31 12.18c-4.89 8.14-10.18 16-13.07 25.51a17 17 0 00-.52 7.92 9.6 9.6 0 005.34 6.78 19.22 19.22 0 007.49 1.78 24.37 24.37 0 007.43-.5 14.87 14.87 0 007-3.66 16.85 16.85 0 004.14-6.46c1.68-4.66 2-9.3 2.14-13.71s0-8.86.91-12.25a3.73 3.73 0 01.8-1.55c.19-.14.46-.2 1.17-.16a13.23 13.23 0 015 1.61 11.1 11.1 0 013.47 3.61 16.72 16.72 0 011.72 5 31.06 31.06 0 01-.46 11.26c-.83 3.69-1.87 7.62-3.57 10.59a46.82 46.82 0 01-6.93 8.72c-2.62 2.76-5.42 5.42-8 8.41a32 32 0 00-3.62 4.92 13.86 13.86 0 00-2 6.39 11 11 0 002 6.56 19 19 0 004.27 4.46 16.68 16.68 0 0011.49 3.78 22 22 0 0010.69-4.21 43.13 43.13 0 007.78-7.25 79.82 79.82 0 0010.77-16.66 89.91 89.91 0 006.38-17.31 34.59 34.59 0 001.19-10c-.15-2.57-.76-3.95-1.1-3.9zM524.51 974.16c.1-.26-.29-.64-1-.95a30.29 30.29 0 00-15.89-3 22.44 22.44 0 00-10 3.43 22.77 22.77 0 00-7.87 8.66 19.53 19.53 0 00-2.04 11.7 12.55 12.55 0 006.08 9.29 15 15 0 009.31 1.37 24.52 24.52 0 007-2.24c.67-.3 1-.69.95-1s-.65-.32-1.34-.17a31.41 31.41 0 01-6.81.92 13.4 13.4 0 01-7.35-1.84 9.32 9.32 0 01-3.87-6.92 16.75 16.75 0 011.86-9.2 20.34 20.34 0 0114.61-10.64 37.14 37.14 0 0115 .77c.71.15 1.26.08 1.36-.18z"/><path class="cls-10" d="M578 803.31c-.24-.31-2.13 1-3.75 3.63-4.6 7.66-7.77 17.3-10.61 28a250.07 250.07 0 00-6.41 35.77 217 217 0 00-.66 41.63 125.67 125.67 0 003.9 22.28 69.52 69.52 0 009.93 21.75c4.32 6 7.42 12.57 8 19.32a26.46 26.46 0 01-5.77 18.5 40.57 40.57 0 01-15.52 11.8 54.09 54.09 0 01-18.4 4.5 51.7 51.7 0 01-17.7-2c-2.82-.79-5.3-1.74-7-3.36a6.55 6.55 0 01-2.24-5.93 14.25 14.25 0 012.89-6.47 25.25 25.25 0 015.11-5.06 22.35 22.35 0 0112.17-4.67c2.84-.13 4.78.49 5 0s-1.71-1.71-4.94-1.83a24 24 0 00-13.82 4.2 27 27 0 00-6 5.33 17.38 17.38 0 00-4 7.93 10.46 10.46 0 003 9.41c2.43 2.45 5.63 3.71 8.52 4.67a55.35 55.35 0 0019.28 2.83 58.3 58.3 0 0020.42-4.44 45.52 45.52 0 0018-13.25 32.35 32.35 0 007.28-22.66c-.6-8.33-4.33-16-9.07-22.6a64.83 64.83 0 01-9-19.72 123.88 123.88 0 01-3.93-21.17 229.82 229.82 0 01-.25-40.58 285.38 285.38 0 014.9-35.4c2.25-10.67 4.8-20.34 8.59-28 1.24-2.49 2.41-4.07 2.08-4.41zm98.23 170.85c.1.26.65.33 1.34.18a37.2 37.2 0 0115-.77 20.34 20.34 0 0114.61 10.64 16.65 16.65 0 011.85 9.2 9.26 9.26 0 01-3.87 6.92 13.35 13.35 0 01-7.34 1.84 31.32 31.32 0 01-6.81-.92c-.7-.15-1.25-.08-1.35.17s.29.65 1 1a24.31 24.31 0 007 2.24 15 15 0 009.3-1.37A12.53 12.53 0 00713 994a19.68 19.68 0 00-2-11.7 22.79 22.79 0 00-7.88-8.66 22.36 22.36 0 00-10-3.43 30.35 30.35 0 00-15.9 3c-.7.31-1.09.69-.99.95z"/><path class="cls-10" d="M663.84 983.08c.18.45 2.12-.17 5 0a22.35 22.35 0 0112.2 4.69 24.74 24.74 0 015.11 5.06 14.17 14.17 0 012.9 6.47 6.57 6.57 0 01-2.24 5.93c-1.74 1.62-4.22 2.57-7 3.36a51.62 51.62 0 01-17.69 2 54.09 54.09 0 01-18.4-4.5 40.6 40.6 0 01-15.53-11.8 26.5 26.5 0 01-5.76-18.5c.53-6.75 3.63-13.36 7.95-19.32a69.55 69.55 0 009.94-21.75 124.73 124.73 0 003.89-22.28 216.24 216.24 0 00-.66-41.63 250.12 250.12 0 00-6.4-35.77c-2.85-10.73-6-20.37-10.61-28-1.63-2.65-3.52-3.94-3.76-3.63s.88 1.92 2.21 4.53c3.79 7.62 6.33 17.29 8.59 28a285.46 285.46 0 014.89 35.4 230.75 230.75 0 01-.24 40.58 124.86 124.86 0 01-4.02 21.08 65.07 65.07 0 01-9 19.72c-4.75 6.55-8.47 14.27-9.07 22.6a32.39 32.39 0 007.27 22.66 45.63 45.63 0 0018 13.25 58.2 58.2 0 0020.41 4.44 55.31 55.31 0 0019.28-2.83c2.89-1 6.09-2.22 8.52-4.67a10.43 10.43 0 003-9.41 17.37 17.37 0 00-4-7.93 27.28 27.28 0 00-6.06-5.33 24 24 0 00-13.82-4.2c-3.2.07-5.08 1.48-4.9 1.78zm18.89-510.87c-.39.18 1 4.16 3.3 9.83a401.52 401.52 0 0117.77 57.65c2.49 10.92 4.66 22.46 6.25 34.56a257.6 257.6 0 012.43 37.75 161.69 161.69 0 01-5.48 39.68 93.81 93.81 0 01-19.45 36.7 88.85 88.85 0 01-35.85 24c-14 5.2-29.26 7.53-44.78 7.7s-30.91-1.67-45-6.5a90.52 90.52 0 01-36.67-22.81c-9.87-10.25-16.64-22.85-20.76-35.86-.52-1.63-1.12-3.22-1.58-4.86l-1.11-5a82.77 82.77 0 01-1.93-9.9q-.64-5-1.29-9.88c-.15-3.31-.31-6.58-.47-9.83a231.92 231.92 0 011.81-37.8c1.47-12.11 3.54-23.67 5.93-34.61a405.1 405.1 0 0117.24-57.81c2.22-5.69 3.59-9.68 3.2-9.86s-2.4 3.55-4.86 9.19a372.82 372.82 0 00-19.15 57.65 355.18 355.18 0 00-6.76 34.87 228 228 0 00-2.5 38.5q.16 5 .34 10.12.58 5.09 1.19 10.25a86.78 86.78 0 001.88 10.32q.54 2.59 1.1 5.2c.46 1.72 1.07 3.41 1.6 5.12 4.17 13.7 11.24 27.22 21.76 38.3s24.11 19.52 39 24.59 31 7.09 47.1 6.92 32.13-2.61 46.91-8.19a94.3 94.3 0 0038.18-25.92 98.84 98.84 0 0020.33-39.12 164.41 164.41 0 005.13-41.15 253.5 253.5 0 00-3.13-38.44c-1.85-12.23-4.3-23.84-7.09-34.8a369.09 369.09 0 00-19.67-57.48c-2.49-5.55-4.56-9.24-4.92-9.08z"/><path class="cls-10" d="M533 785.56c-.24.34.36 1.15 1.48 2a100.75 100.75 0 0026.75 15A112.71 112.71 0 00601 810a118.66 118.66 0 0039.9-6.55 120.75 120.75 0 0027.45-13.62c1.17-.76 1.83-1.53 1.62-1.88s-1.22-.23-2.5.31a194.34 194.34 0 01-28.08 10.32 140 140 0 01-38.39 5.07 131.46 131.46 0 01-38.17-5.89 145.63 145.63 0 01-27.44-11.7c-1.19-.63-2.19-.84-2.39-.5z"/></g></svg>