<svg xmlns="http://www.w3.org/2000/svg" viewBox="0 0 737.91 596.63"><defs><style>.cls-1,.cls-2,.cls-3{fill:none;stroke-miterlimit:10}.cls-1,.cls-2{stroke:#7ac5d7}.cls-2{stroke-dasharray:12.02 12.02}.cls-3{stroke:#e21e49}.cls-4{fill:#e21e49}</style></defs><g id="Layer_2" data-name="Layer 2"><g id="export"><g id="skici-carodejka-mysak-prasatko"><ellipse class="cls-1" cx="380.09" cy="349.89" rx="271.14" ry="241.25"/><circle class="cls-1" cx="144.69" cy="149.41" r="121.92"/><circle class="cls-2" cx="167.14" cy="158.58" r="84.2" transform="rotate(-79.1 167.137 158.573)"/><circle class="cls-1" cx="298.88" cy="403.05" r="84.2"/><circle class="cls-1" cx="445.42" cy="403.05" r="84.2"/><circle class="cls-1" cx="615.49" cy="149.41" r="121.92"/><circle class="cls-2" cx="593.04" cy="158.58" r="84.2" transform="rotate(-10.9 593.08 158.597)"/><path class="cls-1" d="M298.88 318.84h146.54m-128.64 68.05c0-21.18 24.79-24.5 55.37-24.5s55.37 3.32 55.37 24.5-33.92 38.35-55.37 38.35-55.37-17.17-55.37-38.35z"/><path class="cls-3" d="M138.97 592.14H624.9"/><path class="cls-4" d="M377.44 587.65h8.98v8.98h-8.98z"/><circle class="cls-4" cx="139.49" cy="592.17" r="4.12"/><circle class="cls-4" cx="624.9" cy="592.17" r="4.12"/><path class="cls-3" d="M4.1 117.01L117.01 4.1"/><path class="cls-4" transform="rotate(-45 60.562 60.554)" d="M56.07 56.07h8.98v8.98h-8.98z"/><circle class="cls-4" cx="4.12" cy="117.03" r="4.12"/><circle class="cls-4" cx="117.03" cy="4.12" r="4.12"/></g></g></g></svg>