<svg xmlns="http://www.w3.org/2000/svg" viewBox="0 0 452.8 637.33"><defs><style>.cls-1{fill:#c38e7e}.cls-2{fill:#fad6cd}.cls-3{fill:#eabeb5}.cls-5,.cls-9{fill:#533f37}.cls-7{fill:#af7b6d}.cls-9{fill-rule:evenodd}</style></defs><g id="Layer_2" data-name="Layer 2"><g id="export"><g id="medved"><path class="cls-1" d="M367.37 49.9a73 73 0 01-.76 13.29 58.3 58.3 0 01-3 12.24 38.84 38.84 0 01-13 18.31 34.59 34.59 0 01-16.19 6.16 138 138 0 00-6.82-14.66c-.07-.14-.14-.25-.2-.39a42.86 42.86 0 0016-16.14A29.44 29.44 0 00347.46 54a24.2 24.2 0 00-11.95-21.21 27.42 27.42 0 00-7.68-3A31.78 31.78 0 00320 29a16.58 16.58 0 00-7.5 2 24.76 24.76 0 00-9.5 9.82 40.65 40.65 0 00-3.46 8.25c-.39-.38-.8-.73-1.19-1.09a121.59 121.59 0 00-9.9-7.94 49.11 49.11 0 017.71-17.19A37.29 37.29 0 01314 9.35a41.06 41.06 0 0112.08-2.16 52.74 52.74 0 016.39.18 42.39 42.39 0 016.33 1.23 35.62 35.62 0 0111.84 5.54 37.36 37.36 0 019.2 9.86c5.16 7.68 7.23 17 7.53 25.9z"/><path class="cls-2" d="M365.7 37.69A44 44 0 00359.84 24a37.36 37.36 0 00-9.21-9.81 35.62 35.62 0 00-11.84-5.59 42.39 42.39 0 00-6.33-1.23 52.74 52.74 0 00-6.39-.18A41.06 41.06 0 00314 9.35a37.52 37.52 0 00-10.9 6.14c23.83-8.75 52.06.51 62.6 22.2zm-21.34 16.38a27.34 27.34 0 01-3.44 13.34 44.06 44.06 0 01-14.35 16.1 136.15 136.15 0 00-25.81-33.27 44 44 0 014.06-8.33 23.28 23.28 0 018.91-8.52 14.12 14.12 0 016.32-1.39 30.32 30.32 0 017.07.87 22.7 22.7 0 0112.38 7.59 22.2 22.2 0 014.86 13.61z"/><path class="cls-3" d="M343.36 47.78a20.16 20.16 0 00-3.86-7.37 22.7 22.7 0 00-12.38-7.59 30.32 30.32 0 00-7.07-.87 14.12 14.12 0 00-6.32 1.44 23.28 23.28 0 00-8.91 8.52 44 44 0 00-4.06 8.33c2 1.91 4 3.92 6 6 5.5-13.81 25.34-17.8 36.6-8.46z"/><path class="cls-1" d="M164.77 39.41A121.3 121.3 0 00154 48c-.14.11-.25.23-.39.34a41.05 41.05 0 00-3.21-7.5 24.76 24.76 0 00-9.55-9.84 16.55 16.55 0 00-7.51-2 31.78 31.78 0 00-7.82.8 27.42 27.42 0 00-7.68 3 24.2 24.2 0 00-12 21.21 29.44 29.44 0 004.16 14.7 43.09 43.09 0 0015.23 15.69c-.16.27-.3.57-.46.84A133.6 133.6 0 00118 99.76a34.11 34.11 0 01-15.21-6 38.84 38.84 0 01-13-18.31 58.3 58.3 0 01-3-12.24A73 73 0 0186 49.9c.28-8.9 2.4-18.22 7.51-25.9a37.36 37.36 0 019.21-9.81 35.62 35.62 0 0111.84-5.59 42.39 42.39 0 016.33-1.23 52.74 52.74 0 016.39-.18 41.06 41.06 0 0112.08 2.16 37.29 37.29 0 0117.86 13.5 49.05 49.05 0 017.55 16.56z"/><path class="cls-2" d="M155 20a37.49 37.49 0 00-15.64-10.65 41.06 41.06 0 00-12.08-2.16 52.74 52.74 0 00-6.39.18 42.39 42.39 0 00-6.33 1.23 35.62 35.62 0 00-11.84 5.54A37.36 37.36 0 0093.51 24a46.47 46.47 0 00-7 19.28C94.56 15.35 129.06 6.2 155 20zm-2.68 29.51A136.84 136.84 0 00126 83a44 44 0 01-13.6-15.57 27.34 27.34 0 01-3.4-13.36 22.2 22.2 0 014.86-13.66 22.68 22.68 0 0112.4-7.59 30 30 0 017.04-.82 14.12 14.12 0 016.32 1.44 23.28 23.28 0 018.91 8.52 42.37 42.37 0 013.79 7.55z"/><path class="cls-3" d="M152.32 49.51a42.37 42.37 0 00-3.79-7.6 23.28 23.28 0 00-8.91-8.52A14.12 14.12 0 00133.3 32a30 30 0 00-7.05.87 22.68 22.68 0 00-12.4 7.59 19.25 19.25 0 00-2.45 3.78C124.18 37 140.55 43 145.68 56.12q3.24-3.45 6.64-6.61z"/><path d="M276.5 98.08a16.68 16.68 0 1016.67 16.67 15.75 15.75 0 00-.28-3 9.88 9.88 0 11-13.95-13.46 15.25 15.25 0 00-2.44-.21zm-21.41 22.53a20.8 20.8 0 01.61-8.6c1.3-5.63 4-10.63 7.92-13.89a20.84 20.84 0 0113-4.74 25.75 25.75 0 016.64 1.21 23.55 23.55 0 016.4 3.51 22.05 22.05 0 018.19 13.48 19.55 19.55 0 01-4.27 16.51c-4 4.65-10.48 7.16-17.1 7.11s-13.13-2.49-17.35-6.89a15.32 15.32 0 01-4.04-7.7zM176.4 98.08a16.83 16.83 0 1016.39 13.66 9.88 9.88 0 11-13.93-13.46 15.31 15.31 0 00-2.46-.2zM155.6 112c1.32-5.63 4.06-10.63 7.94-13.89a20.78 20.78 0 0113-4.74 25.45 25.45 0 016.63 1.21 23.31 23.31 0 016.41 3.51 22 22 0 018.19 13.48 19.63 19.63 0 01-4.25 16.51c-4 4.65-10.48 7.16-17.1 7.11s-13.15-2.49-17.37-6.89a15.28 15.28 0 01-4-7.7 21.13 21.13 0 01.55-8.6z" fill="#fff"/><path class="cls-5" d="M254.29 164.55c.3 1.93-.55 4.4-2 6.61a26.12 26.12 0 01-5.66 6 25.35 25.35 0 01-32.37 0 26.12 26.12 0 01-5.66-6c-1.48-2.21-2.33-4.68-2-6.61a6.12 6.12 0 011.37-2.74 11.4 11.4 0 012.67-2.21 26.49 26.49 0 016.61-2.78 62.28 62.28 0 0113.22-2 61.91 61.91 0 0113.21 2 26.63 26.63 0 016.63 2.78 11.83 11.83 0 012.67 2.21 6.23 6.23 0 011.31 2.74z"/><path class="cls-2" d="M230.41 152.73a56.26 56.26 0 00-14 1 28.09 28.09 0 00-7.7 2.74 14.86 14.86 0 00-3.7 2.76 10.24 10.24 0 00-2.48 4.54c-.71 3.69.64 7 2.28 9.75a28.93 28.93 0 006.52 7.32 30.86 30.86 0 0017 7 77.21 77.21 0 001.07 8.87 1.43 1.43 0 00-.34.14l-.37.18-.18.07-.32.14-1.35.52-2.62 1.1a52.88 52.88 0 01-5.29 1.87c-.86.27-1.73.61-2.62.86l-2.67.59-2.62.64c-.89.19-1.78.23-2.67.37a38.83 38.83 0 01-20.35-2.25 29.56 29.56 0 01-14.58-12.61 11.22 11.22 0 01-1.07-2.1c-.29-.73-.64-1.44-.91-2.16a24.93 24.93 0 01-1-4.5 18.5 18.5 0 011.07-8.82c2.17-5.61 6.55-10.29 11.43-13.84a64 64 0 0115.78-8.21 87.94 87.94 0 0116.28-4.31 112.84 112.84 0 0115.39-1.6 113.43 113.43 0 0115.42 1.6 86.88 86.88 0 0116.23 4.33 65.44 65.44 0 0115.81 8.21c4.88 3.58 9.23 8.28 11.4 13.91a19.14 19.14 0 011.05 8.85 27.51 27.51 0 01-.92 4.56l-.86 2.19-.44 1.11-.59 1-1.16 2.1-1.46 1.91-.71 1-.86.87-1.71 1.73a30.93 30.93 0 01-8.42 5.09c-6.2 2.5-13.34 2.87-20.38 1.77a40.25 40.25 0 01-5.34-1c-.89-.21-1.8-.35-2.67-.62l-2.66-.84c-1.76-.6-3.61-1-5.34-1.78l-2.67-1-2.69-1a73.41 73.41 0 001.05-8.89 31 31 0 0017-7 28.85 28.85 0 006.5-7.32c1.66-2.73 3-6.06 2.3-9.75a10.44 10.44 0 00-2.48-4.54 15.43 15.43 0 00-3.7-2.76 27.92 27.92 0 00-7.73-2.74 56.11 56.11 0 00-13.95-1.05z"/><path class="cls-3" d="M232.64 187.76h-.15a73.41 73.41 0 01-1.05 8.89l2.69 1 2.67 1c1.73.77 3.58 1.18 5.34 1.78l2.66.84c.87.27 1.78.41 2.67.62a40.25 40.25 0 005.34 1c7 1.1 14.18.73 20.38-1.77a30.93 30.93 0 008.42-5.09l1.71-1.73.86-.87.71-1 1.46-1.91 1.16-2.1.6-1 .43-1.11.74-1.87c-11.89 16.87-41.41 17.93-56.64 3.32zm-62.19-11.9a14.89 14.89 0 00.06 3.71 24.93 24.93 0 001 4.5c.27.72.62 1.43.91 2.16a11.22 11.22 0 001.07 2.1A29.56 29.56 0 00188 200.94a38.83 38.83 0 0020.31 2.19c.89-.14 1.78-.18 2.67-.37l2.62-.64 2.67-.59c.89-.25 1.76-.59 2.62-.86a52.88 52.88 0 005.29-1.87l2.62-1.1 1.35-.52.32-.14.18-.07.37-.18a1.43 1.43 0 01.34-.14c-.44-2.4-.71-4.67-.88-6.56-16.85 13.4-45.86 2.38-58.03-14.23z"/><path class="cls-1" d="M230.41 141.31a112.12 112.12 0 00-15.73.71 89.93 89.93 0 00-16.94 3.53 66.85 66.85 0 00-17.15 7.89c-5.45 3.63-10.72 8.6-13.7 15.46a23.48 23.48 0 00-1.76 11.17 28 28 0 001.05 5.68c.3.91.68 1.8 1 2.72a15.29 15.29 0 001.23 2.62 35.21 35.21 0 0017.17 15.53 41.74 41.74 0 0023.69 2.66c1-.18 2-.27 3-.54l2.92-.87 2.89-.91c.94-.39 1.85-.82 2.76-1.23a39 39 0 005.38-2.76l2.56-1.62 1.64-1.07.57.35 1.27.79 2.58 1.53a39.82 39.82 0 005.41 2.65l2.78 1.18c.93.39 1.91.62 2.87.92a37.81 37.81 0 005.86 1.48 41.5 41.5 0 0023.76-2.21 35.43 35.43 0 0010.08-6.37l2.05-2.14 1-1.07.86-1.19 1.71-2.39 1.37-2.58.66-1.3.5-1.34 1-2.74a31.15 31.15 0 00.94-5.65A24 24 0 00294 169c-3-6.91-8.26-11.88-13.71-15.53a67.78 67.78 0 00-17.14-7.89 88.91 88.91 0 00-17-3.55 112.61 112.61 0 00-15.74-.72zm106.2-6.61a112.41 112.41 0 01.22 24.72 78.85 78.85 0 01-5.95 22.89 63.28 63.28 0 01-12.77 18.63 72.67 72.67 0 01-16.92 12.59c-.22.13-.43.25-.66.36-12.65 6.8-26.17 10.38-38.83 12.56a251 251 0 01-35.55 3.29 251 251 0 01-35.55-3.29c-12.65-2.18-26.18-5.76-38.83-12.56-.64-.34-1.3-.68-1.94-1a73.62 73.62 0 01-15.64-11.9 63.28 63.28 0 01-12.77-18.63 78.85 78.85 0 01-6-22.89 111.81 111.81 0 01.23-24.72 129.88 129.88 0 017.43-30.6 138.34 138.34 0 017.11-16A135.47 135.47 0 01157.68 52a122.76 122.76 0 0111.9-9.79 106.51 106.51 0 0122.21-12.4 102.88 102.88 0 0117.58-5.43 106 106 0 0116.78-2 106 106 0 0116.78 2 102.88 102.88 0 0117.58 5.43A112.85 112.85 0 01294.63 52a135.65 135.65 0 0127.43 36.12 141.89 141.89 0 017.25 16.3 131.54 131.54 0 017.3 30.28zm-36.12-13.87a23.53 23.53 0 000-9.78 24 24 0 00-16.74-18.15 26 26 0 00-7.16-.91 22.12 22.12 0 00-14.32 4.47c-4.45 3.42-7.64 8.85-9.21 14.89a30.15 30.15 0 00-.94 4.65 17.33 17.33 0 00.07 5.08 18.21 18.21 0 004.63 9.35c4.93 5.23 12.24 7.92 19.63 8s14.85-2.83 19.45-8.33a21.22 21.22 0 004.59-9.27zm-100.08 0a24 24 0 00-16.74-27.93 26.1 26.1 0 00-7.18-.91 22 22 0 00-14.3 4.47c-4.47 3.42-7.66 8.85-9.24 14.89A37.5 37.5 0 00152 116a17.74 17.74 0 004.72 14.43c4.9 5.23 12.22 7.92 19.61 8s14.84-2.83 19.47-8.33a21.44 21.44 0 004.61-9.27z"/><path class="cls-1" d="M13.45 471.54v1.25c-.66-.52-1.44-1.19-2.31-2-2.23-2.12-5.06-5.59-5.79-10.06a17.64 17.64 0 01-.13-5.83 28.58 28.58 0 011.34-5.84c2.74-7.94 7.66-15.19 12.47-21.89l9-12.13a72.71 72.71 0 006.13-9.38 92 92 0 004.17-10.87l.48-1.42c1.3-4 2.53-8 3.74-12 8.2-27.54 18.45-59.24 31.55-85.14a223.92 223.92 0 0119.41-32.29A140 140 0 01114.19 241a102.52 102.52 0 0131.86-19.58l3.1-1.19a8.83 8.83 0 001.57-.78 107.19 107.19 0 0017.9 6.85c-.64 1.2-1.44 2.89-2.3 4.87a284.47 284.47 0 00-14.64 44.1c-2.05 8.4-3.86 17.29-5.18 26.66a176 176 0 00-1.91 29.46l.27 7.73c.3 2.6.59 5.22.91 7.85a62.57 62.57 0 001.42 7.89c.29 1.32.57 2.64.86 4s.8 2.6 1.21 3.9a70.85 70.85 0 0046.5 48.11c11.42 3.94 23.71 5.43 36 5.29a105.14 105.14 0 0035.87-6.27 71.92 71.92 0 0029.21-19.82 75.32 75.32 0 0015.55-29.91 124.82 124.82 0 003.92-31.49 192.61 192.61 0 00-2.39-29.4 267 267 0 00-5.43-26.61 278.9 278.9 0 00-15.05-44c-.86-2-1.68-3.63-2.32-4.83a98.11 98.11 0 009.6-4 9.09 9.09 0 001.46.69l3.1 1.18a104.6 104.6 0 0132 19.55 143.06 143.06 0 0120.86 22.84 226.56 226.56 0 0119.73 32.2c13.59 26.11 24 57.62 32.47 85 1.23 4 2.48 8 3.83 12l.48 1.39a96.13 96.13 0 004.24 10.88 72.79 72.79 0 006.11 9.37l9 12.11c5 7 9.78 14 12.52 21.93a30 30 0 011.37 6 18.87 18.87 0 01-.16 5.88 18.37 18.37 0 01-5.79 10.05c-.94.83-1.74 1.51-2.4 2v-1.34a58.63 58.63 0 00-4.42-19.79c-.35-.8-.69-1.6-1.35-1.37s-.36 1.07-.11 1.89a60.65 60.65 0 012.92 19.25c-.16 6.33-2.08 11.88-5.29 15.16a19.53 19.53 0 01-10.72 5.52 37.1 37.1 0 01-4.7.64c1-1.65 1.87-3.29 2.69-4.95a67.88 67.88 0 004.95-13.23 26.12 26.12 0 00.91-7.68c-.11-1.92-.57-3-.84-2.92s-.41 1.09-.71 2.83a64.08 64.08 0 01-6.86 19.7 66.45 66.45 0 01-4 6.72 46.92 46.92 0 01-4.06 5.2c-3.21 3.58-7.34 7.05-11.95 7.44a9.23 9.23 0 01-6.33-2.24c-2-1.5-3.52-3.53-3.38-5.52s1.64-4.28 3.44-6.33 4-4.11 6.05-6.28a38.86 38.86 0 005.88-7.38 22.85 22.85 0 001.92-4.56 35.83 35.83 0 001.23-4.66 27.66 27.66 0 00.38-10 16.11 16.11 0 00-1.77-5.08 12 12 0 00-3.95-4.08 13.92 13.92 0 00-5.33-1.76 5 5 0 00-3.72 1 6.47 6.47 0 00-1.8 3 23.5 23.5 0 00-.69 5.34c0 1.64-.09 3.3-.13 5a31.2 31.2 0 01-1.39 9.32 8 8 0 01-5.89 5.47 15 15 0 01-4.58.3 11.35 11.35 0 01-4.33-1 3.68 3.68 0 01-2.17-2.69 9.92 9.92 0 01.34-4.38c1.87-6.31 5.84-12.42 9.56-18.56 1.89-3.07 3.83-6.18 5.67-9.44s3.68-6.54 4.47-10.78a7.69 7.69 0 00.12-1.69 9.68 9.68 0 00-.21-1.66c-.18-.94-.34-1.87-.57-2.81-.41-1.85-.86-3.69-1.37-5.52-1-3.67-2.14-7.29-3.37-10.92a182.59 182.59 0 00-8.94-21.39 177.12 177.12 0 00-11.9-20.43 155.93 155.93 0 00-15.28-18.67c-1.85-1.74-3.69-3.49-5.29-5-2.14-2-4-3.67-5.08-4.72.18 5.27.38 10.54.59 15.78.09 3.31 0 6.64 0 9.92s-.09 6.62-.23 9.88-.21 6.54-.41 9.8c-.46 6.48-.73 12.93-1.37 19.29-.3 3.17-.57 6.34-.84 9.49s-.69 6.27-1 9.37c-2.8 24.85-6.59 48.46-11 70.35s-9.35 42-14.84 60c-2.88 8.94-5.52 17.47-8.6 25.22-1.48 3.92-2.8 7.75-4.45 11.29q-1.18 2.78-2.35 5.4c-.54 1.26-1.09 2.51-1.61 3.76s-1 2.33-1.33 3.36a49.22 49.22 0 015.36-1.58l1.3-.32c.18-.11.55 0 .64 0h.46c.59-.07 1.16-.19 1.73-.23a25.08 25.08 0 016.38.23 18.41 18.41 0 019.19 4.1c4.43 3.85 5.5 9 3.65 12.22a11.7 11.7 0 01-4.65 4.2c-.43.25-.84.48-1.16.68a15.16 15.16 0 00-1.67-8.16 17.51 17.51 0 00-6-6.64 17.32 17.32 0 00-7.66-2.62 23.5 23.5 0 00-12.15 2.3c-.5.23-.8.53-.73.73s.5.25 1 .14a28.52 28.52 0 0111.5-.59 15.53 15.53 0 0111.17 8.14 12.9 12.9 0 011.41 7 7 7 0 01-3 5.29 10 10 0 01-5.61 1.4 20.53 20.53 0 01-3.9-.42 7.86 7.86 0 00-.09-2.23 13.45 13.45 0 00-3-6.07 20.38 20.38 0 00-4.66-4A18.27 18.27 0 00279 611c-2.47.09-3.93 1.16-3.79 1.39s1.62-.14 3.81 0a17 17 0 019.33 3.58 18.48 18.48 0 013.92 3.88 11 11 0 012.21 4.94 5.07 5.07 0 01-1.71 4.54 13.4 13.4 0 01-5.4 2.58 40.23 40.23 0 01-13.53 1.5 41.58 41.58 0 01-14.08-3.41 31.14 31.14 0 01-11.86-9 20.36 20.36 0 01-4.42-14.16c.41-5.15 2.78-10.22 6.09-14.78a52.62 52.62 0 007.59-16.62 94.12 94.12 0 003-17.06 165 165 0 00-.5-31.83 192.84 192.84 0 00-4.9-27.36c-2.13-8-4.52-15.3-7.94-21.09a88.14 88.14 0 0010.88-3 92.08 92.08 0 0021-10.42c.92-.57 1.42-1.16 1.26-1.43s-.94-.19-1.92.25a149.61 149.61 0 01-21.48 7.89 112.36 112.36 0 01-12.85 2.61 103.79 103.79 0 01-16.51 1.16 99.77 99.77 0 01-29.2-4.47 110.58 110.58 0 01-21-8.94c-.93-.5-1.71-.66-1.87-.38s.28.86 1.12 1.52a76.94 76.94 0 0020.48 11.5 74.48 74.48 0 0010.12 3.14 1.08 1.08 0 00-.11.18c-3.54 5.87-6 13.23-8.12 21.44a188.68 188.68 0 00-4.9 27.36 165 165 0 00-.51 31.83 96.73 96.73 0 003 17.06 53.35 53.35 0 007.59 16.6c3.31 4.56 5.68 9.63 6.09 14.78a20.31 20.31 0 01-4.42 14.22 31.05 31.05 0 01-11.88 9 41.36 41.36 0 01-14.07 3.44 40.14 40.14 0 01-13.52-1.5 13.38 13.38 0 01-5.41-2.58 5.1 5.1 0 01-1.71-4.54 10.77 10.77 0 012.22-4.94A18.25 18.25 0 01165 616a16.88 16.88 0 019.32-3.58c2.17-.12 3.65.36 3.79 0s-1.3-1.3-3.76-1.39a18.36 18.36 0 00-10.58 3.22 20.67 20.67 0 00-4.63 4 13.36 13.36 0 00-3 6.07 7.51 7.51 0 00-.09 2.23 20.44 20.44 0 01-3.9.42 10 10 0 01-5.61-1.4 7.06 7.06 0 01-3-5.29 12.73 12.73 0 011.41-7 15.52 15.52 0 0111.18-8.14 28.51 28.51 0 0111.49.59c.52.11.93.07 1-.14s-.23-.5-.73-.73a23.56 23.56 0 00-12.16-2.3 17.32 17.32 0 00-7.66 2.62 17.59 17.59 0 00-6 6.64 15.1 15.1 0 00-1.64 8.46c-.41-.28-1-.59-1.62-1a11.38 11.38 0 01-4.65-4.2c-1.87-3.26-.8-8.37 3.65-12.22a18.26 18.26 0 019.16-4.1 25.22 25.22 0 016.39-.23c.57 0 1.16.16 1.75.23h.44c.09 0 .48-.09.64 0l1.3.32a48.43 48.43 0 015.35 1.58c-.34-1-.86-2.24-1.3-3.36l-1.64-3.76q-1.16-2.62-2.35-5.4c-1.64-3.54-3-7.37-4.44-11.29-3.08-7.75-5.7-16.28-8.58-25.22-5.49-18-10.44-38.15-14.86-60s-8.19-45.5-11-70.35c-.34-3.1-.69-6.22-1-9.37s-.57-6.32-.84-9.49c-.64-6.36-.94-12.81-1.39-19.29-.21-3.26-.28-6.52-.41-9.8s-.25-6.57-.23-9.88-.07-6.61 0-9.92c.18-5.24.39-10.51.59-15.78l-5.1 4.72c-1.6 1.49-3.45 3.24-5.27 5a155.93 155.93 0 00-15.28 18.67 177.12 177.12 0 00-11.9 20.43 182.73 182.73 0 00-9 21.39c-1.23 3.63-2.37 7.25-3.38 10.92-.48 1.83-1 3.67-1.36 5.52-.23.94-.39 1.87-.58 2.81a9 9 0 00-.18 1.66 8.42 8.42 0 00.09 1.69c.8 4.24 2.72 7.48 4.5 10.78s3.76 6.37 5.65 9.44c3.72 6.14 7.69 12.25 9.56 18.56a9.64 9.64 0 01.34 4.38 3.68 3.68 0 01-2.17 2.69 11.35 11.35 0 01-4.33 1 15 15 0 01-4.58-.3 8 8 0 01-5.89-5.47 31.2 31.2 0 01-1.39-9.32c0-1.67-.09-3.33-.14-5a24 24 0 00-.68-5.34 6.15 6.15 0 00-1.8-3 5 5 0 00-3.72-1 13.92 13.92 0 00-5.33 1.76 11.94 11.94 0 00-3.95 4.08 15.58 15.58 0 00-1.66 5.18 27 27 0 00.36 10 39.34 39.34 0 001.23 4.66 23 23 0 001.94 4.56 37.64 37.64 0 005.86 7.38c2.1 2.17 4.22 4.18 6 6.28s3.38 4.3 3.45 6.33-1.42 4-3.38 5.52A9.24 9.24 0 0157 506c-4.58-.39-8.73-3.86-12-7.44a50.18 50.18 0 01-4.15-5.33 69.89 69.89 0 01-3.85-6.62A68.11 68.11 0 0131.78 474a69.23 69.23 0 01-1.68-7.13c-.28-1.74-.39-2.81-.71-2.83s-.73 1-.85 2.92a26.53 26.53 0 00.92 7.68 69.2 69.2 0 004.95 13.23c.82 1.66 1.71 3.3 2.69 4.95a37.33 37.33 0 01-4.68-.64 19.52 19.52 0 01-10.74-5.52 20.08 20.08 0 01-4.86-10.76 28.55 28.55 0 01-.41-4.4 61.16 61.16 0 012.9-19.25c.27-.82.55-1.66-.11-1.89s-1 .52-1.35 1.37a58.09 58.09 0 00-4.4 19.81z"/><path class="cls-2" d="M290.29 224.17c.44 1.3 1.1 3 1.92 5a307.31 307.31 0 0113.59 44.08c1.89 8.37 3.56 17.19 4.79 26.45a196.5 196.5 0 011.85 28.89 123.57 123.57 0 01-4.18 30.41 71.6 71.6 0 01-14.86 28 68.08 68.08 0 01-27.4 18.41 100.79 100.79 0 01-34.25 5.88c-11.88.14-23.65-1.28-34.46-5a66.72 66.72 0 01-43.91-44.87c-.39-1.24-.87-2.47-1.21-3.72s-.57-2.53-.85-3.79a64.83 64.83 0 01-1.48-7.57c-.32-2.55-.66-5.06-1-7.57-.11-2.53-.25-5-.36-7.52a175.38 175.38 0 011.39-28.89c1.11-9.28 2.69-18.11 4.53-26.48a310 310 0 0113.18-44.23c.8-2.06 1.46-3.83 1.9-5.13a152.64 152.64 0 0020.45 4.15 227.74 227.74 0 0036.21 1.77 227.52 227.52 0 0036.21-1.77 140.72 140.72 0 0027.94-6.5z"/><ellipse cx="234.63" cy="164.15" rx="8.48" ry="4.76" fill="#a47e74"/><path class="cls-7" d="M37.28 492.07a53 53 0 01-5.84-13.37c-.18-.9-.37-1.8-.55-2.7a.93.93 0 00-1-.81 25 25 0 01.44-5.1c.3-1.43-1.9-2-2.2-.6-1.05 5.11-.43 10.34.62 15.4a20.82 20.82 0 002.38 6.69c1.19 1.94 3 2.33 5.17 2.21a1.15 1.15 0 00.98-1.72zm-21.05-38.51c-.12.22-.23.44-.36.65a10.51 10.51 0 00-2.64 2.79 23.35 23.35 0 00-1.7 3.57c-.53 1.26-1.07 2.52-1.59 3.78a9.89 9.89 0 00-.66 2.11 9.22 9.22 0 00-.42 3.4 1.85 1.85 0 001.14 1.86 11.48 11.48 0 012.61 1.5A1.14 1.14 0 0014 473a1.2 1.2 0 00.18-1.38 4.63 4.63 0 00-.29-.54 1.23 1.23 0 00.45-.89v-3.32c.1-.6.21-1.21.35-1.8.39-1.6.87-3.17 1.25-4.76a1.08 1.08 0 00-.32-1.07c.85-1.52 1.68-3.06 2.56-4.56a1.14 1.14 0 00-1.95-1.12zm408.89 15.96a1.13 1.13 0 00-.39-.83v-.5a1.14 1.14 0 00-2.28 0c.06 2.43.15 4.87.23 7.32a.75.75 0 00-.29.09 2.52 2.52 0 00-.93 2.89v.12a25.75 25.75 0 01-2.15 6.22c-.93 1.85-2.16 3.51-3.24 5.27-.92 1.48-2 3.45.47 3.93a5.58 5.58 0 004.86-1c2.51-2.13 3.41-5.88 3.6-9.17.77-4.68.27-9.59.12-14.34zm17.6-6.29a31.83 31.83 0 00-6.17-10.56c-1-1.1-2.58.52-1.62 1.62.46.52.88 1.06 1.3 1.61a1.15 1.15 0 00-.51 1.57c2.43 4.47 2.56 9.68 2.68 14.65a1.15 1.15 0 001.71 1c1.7-.72 4.14-1.79 4-4a23.12 23.12 0 00-1.39-5.89zM385 471.48a6.55 6.55 0 01-9.81-.85 8.23 8.23 0 01-1.16-5.94c.29-2.43.89-4.85 1.37-7.25.23-1.19-1.47-2.1-2.09-.88-2.55 5-5.63 11.21-4.08 17 1.63 6.1 10 4.83 14.27 2.61a1 1 0 00.46-1.36 8.89 8.89 0 002.66-1.71c1.01-1.02-.62-2.63-1.62-1.62zm-302.09-5.06a1.15 1.15 0 00-2.2 0 8.16 8.16 0 01-11.35 5 6.16 6.16 0 01-3-3.78c-.52-1.35-2.73-.76-2.2.61a9.83 9.83 0 002.76 4.28c-.84.24-.87 1.59-.16 2.1a16.92 16.92 0 0013 2.8 4.88 4.88 0 004.18-3.92c.37-2.3-.32-4.88-1.03-7.09zM309 619.68a12.38 12.38 0 01-13.57-.84 1.18 1.18 0 00-1.62 0 1.15 1.15 0 000 1.61 15.52 15.52 0 002.21 1.4 2.12 2.12 0 00-1.42.85 3.88 3.88 0 00-.14-.45.9.9 0 00-1-.53 5.16 5.16 0 00.12-.89 1.14 1.14 0 00-2.28 0c0 4.72-6.33 5.44-9.84 5.83a51.5 51.5 0 01-12.59-.17 52.09 52.09 0 01-23.12-9.17c-.77-.55-2.05.38-1.68 1.29 2.66 6.4 9.75 9.44 15.77 11.86a46.7 46.7 0 0011.24 3.33 16.18 16.18 0 005-.15 1 1 0 00.86.36c4.47-.26 9.7-.58 13.73-2.71a8 8 0 004.2-5.3 5.5 5.5 0 003.7 1.66 25.55 25.55 0 003.71-.1 9.93 9.93 0 003.38-.63 6.35 6.35 0 002.46-2.34c.82-1.11 1.64-2.23 2.45-3.35.65-.96-.68-2.1-1.57-1.56zm11.11-8.52a1.16 1.16 0 00-1.56.41 3 3 0 01-1.19.82 6.27 6.27 0 01-2.06.34 6.06 6.06 0 01-3.77-.72 1.14 1.14 0 00-1.15 2 4.67 4.67 0 001 .52 1.2 1.2 0 00.17 1.35c.06.07.12.13.17.2a2.16 2.16 0 00-.14.43 4.15 4.15 0 00.46 2.56 1.84 1.84 0 002.44.6 8.63 8.63 0 003.31-3 34.38 34.38 0 002.71-3.94 1.16 1.16 0 00-.39-1.57zm-112.98 7.56c-3.82 1.64-6.85 4.61-10.71 6.19a42.79 42.79 0 01-12.6 2.74c-4.37.39-8.91.68-13.24-.22a13.48 13.48 0 01-6-2.5c-1.59-1.33-2.65-3.58-1.72-5.6.61-1.33-1.36-2.49-2-1.15a6.39 6.39 0 00-.59 2.8 1.17 1.17 0 00-1.56.41 8.44 8.44 0 00-.5 1.35 1.59 1.59 0 00-1.19-1.41 14 14 0 00-2.34 0 10.18 10.18 0 01-2.51-.51 8.21 8.21 0 01-3.92-2.7 6.55 6.55 0 01.92-9.24 1.19 1.19 0 00.41-1.56 1.16 1.16 0 00-1.56-.41 8.82 8.82 0 00-3.46 6.18.94.94 0 00-1.22.78c-.71 3.33-1.12 7.52 1 10.45s6.05 2.88 9.43 2.91a5.79 5.79 0 002.52-.26 3.37 3.37 0 001.6-1.71l.06-.15a7.2 7.2 0 002.37 5.22 10.84 10.84 0 005.24 2.17c2.27.42 4.54.8 6.81 1.19a22.45 22.45 0 006.59.39c2.28-.27 4.53-.78 6.78-1.22 4.18-.8 8.21-1.67 12-3.7a42.39 42.39 0 0010.8-8.61 1.15 1.15 0 00-1.41-1.83zm-65.01-3.17a1.08 1.08 0 00-.36-1.52 14 14 0 01-2.92-2 5.33 5.33 0 01-1.43-3.14c-.41-2.63-.36-5.63 1.73-7.56 1.09-1-.53-2.6-1.61-1.61a8.28 8.28 0 00-2.52 5.57 1.11 1.11 0 00-1.34 1.06c-.27 2.36-1.13 4.54-.64 6.94.39 1.93 1.3 4.24 2.93 5.45 1.27 1 3.92 2.27 5.4 1.2 1.18-.87 1.27-2.94.76-4.39zm150.16-163.27c-44.55 21.06-89.73 17.11-126.17 2.49-1-.4-1.64 1.08-.74 1.65 26.86 16.84 76.74 37.47 127.79-2.56.84-.64.06-2.02-.88-1.58z"/><path d="M124.6 86.85c-3.73 1-7.71.41-11.48-.1a36.15 36.15 0 01-11.05-3 31.49 31.49 0 01-13.66-13.49c-1.41-2.58-5.35-.28-3.94 2.3a38.1 38.1 0 008.07 10.23 2 2 0 00-.13 3.21 146.48 146.48 0 0012.69 9.77 35.67 35.67 0 006.9 4.09 8.58 8.58 0 003.33.56c1.34 0 2.79.32 4-.35a7.22 7.22 0 002.34-2.71c.68-1 1.47-2.06 2.06-3.14a3.35 3.35 0 00.35-2.61c.59-.1 1.17-.21 1.75-.36 2.83-.72 1.62-5.12-1.23-4.4z" fill-rule="evenodd" fill="#af7b6d"/><path class="cls-7" d="M372.3 56.2c.42-2.87-4-4.11-4.4-1.21a53.61 53.61 0 01-11.61 26.43A29.34 29.34 0 01345 90.25a43 43 0 01-14.19 2.8c-2.85.14-2.92 4.43-.21 4.53a2.22 2.22 0 00-.18.87 2.29 2.29 0 002.28 2.28 23.4 23.4 0 002.77-.55 2.71 2.71 0 001.74.24 32.67 32.67 0 0011.56-3.8 41.15 41.15 0 009.26-7.1 2.26 2.26 0 00-.08-3.19c.37-.4.76-.76 1.11-1.18A57.87 57.87 0 00372.3 56.2zM404 501.91a20.08 20.08 0 01-9-.47 9.77 9.77 0 01-4.42-2.31c-2.22-2.52 1.9-5.9 3.62-7.38a40.07 40.07 0 007.47-8.34 27.46 27.46 0 004-22.05 2.16 2.16 0 00-3.2-1.32 4.64 4.64 0 01-.16 3.92 4.49 4.49 0 01-.54 1.8c.72 7.16-2.34 14.17-7.26 19.44-2.56 2.75-6.15 4.85-8 8.22a8.7 8.7 0 00-1 4.4 2.6 2.6 0 00.07 2.06c1.41 3.16 4.75 4.92 7.91 5.87a24.3 24.3 0 008.89.86 6.93 6.93 0 014-3.92 2.47 2.47 0 00-2.38-.78zM62.15 488a2.34 2.34 0 00-2.82-.83c-.72-.93-1.44-1.86-2.08-2.8-2.33-3.45-4.28-7.43-4.44-11.62a4.07 4.07 0 01-3.18-5.29 1.8 1.8 0 00-1.09 1.48 21.94 21.94 0 001.83 12.52c1.7 3.82 4.31 6.94 6.72 10.3 1.48 2.07 4.09 6.63 1.06 8.69-1.55 1-4.21.79-6 .84a17.85 17.85 0 01-6.53-.87 2 2 0 00-1.88.35 3.79 3.79 0 011 1.17c.17.3.37.57.56.85a17.4 17.4 0 002.31 2.21 21.9 21.9 0 003.68 2.16 13.85 13.85 0 002.68.75 4.65 4.65 0 012.15.84 12.67 12.67 0 006.17-2.24c2.67-1.87 5-4.9 4.86-8.3-.15-3.76-2.93-7.3-5-10.21z"/><path class="cls-3" d="M438.28 472.42c-.13-3.26-.31-6.51-.65-9.76 0-.16 0-.31-.07-.47-.07-.46-.15-.91-.23-1.37-.15-.79-.32-1.59-.52-2.37s-.42-1.56-.67-2.32c-.11-.33-.22-.66-.34-1l-.23-.57a5.66 5.66 0 01-.35-1.08 1.82 1.82 0 00-1 1.93c.66 7.57 1.4 15.41-.79 22.81a23 23 0 01-4.84 9 46.38 46.38 0 01-8.11 6.67 2.27 2.27 0 00-1 2 3.1 3.1 0 011.59-.36 5.09 5.09 0 00.78 0 16.23 16.23 0 003.42-1 4.41 4.41 0 011-.4c.63-.29 1.27-.55 1.92-.81l.64-.26c.69-.63 1.4-1.24 2.13-1.82.26-.26.54-.51.79-.78s.59-.73.88-1.1a4.93 4.93 0 011.14-1.5 28.33 28.33 0 003.57-7.1 35.33 35.33 0 001.51-6.29 4.5 4.5 0 01-.57-2.05z"/><path class="cls-9" d="M226.15 229.73a251 251 0 01-35.55-3.28c-12.66-2.19-26.17-5.76-38.84-12.55a73.42 73.42 0 01-17.57-13 63.35 63.35 0 01-12.77-18.63 79 79 0 01-6-22.88 112.6 112.6 0 01.22-24.74 133.59 133.59 0 0114.56-46.54A135.46 135.46 0 01157.67 52a113.44 113.44 0 0134.11-22.21 104.93 104.93 0 0117.58-5.42 106.41 106.41 0 0116.79-2v-2.68a102.82 102.82 0 00-17.44 1.2 104.23 104.23 0 00-18.49 4.93A114.29 114.29 0 00154 48a138.53 138.53 0 00-44.72 86 115.91 115.91 0 00-.16 26.19 83.83 83.83 0 006.66 24.73 68.11 68.11 0 0014.22 20.2 77.66 77.66 0 0019.17 13.61c13.63 6.92 27.71 10.17 40.73 12a226.48 226.48 0 0036.21 1.78z"/><path class="cls-9" d="M226.15 22.44a106.41 106.41 0 0116.79 2 104.93 104.93 0 0117.58 5.42A113.44 113.44 0 01294.63 52a135.46 135.46 0 0127.42 36.12 133.59 133.59 0 0114.56 46.54 112.6 112.6 0 01.22 24.74 78.93 78.93 0 01-5.95 22.88 63.35 63.35 0 01-12.77 18.63 73.42 73.42 0 01-17.57 13c-12.67 6.79-26.19 10.36-38.84 12.55a251 251 0 01-35.55 3.28v2.75a226.31 226.31 0 0036.2-1.78c13-1.8 27.11-5 40.73-12a77.52 77.52 0 0019.18-13.61 68.11 68.11 0 0014.27-20.25 83.83 83.83 0 006.66-24.73A115.91 115.91 0 00343 134a138.53 138.53 0 00-44.72-86 114.29 114.29 0 00-36.23-22.17 104.11 104.11 0 00-18.5-4.93 102.7 102.7 0 00-17.43-1.2zm-49.66 70.94a25.14 25.14 0 016.63 1.22 22.72 22.72 0 016.41 3.49 22.06 22.06 0 018.2 13.48 19.6 19.6 0 01-4.27 16.51c-4 4.65-10.49 7.16-17.09 7.13s-13.15-2.49-17.37-6.89a15.36 15.36 0 01-4-7.72 20.93 20.93 0 01.6-8.59c1.32-5.64 4.05-10.63 7.93-13.88a20.9 20.9 0 0113-4.75V92a22.08 22.08 0 00-14.3 4.46c-4.47 3.41-7.66 8.85-9.23 14.88a34.77 34.77 0 00-1 4.66 18.05 18.05 0 00.08 5.08 18.25 18.25 0 004.63 9.35c4.92 5.22 12.23 7.92 19.62 8s14.85-2.83 19.46-8.33a21.35 21.35 0 004.59-9.27 23.74 23.74 0 000-9.79 24 24 0 00-16.72-18.14 26 26 0 00-7.17-.9z"/><path class="cls-9" d="M184.49 116.28a9.88 9.88 0 01-5.64-18 16.67 16.67 0 1014.23 16.48 16.74 16.74 0 00-.29-3 9.86 9.86 0 01-8.3 4.52zm92.09-22.9a25.21 25.21 0 016.64 1.22 22.81 22.81 0 016.4 3.49 22.06 22.06 0 018.2 13.48 19.6 19.6 0 01-4.27 16.51c-4 4.65-10.49 7.16-17.09 7.13s-13.15-2.49-17.37-6.89a15.26 15.26 0 01-4-7.72 20.76 20.76 0 01.6-8.59c1.31-5.64 4-10.63 7.92-13.88a20.9 20.9 0 0113-4.75V92a22.08 22.08 0 00-14.3 4.46c-4.47 3.41-7.66 8.85-9.23 14.88a33.27 33.27 0 00-.93 4.67 17.68 17.68 0 00.07 5.08 18.25 18.25 0 004.63 9.35c4.92 5.22 12.24 7.92 19.63 8s14.84-2.83 19.45-8.33a21.35 21.35 0 004.59-9.27 24 24 0 00-16.77-27.94 26 26 0 00-7.17-.9z"/><path class="cls-9" d="M284.58 116.28a9.88 9.88 0 01-5.64-18 16.42 16.42 0 00-2.45-.2 16.75 16.75 0 1016.39 13.65 9.86 9.86 0 01-8.3 4.55zm-54.17 26.52a113.39 113.39 0 0115.41 1.59 87.87 87.87 0 0116.24 4.32 64.4 64.4 0 0115.8 8.23c4.88 3.58 9.24 8.27 11.41 13.89a18.8 18.8 0 011 8.85 26.65 26.65 0 01-.9 4.56l-.87 2.2-.43 1.11-.59 1-1.17 2.09-1.45 1.92-.73 1-.86.85-1.71 1.74a29.84 29.84 0 01-8.42 5.08c-6.2 2.52-13.32 2.88-20.38 1.79a43.59 43.59 0 01-5.33-1c-.88-.22-1.79-.36-2.68-.62l-2.65-.85a55.78 55.78 0 01-5.34-1.79l-2.67-1-3.43-1.29-.32-.08a8.2 8.2 0 00-1.34.49l-.35.18-.18.07-.34.13-1.34.53-2.62 1.09a55.25 55.25 0 01-5.28 1.86c-.88.28-1.74.61-2.62.87l-2.67.6-2.64.63c-.87.19-1.77.23-2.65.36a38.64 38.64 0 01-20.31-2.26 29.59 29.59 0 01-14.58-12.6 10.21 10.21 0 01-1.07-2.11c-.29-.73-.65-1.43-.91-2.17a23.67 23.67 0 01-1-4.49 18.32 18.32 0 011.07-8.81c2.17-5.62 6.54-10.3 11.42-13.86a64.67 64.67 0 0115.8-8.21 88.33 88.33 0 0116.27-4.31 114.8 114.8 0 0115.4-1.58v-1.49a114 114 0 00-15.74.72 88.54 88.54 0 00-16.94 3.53 66.86 66.86 0 00-17.14 7.87c-5.45 3.64-10.72 8.6-13.7 15.47a23.4 23.4 0 00-1.75 11.18 27.69 27.69 0 001 5.68c.29.91.68 1.8 1 2.7a13.63 13.63 0 001.23 2.62 35 35 0 0017.16 15.54 42.06 42.06 0 0023.7 2.67c1-.19 2-.29 3-.55l2.91-.88 2.89-.9c.94-.38 1.85-.81 2.77-1.23a38.49 38.49 0 005.39-2.75l2.54-1.63c.73-.49 2.11-1.34 1.65-1.12 0 .06 0 0-.06 0l.62.39 1.28.78 2.58 1.55a41.61 41.61 0 005.41 2.64l2.77 1.18c.93.38 1.92.61 2.88.92a39.12 39.12 0 005.85 1.47 41.6 41.6 0 0023.77-2.21 35.12 35.12 0 0010.08-6.36l2.05-2.15 1-1.07.86-1.19 1.7-2.39 1.38-2.58.67-1.29.5-1.36 1-2.72a31.51 31.51 0 00.94-5.67A23.81 23.81 0 00294 169c-3-6.89-8.24-11.88-13.69-15.52a66.76 66.76 0 00-17.16-7.9 89.7 89.7 0 00-17-3.54 114.28 114.28 0 00-15.76-.72z"/><path class="cls-9" d="M230.41 154.8a61.47 61.47 0 0113.21 2 26.26 26.26 0 016.63 2.78 12 12 0 012.67 2.19 6.6 6.6 0 011.37 2.75c.29 1.94-.55 4.4-2 6.6a25.47 25.47 0 01-5.65 6 25.29 25.29 0 01-32.38 0 25.47 25.47 0 01-5.65-6c-1.49-2.2-2.33-4.66-2-6.6a6.6 6.6 0 011.37-2.75 12 12 0 012.67-2.19 26.26 26.26 0 016.63-2.78 61.47 61.47 0 0113.21-2v-2.06a55.68 55.68 0 00-14 1 28.35 28.35 0 00-7.72 2.72 15.5 15.5 0 00-3.7 2.76 10.51 10.51 0 00-2.48 4.54c-.69 3.69.63 7 2.3 9.77a29 29 0 006.5 7.32 29.31 29.31 0 0038.18 0 29 29 0 006.5-7.32c1.66-2.73 3-6.08 2.3-9.77a10.51 10.51 0 00-2.48-4.54 15.5 15.5 0 00-3.7-2.76 28.35 28.35 0 00-7.72-2.72 55.68 55.68 0 00-14-1z"/><path class="cls-5" d="M232.38 185.09l-.21-.2h-3.57l-.16.18a.82.82 0 00-.22.58 79.39 79.39 0 001.43 12.35.76.76 0 001.52 0 76.51 76.51 0 001.43-12.35.82.82 0 00-.22-.56z"/><path class="cls-9" d="M121.33 100.09a34.94 34.94 0 01-18.55-6.34 38.83 38.83 0 01-13-18.32 57.84 57.84 0 01-3-12.24A73.82 73.82 0 0186 49.9c.28-8.9 2.4-18.23 7.5-25.9a37.23 37.23 0 019.23-9.8 35.54 35.54 0 0111.82-5.6 41.73 41.73 0 016.34-1.22 50.87 50.87 0 016.4-.2 41.67 41.67 0 0112.07 2.18 37.37 37.37 0 0117.86 13.49 50 50 0 018 18.43l3.26-.53a50.22 50.22 0 00-7-20.77 41.63 41.63 0 00-19.8-16.76 47.18 47.18 0 00-14-3.1 57.58 57.58 0 00-7.43 0 48.37 48.37 0 00-7.55 1.26A42 42 0 0098.27 7.9 44 44 0 0087 19.71c-6.1 9.28-8.35 20.06-8.46 30a76.77 76.77 0 001.21 14.57 61.77 61.77 0 003.9 13.52c3.47 8.55 9.24 15.82 16.25 20.2a37 37 0 0021.43 5.37z"/><path class="cls-9" d="M128.58 84.63a43.46 43.46 0 01-16.15-17.22A27.56 27.56 0 01109 54.08a22.42 22.42 0 014.86-13.68 22.79 22.79 0 0112.4-7.58 30 30 0 017.04-.82 14.16 14.16 0 016.32 1.45 23.14 23.14 0 018.91 8.52A45.8 45.8 0 01153.21 52l1.32-.38a42.3 42.3 0 00-4.16-10.78 24.64 24.64 0 00-9.52-9.84 16.82 16.82 0 00-7.5-2 32.3 32.3 0 00-7.83.8 28 28 0 00-7.67 3 24.49 24.49 0 00-6.51 5.57A24.93 24.93 0 00105.88 54 29.41 29.41 0 00110 68.7a42.06 42.06 0 0018 17.15zM332 103.39A37 37 0 00353.45 98c7-4.4 12.78-11.67 16.25-20.18a61.77 61.77 0 003.9-13.52 76.78 76.78 0 001.2-14.57c-.1-10-2.35-20.76-8.46-30A43.85 43.85 0 00355.08 7.9a42.11 42.11 0 00-14.41-6.51 48.37 48.37 0 00-7.55-1.26 57.58 57.58 0 00-7.43 0 47 47 0 00-14 3.1A41.7 41.7 0 00291.84 20a50.34 50.34 0 00-7 20.77l3.26.53a50 50 0 018-18.43A37.37 37.37 0 01314 9.36a41.6 41.6 0 0112.07-2.18 50.87 50.87 0 016.4.2 41.73 41.73 0 016.33 1.22 35.54 35.54 0 0111.82 5.55 37.23 37.23 0 019.23 9.8c5.1 7.72 7.22 17 7.51 26a73.82 73.82 0 01-.74 13.29 58.46 58.46 0 01-3 12.24 39 39 0 01-13 18.32 34.94 34.94 0 01-18.62 6.29z"/><path class="cls-9" d="M325.4 85.85a42.17 42.17 0 0017.93-17.15 29.52 29.52 0 004.14-14.7 24.21 24.21 0 00-12-21.22 28.14 28.14 0 00-7.67-3A32.3 32.3 0 00320 29a16.82 16.82 0 00-7.5 2 24.58 24.58 0 00-9.5 9.82 42.73 42.73 0 00-4.17 10.78l1.33.38a45.8 45.8 0 014.68-10.06 23.14 23.14 0 018.91-8.52 14.16 14.16 0 016.3-1.4 30 30 0 017.06.87 22.79 22.79 0 0112.4 7.58 22.35 22.35 0 014.85 13.68 27.55 27.55 0 01-3.44 13.33 43.53 43.53 0 01-16.15 17.22z"/><path class="cls-5" d="M151.33 217.69l-1.14-3.63c-.52-1.54-1.92-1.09-3.42-.61l-3.28 1.13a108.84 108.84 0 00-34.4 20.61 147.38 147.38 0 00-22 24.05 228.08 228.08 0 00-20.19 33.38C56 314.22 46.27 341 35.51 379.34L32 391.26l-.33 1.06A90.6 90.6 0 0128 402.7a71.67 71.67 0 01-5.57 8.88l-3.3 4.7c-1.72 2.42-3.45 4.87-5.15 7.36-4.85 7.22-9.82 15-12.53 23.86a34.6 34.6 0 00-1.35 6.95 22.72 22.72 0 00.47 7.3c1.16 5.68 4.82 9.81 7.71 12.3.47.39 4.49 3.63 6.44 3.63a1.27 1.27 0 00.28 0l.69-.15.36-.58c.86-1.34-.3-2.27-1.65-3.35-.79-.63-1.92-1.52-3.28-2.74a18.42 18.42 0 01-5.79-10.05 18 18 0 01-.14-5.84 29.26 29.26 0 011.34-5.84c2.74-7.94 7.68-15.18 12.49-21.89l9-12.14a71.19 71.19 0 006.12-9.37 91 91 0 004.19-10.88l.47-1.4c1.31-4 2.54-8 3.75-12 8.22-27.58 18.41-59.27 31.58-85.19a226.28 226.28 0 0119.37-32.32A141.72 141.72 0 01114.18 241 103 103 0 01146 221.42l3.11-1.2c1.41-.55 2.71-1.07 2.22-2.53z"/><path class="cls-5" d="M39.48 493h-.47a34.13 34.13 0 01-6.6-.71 19.54 19.54 0 01-10.74-5.53c-3.19-3.28-5.11-8.8-5.27-15.15a60.72 60.72 0 012.91-19.24c.26-.82.53-1.67-.12-1.91s-1 .54-1.33 1.39a58.23 58.23 0 00-4.42 19.77c-.25 7.13 1.72 13.59 5.4 17.7a21.76 21.76 0 006.44 4.94 27 27 0 006.23 2.17 37 37 0 007.37.94h.88c.73 0 .86-.12 1-.21l.18-.18v-3.28c-.03-.7-.82-.7-1.46-.7z"/><path class="cls-9" d="M29.39 464.07c-.26 0-.72 1-.84 2.93a26.72 26.72 0 00.91 7.67 69 69 0 004.95 13.25 61.64 61.64 0 008.23 12.74 33.65 33.65 0 006 5.55 16.87 16.87 0 008.17 3.22 12.74 12.74 0 008.79-2.9 14.16 14.16 0 003.26-3.41 8.36 8.36 0 001.52-5 10.51 10.51 0 00-1.52-4.88 24.45 24.45 0 00-2.77-3.77c-2-2.28-4.13-4.32-6.13-6.43a34.91 34.91 0 01-5.3-6.67 30.54 30.54 0 01-2.74-8.1 23.86 23.86 0 01-.35-8.61 12.62 12.62 0 011.32-3.85A8.64 8.64 0 0155.5 453a10.3 10.3 0 013.8-1.23c.54 0 .75 0 .9.12a2.94 2.94 0 01.6 1.19c.68 2.59.55 6.05.7 9.37A34.07 34.07 0 0063.14 473a12.82 12.82 0 003.17 5 11.25 11.25 0 005.31 2.79 18.68 18.68 0 005.69.39 15 15 0 005.69-1.45 7.41 7.41 0 004.09-5.19 13.22 13.22 0 00-.4-6.06c-2.22-7.28-6.26-13.28-10-19.51-1.9-3.09-3.82-6.17-5.59-9.31s-3.49-6.44-4-9.54a5.87 5.87 0 01-.07-1.07 5.37 5.37 0 01.14-1.11c.19-.89.33-1.78.56-2.67.39-1.79.85-3.57 1.34-5.36 1-3.57 2.12-7.13 3.35-10.67a171.32 171.32 0 018.92-20.87 166.86 166.86 0 0111.85-19.78 142.55 142.55 0 0115.13-17.77l1.83-1.66c.08-.09 0-.05 0-.07v.05l-.16 4.38c-.09 3.38 0 6.74 0 10.09s.11 6.67.25 10 .22 6.61.44 9.89c.47 6.54.79 13 1.46 19.44q.44 4.8.89 9.55c.36 3.16.72 6.31 1.07 9.43 2.93 25 6.93 48.68 11.57 70.63a607.08 607.08 0 0015.75 60.18c3.05 8.95 5.86 17.47 9.13 25.25 1.58 3.9 3 7.73 4.74 11.27l3.69 7.86a36.48 36.48 0 00-5.28-1.22 27.76 27.76 0 00-7.13-.19 20.88 20.88 0 00-11.08 4.46 16.05 16.05 0 00-5.49 8.12 11.31 11.31 0 001 8.69 10.17 10.17 0 007 4.78c2 .35 3.15-.05 3.21-.48s-.91-1.06-2.38-1.92a11.65 11.65 0 01-4.65-4.2c-1.86-3.27-.79-8.37 3.64-12.22a18.43 18.43 0 019.19-4.12 26.09 26.09 0 016.38-.22c.57 0 1.15.15 1.74.22l.45.06c.09 0 .47-.09.63 0l1.3.31a50.32 50.32 0 015.37 1.58c-.36-1-.88-2.23-1.32-3.36l-1.63-3.75-2.35-5.41c-1.64-3.54-3-7.37-4.45-11.28-3.07-7.77-5.7-16.29-8.58-25.23-5.49-18-10.44-38.15-14.86-60s-8.18-45.47-11-70.33c-.34-3.11-.68-6.23-1-9.38s-.56-6.31-.84-9.49c-.64-6.36-.93-12.8-1.38-19.3-.21-3.24-.27-6.51-.41-9.79s-.26-6.57-.23-9.86-.08-6.62 0-9.94q.3-7.86.59-15.77c-1.13 1-2.94 2.71-5.09 4.71-1.59 1.5-3.44 3.24-5.28 5a153.25 153.25 0 00-15.27 18.66 177.44 177.44 0 00-11.91 20.43A180.89 180.89 0 0068.94 408c-1.25 3.62-2.39 7.26-3.38 10.92-.49 1.84-1 3.67-1.37 5.53-.23.92-.39 1.87-.58 2.81a9.64 9.64 0 00-.19 1.65 8.53 8.53 0 00.11 1.7c.8 4.23 2.71 7.48 4.47 10.78s3.78 6.35 5.68 9.43c3.7 6.15 7.68 12.26 9.55 18.57a9.84 9.84 0 01.35 4.36 3.66 3.66 0 01-2.18 2.69 11.16 11.16 0 01-4.33 1 15 15 0 01-4.58-.3 8 8 0 01-5.89-5.48 30.46 30.46 0 01-1.38-9.31q-.07-2.5-.15-5a23.52 23.52 0 00-.68-5.33 6.24 6.24 0 00-1.81-3 4.94 4.94 0 00-3.7-1 13.72 13.72 0 00-5.34 1.75 12.25 12.25 0 00-3.94 4.07 16.72 16.72 0 00-1.78 5.16 27.65 27.65 0 00.38 10 37.53 37.53 0 001.24 4.66 21.53 21.53 0 001.92 4.55 38.93 38.93 0 005.86 7.39c2.1 2.18 4.22 4.19 6.05 6.27s3.37 4.32 3.45 6.35-1.41 4-3.37 5.52A9.2 9.2 0 0157 506c-4.59-.38-8.73-3.84-11.94-7.42A60.81 60.81 0 0137 486.62a69.39 69.39 0 01-5.18-12.57 67.25 67.25 0 01-1.68-7.13c-.33-1.75-.43-2.81-.75-2.85z"/><path class="cls-5" d="M452.7 454.47a34.22 34.22 0 00-1.35-7c-2.7-8.8-7.47-16.28-12.55-23.81-1.65-2.43-3.34-4.81-5-7.18l-3.4-4.84a70.85 70.85 0 01-5.6-8.93 94 94 0 01-3.8-10.36l-4-13.06c-11.06-38.16-21-64.85-32.24-86.53a229.36 229.36 0 00-20.46-33.26 149.3 149.3 0 00-22.11-23.94A110.27 110.27 0 00307.77 215l-3.29-1.12c-1.51-.49-1.92-.63-2.54-.3l-.57.29-1.37 4.24c-.44 1.39.76 1.87 2.17 2.44l3.1 1.18a104.33 104.33 0 0132 19.54 144.23 144.23 0 0120.88 22.86 229.05 229.05 0 0119.72 32.18c13.58 26.13 24 57.64 32.46 85 1.24 4 2.5 7.95 3.84 12l.47 1.37a97.43 97.43 0 004.24 10.89 72.34 72.34 0 006.11 9.36L434 427c5 7 9.8 14 12.52 21.95a29.19 29.19 0 011.37 5.95 18.08 18.08 0 01-.15 5.89c-.73 4.46-3.57 7.94-5.79 10-1.43 1.28-2.59 2.19-3.38 2.82-1.3 1-2.42 1.91-1.67 3.07l.35.66.72.15a1.12 1.12 0 00.27 0c1.9 0 5.91-3.25 6.41-3.66 2.85-2.46 6.48-6.58 7.62-12.2a22.77 22.77 0 00.43-7.16z"/><path class="cls-5" d="M435.06 451.77c-.34-.8-.67-1.61-1.33-1.38s-.38 1.09-.12 1.9a60.84 60.84 0 012.91 19.26c-.16 6.34-2.08 11.86-5.28 15.15a19.52 19.52 0 01-10.73 5.52 34.06 34.06 0 01-6.6.71h-.46c-.64 0-1.44 0-1.44.71v3.28l.17.17c.1.09.23.21 1 .21h.88a37.37 37.37 0 007.36-.93 27.24 27.24 0 006.25-2.19 21.62 21.62 0 006.42-4.92c3.69-4.12 5.66-10.58 5.42-17.71a58.6 58.6 0 00-4.45-19.78z"/><path class="cls-9" d="M423.53 464.07c-.32 0-.42 1.1-.71 2.85a69.35 69.35 0 01-1.67 7.13 70.17 70.17 0 01-5.15 12.57 60.81 60.81 0 01-8.1 11.93c-3.21 3.58-7.35 7-11.94 7.42a9.24 9.24 0 01-6.35-2.23c-2-1.52-3.5-3.55-3.37-5.52s1.64-4.3 3.45-6.35 4-4.09 6.05-6.27a38.93 38.93 0 005.86-7.39 22.11 22.11 0 001.93-4.55 37.5 37.5 0 001.23-4.66 27.43 27.43 0 00.38-10 16.46 16.46 0 00-1.78-5.09 12.25 12.25 0 00-3.94-4.07 13.72 13.72 0 00-5.34-1.75 4.94 4.94 0 00-3.7 1 6.24 6.24 0 00-1.81 3 23.52 23.52 0 00-.68 5.33q-.08 2.47-.15 5a30.46 30.46 0 01-1.38 9.31 8 8 0 01-5.89 5.48 15 15 0 01-4.58.3 11.16 11.16 0 01-4.33-1 3.64 3.64 0 01-2.17-2.69 9.68 9.68 0 01.34-4.36c1.87-6.31 5.85-12.42 9.56-18.57 1.89-3.08 3.84-6.18 5.67-9.43s3.68-6.55 4.47-10.78a8.53 8.53 0 00.11-1.7 9.64 9.64 0 00-.19-1.65c-.19-.94-.35-1.89-.58-2.81-.4-1.86-.88-3.69-1.37-5.53-1-3.66-2.13-7.3-3.38-10.92a180.89 180.89 0 00-9.02-21.43 177.36 177.36 0 00-11.9-20.43 153.34 153.34 0 00-15.28-18.66l-5.27-5-5.1-4.71q.3 7.9.59 15.77c.09 3.32 0 6.64 0 9.94s-.1 6.59-.23 9.86-.2 6.55-.41 9.79c-.45 6.5-.74 12.94-1.38 19.3q-.42 4.77-.84 9.49c-.35 3.15-.69 6.27-1 9.38-2.78 24.86-6.58 48.45-11 70.33s-9.37 42.05-14.86 60c-2.88 8.94-5.51 17.46-8.58 25.23-1.49 3.91-2.81 7.74-4.45 11.28l-2.29 5.44-1.63 3.75c-.44 1.13-1 2.33-1.32 3.36a50.32 50.32 0 015.37-1.58l1.3-.31c.17-.11.54 0 .63 0l.45-.06c.59-.07 1.17-.17 1.75-.22a26 26 0 016.37.22 18.43 18.43 0 019.19 4.12c4.43 3.85 5.5 9 3.64 12.22a11.65 11.65 0 01-4.65 4.2c-1.47.86-2.47 1.38-2.38 1.92s1.22.83 3.21.48a10.17 10.17 0 007-4.78 11.36 11.36 0 001-8.69 16.18 16.18 0 00-5.49-8.12 20.91 20.91 0 00-11.09-4.46 27.76 27.76 0 00-7.13.19 35.93 35.93 0 00-5.27 1.22c1.18-2.52 2.4-5.14 3.68-7.86 1.74-3.54 3.16-7.37 4.74-11.27 3.27-7.78 6.08-16.3 9.13-25.25a607.08 607.08 0 0015.75-60.18c4.64-21.95 8.64-45.63 11.57-70.63.36-3.12.71-6.27 1.08-9.43s.59-6.35.89-9.55c.67-6.4 1-12.9 1.46-19.44.22-3.28.28-6.58.43-9.89s.28-6.63.25-10 .09-6.71 0-10.09l-.16-4.38v-.05.07l1.83 1.66a142.55 142.55 0 0115.13 17.77 166.86 166.86 0 0111.85 19.78 171.32 171.32 0 018.92 20.87c1.23 3.54 2.37 7.1 3.35 10.67.49 1.79.95 3.57 1.35 5.36.22.89.36 1.78.55 2.67a5.37 5.37 0 01.14 1.11 5.87 5.87 0 01-.07 1.07c-.54 3.1-2.33 6.42-4 9.54s-3.69 6.22-5.59 9.31c-3.74 6.23-7.78 12.23-10 19.51a13.36 13.36 0 00-.4 6.06 7.41 7.41 0 004.09 5.19 15 15 0 005.73 1.36 18.68 18.68 0 005.69-.39 11.25 11.25 0 005.31-2.79 12.71 12.71 0 003.17-5 34.07 34.07 0 001.64-10.48c.15-3.32 0-6.78.7-9.37a2.92 2.92 0 01.61-1.19c.14-.11.35-.15.89-.12a10.24 10.24 0 013.8 1.23 8.53 8.53 0 012.65 2.76 12.62 12.62 0 011.32 3.85 23.86 23.86 0 01-.35 8.61 30.54 30.54 0 01-2.74 8.1A35.24 35.24 0 01393 483c-2 2.11-4.15 4.15-6.14 6.43a24.45 24.45 0 00-2.77 3.77 10.51 10.51 0 00-1.52 4.88 8.36 8.36 0 001.52 5 14.35 14.35 0 003.26 3.41 12.76 12.76 0 008.79 2.9 16.87 16.87 0 008.17-3.22 33.65 33.65 0 006-5.55 61.64 61.64 0 008.23-12.74 69 69 0 004.95-13.25 26.36 26.36 0 00.91-7.67c-.15-1.87-.61-2.96-.87-2.89zM168.66 605.61c.08-.19-.22-.48-.73-.72a23.24 23.24 0 00-12.16-2.3 17.1 17.1 0 00-13.68 9.25 15 15 0 00-1.58 8.91 9.55 9.55 0 004.66 7.1 11.39 11.39 0 007.12 1 18.8 18.8 0 005.35-1.71c.51-.23.8-.53.73-.72s-.5-.25-1-.14a24.38 24.38 0 01-5.21.71 10.2 10.2 0 01-5.62-1.41 7.14 7.14 0 01-3-5.29 12.81 12.81 0 011.42-7 15.54 15.54 0 0111.17-8.13 28.49 28.49 0 0111.49.58c.54.13.96.07 1.04-.13z"/><path class="cls-9" d="M209.61 474.94c-.19-.24-1.63.74-2.88 2.78-3.51 5.85-5.93 13.23-8.11 21.44a191.28 191.28 0 00-4.9 27.35 165.14 165.14 0 00-.5 31.84 94.28 94.28 0 003 17 53.22 53.22 0 007.57 16.65c3.31 4.56 5.68 9.61 6.09 14.78a20.22 20.22 0 01-4.41 14.22 31 31 0 01-11.88 9 41.2 41.2 0 01-14.07 3.45 39.48 39.48 0 01-13.52-1.53 13 13 0 01-5.39-2.57 5 5 0 01-1.71-4.54 10.83 10.83 0 012.21-4.95A18.81 18.81 0 01165 616a17.06 17.06 0 019.33-3.59c2.18-.11 3.66.37 3.8 0s-1.31-1.31-3.78-1.4a18.26 18.26 0 00-10.57 3.21 20.6 20.6 0 00-4.63 4.08 13.24 13.24 0 00-3 6.06 8 8 0 002.33 7.2 15.83 15.83 0 006.51 3.57 42.36 42.36 0 0014.75 2.16 44.46 44.46 0 0015.61-3.39 35 35 0 0013.78-10.13 24.79 24.79 0 005.56-17.34c-.46-6.37-3.31-12.27-6.94-17.28a49.66 49.66 0 01-6.91-15.08 94.32 94.32 0 01-3-16.2 175.38 175.38 0 01-.19-31 217.09 217.09 0 013.74-27.07c1.72-8.16 3.67-15.56 6.57-21.39.97-2 1.86-3.21 1.65-3.47zm75.1 130.67c.07.2.49.26 1 .14a28.44 28.44 0 0111.48-.58 15.52 15.52 0 0111.17 8.13 12.72 12.72 0 011.42 7 7.08 7.08 0 01-3 5.29 10.18 10.18 0 01-5.62 1.41 24.37 24.37 0 01-5.2-.71c-.54-.11-1-.06-1 .14s.22.49.73.72a18.7 18.7 0 005.35 1.71 11.41 11.41 0 007.12-1 9.54 9.54 0 004.65-7.1 15 15 0 00-1.57-8.91 17.52 17.52 0 00-6-6.63 17.2 17.2 0 00-7.65-2.62 23.2 23.2 0 00-12.16 2.3c-.5.23-.8.52-.72.71z"/><path class="cls-9" d="M275.23 612.44c.14.34 1.62-.14 3.79 0a17.06 17.06 0 019.34 3.59 19.06 19.06 0 013.91 3.86 10.94 10.94 0 012.21 4.95 5 5 0 01-1.71 4.54 13.15 13.15 0 01-5.39 2.57 39.54 39.54 0 01-13.54 1.51 41.2 41.2 0 01-14.07-3.46 30.92 30.92 0 01-11.87-9 20.28 20.28 0 01-4.42-14.14c.42-5.17 2.79-10.22 6.09-14.78a53.25 53.25 0 007.6-16.63 96.06 96.06 0 003-17 165.11 165.11 0 00-.51-31.84 191.33 191.33 0 00-4.89-27.35c-2.18-8.21-4.61-15.59-8.12-21.44-1.24-2-2.69-3-2.87-2.78s.67 1.47 1.69 3.46c2.89 5.83 4.84 13.23 6.56 21.39a217 217 0 013.75 27.07 176.34 176.34 0 01-.19 31 95.32 95.32 0 01-3 16.2 49.43 49.43 0 01-6.91 15.08c-3.63 5-6.48 10.91-6.94 17.28a24.8 24.8 0 005.57 17.34 34.89 34.89 0 0013.77 10.13 44.46 44.46 0 0015.61 3.39 42.32 42.32 0 0014.75-2.16 15.86 15.86 0 006.52-3.57 8 8 0 002.32-7.2 13.23 13.23 0 00-3-6.06 20.65 20.65 0 00-4.64-4.08A18.26 18.26 0 00279 611c-2.47.13-3.91 1.21-3.77 1.44zm14.45-390.75c-.3.14.78 3.18 2.53 7.52a306.66 306.66 0 0113.58 44.09c1.91 8.35 3.57 17.18 4.79 26.43a198.14 198.14 0 011.86 28.91 124 124 0 01-4.17 30.36 71.68 71.68 0 01-14.87 28 68 68 0 01-27.4 18.41 101.48 101.48 0 01-34.25 5.89c-11.87.13-23.65-1.27-34.44-5a69.12 69.12 0 01-28-17.44 69.86 69.86 0 01-15.88-27.43c-.4-1.24-.85-2.46-1.2-3.71s-.57-2.54-.85-3.81a62.07 62.07 0 01-1.48-7.57q-.5-3.81-1-7.56c-.13-2.52-.24-5-.36-7.52a175.57 175.57 0 011.38-28.9c1.13-9.26 2.71-18.11 4.53-26.48a310.43 310.43 0 0113.19-44.21c1.7-4.36 2.75-7.41 2.45-7.55s-1.84 2.72-3.72 7a285.13 285.13 0 00-14.65 44.1c-2 8.4-3.85 17.3-5.17 26.67a175.81 175.81 0 00-1.91 29.45q.12 3.84.26 7.74.45 3.89.91 7.84a66.11 66.11 0 001.44 7.89l.84 4c.35 1.31.82 2.6 1.22 3.91a70.81 70.81 0 0046.49 48.11c11.42 3.95 23.72 5.42 36 5.29a105.31 105.31 0 0035.88-6.26 72.21 72.21 0 0029.2-19.83 75.62 75.62 0 0015.55-29.92 126.08 126.08 0 003.93-31.48 194 194 0 00-2.4-29.4c-1.41-9.35-3.29-18.24-5.42-26.62a282.72 282.72 0 00-15-44c-2-4.22-3.54-7.05-3.86-6.92z"/><path class="cls-9" d="M175.13 461.36c-.18.26.28.88 1.13 1.53a77.18 77.18 0 0020.47 11.49 86.35 86.35 0 0030.43 5.62 90.93 90.93 0 0030.52-5 92.48 92.48 0 0021-10.42c.9-.58 1.4-1.17 1.24-1.44s-.93-.17-1.91.24a148 148 0 01-21.48 7.89 106.87 106.87 0 01-29.32 3.89 100.16 100.16 0 01-29.2-4.5 111.35 111.35 0 01-21-8.95c-.93-.45-1.7-.61-1.88-.35z"/></g></g></g></svg>