<svg xmlns="http://www.w3.org/2000/svg" viewBox="0 0 1070.47 644.05"><defs><style>.cls-1,.cls-2{fill:#7ac5d7}.cls-1,.cls-11{fill-rule:evenodd}.cls-11,.cls-4{fill:#1c1c1c}.cls-6{fill:#f19aaf}.cls-8{fill:#cfd5df}</style></defs><g id="Layer_2" data-name="Layer 2"><g id="export"><g id="mysak-trikrat"><path class="cls-1" d="M934.88 302.05a123.78 123.78 0 01-25.6-3.31 95.53 95.53 0 01-27.47-11.29 68 68 0 01-23-23 60.15 60.15 0 01-6.44-16 64.84 64.84 0 01-1.53-17.77 73.34 73.34 0 0110.52-33.46 86.42 86.42 0 0122-24.39 89.82 89.82 0 0126.26-13.77 93.21 93.21 0 0113.05-3.16 98.15 98.15 0 0112.27-1.17v-1.83a91.82 91.82 0 00-12.61.65 87.75 87.75 0 00-41.2 16.45 88.22 88.22 0 00-23.34 25.18 76.21 76.21 0 00-11.27 35.36 67.59 67.59 0 001.68 19 62.71 62.71 0 007 17.12 70.38 70.38 0 0024.69 24 94.81 94.81 0 0028.72 11 116.65 116.65 0 0026.23 2.36z"/><path class="cls-1" d="M934.88 154.77a98 98 0 0112.27 1.17 93.21 93.21 0 0113.05 3.16 90 90 0 0126.27 13.77 86.54 86.54 0 0122 24.39 73.34 73.34 0 0110.53 33.46 64.84 64.84 0 01-1.53 17.77 59.49 59.49 0 01-6.44 16 68 68 0 01-23 23 95.53 95.53 0 01-27.47 11.29 123.69 123.69 0 01-25.6 3.31v1.83a116.6 116.6 0 0026.23-2.36 94.81 94.81 0 0028.72-11 70.49 70.49 0 0024.7-24 63 63 0 007-17.12 67.59 67.59 0 001.68-19 76.21 76.21 0 00-11.29-35.31A88.08 88.08 0 00988.63 170a87.75 87.75 0 00-41.14-16.36 91.74 91.74 0 00-12.61-.65zm-47.21 44.69a23.19 23.19 0 015.89 1.13 20.18 20.18 0 015.66 3.14 19.49 19.49 0 017.18 11.93 17.27 17.27 0 01-3.78 14.51c-3.5 4.07-9.22 6.28-15 6.25s-11.6-2.2-15.31-6a13.42 13.42 0 01-3.51-6.74 13.7 13.7 0 01-.14-3.73 29.17 29.17 0 01.65-3.83 22.7 22.7 0 017-12.32 18.63 18.63 0 0111.45-4.29v-1.52a23.15 23.15 0 00-6.48.73 18.86 18.86 0 00-6.46 3.23c-4.06 3.07-7 8-8.4 13.43a29.88 29.88 0 00-.85 4.21 16.41 16.41 0 000 4.64 16.6 16.6 0 004.22 8.54c4.48 4.77 11.11 7.21 17.81 7.28s13.47-2.57 17.67-7.58a19.55 19.55 0 004.16-8.45 21.66 21.66 0 00-15.24-25.26 23.08 23.08 0 00-6.48-.77z"/><path class="cls-1" d="M980.31 199.46c3.8.21 8.18.86 11.59 3.58s5.37 7.24 6.14 12.29a18.14 18.14 0 01-18.32 21.07c-5.76-.11-11.32-2.47-14.66-6.6a17.36 17.36 0 01-3.43-14.44 19.43 19.43 0 017.25-11.72 20.46 20.46 0 015.61-3.07 23 23 0 015.82-1.11v-1.52a23.32 23.32 0 00-6.41.74 21.87 21.87 0 00-6.42 3 21.54 21.54 0 00-8.81 13 21.8 21.8 0 00-.17 8.79 18.86 18.86 0 003.89 8.45 20.59 20.59 0 007.63 5.88 25.1 25.1 0 009.61 2.13 21.28 21.28 0 0017.23-8.07 20.93 20.93 0 004-8.32 21.26 21.26 0 00.12-8.8 28 28 0 00-2.6-7.73 16.84 16.84 0 00-5.1-5.94 17.15 17.15 0 00-6.63-2.74 29.5 29.5 0 00-6.38-.44zm-86.64 20.14a7.41 7.41 0 01-4.23-13.51 12.51 12.51 0 1010.67 12.37 13 13 0 00-.21-2.27 7.39 7.39 0 01-6.23 3.41z"/><path class="cls-1" d="M985.86 219.6a7.42 7.42 0 01-4.23-13.51 12.35 12.35 0 00-1.84-.15 12.52 12.52 0 1012.52 12.52 12.13 12.13 0 00-.22-2.27 7.39 7.39 0 01-6.23 3.41zm-85.75 27.49c.12.11.51-.11 1-.52a62.74 62.74 0 0111.33-7.69 39.63 39.63 0 0116.84-4.88 32.13 32.13 0 0116.83 4.25 52.42 52.42 0 0110.89 8.29c.46.43.86.66 1 .55s-.08-.51-.48-1a40.76 40.76 0 00-10.39-9.46 31.32 31.32 0 00-17.89-5 37.57 37.57 0 00-17.71 5.55 46.75 46.75 0 00-10.86 8.89c-.47.5-.67.93-.56 1.02z"/><path class="cls-1" d="M928.9 248.63a23.36 23.36 0 016.39 1.5 7.17 7.17 0 012.71 1.77 2.1 2.1 0 01.47 1.14 2.6 2.6 0 010 .74 3.94 3.94 0 01-.12.86 19.6 19.6 0 01-3.47 7.3c-1.67 2.21-4.09 4.33-6.21 3.87-2.51-.4-4.85-2.5-6.56-4.7a15.68 15.68 0 01-3.25-7.21 2.94 2.94 0 010-.83 2.32 2.32 0 01.09-.73 1.73 1.73 0 01.59-1.05 8 8 0 012.91-1.54 25.07 25.07 0 016.5-1.12v-1.53a23.42 23.42 0 00-7.17.35 10.24 10.24 0 00-4 1.76 5.62 5.62 0 00-1 1 3.8 3.8 0 00-.64 1.31 4.86 4.86 0 00-.27 1.31 5.45 5.45 0 000 1.27 17.75 17.75 0 003.5 9.07 19.31 19.31 0 003.58 3.78 11.34 11.34 0 005.18 2.4 6.92 6.92 0 003.23-.21 9.51 9.51 0 002.66-1.35 16.68 16.68 0 003.67-3.81 21.27 21.27 0 003.69-8.87 7.12 7.12 0 00.08-1.24 5.3 5.3 0 00-.12-1.34 4.85 4.85 0 00-1.29-2.45 9.29 9.29 0 00-3.9-2.19 21.8 21.8 0 00-7.16-.78z"/><path class="cls-1" d="M964.31 269.33c-.14-.06-.47.37-.9 1a23.19 23.19 0 01-5.08 5.68 19 19 0 01-8.16 3.81c-6.45 1.34-14-1.19-20.81-5.22l-1.7-1-.33-.18c-.11 0-.23-.2-.33-.07l-.64.41-.9.59-2.41 1.65a24.29 24.29 0 01-5.13 2.07 18.52 18.52 0 01-10.13-.06 26 26 0 01-8.12-4.23 38.54 38.54 0 01-5.67-5.24c-.52-.59-.93-1-1.06-.86s.07.62.53 1.28a32.8 32.8 0 005.33 5.89 25.53 25.53 0 008.41 5 19.9 19.9 0 0011.28.43 26.12 26.12 0 005.7-2.2l2.62-1.69.33-.22h.07l.33.19.68.38a41.44 41.44 0 005.51 2.81c1 .38 1.86.81 2.8 1.15l2.89.8a23 23 0 0011.23.27 19.47 19.47 0 008.65-4.63 21.81 21.81 0 004.78-6.41c.28-.73.38-1.34.23-1.4z"/><path class="cls-2" d="M926.29 274.76c-.09-5.29 1.7-7.55 1.78-7.64l1.3 1.06-.65-.53.66.52s-1.48 2-1.4 6.56zm8.23 21.24a18.62 18.62 0 01-2.69-.19c-3.48-.49-6-1.7-7.08-3.36a10.84 10.84 0 01-5.64 1.93c-3.06.27-7.17-.26-9-2-2.2-2.2-.68-11.08-.35-12.84l1.65.31c-.74 4-1.27 10.18-.11 11.34s4.5 1.83 7.63 1.56c2.58-.23 4.54-1.05 5.38-2.25l1.18-1.69.34 2c.26 1.51 2.75 2.86 6.2 3.34s6.46-.15 6.9-1.07c1.67-3.49 1.25-12.79 1.25-12.88l1.68-.08c0 .4.44 9.82-1.41 13.69-.72 1.58-3.21 2.19-5.93 2.19z"/><path class="cls-2" d="M924 291.05c0-.22-.51-5.32.69-7.84l1.52.73c-.83 1.74-.66 5.6-.53 6.94z"/><path class="cls-1" d="M921.48 315.07a19.4 19.4 0 00-4.49 8 23.76 23.76 0 00-1 5.1 12.73 12.73 0 00.66 5.84 6.32 6.32 0 00.85 1.51l.57.72c.24.2.49.4.75.59a12.22 12.22 0 002.89 1.45 23.78 23.78 0 006.11 1.24 25.14 25.14 0 006.45-.31 14.68 14.68 0 006.48-2.64 11.39 11.39 0 003.8-6.13 24.88 24.88 0 00.88-6.43 23.83 23.83 0 00-.73-6.19 12.77 12.77 0 00-1.19-3 5.43 5.43 0 00-2.78-2.55 25 25 0 00-10.69-.84c-3.27.48-6.41 1.39-8.54 3.61l1.09 1.07c1.79-1.5 4.68-2.14 7.67-2.31a24 24 0 019.45 1.32 2.67 2.67 0 011 1.23 9.82 9.82 0 01.78 2.26A22.06 22.06 0 01942 324a22.66 22.66 0 01-.84 5.49 8.16 8.16 0 01-2.59 4.3 11.83 11.83 0 01-4.95 2 23.61 23.61 0 01-5.56.36 21.92 21.92 0 01-5.28-.9 9.3 9.3 0 01-2.16-1l-.36-.23-.29-.36a3 3 0 01-.52-.83 10.14 10.14 0 01-.72-4.49 22.74 22.74 0 01.59-4.63 19.34 19.34 0 013.28-7.57z"/><path class="cls-1" d="M942.88 319.25c.08.22 1 .08 2.21-.31 7.12-2.24 16.32-5.26 27.07-7.61a68 68 0 018.3-1.3 21.55 21.55 0 014.17 0 8.47 8.47 0 011.81.4 2.66 2.66 0 01.9.93 24.24 24.24 0 012.92 8.22 40.66 40.66 0 01.7 9.38 26.52 26.52 0 01-1.83 9 14.49 14.49 0 01-5.12 6.64 14 14 0 01-3.65 1.81 11.67 11.67 0 01-3.91.47 31.38 31.38 0 01-8-1.45 93.1 93.1 0 01-14.09-5.84c-4.2-2.11-7.93-4.2-11.14-6.1-1.11-.65-2-1-2.09-.8s.48.88 1.53 1.65a122.34 122.34 0 0010.71 7.07 82 82 0 0014.2 6.76 32.81 32.81 0 008.8 1.89 14.52 14.52 0 005-.49 16.86 16.86 0 004.61-2.16 17.87 17.87 0 006.48-8.08 29.49 29.49 0 002.14-10.2 42.32 42.32 0 00-.81-10.23 26.75 26.75 0 00-3.62-9.51 5.57 5.57 0 00-2.5-2.09 11.15 11.15 0 00-2.65-.54 23.73 23.73 0 00-4.8.13 65.64 65.64 0 00-8.65 1.66 182.76 182.76 0 00-26.84 9.45c-1.19.51-1.94 1-1.85 1.25zm-22.14-1.99c.08-.22-.7-.71-1.91-1.21a246.24 246.24 0 00-27.19-9.24c-2.75-.72-5.61-1.41-8.65-1.91a30.07 30.07 0 00-4.77-.44 10 10 0 00-1.32.06l-.68.08-.76.19a4.45 4.45 0 00-1.57.78 7 7 0 00-1.08 1A19.1 19.1 0 00870 311a39.41 39.41 0 00-2 4.7 49.07 49.07 0 00-2.3 10.06 33.27 33.27 0 00.3 10.44 18.38 18.38 0 001.8 5.05 12.34 12.34 0 003.62 4.12c3 2.24 6.91 2.39 9.83 2.17a44.49 44.49 0 004.51-.35l2.2-.26 2.14-.39A61.53 61.53 0 00916.46 335c1-.83 1.62-1.56 1.46-1.74s-1 .22-2 .91a68.17 68.17 0 01-26.27 9.56l-2.06.29-2.11.17c-1.41.15-2.85.19-4.3.2a17.17 17.17 0 01-4.18-.23 8.21 8.21 0 01-3.57-1.52 11.14 11.14 0 01-3.94-7.11 30.21 30.21 0 01-.17-9.37 48.41 48.41 0 012.09-9.35 25.14 25.14 0 014-7.92 3.92 3.92 0 01.62-.61c.11-.13.17-.11.23-.15a.58.58 0 01.27-.11l.37-.1.46-.06a6.15 6.15 0 011-.07 29.85 29.85 0 014.27.29c2.87.38 5.7 1 8.42 1.56 10.89 2.5 20.26 5.32 27.53 7.4 1.17.34 2.08.44 2.16.22zM976.72 164a47.66 47.66 0 013.17-9.44 49.08 49.08 0 012.47-4.69c.47-.77 1-1.5 1.52-2.27l.78-1.14.88-1.08a42.31 42.31 0 018.27-8 47.83 47.83 0 015.06-3.3l2.75-1.37c.92-.48 1.92-.77 2.88-1.18a43.88 43.88 0 0112.49-2.68 38.24 38.24 0 0113.12 1.55 48.32 48.32 0 0112.64 5.85 55.83 55.83 0 0111.15 9.21 46.43 46.43 0 018 11.77c.42 1.07 1 2.11 1.29 3.19s.63 2.18.94 3.26.33 2.19.49 3.28 0 2.18.06 3.26a52.5 52.5 0 01-2.48 13.2 54.21 54.21 0 01-5.58 11.62 51.29 51.29 0 01-8 9.25 44.19 44.19 0 01-29.7 10.85l-.12 2.54a46.56 46.56 0 0021.87-3.42 48 48 0 0010.88-6.49 53.9 53.9 0 009.25-9.88 57.89 57.89 0 006.56-12.69 56.85 56.85 0 003.06-14.68c0-1.34.1-2.7 0-4s-.36-2.67-.55-4c-.35-1.3-.71-2.6-1.07-3.91s-1-2.5-1.48-3.76a51.28 51.28 0 00-9-13.41 60.15 60.15 0 00-12.37-10.14 52.61 52.61 0 00-14.21-6.37 43.46 43.46 0 00-15.08-1.46 47.69 47.69 0 00-14 3.42c-1.06.48-2.16.87-3.17 1.43l-3 1.64a51.82 51.82 0 00-5.45 3.88 45 45 0 00-8.65 9.23l-.89 1.23-.78 1.29c-.5.86-1 1.68-1.49 2.55a48.15 48.15 0 00-2.35 5.22 46.85 46.85 0 00-2.63 10.28z"/><path class="cls-1" d="M984.19 168.61a37.14 37.14 0 016-15.18 33.83 33.83 0 016.11-6.84 29.14 29.14 0 018.25-5.09 26.25 26.25 0 019.92-1.94 53.09 53.09 0 0110.71 1.5c7.12 1.76 14.42 4.92 19.84 10.48a25.42 25.42 0 016 9.52 23.74 23.74 0 011 10.85 57.16 57.16 0 01-2.42 10.57 40.44 40.44 0 01-4.32 9.36 24.87 24.87 0 01-14.53 11.16c-5.72 1.62-11.35 1.06-16.36.4l-.15 1c5 .87 10.82 1.68 16.91.13a26.33 26.33 0 0015.85-11.59 41.93 41.93 0 004.68-9.77 57.08 57.08 0 002.63-11 25.82 25.82 0 00-1-11.88 27.64 27.64 0 00-6.52-10.43c-5.88-6-13.59-9.26-21-11a53.25 53.25 0 00-11.23-1.44 27.74 27.74 0 00-10.71 2.25 30.44 30.44 0 00-8.67 5.58 35.37 35.37 0 00-6.24 7.33 37.52 37.52 0 00-5.72 15.93zm-90-5a46.27 46.27 0 00-2.64-10.29 47.15 47.15 0 00-2.34-5.23c-.46-.86-1-1.69-1.5-2.55l-.78-1.29L886 143a44.76 44.76 0 00-8.66-9.23 44.11 44.11 0 00-11.65-6.95 48.38 48.38 0 00-14-3.41 43.27 43.27 0 00-15.09 1.5 52.36 52.36 0 00-14.21 6.38 60.09 60.09 0 00-12.37 10.18 50.67 50.67 0 00-9 13.44 32.49 32.49 0 00-3.02 15.77 49.88 49.88 0 003.44 14.71 55.67 55.67 0 007.22 12.36 53.38 53.38 0 0020.53 15.8 49.82 49.82 0 0021.71 4.2v-2.54a49.79 49.79 0 01-20-5.25 51 51 0 01-18.18-15.27 52 52 0 01-6.18-11.3 46.11 46.11 0 01-2.78-13 27.22 27.22 0 012.74-13 46.24 46.24 0 018-11.8 56.27 56.27 0 0111.14-9.24 60.65 60.65 0 016.19-3.44l3.21-1.34c1.06-.47 2.17-.72 3.25-1.09a38.27 38.27 0 0113.12-1.58 44.28 44.28 0 0112.51 2.67 41.13 41.13 0 0110.7 5.85 42.43 42.43 0 018.29 8l.88 1.09.78 1.14c.51.76 1.05 1.5 1.52 2.27a44.92 44.92 0 012.47 4.69 47 47 0 013.18 9.45z"/><path class="cls-1" d="M885.23 169.52c-1.25-10-8.18-21.64-20.31-28.53a27 27 0 00-10.17-3.37l-1.39-.16h-1.41a13.06 13.06 0 00-2.85.23 39.42 39.42 0 00-5.47 1.38 74.36 74.36 0 00-10.63 4.19 37.74 37.74 0 00-9.81 6.87 24.08 24.08 0 00-6.23 10.38 29.34 29.34 0 00-.73 11.64c.14.94.26 1.89.42 2.81l.61 2.71c.36 1.81 1 3.54 1.5 5.27a44.65 44.65 0 004.65 9.57 31.07 31.07 0 007 7.32 27.38 27.38 0 008.54 4.13 38.05 38.05 0 0016.59.53l-.15-1a37.84 37.84 0 01-16-1 26.33 26.33 0 01-7.91-4.07 29.76 29.76 0 01-6.4-7 44 44 0 01-4.27-9.14c-.46-1.68-1-3.33-1.38-5.09-.19-.87-.37-1.74-.56-2.62s-.24-1.77-.37-2.66a27.5 27.5 0 01.72-10.71 21.89 21.89 0 015.65-9.35c5.38-5.36 12.6-8.3 19.48-10.55a38.43 38.43 0 015.15-1.34 10.24 10.24 0 012.53-.24h1.27l1.26.14a25.09 25.09 0 019.45 3 36.21 36.21 0 017.83 5.51 42.59 42.59 0 016.05 6.71 35.49 35.49 0 016.37 14.66z"/><path class="cls-2" d="M878.07 286.49l-2.2-1.71c-.77-.54-1.14 0-2.74 2.2l-.21.3a417.63 417.63 0 00-8.66 12.47c-4.58 6.87-9.58 14.5-15.08 23.75a386.26 386.26 0 00-18.36 34.5c-7.69 16.65-12.55 31.2-15.29 45.8v.21l-.72.27a11.25 11.25 0 00-1.3.65 21.75 21.75 0 00-5.51 5 32.65 32.65 0 00-5 8.17 18.54 18.54 0 00-1.39 5.24 8.2 8.2 0 001.36 5.78 5.93 5.93 0 002.39 1.88 3.47 3.47 0 001.14.28.67.67 0 00.7-.44l.19-.34-.09-.34a1.23 1.23 0 00-.69-.74 5.88 5.88 0 01-1.84-1.61 6 6 0 01-.81-4.22 16.1 16.1 0 011.31-4.54 30.21 30.21 0 014.68-7.47 19.08 19.08 0 014.88-4.32 8.75 8.75 0 01.9-.43l.46-.14a3 3 0 00.76-.3 2.9 2.9 0 001.27-1.48.67.67 0 01.09-.19l2-9.76c.13-.65.32-1.27.51-1.9.1-.36.21-.72.3-1.06l.56-1.95c1-3.38 1.88-6.57 3.09-9.69l2-5.56c.44-1.17.93-2.3 1.4-3.44.27-.64.54-1.27.8-1.91l2.17-5.19 2.36-5a342 342 0 0118.56-34c5.93-9.62 11.39-17.46 15.49-23.21 4.38-6.14 7.64-10.32 9.21-12.33l1.09-1.41c.41-.63.91-1.31.22-1.82z"/><path class="cls-1" d="M809.51 419.32c-.14-.06-.33.06-.46.28a30.72 30.72 0 00-3.63 12.4 14.44 14.44 0 00.3 4 6.51 6.51 0 002 3.49 4.85 4.85 0 003.32 1.14 7.3 7.3 0 002.6-.57c.24-.09.38-.26.34-.41s-.23-.25-.48-.25c-1.39 0-3.37 0-4.46-1.3s-1.34-3.6-1.21-6a124.42 124.42 0 011.89-12.33c.01-.19-.06-.4-.21-.45z"/><path class="cls-1" d="M815.21 421.79c-.3-.06-1 2.16-1.56 5.49a61.75 61.75 0 00-.77 8.3 28 28 0 00.25 4.52 9 9 0 001.85 4.69 4.08 4.08 0 002.68 1.34 6 6 0 001.42-.06 5.49 5.49 0 001.41-.35 4.25 4.25 0 001.35-.85c.19-.21.37-.43.54-.65a5 5 0 00.36-.73 7 7 0 00.41-2.91c-.19-3.64-1.35-7.07-1-10.52a17 17 0 011.29-5.2 5.56 5.56 0 011.41-2 1.62 1.62 0 011.74-.29 4.88 4.88 0 011 .6 2.35 2.35 0 01.62.79 3.21 3.21 0 01-.19 2.29 22 22 0 00-1.09 3.28 4 4 0 000 1.16 2.86 2.86 0 00.47 1.25 3.86 3.86 0 001.9 1.43 5.59 5.59 0 004.19-.28 8.33 8.33 0 003.14-2.53 9.76 9.76 0 001.69-3.67 11.45 11.45 0 00.15-4 14.81 14.81 0 00-1-3.89 18.66 18.66 0 00-1.85-3.61 15.06 15.06 0 00-2.75-3.2 12.94 12.94 0 00-1.79-1.29 10.6 10.6 0 00-1-.51 7.4 7.4 0 00-.77-.3c-.09 0-.16-.07-.1-.16 0 .12.17-.63.28-1.12.27-1.06.54-2.17.83-3.32l1.93-7.46c1.43-5.3 3.14-11.24 5.28-17.54a120.69 120.69 0 018.12-19.49 41.34 41.34 0 013-4.66 14 14 0 011.74-2.15l.94-1 .47-.51c.12-.11.09-.07.13-.09-.15 3.31-.31 6.67-.46 10.05-.27 3.89-.12 7.77-.17 11.62 0 1.93-.08 3.85.08 5.76l.39 5.71c.16 1.89.22 3.78.48 5.65s.53 3.72.79 5.57.45 3.7.85 5.5l1.11 5.4c3 14.34 7.73 27.55 12.44 39.66s9.14 23.34 12.28 33.81c.73 2.63 1.43 5.19 2.12 7.68s1.12 5 1.68 7.35c.26 1.19.51 2.36.77 3.52s.36 2.31.53 3.43l.27 1.68.21 1.26c.12.65.23 1.29.34 1.92h-.06c-.59-.27-1.17-.49-1.73-.7l-1.09-.37-1.3-.42a33.23 33.23 0 00-4.55-1 15.77 15.77 0 00-6.92.22 6.27 6.27 0 00-3.53 2.52c-.57.92-.61 1.55-.5 1.6.32.2 1.3-2.11 4.4-2.82a15 15 0 016.27.11 35.31 35.31 0 014.28 1.15l1.24.43.65.24 1 .38c1.27.51 2.72 1.21 4.25 1.95a.26.26 0 000-.08c-.32-2.67-.65-5.45-1-8.32l-.41-3.51c-.22-1.18-.43-2.38-.66-3.6-.48-2.42-.84-5-1.48-7.51s-1.29-5.17-2-7.86c-3-10.69-7.3-22.09-12-34.19s-9.35-25.09-12.44-39.14q-.57-2.62-1.14-5.3c-.42-1.77-.59-3.59-.9-5.39s-.57-3.64-.85-5.47-.37-3.69-.58-5.55l-.57-5.6c-.24-1.88-.21-3.78-.34-5.68-.12-3.8-.49-7.63-.24-11.5q.1-2.94.19-5.86l.09-2.9v-.73a5.64 5.64 0 000-1 1.89 1.89 0 00-2.12-1.51 2.08 2.08 0 00-1.15.56l-.52.54-1 1.08a15.56 15.56 0 00-1.88 2.29 44.68 44.68 0 00-3.16 4.85 122 122 0 00-8.53 19.75c-2.2 6.35-4 12.32-5.42 17.66-.72 2.66-1.37 5.17-2 7.49-.29 1.16-.56 2.27-.82 3.33-.17.68-.34 1.34-.49 2a1.55 1.55 0 00.22 1.18 1.82 1.82 0 001 .63 6.23 6.23 0 011.13.38c.26.12.52.26.78.41a9.75 9.75 0 011.44 1 13 13 0 012.32 2.74 16.55 16.55 0 012.52 6.54 9.47 9.47 0 01-.11 3.24 7.59 7.59 0 01-1.29 2.79c-1.17 1.57-3.25 2.58-4.71 2a1.58 1.58 0 01-.75-.52c-.14-.13-.13-.38-.09-.77a24.54 24.54 0 011-2.91 5.41 5.41 0 00.13-3.93 4.72 4.72 0 00-1.29-1.66 6.58 6.58 0 00-1.65-1 4 4 0 00-4 .66 7.51 7.51 0 00-2 2.82 19 19 0 00-1.44 5.93c-.28 4.09 1 7.62 1.18 10.8.1 1.62-.22 2.84-1.36 3.24a5 5 0 01-1.92.31 2.1 2.1 0 01-1.46-.69 7.58 7.58 0 01-1.5-3.7 29 29 0 01-.36-4.24 66.78 66.78 0 01.45-8.13c.44-3.27.65-5.56.34-5.63z"/><path class="cls-1" d="M857.53 518.21c.13 0 .23-.18.28-.42a7.49 7.49 0 012.49-4.34 10.4 10.4 0 016.21-2c5-.06 9.5 1.1 12.39 1.54.25 0 .45 0 .49-.14s-.09-.27-.32-.38a29.48 29.48 0 00-12.64-2.93c-2.71.13-5.49.94-7.17 2.75a7 7 0 00-2 5.45c.03.26.15.48.27.47z"/><path class="cls-1" d="M872.11 518.21c.16-.19-.85-1-2.51-1.34a26.93 26.93 0 00-7.7-.42 24.16 24.16 0 00-4.23.72 11.55 11.55 0 00-4.28 2 6.42 6.42 0 00-1.7 2.12 5.56 5.56 0 00-.43 2.84 7.93 7.93 0 00.77 2.64 13 13 0 00.78 1.26c.33.35.66.71 1 1a15.34 15.34 0 004.74 2.61 31.62 31.62 0 005.2 1.39 56.14 56.14 0 0022.76-.69 34.87 34.87 0 005.88-2 20.6 20.6 0 005.54-3.49 12.42 12.42 0 003.82-5.91 13 13 0 00-.19-7.16c-1.15-3.89-2-7.93-2.81-11.88s-1.48-7.86-2.1-11.68c-1.23-7.67-2.12-15-2.69-22a177.48 177.48 0 01-.71-19.33c0-3 .28-5.76.44-8.42a74.47 74.47 0 011.09-7.4c.32-1.58.38-2.71.16-2.78s-.69 1-1.15 2.54a69.12 69.12 0 00-1.66 7.44c-.34 2.68-.8 5.52-.95 8.52a151.74 151.74 0 00-.1 19.62c.36 7 1.08 14.51 2.2 22.28.57 3.88 1.21 7.84 2 11.86s1.63 8.08 2.85 12.24a9.45 9.45 0 01.18 5.15 9.06 9.06 0 01-2.75 4.25 17.48 17.48 0 01-4.62 2.94 30.48 30.48 0 01-5.29 1.87 51.62 51.62 0 01-10.92 1.64 53.25 53.25 0 01-10.49-.49 28.86 28.86 0 01-4.79-1.11 13.17 13.17 0 01-4-2l-.73-.68c-.16-.26-.35-.47-.51-.75a5.86 5.86 0 01-.65-1.85 3.3 3.3 0 011.2-3.12 9.85 9.85 0 013.46-1.85 23.44 23.44 0 013.88-.91 27.63 27.63 0 017.35-.14c1.55.26 2.55.65 2.66.47z"/><path class="cls-2" d="M1059.89 421.65a24 24 0 00-2.61-6.66 33.05 33.05 0 00-4-5.76 20 20 0 00-5.47-4.59 7.42 7.42 0 00-.88-.39 2.42 2.42 0 01-.53-.24.76.76 0 01-.35-.5l-.66-3.28c-.17-.77-.32-1.54-.47-2.3-.27-1.39-.55-2.83-.92-4.23l-.52-1.94c-1-3.52-1.94-7.16-3.17-10.59-5.71-17.1-13.42-32.13-19.5-43.32-5.57-10.18-11.69-20.37-18.71-31.16-5.43-8.34-9.57-14.21-11.35-16.73l-1-1.42c-.44-.58-.95-1.25-1.65-.72l-2.32 1.74-.06.32c-.07.4.11.65.55 1.27l1 1.39c2.56 3.36 6.56 8.7 11.73 16.23 7 10.3 13.28 20.31 19.06 30.6 5.58 10 13.68 25.29 19.62 42.71 1.27 3.45 2.24 7 3.27 10.7l.45 1.61c.36 1.33.64 2.74.91 4.09.15.77.31 1.53.47 2.28l.67 3.24a3.39 3.39 0 001.46 2.18 4.26 4.26 0 001 .5l.21.09a2.35 2.35 0 01.44.2 16.94 16.94 0 014.76 4 32.15 32.15 0 013.78 5.28 21.89 21.89 0 012.45 5.95c.39 1.66.6 4-.59 5.6a6 6 0 01-1.81 1.58 1.25 1.25 0 00-.7.74l-.06.3.1.25a.79.79 0 00.81.54 3.71 3.71 0 001.21-.3 5.69 5.69 0 002.21-1.74c1.41-1.84 1.82-4.43 1.17-7.52z"/><path class="cls-1" d="M1052.21 419.32c-.07 0-.07.21 0 .45a69.35 69.35 0 012.32 12.36c.13 2.49-.12 5-1.47 6.41s-3.46 1.27-4.83 1.12c-.24 0-.43 0-.45.08s.14.17.38.25a7.88 7.88 0 002.53.38 4.58 4.58 0 003-1.14 6.14 6.14 0 001.74-3.26 14.84 14.84 0 00.27-3.9 37.6 37.6 0 00-3.2-12.41c-.09-.23-.21-.37-.29-.34z"/><path class="cls-1" d="M1046.51 421.79c-.3.07-.1 2.33.27 5.6a64.8 64.8 0 01.46 8.13 28.74 28.74 0 01-.34 4.24 7.76 7.76 0 01-1.49 3.74 2.15 2.15 0 01-1.46.73 3.75 3.75 0 01-1-.07 3 3 0 01-1-.23 1.81 1.81 0 01-1.17-1.15 4.62 4.62 0 01-.24-2.07c.16-3.19 1.43-6.72 1.17-10.8a18.89 18.89 0 00-1.43-5.92 7.7 7.7 0 00-2-2.81 4 4 0 00-3.92-.71 6.55 6.55 0 00-1.65 1 4.36 4.36 0 00-1.28 1.62 5.21 5.21 0 00.08 3.9 27.9 27.9 0 011 2.92c.06.41.05.69-.09.84s-.41.39-.76.55c-1.48.58-3.58-.43-4.79-2a7.84 7.84 0 01-1.31-2.8 9.39 9.39 0 01-.14-3.27 16.62 16.62 0 012.49-6.57 10.43 10.43 0 015.49-4.6 1.91 1.91 0 001.33-2l-.16-1.71c-.19-1.08-.37-2.22-.64-3.36-.49-2.31-1.14-4.76-1.86-7.37-1.47-5.21-3.34-11-5.66-17.16a137.59 137.59 0 00-8.69-19.11c-.86-1.64-1.93-3.18-2.94-4.78l-1.73-2.28-.44-.57a2.7 2.7 0 00-.78-.64 2.53 2.53 0 00-2-.22 2.43 2.43 0 00-1.55 1.39 2.64 2.64 0 00-.18 1v.73l.06 2.85c0 1.9 0 3.81.05 5.73a211.76 211.76 0 01-5 43.91c-3.16 13.86-7.86 26.66-12.45 38.62s-8.76 23.18-11.66 33.75q-1 4-1.93 7.77c-.61 2.52-1 5-1.45 7.42-.21 1.2-.43 2.39-.64 3.55s-.27 2.33-.4 3.47q-.51 4.27-1 8.24a.14.14 0 00.06.09c1.53-.74 3-1.44 4.27-1.95l1-.38.65-.24 1.24-.43a34.11 34.11 0 014.29-1.15 14.9 14.9 0 016.29-.1c3.06.72 4 3 4.35 2.81.11-.05.07-.68-.49-1.58a6.26 6.26 0 00-3.49-2.53 15.67 15.67 0 00-6.94-.24 35.27 35.27 0 00-4.56 1.05l-1.31.42-1.1.38c-.56.2-1.13.43-1.72.69h-.07l.34-1.89.21-1.23.26-1.65c.17-1.12.35-2.25.53-3.4s.5-2.3.76-3.47c.54-2.35 1-4.79 1.65-7.26s1.37-5 2.08-7.59c3.09-10.34 7.44-21.44 12.11-33.41s9.37-25 12.44-39.13a167 167 0 003.77-44.65c-.09-1.93-.18-3.86-.28-5.77l-.11-2.87v-.69a.83.83 0 01.06-.36.74.74 0 01.5-.44.92.92 0 01.72.09 1.22 1.22 0 01.31.25l.41.56 1.64 2.19c1 1.56 2 3.06 2.83 4.68a137.12 137.12 0 018.41 18.93c2.24 6.11 4.06 11.87 5.49 17 .7 2.58 1.34 5 1.8 7.26.27 1.13.43 2.2.61 3.22 0 .48.09.94.14 1.39 0 .09 0 .17-.1.19l-.43.14-.52.22a10.47 10.47 0 00-1 .52 11.82 11.82 0 00-1.76 1.28 15.15 15.15 0 00-2.72 3.19 18.68 18.68 0 00-2.84 7.46 11.5 11.5 0 00.16 4 9.9 9.9 0 001.69 3.63 8.3 8.3 0 003.14 2.49 5.47 5.47 0 004.14.24 3.67 3.67 0 001.86-1.45 2.93 2.93 0 00.43-1.23 4.59 4.59 0 000-1.13 24.07 24.07 0 00-1.09-3.25 3.15 3.15 0 01-.16-2.32 2.29 2.29 0 01.66-.8l.5-.35c.17-.1.35-.16.51-.25a1.72 1.72 0 011.79.33 5.69 5.69 0 011.41 2 17.37 17.37 0 011.28 5.22c.28 3.46-.89 6.89-1.07 10.53a6.73 6.73 0 00.43 2.91 4.21 4.21 0 00.91 1.37 4.31 4.31 0 001.37.81 4.93 4.93 0 001.4.34 5.58 5.58 0 001.43.05 4 4 0 002.64-1.38 9.24 9.24 0 001.82-4.69 29.11 29.11 0 00.24-4.52 61.72 61.72 0 00-.78-8.3c-.62-3.22-1.35-5.41-1.66-5.35z"/><path class="cls-1" d="M1004.19 518.21c.13 0 .25-.18.27-.44a7 7 0 00-2-5.45c-1.69-1.81-4.46-2.62-7.17-2.75a29.44 29.44 0 00-12.64 2.93c-.23.11-.37.26-.33.38s.24.17.5.14c2.89-.44 7.4-1.6 12.38-1.54 2.46.13 4.74.69 6.21 2a7.45 7.45 0 012.5 4.34c.09.18.16.38.28.39z"/><path class="cls-1" d="M989.62 518.21c.14.18 1.1-.17 2.68-.34a27.64 27.64 0 017.35.14 23.1 23.1 0 013.87.91 10 10 0 013.47 1.85 3.32 3.32 0 011.2 3.12 6.41 6.41 0 01-.65 1.85c-.17.28-.35.49-.52.75l-.72.68a13.28 13.28 0 01-4 2 28.75 28.75 0 01-4.8 1.11 53.11 53.11 0 01-10.48.49 51.8 51.8 0 01-10.93-1.64 31.08 31.08 0 01-5.29-1.87 17.27 17.27 0 01-4.61-2.94 9.08 9.08 0 01-2.79-4.32 9.46 9.46 0 01.19-5.15 190.48 190.48 0 004.85-24.1c.52-3.89.87-7.72 1.28-11.43q.3-2.79.58-5.5c.17-1.8.26-3.59.36-5.35.72-14-.09-26.43-2.69-35.59-.46-1.58-1-2.6-1.19-2.53s-.11 1.19.21 2.77c1.79 9.16 2 21.31.79 35.16-.15 1.73-.29 3.49-.51 5.27s-.47 3.59-.71 5.42c-.49 3.66-.91 7.43-1.48 11.27a214.57 214.57 0 01-4.92 23.56 13.08 13.08 0 00-.16 7.2 12.56 12.56 0 003.83 5.91 20.69 20.69 0 005.54 3.49 34.87 34.87 0 005.88 2 56.1 56.1 0 0022.75.69 31.35 31.35 0 005.2-1.39 15.38 15.38 0 004.75-2.61c.35-.32.68-.68 1-1a11.42 11.42 0 00.79-1.26 8.17 8.17 0 00.77-2.64 5.46 5.46 0 00-.44-2.84 6.18 6.18 0 00-1.7-2.12 11.44 11.44 0 00-4.27-2 24.16 24.16 0 00-4.23-.72 27 27 0 00-7.71.42c-1.7.25-2.7 1.07-2.54 1.28z"/><path class="cls-1" d="M891.73 427.26c-.18.16.09.69.66 1.3 3.4 3.46 9.11 6.21 15.85 8.16a87.37 87.37 0 0023.14 3.17 80.21 80.21 0 0023.18-3.07c6.76-2.05 12.29-5 15.83-8.17.62-.54.94-1 .8-1.21s-.72 0-1.39.39a54.55 54.55 0 01-16 6.21 99.17 99.17 0 01-22.41 2.27 110.27 110.27 0 01-22.39-2.39c-6.6-1.46-12.23-3.47-15.9-6.12-.66-.48-1.2-.7-1.37-.54z"/><path class="cls-2" d="M1027.92 415.13a264.37 264.37 0 01-21.69-18l2.31-2.45a264.48 264.48 0 0021.38 17.77zm-49.62 74.14a127.18 127.18 0 0027.71.7 85 85 0 0026.69-6.53 50.61 50.61 0 0011.62-7 29.83 29.83 0 008.28-10.31 20 20 0 001.78-6.25 32.22 32.22 0 00.09-6.66 36.87 36.87 0 00-3.72-12.81l3-1.47a40.22 40.22 0 013.9 14 35.84 35.84 0 01-.17 7.32 23.41 23.41 0 01-2.13 7.16 32.77 32.77 0 01-9.21 11.28 53.43 53.43 0 01-12.35 7.32 88 88 0 01-27.6 6.46 129.25 129.25 0 01-28.22-1zm-11.57.73c-1.52-.33-3.05-.68-4.58-1.06-23.13-5.68-47.32-7.46-68.12-5l-.39-3.35c21.19-2.5 45.81-.69 69.31 5.09 1.51.37 3 .71 4.48 1zm-77.03 60.31a1.12 1.12 0 00-.13-.62 2.51 2.51 0 00-2-1.2 24.49 24.49 0 00-4.67-.14l-5.94.25a40.24 40.24 0 01-10.14-.74 37.32 37.32 0 01-17.4-8.67 27.27 27.27 0 01-5.71-7.28 22.3 22.3 0 01-2.42-8.44c-.4-5 1-10.28 4.28-15.7a43.31 43.31 0 014.53-6.15 36 36 0 015.23-4.69 53.36 53.36 0 0110.65-6 83.92 83.92 0 0113.87-4.51l.58-.14c1.93-.44 2-.52 2.07-.68l.09-.14-.54-2.53-.15-.1c-.15-.1-.25-.15-2.22.31l-.58.14a85.21 85.21 0 00-14.33 4.72 55.88 55.88 0 00-11.21 6.5 38 38 0 00-5.6 5.14 45.31 45.31 0 00-4.77 6.66c-3.46 5.95-5 11.8-4.41 17.36a24.67 24.67 0 002.87 9.34 29.14 29.14 0 006.34 7.79 38.51 38.51 0 0018.53 8.73 40.67 40.67 0 0010.55.49l5.88-.41a23.13 23.13 0 014.48 0c.8.12 1.15.39 1.25.56a.56.56 0 01.1.28l-.06.15.4.31 1.15-.19z"/><path class="cls-2" d="M889.39 550.28l-.49-.49-.1.87a1.85 1.85 0 01-.18.52 3.51 3.51 0 01-1 1.11c-3 2.16-10.51 3.12-19.17 2.47a72.46 72.46 0 01-15.81-3c-7-2.19-12.51-5.11-16.86-8.94a25.78 25.78 0 01-6.29-8.24 24.41 24.41 0 01-2.26-10.58 54 54 0 015.69-23.16 47.72 47.72 0 017.27-10.25 58.31 58.31 0 0110-8.29c6.55-4.32 14.56-7.8 24.49-10.63 3.49-1 3.48-1 3.35-1.49s-.13-.5-3.65.39c-10.17 2.6-18.41 5.93-25.19 10.18a58.93 58.93 0 00-10.51 8.37 47.94 47.94 0 00-12.32 22.59 25 25 0 00-.65 3.1l-.51 3.07c-.06.71-.13 1.42-.2 2.12a36.72 36.72 0 00-.28 4 26.46 26.46 0 002.5 11.75 27.79 27.79 0 006.94 9c4.68 4 10.52 7 17.86 9.17a72.18 72.18 0 0016.33 2.65c1.09 0 2.17.07 3.21.07 7.66 0 13.88-1.29 16.65-3.51a4.36 4.36 0 001.23-1.5 2.65 2.65 0 00.24-.85v-.44zm79.39-76.95c-3.78-.61-7.54-1.28-11.32-1.95-19.58-3.48-39.83-7.07-64.9-3.2l-.25-1.67c25.34-3.91 45.73-.29 65.45 3.21 3.76.67 7.51 1.33 11.29 1.95zm63.09-25.93a26.35 26.35 0 00-3.79-5.95 37.7 37.7 0 00-4.64-4.43 50.48 50.48 0 00-9.23-5.83 83.81 83.81 0 00-12.11-4.89l-.17-.06c-1.62-.53-1.72-.48-1.87-.41l-.17.09-.7 2.32c-.13.45.16.56 1.75 1.08l.16.05a83.87 83.87 0 0111.71 4.63 46.81 46.81 0 018.76 5.38 32.8 32.8 0 014.29 4 23.52 23.52 0 013.44 5.19 16.22 16.22 0 011.48 6.32 15.16 15.16 0 01-1.43 6.69 21.13 21.13 0 01-10.8 10.14c-4.32 2-9.26 2.3-14.49 2.58l-1.78.1a150 150 0 01-17.46-.35c-2.26-.19-2.49-.15-2.54.32s.18.55 2.43.81a145.34 145.34 0 0016.21.95h1.41c2.89 0 5.8-.16 8.64-.39a27.33 27.33 0 008.45-2 23.43 23.43 0 0012.24-11.06 17.78 17.78 0 001.82-7.81 18.62 18.62 0 00-1.61-7.47z"/><path class="cls-1" d="M1008.7 430.9c2.53.12 5-1.65 7-3.89a22 22 0 004.65-8.73 16.36 16.36 0 00-.24-10 12.85 12.85 0 00-5-6.21l-.63.8a13.79 13.79 0 013.72 6.05 16.34 16.34 0 01-.15 8.73 24.35 24.35 0 01-3.9 8.07c-1.63 2.18-3.59 3.89-5.45 4.15zm21.13 16.3c1.44.87 3.73.81 5.9.1s4-1.92 4.77-3.44l-.8-.63a36.52 36.52 0 01-4.7 1.77 22.41 22.41 0 01-4.86 1.2zm-2.98 19.62c-.43 3.91 3.43 9 9.15 10.55a14.23 14.23 0 008.15-.13 15.37 15.37 0 005.55-3.23l-.6-.83a20.61 20.61 0 01-5.47 2.11 14.7 14.7 0 01-7-.22c-4.84-1.35-8.36-5.11-8.79-8.25zm-23.25 8.02c-3 1.05-5.24 5.72-3.9 10.39a8.68 8.68 0 004.21 5.11 10.43 10.43 0 005 1.11l.11-1a13.92 13.92 0 01-4.06-1.83 7.83 7.83 0 01-3-4.07c-1-3.57.19-7.37 2.08-8.8zm-37.1-3.24a5.26 5.26 0 00-4.33 2 10 10 0 00-2.28 5.41 9.86 9.86 0 001 5.77 8.13 8.13 0 003.28 3.31l.6-.82a9.67 9.67 0 01-2.53-8c.39-3.38 2.19-6.23 4.31-6.71zm-31.32-5.16a5 5 0 00-4.26 2.11 9.6 9.6 0 00-1.92 5.5 10.07 10.07 0 001.35 5.62 8.67 8.67 0 003.3 3.18l.61-.82a12 12 0 01-2.11-3.27 10.83 10.83 0 01-.77-4.61c.14-3.36 1.76-6.24 3.87-6.69zm-30.82-.81c-2.52.71-5 4-5.06 8.06a8.72 8.72 0 001.61 5.34 8.2 8.2 0 003.48 2.67l.52-.87a11.47 11.47 0 01-2.29-2.87 8.73 8.73 0 01-.93-4.23c.08-3.15 1.49-6 3.12-7.19zm-34.64 6.15c-2 1.52-3.28 5.33-2 9.12a7.7 7.7 0 007.49 5.53l.16-1a11.3 11.3 0 01-3.12-1.78 7.86 7.86 0 01-2.26-3.5 9.92 9.92 0 01.52-7.69zm-24.85 12.39c-1.25 2.18-1 6.19 1.68 9.2a8.15 8.15 0 004.78 2.73 8 8 0 004.27-.56l-.24-1a10.89 10.89 0 01-3.57-.42 7.88 7.88 0 01-3.45-2.34 9.9 9.9 0 01-2.51-7.28zm-16.1 23.28a8.24 8.24 0 005.44 7 6.86 6.86 0 005.28-.14 7.77 7.77 0 003.08-2.64l-.72-.72a11.58 11.58 0 01-3.06 1.46 6.07 6.07 0 01-3.77-.2 9.87 9.87 0 01-5.25-5zm3.14 33.73a8.26 8.26 0 008.82.88 6.93 6.93 0 003.53-3.94 7.87 7.87 0 00.2-4.06h-1a11.63 11.63 0 01-1.05 3.22 6 6 0 01-2.74 2.6 9.86 9.86 0 01-7.22.39zm27.19 13.76a4.8 4.8 0 005.09-1.7 4.33 4.33 0 000-5.41l-.95.37a5.43 5.43 0 01-.93 3.58 7.45 7.45 0 01-3.2 2.14z"/><path class="cls-2" d="M109.4 217.34a21.29 21.29 0 00-21.27-21.27c-11.42 0-19.37 7.92-21.26 21.2a15 15 0 003.64 12.27c4 4.61 10.59 7.37 17.62 7.37 12.33 0 21.27-8.23 21.27-19.57zm-21.27 18.57c-6.64 0-13.1-2.7-16.87-7a14 14 0 01-3.4-11.47c1.81-12.74 9.39-20.34 20.27-20.34a20.29 20.29 0 0120.27 20.27c0 10.73-8.52 18.54-20.27 18.54zm93.4-39.84a21.29 21.29 0 00-21.27 21.27c0 11.34 8.94 19.57 21.27 19.57a20.6 20.6 0 0015.56-7.39 19.78 19.78 0 004.33-16.46c-2.11-11.75-8.24-16.99-19.89-16.99zm14.79 32.81a19.56 19.56 0 01-14.79 7c-11.75 0-20.27-7.81-20.27-18.57a20.29 20.29 0 0120.27-20.27c11.07 0 16.9 5 18.91 16.16a18.83 18.83 0 01-4.12 15.68z"/><path class="cls-2" d="M94.17 217.64A7.47 7.47 0 0189.91 204a12.61 12.61 0 1010.76 12.47 13.18 13.18 0 00-.21-2.29 7.5 7.5 0 01-6.29 3.46zm92.96 0a7.48 7.48 0 01-4.27-13.64 12.48 12.48 0 00-1.85-.16 12.63 12.63 0 1012.62 12.63 12.26 12.26 0 00-.22-2.29 7.47 7.47 0 01-6.28 3.46zM100.31 245l.73.68c.13-.15 13.24-14.24 30.11-14.24h.28c9.78.09 18.93 4.88 27.19 14.23l.75-.66c-8.46-9.58-17.86-14.48-27.94-14.57h-.28c-17.3.02-30.71 14.44-30.84 14.56z"/><path class="cls-2" d="M152.9 278.44a21.08 21.08 0 01-10.44.44 1.92 1.92 0 010-.2h-.79a43.18 43.18 0 01-13.25-5.68c0-3.78 1-5.77 1.35-6.36h.29c2.11 0 4.3-1.24 6.38-3.61 3.25-3.71 5.48-9.46 4.77-12.3-.82-3.26-5.92-4.73-10.42-5-5.52-.34-11.74.92-12.95 4-.88 2.25-.08 5.89 2.09 9.49 2.37 3.93 5.61 6.57 8.78 7.24a13.92 13.92 0 00-1.29 6.55c-5.43 4-11 5.59-16.46 4.66-10.27-1.74-17-11.71-17.1-11.8l-.84.55c.29.42 7 10.35 17.66 12.21-.38 2.23-1.59 10.2.35 12.14 1.46 1.46 5.15 2.29 8.76 2 1.55-.14 4.2-.6 5.81-2.14 1 2 4.21 3.18 7.09 3.58a19.3 19.3 0 002.64.19c2.6 0 5-.57 5.73-2 1.46-3.06 1.48-9.67 1.43-12.42a24.28 24.28 0 004.5.43 20.44 20.44 0 006.23-.94c9-2.84 12.5-11.07 12.65-11.42l-.93-.39c-.03.01-3.51 8.09-12.04 10.78zm-32.11-19.77c-2-3.29-2.78-6.67-2-8.61s5-3.44 10.11-3.44c.61 0 1.22 0 1.85.06 5.21.33 9 2 9.51 4.26s-1.26 7.64-4.55 11.4c-1.44 1.63-3.66 3.52-6.12 3.25-3.67-.42-6.95-3.85-8.8-6.92zm19.37 33.22c-.58 1.21-3.8 1.77-7.33 1.27-3.69-.52-6.26-2-6.54-3.66l-.2-1.21-.06.08c-.07-1.61-.08-4.47.65-6l-.9-.43c-1.15 2.41-.7 7.35-.67 7.69-1 1.11-2.93 1.87-5.41 2.09-3.29.29-6.71-.43-8-1.68s-.74-7.4-.07-11.28c5.46.68 10.93-1 16.27-4.9a43.68 43.68 0 0013.54 5.83c.1 2.5.11 9.31-1.28 12.2zm-17.75 24.03a10.48 10.48 0 00-1.15 1.41c-1.92-.68-11-3.87-20.58-6.65-21.86-6.34-24.63-4.37-25.54-3.73-4.93 3.5-10.5 21.26-7.11 31.91 1.79 5.6 5.82 8.56 11.66 8.56a66.07 66.07 0 0038.76-12.61 5 5 0 002.06 2.25 21.5 21.5 0 009.89 2.15c4.13 0 8.26-1 10.77-3.07a8 8 0 001.43-1.66c4.36 3 23.37 15.42 35.68 15.42a13.33 13.33 0 004.24-.62c10.17-3.39 11.94-14.14 12.09-20.24.22-8.85-2.78-18.77-6-20-8.55-3.32-38.23 7.86-44 10.1-.66-2.84-1.82-4.69-3.33-5.21-6.61-2.33-15.59-1.36-18.87 1.99zm-42.72 30.5c-5.44 0-9-2.65-10.7-7.86-3.37-10.57 2.49-27.78 6.73-30.79s33.39 6.29 45 10.43c-2.27 3.84-3.68 9.81-3.07 13.94a10.58 10.58 0 00.4 1.72 64.76 64.76 0 01-38.36 12.56zm108.52-36.49c2.28.89 5.64 9.49 5.4 19.08-.14 5.84-1.81 16.12-11.41 19.32-11 3.68-34.43-11.56-39.09-14.71 1.94-3.63 2.42-9.14 1.65-13.53 5.24-2.01 35.24-13.33 43.45-10.16zm-47.31 4.9c1.16.41 2.16 2.13 2.72 4.64v.07c0 .18.09.36.12.54.77 4.13.32 9.56-1.49 13l-.55.77.07.05a7.21 7.21 0 01-1.26 1.46c-4.46 3.77-14.46 3.59-19.53.81-1.26-.7-2.06-2.11-2.36-4.2-.77-5.2 1.83-12.66 4.49-15.37 1.88-1.91 6-3 10.25-3a23.38 23.38 0 017.54 1.23z"/><path class="cls-2" d="M270 169c.77-9.08-3.12-18.9-11-27.66-9.76-10.9-24-18.16-36.26-18.48a46.37 46.37 0 00-46.49 37.81 89 89 0 00-82.36.66 46.38 46.38 0 00-46.61-38.47c-12.27.32-26.5 7.58-36.27 18.48C3.22 150.05-.67 159.87.1 169c2.13 25.19 24.65 45.71 50.34 46a70.75 70.75 0 00-2.25 17.43c0 21.59 10.5 40 28 52.5a455.44 455.44 0 00-26.86 39.71C26.23 363 18.57 389 16.24 404.26c-4.88.57-12.71 10.34-14.07 17.74-.78 4.24.55 7.18 3.82 8.52-.33 3.3-.07 6.48 1.55 8.31a5 5 0 003.87 1.57 9.7 9.7 0 002-.24 8.83 8.83 0 001.59 4.1 3.61 3.61 0 003 1.34 4.58 4.58 0 003.6-1.46c1.38-1.71.87-4.64.34-7.74a25.88 25.88 0 01-.59-6.66c.38-4 1.72-7.1 3.41-8a2.41 2.41 0 012.44.18c2.46 1.41 1.75 3.23.92 5.33-.67 1.73-1.44 3.69.47 4.92 1.73 1.12 4.24.73 6.25-1 2.58-2.2 4.38-6.74 1.68-12.88-2.82-6.43-6.8-7.91-8.3-8.25 1.53-5.36 14.21-49 24.34-59.53-3.31 45.89 7.44 73.74 17.87 100.67 2.44 6.3 4.82 12.48 7 18.8-2.53.61-5 1.29-7.31 2l-.09-.08s-.07.1-.11.14c-28.46 8.84-43 25.57-44.48 51-.59 10.35 4.1 19 13.54 25.13 10.09 6.5 22.33 8.27 28.73 8.74 1.68.13 3.37.19 5 .19 8.89 0 17.09-1.79 17.44-5.68a1.61 1.61 0 00-.44-1.33c-1.13-1.16-4.14-1-8.71-.68-1.91.12-4.08.25-6.33.29-12.08.18-24.2-5.84-30.19-14.68v-.29h-.2a22.82 22.82 0 01-1.42-2.42C39.8 526.06 38.15 516 48 503.19a36.85 36.85 0 017.75-7.34c6.63-4.75 15.54-8.41 26.31-10.78a161.22 161.22 0 014.58 24.29c-2.69-1.21-11.36-4.74-16.94-2.76a6.62 6.62 0 00-4 3.59l.67.3a11.07 11.07 0 00-6.24 2 7.66 7.66 0 00-2.95 5.81 10.45 10.45 0 00-3.46 1.92c-1.38 1.24-2.67 3.45-.9 6.92 2.07 4.09 10.66 6.38 20.09 6.38a50.64 50.64 0 0018.24-3.16c8.31-3.36 11.75-8.93 9.68-15.7-1.4-4.59-4.11-17.08-5.94-31.74a183.92 183.92 0 0139.52.09 215.61 215.61 0 0129 5.05c1.37.34 2.76.65 4.13.95v.32a202.07 202.07 0 01-5.11 25.33c-2.08 6.77 1.36 12.34 9.68 15.7a50.55 50.55 0 0018.23 3.16c9.43 0 18-2.29 20.1-6.38 1.76-3.47.48-5.68-.91-6.92a10.35 10.35 0 00-3.46-1.92 7.66 7.66 0 00-3-5.81 11 11 0 00-6.23-2l.66-.3a6.62 6.62 0 00-4-3.59c-5.57-2-14.24 1.55-16.94 2.76a159.48 159.48 0 013.07-18.17 134.46 134.46 0 0017.87 1.23 116.46 116.46 0 0012.71-.69h.05c14.66-1.62 27.35-6.07 36.25-13 6.93-5.42 11-12 11.73-19a37.19 37.19 0 00-3.62-20 4.7 4.7 0 001.08-.86c1.63-1.83 1.88-5 1.55-8.31 3.28-1.34 4.61-4.28 3.83-8.52-1.37-7.42-9.2-17.19-14.07-17.76-3-19.71-12.37-43.45-27.79-70.58a462.49 462.49 0 00-29.5-45.23c20.74-12.41 33.43-32.31 33.43-56A70.53 70.53 0 00221 215h1.76c25.11 0 44.97-19.37 47.24-46zm-268.91-.14c-.74-8.8 3.06-18.35 10.71-26.9 9.59-10.71 23.54-17.83 35.54-18.15A45.38 45.38 0 0193 161.48l.86-.14a87.86 87.86 0 00-8.29 5c-1.62-10.11-9.37-21.52-19.13-28-6.74-4.48-13.69-6-19.55-4.43-21.21 5.85-32.75 13.2-29 33.4 4.21 22.58 16.25 35.47 32.7 35.47a34.54 34.54 0 004.25-.3A77.35 77.35 0 0050.69 214c-25.28-.2-47.5-20.37-49.6-45.14zm54.21 32.57c-18.35 2.67-32-10.13-36.46-34.29-3.64-19.55 7.16-26.42 28.26-32.26 5.58-1.54 12.24 0 18.74 4.31C75.53 145.62 83.2 157 84.61 167a90.5 90.5 0 00-10.77 8.79 85.26 85.26 0 00-18.54 25.64zM68.68 481a8.19 8.19 0 005.1 5.18 65 65 0 00-18.41 8.71 7.39 7.39 0 01-7.37-2.24 8.63 8.63 0 01-2.13-7.65q9.33-7.12 23.21-11.6a10.14 10.14 0 00-.4 7.6zm6.07 69.65c2.27 0 4.45-.17 6.37-.29 3.83-.24 7.13-.45 7.94.38a.61.61 0 01.16.54c-.31 3.38-9.92 5.44-21.42 4.58a78.65 78.65 0 01-6-.66 5.24 5.24 0 002.32-1.84 4.84 4.84 0 00.63-3.92 38.49 38.49 0 009.44 1.22zm-11.18-1.52a4 4 0 01-.33 3.66 4.73 4.73 0 01-3.92 1.92v.11c-12-2.14-20.19-6.65-25.4-12.14a9.24 9.24 0 002.52.35 9 9 0 004.5-1.15 7.24 7.24 0 003.49-5.32c4.36 5.86 11.35 10.37 19.14 12.59zM42 532.74a27.27 27.27 0 001.5 2.54 6.37 6.37 0 01-3.1 5.75 8.22 8.22 0 01-8 0 25.91 25.91 0 01-6-17.94 58.22 58.22 0 012.6-14.42 9.36 9.36 0 005.94 5.77 7.33 7.33 0 002 .29 7.42 7.42 0 004.16-1.34 23.94 23.94 0 00.9 19.35zm5.19-30.16a41.4 41.4 0 00-5.37 8.91c-2.53 2.5-5 2.47-6.63 2a8.25 8.25 0 01-5.48-5.83l-.43.09a47 47 0 0115.37-21.83 10.13 10.13 0 002.6 7.41 8.21 8.21 0 006.21 2.81h.26a36.36 36.36 0 00-6.5 6.44zm28.39-16.92a7.36 7.36 0 01-6-5 8.67 8.67 0 01.91-7.78c2.32-.71 4.73-1.38 7.24-2 1.47 4.3 2.84 8.66 4.07 13.16-2.11.52-4.19 1.04-6.19 1.62zm17.88-17.81c3.45-.52 6.79-.89 10.07-1.15a10.09 10.09 0 00-3 6.89 9 9 0 003.41 7.6c-3.1.17-6.15.42-9.13.76a278 278 0 01-1.32-14.1zm2.41-37.37c8 4.86 22.21 7.9 36.81 7.9 12.52 0 25.34-2.25 34.86-7.48 3.43 12.1 3 28.78 2 41.14-3.63-.59-7.29-1.24-10.84-1.87-7.4-1.32-14.9-2.64-22.7-3.59v-.05h-.16a154.27 154.27 0 00-42.44.29c-.78-13.15-.4-26.44 2.5-36.34zm9.56 50.63v-.07a7.93 7.93 0 01-4-7.41c.13-3.05 1.75-6 3.85-7a158.1 158.1 0 0128.38.76 7.45 7.45 0 00-2.83 4.21 10.8 10.8 0 002.25 10.34 192.36 192.36 0 00-27.62-.83zm29.41.95a9.63 9.63 0 01-3-10.24c.72-2.43 2.24-4 4-4.25 7.8.94 15.29 2.27 22.68 3.58l7 1.23a8.23 8.23 0 00-3.54 5c-.84 2.85-.74 6.9 1.9 9.81h-.19a217.08 217.08 0 00-28.82-5.13zm31 5.54c-3.53-2.59-3.77-7-2.89-9.95s2.66-4.76 4.67-4.89l1.84.31v.12c-.42 4.82-1 9.82-1.72 14.88zm14.1 2.6a191.05 191.05 0 014.24-15.14 156.82 156.82 0 0016.08.88c1.18 0 2.34 0 3.51-.05a9.55 9.55 0 00-2.29 8.32 8.68 8.68 0 005.82 6.8 128.2 128.2 0 01-27.3-.81zm30.77-139.65c10.13 10.49 22.82 54.17 24.35 59.53a9.79 9.79 0 00-4.59 2.67 265.33 265.33 0 01-21.13-17.57 200.82 200.82 0 001.39-44.63zm24.44 76.72c-.82-2.1-1.53-3.92.93-5.33a2.39 2.39 0 012.43-.18c1.7.88 3 4 3.42 8a25.88 25.88 0 01-.59 6.66 18.2 18.2 0 00-.43 5.89c-2.1 3-7.24 3-9.63 2.81-3-4.8-8.69-10.12-19.44-14.77 3.33-1.21 7-5.67 8.89-11 1.72-5 1.55-9.56-.4-13.27 2.88 2.38 6.1 4.93 9.44 7.4a18.71 18.71 0 00-3 4.85c-2.69 6.14-.89 10.68 1.69 12.88 2 1.71 4.51 2.1 6.25 1 1.91-1.21 1.14-3.21.46-4.94zm-26-30.9c1.12 1 3.56 3.26 6.82 6.05 6.79 5.35 4.93 13.39 3.82 16.6-2 5.72-6.35 10.56-9.57 10.64-2.53-1-5.31-2-8.39-3a193.78 193.78 0 007.35-30.29zm-7.64 31.27c30.28 9.3 32.26 23.31 31.69 28.92-.92 9.14-9.88 16.8-20.83 17.82a139.57 139.57 0 01-27.87-.3c2.54-7.75 5.43-15.24 8.39-22.9s5.97-15.36 8.65-23.54zM246 477.88c-8.74 6.84-21.2 11.22-35.61 12.83-4.35-.52-7.24-2.95-7.92-6.68-.61-3.34.74-7 3-8.15v-.05c2.35-.09 4.69-.24 7-.45a26.33 26.33 0 0016.1-7.38c.52 3 3 6 6.59 7.79a14.78 14.78 0 006.73 1.64 15.3 15.3 0 006.25-1.37q-1.02.94-2.14 1.82zm11.35-18.28a24.61 24.61 0 01-6.5 13.75c-6.8 4.95-12.92 2.75-15.24 1.57-3.57-1.81-6.07-5-6.15-7.88a18.54 18.54 0 004.75-10.38 18 18 0 00-2.31-10.52h1.3c2.74 0 6.09-.54 8-2.73a3.11 3.11 0 00.44.69 4.55 4.55 0 003.6 1.46 3.64 3.64 0 003-1.34 8.83 8.83 0 001.62-4.08 9.79 9.79 0 002 .24 5.88 5.88 0 001.88-.3 36.22 36.22 0 013.62 19.52zm-11.17-54.79l.06.43h.43c4 0 12.11 9.26 13.52 17 .67 3.65-.34 6.09-3 7.3a56.23 56.23 0 00-2.74-10.67l-.94.35c.06.15 5.44 14.59 1.51 19-1 1.16-2.71 1.5-5 1 .89-7-1.21-17.24-1.33-17.8l-1 .2c0 .18 3.59 17.49-.23 22a2.59 2.59 0 01-2.22 1 3.66 3.66 0 01-2.87-1.09c-1.1-1.35-.63-4.06-.13-6.93a26.41 26.41 0 00.6-6.93c-.33-3.43-1.54-7.53-3.95-8.78a3.42 3.42 0 00-3.39.2c-3.21 1.84-2.18 4.46-1.36 6.57.73 1.86 1.09 3-.07 3.71-1.37.88-3.4.52-5.06-.9-2.31-2-3.9-6.08-1.42-11.71 3.21-7.32 8-7.76 8.05-7.76h.62l-.17-.59c-.59-2.12-14.63-52.07-25.73-61.43l-.92-.77.1 1.19c3.65 46.4-7.18 74.4-17.65 101.48-7.21 18.64-14 36.24-16.4 59.29l-.1.9.81-.4c.11-.05 10.85-5.27 17-3.09a5.7 5.7 0 013.32 2.93c-3.51-.15-7.92.66-13.19 2.42l.32 1c11.23-3.75 16.43-2.36 18.81-.53a6.68 6.68 0 012.54 4.69c-5.25-1.52-12.28-1.1-14.43.31l.54.84c2.56-1.67 13.77-1.68 17.72 1.85 1.65 1.49 1.88 3.36.68 5.73-3.2 6.31-24.33 7.87-37.07 2.74-5.49-2.22-11.53-6.53-9.1-14.48a201.45 201.45 0 005.15-25.48c.82-5.52 1.46-11 1.92-16.24 1.1-12.61 1.62-30.22-2-42.85a35.33 35.33 0 004.17-2.81l-.62-.79c-20.73 16.34-67.78 11.95-79.44-.14l-.72.7a19.34 19.34 0 003.47 2.77L95 430c-7.67 25.79 1.82 74.76 4.94 84.94 2.44 7.95-3.6 12.26-9.1 14.48C78.1 534.58 57 533 53.77 526.71c-1.2-2.37-1-4.24.68-5.73 3.94-3.53 15.16-3.52 17.71-1.85l.55-.84c-2.16-1.41-9.18-1.83-14.44-.31a6.66 6.66 0 012.53-4.68c2.38-1.83 7.58-3.23 18.82.52l.32-1c-5.27-1.76-9.68-2.57-13.19-2.42a5.69 5.69 0 013.33-2.93c6.12-2.18 16.86 3 17 3.09l.81.4-.09-.9c-2.39-23.05-9.2-40.65-16.41-59.29-10.47-27.08-21.3-55.08-17.64-101.48l.09-1.19-.91.77c-11.11 9.36-25.14 59.31-25.74 61.43l-.16.59h.61c.05 0 4.84.44 8.06 7.76 2.47 5.63.89 9.74-1.42 11.71-1.67 1.42-3.7 1.78-5.06.9-1.17-.75-.81-1.85-.08-3.71.83-2.11 1.85-4.73-1.36-6.57a3.42 3.42 0 00-3.39-.2c-2.41 1.25-3.62 5.35-3.95 8.78a26.84 26.84 0 00.6 6.93c.5 2.87 1 5.58-.13 6.93A3.64 3.64 0 0118 444.6a2.61 2.61 0 01-2.23-1c-3.82-4.52-.27-21.83-.23-22l-1-.2c-.12.56-2.22 10.84-1.33 17.8-2.25.48-3.93.14-5-1-3.93-4.41 1.45-18.85 1.5-19l-.93-.35a54.61 54.61 0 00-2.66 10.65c-2.63-1.21-3.64-3.65-3-7.3 1.42-7.7 9.51-17 13.52-17h.43l.07-.43c4.07-27.31 20.2-58.4 33-79.66A454 454 0 0177 285.47c15.19 10.55 35.49 16.72 58.71 16.72 20.53 0 38.78-4.82 53.24-13.22 46.33 62.19 55.52 104.36 57.24 115.84zm-57-117.18l-.12-.16-.81.6.06.08c-14.29 8.29-32.33 13-52.63 13-50.14 0-86.54-28.93-86.54-68.78 0-20.19 9.24-40.57 25.34-55.92a88.32 88.32 0 01122.4 0c16.1 15.35 25.33 35.73 25.33 55.92.05 23.43-12.49 43.04-32.98 55.26zm8.39-111.86a91.3 91.3 0 00-12.11-9.77c2.25-16.51 19.22-30.25 35.74-28.88 13.78 1.14 23.26 5 28.17 11.43 3.74 4.9 4.89 11.41 3.41 19.36-4.68 25.15-16.3 36.5-34.53 33.72l-2.13-.32a85.56 85.56 0 00-18.5-25.54zm19 26.67l1.47.22a36.79 36.79 0 005.42.43c15.75 0 25.92-11.73 30.24-35 1.54-8.24.33-15-3.59-20.15-5.1-6.67-14.81-10.65-28.88-11.82-16.87-1.39-34.16 12.48-36.74 29.26-2.38-1.56-4.83-3-7.33-4.31a45.32 45.32 0 0145.53-37.3c12 .32 26 7.44 35.54 18.15 7.66 8.55 11.46 18.1 10.71 26.9C266.78 195 247.34 214 222.76 214h-2a76 76 0 00-4.13-11.56z"/><path d="M628.19 136.81a26.67 26.67 0 01-5.72 21.42 27 27 0 01-21.52 9.9c-8.57-.17-16.81-3.68-21.8-9.82s-6.46-14.28-5.08-21.47a29 29 0 0110.77-17.42 31.73 31.73 0 018.34-4.56 34.21 34.21 0 018.65-1.63c5.63.31 12.15 1.28 17.24 5.29s7.93 10.78 9.12 18.29zm-8.52 4.64a18.4 18.4 0 00-.33-3.36 11 11 0 11-15.53-15 16.76 16.76 0 00-2.76-.22 18.6 18.6 0 1018.62 18.59zM492 137.29c1.33 7.31-.3 15.61-5.63 21.57s-13.71 9.35-22.35 9.3-17.27-3.29-22.78-9a19.92 19.92 0 01-5.21-10 19.4 19.4 0 01-.2-5.54 43.63 43.63 0 011-5.69c1.71-7.44 5.27-14 10.33-18.31s11.35-6.09 17-6.37a34.51 34.51 0 018.74 1.66 29.89 29.89 0 018.39 4.66A29 29 0 01492 137.29zm-9.34 4.16a18.4 18.4 0 00-.33-3.36 11 11 0 11-15.56-15 16.31 16.31 0 00-2.73-.22 18.6 18.6 0 1018.62 18.59z" fill="#fff"/><path class="cls-4" d="M538.91 191.16a3 3 0 01.7 1.7 3.66 3.66 0 010 1.1 6.1 6.1 0 01-.17 1.28 29.15 29.15 0 01-5.16 10.85c-2.48 3.28-6.09 6.44-9.22 5.74-3.74-.58-7.22-3.71-9.78-7s-4.43-7.24-4.81-10.72a4.33 4.33 0 01-.05-1.23 3 3 0 01.13-1.1 2.5 2.5 0 01.88-1.55 11.61 11.61 0 014.33-2.28 37.74 37.74 0 019.65-1.68 35.8 35.8 0 019.52 2.23 10.85 10.85 0 013.98 2.66z"/><path d="M522.33 227.54l.47-.3a.09.09 0 01.08 0l.42.23 1 .58a61.45 61.45 0 008.2 4.18c1.4.58 2.75 1.2 4.16 1.7s2.88.81 4.28 1.18c.45.1.88.2 1.33.28.07 4.08 0 13.08-1.9 17-.66 1.38-4.94 2.36-10.25 1.61-5.14-.73-8.85-2.73-9.22-5l-.4-2.48c-.08-2.53 0-5.91.92-7.74l-2.25-1.08c-1.63 3.41-1.15 10-1 11.4-1.41 1.46-4.09 2.43-7.47 2.73-4.66.43-9.62-.6-11.35-2.33-1.6-1.58-1-9.57-.05-15.46a29.54 29.54 0 0010.7-.72c2.95-.55 5.66-2 8.47-3.26 1.22-.82 2.53-1.67 3.86-2.52z" fill="#fafbfc"/><path class="cls-6" d="M658.15 424.58a24.13 24.13 0 01-.22 13 36.22 36.22 0 01-5.79 12 18.61 18.61 0 01-5.84 5.42c-5.39-2.36-9.54-3.71-12.08-4.56l-.25-.08h-.05c2.61-8.2 4.91-16.67 6.82-25.41 1.08-4.91 2-9.9 2.81-15 2.93 2.63 7.69 6.87 13.45 11.63a18.82 18.82 0 011.15 3z"/><path class="cls-6" d="M665.87 445.4a16.82 16.82 0 00.25 6 14.24 14.24 0 002.53 5.41 12.19 12.19 0 004.66 3.69 8.1 8.1 0 006.17.35 5.51 5.51 0 002.75-2.16 4 4 0 00.63-1.83 6 6 0 00-.08-1.65 36.35 36.35 0 00-1.6-4.83c-.5-1.41-.68-2.64-.25-3.46a3.41 3.41 0 011-1.18l.75-.53c.25-.15.5-.25.75-.37a2.57 2.57 0 012.65.47 8.54 8.54 0 012.11 3 25.32 25.32 0 011.9 7.74c.4 5.16-1.32 10.25-1.6 15.66a10.49 10.49 0 00.65 4.33c-1.55.7-3.73 1.43-6 2.21a51.9 51.9 0 01-5.59 1.55 43.79 43.79 0 00-4.68-6.89 57.92 57.92 0 00-6.89-6.59 74.4 74.4 0 00-13.74-8.64c-1.17-.58-2.3-1.11-3.38-1.61a20.37 20.37 0 005.64-4.61 32.8 32.8 0 006.89-13 25 25 0 00.18-13.23c3.05 2.49 6.33 5 9.69 7.52-.42.5-.77 1-1.13 1.55a28 28 0 00-4.26 11.1zm18.34 36.23a14.08 14.08 0 006.11-3.73l.15.17a6.75 6.75 0 002 1.2 7.34 7.34 0 002.08.51 8.73 8.73 0 002.13.07 6 6 0 003.94-2.05c1.85-2.18 2.28-4.64 2.68-6.87a9.94 9.94 0 003.11.4h.12a55 55 0 015.51 19 48.33 48.33 0 01-.12 9.92 30.29 30.29 0 01-2.66 9.27 42.66 42.66 0 01-8.92 12.3 18.65 18.65 0 01-4.39 1.38 21.82 21.82 0 01-10.37-.32c-6.47-1.81-11.33-6.49-12.73-10.8a30.92 30.92 0 005.31-7.67 26.2 26.2 0 00.55-22 14.9 14.9 0 005.5-.78z"/><path class="cls-6" d="M684.61 526.3a21.05 21.05 0 0010.12.36 78 78 0 01-15 8.69c-11.85 5.26-24.75 8.17-37.78 9.5a13.61 13.61 0 01-3.44-1.83 11.64 11.64 0 01-4.43-6c-1.4-5 .05-10.2 2.55-12.58 3.61-.07 7.25-.25 10.8-.53a41.77 41.77 0 0012.56-3 38 38 0 0011.25-7.16c1.17 5.11 6.33 10.63 13.37 12.55z"/><path class="cls-6" d="M632.47 524.45h1.15c-2.85 2.88-4.51 8.24-3 13.58a12.89 12.89 0 005.81 7.31 190.16 190.16 0 01-35.37-1.05l.07-.3q1.54-5.49 3.11-11.28 1.43-4.8 3.13-9.79c.3.05.63.07 1 .12a212.72 212.72 0 0024.1 1.41zm-51.06 4.31c-.5 3.56-.93 7.22-1.41 10.9l-2.85-.68a12.48 12.48 0 01-1.43-2.8 15.42 15.42 0 01-.7-7c.52-4.48 2.7-8.37 5.41-9.62.7.13 1.4.25 2.1.35l-.07.75c-.35 2.69-.7 5.34-1.05 8.1z"/><path class="cls-6" d="M573.36 538.08a320.06 320.06 0 00-41.69-7 15.25 15.25 0 01-1.43-2.66 15.9 15.9 0 01-1.12-6.84c.17-4.33 2-8.11 4.51-9.52 11.8 1.41 23.1 3.41 34.25 5.39 3 .53 6 1.08 9 1.58a7.91 7.91 0 00-2 1.78A15.43 15.43 0 00573 537.4z"/><path class="cls-6" d="M530 511.62a8.75 8.75 0 00-1.58 1.58 14.51 14.51 0 00-2.85 8.19 15 15 0 002 8.35 6.73 6.73 0 00.68 1 285.17 285.17 0 00-40-.85 11.24 11.24 0 01-1.9-2.68 12.84 12.84 0 01-1.38-6.26c.12-4.34 1.93-8.22 4.08-10.23a229.58 229.58 0 0140.95.9z"/><path class="cls-6" d="M475.4 530.89c-.81-6.19-1.43-12.2-1.91-18 0-.17 0-.32-.05-.5 4.11-.62 8.12-1.07 12.05-1.4a14.37 14.37 0 00-4.06 9.87 12.78 12.78 0 002.38 7.95 11.73 11.73 0 001.11 1.27c-3.21.18-6.39.46-9.52.81zm-23.96 4.16c-1.93.48-4.63 1.15-8 2.18a12.48 12.48 0 01-2.31-1.58 11.63 11.63 0 01-3.35-5.21 15.33 15.33 0 01.35-10.65q3.23-1 6.64-2c1.05-.3 1.88-.53 2.53-.73 1.83 5.16 3.51 10.2 5 15.13.23.85.46 1.68.71 2.51l-.68.15z"/><path class="cls-6" d="M439.39 538.08c.18.1.35.2.53.28-3 1-6.24 2.25-9.83 3.81a80 80 0 00-16.53 9.59 11.09 11.09 0 01-7.86-4 15.55 15.55 0 01-3.81-9.42c2.1-1.68 4.26-3.26 6.51-4.73a119 119 0 0126.84-12.83 13.91 13.91 0 00-.78 10.8 12 12 0 004.93 6.5zm-45.83 7.82c1.88-2 3.86-3.84 5.92-5.61a14 14 0 003.53 9.79 12.12 12.12 0 007.12 4.09 2 2 0 00.35.05 48 48 0 00-5.37 5.26 65.25 65.25 0 00-7.09 9.87 53.77 53.77 0 00-3.83 7.94 11.86 11.86 0 01-2.71 1.11 9.14 9.14 0 01-5.61-.3 14.64 14.64 0 01-7.42-6.64 70.08 70.08 0 014.29-10.33 72.26 72.26 0 0110.82-15.23zm-16.11 28.76a12.82 12.82 0 007.22 6.79 10.31 10.31 0 007.84-.22l.4-.2a37.36 37.36 0 00-1.45 14.13 36.74 36.74 0 006.46 17.46 10.41 10.41 0 01-1.07 2.81 9.19 9.19 0 01-4.09 3.86 14.39 14.39 0 01-9.17 1 35.37 35.37 0 01-9.29-24.73 84.43 84.43 0 013.15-20.9zm52.85 58.48c.8.18 1.6.33 2.4.48a61.27 61.27 0 0015.69.73l8.71-.63a35.41 35.41 0 016.67 0c1.18.18 1.7.58 1.85.86a.55.55 0 01.15.4l-.1.23.1.07a2.28 2.28 0 01-.25.75 5.27 5.27 0 01-1.53 1.66c-4.41 3.2-15.61 4.66-28.49 3.68-2.63-.22-5.21-.5-7.72-.88a7.85 7.85 0 001.43-1.4 6.54 6.54 0 001.36-4.66 5.32 5.32 0 00-.27-1.29zM400 615.3a47.87 47.87 0 005.16 5.34 56.71 56.71 0 0022.62 11.85 7 7 0 01-1.35 4.44 9.7 9.7 0 01-3.61 2.7 100.32 100.32 0 01-10.77-2.7c-10.4-3.26-18.59-7.6-25.06-13.28a13 13 0 007.4-1.18 10.3 10.3 0 005.23-5.84c.13-.45.26-.9.38-1.33z"/><path d="M727.18 65c.18 1.61.05 3.23.1 4.84a79.23 79.23 0 01-3.68 19.62 82.09 82.09 0 01-8.29 17.29 78.94 78.94 0 01-11.93 13.73 67 67 0 01-14.26 9.44c-9 4.56-18.56 6.22-27.28 6.62a112.3 112.3 0 00-5.39-15.24c6.39.93 13.55 1.38 21-.5A39.16 39.16 0 00701 103.54 62.6 62.6 0 00708 89a83.49 83.49 0 003.91-16.34A38.42 38.42 0 00710.32 55a41.44 41.44 0 00-9.7-15.5c-8.74-8.92-20.19-13.76-31.24-16.42A81.52 81.52 0 00652.69 21a41.54 41.54 0 00-15.91 3.34 45.37 45.37 0 00-12.9 8.31 51.22 51.22 0 00-9.27 10.9 55.23 55.23 0 00-8.05 20.68c-3.18-2-6.36-3.81-9.59-5.44a61.34 61.34 0 014.26-12.2 67.33 67.33 0 013.65-7c.71-1.15 1.51-2.23 2.26-3.38l1.15-1.68 1.3-1.63A64.63 64.63 0 01621.9 21a77.37 77.37 0 017.51-4.88l4.11-2c1.36-.73 2.86-1.15 4.29-1.78a65.47 65.47 0 0118.56-4 56.86 56.86 0 0119.47 2.3 71.26 71.26 0 0118.82 8.72A81.58 81.58 0 01711.22 33a69.23 69.23 0 0111.93 17.49c.62 1.6 1.43 3.13 1.93 4.76s.92 3.23 1.37 4.84c.26 1.6.55 3.23.73 4.91zM465.37 46.54a64.94 64.94 0 014.49 13.1c-3.33 1.8-6.64 3.76-9.9 5.86-2.8-14.13-12.9-29.69-29.64-39.18a39.85 39.85 0 00-15.13-5l-2.06-.25h-2.1a19.59 19.59 0 00-4.24.35 61 61 0 00-8.12 2.05 112 112 0 00-15.88 6.19 56.19 56.19 0 00-14.58 10.24A35.42 35.42 0 00359 55.31a43.75 43.75 0 00-1.1 17.31c.22 1.4.4 2.81.63 4.18s.6 2.68.9 4c.55 2.68 1.48 5.26 2.23 7.84a67.28 67.28 0 006.91 14.21 47.2 47.2 0 0010.4 10.9 40.61 40.61 0 0012.7 6.11 54.44 54.44 0 0020.5 1.38 115.07 115.07 0 00-5.36 15.18 74.5 74.5 0 01-27.09-7.64 75.43 75.43 0 01-27-22.7 77.35 77.35 0 01-9.2-16.79 69.16 69.16 0 01-4.2-19.29 40.73 40.73 0 014.08-19.34 69.37 69.37 0 0111.88-17.54 83.35 83.35 0 0116.56-13.73 89.51 89.51 0 019.2-5.11l4.78-2c1.58-.67 3.23-1.07 4.84-1.62a57.09 57.09 0 0119.52-2.33 65.55 65.55 0 0118.56 4A60.06 60.06 0 01444.65 21 63 63 0 01457 32.86l1.3 1.62 1.18 1.68c.75 1.16 1.55 2.23 2.26 3.39a66.61 66.61 0 013.63 6.99z" fill="#7686a6"/><path class="cls-6" d="M707 56.13a35.08 35.08 0 011.5 16.14A83.59 83.59 0 01704.91 88a60.48 60.48 0 01-6.42 13.9 36.94 36.94 0 01-21.67 16.59c-7.34 2.11-14.56 1.76-21.17 1a116.43 116.43 0 00-6.77-12.7 131.05 131.05 0 00-34.68-37.45c-2-1.48-4.08-2.88-6.16-4.21a54 54 0 018.55-20.32 49.66 49.66 0 019.09-10.18 42 42 0 0112.25-7.56 38.23 38.23 0 0114.74-2.88 76.93 76.93 0 0115.93 2.23C679.17 29 690 33.73 698.09 42A37.72 37.72 0 01707 56.13z"/><path class="cls-6" d="M707 56.13a35.08 35.08 0 011.5 16.14A83.59 83.59 0 01704.91 88a60.48 60.48 0 01-6.42 13.9 36.94 36.94 0 01-21.67 16.59c-7.34 2.11-14.56 1.76-21.17 1a116.43 116.43 0 00-6.77-12.7 131.05 131.05 0 00-34.68-37.45c-2-1.48-4.08-2.88-6.16-4.21a54 54 0 018.55-20.32 49.66 49.66 0 019.09-10.18 42 42 0 0112.25-7.56 38.23 38.23 0 0114.74-2.88 76.93 76.93 0 0115.93 2.23C679.17 29 690 33.73 698.09 42A37.72 37.72 0 01707 56.13zM458.53 66.46c-1.37.92-2.75 1.87-4.13 2.88a131.19 131.19 0 00-34.68 37.43 114.81 114.81 0 00-6.79 12.75 53.94 53.94 0 01-20.62-1.88 38.62 38.62 0 01-11.78-6 44.4 44.4 0 01-9.53-10.41 66.54 66.54 0 01-6.37-13.6c-.67-2.48-1.55-5-2-7.57-.27-1.28-.57-2.58-.85-3.88s-.35-2.63-.55-4a40.75 40.75 0 011.08-15.91 32.47 32.47 0 018.39-13.91c8-8 18.74-12.33 29-15.68a60 60 0 017.66-2 17.43 17.43 0 013.76-.35l1.88-.05 1.86.2A37.93 37.93 0 01428.92 29a54.09 54.09 0 0111.62 8.19 65.43 65.43 0 019 10 54.61 54.61 0 018.99 19.27z"/><path class="cls-8" d="M571.94 53.23A134 134 0 01611 73.7a128.94 128.94 0 0132.65 36.3 111.1 111.1 0 0112.8 31 104 104 0 012.83 18.74A96.71 96.71 0 01657 186.1a89.65 89.65 0 01-9.57 23.8A101.44 101.44 0 01613.2 244l-.17.1a141.37 141.37 0 01-40.67 16.69 183.81 183.81 0 01-38.06 4.91 184 184 0 01-38.06-4.91A141.92 141.92 0 01455.43 244c-2.48-1.53-4.94-3.16-7.35-4.91a99.4 99.4 0 01-26.88-29.19 89 89 0 01-9.57-23.8 95.55 95.55 0 01-2.28-26.41 105.07 105.07 0 012.8-18.64A110.82 110.82 0 01425 110a128.33 128.33 0 0132.63-36.3 133.37 133.37 0 0139-20.47 138.48 138.48 0 0119.39-4.71 143.86 143.86 0 0118.24-1.73 143.35 143.35 0 0118.24 1.73 137.6 137.6 0 0119.44 4.71zm-52.7 198.24c1.63 2.48 5.37 4.28 10.53 5a31.4 31.4 0 004 .27c4 0 7.74-.92 8.84-3.28 2-4.28 2.23-13.15 2.16-17.64a30.86 30.86 0 0012.87-.32 29.53 29.53 0 0012.86-6.89 33 33 0 007.09-9.52c.52-1.08.67-1.93.45-2s-.7.55-1.33 1.52a34.1 34.1 0 01-7.57 8.45A27.9 27.9 0 01557 232.7a30.71 30.71 0 01-12.18-.15 61.51 61.51 0 01-18.74-7.55l-2-1.15a19.77 19.77 0 011.13-6.62 9.8 9.8 0 003.81-.42 13.5 13.5 0 003.93-2 24.69 24.69 0 005.46-5.66 31.65 31.65 0 005.49-13.18 11 11 0 00.12-1.86 9.26 9.26 0 00-.17-2 7.38 7.38 0 00-1.93-3.64 13.63 13.63 0 00-5.81-3.26 32.16 32.16 0 00-10.63-1.21 35.17 35.17 0 00-10.67.5 14.89 14.89 0 00-6 2.63 8.52 8.52 0 00-1.41 1.46 6.17 6.17 0 00-.95 2 6.06 6.06 0 00-.4 2 9.23 9.23 0 00-.08 1.88c.3 5 2.38 9.37 5.22 13.48a28.69 28.69 0 005.31 5.63 17.75 17.75 0 006.21 3.24 22.79 22.79 0 00-1.13 7.06l-1.27.8-3.6 2.32c-2.53 1.15-5 2.55-7.61 3.08A27.39 27.39 0 01494 230a38.43 38.43 0 01-12-6.32 57.58 57.58 0 01-8.42-7.77c-.78-.87-1.38-1.42-1.58-1.3s.1.93.8 1.9a47.31 47.31 0 007.92 8.77 37.68 37.68 0 0012.51 7.42 23.48 23.48 0 003.55 1c-.7 4.34-2.08 14.79.78 17.64 2.68 2.68 8.79 3.46 13.33 3.06 2.19-.25 5.85-.9 8.35-2.93zm113.21-102.38a31.73 31.73 0 00.17-13.08 41.68 41.68 0 00-3.86-11.5 25.23 25.23 0 00-7.59-8.82 25.5 25.5 0 00-9.85-4.08 44.84 44.84 0 00-9.49-.66 34.36 34.36 0 00-9.52 1.11 32.27 32.27 0 00-22.9 36.94 28.17 28.17 0 005.78 12.55 30.54 30.54 0 0011.35 8.75 37.54 37.54 0 0014.29 3.15 31.56 31.56 0 0025.6-12 30.74 30.74 0 006.02-12.36zM568.63 184c.15-.15-.13-.75-.73-1.51a60.8 60.8 0 00-15.46-14 46.41 46.41 0 00-26.58-7.39c-10.17.37-19.24 4-26.31 8.24a69.49 69.49 0 00-16.16 13.23c-.63.7-.93 1.33-.75 1.48s.75-.18 1.45-.78a93 93 0 0116.84-11.42c7-3.71 15.66-6.87 25.05-7.22a47.7 47.7 0 0125 6.31 76.78 76.78 0 0116.16 12.31c.71.59 1.31.92 1.49.75zm-72.21-34.35a32.33 32.33 0 00-13-32.95 31.46 31.46 0 00-9.64-4.61 41.46 41.46 0 00-19.27 0 27.45 27.45 0 00-9.6 4.78c-6 4.56-10.37 11.88-12.5 20a48.64 48.64 0 00-1.25 6.27 23.67 23.67 0 006.34 19.56c6.66 7.1 16.51 10.73 26.48 10.85s20-3.83 26.26-11.3a29 29 0 006.18-12.58z"/><path class="cls-8" d="M571.94 53.23A134 134 0 01611 73.7a128.94 128.94 0 0132.65 36.3 111.1 111.1 0 0112.8 31 104 104 0 012.83 18.74A96.71 96.71 0 01657 186.1a89.65 89.65 0 01-9.57 23.8A101.44 101.44 0 01613.2 244l-.17.1a141.37 141.37 0 01-40.67 16.69 183.81 183.81 0 01-38.06 4.91 184 184 0 01-38.06-4.91A141.92 141.92 0 01455.43 244c-2.48-1.53-4.94-3.16-7.35-4.91a99.4 99.4 0 01-26.88-29.19 89 89 0 01-9.57-23.8 95.55 95.55 0 01-2.28-26.41 105.07 105.07 0 012.8-18.64A110.82 110.82 0 01425 110a128.33 128.33 0 0132.63-36.3 133.37 133.37 0 0139-20.47 138.48 138.48 0 0119.39-4.71 143.86 143.86 0 0118.24-1.73 143.35 143.35 0 0118.24 1.73 137.6 137.6 0 0119.44 4.71zm-52.7 198.24c1.63 2.48 5.37 4.28 10.53 5a31.4 31.4 0 004 .27c4 0 7.74-.92 8.84-3.28 2-4.28 2.23-13.15 2.16-17.64a30.86 30.86 0 0012.87-.32 29.53 29.53 0 0012.86-6.89 33 33 0 007.09-9.52c.52-1.08.67-1.93.45-2s-.7.55-1.33 1.52a34.1 34.1 0 01-7.57 8.45A27.9 27.9 0 01557 232.7a30.71 30.71 0 01-12.18-.15 61.51 61.51 0 01-18.74-7.55l-2-1.15a19.77 19.77 0 011.13-6.62 9.8 9.8 0 003.81-.42 13.5 13.5 0 003.93-2 24.69 24.69 0 005.46-5.66 31.65 31.65 0 005.49-13.18 11 11 0 00.12-1.86 9.26 9.26 0 00-.17-2 7.38 7.38 0 00-1.93-3.64 13.63 13.63 0 00-5.81-3.26 32.16 32.16 0 00-10.63-1.21 35.17 35.17 0 00-10.67.5 14.89 14.89 0 00-6 2.63 8.52 8.52 0 00-1.41 1.46 6.17 6.17 0 00-.95 2 6.06 6.06 0 00-.4 2 9.23 9.23 0 00-.08 1.88c.3 5 2.38 9.37 5.22 13.48a28.69 28.69 0 005.31 5.63 17.75 17.75 0 006.21 3.24 22.79 22.79 0 00-1.13 7.06l-1.27.8-3.6 2.32c-2.53 1.15-5 2.55-7.61 3.08A27.39 27.39 0 01494 230a38.43 38.43 0 01-12-6.32 57.58 57.58 0 01-8.42-7.77c-.78-.87-1.38-1.42-1.58-1.3s.1.93.8 1.9a47.31 47.31 0 007.92 8.77 37.68 37.68 0 0012.51 7.42 23.48 23.48 0 003.55 1c-.7 4.34-2.08 14.79.78 17.64 2.68 2.68 8.79 3.46 13.33 3.06 2.19-.25 5.85-.9 8.35-2.93zm113.21-102.38a31.73 31.73 0 00.17-13.08 41.68 41.68 0 00-3.86-11.5 25.23 25.23 0 00-7.59-8.82 25.5 25.5 0 00-9.85-4.08 44.84 44.84 0 00-9.49-.66 34.36 34.36 0 00-9.52 1.11 32.27 32.27 0 00-22.9 36.94 28.17 28.17 0 005.78 12.55 30.54 30.54 0 0011.35 8.75 37.54 37.54 0 0014.29 3.15 31.56 31.56 0 0025.6-12 30.74 30.74 0 006.02-12.36zM568.63 184c.15-.15-.13-.75-.73-1.51a60.8 60.8 0 00-15.46-14 46.41 46.41 0 00-26.58-7.39c-10.17.37-19.24 4-26.31 8.24a69.49 69.49 0 00-16.16 13.23c-.63.7-.93 1.33-.75 1.48s.75-.18 1.45-.78a93 93 0 0116.84-11.42c7-3.71 15.66-6.87 25.05-7.22a47.7 47.7 0 0125 6.31 76.78 76.78 0 0116.16 12.31c.71.59 1.31.92 1.49.75zm-72.21-34.35a32.33 32.33 0 00-13-32.95 31.46 31.46 0 00-9.64-4.61 41.46 41.46 0 00-19.27 0 27.45 27.45 0 00-9.6 4.78c-6 4.56-10.37 11.88-12.5 20a48.64 48.64 0 00-1.25 6.27 23.67 23.67 0 006.34 19.56c6.66 7.1 16.51 10.73 26.48 10.85s20-3.83 26.26-11.3a29 29 0 006.18-12.58z"/><path class="cls-8" d="M467.7 331.85a91.3 91.3 0 0039.22-17.22c.25-.2.47-.37.67-.55a5 5 0 00.85 1.41l.86 1.07c.35.3.72.6 1.1.88a17.69 17.69 0 004.31 2.15 35.59 35.59 0 009.07 1.86 39.35 39.35 0 009.59-.45 22.41 22.41 0 009.63-3.94 13.91 13.91 0 003-3.25 177.27 177.27 0 0015.71 10.37 124.12 124.12 0 0021.07 10.05 50.24 50.24 0 0013.11 2.8 21.55 21.55 0 007.39-.72 24.83 24.83 0 006.84-3.21 26.36 26.36 0 009.62-12 43.48 43.48 0 003.26-15.19 64 64 0 00-1.23-15.21c-1.08-4.91-2.35-9.62-5.36-14.13a8.38 8.38 0 00-3.73-3.1 16.76 16.76 0 00-3.94-.81 35.05 35.05 0 00-7.14.21 99.2 99.2 0 00-12.85 2.45 278 278 0 00-39.82 14.08.87.87 0 000-.22 18.47 18.47 0 00-1.75-4.44A8 8 0 00543 281a36.71 36.71 0 00-15.88-1.25c-4.87.7-9.55 2.05-12.71 5.36a18 18 0 00-2 2.38 15.68 15.68 0 00-1.88-.93A368.2 368.2 0 00470 272.79c-4.08-1.08-8.34-2.1-12.85-2.86a54.25 54.25 0 00-7.09-.65 18.79 18.79 0 00-2 .1l-1 .13-1.13.27a7.07 7.07 0 00-2.33 1.16 9.63 9.63 0 00-1.6 1.5 27.42 27.42 0 00-4.24 6.51 57.23 57.23 0 00-2.9 7 71.84 71.84 0 00-3.41 15 49.56 49.56 0 00.37 15.61 27.11 27.11 0 002.68 7.49 18.16 18.16 0 005.39 6.11c4.46 3.34 10.27 3.56 14.61 3.23a59 59 0 006.69-.52l3.28-.38c1.1-.27 2.18-.44 3.23-.64zM347.21 468.08c-1.63-1.86-2-5.34-1.8-9 .5-7.35 2.15-14 2.8-18.32.05-.38 0-.68-.25-.75s-.5.07-.7.42a46.15 46.15 0 00-4.79 13.71 8.55 8.55 0 01-1.6-1.63 9 9 0 01-1.2-6.26 24.29 24.29 0 011.95-6.77 45.47 45.47 0 016.94-11.1 28.72 28.72 0 017.27-6.41 9.63 9.63 0 011.33-.63l.67-.22a3.74 3.74 0 001.16-.46 4.19 4.19 0 001.88-2.18 2.33 2.33 0 01.12-.3l3-14.5a25.78 25.78 0 01.73-2.78c.17-.56.32-1.11.48-1.63l.82-2.91c1.43-5 2.78-9.77 4.59-14.38l3-8.27c.68-1.75 1.41-3.48 2.13-5.19.4-.92.78-1.83 1.16-2.75l3.23-7.72 3.51-7.44a507.46 507.46 0 0127.58-50.49c8.8-14.26 16.94-25.93 23-34.5 6.44-9 11.32-15.31 13.7-18.32l.86-1.1c1.27.85 2.58 1.63 3.88 2.41a141.79 141.79 0 0042.7 16.28 173.92 173.92 0 0039 3.51 173.91 173.91 0 0039-3.51A142.82 142.82 0 00611.72 251l.41.53c3.8 5 9.74 12.93 17.43 24.13C640 291 649.31 305.89 657.9 321.2c8.27 14.83 20.32 37.58 29.14 63.49 1.91 5.11 3.33 10.35 4.89 15.88l.65 2.38c.55 2 .95 4.06 1.35 6.07.23 1.15.45 2.28.7 3.43l1 4.81a4.91 4.91 0 002.15 3.23 6.82 6.82 0 001.53.76l.33.12a4 4 0 01.65.3 24.84 24.84 0 017.06 5.91 45.82 45.82 0 015.64 7.85 33.25 33.25 0 013.63 8.82c.58 2.5.91 6-.87 8.34a9.9 9.9 0 01-2.33 2.16 57 57 0 00-4.26-14.21c-.15-.35-.35-.55-.45-.5s-.1.3 0 .67a116.24 116.24 0 013.21 15.66c.1.88.2 1.78.25 2.71.17 3.68-.18 7.44-2.21 9.52-1.83 1.88-4.53 1.91-6.54 1.73a42.52 42.52 0 00.3-6.21 90.56 90.56 0 00-1.15-12.36c-.75-4.88-1.85-8.14-2.3-8.06s-.15 3.48.4 8.34a100.13 100.13 0 01.67 12.08 40.85 40.85 0 01-.5 6.31c-.4 2-1 4.21-2.2 5.54a3.21 3.21 0 01-2.18 1.07A5.76 5.76 0 01695 477a4.2 4.2 0 01-1.4-.38 2.77 2.77 0 01-1.75-1.67 7.05 7.05 0 01-.35-3.11c.25-4.74 2.13-10 1.75-16a28.15 28.15 0 00-2.15-8.84 11.52 11.52 0 00-3-4.19 5.91 5.91 0 00-5.83-1.05 9.38 9.38 0 00-2.46 1.43 6.58 6.58 0 00-1.9 2.4 7.76 7.76 0 00.12 5.79 39.67 39.67 0 011.51 4.36 1.52 1.52 0 01-.13 1.23 2.39 2.39 0 01-1.13.83c-2.2.85-5.33-.63-7.11-3a10.94 10.94 0 01-2-4.16 13.17 13.17 0 01-.2-4.86 24.82 24.82 0 013.69-9.78c2-3 4.48-5.66 8.16-6.84a2.8 2.8 0 002-3c-.07-.83-.17-1.68-.25-2.53-.27-1.6-.55-3.31-1-5-.73-3.43-1.68-7.07-2.76-10.95-2.18-7.74-5-16.36-8.41-25.51a203.34 203.34 0 00-12.91-28.41c-1.3-2.43-2.88-4.74-4.38-7.09l-2.58-3.41-.66-.85a3.79 3.79 0 00-1.15-.93 3.59 3.59 0 00-3-.32 3.41 3.41 0 00-2.31 2.05 3.61 3.61 0 00-.28 1.53v1.1l.07 4.21c0 2.83.05 5.69.08 8.52a339.86 339.86 0 01-4.08 48.31c-.93 5.76-2 11.42-3.34 17-4.68 20.6-11.67 39.64-18.51 57.43s-12.99 34.45-17.35 50.16c-1 4-1.93 7.81-2.85 11.55s-1.46 7.46-2.16 11.05c-.32 1.78-.62 3.53-1 5.26s-.4 3.46-.6 5.16c-.5 4.23-1 8.32-1.45 12.25a.19.19 0 00.07.13c2.28-1.11 4.44-2.13 6.34-2.91.48-.17 1-.37 1.43-.55.32-.13.65-.25.95-.35.65-.23 1.25-.45 1.85-.65a46.81 46.81 0 016.42-1.71 22.45 22.45 0 019.35-.15 10.54 10.54 0 015.71 3.64 43.27 43.27 0 00-18.76 4.36c-.36.15-.56.37-.51.55s.38.25.76.2c4.28-.65 11-2.38 18.41-2.28 3.63.2 7 1 9.22 2.93a10.8 10.8 0 013.46 5.41 35 35 0 00-5.84-1 40.43 40.43 0 00-11.45.63c-2.45.45-4 1.7-3.71 2s1.63-.25 4-.5a41.57 41.57 0 0110.92.23 32.44 32.44 0 015.74 1.33 15 15 0 015.16 2.75 4.92 4.92 0 011.78 4.64 9.58 9.58 0 01-.95 2.75c-.25.41-.53.73-.78 1.13l-1.08 1a20 20 0 01-6 2.94 45.26 45.26 0 01-7.11 1.65 79.92 79.92 0 01-15.59.73 78.37 78.37 0 01-16.26-2.43 46.35 46.35 0 01-7.84-2.81 25.77 25.77 0 01-6.86-4.36 13.53 13.53 0 01-4.11-6.31 14.27 14.27 0 01.27-7.67c3.51-12.3 5.49-24.26 7.22-35.83.77-5.76 1.3-11.45 1.9-17 .3-2.75.58-5.46.85-8.17s.41-5.33.56-7.94c1.07-20.87-.13-39.29-4-52.92a18.88 18.88 0 00-1-2.8 38.48 38.48 0 004.63-3.54c.93-.8 1.41-1.52 1.18-1.8s-1 0-2 .58c-5.82 3.6-14 6.94-23.76 9.24a147 147 0 01-33.32 3.36 163.55 163.55 0 01-33.37-3.53c-9.83-2.18-18.19-5.17-23.66-9.1-.9-.73-1.7-1.05-1.95-.8s.15 1 1 1.93a26 26 0 003.48 3 14.49 14.49 0 00-1.38 3.54 102.22 102.22 0 00-2.48 11.07c-.5 4-1.18 8.2-1.4 12.66a225.23 225.23 0 00-.15 29.16c.55 10.45 1.63 21.55 3.28 33.1.85 5.79 1.78 11.68 3 17.64s2.43 12 4.26 18.19a14.16 14.16 0 01.25 7.67 13.56 13.56 0 01-4.09 6.31 26.34 26.34 0 01-6.86 4.38 47.75 47.75 0 01-7.87 2.79 77.89 77.89 0 01-16.24 2.43 79.85 79.85 0 01-15.58-.73 44.87 44.87 0 01-7.12-1.65 19.81 19.81 0 01-6-2.94l-1.07-1c-.25-.4-.53-.72-.78-1.13a8.51 8.51 0 01-.95-2.75 4.9 4.9 0 011.78-4.64 15.08 15.08 0 015.13-2.75 33.38 33.38 0 015.77-1.33 41.56 41.56 0 0110.92-.23c2.36.25 3.78.78 4 .5s-1.25-1.52-3.7-2a40.66 40.66 0 00-11.48-.63 35.13 35.13 0 00-5.81 1 10.77 10.77 0 013.45-5.41c2.18-1.91 5.59-2.73 9.23-2.93 7.41-.1 14.1 1.63 18.41 2.28.38.05.68 0 .73-.2s-.13-.4-.48-.55a43.39 43.39 0 00-18.79-4.36 10.62 10.62 0 015.81-3.66 22.18 22.18 0 019.32.17 56.29 56.29 0 016.37 1.71c.6.2 1.2.42 1.85.65.3.12.63.22 1 .35.48.18 1 .38 1.43.55 1.88.78 4 1.8 6.32 2.91a.3.3 0 00.07-.13c-.47-4-1-8.09-1.48-12.35-.2-1.73-.42-3.46-.62-5.24s-.65-3.53-1-5.33c-.7-3.61-1.25-7.37-2.21-11.15s-1.9-7.7-2.9-11.7c-4.41-15.89-10.85-32.83-17.79-50.82S424.78 442.84 420.2 422c-.58-2.6-1.13-5.23-1.71-7.87s-.87-5.33-1.35-8-.83-5.39-1.25-8.12-.55-5.48-.85-8.24-.58-5.54-.86-8.34-.32-5.62-.5-8.42c-.17-5.66-.72-11.35-.35-17.09.1-2.93.18-5.84.28-8.72l.12-4.33v-1.08a9 9 0 000-1.45 2.81 2.81 0 00-3.13-2.34 2.85 2.85 0 00-1.7.82l-.78.8-1.55 1.61a22.8 22.8 0 00-2.78 3.41 66.2 66.2 0 00-4.71 7.19c-5.57 9.84-9.35 19.94-12.68 29.36s-5.89 18.32-8 26.26c-1.07 4-2.05 7.69-2.9 11.12-.43 1.73-.83 3.39-1.23 5-.25 1-.5 2-.73 2.93a2.34 2.34 0 00.33 1.75 2.75 2.75 0 001.5.95 7 7 0 011.68.58c.4.18.78.38 1.18.58a15.84 15.84 0 012.13 1.55 20.22 20.22 0 013.46 4.08 24.56 24.56 0 013.73 9.73 13.11 13.11 0 01-.18 4.81 10.78 10.78 0 01-1.9 4.13c-1.73 2.36-4.84 3.86-7 3a2.61 2.61 0 01-1.13-.77c-.2-.21-.17-.58-.12-1.16a34.25 34.25 0 011.48-4.31 8 8 0 00.17-5.84 6.93 6.93 0 00-1.9-2.48 11.72 11.72 0 00-2.46-1.45 6 6 0 00-5.91 1 11.11 11.11 0 00-3 4.19 28.58 28.58 0 00-2.15 8.82c-.4 6.09 1.5 11.32 1.75 16.06.15 2.4-.33 4.21-2 4.81a8 8 0 01-2.86.47 3.38 3.38 0 01-2.18-1c-1.23-1.31-1.83-3.49-2.23-5.51a44.91 44.91 0 01-.53-6.32 98.42 98.42 0 01.68-12.08c.55-4.91.85-8.31.4-8.41s-1.55 3.2-2.33 8.16a95.27 95.27 0 00-1.15 12.35 41.46 41.46 0 00.27 5.84c-2.05.02-4.61-.23-6.06-1.95z"/><path d="M549.49 290.81c10.57-3.31 24.25-7.8 40.24-11.31a98.83 98.83 0 0112.32-1.92 32.06 32.06 0 016.19 0 13.59 13.59 0 012.71.58 4.4 4.4 0 011.35 1.4c2.11 3.21 3.43 7.77 4.31 12.2a58.44 58.44 0 011 14A39.58 39.58 0 01615 319a21.93 21.93 0 01-7.62 9.88 20.11 20.11 0 01-5.44 2.68 16.49 16.49 0 01-5.79.7 46.11 46.11 0 01-12-2.16 137.13 137.13 0 01-20.94-8.67c-6.17-3.1-11.65-6.19-16.42-9a23.53 23.53 0 001.86-4.56 37.43 37.43 0 001.3-9.54 36.18 36.18 0 00-.72-7.52zm-5.34-.43a31 31 0 01.7 7.92 33.35 33.35 0 01-1.25 8.14c-.8 2.61-2 5.09-3.84 6.39a17.77 17.77 0 01-7.36 3 33.86 33.86 0 01-8.27.53 33.21 33.21 0 01-7.87-1.33 14.19 14.19 0 01-3.21-1.43l-.52-.35-.43-.53a4.53 4.53 0 01-.77-1.22 15.26 15.26 0 01-1.08-6.69 33.83 33.83 0 01.88-6.89c1-4.36 2.6-8.42 4.88-11.23 2.66-2.23 6.94-3.18 11.4-3.46a35.85 35.85 0 0114 2A3.87 3.87 0 01543 287a14.59 14.59 0 011.15 3.38zM448 274.39l.71-.1c.42-.07 1-.07 1.47-.1a46.06 46.06 0 016.34.43c4.29.58 8.47 1.43 12.51 2.33 16.18 3.71 30.14 7.92 40.94 11a11.77 11.77 0 001.75.42 33.78 33.78 0 00-4 8.6 35.69 35.69 0 00-1.53 7.59 18.91 18.91 0 00.83 8.24c-.3.18-.63.38-1 .61a101.08 101.08 0 01-39 14.2l-3.05.45c-1.06.08-2.08.15-3.14.25-2.1.23-4.23.28-6.41.3a26.09 26.09 0 01-6.21-.35 12.23 12.23 0 01-5.31-2.26c-3.13-2.26-5-6.22-5.86-10.58a45.29 45.29 0 01-.26-13.93 71.74 71.74 0 013.11-13.9c1.48-4.34 3.36-8.77 5.89-11.78a8.52 8.52 0 01.93-.9c.17-.18.25-.15.35-.23a.89.89 0 01.4-.15z" fill="#ffe58f"/><path d="M567.39 325.48a7.77 7.77 0 01-3.26-2.21 59.32 59.32 0 01-9.46-5 91.26 91.26 0 01-7.92-4.81c-.19-.14-.35-.3-.52-.45a5.82 5.82 0 01-2.05.76c-3.48.53-6.24 2.77-9.56 3.89a37.57 37.57 0 01-9.07 1.51c-6.74.52-12.95-.95-17.29-6.13-.06.07-.1.13-.17.2-2.87 3-6.44 4.43-10.27 5.77a74.73 74.73 0 00-9.37 4.18 10.25 10.25 0 01-1.84.7 8.06 8.06 0 01-2.3.74c-12.42 20.92-20.22 47.51-20.22 65.59 0 34 27.55 56 61.54 56s61.54-22 61.54-56c0-17.84-7.63-43.95-19.78-64.74z" fill="#e6e8ec"/><path class="cls-8" d="M539.31 192.36c-2.61-4.33-8.58-4.81-13.14-5.08-5-.29-10.33.48-14.56 3.41a2.36 2.36 0 00-.82 3.14 2.32 2.32 0 003.13.82c3.39-2.36 7.39-3 11.45-2.83a34.73 34.73 0 015.83.68c1.53.32 3.29.75 4.16 2.17 1.52 2.52 5.48.22 3.95-2.31z"/><path class="cls-11" d="M534.31 265.7a183 183 0 01-38-4.92A141.77 141.77 0 01455.43 244a101.14 101.14 0 01-34.23-34.12 88.81 88.81 0 01-9.58-23.79 96.25 96.25 0 01-2.28-26.41A109 109 0 01425 109.94a128.8 128.8 0 0132.65-36.26 134.1 134.1 0 0139-20.47 140.7 140.7 0 0119.4-4.7 143.45 143.45 0 0118.24-1.72v-2.73a130.28 130.28 0 00-38.89 5.09 134.32 134.32 0 00-41 20.19 131.07 131.07 0 00-34.68 37.43A113.19 113.19 0 00403 159.34a100.76 100.76 0 002.51 28.23A93.84 93.84 0 00415.92 213a104.75 104.75 0 0036.7 35.6 141.23 141.23 0 0042.7 16.3 173.38 173.38 0 0039 3.5z"/><path class="cls-11" d="M534.31 46.79a143.28 143.28 0 0118.24 1.72 140.7 140.7 0 0119.4 4.7 134.1 134.1 0 0139 20.47 128.65 128.65 0 0132.65 36.26 109 109 0 0115.64 49.74 96.25 96.25 0 01-2.24 26.41 89.12 89.12 0 01-9.57 23.79A101.23 101.23 0 01613.2 244a141.88 141.88 0 01-40.83 16.78 183.19 183.19 0 01-38.06 4.92v2.72a173.51 173.51 0 0039-3.5 141.28 141.28 0 0042.69-16.3A104.75 104.75 0 00652.7 213a93.84 93.84 0 0010.45-25.45 100.76 100.76 0 002.51-28.23 113.19 113.19 0 00-16.77-52.57 130.93 130.93 0 00-34.68-37.43 134.32 134.32 0 00-41-20.19 130.28 130.28 0 00-38.89-5.09zm-70.17 66.43a33.68 33.68 0 018.75 1.67 30.13 30.13 0 018.41 4.66 29 29 0 0110.7 17.74c1.34 7.31-.3 15.6-5.62 21.57s-13.71 9.33-22.37 9.29-17.25-3.27-22.76-9a19.35 19.35 0 01-5.43-15.56 43.51 43.51 0 011-5.7c1.71-7.45 5.27-14 10.34-18.31s11.34-6.1 17-6.37V111a34 34 0 00-9.63 1.09 27.72 27.72 0 00-9.61 4.8c-6 4.56-10.36 11.87-12.49 19.95a48 48 0 00-1.27 6.27 23.9 23.9 0 006.36 19.59c6.65 7.09 16.5 10.71 26.46 10.82s20-3.81 26.27-11.27a28.73 28.73 0 006.18-12.55 32.24 32.24 0 00-22.64-37.56 34.35 34.35 0 00-9.63-1.14z"/><path class="cls-11" d="M601.83 113.22c5.65.3 12.16 1.27 17.23 5.31s8 10.76 9.14 18.27a27 27 0 01-27.2 31.32c-8.56-.17-16.83-3.68-21.8-9.81-5.13-6-6.46-14.28-5.08-21.47a28.82 28.82 0 0110.77-17.42 30.68 30.68 0 018.33-4.56 33.8 33.8 0 018.65-1.64V111a34.68 34.68 0 00-9.52 1.1 33 33 0 00-9.55 4.51 32.14 32.14 0 00-13.09 19.35 32.72 32.72 0 00-.26 13.06 28.07 28.07 0 005.79 12.56 30.59 30.59 0 0011.35 8.74 37.28 37.28 0 0014.28 3.17 31.62 31.62 0 0025.61-12 30.78 30.78 0 006-12.37 31.86 31.86 0 00.19-13.07 42.15 42.15 0 00-3.87-11.5 24 24 0 00-17.44-12.89 43.47 43.47 0 00-9.49-.66zm-128.78 29.93a11 11 0 01-6.29-20.08 17.56 17.56 0 00-2.74-.23 18.61 18.61 0 1018.61 18.61 18.89 18.89 0 00-.32-3.38 11 11 0 01-9.26 5.08z"/><path class="cls-11" d="M610.09 143.15a11 11 0 01-6.29-20.08 17.54 17.54 0 00-2.73-.23 18.61 18.61 0 1018.61 18.61 18 18 0 00-.33-3.38 11 11 0 01-9.26 5.08zM482.63 184c.17.15.76-.17 1.47-.78a94.52 94.52 0 0116.84-11.44c7-3.69 15.64-6.86 25.05-7.2a47.63 47.63 0 0125 6.32 77 77 0 0116.16 12.28c.69.63 1.29 1 1.46.82s-.12-.76-.72-1.5a60.41 60.41 0 00-15.45-14.06 46.6 46.6 0 00-26.59-7.41c-10.17.37-19.24 4-26.32 8.26a70.08 70.08 0 00-16.15 13.21c-.62.74-.92 1.36-.75 1.5z"/><path class="cls-11" d="M525.42 186.29a35.11 35.11 0 019.5 2.23 10.51 10.51 0 014 2.64 3.09 3.09 0 01.71 1.69 4 4 0 010 1.1 6 6 0 01-.18 1.27 29.11 29.11 0 01-5.17 10.87c-2.47 3.28-6.08 6.43-9.22 5.74-3.73-.59-7.22-3.71-9.76-7s-4.44-7.24-4.82-10.73a4.71 4.71 0 01-.05-1.23 3.62 3.62 0 01.13-1.09 2.64 2.64 0 01.88-1.56 12.08 12.08 0 014.33-2.29 38.14 38.14 0 019.66-1.67l.06-2.26a34.5 34.5 0 00-10.66.52 15 15 0 00-6 2.61 7.92 7.92 0 00-1.41 1.47 5.6 5.6 0 00-.95 2 7.32 7.32 0 00-.41 1.94 9.4 9.4 0 00-.06 1.9c.29 5 2.38 9.36 5.21 13.48a29 29 0 005.32 5.62 17 17 0 007.7 3.57 10.58 10.58 0 004.81-.32 14.19 14.19 0 003.94-2 24.49 24.49 0 005.46-5.66 31.48 31.48 0 005.48-13.19 10 10 0 00.13-1.84 7.72 7.72 0 00-.18-2 7.24 7.24 0 00-1.92-3.66 13.76 13.76 0 00-5.8-3.24 32.48 32.48 0 00-10.67-1.2z"/><path class="cls-11" d="M578.06 217.07c-.21-.09-.71.55-1.34 1.53a34.72 34.72 0 01-7.55 8.44A28.23 28.23 0 01557 232.7c-9.59 2-20.75-1.76-30.94-7.76l-2.52-1.41-.5-.28c-.16-.05-.33-.3-.48-.11l-1 .62-1.34.87-3.5 2.37c-2.54 1.16-5 2.54-7.61 3.07A27.52 27.52 0 01494 230a38.37 38.37 0 01-12-6.32 57.17 57.17 0 01-8.42-7.78c-.77-.88-1.39-1.41-1.58-1.29s.1.93.79 1.91a49 49 0 007.92 8.76 38 38 0 0012.5 7.41 29.5 29.5 0 0016.77.64c3-.56 5.66-2 8.47-3.28q1.94-1.23 3.9-2.51l.49-.31.1-.07h-.05l.48.28 1 .57a59 59 0 008.19 4.17c1.4.58 2.77 1.2 4.17 1.71l4.28 1.2c5.67 1.35 11.5 1.8 16.7.4a29.07 29.07 0 0012.86-6.89 32.46 32.46 0 007.09-9.52c.47-1.08.62-1.93.4-2.01z"/><path class="cls-4" d="M521.55 225.14c-.14-7.86 2.52-11.22 2.63-11.36l2 1.58-1-.79 1 .78s-2.2 2.9-2.08 9.75zm12.22 31.61a28.22 28.22 0 01-4-.29c-5.17-.72-8.9-2.53-10.52-5-2.5 2-6.17 2.66-8.38 2.86-4.55.4-10.66-.38-13.33-3.05-3.27-3.26-1-16.47-.53-19.08l2.46.46c-1.1 6-1.89 15.13-.16 16.85s6.69 2.73 11.34 2.32c3.83-.34 6.75-1.55 8-3.33l1.75-2.49.51 3c.37 2.25 4.07 4.25 9.21 5 5.32.75 9.6-.22 10.25-1.59 2.48-5.19 1.87-19 1.86-19.16l2.51-.11c0 .59.64 14.59-2.1 20.35-1.12 2.32-4.83 3.26-8.87 3.26z"/><path class="cls-4" d="M518.15 249.35c0-.32-.76-7.9 1-11.64l2.26 1.07c-1.23 2.59-1 8.33-.79 10.32z"/><path class="cls-11" d="M514.39 285.06c-3.11 3.06-5.16 7.23-6.67 11.91a35.32 35.32 0 00-1.52 7.59 19 19 0 001 8.68 9.67 9.67 0 001.25 2.25l.85 1.06c.35.3.73.6 1.11.88a17.87 17.87 0 004.31 2.15 35.23 35.23 0 009.08 1.85 37.86 37.86 0 009.58-.45 22.06 22.06 0 009.64-3.93c3.24-2.46 4.7-6 5.64-9.12a36.18 36.18 0 001.31-9.55 35.48 35.48 0 00-1.09-9.2 18.9 18.9 0 00-1.76-4.45A8 8 0 00543 281a37.11 37.11 0 00-15.9-1.26c-4.85.71-9.53 2.07-12.69 5.37l1.62 1.59c2.66-2.22 7-3.18 11.4-3.44a35.94 35.94 0 0114.05 2A3.9 3.9 0 01543 287a14.26 14.26 0 011.16 3.36 31.6 31.6 0 01.68 7.93 32.11 32.11 0 01-1.25 8.15c-.79 2.61-2 5.08-3.83 6.39a17.59 17.59 0 01-7.36 3 34.93 34.93 0 01-8.28.53 32 32 0 01-7.84-1.34 14 14 0 01-3.21-1.42l-.54-.35-.43-.52a5.24 5.24 0 01-.78-1.24 15.51 15.51 0 01-1.07-6.68 34.54 34.54 0 01.89-6.88c1-4.38 2.61-8.44 4.87-11.25z"/><path class="cls-11" d="M546.2 291.27c.12.32 1.46.12 3.29-.46 10.58-3.32 24.26-7.81 40.24-11.31a98.87 98.87 0 0112.34-1.94 32 32 0 016.19 0 12.12 12.12 0 012.69.59 4 4 0 011.34 1.38c2.12 3.23 3.44 7.79 4.34 12.22a61 61 0 011 13.94A39.86 39.86 0 01615 319a21.56 21.56 0 01-7.61 9.86 20.09 20.09 0 01-5.43 2.69 17 17 0 01-5.8.71 47 47 0 01-11.94-2.16 137.89 137.89 0 01-20.94-8.68c-6.26-3.14-11.8-6.25-16.58-9.06-1.64-1-2.89-1.47-3.09-1.19s.71 1.3 2.26 2.45a184.65 184.65 0 0015.93 10.51 123 123 0 0021.1 10.05 49.21 49.21 0 0013.04 2.82 21.56 21.56 0 007.39-.74 24.48 24.48 0 006.85-3.21 26.34 26.34 0 009.62-12 43.9 43.9 0 003.2-15.17 63.28 63.28 0 00-1.22-15.2c-1.09-4.91-2.35-9.64-5.37-14.13a8.41 8.41 0 00-3.72-3.12 16.42 16.42 0 00-3.94-.8 35.78 35.78 0 00-7.14.19 96.88 96.88 0 00-12.85 2.47A274.47 274.47 0 00549 289.4c-1.81.78-2.93 1.54-2.8 1.87zm-32.91-2.95c.12-.33-1-1.07-2.84-1.8A364.25 364.25 0 00470 272.78c-4.09-1.08-8.34-2.1-12.86-2.84a46.78 46.78 0 00-7.1-.66 16.55 16.55 0 00-1.95.1l-1 .11-1.12.28a7 7 0 00-2.34 1.16 11 11 0 00-1.6 1.49 28.41 28.41 0 00-4.24 6.52 58.86 58.86 0 00-2.9 7 73.91 73.91 0 00-3.42 15 49.44 49.44 0 00.39 15.59 27.3 27.3 0 002.67 7.51 18.26 18.26 0 005.39 6.11c4.48 3.34 10.27 3.56 14.6 3.23a63.94 63.94 0 006.71-.52l3.27-.38 3.18-.58a91.18 91.18 0 0039.22-17.21c1.55-1.22 2.41-2.32 2.18-2.59s-1.42.34-3.05 1.36A101.29 101.29 0 01467 327.61l-3.06.44-3.13.25c-2.1.22-4.23.28-6.4.29a25.55 25.55 0 01-6.21-.33 12.33 12.33 0 01-5.31-2.27c-3.12-2.25-5-6.19-5.85-10.57a45.52 45.52 0 01-.26-13.92 71.91 71.91 0 013.11-13.9c1.49-4.35 3.37-8.79 5.9-11.78a5.93 5.93 0 01.92-.9 2.43 2.43 0 01.74-.38l.55-.16.69-.09a11.32 11.32 0 011.47-.1 44.25 44.25 0 016.34.43c4.28.57 8.48 1.43 12.52 2.32 16.19 3.72 30.12 7.92 40.93 11 1.87.55 3.22.71 3.34.38zm83.22-227.77a69.68 69.68 0 014.71-14 67.55 67.55 0 013.67-7c.69-1.15 1.5-2.24 2.25-3.37l1.16-1.7 1.31-1.61A63.35 63.35 0 01621.91 21a71.8 71.8 0 017.51-4.9l4.1-2c1.36-.72 2.85-1.16 4.28-1.77a65.62 65.62 0 0118.57-4 57 57 0 0119.49 2.3 71.52 71.52 0 0118.8 8.7A82.64 82.64 0 01711.22 33a69.14 69.14 0 0111.93 17.49c.62 1.6 1.43 3.14 1.92 4.75s.93 3.24 1.4 4.84c.24 1.64.48 3.26.73 4.88s0 3.24.08 4.85a78.07 78.07 0 01-3.68 19.59 81.32 81.32 0 01-8.3 17.28 76.15 76.15 0 01-11.91 13.73 67.51 67.51 0 01-14.26 9.46c-9.94 5-20.46 6.52-29.88 6.67l-.18 3.78c9.88.65 21.33-.2 32.5-5.08a71.67 71.67 0 0016.18-9.64 80.74 80.74 0 0013.75-14.69A85.86 85.86 0 00731.25 92a83.73 83.73 0 004.54-21.82c0-2 .15-4 0-6s-.54-4-.82-6l-1.59-5.8c-.58-1.93-1.47-3.72-2.2-5.6a75.92 75.92 0 00-13.44-19.92 88.75 88.75 0 00-18.39-15.09 78 78 0 00-21.12-9.45A64.13 64.13 0 00655.79.21 71.08 71.08 0 00635 5.29c-1.58.72-3.22 1.29-4.71 2.13l-4.48 2.44a76.47 76.47 0 00-8.1 5.76 67.17 67.17 0 00-12.86 13.72l-1.32 1.83-1.16 1.91c-.75 1.28-1.55 2.51-2.22 3.8a71.76 71.76 0 00-3.49 7.76 69.68 69.68 0 00-3.92 15.29z"/><path class="cls-11" d="M607.61 67.35a55.21 55.21 0 019-22.56 50.16 50.16 0 019.09-10.16 42.7 42.7 0 0112.26-7.57 38.5 38.5 0 0114.75-2.88 78.28 78.28 0 0115.89 2.22C679.19 29 690 33.72 698.09 42A37.89 37.89 0 01707 56.12a35.38 35.38 0 011.51 16.14 83.6 83.6 0 01-3.6 15.74 61 61 0 01-6.41 13.92 37.06 37.06 0 01-21.68 16.58c-8.51 2.41-16.88 1.58-24.32.59l-.22 1.5c7.38 1.29 16.08 2.49 25.14.19A39.17 39.17 0 00701 103.52 62.54 62.54 0 00708 89a85 85 0 003.92-16.33 38.37 38.37 0 00-1.6-17.67 40.89 40.89 0 00-9.69-15.51c-8.74-8.94-20.2-13.77-31.25-16.42a80.77 80.77 0 00-16.7-2.14 41.26 41.26 0 00-15.91 3.35 45 45 0 00-12.88 8.3 52 52 0 00-9.28 10.9 55.57 55.57 0 00-8.5 23.67zm-133.78-7.42a69.28 69.28 0 00-3.92-15.31 72.79 72.79 0 00-3.49-7.77c-.68-1.28-1.48-2.51-2.23-3.79L463 31.15l-1.33-1.83a66.75 66.75 0 00-12.87-13.73 65.63 65.63 0 00-17.29-10.33A71.58 71.58 0 00410.73.2a64.2 64.2 0 00-22.43 2.22 77.94 77.94 0 00-21.13 9.49A89.53 89.53 0 00348.78 27a75.81 75.81 0 00-13.39 20 48.32 48.32 0 00-4.56 23.42 74.23 74.23 0 005.11 21.85 82 82 0 0010.74 18.38 79.29 79.29 0 0030.51 23.49 74 74 0 0032.27 6.24v-3.78a73.75 73.75 0 01-29.78-7.81 75.69 75.69 0 01-27-22.69 76.75 76.75 0 01-9.18-16.8 68.06 68.06 0 01-4.17-19.3 40.5 40.5 0 014.08-19.34 68.67 68.67 0 0111.88-17.54 83.36 83.36 0 0116.56-13.72 88.56 88.56 0 019.2-5.12l4.77-2c1.58-.69 3.24-1.07 4.84-1.62a57.1 57.1 0 0119.51-2.34 66.17 66.17 0 0118.59 4 60.85 60.85 0 0115.91 8.69A63.52 63.52 0 01457 32.86l1.31 1.61 1.16 1.7c.75 1.13 1.56 2.22 2.26 3.37a70.91 70.91 0 018.38 21z"/><path class="cls-11" d="M460.5 68.7c-1.85-14.92-12.15-32.16-30.18-42.4a40.08 40.08 0 00-15.12-5l-2.06-.24h-2.11a18.8 18.8 0 00-4.22.35 56.66 56.66 0 00-8.14 2 111.36 111.36 0 00-15.88 6.2 56.35 56.35 0 00-14.58 10.21A35.76 35.76 0 00359 55.31a43.72 43.72 0 00-1.09 17.31c.21 1.4.38 2.8.62 4.17s.61 2.7.91 4c.53 2.69 1.47 5.26 2.22 7.84a66.61 66.61 0 006.92 14.21 46.35 46.35 0 0010.39 10.9 40.78 40.78 0 0012.7 6.13 56.38 56.38 0 0024.65.78l-.22-1.49a56.46 56.46 0 01-23.75-1.55 38.81 38.81 0 01-11.76-6 44.21 44.21 0 01-9.59-10.39 65.61 65.61 0 01-6.35-13.59c-.69-2.49-1.56-5-2.05-7.57q-.42-1.94-.84-3.9c-.21-1.3-.36-2.62-.54-3.94a40.83 40.83 0 011.07-15.93 32.42 32.42 0 018.4-13.9c8-8 18.72-12.33 28.95-15.67a55.29 55.29 0 017.66-2 15.82 15.82 0 013.76-.35l1.94-.07 1.87.21A37.36 37.36 0 01428.91 29a53.83 53.83 0 0111.63 8.18 63.5 63.5 0 019 10A52.72 52.72 0 01459 68.9z"/><path class="cls-4" d="M449.86 242.57L446.6 240c-1.15-.8-1.71 0-4.08 3.27l-.32.45c-2.62 3.66-7 9.8-12.86 18.54-6.81 10.21-14.24 21.54-22.42 35.29a573.89 573.89 0 00-27.29 51.21c-11.44 24.75-18.66 46.39-22.74 68.09l-.06.31-1.07.41a13.31 13.31 0 00-1.93 1 32.13 32.13 0 00-8.19 7.4 48.86 48.86 0 00-7.39 12.14 27 27 0 00-2.06 7.79 12.13 12.13 0 002 8.6 8.91 8.91 0 003.55 2.79 5.18 5.18 0 001.69.42 1 1 0 001-.66l.28-.5-.13-.51a1.84 1.84 0 00-1-1.1 8.72 8.72 0 01-2.73-2.39 9 9 0 01-1.21-6.28 24.62 24.62 0 011.94-6.75 45.23 45.23 0 017-11.1 28.15 28.15 0 017.25-6.41 9.27 9.27 0 011.34-.64l.68-.22a4.44 4.44 0 001.13-.45 4.11 4.11 0 001.88-2.2 1.82 1.82 0 01.14-.28l3-14.51c.19-.95.47-1.89.75-2.82.15-.53.31-1.06.45-1.58l.83-2.89c1.43-5 2.79-9.77 4.59-14.4l3-8.28c.67-1.72 1.38-3.42 2.09-5.1l1.19-2.84 3.23-7.72 3.5-7.44a507 507 0 0127.58-50.48c8.82-14.3 16.94-25.95 23-34.51a495.04 495.04 0 0113.7-18.32l1.61-2.1c.62-.89 1.37-1.89.34-2.66z"/><path class="cls-11" d="M348 440c-.22-.08-.5.09-.69.42a45.65 45.65 0 00-5.4 18.49 21.19 21.19 0 00.46 6 9.64 9.64 0 002.91 5.2 7.2 7.2 0 004.95 1.68 10.76 10.76 0 003.86-.83c.36-.15.57-.39.51-.62s-.35-.37-.72-.37c-2.07.07-5 0-6.62-1.93s-2-5.35-1.81-9c.49-7.36 2.17-14 2.81-18.33.02-.3-.08-.61-.26-.71z"/><path class="cls-11" d="M356.43 443.7c-.46-.1-1.55 3.2-2.32 8.15a91.87 91.87 0 00-1.11 12.34 41.79 41.79 0 00.37 6.72c.41 2.27.85 4.76 2.75 7a6.06 6.06 0 004 2 8.64 8.64 0 002.12-.09 7.7 7.7 0 002.09-.52 6.16 6.16 0 002-1.26c.28-.31.55-.64.81-1a7.2 7.2 0 00.53-1.08 10.08 10.08 0 00.6-4.32c-.28-5.42-2-10.52-1.55-15.64a25.43 25.43 0 011.92-7.73 8.07 8.07 0 012.09-2.95 2.45 2.45 0 012.59-.44 7.13 7.13 0 011.49.9 3.53 3.53 0 01.93 1.17 4.77 4.77 0 01-.28 3.41 33.73 33.73 0 00-1.62 4.87 6.09 6.09 0 00-.05 1.72 4.11 4.11 0 00.7 1.86 5.72 5.72 0 002.83 2.14 8.31 8.31 0 006.22-.42 12.48 12.48 0 004.68-3.77 14.58 14.58 0 002.51-5.45 17.12 17.12 0 00.22-6 22.27 22.27 0 00-1.55-5.78 27.44 27.44 0 00-2.75-5.36 22.65 22.65 0 00-4.09-4.76 18.8 18.8 0 00-2.65-1.91 14.06 14.06 0 00-1.5-.76c-.45-.21-1.29-.5-1.16-.45-.13 0-.23-.11-.15-.24 0 .17.25-.94.43-1.66.39-1.58.8-3.22 1.23-4.94.88-3.42 1.84-7.13 2.87-11.08 2.13-7.88 4.67-16.71 7.85-26.08s6.91-19.36 12.24-28.94a62.1 62.1 0 014.43-6.93 21 21 0 012.58-3.19l1.41-1.49.7-.75c.18-.17.14-.11.19-.14q-.35 7.4-.69 14.93c-.39 5.79-.17 11.55-.25 17.28 0 2.86-.12 5.73.12 8.56s.38 5.67.58 8.48.32 5.63.72 8.4.78 5.54 1.17 8.28.67 5.5 1.27 8.19 1.09 5.37 1.64 8C420 444.28 427 463.92 434 481.93s13.59 34.69 18.26 50.25l3.15 11.42c1 3.71 1.67 7.39 2.49 10.92q.58 2.65 1.14 5.23c.27 1.73.54 3.43.8 5.11.14.83.27 1.66.4 2.49.1.63.21 1.25.31 1.87.18 1 .35 1.93.51 2.86h-.09c-.88-.39-1.74-.73-2.57-1l-1.63-.56-1.93-.62a52.07 52.07 0 00-6.75-1.56 23.39 23.39 0 00-10.29.33 9.33 9.33 0 00-5.26 3.75c-.84 1.36-.9 2.3-.74 2.37.48.3 1.94-3.14 6.54-4.19a22.18 22.18 0 019.32.17 52.15 52.15 0 016.37 1.7l1.84.65 1 .36 1.41.55c1.89.76 4 1.8 6.31 2.9a.31.31 0 00.08-.11q-.71-6-1.48-12.38c-.2-1.71-.41-3.45-.62-5.22s-.64-3.53-1-5.34c-.72-3.6-1.26-7.37-2.2-11.16s-1.89-7.72-2.89-11.72c-4.4-15.88-10.85-32.84-17.79-50.83s-13.9-37.29-18.5-58.17l-1.69-7.87c-.62-2.63-.88-5.34-1.34-8s-.84-5.4-1.26-8.12-.56-5.49-.87-8.25-.56-5.54-.85-8.33-.31-5.61-.49-8.43c-.18-5.65-.74-11.35-.36-17.1q.15-4.36.28-8.71l.14-4.32v-1.08a7.9 7.9 0 000-1.45 2.83 2.83 0 00-3.15-2.34 3.07 3.07 0 00-1.69.83l-.78.8-1.56 1.62a23 23 0 00-2.79 3.4 65.17 65.17 0 00-4.69 7.2c-5.57 9.84-9.35 19.94-12.68 29.36s-5.89 18.32-8.05 26.25c-1.07 4-2.05 7.68-2.91 11.13q-.63 2.59-1.22 4.95l-.73 2.95a2.29 2.29 0 00.33 1.75 2.68 2.68 0 001.51.94 9.08 9.08 0 011.67.57 12.72 12.72 0 011.16.6 14.75 14.75 0 012.14 1.55 19.38 19.38 0 013.46 4.08 24.65 24.65 0 013.74 9.71 13.85 13.85 0 01-.17 4.82 11.22 11.22 0 01-1.91 4.14c-1.75 2.34-4.83 3.85-7 3a2.48 2.48 0 01-1.11-.77c-.21-.2-.2-.58-.14-1.16a37 37 0 011.47-4.32 8 8 0 00.19-5.84 7 7 0 00-1.91-2.47 10.32 10.32 0 00-2.46-1.44 5.92 5.92 0 00-5.91 1 11.38 11.38 0 00-3 4.19 28.28 28.28 0 00-2.14 8.82c-.41 6.08 1.48 11.33 1.75 16.06.15 2.41-.33 4.21-2 4.8a7.58 7.58 0 01-2.86.48 3.23 3.23 0 01-2.17-1c-1.24-1.3-1.84-3.48-2.23-5.51a41.84 41.84 0 01-.53-6.3 98.35 98.35 0 01.67-12.08c.52-4.91.84-8.31.38-8.41z"/><path class="cls-11" d="M419.34 587c.18 0 .33-.26.4-.61a11.21 11.21 0 013.72-6.47c2.19-1.9 5.58-2.72 9.23-2.92 7.41-.09 14.11 1.64 18.41 2.29.38.05.67 0 .73-.2s-.14-.41-.48-.57a43.68 43.68 0 00-18.79-4.36c-4 .2-8.15 1.4-10.66 4.09a10.49 10.49 0 00-3 8.1c.1.4.25.65.44.65z"/><path class="cls-11" d="M441 587c.24-.28-1.25-1.52-3.72-2a40.44 40.44 0 00-11.45-.62 35 35 0 00-6.29 1.06 17.42 17.42 0 00-6.35 3 9.26 9.26 0 00-2.53 3.16 8.09 8.09 0 00-.65 4.22 12.42 12.42 0 001.14 3.93 19.89 19.89 0 001.17 1.87c.49.52 1 1.05 1.49 1.53a22.74 22.74 0 007.06 3.87 46.84 46.84 0 007.73 2.08 83.71 83.71 0 0033.82-1 51.2 51.2 0 008.74-3 30.51 30.51 0 008.24-5.1 18.58 18.58 0 005.68-8.79 19.27 19.27 0 00-.28-10.63c-1.71-5.79-3-11.8-4.18-17.66s-2.2-11.69-3.13-17.38c-1.82-11.39-3.14-22.34-4-32.63a263.67 263.67 0 01-1-28.74c0-4.41.41-8.56.64-12.51.53-3.9.81-7.64 1.63-11 .47-2.35.57-4 .23-4.13s-1 1.43-1.7 3.77a102 102 0 00-2.48 11.06c-.5 4-1.18 8.2-1.4 12.66a223.61 223.61 0 00-.15 29.17c.53 10.46 1.61 21.56 3.27 33.11.85 5.78 1.79 11.67 3 17.64s2.43 12 4.24 18.19a14 14 0 01.27 7.66 13.45 13.45 0 01-4.1 6.31 25.83 25.83 0 01-6.86 4.38 47 47 0 01-7.86 2.78 77.33 77.33 0 01-16.24 2.43 78.29 78.29 0 01-15.58-.73 43.92 43.92 0 01-7.13-1.64 19.36 19.36 0 01-6-2.94l-1.08-1c-.25-.39-.52-.71-.76-1.12a9.17 9.17 0 01-1-2.75 4.92 4.92 0 011.78-4.63 14.78 14.78 0 015.15-2.76 34.07 34.07 0 015.76-1.35 41.18 41.18 0 0110.88-.27c2.37.26 3.79.78 4 .5z"/><path class="cls-4" d="M720.13 443.48a35.76 35.76 0 00-3.88-9.9 49.84 49.84 0 00-6-8.55 29.62 29.62 0 00-8.14-6.83 9.26 9.26 0 00-1.3-.58 3.71 3.71 0 01-.79-.36 1.14 1.14 0 01-.53-.75l-1-4.86c-.24-1.14-.46-2.29-.69-3.43-.4-2.07-.81-4.2-1.37-6.28l-.78-2.88c-1.41-5.24-2.87-10.65-4.71-15.74-8.48-25.43-19.94-47.77-29-64.4-8.28-15.13-17.38-30.28-27.81-46.32a790.917 790.917 0 00-16.87-24.86l-1.54-2.12c-.67-.87-1.42-1.85-2.45-1.07l-3.46 2.59-.09.48c-.11.59.16 1 .82 1.88l1.54 2.07c3.81 5 9.76 12.93 17.44 24.12C640 291 649.31 305.88 657.9 321.18c8.28 14.85 20.33 37.59 29.15 63.49 1.9 5.13 3.34 10.36 4.87 15.89l.66 2.4c.55 2 1 4.07 1.36 6.09.23 1.13.45 2.27.7 3.39l1 4.81a5 5 0 002.16 3.24 6.78 6.78 0 001.53.75l.32.13a3.86 3.86 0 01.65.29 25.43 25.43 0 017.08 5.91 47.25 47.25 0 015.62 7.85 32.89 32.89 0 013.64 8.83c.58 2.48.9 5.95-.87 8.33a9 9 0 01-2.7 2.35 1.8 1.8 0 00-1 1.11l-.09.43.14.37a1.17 1.17 0 001.21.82 5.6 5.6 0 001.8-.45 8.89 8.89 0 003.28-2.59c2.09-2.69 2.69-6.54 1.72-11.14z"/><path class="cls-11" d="M708.72 440c-.11 0-.11.31 0 .68 1 4.18 2.95 10.82 3.45 18.36.19 3.7-.18 7.44-2.19 9.53s-5.13 1.89-7.17 1.66c-.37 0-.64 0-.67.12s.2.26.57.37a11.31 11.31 0 003.76.57 6.79 6.79 0 004.49-1.69 9.09 9.09 0 002.59-4.85 21.88 21.88 0 00.4-5.8 55.34 55.34 0 00-4.76-18.44c-.19-.32-.36-.51-.47-.51z"/><path class="cls-11" d="M700.25 443.7c-.46.1-.15 3.46.4 8.32a100.49 100.49 0 01.68 12.09 40.66 40.66 0 01-.52 6.3c-.38 2-1 4.23-2.2 5.56a3.2 3.2 0 01-2.17 1.08A6.23 6.23 0 01695 477a4.62 4.62 0 01-1.42-.35 2.7 2.7 0 01-1.74-1.7 7.25 7.25 0 01-.36-3.09c.25-4.73 2.14-10 1.74-16.05a28.12 28.12 0 00-2.12-8.8 11.54 11.54 0 00-3-4.18 5.91 5.91 0 00-5.83-1 9.91 9.91 0 00-2.45 1.43 6.59 6.59 0 00-1.91 2.4 7.78 7.78 0 00.13 5.8 39.31 39.31 0 011.5 4.35c.09.61.08 1-.13 1.24s-.62.58-1.13.82c-2.2.86-5.33-.64-7.12-3a11.63 11.63 0 01-2-4.16 14 14 0 01-.2-4.85 24.57 24.57 0 013.7-9.77c2-3 4.47-5.66 8.15-6.84a2.82 2.82 0 002-3q-.12-1.25-.24-2.55c-.28-1.6-.54-3.29-.95-5-.72-3.44-1.69-7.09-2.77-11-2.18-7.75-5-16.36-8.4-25.5a205.23 205.23 0 00-12.92-28.42c-1.29-2.42-2.88-4.73-4.38-7.1l-2.57-3.39-.65-.85a4.42 4.42 0 00-1.15-.95 3.82 3.82 0 00-3-.32 3.57 3.57 0 00-2.3 2.06 3.77 3.77 0 00-.28 1.53v1.09l.07 4.24q0 4.23.08 8.52c-.43 22.68-2.61 44.7-7.41 65.27s-11.68 39.63-18.51 57.4-13.2 34.55-17.52 50.25q-1.46 5.94-2.86 11.55c-.91 3.75-1.45 7.47-2.15 11q-.48 2.67-.95 5.27c-.21 1.75-.41 3.47-.61 5.16q-.75 6.36-1.46 12.26a.26.26 0 00.09.13c2.28-1.11 4.43-2.15 6.34-2.91l1.41-.56 1-.36 1.84-.64a51.05 51.05 0 016.39-1.7 22 22 0 019.35-.15c4.54 1.07 6 4.47 6.45 4.17.17-.07.12-1-.72-2.35a9.27 9.27 0 00-5.18-3.75 23.2 23.2 0 00-10.32-.36 49 49 0 00-6.78 1.56l-1.94.62-1.64.56c-.83.3-1.69.64-2.57 1h-.09c.16-.92.33-1.86.5-2.81.1-.6.2-1.21.31-1.82l.39-2.46c.26-1.66.52-3.34.79-5.05s.74-3.42 1.12-5.16c.81-3.49 1.45-7.13 2.45-10.79s2-7.43 3.1-11.29c4.6-15.37 11-31.86 18-49.65s13.93-37.15 18.49-58.17a248.31 248.31 0 005.61-66.37q-.21-4.31-.41-8.58l-.17-4.26v-1a1.3 1.3 0 01.09-.54 1.06 1.06 0 01.74-.65 1.37 1.37 0 011.08.12 1.79 1.79 0 01.45.38l.62.82q1.21 1.65 2.43 3.27c1.44 2.32 3 4.55 4.2 6.94a204.86 204.86 0 0112.51 28.14c3.33 9.09 6 17.66 8.15 25.32 1.05 3.84 2 7.45 2.69 10.8.39 1.67.63 3.26.9 4.78q.1 1.07.21 2.07c0 .13 0 .25-.16.27l-.63.22-.78.33c-.51.23-1 .49-1.47.76a17.24 17.24 0 00-2.62 1.91 22.59 22.59 0 00-4 4.74 27.64 27.64 0 00-4.23 11.09 17.07 17.07 0 00.23 6 14.88 14.88 0 002.53 5.4 12.31 12.31 0 004.66 3.7 8.17 8.17 0 006.16.35 5.49 5.49 0 002.76-2.15 4.41 4.41 0 00.64-1.83 6.93 6.93 0 00-.08-1.67 35.86 35.86 0 00-1.62-4.84c-.48-1.4-.66-2.63-.23-3.44a3.54 3.54 0 011-1.2l.75-.52c.25-.15.51-.24.76-.37a2.58 2.58 0 012.66.49 8.5 8.5 0 012.09 3 25.6 25.6 0 011.9 7.75c.42 5.15-1.31 10.25-1.58 15.66a10.08 10.08 0 00.63 4.32 6.18 6.18 0 001.36 2 6.47 6.47 0 002 1.21 7.57 7.57 0 002.08.5 8.68 8.68 0 002.12.07 6 6 0 003.93-2c1.88-2.22 2.3-4.71 2.71-7a42.88 42.88 0 00.36-6.72 93.18 93.18 0 00-1.16-12.33c-.74-4.91-1.82-8.17-2.28-8.07z"/><path class="cls-11" d="M637.34 587c.19 0 .36-.26.4-.65a10.49 10.49 0 00-3-8.1c-2.51-2.69-6.63-3.89-10.66-4.09a43.68 43.68 0 00-18.79 4.36c-.34.16-.54.39-.48.57s.35.25.73.2c4.3-.65 11-2.38 18.41-2.29 3.65.2 7 1 9.23 2.92a11.14 11.14 0 013.71 6.47c.11.36.27.61.45.61z"/><path class="cls-11" d="M615.68 587c.21.27 1.63-.25 4-.51a41.18 41.18 0 0110.93.22 34.07 34.07 0 015.76 1.35 14.78 14.78 0 015.15 2.76 4.89 4.89 0 011.77 4.63 8.87 8.87 0 01-1 2.75c-.24.41-.52.73-.76 1.12l-1.08 1a19.36 19.36 0 01-6 2.94 43.92 43.92 0 01-7.13 1.64 78.29 78.29 0 01-15.58.73 77.33 77.33 0 01-16.24-2.43 45.88 45.88 0 01-7.86-2.79 25.4 25.4 0 01-6.86-4.37 13.45 13.45 0 01-4.1-6.31 14 14 0 01.27-7.66 283.91 283.91 0 007.22-35.83c.77-5.78 1.29-11.47 1.9-17q.43-4.14.86-8.16c.25-2.69.39-5.35.53-8 1.08-20.88-.13-39.29-4-52.9-.68-2.35-1.45-3.86-1.77-3.76s-.17 1.76.31 4.11c2.66 13.62 2.9 31.68 1.17 52.26-.22 2.58-.43 5.19-.75 7.84s-.7 5.33-1.06 8.06c-.73 5.44-1.35 11-2.2 16.74-1.87 11.34-4 23.35-7.32 35a19.3 19.3 0 00-.28 10.64 18.58 18.58 0 005.68 8.79 30.76 30.76 0 008.24 5.18 51.1 51.1 0 008.73 3 83.77 83.77 0 0033.83 1 46.84 46.84 0 007.73-2.08 22.74 22.74 0 007.06-3.87c.51-.48 1-1 1.49-1.53a19.89 19.89 0 001.17-1.87 12.42 12.42 0 001.14-3.93 8.19 8.19 0 00-.65-4.22 9.26 9.26 0 00-2.53-3.16 17.42 17.42 0 00-6.35-3 35 35 0 00-6.29-1.06 40.44 40.44 0 00-11.45.62c-2.43.55-3.92 1.79-3.68 2.06z"/><path class="cls-11" d="M470.16 451.82c-.25.24.14 1 1 1.94 5.06 5.13 13.55 9.22 23.58 12.12a129.48 129.48 0 0034.39 4.72 119.24 119.24 0 0034.43-4.6c10.05-3.05 18.27-7.48 23.53-12.15.92-.8 1.4-1.53 1.19-1.8s-1.06 0-2.07.58c-5.79 3.61-14 6.93-23.75 9.23a146.74 146.74 0 01-33.32 3.37 164.31 164.31 0 01-33.37-3.54c-9.82-2.17-18.18-5.16-23.64-9.11-.91-.66-1.71-1-1.97-.76z"/><path class="cls-4" d="M672.61 433.8a394 394 0 01-32.24-26.8l3.44-3.64a389.82 389.82 0 0031.77 26.41zM598.85 544a188.62 188.62 0 0041.15 1c13.65-1.25 27.23-4.19 39.67-9.7A75.18 75.18 0 00697 524.87a44.28 44.28 0 0012.31-15.33 29.84 29.84 0 002.65-9.29 47.45 47.45 0 00.13-9.9 54.72 54.72 0 00-5.53-19l4.51-2.19a59.49 59.49 0 015.79 20.82 52.29 52.29 0 01-.25 10.9 34.71 34.71 0 01-3.16 10.63 48.65 48.65 0 01-13.69 16.77 79.23 79.23 0 01-18.37 10.88c-13 5.61-27 8.46-41 9.6a191.57 191.57 0 01-41.94-1.51zm-17.2 1.14q-3.39-.72-6.81-1.57c-34.37-8.45-70.33-11.1-101.25-7.45l-.59-5c31.51-3.71 68.1-1 103 7.57q3.35.82 6.66 1.53zm-114.49 89.58a1.91 1.91 0 00-.21-.92A3.72 3.72 0 00464 632a36 36 0 00-6.94-.2l-8.83.37a60 60 0 01-15.07-1.1 55.57 55.57 0 01-25.87-12.89 40.12 40.12 0 01-8.47-10.82 33 33 0 01-3.61-12.54c-.6-7.43 1.55-15.29 6.37-23.35a63.84 63.84 0 016.73-9.13 52.74 52.74 0 017.78-7 79 79 0 0115.82-9 126.27 126.27 0 0120.62-6.71l.86-.2c2.86-.65 2.94-.78 3.08-1l.14-.22-.81-3.76-.23-.14c-.22-.14-.36-.23-3.29.46l-.87.21a126.14 126.14 0 00-21.36 7.1 83.05 83.05 0 00-16.66 9.67 56.66 56.66 0 00-8.32 7.64 67.54 67.54 0 00-7.09 9.89c-5.15 8.86-7.35 17.54-6.55 25.81a36.34 36.34 0 004.26 13.89 43.14 43.14 0 009.42 11.57 57.29 57.29 0 0027.55 13 61.23 61.23 0 0015.68.73l8.74-.62a34.38 34.38 0 016.65 0c1.2.18 1.71.58 1.87.84a.8.8 0 01.15.4l-.09.22.61.46 1.7-.28z"/><path class="cls-4" d="M466.7 634.69l-.7-.69-.16 1.28a2.22 2.22 0 01-.27.79 5.29 5.29 0 01-1.52 1.65c-4.42 3.2-15.61 4.64-28.49 3.66a107.6 107.6 0 01-23.5-4.43c-10.39-3.24-18.59-7.59-25.06-13.28a38.43 38.43 0 01-9.34-12.25 36.29 36.29 0 01-3.34-15.82 80.33 80.33 0 018.46-34.43 71.29 71.29 0 0110.81-15.23 86.24 86.24 0 0114.82-12.31c9.74-6.44 21.65-11.6 36.39-15.81 5.2-1.46 5.18-1.52 5-2.21s-.2-.75-5.43.57C429.22 520 417 525 406.9 531.27a87.34 87.34 0 00-15.63 12.45A71.07 71.07 0 00373 577.3a36.76 36.76 0 00-1 4.6l-.76 4.57c-.08 1.06-.19 2.1-.3 3.14-.2 1.92-.41 3.91-.42 5.91a39.6 39.6 0 003.71 17.48 41.42 41.42 0 0010.32 13.39c7 6 15.64 10.45 26.56 13.63a107.32 107.32 0 0024.26 3.93c1.63.07 3.22.11 4.78.11 11.37 0 20.62-1.91 24.75-5.22a6.64 6.64 0 001.82-2.22 3.65 3.65 0 00.35-1.27v-.65zM584.69 520.3c-5.62-.91-11.2-1.9-16.81-2.9-29.11-5.16-59.21-10.5-96.47-4.76l-.38-2.47c37.67-5.81 68-.43 97.29 4.77 5.59 1 11.17 2 16.78 2.89zm93.8-38.54a39.17 39.17 0 00-5.65-8.85 54.79 54.79 0 00-6.89-6.58 74.44 74.44 0 00-13.72-8.66 125.72 125.72 0 00-18-7.28l-.26-.08c-2.41-.79-2.56-.72-2.79-.61l-.24.13-1.05 3.45c-.19.67.25.84 2.61 1.6l.23.08a125 125 0 0117.42 6.88 70.54 70.54 0 0113 8 51.59 51.59 0 016.38 5.92 35.2 35.2 0 015.11 7.72 23.73 23.73 0 012.2 9.39 22.66 22.66 0 01-2.12 9.95c-2.92 6.37-8.77 11.86-16.06 15.07-6.43 3-13.76 3.41-21.53 3.84l-2.65.14a219.65 219.65 0 01-26-.52c-3.37-.27-3.71-.22-3.78.48s.27.81 3.62 1.2a212.68 212.68 0 0024.09 1.42h2.09c4.3 0 8.62-.24 12.84-.57a40.9 40.9 0 0012.56-3c8.13-3.34 14.76-9.34 18.2-16.43a26.5 26.5 0 002.71-11.62 27.84 27.84 0 00-2.32-11.07z"/><path class="cls-11" d="M644 457.23c3.76.18 7.46-2.45 10.42-5.78a32.7 32.7 0 006.91-13 24.38 24.38 0 00-.35-14.85 19.07 19.07 0 00-7.45-9.22l-.94 1.18a20.53 20.53 0 015.54 9 24.33 24.33 0 01-.23 13 36.08 36.08 0 01-5.8 12c-2.42 3.25-5.33 5.79-8.1 6.18zm31.45 24.24c2.14 1.28 5.55 1.2 8.77.14s5.92-2.85 7.09-5.11l-1.18-.94a55.71 55.71 0 01-7 2.68 34 34 0 01-7.22 1.78zM671 510.63c-.64 5.82 5.11 13.34 13.61 15.68a21.29 21.29 0 0012.11-.19 22.89 22.89 0 008.26-4.81l-.9-1.22a31 31 0 01-8.13 3.13 22 22 0 01-10.37-.33c-7.19-2-12.42-7.59-13.07-12.26zm-34.54 11.91c-4.44 1.58-7.79 8.51-5.8 15.45a12.84 12.84 0 006.26 7.59 15.35 15.35 0 007.43 1.65l.17-1.5a20.48 20.48 0 01-6-2.71 11.55 11.55 0 01-4.42-6.06c-1.5-5.3.27-10.94 3.09-13.07zm-55.14-4.81a7.84 7.84 0 00-6.45 3 15 15 0 00-3.38 8 14.61 14.61 0 001.51 8.58 12.17 12.17 0 004.88 4.92l.89-1.22a15.53 15.53 0 01-3-4.93 15.18 15.18 0 01-.72-6.95c.57-5 3.25-9.27 6.39-10zm-46.56-7.66a7.39 7.39 0 00-6.34 3.14 14.35 14.35 0 00-2.86 8.17 15 15 0 002 8.35 12.93 12.93 0 004.92 4.72l.89-1.22a17.65 17.65 0 01-3.13-4.85 16.07 16.07 0 01-1.14-6.85c.21-5 2.61-9.28 5.75-10zM489 508.85c-3.75 1.06-7.4 6-7.52 12a12.9 12.9 0 002.39 7.94 12.26 12.26 0 005.16 4l.78-1.3a16.79 16.79 0 01-3.4-4.27 12.84 12.84 0 01-1.41-6.32c.12-4.69 2.21-8.86 4.63-10.69zM437.46 518c-3 2.26-4.89 7.93-3 13.56a11.44 11.44 0 0011.13 8.22l.24-1.49a16.6 16.6 0 01-4.64-2.64 11.59 11.59 0 01-3.36-5.21c-1.42-4.34-.76-8.86.77-11.42zm-36.94 18.42c-1.86 3.24-1.41 9.2 2.49 13.67a11.45 11.45 0 0013.46 3.23l-.37-1.47a16.85 16.85 0 01-5.3-.62 11.7 11.7 0 01-5.12-3.49c-3-3.44-4.15-7.86-3.74-10.82zM376.59 571c.06 3.36 2.64 8.37 8.07 10.41a10.2 10.2 0 007.85-.21 11.64 11.64 0 004.59-3.93l-1.1-1.04a17.62 17.62 0 01-4.55 2.17 9.07 9.07 0 01-5.61-.3 14.62 14.62 0 01-7.8-7.4zm4.66 50.15c2.48 2.27 7.88 3.85 13.11 1.31a10.21 10.21 0 005.24-5.85 11.75 11.75 0 00.31-6h-1.51a17.26 17.26 0 01-1.56 4.79 9 9 0 01-4.07 3.86 14.6 14.6 0 01-10.74.58zm40.42 20.46a7.13 7.13 0 007.57-2.53 6.42 6.42 0 000-8l-1.4.55a8.06 8.06 0 01-1.39 5.32 11 11 0 01-4.76 3.18z"/></g></g></g></svg>