<svg id="Layer_1" data-name="Layer 1" xmlns="http://www.w3.org/2000/svg" viewBox="0 0 1200 1200"><defs><style>.cls-10,.cls-3{fill:#1c1c1c}.cls-5{fill:#f397ae}.cls-7{fill:#ced4de}.cls-10{fill-rule:evenodd}</style></defs><path d="M892.52 507.73C831.67 405 728.05 336.8 604.55 298.31c-123.24-38.58-266.27-47.67-333.71 18.57-67.36 66.06-59.3 207.37-36 319.33 23.47 112 62 194.66 126.35 248.12C425.71 937.88 516 962 625 957.48c108.85-4.64 236.47-38 291.25-123.57 54.84-85.76 37.03-223.24-23.73-326.18z" fill="#eae7f4"/><path d="M720.33 365.18a33.81 33.81 0 01-7.24 27.16 34.32 34.32 0 01-27.29 12.55c-10.87-.23-21.32-4.67-27.64-12.46-6.51-7.62-8.2-18.11-6.45-27.22a36.84 36.84 0 0113.66-22.08 39.77 39.77 0 0110.63-5.78 43 43 0 0111-2.07c7.15.38 15.41 1.62 21.86 6.71s10.01 13.66 11.47 23.19zm-10.8 5.87a23.56 23.56 0 00-.41-4.25 14 14 0 11-19.7-19 21.07 21.07 0 00-3.49-.29 23.59 23.59 0 1023.6 23.57zm-161.89-5.27c1.69 9.28-.38 19.79-7.15 27.35-6.6 7.69-17.37 11.85-28.33 11.79s-21.89-4.16-28.88-11.41a25.35 25.35 0 01-6.61-12.7 25.08 25.08 0 01-.25-7 54.86 54.86 0 011.24-7.21c2.16-9.43 6.67-17.79 13.09-23.22 6.38-5.59 14.39-7.72 21.6-8.07a44 44 0 0111.09 2.1 38.25 38.25 0 0110.64 5.91 36.79 36.79 0 0113.56 22.46zm-11.85 5.27a23.56 23.56 0 00-.41-4.25 14 14 0 11-19.73-19 20.71 20.71 0 00-3.46-.29 23.59 23.59 0 1023.6 23.57z" fill="#fff"/><path class="cls-3" d="M607.14 434.08a3.86 3.86 0 01.89 2.16 5 5 0 010 1.4 7.72 7.72 0 01-.22 1.62 36.86 36.86 0 01-6.54 13.74c-3.15 4.16-7.72 8.17-11.7 7.28-4.73-.73-9.14-4.7-12.38-8.83s-5.63-9.18-6.1-13.6a5.23 5.23 0 01-.07-1.56 4 4 0 01.16-1.39 3.22 3.22 0 011.11-2 15 15 0 015.5-2.9 48.44 48.44 0 0112.21-2.08 45.56 45.56 0 0112.07 2.82 13.84 13.84 0 015.07 3.34z"/><path d="M586.11 480.21l.61-.39a.11.11 0 01.09 0l.54.29 1.27.73a75.31 75.31 0 0010.39 5.3c1.78.73 3.49 1.53 5.27 2.16s3.66 1 5.44 1.5c.57.12 1.11.25 1.68.35.09 5.18 0 16.58-2.42 21.6-.82 1.75-6.25 3-13 2-6.51-.92-11.21-3.46-11.69-6.32l-.51-3.14c-.09-3.21.07-7.5 1.18-9.82l-2.86-1.37c-2.07 4.32-1.46 12.68-1.33 14.46-1.78 1.84-5.18 3.08-9.47 3.46-5.91.54-12.2-.76-14.39-2.95-2-2-1.3-12.14-.07-19.6a37.33 37.33 0 0013.57-.93c3.75-.7 7.18-2.54 10.74-4.13z" fill="#f9fafb"/><path class="cls-5" d="M758.32 730a30.58 30.58 0 01-.28 16.46 46 46 0 01-7.34 15.22 23.68 23.68 0 01-7.4 6.83c-6.83-3-12.11-4.71-15.31-5.79l-.32-.09h-.07c3.31-10.39 6.23-21.13 8.65-32.21 1.36-6.23 2.57-12.55 3.55-19 3.72 3.34 9.76 8.7 17.06 14.74a24.4 24.4 0 011.46 3.84z"/><path class="cls-5" d="M768.11 756.42a21.35 21.35 0 00.32 7.56 18.27 18.27 0 003.2 6.87 15.54 15.54 0 005.91 4.67 10.23 10.23 0 007.82.44 7 7 0 003.49-2.73 5.07 5.07 0 00.8-2.32 7.62 7.62 0 00-.1-2.1 46.72 46.72 0 00-2-6.13c-.64-1.78-.86-3.33-.32-4.38a4.47 4.47 0 011.24-1.5l.95-.66c.32-.19.64-.32 1-.48a3.29 3.29 0 013.37.6 10.91 10.91 0 012.67 3.85 32.38 32.38 0 012.42 9.81c.5 6.55-1.69 13-2 19.86a13 13 0 00.83 5.49c-2 .89-4.74 1.82-7.63 2.8a62.72 62.72 0 01-7.08 2 54.59 54.59 0 00-5.94-8.74 72.82 72.82 0 00-8.86-8.33 94.17 94.17 0 00-17.41-11c-1.49-.73-2.92-1.4-4.28-2a26.11 26.11 0 007.14-5.85 41.68 41.68 0 008.74-16.45 31.71 31.71 0 00.22-16.78c3.88 3.15 8 6.39 12.3 9.53a20.06 20.06 0 00-1.43 2 35.35 35.35 0 00-5.37 13.97zm23.25 45.94a17.89 17.89 0 007.75-4.73 2 2 0 01.19.22 8.67 8.67 0 002.58 1.52 9.24 9.24 0 002.63.64 10.84 10.84 0 002.7.09 7.59 7.59 0 005-2.6c2.35-2.77 2.89-5.88 3.4-8.71a12.35 12.35 0 003.94.51h.16a70 70 0 017 24.11 61.45 61.45 0 01-.16 12.58 38.35 38.35 0 01-3.37 11.76 54.25 54.25 0 01-11.31 15.6 24.28 24.28 0 01-5.56 1.74 27.67 27.67 0 01-13.15-.41c-8.2-2.29-14.36-8.23-16.14-13.69a39.69 39.69 0 006.74-9.72 33.26 33.26 0 00.69-27.93 18.76 18.76 0 006.91-.98z"/><path class="cls-5" d="M791.87 859a26.73 26.73 0 0012.83.44 98.18 98.18 0 01-19.06 11c-15 6.67-31.38 10.35-47.9 12a16.8 16.8 0 01-4.35-2.32 14.72 14.72 0 01-5.63-7.66c-1.78-6.29.07-12.93 3.24-15.94 4.58-.1 9.18-.32 13.7-.67a53.31 53.31 0 0015.91-3.78 48 48 0 0014.26-9.09c1.53 6.59 8.07 13.57 17 16.02z"/><path class="cls-5" d="M725.76 856.65h1.46c-3.62 3.65-5.72 10.45-3.78 17.22a16.31 16.31 0 007.37 9.27 240.23 240.23 0 01-44.81-1.36l.09-.38q2-7 3.94-14.3c1.21-4.07 2.54-8.2 4-12.42.38.06.8.1 1.27.16a268.35 268.35 0 0030.46 1.81zM661 862.11c-.64 4.51-1.18 9.15-1.78 13.82l-3.62-.86a16.2 16.2 0 01-1.81-3.55 19.64 19.64 0 01-.89-8.83c.67-5.69 3.43-10.62 6.86-12.2.89.16 1.78.31 2.67.44l-.1 1c-.42 3.32-.87 6.72-1.33 10.18z"/><path class="cls-5" d="M650.82 873.93A406.63 406.63 0 00598 865a19.46 19.46 0 01-1.81-3.36 20.09 20.09 0 01-1.43-8.68c.22-5.49 2.51-10.29 5.72-12.07 15 1.78 29.29 4.32 43.43 6.83 3.81.67 7.62 1.37 11.43 2a10.32 10.32 0 00-2.57 2.26 19.61 19.61 0 00-2.38 21.09z"/><path class="cls-5" d="M595.83 840.38a10.88 10.88 0 00-2 2 18.32 18.32 0 00-3.62 10.38 19 19 0 002.54 10.58 8.53 8.53 0 00.86 1.24 358 358 0 00-50.7-1.08 15 15 0 01-2.42-3.4 16.33 16.33 0 01-1.74-7.94c.16-5.5 2.44-10.42 5.18-13a291.33 291.33 0 0151.9 1.22z"/><path class="cls-5" d="M526.61 864.81c-1-7.84-1.81-15.47-2.41-22.84 0-.22 0-.41-.07-.63 5.21-.8 10.3-1.37 15.28-1.78a18.18 18.18 0 00-5.14 12.51 16.12 16.12 0 003 10.08 15.06 15.06 0 001.39 1.62c-4.04.23-8.08.6-12.05 1.04zm-30.37 5.28c-2.44.6-5.87 1.46-10.1 2.76a15 15 0 01-2.92-2 14.71 14.71 0 01-4.26-6.61 19.53 19.53 0 01.44-13.5c2.74-.86 5.53-1.71 8.42-2.54 1.34-.38 2.38-.67 3.21-.92 2.32 6.54 4.45 12.93 6.32 19.19.29 1.08.57 2.12.89 3.17-.25.07-.54.13-.86.19z"/><path class="cls-5" d="M481 873.93a7.17 7.17 0 00.67.35c-3.75 1.27-7.91 2.86-12.45 4.83a101.19 101.19 0 00-21 12.17 15.32 15.32 0 01-3.46-.67 14.9 14.9 0 01-6.52-4.42 19.82 19.82 0 01-4.83-11.94c2.67-2.13 5.41-4.13 8.26-6 9.57-6.32 20.78-11.65 34-16.26a17.62 17.62 0 00-1 13.69 15.28 15.28 0 006.33 8.25zm-58.14 9.91c2.38-2.48 4.89-4.86 7.5-7.11a17.72 17.72 0 004.48 12.42 15.38 15.38 0 009 5.18 2.22 2.22 0 00.44.06 61.61 61.61 0 00-6.8 6.67 82.68 82.68 0 00-9 12.52 67.12 67.12 0 00-4.86 10.07 14.5 14.5 0 01-3.43 1.39 11.42 11.42 0 01-7.11-.38 18.46 18.46 0 01-9.41-8.42 89.25 89.25 0 015.44-13.08 91.2 91.2 0 0113.75-19.32zm-20.43 36.47a16.25 16.25 0 009.15 8.61 13.05 13.05 0 009.95-.29 4.66 4.66 0 00.5-.25 47.32 47.32 0 00-1.84 17.92 46.53 46.53 0 005.4 17.63 48.69 48.69 0 002.8 4.51A13.47 13.47 0 01427 972a11.57 11.57 0 01-5.18 4.89 18.2 18.2 0 01-11.62 1.27 44.84 44.84 0 01-11.79-31.35 106.85 106.85 0 014.02-26.5zm67 74.15c1 .22 2 .41 3.05.6a77.4 77.4 0 0019.89.92l11.05-.79a44.2 44.2 0 018.45 0c1.49.22 2.16.73 2.35 1.08a.7.7 0 01.19.5l-.12.28.12.1a2.93 2.93 0 01-.31 1 6.67 6.67 0 01-1.94 2.1c-5.59 4.06-19.79 5.9-36.12 4.67-3.34-.29-6.61-.64-9.78-1.12a11.13 11.13 0 001.81-1.77 8.35 8.35 0 001.71-5.91 6.4 6.4 0 00-.35-1.66zM431 971.84a62 62 0 006.55 6.76 71.78 71.78 0 0028.68 15 8.85 8.85 0 01-1.71 5.62 12.32 12.32 0 01-4.58 3.43 127.46 127.46 0 01-13.66-3.43c-13.18-4.13-23.57-9.62-31.77-16.83a16.51 16.51 0 009.38-1.5 13.07 13.07 0 006.64-7.4c.18-.49.33-1.11.47-1.65z"/><path d="M845.84 274.07c.22 2 .07 4.09.13 6.13a100.61 100.61 0 01-4.67 24.87A103.14 103.14 0 01830.78 327a98.43 98.43 0 01-15.12 17.41 84.85 84.85 0 01-18.07 12c-11.47 5.78-23.54 7.87-34.6 8.38a141.56 141.56 0 00-6.83-19.31c8.1 1.17 17.19 1.75 26.59-.64 11.44-2.67 22.75-10.48 29.9-21.82a78.91 78.91 0 008.83-18.43 106.15 106.15 0 004.95-20.71 48.44 48.44 0 00-2-22.39 52.52 52.52 0 00-12.29-19.67c-11.09-11.31-25.61-17.44-39.61-20.81-7.12-1.49-14-2.7-21.16-2.7a52.69 52.69 0 00-20.17 4.23 57.42 57.42 0 00-16.36 10.55 64.82 64.82 0 00-11.76 13.81 70.16 70.16 0 00-10.2 26.21c-4-2.51-8.06-4.83-12.16-6.89a78.3 78.3 0 015.4-15.47 82.09 82.09 0 014.64-8.83c.89-1.46 1.9-2.83 2.85-4.29l1.47-2.13 1.65-2.07a81.25 81.25 0 0115.6-15.12 96.14 96.14 0 019.53-6.19c1.71-.86 3.46-1.72 5.21-2.57s3.62-1.47 5.43-2.26a83.64 83.64 0 0123.54-5 72.09 72.09 0 0124.68 2.92 90.12 90.12 0 0123.86 11.06 103.93 103.93 0 0121 17.34 87.68 87.68 0 0115.12 22.18c.79 2 1.81 4 2.44 6s1.18 4.1 1.75 6.13c.35 2.02.67 4.08.95 6.15zM513.9 250.72a81.28 81.28 0 015.69 16.61c-4.22 2.29-8.42 4.77-12.55 7.44-3.55-17.92-16.36-37.65-37.58-49.69a50.25 50.25 0 00-19.19-6.35l-2.6-.32H445a25 25 0 00-5.37.45 75.91 75.91 0 00-10.29 2.6 141 141 0 00-20.14 7.85 71.34 71.34 0 00-18.49 13A45 45 0 00379 261.84a55.56 55.56 0 00-1.4 22c.29 1.78.51 3.56.8 5.3s.76 3.4 1.14 5.12c.7 3.4 1.87 6.67 2.83 9.94a84.65 84.65 0 008.76 18 59.52 59.52 0 0013.18 13.8 51.38 51.38 0 0016.1 7.75 68.7 68.7 0 0026 1.75 144.78 144.78 0 00-6.8 19.25 94.48 94.48 0 01-34.35-9.75A95.56 95.56 0 01371 326.26 98.93 98.93 0 01359.32 305a87.72 87.72 0 01-5.24-24.56c-.51-8.13 1.53-16.61 5.18-24.52a87.75 87.75 0 0115.06-22.24 106.15 106.15 0 0121-17.41 113.4 113.4 0 0111.68-6.5c2-.86 4.06-1.72 6.06-2.54s4.1-1.37 6.13-2.07a72.43 72.43 0 0124.75-2.95 83.64 83.64 0 0123.54 5 76.41 76.41 0 0120.17 11 80.28 80.28 0 0115.63 15.12l1.65 2.07 1.5 2.13c.95 1.46 2 2.82 2.86 4.28a83.47 83.47 0 014.61 8.91z" fill="#7684a6"/><path class="cls-5" d="M820.24 262.88a44.44 44.44 0 011.9 20.46 106 106 0 01-4.54 19.92 76.36 76.36 0 01-8.13 17.63 46.88 46.88 0 01-27.48 21c-9.31 2.67-18.46 2.23-26.84 1.27a147 147 0 00-8.58-16.1 166.22 166.22 0 00-44-47.46q-3.86-2.82-7.81-5.34a68.66 68.66 0 0110.83-25.76 62.68 62.68 0 0111.53-12.9 53.39 53.39 0 0115.54-9.6 48.63 48.63 0 0118.68-3.65 97.55 97.55 0 0120.2 2.83c13.41 3.3 27.16 9.27 37.39 19.73a47.89 47.89 0 0111.31 17.97z"/><path class="cls-5" d="M820.24 262.88a44.44 44.44 0 011.9 20.46 106 106 0 01-4.54 19.92 76.36 76.36 0 01-8.13 17.63 46.88 46.88 0 01-27.48 21c-9.31 2.67-18.46 2.23-26.84 1.27a147 147 0 00-8.58-16.1 166.22 166.22 0 00-44-47.46q-3.86-2.82-7.81-5.34a68.66 68.66 0 0110.83-25.76 62.68 62.68 0 0111.53-12.9 53.39 53.39 0 0115.54-9.6 48.63 48.63 0 0118.68-3.65 97.55 97.55 0 0120.2 2.83c13.41 3.3 27.16 9.27 37.39 19.73a47.89 47.89 0 0111.31 17.97zM505.23 276c-1.74 1.18-3.49 2.39-5.24 3.66a166.22 166.22 0 00-44 47.46 142.34 142.34 0 00-8.6 16.17 68.5 68.5 0 01-26.15-2.39 48.88 48.88 0 01-14.93-7.65 56.48 56.48 0 01-12-13.15 84.74 84.74 0 01-8.07-17.25c-.86-3.15-2-6.29-2.57-9.6-.35-1.62-.73-3.27-1.08-4.92s-.45-3.34-.7-5a51.51 51.51 0 011.37-20.17 41.06 41.06 0 0110.64-17.63c10.16-10.11 23.76-15.63 36.72-19.89a75.58 75.58 0 019.72-2.54 22.3 22.3 0 014.77-.45l2.38-.06 2.35.25a48.09 48.09 0 0117.85 5.63 68.68 68.68 0 0114.74 10.39 82.64 82.64 0 0111.41 12.64 69.27 69.27 0 0111.39 24.5z"/><path class="cls-7" d="M649 259.2a169.69 169.69 0 0149.53 25.95 163.73 163.73 0 0141.39 46 140.23 140.23 0 0116.23 39.3 130.27 130.27 0 013.59 23.76 122.28 122.28 0 01-2.89 33.48 113.26 113.26 0 01-12.13 30.18c-11 18.43-26.59 32.91-43.4 43.24l-.22.12a179.1 179.1 0 01-51.56 21.16 233.47 233.47 0 01-48.25 6.23 233.56 233.56 0 01-48.29-6.26 179.94 179.94 0 01-51.75-21.28c-3.14-1.94-6.25-4-9.3-6.23a125.8 125.8 0 01-34.09-37 112.63 112.63 0 01-12.14-30.18 121.12 121.12 0 01-2.89-33.48 133.8 133.8 0 013.56-23.64 139.76 139.76 0 0116.27-39.42 162.53 162.53 0 0141.39-46 169.25 169.25 0 0149.49-25.95 176.52 176.52 0 0124.59-6A180.93 180.93 0 01601.3 251a180.11 180.11 0 0123.12 2.19A174.83 174.83 0 01649 259.2zm-66.8 251.34c2.07 3.15 6.8 5.44 13.35 6.36a39.05 39.05 0 005.08.35c5.11 0 9.82-1.18 11.21-4.17 2.61-5.43 2.83-16.67 2.74-22.36a39.17 39.17 0 0016.32-.41 37.29 37.29 0 0016.3-8.74 41.61 41.61 0 009-12.07c.67-1.37.86-2.45.57-2.57s-.89.7-1.68 1.93a43.59 43.59 0 01-9.59 10.71 35.42 35.42 0 01-15.38 7.18 38.87 38.87 0 01-15.44-.19c-7.91-1.56-16.07-5.08-23.79-9.63l-2.54-1.46a24.76 24.76 0 011.43-8.38 12.64 12.64 0 004.82-.54 16.9 16.9 0 005-2.55 31.29 31.29 0 006.93-7.18 40.2 40.2 0 007-16.7 13.75 13.75 0 00.16-2.36 11.9 11.9 0 00-.22-2.51 9.34 9.34 0 00-2.45-4.6 17.08 17.08 0 00-7.37-4.13 40.44 40.44 0 00-13.47-1.46 44.27 44.27 0 00-13.53.63A18.92 18.92 0 00569 429a10.74 10.74 0 00-1.78 1.84 7.8 7.8 0 00-1.21 2.48 8 8 0 00-.51 2.48 12 12 0 00-.09 2.38c.38 6.29 3 11.88 6.61 17.09a36.51 36.51 0 006.73 7.15 22.56 22.56 0 007.88 4.1 28.72 28.72 0 00-1.43 8.95l-1.62 1c-1.53 1-3 2-4.54 3-3.21 1.46-6.33 3.24-9.66 3.9a34.83 34.83 0 01-19.09-.12 49.12 49.12 0 01-15.32-8 73.47 73.47 0 01-10.67-9.84c-1-1.12-1.75-1.82-2-1.66s.13 1.18 1 2.42a61 61 0 0010 11.12 48.1 48.1 0 0015.86 9.4 30.53 30.53 0 004.51 1.21c-.89 5.49-2.64 18.74 1 22.36 3.4 3.4 11.15 4.38 16.9 3.88 2.82-.2 7.43-1.02 10.63-3.6zm143.53-129.8a40 40 0 00.22-16.58 52.75 52.75 0 00-4.89-14.58A30.59 30.59 0 00699 333.22a56.72 56.72 0 00-12-.83 43.91 43.91 0 00-12.07 1.4 40.94 40.94 0 00-29 46.82 35.76 35.76 0 007.34 15.92 38.79 38.79 0 0014.39 11.09 47.75 47.75 0 0018.11 4 40 40 0 0032.47-15.22 39 39 0 007.49-15.66zM644.82 425c.19-.2-.16-1-.92-1.91a77.16 77.16 0 00-19.6-17.82 58.9 58.9 0 00-33.71-9.37c-12.9.47-24.4 5.11-33.35 10.45a88.15 88.15 0 00-20.49 16.77c-.8.89-1.18 1.68-1 1.88s1-.23 1.85-1a119.07 119.07 0 0121.4-14.45c8.93-4.7 19.86-8.7 31.77-9.14a60.49 60.49 0 0131.7 8A96.38 96.38 0 01642.94 424c.89.8 1.66 1.22 1.88 1zm-91.56-43.56a40.84 40.84 0 00-28.71-47.62 52.88 52.88 0 00-24.43-.06 34.94 34.94 0 00-12.12 6.1c-7.65 5.78-13.15 15.05-15.85 25.32a61 61 0 00-1.59 7.94 30.82 30.82 0 00.1 8.73 31.19 31.19 0 007.94 16.08c8.45 9 20.93 13.59 33.58 13.75s25.38-4.86 33.29-14.32a36.69 36.69 0 007.79-15.89z"/><path class="cls-7" d="M649 259.2a169.69 169.69 0 0149.53 25.95 163.73 163.73 0 0141.39 46 140.23 140.23 0 0116.23 39.3 130.27 130.27 0 013.59 23.76 122.28 122.28 0 01-2.89 33.48 113.26 113.26 0 01-12.13 30.18c-11 18.43-26.59 32.91-43.4 43.24l-.22.12a179.1 179.1 0 01-51.56 21.16 233.47 233.47 0 01-48.25 6.23 233.56 233.56 0 01-48.29-6.26 179.94 179.94 0 01-51.75-21.28c-3.14-1.94-6.25-4-9.3-6.23a125.8 125.8 0 01-34.09-37 112.63 112.63 0 01-12.14-30.18 121.12 121.12 0 01-2.89-33.48 133.8 133.8 0 013.56-23.64 139.76 139.76 0 0116.27-39.42 162.53 162.53 0 0141.39-46 169.25 169.25 0 0149.49-25.95 176.52 176.52 0 0124.59-6A180.93 180.93 0 01601.3 251a180.11 180.11 0 0123.12 2.19A174.83 174.83 0 01649 259.2zm-66.8 251.34c2.07 3.15 6.8 5.44 13.35 6.36a39.05 39.05 0 005.08.35c5.11 0 9.82-1.18 11.21-4.17 2.61-5.43 2.83-16.67 2.74-22.36a39.17 39.17 0 0016.32-.41 37.29 37.29 0 0016.3-8.74 41.61 41.61 0 009-12.07c.67-1.37.86-2.45.57-2.57s-.89.7-1.68 1.93a43.59 43.59 0 01-9.59 10.71 35.42 35.42 0 01-15.38 7.18 38.87 38.87 0 01-15.44-.19c-7.91-1.56-16.07-5.08-23.79-9.63l-2.54-1.46a24.76 24.76 0 011.43-8.38 12.64 12.64 0 004.82-.54 16.9 16.9 0 005-2.55 31.29 31.29 0 006.93-7.18 40.2 40.2 0 007-16.7 13.75 13.75 0 00.16-2.36 11.9 11.9 0 00-.22-2.51 9.34 9.34 0 00-2.45-4.6 17.08 17.08 0 00-7.37-4.13 40.44 40.44 0 00-13.47-1.46 44.27 44.27 0 00-13.53.63A18.92 18.92 0 00569 429a10.74 10.74 0 00-1.78 1.84 7.8 7.8 0 00-1.21 2.48 8 8 0 00-.51 2.48 12 12 0 00-.09 2.38c.38 6.29 3 11.88 6.61 17.09a36.51 36.51 0 006.73 7.15 22.56 22.56 0 007.88 4.1 28.72 28.72 0 00-1.43 8.95l-1.62 1c-1.53 1-3 2-4.54 3-3.21 1.46-6.33 3.24-9.66 3.9a34.83 34.83 0 01-19.09-.12 49.12 49.12 0 01-15.32-8 73.47 73.47 0 01-10.67-9.84c-1-1.12-1.75-1.82-2-1.66s.13 1.18 1 2.42a61 61 0 0010 11.12 48.1 48.1 0 0015.86 9.4 30.53 30.53 0 004.51 1.21c-.89 5.49-2.64 18.74 1 22.36 3.4 3.4 11.15 4.38 16.9 3.88 2.82-.2 7.43-1.02 10.63-3.6zm143.53-129.8a40 40 0 00.22-16.58 52.75 52.75 0 00-4.89-14.58A30.59 30.59 0 00699 333.22a56.72 56.72 0 00-12-.83 43.91 43.91 0 00-12.07 1.4 40.94 40.94 0 00-29 46.82 35.76 35.76 0 007.34 15.92 38.79 38.79 0 0014.39 11.09 47.75 47.75 0 0018.11 4 40 40 0 0032.47-15.22 39 39 0 007.49-15.66zM644.82 425c.19-.2-.16-1-.92-1.91a77.16 77.16 0 00-19.6-17.82 58.9 58.9 0 00-33.71-9.37c-12.9.47-24.4 5.11-33.35 10.45a88.15 88.15 0 00-20.49 16.77c-.8.89-1.18 1.68-1 1.88s1-.23 1.85-1a119.07 119.07 0 0121.4-14.45c8.93-4.7 19.86-8.7 31.77-9.14a60.49 60.49 0 0131.7 8A96.38 96.38 0 01642.94 424c.89.8 1.66 1.22 1.88 1zm-91.56-43.56a40.84 40.84 0 00-28.71-47.62 52.88 52.88 0 00-24.43-.06 34.94 34.94 0 00-12.12 6.1c-7.65 5.78-13.15 15.05-15.85 25.32a61 61 0 00-1.59 7.94 30.82 30.82 0 00.1 8.73 31.19 31.19 0 007.94 16.08c8.45 9 20.93 13.59 33.58 13.75s25.38-4.86 33.29-14.32a36.69 36.69 0 007.79-15.89z"/><path class="cls-7" d="M516.86 612.45a115.81 115.81 0 0049.72-21.82c.31-.26.6-.48.85-.7a6.34 6.34 0 001.08 1.78l1.08 1.37c.45.38.92.76 1.4 1.11a22.83 22.83 0 005.46 2.73 45.74 45.74 0 0011.5 2.35 49.08 49.08 0 0012.17-.57 28.34 28.34 0 0012.2-5 17.73 17.73 0 003.88-4.13 222.2 222.2 0 0019.91 13.15 157.52 157.52 0 0026.72 12.74 63.5 63.5 0 0016.61 3.54 27.52 27.52 0 009.38-.92 31.34 31.34 0 008.67-4.07 33.52 33.52 0 0012.2-15.25 55.22 55.22 0 004.06-19.22 80.62 80.62 0 00-1.55-19.28c-1.37-6.23-3-12.2-6.8-17.92a10.62 10.62 0 00-4.73-3.93 20.9 20.9 0 00-5-1 45.17 45.17 0 00-9.06.25 126.4 126.4 0 00-16.29 3.12 352.38 352.38 0 00-50.48 17.85.77.77 0 00-.07-.29 22.9 22.9 0 00-2.22-5.62 10.19 10.19 0 00-5.24-4.8 46.74 46.74 0 00-20.14-1.58c-6.17.89-12.17 2.66-16.17 6.8a23.5 23.5 0 00-2.6 3 18.46 18.46 0 00-2.39-1.17 465 465 0 00-51.24-17.41c-5.17-1.37-10.57-2.67-16.29-3.62a65.22 65.22 0 00-9-.83 20.93 20.93 0 00-2.48.13l-1.3.16-1.43.35a8.71 8.71 0 00-3 1.46 13.3 13.3 0 00-2 1.9 35.18 35.18 0 00-5.37 8.26 73.11 73.11 0 00-3.68 8.83 91 91 0 00-4.32 19 62.59 62.59 0 00.47 19.79 34.23 34.23 0 003.4 9.5 22.78 22.78 0 006.83 7.75c5.66 4.22 13 4.51 18.52 4.1a76.16 76.16 0 008.48-.67l4.16-.48c1.4-.26 2.77-.48 4.1-.74zM364.09 785.17c-2.07-2.35-2.54-6.76-2.29-11.37.64-9.31 2.73-17.79 3.56-23.22.06-.48-.06-.86-.32-1s-.63.1-.89.54a58.13 58.13 0 00-6.06 17.38 10.17 10.17 0 01-2-2.06c-1.74-2.45-1.81-5.66-1.52-7.94A30.58 30.58 0 01357 749a57.16 57.16 0 018.8-14.08 36.25 36.25 0 019.21-8.13 12.79 12.79 0 011.68-.79l.86-.29a4.42 4.42 0 001.46-.57 5.2 5.2 0 002.38-2.76 3.11 3.11 0 01.16-.38l3.78-18.4a33.11 33.11 0 01.92-3.52c.23-.7.42-1.4.61-2.07l1.05-3.68c1.81-6.39 3.52-12.39 5.81-18.24l3.75-10.48c.86-2.23 1.78-4.42 2.7-6.58.51-1.17 1-2.32 1.46-3.49l4.1-9.79 4.44-9.43a641.52 641.52 0 0135-64c11.15-18.08 21.48-32.88 29.19-43.75 8.17-11.43 14.36-19.41 17.38-23.22l1.08-1.4c1.62 1.08 3.27 2.07 4.93 3.05a179.77 179.77 0 0054.13 20.65 220.63 220.63 0 0049.43 4.45 220.58 220.58 0 0049.43-4.45A181.11 181.11 0 00699.46 510l.51.67c4.83 6.35 12.35 16.39 22.11 30.59 13.28 19.41 25 38.28 35.93 57.69 10.48 18.81 25.76 47.65 36.94 80.5 2.42 6.48 4.23 13.12 6.2 20.14l.82 3c.7 2.51 1.21 5.15 1.72 7.69.28 1.46.57 2.89.89 4.35l1.27 6.1a6.23 6.23 0 002.73 4.1 8.3 8.3 0 001.94.95l.41.16a4.47 4.47 0 01.83.38 31.42 31.42 0 019 7.5 57.67 57.67 0 017.15 9.94 42.58 42.58 0 014.56 11.24c.73 3.18 1.14 7.56-1.11 10.58a12.17 12.17 0 01-3 2.73 71.7 71.7 0 00-5.4-18c-.19-.44-.44-.7-.57-.64s-.13.39 0 .86c1.11 4.67 3.17 11.72 4.06 19.86.13 1.11.26 2.25.32 3.43.22 4.67-.22 9.43-2.79 12.07-2.32 2.38-5.75 2.41-8.29 2.19a57.38 57.38 0 00.38-7.88 116.81 116.81 0 00-1.46-15.66c-1-6.19-2.36-10.32-2.93-10.23s-.19 4.42.51 10.58a126.07 126.07 0 01.86 15.31 51.78 51.78 0 01-.64 8c-.51 2.57-1.24 5.34-2.79 7a4.1 4.1 0 01-2.77 1.37 8 8 0 01-1.84-.1 5 5 0 01-1.78-.48 3.5 3.5 0 01-2.22-2.12 9 9 0 01-.45-3.94c.32-6 2.7-12.65 2.23-20.34a36 36 0 00-2.7-11.15 14.77 14.77 0 00-3.75-5.3 7.47 7.47 0 00-7.4-1.33 12.07 12.07 0 00-3.12 1.81 8.28 8.28 0 00-2.41 3c-1.21 2.63-.51 5.33.16 7.33a47 47 0 011.9 5.53c.13.76.1 1.27-.15 1.56a3 3 0 01-1.43 1c-2.8 1.08-6.77-.8-9-3.78a14 14 0 01-2.47-5.28 16.68 16.68 0 01-.26-6.16 31.65 31.65 0 014.67-12.39c2.54-3.81 5.69-7.18 10.36-8.67a3.57 3.57 0 002.51-3.85c-.1-1-.22-2.12-.32-3.2-.35-2-.7-4.2-1.21-6.36-.92-4.35-2.13-9-3.49-13.88-2.77-9.82-6.29-20.74-10.68-32.34a256.57 256.57 0 00-16.36-36c-1.65-3.09-3.65-6-5.55-9l-3.28-4.32-.81-1.01a5 5 0 00-1.46-1.18 4.53 4.53 0 00-3.75-.41 4.37 4.37 0 00-2.93 2.6 4.74 4.74 0 00-.34 1.94v1.4l.09 5.33c0 3.59.07 7.22.1 10.81a430.26 430.26 0 01-5.18 61.24C733.35 714.84 732 722 730.3 729c-5.94 26.11-14.8 50.26-23.47 72.81s-16.71 43.78-22.21 63.69c-1.24 5-2.44 9.92-3.62 14.65s-1.84 9.47-2.73 14c-.41 2.25-.79 4.48-1.21 6.67-.25 2.22-.51 4.38-.76 6.54-.64 5.37-1.27 10.55-1.84 15.54a.27.27 0 00.09.16c2.89-1.4 5.63-2.7 8-3.69.6-.22 1.21-.47 1.81-.7.41-.16.83-.31 1.21-.44l2.35-.83a60.43 60.43 0 018.1-2.16c4.76-.89 8.51-1 11.85-.19a13.36 13.36 0 017.24 4.61 54.92 54.92 0 00-23.79 5.53c-.45.19-.7.47-.64.69s.48.32 1 .26c5.43-.83 13.94-3 23.34-2.89 4.61.25 8.9 1.3 11.69 3.71a13.67 13.67 0 014.39 6.87 43.86 43.86 0 00-7.4-1.21 51.8 51.8 0 00-14.52.79c-3.11.57-5 2.16-4.7 2.51s2.06-.32 5-.63a52.28 52.28 0 0113.85.28 41.8 41.8 0 017.27 1.69 18.9 18.9 0 016.55 3.49 6.21 6.21 0 012.25 5.88 11.78 11.78 0 01-1.2 3.49c-.32.51-.67.92-1 1.43l-1.36 1.27a25.29 25.29 0 01-7.6 3.72 57.92 57.92 0 01-9 2.1 101.14 101.14 0 01-19.76.92 98.88 98.88 0 01-20.62-3.08A58.58 58.58 0 01669 953a32.64 32.64 0 01-8.7-5.53 17.16 17.16 0 01-5.21-8 18.1 18.1 0 01.35-9.73c4.44-15.59 7-30.75 9.15-45.42 1-7.31 1.65-14.52 2.41-21.54.38-3.5.73-6.93 1.08-10.36s.51-6.76.7-10.07c1.37-26.46-.16-49.81-5.08-67.09a23.68 23.68 0 00-1.31-3.56 48.4 48.4 0 005.88-4.48c1.18-1 1.78-1.94 1.49-2.28s-1.33 0-2.6.73c-7.37 4.57-17.73 8.8-30.12 11.72a186 186 0 01-42.25 4.25 206.35 206.35 0 01-42.31-4.47c-12.45-2.77-23.06-6.55-30-11.54-1.14-.92-2.16-1.33-2.48-1s.19 1.27 1.24 2.44a33.32 33.32 0 004.42 3.75 18.34 18.34 0 00-1.75 4.48c-1.4 4.29-2.13 9-3.15 14-.63 5-1.49 10.39-1.77 16a284.79 284.79 0 00-.19 37c.69 13.25 2.06 27.32 4.16 42 1.08 7.34 2.25 14.8 3.75 22.36s3.08 15.25 5.4 23.06a17.88 17.88 0 01.31 9.73 17.15 17.15 0 01-5.17 8 33.55 33.55 0 01-8.71 5.56 60.18 60.18 0 01-10 3.53 98.31 98.31 0 01-20.54 3.07 101.14 101.14 0 01-19.76-.92 57.39 57.39 0 01-9-2.1 24.77 24.77 0 01-7.59-3.72l-1.37-1.27c-.32-.51-.67-.92-1-1.43a11 11 0 01-1.21-3.49 6.26 6.26 0 012.25-5.88 19 19 0 016.52-3.49 42.77 42.77 0 017.3-1.69 52.28 52.28 0 0113.85-.28c3 .31 4.8 1 5.06.63s-1.59-1.94-4.71-2.51a52 52 0 00-14.55-.79 44 44 0 00-7.37 1.21 13.73 13.73 0 014.39-6.87c2.76-2.41 7.08-3.46 11.69-3.71 9.4-.13 17.88 2.06 23.35 2.89.47.06.86 0 .92-.26s-.16-.5-.6-.69a55 55 0 00-23.83-5.53 13.43 13.43 0 017.37-4.64c3.34-.79 7-.67 11.82.22a73 73 0 018.07 2.16l2.35.83c.38.16.79.28 1.2.44.61.23 1.21.48 1.81.7 2.39 1 5.12 2.29 8 3.69a.74.74 0 00.1-.16c-.61-5-1.24-10.26-1.88-15.66-.25-2.2-.54-4.39-.79-6.64-.42-2.23-.83-4.48-1.24-6.77-.89-4.57-1.59-9.34-2.8-14.14s-2.41-9.75-3.68-14.83c-5.59-20.14-13.76-41.62-22.56-64.43s-17.63-47.3-23.44-73.76c-.73-3.3-1.43-6.64-2.16-10s-1.11-6.77-1.72-10.2-1.05-6.83-1.59-10.29-.69-7-1.08-10.46-.73-7-1.08-10.57-.41-7.12-.63-10.68c-.22-7.18-.92-14.39-.45-21.66.13-3.72.23-7.41.35-11.06l.16-5.49.07-1.37a13.84 13.84 0 000-1.84 3.55 3.55 0 00-4-2.83 3.6 3.6 0 00-2.16 1.05l-1 1-2 2a29.79 29.79 0 00-3.53 4.32 85.41 85.41 0 00-6 9.12c-7.05 12.48-11.85 25.28-16.08 37.23s-7.46 23.22-10.19 33.29c-1.37 5-2.61 9.75-3.69 14.1-.54 2.2-1.05 4.29-1.55 6.29-.32 1.27-.64 2.51-.93 3.72a3 3 0 00.42 2.22 3.42 3.42 0 001.9 1.21 9 9 0 012.13.73c.51.22 1 .48 1.49.73a19.22 19.22 0 012.7 2 25.37 25.37 0 014.39 5.18 31.07 31.07 0 014.73 12.33 17 17 0 01-.22 6.1 13.83 13.83 0 01-2.41 5.24c-2.2 3-6.14 4.89-8.87 3.84a3.26 3.26 0 01-1.43-1c-.25-.26-.22-.73-.16-1.47a46.6 46.6 0 011.88-5.46c.67-2 1.4-4.7.22-7.4a8.68 8.68 0 00-2.41-3.15 15 15 0 00-3.12-1.84 7.56 7.56 0 00-7.49 1.27 14.13 14.13 0 00-3.82 5.31 36.14 36.14 0 00-2.73 11.18c-.51 7.72 1.91 14.36 2.23 20.36.19 3-.42 5.34-2.55 6.1a10.17 10.17 0 01-3.62.61 4.25 4.25 0 01-2.76-1.31c-1.56-1.65-2.32-4.41-2.83-7a58.2 58.2 0 01-.67-8 126.42 126.42 0 01.86-15.31c.7-6.23 1.08-10.55.51-10.68s-2 4.07-2.95 10.36a119.35 119.35 0 00-1.47 15.63 54.91 54.91 0 00.35 7.4c-2.54.11-5.78-.21-7.62-2.4z"/><path d="M620.55 560.42c13.4-4.2 30.75-9.88 51-14.33a124.17 124.17 0 0115.63-2.44 40.33 40.33 0 017.84 0 17.81 17.81 0 013.43.73 5.69 5.69 0 011.72 1.78c2.67 4.07 4.35 9.85 5.46 15.47a75 75 0 011.34 17.7 50.59 50.59 0 01-3.43 16.93 27.75 27.75 0 01-9.66 12.52 25.71 25.71 0 01-6.89 3.4 20.92 20.92 0 01-7.34.89 58.41 58.41 0 01-15.16-2.74 174.37 174.37 0 01-26.55-11c-7.82-3.94-14.78-7.84-20.81-11.37a30.27 30.27 0 002.35-5.78 47.49 47.49 0 001.67-12.18 45.17 45.17 0 00-.92-9.53zm-6.77-.54a39.59 39.59 0 01.89 10 41.73 41.73 0 01-1.59 10.32c-1 3.3-2.54 6.45-4.86 8.1a22.37 22.37 0 01-9.34 3.78 43 43 0 01-10.48.67 42.24 42.24 0 01-10-1.68 18.17 18.17 0 01-4.06-1.82l-.67-.44-.54-.67a5.93 5.93 0 01-1-1.55 19.47 19.47 0 01-1.37-8.49 44.65 44.65 0 011.11-8.73c1.3-5.53 3.31-10.68 6.2-14.23 3.36-2.83 8.8-4 14.45-4.39a45.35 45.35 0 0117.79 2.51 4.83 4.83 0 012 2.29 18.18 18.18 0 011.47 4.33zm-121.92-20.27l.89-.13a17.82 17.82 0 011.87-.12 56.86 56.86 0 018 .54c5.43.73 10.74 1.81 15.85 3 20.52 4.7 38.22 10 51.91 13.95a17.59 17.59 0 002.22.54 42.72 42.72 0 00-5 10.89 45.77 45.77 0 00-1.94 9.63 24.26 24.26 0 001.05 10.45c-.38.22-.79.48-1.24.76a127.88 127.88 0 01-49.49 18c-1.27.2-2.57.39-3.88.58s-2.63.19-4 .31c-2.67.29-5.37.35-8.13.39a33.67 33.67 0 01-7.88-.45 15.77 15.77 0 01-6.7-2.86c-4-2.86-6.39-7.88-7.43-13.4a57.26 57.26 0 01-.32-17.67 89.51 89.51 0 013.94-17.63c1.87-5.49 4.25-11.12 7.46-14.93a10.26 10.26 0 011.18-1.14c.22-.22.32-.19.44-.29a1.26 1.26 0 01.51-.19z" fill="#ffe688"/><path d="M643.25 604.38a9.85 9.85 0 01-4.14-2.8 75.27 75.27 0 01-12-6.32c-3.36-2.06-6.9-3.7-10-6.1-.24-.18-.44-.39-.66-.57a7.74 7.74 0 01-2.6 1c-4.41.67-7.92 3.51-12.12 4.93a47.52 47.52 0 01-11.5 1.91c-8.55.66-16.42-1.19-21.92-7.77a2.52 2.52 0 01-.21.25c-3.64 3.78-8.17 5.62-13 7.32a94.7 94.7 0 00-11.88 5.29 12.46 12.46 0 01-2.33.9 10 10 0 01-2.91.93c-15.75 26.53-25.64 60.24-25.64 83.17 0 43.09 34.93 71 78 71s78-27.88 78-71c-.02-22.68-9.69-55.78-25.09-82.14z" fill="#e5e7eb"/><path class="cls-7" d="M607.65 435.61c-3.32-5.49-10.89-6.11-16.66-6.44-6.39-.38-13.1.6-18.46 4.32a3 3 0 00-1 4 2.93 2.93 0 004 1c4.3-3 9.37-3.76 14.51-3.58a43.7 43.7 0 017.39.86c1.94.4 4.18 1 5.27 2.76 1.86 3.2 6.88.29 4.95-2.92z"/><path class="cls-10" d="M601.31 528.59a232 232 0 01-48.25-6.24 179.78 179.78 0 01-51.77-21.27c-16.82-10.33-32.45-24.82-43.4-43.26a112.8 112.8 0 01-12.13-30.16 121.61 121.61 0 01-2.89-33.49 138.29 138.29 0 0119.82-63.06 163.19 163.19 0 0141.4-46 170.14 170.14 0 0149.5-25.95 178.28 178.28 0 0124.59-6 182.34 182.34 0 0123.13-2.16v-3.46a174.76 174.76 0 00-23.77 1.22A172.9 172.9 0 00552 254a170.24 170.24 0 00-52 25.6 166.37 166.37 0 00-44 47.46 143.55 143.55 0 00-21.26 66.64 127.69 127.69 0 003.19 35.8 118.33 118.33 0 0013.25 32.26c11.9 19.65 28.74 34.7 46.53 45.14a178.94 178.94 0 0054.13 20.67 220.72 220.72 0 0049.47 4.43z"/><path class="cls-10" d="M601.31 251a182.34 182.34 0 0123.13 2.18 178.28 178.28 0 0124.59 6 170.14 170.14 0 0149.5 25.95 163 163 0 0141.39 46 138.18 138.18 0 0119.83 63.06 121.57 121.57 0 01-2.89 33.49 112.82 112.82 0 01-12.14 30.16c-10.94 18.44-26.57 32.93-43.4 43.26a179.62 179.62 0 01-51.76 21.27 232.08 232.08 0 01-48.25 6.24V532a220.77 220.77 0 0049.44-4.44 179 179 0 0054.13-20.67c17.78-10.44 34.62-25.49 46.53-45.14a119 119 0 0013.25-32.26 127.68 127.68 0 003.18-35.8 143.58 143.58 0 00-21.25-66.64 166.26 166.26 0 00-44-47.46 170.3 170.3 0 00-52-25.6 165.5 165.5 0 00-49.3-6.45zm-88.97 84.26a43.12 43.12 0 0111.1 2.12 38.47 38.47 0 0110.66 5.91 36.77 36.77 0 0113.54 22.49c1.7 9.27-.38 19.79-7.13 27.34S523.14 405 512.15 404.9s-21.87-4.14-28.86-11.4a24.42 24.42 0 01-6.88-19.72 55.16 55.16 0 011.24-7.23c2.16-9.44 6.68-17.77 13.11-23.21s14.37-7.73 21.58-8.08v-2.88a43.4 43.4 0 00-12.21 1.39 35.1 35.1 0 00-12.13 6.08c-7.66 5.79-13.14 15-15.84 25.3a58.87 58.87 0 00-1.6 8 30.52 30.52 0 00.11 8.74 31.18 31.18 0 007.94 16.09c8.44 9 20.93 13.58 33.56 13.73s25.4-4.84 33.3-14.3a36.49 36.49 0 007.84-15.91 40.89 40.89 0 00-28.71-47.62 43.77 43.77 0 00-12.21-1.45z"/><path class="cls-10" d="M686.92 335.26c7.16.39 15.42 1.62 21.85 6.73s10.11 13.65 11.58 23.18a34.2 34.2 0 01-34.53 39.7c-10.87-.22-21.35-4.66-27.64-12.44-6.51-7.63-8.2-18.1-6.45-27.22a36.63 36.63 0 0113.65-22.08 39.05 39.05 0 0110.62-5.79 43 43 0 0111-2.08v-2.88a44.32 44.32 0 00-12.08 1.4 41.71 41.71 0 00-12.1 5.72 40.76 40.76 0 00-16.68 24.5 41.46 41.46 0 00-.33 16.56 35.79 35.79 0 007.33 15.92 38.75 38.75 0 0014.4 11.07 47.29 47.29 0 0018.11 4 40.15 40.15 0 0032.47-15.22 39.34 39.34 0 007.61-15.68 40.35 40.35 0 00.23-16.58 52.94 52.94 0 00-4.91-14.57 30.44 30.44 0 00-22.11-16.35 55.83 55.83 0 00-12-.84zm-163.28 37.95a14 14 0 01-8-25.46 23.58 23.58 0 1020.12 23.31 23.18 23.18 0 00-.41-4.28 14 14 0 01-11.71 6.43z"/><path class="cls-10" d="M697.39 373.21a14 14 0 01-8-25.46 23.58 23.58 0 1020.12 23.31 23.18 23.18 0 00-.41-4.28 13.94 13.94 0 01-11.71 6.43zM535.79 425c.21.2 1-.21 1.85-1A120.15 120.15 0 01559 409.53c8.92-4.67 19.83-8.69 31.76-9.12a60.21 60.21 0 0131.7 8A97.14 97.14 0 01643 424c.88.8 1.64 1.23 1.86 1s-.15-1-.92-1.89a76.35 76.35 0 00-19.58-17.83 59 59 0 00-33.71-9.39c-12.9.47-24.4 5.11-33.37 10.46a88.7 88.7 0 00-20.48 16.76c-.8.89-1.23 1.72-1.01 1.89z"/><path class="cls-10" d="M590 427.91a44.52 44.52 0 0112.05 2.83 13.18 13.18 0 015.06 3.35 3.85 3.85 0 01.9 2.14 5.35 5.35 0 010 1.39 7.52 7.52 0 01-.23 1.62 36.89 36.89 0 01-6.52 13.76c-3.14 4.16-7.71 8.15-11.69 7.28-4.73-.75-9.15-4.7-12.37-8.84s-5.63-9.18-6.12-13.6a6.51 6.51 0 01-.07-1.57 4.76 4.76 0 01.17-1.37 3.34 3.34 0 011.12-2 15.37 15.37 0 015.49-2.91 48.41 48.41 0 0112.21-2.08l.08-2.87a43.57 43.57 0 00-13.51.66A19 19 0 00569 429a10.6 10.6 0 00-1.79 1.86 7.73 7.73 0 00-1.2 2.47 9.41 9.41 0 00-.52 2.47 11.53 11.53 0 00-.07 2.41c.36 6.27 3 11.86 6.6 17.08a37.07 37.07 0 006.74 7.13 21.6 21.6 0 009.77 4.53 13.28 13.28 0 006.1-.41 17.84 17.84 0 005-2.55 31.14 31.14 0 006.91-7.17 39.91 39.91 0 007-16.72 12.72 12.72 0 00.16-2.34 10.62 10.62 0 00-.22-2.51 9.26 9.26 0 00-2.44-4.64 17.43 17.43 0 00-7.36-4.11 41.09 41.09 0 00-13.57-1.5z"/><path class="cls-10" d="M656.78 466.93c-.27-.11-.9.7-1.7 1.94a44 44 0 01-9.57 10.7 35.8 35.8 0 01-15.39 7.18c-12.16 2.54-26.3-2.24-39.22-9.84l-3.2-1.79-.63-.36c-.2-.06-.42-.38-.61-.13l-1.21.79-1.7 1.1-4.54 3c-3.23 1.46-6.32 3.22-9.66 3.9a34.83 34.83 0 01-19.09-.13 48.58 48.58 0 01-15.32-8 72.54 72.54 0 01-10.67-9.86c-1-1.11-1.76-1.79-2-1.63s.13 1.17 1 2.41a61.81 61.81 0 0010 11.11 48.15 48.15 0 0015.85 9.4 37.5 37.5 0 0021.26.81c3.76-.71 7.18-2.55 10.74-4.15l4.94-3.19.63-.4.12-.08h-.11l.61.35 1.29.72a74 74 0 0010.4 5.31c1.78.73 3.51 1.53 5.28 2.17l5.44 1.51c7.19 1.72 14.58 2.29 21.17.52a37 37 0 0016.31-8.74 41.17 41.17 0 009-12.07c.67-1.36.85-2.48.58-2.55z"/><path class="cls-3" d="M585.12 477.17c-.17-10 3.21-14.24 3.35-14.41l2.46 2-1.23-1 1.24 1s-2.79 3.68-2.64 12.36zm15.5 40.07a37.46 37.46 0 01-5.07-.36c-6.55-.92-11.29-3.22-13.34-6.34-3.17 2.58-7.82 3.39-10.62 3.63-5.77.52-13.51-.47-16.91-3.86-4.14-4.14-1.28-20.88-.66-24.19l3.12.57c-1.4 7.56-2.4 19.19-.21 21.37s8.48 3.46 14.37 2.95c4.87-.43 8.57-2 10.14-4.23l2.23-3.19.64 3.84c.48 2.85 5.17 5.39 11.68 6.3 6.75.95 12.18-.28 13-2 3.14-6.58 2.36-24.11 2.35-24.28l3.18-.15c0 .75.82 18.5-2.67 25.8-1.4 2.95-6.1 4.14-11.23 4.14z"/><path class="cls-3" d="M580.83 507.86c-.05-.41-1-10 1.29-14.76l2.87 1.36c-1.57 3.29-1.26 10.56-1 13.08z"/><path class="cls-10" d="M576.05 553.14c-3.94 3.87-6.53 9.16-8.45 15.1a45 45 0 00-1.93 9.61 23.86 23.86 0 001.25 11 12 12 0 001.59 2.85l1.07 1.35c.45.38.93.75 1.41 1.12a23.27 23.27 0 005.47 2.73 45.1 45.1 0 0011.54 2.35 48.48 48.48 0 0012.15-.58 28 28 0 0012.21-5c4.12-3.12 6-7.59 7.16-11.57a46.51 46.51 0 001.66-12.1 45.26 45.26 0 00-1.38-11.68 23.87 23.87 0 00-2.24-5.63 10.13 10.13 0 00-5.23-4.8 47.14 47.14 0 00-20.16-1.6c-6.15.9-12.08 2.63-16.09 6.82l2.06 2c3.37-2.82 8.82-4 14.45-4.36a45.44 45.44 0 0117.81 2.5 5 5 0 012 2.31 18.44 18.44 0 011.47 4.25 40.27 40.27 0 01.86 10 41.63 41.63 0 01-1.58 10.35c-1 3.3-2.53 6.43-4.87 8.1a22.2 22.2 0 01-9.33 3.75 43.52 43.52 0 01-10.49.68 40.53 40.53 0 01-9.95-1.7 18.76 18.76 0 01-4.07-1.79l-.67-.45-.55-.67a6.28 6.28 0 01-1-1.57 19.5 19.5 0 01-1.35-8.47 43.09 43.09 0 011.12-8.72c1.29-5.55 3.3-10.69 6.18-14.26z"/><path class="cls-10" d="M616.38 561c.16.41 1.85.15 4.17-.59 13.42-4.21 30.76-9.9 51-14.34a128.09 128.09 0 0115.64-2.45 40.41 40.41 0 017.85 0 14.91 14.91 0 013.41.75 5.07 5.07 0 011.71 1.75c2.68 4.09 4.36 9.88 5.49 15.5a76.34 76.34 0 011.35 17.65 50.18 50.18 0 01-3.45 17 27.33 27.33 0 01-9.66 12.5 25.48 25.48 0 01-6.87 3.41 21.49 21.49 0 01-7.36.9 59.42 59.42 0 01-15.14-2.74 174.11 174.11 0 01-26.55-11c-7.93-4-15-7.92-21-11.48-2.09-1.24-3.67-1.87-3.93-1.51s.91 1.64 2.87 3.1a231.86 231.86 0 0020.2 13.33 155.62 155.62 0 0026.75 12.74 62.08 62.08 0 0016.58 3.48 27.26 27.26 0 009.38-.93 31.74 31.74 0 008.69-4.07 33.55 33.55 0 0012.19-15.2 55.46 55.46 0 004-19.23 80.41 80.41 0 00-1.54-19.27c-1.39-6.23-3-12.23-6.81-17.92a10.5 10.5 0 00-4.71-4 20.86 20.86 0 00-5-1 44.9 44.9 0 00-9 .25 122.28 122.28 0 00-16.3 3.13 346.07 346.07 0 00-50.47 17.85c-2.24 1.01-3.66 1.98-3.49 2.39zm-41.72-3.73c.15-.42-1.32-1.35-3.61-2.28a462.26 462.26 0 00-51.23-17.43c-5.18-1.36-10.57-2.66-16.3-3.6a59.68 59.68 0 00-9-.83 19.39 19.39 0 00-2.48.12l-1.29.15-1.43.35a8.92 8.92 0 00-3 1.47 14.33 14.33 0 00-2 1.89 36.18 36.18 0 00-5.38 8.26 75.93 75.93 0 00-3.66 8.85 92.81 92.81 0 00-4.34 19 62.18 62.18 0 00.49 19.77 34.72 34.72 0 003.38 9.52 23.5 23.5 0 006.83 7.75c5.69 4.23 13 4.52 18.52 4.09a79 79 0 008.51-.66l4.14-.48 4-.74a115.8 115.8 0 0049.73-21.81c2-1.55 3-2.94 2.76-3.28s-1.81.42-3.87 1.72a128.6 128.6 0 01-49.51 18l-3.88.55-4 .32a77.63 77.63 0 01-8.12.38 32.45 32.45 0 01-7.87-.43 15.61 15.61 0 01-6.65-2.92c-4-2.86-6.38-7.85-7.42-13.4a57.43 57.43 0 01-.33-17.65 90.88 90.88 0 014-17.62c1.89-5.52 4.26-11.15 7.47-14.94a8.36 8.36 0 011.17-1.15c.21-.23.33-.2.44-.27a1 1 0 01.5-.2l.7-.21.87-.11a15.51 15.51 0 011.86-.13 55.39 55.39 0 018.05.55c5.42.72 10.74 1.81 15.87 2.94 20.52 4.71 38.19 10 51.89 13.95 2.32.72 4.04.92 4.19.51zm105.51-288.78a88.36 88.36 0 016-17.78 87.13 87.13 0 014.65-8.84c.88-1.45 1.91-2.83 2.86-4.27l1.46-2.16 1.67-2a79.8 79.8 0 0115.6-15.12 90.56 90.56 0 019.52-6.21l5.19-2.58c1.73-.91 3.62-1.47 5.43-2.23a82.35 82.35 0 0123.54-5.05 72.23 72.23 0 0124.71 2.91 90.69 90.69 0 0123.84 11 105 105 0 0121 17.35 87.77 87.77 0 0115.12 22.18c.79 2 1.81 4 2.44 6s1.18 4.1 1.77 6.13c.31 2.08.61 4.14.92 6.19s0 4.11.11 6.15a99.08 99.08 0 01-4.67 24.87A102.58 102.58 0 01830.78 327a96.83 96.83 0 01-15.1 17.41 86 86 0 01-18.08 12c-12.6 6.35-25.94 8.26-37.88 8.45l-.24 4.79c12.53.83 27-.24 41.21-6.43A90.7 90.7 0 00821.2 351a102.1 102.1 0 0017.44-18.63A109 109 0 00851 308.41a106.2 106.2 0 005.76-27.66c0-2.52.19-5.09 0-7.61s-.69-5-1-7.57q-1-3.66-2-7.36c-.73-2.44-1.86-4.71-2.79-7.09a96.36 96.36 0 00-17-25.26 112.7 112.7 0 00-23.32-19.13 99.18 99.18 0 00-26.78-12 81.44 81.44 0 00-28.54-2.73 90.21 90.21 0 00-26.33 6.42c-2 .92-4.08 1.64-6 2.71l-5.68 3.09a97.64 97.64 0 00-10.27 7.3 84.9 84.9 0 00-16.29 17.4l-1.68 2.32-1.47 2.42c-.95 1.62-2 3.18-2.82 4.81a90.11 90.11 0 00-9.39 29.22z"/><path class="cls-10" d="M694.24 277.11a70.19 70.19 0 0111.37-28.6 63.74 63.74 0 0111.53-12.89 54.36 54.36 0 0115.54-9.6 49 49 0 0118.7-3.65 99.4 99.4 0 0120.18 2.82c13.43 3.32 27.18 9.28 37.4 19.75a47.89 47.89 0 0111.28 17.93 44.75 44.75 0 011.92 20.46 106.21 106.21 0 01-4.56 19.92 76.63 76.63 0 01-8.13 17.64 46.8 46.8 0 01-27.49 21c-10.78 3.07-21.39 2-30.82.76l-.28 1.9c9.35 1.64 20.38 3.16 31.87.24 11.46-2.69 22.77-10.49 29.92-21.84a79.35 79.35 0 008.82-18.41 107.8 107.8 0 005-20.71 48.71 48.71 0 00-2-22.39 52 52 0 00-12.29-19.67c-11.09-11.32-25.61-17.46-39.62-20.81a101.48 101.48 0 00-21.17-2.71 52.23 52.23 0 00-20.17 4.24A57.45 57.45 0 00714.88 233a65.56 65.56 0 00-11.76 13.82 70.54 70.54 0 00-10.78 30zm-169.61-9.42a88.41 88.41 0 00-5-19.4 90.87 90.87 0 00-4.42-9.85c-.86-1.62-1.87-3.18-2.83-4.81l-1.47-2.43-1.68-2.31a85.11 85.11 0 00-16.32-17.41 83.5 83.5 0 00-22-13.09 90.46 90.46 0 00-26.28-6.39 81.32 81.32 0 00-28.44 2.81 98.94 98.94 0 00-26.79 12A113.54 113.54 0 00366.08 226a96.22 96.22 0 00-17 25.33c-4.17 9.25-6.58 19.52-5.78 29.69a94.14 94.14 0 006.48 27.71A104.15 104.15 0 00363.42 332c11 13.66 24.58 23.84 38.68 29.78a94 94 0 0040.9 7.95v-4.79a93.79 93.79 0 01-37.77-9.9A96.28 96.28 0 01371 326.26 98.16 98.16 0 01359.34 305a86.54 86.54 0 01-5.24-24.55c-.53-8.15 1.51-16.6 5.17-24.53a87 87 0 0115.07-22.23 105.59 105.59 0 0121-17.4 112.2 112.2 0 0111.65-6.5l6.06-2.53c2-.87 4.1-1.35 6.13-2.05a72.4 72.4 0 0124.73-3 83.22 83.22 0 0123.57 5 77.21 77.21 0 0120.17 11 80 80 0 0115.62 15.13l1.67 2 1.46 2.15c1 1.44 2 2.83 2.87 4.28a87.13 87.13 0 014.65 8.84 88.16 88.16 0 016 17.8z"/><path class="cls-10" d="M507.73 278.82c-2.35-18.91-15.41-40.77-38.27-53.76a50.84 50.84 0 00-19.17-6.35l-2.62-.31h-2.66a23.61 23.61 0 00-5.36.43 74.87 74.87 0 00-10.32 2.59 142 142 0 00-20.13 7.87 71.29 71.29 0 00-18.48 12.94A45.21 45.21 0 00379 261.84a55.17 55.17 0 00-1.38 22c.26 1.77.48 3.55.78 5.29s.77 3.41 1.15 5.11c.68 3.4 1.87 6.67 2.82 9.94a84.93 84.93 0 008.77 18A59 59 0 00404.3 336a52.18 52.18 0 0016.11 7.78 71.75 71.75 0 0031.26 1l-.29-1.9c-9.19 1.21-19.65 1.21-30.11-2a49.4 49.4 0 01-14.91-7.67A56.21 56.21 0 01394.3 320a83 83 0 01-8.05-17.23c-.87-3.15-2-6.28-2.6-9.58q-.52-2.46-1.06-5c-.27-1.66-.45-3.32-.69-5a51.58 51.58 0 011.36-20.19 41.1 41.1 0 0110.65-17.63c10.14-10.09 23.74-15.63 36.71-19.87a70.71 70.71 0 019.7-2.54 20.09 20.09 0 014.77-.44l2.39-.08 2.37.26a47.29 47.29 0 0117.82 5.63 68.69 68.69 0 0114.76 10.37 81.28 81.28 0 0111.41 12.66c6.37 8.95 10.53 18.52 12 27.62z"/><path class="cls-3" d="M494.24 499.26L490.1 496c-1.46-1-2.16 0-5.17 4.15l-.4.56c-3.33 4.65-8.9 12.43-16.31 23.52-8.64 12.93-18.06 27.31-28.43 44.74a728.56 728.56 0 00-34.6 64.93c-14.49 31.38-23.65 58.81-28.82 86.32l-.08.4-1.36.51a19.24 19.24 0 00-2.45 1.22 40.94 40.94 0 00-10.38 9.38 61.79 61.79 0 00-9.37 15.4 34.67 34.67 0 00-2.62 9.88c-.3 3-.1 7.41 2.56 10.9a11.47 11.47 0 004.51 3.54 6.91 6.91 0 002.14.52 1.27 1.27 0 001.33-.83l.35-.63-.17-.64a2.32 2.32 0 00-1.31-1.41 11.15 11.15 0 01-3.46-3c-1.76-2.45-1.81-5.68-1.53-8A31 31 0 01357 749a57.61 57.61 0 018.82-14.07 36 36 0 019.19-8.13 12.67 12.67 0 011.71-.81l.86-.27a5.75 5.75 0 001.44-.57 5.32 5.32 0 002.38-2.79 2.46 2.46 0 01.17-.36l3.76-18.39c.25-1.21.6-2.4.95-3.58.21-.67.41-1.35.58-2l1.05-3.66c1.82-6.38 3.54-12.4 5.82-18.27l3.77-10.49c.84-2.19 1.75-4.34 2.65-6.47.51-1.21 1-2.41 1.5-3.6l4.1-9.79 4.43-9.43a640.88 640.88 0 0135-64c11.19-18.13 21.48-32.91 29.19-43.75 8.26-11.58 14.41-19.45 17.37-23.24l2-2.66c.86-1.17 1.8-2.43.5-3.41z"/><path class="cls-10" d="M365 749.6c-.28-.1-.63.12-.87.54a57.75 57.75 0 00-6.85 23.44 26.63 26.63 0 00.58 7.62 12.28 12.28 0 003.69 6.59 9.2 9.2 0 006.28 2.14 13.49 13.49 0 004.89-1.07c.46-.18.72-.49.65-.78s-.45-.47-.92-.46c-2.62.08-6.35 0-8.39-2.45s-2.53-6.78-2.29-11.37c.62-9.32 2.74-17.79 3.56-23.23.11-.47-.02-.86-.33-.97z"/><path class="cls-10" d="M375.78 754.27c-.58-.13-2 4.05-2.94 10.34a116.2 116.2 0 00-1.46 15.64 52.72 52.72 0 00.47 8.51c.52 2.89 1.08 6 3.49 8.85a7.62 7.62 0 005.05 2.52 10.66 10.66 0 002.68-.12 9.67 9.67 0 002.65-.65 8.08 8.08 0 002.55-1.6q.53-.6 1-1.23a9.19 9.19 0 00.68-1.37 13.09 13.09 0 00.76-5.49c-.35-6.86-2.53-13.32-2-19.82a31.77 31.77 0 012.44-9.8 10.14 10.14 0 012.65-3.74 3.08 3.08 0 013.28-.55 9.17 9.17 0 011.89 1.13 4.53 4.53 0 011.18 1.49c.51 1 .25 2.56-.36 4.32a42.47 42.47 0 00-2 6.18 8.21 8.21 0 00-.07 2.18 5.33 5.33 0 00.89 2.36 7.3 7.3 0 003.59 2.71 10.59 10.59 0 007.89-.53 15.9 15.9 0 005.93-4.78 18.59 18.59 0 003.18-6.92 21.65 21.65 0 00.28-7.61 28.65 28.65 0 00-2-7.34 36.06 36.06 0 00-3.49-6.79 28.62 28.62 0 00-5.18-6 23.43 23.43 0 00-3.37-2.42 21.19 21.19 0 00-1.9-1 14.55 14.55 0 00-1.47-.56c-.16 0-.28-.14-.18-.31 0 .23.31-1.19.54-2.1q.73-3 1.55-6.26c1.13-4.34 2.35-9 3.64-14 2.7-10 5.92-21.19 10-33.07s8.76-24.55 15.52-36.69a77.78 77.78 0 015.62-8.78 26.34 26.34 0 013.27-4l1.78-1.89.89-1c.22-.21.17-.14.24-.17q-.44 9.36-.87 18.93c-.5 7.33-.22 14.64-.32 21.9.06 3.63-.16 7.26.15 10.86s.49 7.18.73 10.75.41 7.14.92 10.65 1 7 1.48 10.5.86 7 1.61 10.37 1.39 6.81 2.08 10.19c5.66 27 14.58 51.9 23.44 74.74s17.23 44 23.16 63.7q2.06 7.44 4 14.49c1.3 4.7 2.11 9.37 3.16 13.84q.73 3.38 1.45 6.63l1 6.48c.17 1.06.34 2.11.5 3.16.13.8.27 1.59.4 2.37.22 1.24.44 2.44.65 3.63a.36.36 0 01-.12 0c-1.12-.5-2.21-.92-3.26-1.3l-2.1-.8-2.45-.78a62.19 62.19 0 00-8.57-2c-5.11-.76-9.2-.72-13 .41a11.83 11.83 0 00-6.67 4.76c-1.08 1.72-1.15 2.92-.94 3 .61.38 2.45-4 8.29-5.32 3.33-.8 7.05-.67 11.82.22a65.08 65.08 0 018.07 2.16l2.33.81 1.23.46 1.79.7c2.4 1 5.12 2.28 8 3.67a.37.37 0 00.1-.09l-1.89-15.69c-.25-2.16-.51-4.37-.78-6.61s-.81-4.48-1.23-6.77c-.91-4.57-1.6-9.36-2.79-14.16s-2.43-9.74-3.7-14.81c-5.59-20.15-13.76-41.64-22.56-64.45s-17.62-47.28-23.45-73.75q-1.06-5-2.15-10c-.78-3.34-1.11-6.77-1.7-10.18s-1.06-6.85-1.59-10.3-.71-7-1.1-10.46-.72-7-1.08-10.56-.39-7.11-.62-10.69c-.24-7.17-.94-14.39-.45-21.68q.17-5.54.35-11l.17-5.48v-1.37a8.84 8.84 0 000-1.84 3.56 3.56 0 00-4-2.84 3.83 3.83 0 00-2.15 1l-1 1-2 2a28.86 28.86 0 00-3.54 4.31 84.34 84.34 0 00-5.95 9.13c-7.05 12.48-11.85 25.29-16.08 37.22s-7.45 23.23-10.2 33.28c-1.36 5-2.59 9.75-3.68 14.12q-.81 3.28-1.56 6.28c-.31 1.27-.62 2.52-.92 3.73a2.91 2.91 0 00.43 2.23 3.35 3.35 0 001.9 1.18 11.54 11.54 0 012.12.73c.5.22 1 .48 1.48.75a20.81 20.81 0 012.71 2 25 25 0 014.38 5.17 31.16 31.16 0 014.74 12.32 17.56 17.56 0 01-.21 6.11 14.35 14.35 0 01-2.42 5.25c-2.22 3-6.13 4.88-8.87 3.84a3.07 3.07 0 01-1.42-1c-.27-.25-.25-.73-.17-1.47a45.21 45.21 0 011.98-5.44c.66-2 1.41-4.7.23-7.41a8.91 8.91 0 00-2.42-3.13 12.86 12.86 0 00-3.12-1.83 7.5 7.5 0 00-7.49 1.25 14.32 14.32 0 00-3.82 5.31 35.54 35.54 0 00-2.71 11.18c-.52 7.71 1.88 14.36 2.22 20.36.19 3-.41 5.34-2.55 6.09a9.57 9.57 0 01-3.62.6 4 4 0 01-2.76-1.3c-1.56-1.65-2.33-4.41-2.82-7a52.41 52.41 0 01-.68-8 124.4 124.4 0 01.85-15.32c.69-6.2 1.05-10.51.47-10.63z"/><path class="cls-10" d="M455.54 936c.23 0 .43-.33.51-.78a14.17 14.17 0 014.71-8.2c2.78-2.41 7.08-3.45 11.7-3.7 9.4-.12 17.89 2.07 23.35 2.9.47.07.85 0 .93-.26s-.18-.51-.62-.71a55.38 55.38 0 00-23.81-5.53c-5.12.25-10.34 1.77-13.52 5.18a13.29 13.29 0 00-3.79 10.24c.08.5.3.86.54.86z"/><path class="cls-10" d="M483 936c.31-.36-1.59-1.93-4.71-2.53a51.49 51.49 0 00-14.53-.78 43.46 43.46 0 00-8 1.35 22 22 0 00-8.06 3.82 11.89 11.89 0 00-3.21 4 10.4 10.4 0 00-.82 5.35 15.53 15.53 0 001.45 5 24.44 24.44 0 001.48 2.38c.62.64 1.24 1.32 1.89 1.94a28.76 28.76 0 009 4.9 59.23 59.23 0 009.8 2.63 101.06 101.06 0 0020.89 1.56 100 100 0 0022-2.87 64.3 64.3 0 0011.07-3.77 38.53 38.53 0 0010.45-6.57 23.52 23.52 0 007.2-11.14 24.38 24.38 0 00-.36-13.48c-2.16-7.34-3.8-15-5.3-22.39s-2.79-14.82-4-22c-2.31-14.44-4-28.32-5.07-41.38a332.78 332.78 0 01-1.32-36.43c0-5.59.52-10.86.81-15.87.67-4.94 1-9.68 2.06-13.94.6-3 .72-5.12.3-5.24s-1.29 1.81-2.15 4.78c-1.42 4.28-2.13 9-3.15 14-.63 5-1.51 10.4-1.78 16.05a284.77 284.77 0 00-.19 37c.67 13.26 2 27.34 4.15 42 1.08 7.32 2.27 14.79 3.76 22.36s3.08 15.23 5.38 23.07a17.79 17.79 0 01.34 9.7 17 17 0 01-5.19 8 32.67 32.67 0 01-8.7 5.54 59.07 59.07 0 01-10 3.54 97.83 97.83 0 01-20.49 3 98.86 98.86 0 01-19.76-.92 56 56 0 01-9-2.08 24.77 24.77 0 01-7.59-3.72l-1.36-1.28c-.32-.49-.66-.9-1-1.42a11.3 11.3 0 01-1.21-3.48 6.23 6.23 0 012.25-5.88 18.93 18.93 0 016.53-3.5 43.1 43.1 0 017.3-1.7 52.28 52.28 0 0113.85-.28c2.92.33 4.72.99 4.99.68z"/><path class="cls-3" d="M836.9 754a45.5 45.5 0 00-4.9-12.56 63.74 63.74 0 00-7.61-10.85 37.62 37.62 0 00-10.33-8.65 12.66 12.66 0 00-1.65-.74 6.06 6.06 0 01-1-.45 1.46 1.46 0 01-.66-1l-1.25-6.17c-.31-1.45-.59-2.9-.87-4.35-.51-2.62-1-5.32-1.74-8l-1-3.65c-1.79-6.64-3.64-13.5-6-20-10.75-32.24-25.28-60.56-36.75-81.64-10.49-19.18-22-38.39-35.25-58.73-10.24-15.72-18-26.78-21.39-31.53l-2-2.68c-.84-1.1-1.79-2.35-3.11-1.36l-4.38 3.28-.11.61c-.14.75.2 1.22 1 2.39l2 2.62c4.82 6.34 12.36 16.4 22.1 30.58 13.29 19.42 25 38.28 35.93 57.68 10.51 18.83 25.77 47.66 37 80.5 2.39 6.5 4.22 13.13 6.17 20.15l.84 3c.69 2.51 1.21 5.16 1.72 7.71.29 1.44.57 2.88.89 4.3l1.26 6.11a6.37 6.37 0 002.74 4.1 8.71 8.71 0 001.94.95l.4.16a5.21 5.21 0 01.83.37 32 32 0 019 7.5 59.56 59.56 0 017.13 9.95 41.55 41.55 0 014.62 11.2c.74 3.14 1.13 7.54-1.11 10.56a11.15 11.15 0 01-3.42 3 2.38 2.38 0 00-1.31 1.41l-.11.55.18.47a1.48 1.48 0 001.53 1 7 7 0 002.28-.57 11 11 0 004.16-3.28c2.7-3.24 3.46-8.12 2.23-13.94z"/><path class="cls-10" d="M822.44 749.6c-.14 0-.15.4 0 .86 1.28 5.31 3.74 13.72 4.38 23.28.24 4.69-.24 9.44-2.79 12.09s-6.5 2.39-9.08 2.1c-.47 0-.82 0-.85.15s.25.34.72.47a14.3 14.3 0 004.76.73 8.75 8.75 0 005.71-2.14 11.56 11.56 0 003.27-6.16 27.58 27.58 0 00.51-7.35 70.34 70.34 0 00-6-23.38c-.26-.44-.5-.7-.63-.65z"/><path class="cls-10" d="M811.7 754.27c-.58.12-.2 4.39.5 10.55a124.36 124.36 0 01.86 15.32 52.49 52.49 0 01-.65 8c-.49 2.58-1.22 5.37-2.79 7a4.12 4.12 0 01-2.75 1.37 7 7 0 01-1.83-.13 5.73 5.73 0 01-1.8-.44 3.45 3.45 0 01-2.21-2.16 9.15 9.15 0 01-.45-3.91c.32-6 2.71-12.66 2.21-20.35a36 36 0 00-2.69-11.16 14.73 14.73 0 00-3.76-5.29 7.46 7.46 0 00-7.39-1.34 12.74 12.74 0 00-3.11 1.81 8.52 8.52 0 00-2.41 3c-1.21 2.64-.52 5.36.16 7.35a47.87 47.87 0 011.89 5.51c.12.78.11 1.29-.15 1.58a2.88 2.88 0 01-1.44 1c-2.79 1.1-6.75-.8-9-3.77a14.63 14.63 0 01-2.48-5.27 17.55 17.55 0 01-.25-6.15 31.37 31.37 0 014.68-12.4c2.53-3.83 5.68-7.17 10.35-8.67a3.57 3.57 0 002.51-3.85c-.1-1-.21-2.13-.31-3.23-.36-2-.69-4.18-1.2-6.33-.92-4.36-2.14-9-3.51-13.9-2.77-9.82-6.3-20.74-10.66-32.33a259 259 0 00-16.38-36c-1.63-3.08-3.65-6-5.55-9l-3.26-4.31-.83-1.08a5.25 5.25 0 00-1.45-1.19 4.8 4.8 0 00-3.78-.42 4.54 4.54 0 00-2.91 2.62 4.72 4.72 0 00-.36 1.93v1.39l.1 5.37c0 3.58.07 7.19.1 10.8-.55 28.77-3.31 56.68-9.4 82.76s-14.81 50.24-23.47 72.78-16.73 43.8-22.2 63.71q-1.86 7.51-3.63 14.64c-1.16 4.75-1.84 9.48-2.73 14q-.62 3.41-1.21 6.69-.39 3.33-.76 6.54c-.64 5.37-1.26 10.56-1.85 15.54a.25.25 0 00.1.16c2.89-1.39 5.63-2.72 8-3.68l1.79-.71 1.23-.45 2.34-.82a65.3 65.3 0 018.09-2.16c4.79-.89 8.52-1 11.86-.18 5.75 1.36 7.57 5.67 8.18 5.29.21-.09.15-1.28-.91-3a11.79 11.79 0 00-6.57-4.76c-3.85-1.15-8-1.21-13.09-.46a63.56 63.56 0 00-8.59 2l-2.46.79-2.08.71c-1 .38-2.14.81-3.26 1.31h-.12c.21-1.17.42-2.36.64-3.57l.39-2.31c.16-1 .33-2.07.49-3.12q.5-3.15 1-6.4.71-3.23 1.43-6.55c1-4.42 1.84-9 3.11-13.67s2.58-9.42 3.93-14.32c5.83-19.48 14-40.39 22.82-63s17.66-47.1 23.44-73.75a314.59 314.59 0 007.11-84.15c-.17-3.64-.35-7.27-.52-10.88l-.21-5.4v-1.29a1.64 1.64 0 01.11-.69 1.38 1.38 0 01.93-.82 1.69 1.69 0 011.37.16 2.39 2.39 0 01.59.48l.77 1q1.54 2.08 3.09 4.14c1.82 2.94 3.75 5.77 5.32 8.81a258.23 258.23 0 0115.86 35.67c4.23 11.52 7.65 22.38 10.34 32.11 1.33 4.86 2.52 9.44 3.4 13.68.5 2.12.81 4.14 1.15 6.07.09.89.17 1.77.26 2.62a.27.27 0 01-.19.34l-.81.29-1 .41a20.83 20.83 0 00-5.18 3.39 28.55 28.55 0 00-5.13 6 35.06 35.06 0 00-5.36 14.06 21.55 21.55 0 00.3 7.55 18.8 18.8 0 003.2 6.85 15.67 15.67 0 005.91 4.69 10.35 10.35 0 007.81.45 7 7 0 003.5-2.74 5.42 5.42 0 00.81-2.32 8.58 8.58 0 00-.1-2.12 46.52 46.52 0 00-2-6.13c-.62-1.77-.84-3.33-.3-4.36a4.41 4.41 0 011.24-1.52l.95-.66c.32-.19.65-.3 1-.47a3.25 3.25 0 013.37.62 10.88 10.88 0 012.65 3.81 32.48 32.48 0 012.41 9.84c.53 6.53-1.66 13-2 19.85a12.63 12.63 0 00.81 5.48 7.88 7.88 0 001.72 2.58 8.25 8.25 0 002.57 1.53 8.87 8.87 0 002.65.63 9.82 9.82 0 002.68.1 7.64 7.64 0 005-2.59c2.38-2.81 2.9-6 3.43-8.85a55.1 55.1 0 00.45-8.51 119.39 119.39 0 00-1.46-15.64c-1.06-5.99-2.44-10.13-3.01-10z"/><path class="cls-10" d="M731.94 936c.24 0 .45-.33.5-.83a13.29 13.29 0 00-3.75-10.27c-3.18-3.41-8.41-4.93-13.52-5.18a55.39 55.39 0 00-23.82 5.53c-.44.2-.69.49-.61.71s.45.33.93.26c5.45-.83 14-3 23.34-2.9 4.62.25 8.93 1.29 11.7 3.7a14.17 14.17 0 014.71 8.2c.09.42.29.78.52.78z"/><path class="cls-10" d="M704.47 936c.27.34 2.07-.32 5-.65a52.35 52.35 0 0113.86.28 42.3 42.3 0 017.29 1.71 18.79 18.79 0 016.54 3.49 6.25 6.25 0 012.25 5.88 11.34 11.34 0 01-1.22 3.48c-.31.52-.66.94-1 1.42l-1.37 1.28a24.66 24.66 0 01-7.59 3.72 55.48 55.48 0 01-9 2.08 98.76 98.76 0 01-19.75.92 97.3 97.3 0 01-20.6-3.08A58.06 58.06 0 01669 953a32.67 32.67 0 01-8.7-5.54 17 17 0 01-5.19-8 17.82 17.82 0 01.34-9.71c4.43-15.61 7-30.75 9.15-45.42 1-7.33 1.63-14.54 2.41-21.54q.56-5.25 1.09-10.35c.32-3.41.5-6.78.67-10.09 1.37-26.47-.16-49.81-5.06-67.08-.86-3-1.84-4.89-2.25-4.76s-.2 2.24.4 5.21c3.38 17.27 3.68 40.17 1.49 66.27-.28 3.26-.55 6.58-1 9.94s-.88 6.76-1.34 10.21c-.93 6.9-1.71 14-2.79 21.23-2.37 14.38-5.06 29.6-9.27 44.41a24.41 24.41 0 00-.37 13.49 23.54 23.54 0 007.21 11.14 38.82 38.82 0 0010.44 6.57 64.11 64.11 0 0011.08 3.77 100 100 0 0022 2.87A101.11 101.11 0 00720.2 964a59.5 59.5 0 009.8-2.63 28.72 28.72 0 008.94-4.9c.66-.62 1.28-1.3 1.89-1.94a24.44 24.44 0 001.48-2.38 15.54 15.54 0 001.46-5 10.3 10.3 0 00-.83-5.35 11.86 11.86 0 00-3.2-4 22 22 0 00-8.06-3.82 43.42 43.42 0 00-8-1.35 51.44 51.44 0 00-14.52.78c-3.1.59-4.99 2.2-4.69 2.59z"/><path class="cls-10" d="M520 764.57c-.32.3.17 1.29 1.24 2.45 6.41 6.51 17.18 11.7 29.89 15.37a163.76 163.76 0 0043.6 6 151.08 151.08 0 0043.68-5.78c12.74-3.87 23.16-9.48 29.84-15.41 1.17-1 1.78-1.93 1.5-2.27s-1.34 0-2.62.73c-7.34 4.57-17.71 8.78-30.11 11.7a185.79 185.79 0 01-42.24 4.27 206.91 206.91 0 01-42.31-4.49c-12.46-2.74-23.06-6.54-30-11.54-1.15-.91-2.17-1.34-2.47-1.03z"/><path class="cls-3" d="M776.65 741.71a499.52 499.52 0 01-40.87-34l4.36-4.62a495.57 495.57 0 0040.27 33.48zm-93.51 139.72a240.1 240.1 0 0052.22 1.33c17.3-1.6 34.52-5.32 50.3-12.31a94.89 94.89 0 0021.89-13.27 56.08 56.08 0 0015.61-19.44 37.85 37.85 0 003.36-11.74 59.8 59.8 0 00.16-12.55 69.56 69.56 0 00-7-24.15l5.71-2.77a75.72 75.72 0 017.35 26.4 66.46 66.46 0 01-.33 13.81 43.81 43.81 0 01-4 13.48 61.6 61.6 0 01-17.36 21.26 100 100 0 01-23.29 13.79c-16.54 7.13-34.28 10.73-52 12.18a244.36 244.36 0 01-53.18-1.91zm-21.82 1.45c-2.85-.61-5.73-1.27-8.62-2-43.59-10.71-89.17-14.07-128.38-9.45l-.74-6.31c39.95-4.7 86.34-1.3 130.63 9.6 2.84.69 5.65 1.34 8.45 1.94zM516.17 996.46a2.33 2.33 0 00-.26-1.17c-.45-1.07-1.86-1.93-3.7-2.25a44.16 44.16 0 00-8.8-.26l-11.19.47a75.56 75.56 0 01-19.11-1.4 70.21 70.21 0 01-32.79-16.35 50.44 50.44 0 01-10.75-13.71 42 42 0 01-4.57-15.9c-.76-9.42 2-19.38 8.07-29.6a80.63 80.63 0 018.54-11.57 66.23 66.23 0 019.86-8.85 100.73 100.73 0 0120.06-11.37 159.33 159.33 0 0126.15-8.5l1.08-.26c3.63-.82 3.73-1 3.91-1.27l.17-.28-1-4.77-.29-.18c-.28-.18-.46-.29-4.17.58l-1.11.27a160.21 160.21 0 00-27.08 9 104.1 104.1 0 00-21.12 12.25A71.76 71.76 0 00437.5 901a85 85 0 00-9 12.54c-6.53 11.23-9.32 22.24-8.31 32.71a46.31 46.31 0 005.4 17.62 54.73 54.73 0 0012 14.68 72.68 72.68 0 0034.92 16.46 77.35 77.35 0 0019.88.92l11.08-.79a44.92 44.92 0 018.44 0c1.51.22 2.17.73 2.36 1.07a1 1 0 01.19.51l-.12.28.77.57 2.16-.35z"/><path class="cls-3" d="M515.58 996.41l-.92-.92-.2 1.63a3.19 3.19 0 01-.34 1 6.85 6.85 0 01-1.93 2.1c-5.6 4.06-19.8 5.88-36.12 4.65a137.61 137.61 0 01-29.8-5.62c-13.17-4.12-23.57-9.63-31.77-16.84a48.53 48.53 0 01-11.84-15.54 46 46 0 01-4.24-20.05 102 102 0 0110.73-43.65 90.59 90.59 0 0113.71-19.32 109.14 109.14 0 0118.79-15.61c12.34-8.15 27.44-14.7 46.14-20 6.58-1.85 6.56-1.92 6.33-2.8s-.25-.95-6.89.72c-19.16 4.9-34.69 11.18-47.47 19.19A110.81 110.81 0 00420 881.07a90.16 90.16 0 00-23.21 42.59 45.28 45.28 0 00-1.23 5.82l-1 5.8c-.1 1.34-.24 2.67-.38 4a73.15 73.15 0 00-.52 7.48 50.07 50.07 0 004.71 22.16 52.52 52.52 0 0013.08 17c8.83 7.6 19.84 13.25 33.67 17.28a136.63 136.63 0 0030.77 5q3.09.14 6.05.13c14.42 0 26.15-2.42 31.38-6.62a8.35 8.35 0 002.32-2.81 4.68 4.68 0 00.44-1.61v-.83zm149.61-145.02c-7.13-1.15-14.21-2.41-21.32-3.67-36.91-6.55-75.07-13.33-122.31-6l-.49-3.14c47.76-7.37 86.19-.55 123.35 6.05 7.1 1.26 14.17 2.51 21.28 3.67zm118.92-48.87A49.78 49.78 0 00777 791.3a69.75 69.75 0 00-8.8-8.3 94 94 0 00-17.39-11 160 160 0 00-22.81-9.25l-.32-.1c-3.06-1-3.24-.91-3.54-.77l-.31.16-1.32 4.37c-.25.85.31 1.06 3.3 2l.29.09a158.44 158.44 0 0122.08 8.73 89 89 0 0116.5 10.13 64.48 64.48 0 018.1 7.51 44.72 44.72 0 016.47 9.79 30.44 30.44 0 012.8 11.9 28.75 28.75 0 01-2.7 12.61c-3.69 8.08-11.11 15-20.36 19.11-8.15 3.82-17.45 4.33-27.3 4.86l-3.35.19a280.5 280.5 0 01-32.91-.66c-4.27-.35-4.7-.29-4.79.6s.34 1 4.58 1.53a270.94 270.94 0 0030.55 1.8h2.65c5.46-.06 10.93-.3 16.29-.71a52.21 52.21 0 0015.92-3.8c10.3-4.24 18.71-11.84 23.07-20.84a33.4 33.4 0 003.43-14.72 35.18 35.18 0 00-3.02-14.01z"/><path class="cls-10" d="M740.43 771.42c4.76.23 9.46-3.1 13.21-7.33a41.42 41.42 0 008.76-16.46c1.77-6.47 1.69-13.28-.45-18.82a24.09 24.09 0 00-9.44-11.69l-1.18 1.5a26 26 0 017 11.4 30.85 30.85 0 01-.29 16.45 45.92 45.92 0 01-7.35 15.21c-3.07 4.12-6.76 7.33-10.27 7.83zm39.82 30.73c2.72 1.63 7 1.52 11.12.19s7.51-3.61 9-6.49l-1.51-1.19a69.68 69.68 0 01-8.89 3.4 43.17 43.17 0 01-9.16 2.26zm-5.62 36.97c-.81 7.38 6.47 16.93 17.25 19.89a27 27 0 0015.36-.25 28.86 28.86 0 0010.46-6.09l-1.13-1.55c-2.88 1.38-6.22 3.23-10.31 4a27.68 27.68 0 01-13.15-.41c-9.12-2.55-15.75-9.63-16.57-15.55zm-43.81 15.11c-5.63 2-9.88 10.79-7.36 19.59a16.3 16.3 0 007.95 9.62 19.36 19.36 0 009.42 2.09l.21-1.9c-2.34-.82-5.2-1.58-7.66-3.44a14.76 14.76 0 01-5.61-7.68c-1.9-6.71.35-13.87 3.92-16.57zm-69.91-6.1c-2.63-.31-5.94 1.17-8.18 3.85a19 19 0 00-4.29 10.19 18.7 18.7 0 001.92 10.89 15.49 15.49 0 006.18 6.23l1.14-1.55a18.19 18.19 0 01-4.76-15.06c.72-6.37 4.12-11.74 8.11-12.64zm-59.03-9.72c-2.59-.33-5.94 1.19-8 4a18.17 18.17 0 00-3.63 10.36 19 19 0 002.54 10.59 16.43 16.43 0 006.24 6l1.13-1.55a22.51 22.51 0 01-4-6.15 20.39 20.39 0 01-1.44-8.68c.26-6.34 3.31-11.77 7.28-12.63zm-58.09-1.54c-4.74 1.35-9.38 7.63-9.53 15.2a16.33 16.33 0 003 10.07 15.53 15.53 0 006.55 5l1-1.64a21.5 21.5 0 01-4.31-5.42 16.33 16.33 0 01-1.75-8c.15-5.94 2.81-11.23 5.87-13.55zm-65.28 11.6c-3.78 2.87-6.19 10-3.84 17.19a14.51 14.51 0 0014.11 10.43l.3-1.9a21 21 0 01-5.88-3.35 14.71 14.71 0 01-4.26-6.6c-1.79-5.49-1-11.23 1-14.48zm-46.84 23.35c-2.35 4.11-1.78 11.67 3.17 17.33a14.52 14.52 0 0017.06 4.1l-.46-1.86a21.07 21.07 0 01-6.72-.79 14.67 14.67 0 01-6.5-4.43c-3.8-4.36-5.26-10-4.74-13.72zm-30.33 43.87c.08 4.27 3.34 10.61 10.23 13.21a13 13 0 0010-.28 14.72 14.72 0 005.81-5L426 922.3a22.31 22.31 0 01-5.76 2.75 11.5 11.5 0 01-7.11-.39 18.54 18.54 0 01-9.9-9.37zm5.9 63.57c3.15 2.87 10 4.87 16.63 1.65a12.93 12.93 0 006.64-7.41 14.69 14.69 0 00.39-7.65l-1.91.07a21.88 21.88 0 01-2 6.07 11.51 11.51 0 01-5.17 4.9 18.51 18.51 0 01-13.61.73zm51.25 25.94a9.05 9.05 0 009.6-3.22 8.37 8.37 0 001.72-5.91 8.26 8.26 0 00-1.75-4.27l-1.79.7c0 2.25-.16 4.8-1.75 6.74s-4 3.23-6 4z"/></svg>