<svg xmlns="http://www.w3.org/2000/svg" viewBox="0 0 574.62 699.65"><defs><style>.cls-2{fill:#d8c6a1}.cls-3{fill:#d85a42}.cls-4{fill:#b49760}.cls-5{fill:#fabb51}.cls-6{fill:#ffe9b2}.cls-7{fill:#694b17}.cls-8{fill:#a3acb0}.cls-9{fill:#869091}.cls-13{fill:#a3d7df}.cls-14,.cls-15{fill:#343333}.cls-15{fill-rule:evenodd}</style></defs><g id="Layer_2" data-name="Layer 2"><g id="export"><g id="odemykani-studanek"><path id="SVGID" d="M498.13 155.2c42.33 36.74 54.54 107.62 65.45 177.21 10.91 69.75 20.35 138.54-5.7 189.84-26.21 51.3-88.08 85-157.44 118.79-69.19 34-145.88 67.81-218.33 56.32C109.66 686 41.44 629.06 14.58 559.63-12.45 490 2 408.15 26.14 337.59 50.4 267 84.1 207.8 133.27 172.19s113.8-47.74 182.18-52.27S456 118.3 498.13 155.2z" fill="#69ac4c"/><path class="cls-2" d="M391.9 277.16a5.28 5.28 0 00-.27.6l-.28-.29a24.62 24.62 0 00-5.54 8.08 24.92 24.92 0 00-1 3c-1.05-.35-2.1-.84-2.39-1.53s.4-2.75 1.94-4.43a26.55 26.55 0 017.54-5.43z"/><path class="cls-3" d="M463.56 293.54c-2.65-.1-9.86-1.2-16.47-9.62a1.84 1.84 0 00-2.1-.58 1.8 1.8 0 00-1.13 1.81c.27 2.89.48 5.43-5.87 11.23-1.39-.35-5.79-2.15-6.53-10.94a1.25 1.25 0 00-1.23-1.18 1.27 1.27 0 00-1.31 1.1 13.77 13.77 0 01-9.44 11c-.76-1.1-2.49-4.53-1.86-12.06a1.59 1.59 0 00-1.05-1.62 1.49 1.49 0 00-1.76.6 16.32 16.32 0 01-10.43 7.21 15.46 15.46 0 01-.76-9.05 1.85 1.85 0 00-3-1.86c-.36.29-.78.66-1.25 1-1.89 1.6-4.62 3.91-6.82 4.56a16.63 16.63 0 01.47-5.21 3 3 0 01.37-.42l-.21-.21a10.49 10.49 0 012.38-4.36c1.92-2 4.72-3.14 8.39-3.25a41.7 41.7 0 0013.62 5.31c9.23 1.78 19.48 1.94 29.41-1.55 4.88 1.81 14.5 6.9 16.58 18.09z"/><path class="cls-4" d="M474.75 224c2.05 3.67 2.1 8 .39 10.91a8.06 8.06 0 01-3.35 3.33 5.65 5.65 0 01-1.94.57A33.27 33.27 0 00467 231a35.41 35.41 0 00-7-9.17c.4-.29.81-.55 1.23-.82a15.21 15.21 0 014.88-2.09 6.26 6.26 0 014.72.78 12.13 12.13 0 013.92 4.3z"/><path class="cls-2" d="M462.14 233.53a25.67 25.67 0 012.7 14.44 25.08 25.08 0 01-6 13.38 32.94 32.94 0 01-12 8.41c-9.15 3.83-19.27 4.07-28.29 2.57s-17-5.92-21.65-12.4-6.11-14.26-5.67-21.08c1-6.74 4-14.13 10.25-19.06s15-6.92 24.21-6.4 18.93 3.2 26.87 9.07c.5.37 1 .74 1.44 1.13a32.17 32.17 0 018.14 9.94zm-10.75 9.8a3.71 3.71 0 00-7.42 0 3.71 3.71 0 107.42 0zm-9.1 11.93a1.31 1.31 0 10-2.46-.89c-1.45 3.88-9.36 6.35-17.62 5.51-3.62-.37-15.55-2.36-17.12-12.56a1.3 1.3 0 00-1.47-1.1 1.26 1.26 0 00-1.1 1.49c1.44 9.6 11 13.92 19.4 14.79a39 39 0 003.43.16c7.37 0 15.08-2.36 16.94-7.4zm-34.79-18.19a3.7 3.7 0 10-3.7 3.69 3.7 3.7 0 003.7-3.69z"/><path class="cls-4" d="M411.35 210.37h-.08A32.33 32.33 0 00399 217a27.76 27.76 0 00-4.77 5.37 10.15 10.15 0 01-.13-5.06 12.5 12.5 0 015.06-7.16 15.13 15.13 0 014.19-2.07 7.53 7.53 0 013.86-.18 9.24 9.24 0 014.14 2.47z"/><path class="cls-5" d="M361.53 56.07c.06 1.92.11 3.83.08 5.72 0 .94 0 1.86-.08 2.78l-.1 1.31-.11.71-.23.21-1 .57c-.74.37-1.58.74-2.39 1-1.63.68-3.3 1.26-5 1.78-1.23.42-3.09.92-3.46 1-.05 0-.05-.1-.07-.16-.08-.55-.19-1.54-.27-2.3-.29-3.28-.44-6.51-.78-9.68-.13-1.28-.29-2.91-1.26-3.49-.13-.31-.45-.34-.74-.39a3.72 3.72 0 00-.91-.08 11.83 11.83 0 00-1.92.08c-1.52.18-2.93.39-4.35.63s-2.75.5-4.06.71c-.69.16-1.32.29-2 .42a13.37 13.37 0 00-2.91.86A2.26 2.26 0 00329 60a7.81 7.81 0 00.21 1.39l.34 1.23c.31 1.1.65 2.18 1 3.2.65 2 1.28 4 1.73 5.77.1.42.18.84.29 1.26 0 .15 0 .31.07.49.06.4-.42.48-.68.61-1.39.39-3.17.71-4.69 1-5.3.84-9.94 1.33-14.24 1.78l-3.17-19.87-5.96-35.74c1.6-.55 3.28-1.1 5.22-1.7 1.42-.45 3-.89 4.69-1.39.87-.24 1.79-.5 2.76-.71A12.24 12.24 0 01318 17a1.48 1.48 0 01.76 0c.16.13.18.37.21.79 0 .73 0 1.7-.05 2.8s-.13 2.42-.21 3.78v2.25a10.06 10.06 0 00.19 1.31 3.34 3.34 0 00.92 1.58c1.28.78 3 .86 5.13.78a35.56 35.56 0 003.57-.34c.66-.1 1.31-.21 2-.36.34-.08.68-.16 1-.27a3.21 3.21 0 00.58-.21 4.83 4.83 0 00.79-.34c.18-.08.26-.26.39-.39s.29-.26.37-.45a4.18 4.18 0 00.42-1.12 10.37 10.37 0 00.15-1.79c0-1.15-.08-2.36-.15-3.64s-.21-2.6-.32-4c-.05-.71-.08-1.41-.08-2.12a6 6 0 01.11-1.47 1.08 1.08 0 01.31-.18c.24-.13.66-.27 1-.4.71-.23 1.5-.47 2.28-.68 1.63-.42 3.33-.81 5.09-1.1s3.57-.55 5.4-.68c.92-.05 1.84-.08 2.73-.05a6.63 6.63 0 011.62.26l.06.16c.06.16.13.36.18.57a11.61 11.61 0 01.34 1.65c.21 1.26.39 2.78.5 4.44s.18 3.48.18 5.4v2.85a18.37 18.37 0 01-.11 2c-.57 0-1.44-.16-2.33-.27-.45-.05-.94-.1-1.47-.13h-.89a9.82 9.82 0 00-1.39.23 2.8 2.8 0 00-1.94 1.84c-.08.47-.23 1-.29 1.44v.94a46.13 46.13 0 00.79 6.93c.18 1.15.44 2.36.73 3.56.19.61.34 1.21.55 1.86a9.43 9.43 0 00.42 1.08 5.42 5.42 0 001 1.39c.63.81 1.78.76 2.75.76a15.68 15.68 0 001.71-.21l3.06-.52c1-.16 2-.35 2.92-.45a8.28 8.28 0 011.33-.13h.37l.21 1c.13 1 .24 1.89.31 2.86q.23 2.95.33 5.86z"/><path class="cls-6" d="M319 17.82c0-.42-.05-.66-.21-.79a1.48 1.48 0 00-.76 0 12.24 12.24 0 00-1.44.29c-1 .21-1.89.47-2.76.71-1.73.5-3.27.94-4.69 1.39-1.94.6-3.62 1.15-5.22 1.7l.6 3.6c4.81-1.46 9.62-3.38 14.43-4.13.05-1.09.05-2.05.05-2.77z"/><path class="cls-5" d="M361.53 56.07q-.11-2.91-.34-5.82c-.07-1-.18-1.91-.31-2.86l-.21-1h-.37a8.28 8.28 0 00-1.33.13c-1 .1-1.92.29-2.91.45l-3.07.52a15.68 15.68 0 01-1.71.21c-1 0-2.12 0-2.75-.76a5.42 5.42 0 01-1-1.39 8.77 8.77 0 01-.42-1.08c-.21-.65-.36-1.25-.55-1.86-.29-1.2-.55-2.41-.73-3.56a44.87 44.87 0 01-.79-6.93v-.94c0-.47.21-1 .29-1.44a2.8 2.8 0 011.94-1.84 9.82 9.82 0 011.39-.23h.89l1.21.11c.29-3.41 1.48-7.88-.07-11-4.66-4.67-10.71-2.41-16.92-.63 0 .42 0 .83.05 1.25.11 1.44.21 2.78.32 4s.15 2.49.15 3.64a10.37 10.37 0 01-.15 1.79 4.18 4.18 0 01-.42 1.12c-.08.19-.24.29-.37.45s-.21.31-.39.39a4.83 4.83 0 01-.79.34 3.21 3.21 0 01-.58.21c-.37.11-.71.19-1 .27-.68.15-1.33.26-2 .36a35.56 35.56 0 01-3.57.34c-2.17.08-3.85 0-5.13-.78a3.34 3.34 0 01-.92-1.58 10.06 10.06 0 01-.19-1.31c-.05-.81 0-1.54 0-2.25.08-1.36.16-2.65.21-3.78-4.81.75-9.62 2.67-14.43 4.13l5.33 32.09L313 76.68c4.3-.44 8.94-.94 14.24-1.78 1.52-.26 3.3-.58 4.69-1 .26-.13.74-.21.68-.61 0-.18-.05-.34-.07-.49-.11-.42-.19-.84-.29-1.26-.45-1.79-1.08-3.73-1.73-5.77-.32-1-.66-2.1-1-3.2l-.34-1.23A7.81 7.81 0 01329 60a2.26 2.26 0 011-2.18 13.37 13.37 0 012.91-.86l2-.42c1.31-.21 2.67-.47 4.06-.71s2.83-.45 4.35-.63a11.83 11.83 0 011.92-.08 3.72 3.72 0 01.91.08c.29 0 .61.08.74.39 1 .58 1.13 2.21 1.26 3.49.34 3.17.49 6.4.78 9.68.08.76.19 1.75.27 2.3 0 .06 0 .16.07.16.37-.08 2.23-.58 3.46-1 1.66-.52 3.34-1.1 5-1.78.81-.31 1.65-.68 2.39-1l1-.57c.21-.19.24-.19.24-.21l.1-.71.1-1.31c.06-.92.08-1.84.08-2.78 0-1.96-.05-3.86-.11-5.79z"/><path class="cls-6" d="M350.69 16.75c1.55 3.1.36 7.57.07 11h.26c.89.11 1.76.24 2.33.27a18.37 18.37 0 00.11-2v-2.85c0-1.92-.08-3.73-.18-5.4s-.29-3.18-.5-4.44a11.61 11.61 0 00-.34-1.65c-.05-.21-.13-.39-.18-.57s-.08-.14-.06-.16a6.63 6.63 0 00-1.62-.26c-.89 0-1.81 0-2.73.05-1.83.13-3.64.39-5.4.68s-3.46.68-5.09 1.1c-.78.21-1.57.45-2.28.68a10.2 10.2 0 00-1 .4 1.08 1.08 0 00-.31.18 6 6 0 00-.11 1.47v.87c6.34-1.78 12.34-4.04 17.03.63z"/><path class="cls-2" d="M331.64 193.88c.5 2.68.87 5.4.27 7.66a6.23 6.23 0 01-2.47 3.7 5.36 5.36 0 01-1.57.78 8.65 8.65 0 01-6-.31 7.18 7.18 0 01-3.85-3.62c-.48-3.23 1.65-7.53 4.87-10.8 1.55-1.63 3.86-3.07 5.43-2.7s2.8 2.64 3.32 5.29z"/><path class="cls-5" d="M319.64 150.07l5.76 35.45a12.13 12.13 0 00-1.49.73 14.6 14.6 0 00-3.3 2.89 20.17 20.17 0 00-3.83 6.68 12.27 12.27 0 00-.63 5l-3.1.36c-1.73-11.19-4.19-27.34-6.94-44.23-.32-2-.58-3.43-.79-4.48a54.27 54.27 0 008.26-1.08c2.04-.39 4.06-.77 6.06-1.32zm4.79-10.38a5.42 5.42 0 01.32 3.33 4.17 4.17 0 01-2.44 2.25c-2.6 1.21-6 1.84-9.41 2.52s-6.82 1.28-9.68 1.13a4.3 4.3 0 01-3.12-1.21 5.67 5.67 0 01-.92-3.23c0-2 2.63-3.33 5-4.19s4.8-1.52 6.92-2.1c2.23-.23 4.67-.55 7.24-.6s5.39.21 6.09 2.1zm-7.08-4.49a53.36 53.36 0 00-6.58 1.42 51.55 51.55 0 00-7.39 1.28 6.36 6.36 0 00-.71.21c-.1-.94-.31-2.33-.65-4.46C297.11 103 291.55 67.87 287.54 40c-1.05-7.42-1.86-13.29-2.51-18.43l-.92-8-.34-3.64-.13-2.52v-.47a1.9 1.9 0 01.52-.29c.18-.08.39-.19.58-.26a20.43 20.43 0 012.59-.9 35.76 35.76 0 014.78-.94 17.47 17.47 0 013.56-.16h.24a.89.89 0 01.29 0h.15l8.84 53.07 11.64 74.59z"/><path class="cls-7" d="M293.65 96.84c1.52 8.76 3.15 17.91 4.88 27.38a59.9 59.9 0 00-23.26-13 25.83 25.83 0 014.09-6 31.2 31.2 0 016.14-5.4 17.69 17.69 0 018.15-2.98z"/><path class="cls-4" d="M291.82 86.36c.44 2.64.91 5.32 1.39 8a15.12 15.12 0 00-2.86.58 21.45 21.45 0 00-6.11 3.06 29.58 29.58 0 00-6.21 6.14 25.37 25.37 0 00-3.81 6.76c-.78-.23-1.57-.44-2.36-.63l-1-.23c.84-3.52 2.89-6.58 4.8-9.26a56.64 56.64 0 017.21-8 33.08 33.08 0 018.95-6.42z"/><path class="cls-7" d="M201.67 114.94a31.32 31.32 0 012.65 3.46 63.21 63.21 0 00-9.94 7.29 56.68 56.68 0 00-8.88 10.12c-2.78-1.6-5.12-4.91-6.19-8.84a15.56 15.56 0 013.49-14.6 12.52 12.52 0 016.68-3.86 10.35 10.35 0 016.87 1.71 25.25 25.25 0 015.32 4.72z"/><path class="cls-4" d="M209 115.85c-1 .5-2 1-3 1.6a26.4 26.4 0 00-7.84-9.83A13.21 13.21 0 00189 105a15.34 15.34 0 00-8.95 4.85 18.08 18.08 0 00-3.8 18.07 17.87 17.87 0 004.3 6.92 12.76 12.76 0 003.86 2.62 42.49 42.49 0 00-2.44 4.25 15.92 15.92 0 01-8.26-3.59 24.5 24.5 0 01-6.71-9.92 25.73 25.73 0 01-1.44-13.08 24.47 24.47 0 015.9-12.67c3.25-3.56 7.53-6.21 11.7-6.68S191.5 97 195 99.47a46.28 46.28 0 018.94 8.78 39.09 39.09 0 015.06 7.6z"/><path class="cls-2" d="M303.51 157.38c1.5 10.49 3 20.69 4.35 29.58-6.45 6.9-15.34 12.74-25.77 16.73a97.09 97.09 0 01-36.55 6c-13.14-.34-27.27-2.31-40-8.71a48.34 48.34 0 01-16.62-13.24 36.72 36.72 0 01-7.68-20.13 45 45 0 013.56-21.5 50.8 50.8 0 0112.51-17.28 64.36 64.36 0 0117.49-11.22 80.43 80.43 0 0119.32-5.48l4.85-.63c1.6-.19 3.23-.19 4.83-.29 3.17-.21 6.37-.16 9.49-.08a95.61 95.61 0 0116.12 1.68 1 1 0 00.26 0c.53.08 1 .18 1.52.29.89.18 1.78.39 2.68.65h.13a58.68 58.68 0 0125.1 13.53c.36 2.18.78 4.38 1.18 6.61s.68 3.69.91 4.61a14.54 14.54 0 00-2 1 7.64 7.64 0 00-2 1.78 6.45 6.45 0 00-1.13 2.78 8.38 8.38 0 001.34 5.61 6.63 6.63 0 002.6 2 10.68 10.68 0 002.88.69c.12 1.17.29 2.72.63 5.02zm-11.85 3.1a5 5 0 10-5 5 5 5 0 005-5zm-19.61 9a1.32 1.32 0 00-2.62-.29c-.92 8.73-12.9 12.95-24.34 13.27s-23.94-3.31-25.14-10.62a1.32 1.32 0 00-2.6.42c1.47 8.91 14.37 12.85 26.3 12.85h1.5c11.66-.35 25.72-4.63 26.9-15.61zm-64.16-9a5 5 0 10-5 5 5 5 0 005-5z"/><path class="cls-5" d="M375.3 250.57a18.3 18.3 0 01-2.67 11.51c-2.18 3.22-5.69 6.08-10.44 8.55a80 80 0 01-14.37 5.58c-4.72 1.42-10.07 2.73-16.33 4a87.27 87.27 0 01-17 2A34.66 34.66 0 01305 281a17.07 17.07 0 01-7.63-4.35c-4.88-4.8-6.42-12.12-6.87-17.41a22.82 22.82 0 017-18.15 39.58 39.58 0 018.55-6.26l.44-.21a50 50 0 014.51-2.22c.84-.39 1.68-.76 2.57-1.08l3.72-1.41-3.93-26.51c-.11-.71-.21-1.42-.32-2.18l3.1-.36a7.33 7.33 0 00.39 1.68c.92 4.27 6.27 7.89 12.22 6.5a6.69 6.69 0 001.18-.37c.1.71.21 1.57.31 2.47l1.32 9.91 1 5.92 6.37-.78 1.73-.16c1.21-.13 2.44-.24 3.78-.26a41.59 41.59 0 0114.39 1.67 24 24 0 017.71 4.2 22.08 22.08 0 015.93 7.92 33.59 33.59 0 012.83 11.01zm-10.36 4a15.21 15.21 0 00-.21-9.62 15 15 0 00-6.16-8.16 21.84 21.84 0 00-9.78-3.2c-6.76-.68-13.4.42-20 1.89S316 239 310.25 242.34a23.5 23.5 0 00-7.5 6.84 15.37 15.37 0 00-2.46 9.86 16.16 16.16 0 003.43 8.86 13.54 13.54 0 007.76 4.43 29 29 0 007.55.42 61.08 61.08 0 006.64-.86 4.11 4.11 0 002.91-2.29 13.84 13.84 0 00.89-2.25 15.89 15.89 0 011.34-3.12 6.32 6.32 0 013.85-2.88 5.47 5.47 0 014.33.83 11.59 11.59 0 012.2 2.29c.21.26.42.52.63.81l.39.44a6.9 6.9 0 00.6.61 4.75 4.75 0 001.52.86 2.08 2.08 0 00.9.08 2.77 2.77 0 00.94-.13c.55-.16 1.13-.31 1.73-.5s1-.29 1.55-.47c1.05-.31 2.12-.71 3.22-1.13a30.08 30.08 0 006.71-3.51 14 14 0 005.56-7z"/><path class="cls-8" d="M459.54 368.77a16.14 16.14 0 01-2.3 10.12 13 13 0 01-8.6 5.87 24.94 24.94 0 01-11.78-.84c-4.06-1.18-8.15-3.09-12.61-4.85A67.22 67.22 0 00410 375a68.64 68.64 0 00-14.81-.89c-4.88.23-9.44.91-13.79 1.15a46.39 46.39 0 01-6.35 0 20.84 20.84 0 01-5.71-1.15c-3.54-1.31-6.85-3.73-7.58-6.61a5.7 5.7 0 01.53-4.33 10 10 0 013.51-3.41 46.19 46.19 0 0110-4.14c1.73-.55 3.46-1.1 5.14-1.76s3.2-1.46 4.74-2.15c2.47-1.15 4.83-2.28 7.08-3.35a5.71 5.71 0 003.36 2.62 9.46 9.46 0 003.88.26 8.38 8.38 0 003.54-1.28 9.2 9.2 0 003.77-5.59c.79-.13 1.55-.21 2.31-.29a61.35 61.35 0 0115.24 1l1.8.32c0 .23-.05.47-.05.7a14.57 14.57 0 001.39 7.32 7 7 0 003.44 3.15 8.66 8.66 0 004.56.47 6.78 6.78 0 004.3-2.26 7.69 7.69 0 001.65-4.25 11.37 11.37 0 000-1.54 34.1 34.1 0 0113.58 10.33 19.9 19.9 0 014.01 9.45z"/><path class="cls-2" d="M459.41 298.94a32.93 32.93 0 010 4.33 26.82 26.82 0 01-1.68 8.26 29.47 29.47 0 01-4.16 7.39 33.65 33.65 0 01-6.22 5.93 43.29 43.29 0 01-15.89 7.31 55.67 55.67 0 01-17.62 1.66 26.76 26.76 0 01-15.76-6.35 32 32 0 01-9.22-14.6 43.13 43.13 0 01-2-8.68 54.41 54.41 0 010-8.94 29 29 0 011.79-8.55 21.55 21.55 0 011.94-3.72 16.6 16.6 0 00.13 3.48l.13.9.89-.06c3-.18 6.42-3.09 8.91-5.21a3.28 3.28 0 001.05-1.09 16.94 16.94 0 001.24 11l.31.63.71-.11a18.08 18.08 0 0011.59-6.95c-.45 9.36 2.75 12.46 2.88 12.59l.39.37.53-.14A15.72 15.72 0 00430 288.9c1.92 8.81 7.92 9.49 8.21 9.52h.42l.34-.29c6.56-5.9 7.16-8.94 6.92-12.59 4.7 5.77 9.65 8.21 13.35 9.23l-.55.16a18 18 0 01.72 4.01zm-4.56 13.46a8.22 8.22 0 001.76-6.19 19 19 0 00-3.1-8.39c-.21-.34-.52-.5-.73-.4a.67.67 0 00-.21.82 32 32 0 011.05 8 5.51 5.51 0 01-1.34 3.72 6.19 6.19 0 01-4 1.29c-1.75 0-3.12-.42-3.69-1.21s-.76-2.41-.58-3.88a41.87 41.87 0 012.1-7.92.71.71 0 00-.13-.84c-.21-.13-.53 0-.79.32a21.66 21.66 0 00-4.19 7.88 8 8 0 00.58 6.43 4.65 4.65 0 001.42 1.47 4.9 4.9 0 001.73.91 10.33 10.33 0 003.54.55c2.25-.07 4.85-.6 6.58-2.56z"/><path class="cls-9" d="M453.59 574.36a6.67 6.67 0 01.81 5.63 7.55 7.55 0 01-4.19 3.88c-3.83 1.68-8.65 1.13-13.24 2.26s-8.18 3.07-11.77 3.91a14.42 14.42 0 01-7.82 0 14.25 14.25 0 00.92-1.78 7.22 7.22 0 00-1.52-7.76 16.07 16.07 0 00-2.18-1.94c4-4.22 10.36-8 17.12-11.83 3.7-2 7.95-3.41 11.59-1.44a27.72 27.72 0 015.54 4 21.14 21.14 0 014.74 5.07z"/><path d="M446.33 465.36c0 1.36-.05 2.75-.18 4.22 0 0-.5 21.22-8.5 28.53S411 526.42 411 526.42s8.3-32.44 16.3-42.06a113.26 113.26 0 0114.93-15.09l-6.35 2.25c-1.05.37-25 9.39-40.06 53.31-1.63-22 2.62-48.09 10.41-60.54l1.49-2.39-2.78.39c-1.12.16-4.56 4-7.05 7.53-6.92 9.67-16.52 28.58-17 59.39-20.14-57.58-50.21-64.32-51.52-64.61l-6.06-1.23 5 3.59c17.38 12.4 30 37.86 36.57 74-18.43-36.05-46.93-41.37-47.27-41.43l-8.16-1.41 7.32 3.85c21.63 11.36 31.8 33.77 36.58 50.74-.4.13-.89.29-1.5.47l-1.26.39a115.94 115.94 0 01-18.22 4.3 92.73 92.73 0 01-16.28.76h-1.23c-5.85-.11-12.46-.24-19.33 1.23-2.51.52-5.11 1.18-7.6 1.84a79.08 79.08 0 01-14.61 2.77c-6.94.48-14.21-.78-21.86-2.17l-56.17-9.78a23.35 23.35 0 00-2.83-.39c-.4-.63-.84-1.26-1.26-1.87l-.37-.52a18.17 18.17 0 00-3.85-4.33 12.91 12.91 0 00-5.56-2.23 17.19 17.19 0 00-6 0 9.73 9.73 0 00-5.43 2.83c-.05.08-.1.13-.15.21a7.06 7.06 0 00-3.75-3.75c-1.73-.73-3.52-1-4.91-1.7-.57-.31-1.47-.94-2.23-1.39s-1.65-.94-2.46-1.39c-1.65-.89-3.33-1.78-4.88-2.78-3.14-1.94-5.66-5-8.6-8a27.79 27.79 0 00-5.08-4.32 12.86 12.86 0 00-7-2.07 14.92 14.92 0 00-7.1 2.15 37 37 0 00-5.8 4.22c-1 .92-2.12 1.81-3.25 2.67l-6.19-4.86a80.72 80.72 0 01-8.31-7.31 95.8 95.8 0 01-10-11.62 76.14 76.14 0 01-9.39-16.75A60.87 60.87 0 0176.34 467a53.76 53.76 0 015.85-25.33 44.79 44.79 0 018.5-11.43 99.61 99.61 0 0112-9.59c4.09-3.33 9.6-4.54 14.45-5.38.76-.16 1.55-.29 2.33-.42 2-.34 4-.71 6-1.2 2.81-.76 6-1.76 8.42-4.46.13-.21.29-.4.42-.6a7 7 0 00.94-1.63c.08-.24.16-.47.27-.73a6 6 0 00.44-1.71l.24-2.28a4.2 4.2 0 00.08-.81 3.15 3.15 0 01.21-1.1 3.19 3.19 0 011.8-2.21 8.58 8.58 0 013.6-.57 47.38 47.38 0 016.45.73c.78.11 1.57.24 2.36.34a28.5 28.5 0 004.87.37l1.37-.08 1.33-.31c.55-.14 1-.32 1.5-.48.26-.1.5-.18.78-.26 27.06-9.33 52.1-15.07 76.46-17.49 7-.71 14-1.1 20.87-1.15 2.81-.05 5.69 0 8.5.08l2.07.05a38.78 38.78 0 0110.09 2.41c2.23.76 4.51 1.65 6.69 2.49a86.18 86.18 0 0014.21 4.59 155.08 155.08 0 0022.39.71c3.54-.08 7.19-.26 10.7-.42 11.27-.52 22.94-1.07 34.35.84a84.91 84.91 0 0121.71 6.71c8.6 3.8 14.73 7.34 19.87 11.54a103.83 103.83 0 0116.18 16.65c5.48 6.95 10.12 13.13 14.13 18.93 5.23 7.69 7.69 14.72 7.56 21.56z" fill="#7ac5d7"/><path class="cls-2" d="M437.91 344.15c.87 3.8 1.23 9.1-2.46 9.23-2.05.29-3.49-.24-4.35-1.71a12.87 12.87 0 01-1.37-5.61 52.48 52.48 0 01.5-9.15c.76-.16 1.52-.31 2.28-.5 1-.23 1.92-.47 2.89-.76a1.36 1.36 0 00.13.37c.26.81.55 1.65.84 2.52a53.51 53.51 0 011.54 5.61z"/><path class="cls-8" d="M414.18 582.82A3.74 3.74 0 01415 587a9 9 0 01-3.57 4 17.26 17.26 0 01-5.55 2 17.65 17.65 0 01-6.11.05c-2.07-.31-4.41-1.05-7.08-1a20.14 20.14 0 00-7.29 1.78c-2.13.87-4.14 1.58-6.24 2.23a65.87 65.87 0 01-25 2.49c-4-.44-8.07-1-11.33-2.38a9 9 0 01-3.88-3 4.32 4.32 0 01-.68-4 8.1 8.1 0 013.17-3.36 41.86 41.86 0 014.51-2.44 95.84 95.84 0 009-4.77 37.39 37.39 0 007.34-5.87c2.18-2 4.2-4.35 6.9-5.53a15.46 15.46 0 019.2-.74 56.85 56.85 0 0110.12 3.1c3.52 1.28 7.08 2.59 10.67 4.16a69.77 69.77 0 0110.47 5.56 29.18 29.18 0 014.53 3.54z"/><path class="cls-2" d="M405.51 336.12a26.05 26.05 0 01-1.18 7.35 6.57 6.57 0 01-2.68 3.48 6.41 6.41 0 01-4.43.5c-.71-.13-.94-.55-1.31-1a5.21 5.21 0 01-.47-2.1 20.26 20.26 0 01.63-5.14c.6-2.51 1.36-4.87 2-6.94a27.51 27.51 0 007.44 3.85z"/><path d="M462.38 528.18c-7.69 2.23-19.2 7.34-32.44 19l-4.69 4.11 2.65-5.66c6.08-13.08 13.32-23.49 21.6-31.07-6.71 3.85-16.28 11.25-26.06 24.93l-4 5.59 1.63-6.66a78.4 78.4 0 0130.78-45c-9.91 4.09-26.59 14.15-41.45 38.59a46.54 46.54 0 00-.58 12.53l-2.59.37c-.48-3.41-.21-8.31.73-14.08 2.6-15.94 10.3-38.31 21.37-52.47-8.73 6.5-23.28 21.37-32.85 53 1.12 8.52 3.27 16.07 6.58 21.42l-2.23 1.39c-3.57-5.8-5.85-14.08-7-23.42-2.36-19.35.13-43.21 5.88-58.84-6.93 10-17.18 30.73-16.08 65.14a190.29 190.29 0 003.31 28.95c.81.29 1.65.55 2.47.84 3.54 1.18 7.21 2.44 10.93 4a67.83 67.83 0 0111.12 5.61c.57.39 1.15.76 1.7 1.13a36.15 36.15 0 016.66-6.43c1-.76 2-1.54 3.09-2.28h-.05c12.19-19.45 25.44-33.06 39.52-40.69z" fill="#80a62a"/><path d="M381 537.83c-10.23-33.06-23.89-50.52-33.54-59.33a59 59 0 00-10.67-7.9c16 15.47 26.85 42.19 32.33 79.56a125.54 125.54 0 014.62 13.63 23.26 23.26 0 015 .18 43.72 43.72 0 015.38 1.16 187.54 187.54 0 01-3.09-27.3zm-42.41-25.27a66.64 66.64 0 00-11-6.77c26.2 20.58 31.44 57.89 32.36 66.86.42-.37.84-.73 1.23-1.1 2-2 3.93-4.64 7.11-6.24a12.07 12.07 0 012.91-1.07 126 126 0 00-4.67-13.56c-8.17-19.95-19.28-31.6-27.94-38.12z" fill="#76883c"/><path class="cls-9" d="M353 327c1.6 1.81 2.33 3.88 2 5.51-.34 1.8-2.07 3.09-3.77 4.27a57.07 57.07 0 01-10.41 5.74 20 20 0 01-9.31 1.76 25.87 25.87 0 01-10.75-3.41c.16-.5.37-1 .55-1.49s.34-1.11.53-1.66l.16-.72a14.86 14.86 0 00.1-2.7 10.56 10.56 0 00-2.07-4.82 20.63 20.63 0 00-5-4.54l.16-.13c.73-.6 1.44-1.18 2.15-1.78 3.49-2.94 7.1-5.95 11.19-7.53a6.15 6.15 0 013.65-.15 6 6 0 003.25-.92c.31-.16.66-.34 1-.47a2.54 2.54 0 011.44-.24 5.76 5.76 0 011.55.52 10.39 10.39 0 012.7 2.31c.39.47.79.95 1.18 1.44a25 25 0 004.17 4.38c.58.47 1.18.92 1.78 1.39A25.76 25.76 0 01353 327z"/><path class="cls-8" d="M319 334.55v1.76c0 .4-.18.55-.26.84s-.21.73-.34 1.1c-.37.94-.71 1.86-1 2.78a26.43 26.43 0 01-2.09 5 6.9 6.9 0 01-2.21 2.54 13.61 13.61 0 01-3.38 1.34 33 33 0 01-7.39 1 58.53 58.53 0 01-13.5-1.18c-3.7-.78-7.45-1.78-10.07-3.46a10.13 10.13 0 01-1.5-1.31c-.13-.21-.26-.42-.42-.63a3.36 3.36 0 01-.5-.89 7.26 7.26 0 01-.13-3.3c.24-1.5.5-2.76.74-3.81.13-.6.26-1.12.34-1.57.16-.92.29-1.62.31-1.76l.16-1H276l-.71 2.3c-.13.42-.31.95-.49 1.55-.37 1-.79 2.23-1.24 3.75a10.29 10.29 0 00-.26 4.64 6.44 6.44 0 00.7 1.76c.1.23.24.47.42.89s.68.89 1.13 1.41a29 29 0 00-5.35 4l-.61.52c-2.09 1.89-4.27 3.83-7.39 3.89s-6.71.6-10.38 1.07c-1.44.21-2.89.39-4.41.58-2.54.29-5.32.5-8.15.55a40.77 40.77 0 01-4.22-.29c-1-.11-1.94-.32-3-.53l-1.46-.31a76.67 76.67 0 00-10.1-1.13l-1.47-.1a50.75 50.75 0 01-8.44-1 14.84 14.84 0 01-8-4.62 35.64 35.64 0 01-5.43-8.91c-1.73-3.88-2.07-7-1.05-9.6a8.17 8.17 0 013-3.56 36.27 36.27 0 014.8-3.05c4.24-2.36 8.68-4.32 13.34-6.42 2.86-1.26 5.69-2.54 8.55-3.91a3.77 3.77 0 00.45-.23 32.56 32.56 0 000 4 12.82 12.82 0 001.73 6 7.23 7.23 0 006.37 3.09 12 12 0 006.19-2 11.6 11.6 0 004-4.85 23.41 23.41 0 001.65-10.65c0-.52-.08-1-.1-1.57 7-2.86 13.42-3.46 19.77-1.86.39.1.78.21 1.15.34v.29a27.86 27.86 0 00.5 9.85A8.52 8.52 0 00271 323a7.88 7.88 0 006.37.71 9.67 9.67 0 005.24-3.25 10.7 10.7 0 002.2-5.43c.06-.44.11-.89.13-1.31a68.24 68.24 0 0012.38 5.95c1.78.74 3.54 1.45 5.27 2.21a79 79 0 018.34 4.06 22.77 22.77 0 016.68 5.38 7.29 7.29 0 011.39 3.23z"/><path class="cls-2" d="M289.48 247.21l-.47 1.16a27.15 27.15 0 00-1.68 11c.53 6.79 2.26 12.37 5.25 16.62a43 43 0 01-20.45 14.37 49.38 49.38 0 01-15.66 2.64 95.47 95.47 0 01-17.35-.91c-11.72-1.66-22.4-6.74-28.3-14.87a37.87 37.87 0 01-7-23.49c1.39-.9 2.73-1.87 4-2.84a61.46 61.46 0 0010-10.09q1.55-1.89 2.81-3.78c.11.92.24 1.87.39 2.81a93.59 93.59 0 002.47 11.51c.55 2 1.18 4 1.94 6.06.39 1 .73 2 1.2 3l1.13 2.49.71 1.41.34.69c.16 0 .42-.27.63-.37.84-.58 1.7-1.23 2.54-1.89.21-.16.45-.31.63-.47l.39-.26.63-.55c.84-.73 1.65-1.47 2.42-2.25a54.56 54.56 0 004.3-4.78 55.46 55.46 0 006.37-10.06c.13-.29.28-.58.39-.87a60.9 60.9 0 0013.63 19l1.24 1.21 1.25 1a27.92 27.92 0 002.5-2.17l.7-.84a7 7 0 00.57-.69c.39-.5.76-1 1.08-1.47a32.15 32.15 0 003.25-6.14 51.24 51.24 0 003.3-12.27c.26-1.81.42-3.56.55-5.27a57 57 0 0014.3 11.36zm-8.73 58.68a25.09 25.09 0 01.5 8.63c-.45 2.83-2 5-4.85 5.61-2.94.81-4.59-.37-5.45-3.2a27.2 27.2 0 01-.82-8.65 108.55 108.55 0 011.68-14.45c.47-.18.95-.34 1.39-.52a46.3 46.3 0 003.09-1.34 83.72 83.72 0 014.46 13.92z"/><path class="cls-3" d="M300.94 234.26c-1.07-9-5.4-19.06-12.9-30-1.57.79-3.2 1.52-4.85 2.2a97.78 97.78 0 01-37.68 7.06c-1.15 0-2.3 0-3.48-.08-11.62-.37-23.89-2.13-35.61-7.27-3.44 4.57-6.21 11.49-7.92 19.69a99.4 99.4 0 00-1.7 13.56c-.21 2.39-.24 4.82-.27 7.34-.05 1.23-.05 2.52 0 3.78 0 .94.06 1.91.08 2.88l.55-.23c.29-.11.55-.27.84-.37.55-.26 1.08-.53 1.6-.84a49.61 49.61 0 006.06-3.88 65.26 65.26 0 009.88-9.2c1.71-1.92 3.28-3.83 4.67-5.69a104.57 104.57 0 01-.42-12c0-.84.24-1.44.47-1.44s.48.55.58 1.38c.37 2.71.81 5.83 1.42 9.29 2.41-3.41 4.37-6.61 6-9.39.52-.86 1.05-1.39 1.26-1.28s.1.81-.32 1.75a80 80 0 01-6.34 12.25c.31 1.78.71 3.61 1.13 5.53.76 3.51 1.67 7.24 2.88 11.06.6 1.89 1.23 3.83 2 5.75.4.94.74 1.94 1.18 2.88a4.8 4.8 0 01.21.45l.89-.74c.79-.71 1.58-1.36 2.29-2.1 1.49-1.41 2.85-2.91 4.14-4.4A63.6 63.6 0 00244 243c.58-1 1.1-2 1.57-3a60.59 60.59 0 01-4.14-18.64c0-.92.13-1.57.37-1.57.21 0 .47.6.66 1.44a84.85 84.85 0 004.69 15.13 55.3 55.3 0 003.16-10.36c.18-.81.47-1.36.71-1.34s.37.63.31 1.47a43.5 43.5 0 01-2.67 13.45 66.24 66.24 0 0014.5 20.14l.4-.45a6.29 6.29 0 00.5-.63 10.86 10.86 0 00.94-1.26 31.31 31.31 0 003-5.45 55.61 55.61 0 003.57-11.35c.52-2.6.92-5.12 1.18-7.48a62.08 62.08 0 01-7.75-11.61l2.36-1.15a62.24 62.24 0 005.79 9c.27-3 .37-5.66.42-8.05 0-.92.21-1.52.48-1.54s.47.57.57 1.49a75.24 75.24 0 01.63 10.72 55.49 55.49 0 0015.45 12.9 27.67 27.67 0 014.66-5.92 37.12 37.12 0 015.95-4.72z"/><path class="cls-2" d="M243.1 311a22.34 22.34 0 01-1.76 9.08 7.89 7.89 0 01-7.05 4.64 3.4 3.4 0 01-3.17-1.42 9.6 9.6 0 01-1.23-4.22 40 40 0 01.52-9.62 136.92 136.92 0 013.2-14.61c1.62.37 3.28.68 4.95.95.95.13 1.89.26 2.84.36a72.41 72.41 0 011.7 14.84z"/><path class="cls-9" d="M194.23 559.78a6.07 6.07 0 010 4.14 5.92 5.92 0 01-2.44 2l-.79.48c-4.59 2.7-9.46 4.24-13.47 4.24h-.63a16.22 16.22 0 01-7.48-1.94 17.07 17.07 0 001.29-1.26 10.64 10.64 0 002.62-5.59 18.11 18.11 0 00-.13-5.71 40.77 40.77 0 00-2.91-9.08c.1-.15.26-.31.42-.52 3.12-3 7.92-2.6 10.49-2a11.71 11.71 0 014.87 2.12 17.7 17.7 0 013.39 4.06l.26.42c1.91 2.86 3.72 5.65 4.51 8.64z"/><path class="cls-2" d="M194.86 228.31c-.27 1.28-.53 2.62-.74 4a.69.69 0 00-.13 0 73.59 73.59 0 01-12.06 2.73c-4.8.6-8.44.5-11.41-.4a9.42 9.42 0 01-4.19-2.43 7.09 7.09 0 01-1.86-3.91 1.66 1.66 0 01.29-1.34c.73-.94 2.59-1.57 5.29-1.78a66.69 66.69 0 0115.24 1.18l.86.16c4.17.74 7.21 1.42 8.71 1.79z"/><path class="cls-9" d="M180.25 334a7.82 7.82 0 01.47 5.84c-1.1 3.23-3.64 5.51-6.11 7.71-.44.4-.86.79-1.28 1.16-3.25 2.91-5.79 4.64-8 5.48a26.94 26.94 0 01-7.18 1.15 24.57 24.57 0 01-4.54-.21c-.18-.05-.39-.08-.55-.11a25.34 25.34 0 00-2.15-6.1 26.7 26.7 0 00-6.48-8 25.9 25.9 0 00-9.52-5.06c.06-.13.14-.26.21-.39 2.47-4.14 6.87-7.34 13.06-9.44 2.47-.89 5-1.54 7.53-2.2l.31-.11c1.47-.36 2.75-.73 3.93-1.1a19.49 19.49 0 013.73-.86c2.07-.21 4.25.5 6.68 2.2a51.08 51.08 0 015.69 4.67 18.46 18.46 0 014.2 5.37z"/><path class="cls-8" d="M171.18 556.42c.42 3.31.16 6.92-2.28 9.34s-6 4-9.78 5.21-7.84 2.47-12 3.44c-8.28 1.89-17.3 3-26.4 1.57a41.71 41.71 0 01-13.17-4.25 22.49 22.49 0 01-9.83-9.44l-.13-.2c-.16-.29-.42-.82-.71-1.34a10.37 10.37 0 01-1-3 11 11 0 01.24-3.17 13.61 13.61 0 011.1-3.09 29.56 29.56 0 011.86-2.94 58 58 0 0110.15-10c3.69-3 7.6-5.72 11.14-8.89 3.33-3 7-5.67 10.75-5.8s7.13 2.39 10 5.25 5.72 6 9.28 8.1c1.73 1 3.49 1.86 5.14 2.7.84.39 1.65.81 2.44 1.23s1.42.87 2.41 1.37c1.89.83 3.65 1 5.09 1.54a5.25 5.25 0 013.07 2.89 41.45 41.45 0 012.63 9.48zm-21.03-197.54a22.24 22.24 0 01-1.49 8.37 17.76 17.76 0 01-4.56 6.55c-3.18 2.83-7.27 4.33-11.23 5.8-1 .36-2 .73-3 1.12a65.78 65.78 0 00-11.77 6.09l-1.44.89a41.18 41.18 0 01-10.28 4.9 42.19 42.19 0 01-8 1.18l-6.16.47c-.42 0-.79.06-1.1.11a46.29 46.29 0 00-2-4.7c-2.2-4.22-5-7.89-8.39-10.17a11.37 11.37 0 00-6.08-2.44 11.67 11.67 0 00-7 1.94 24.33 24.33 0 00-5.65 5.14c-1.62 2.05-3.12 4-4.64 6.3-.16.23-.31.49-.47.73a27.45 27.45 0 01-4.54-3 19.61 19.61 0 01-6.16-8.33 21 21 0 01-.13-13.69c1.44-4.43 4.75-8.76 9.31-12.22a44.19 44.19 0 004.63 3.47 42.81 42.81 0 0011.32 5.14 49.76 49.76 0 0012.9 2h2a49.6 49.6 0 0011.27-1.26 1.33 1.33 0 01.19-.05 20.87 20.87 0 004.17 7.7 7.85 7.85 0 005.82 2.52 11.51 11.51 0 005.87-2 8.41 8.41 0 003.77-5.38 10.8 10.8 0 00-.83-6 14.9 14.9 0 00-2.76-4.14 27.06 27.06 0 003.75-4 21.78 21.78 0 005.27 6.61 7.37 7.37 0 005.9 1.34 10.54 10.54 0 005.11-2.91 7.87 7.87 0 002.55-5.69 10.42 10.42 0 00-1.81-5.45 16.86 16.86 0 00-7.71-5.9 18.06 18.06 0 00-3.36-.95 20 20 0 00.45-2.12c.37 0 .79 0 1.31-.08a24.07 24.07 0 0123 13.53 20.83 20.83 0 011.97 8.58z"/><path class="cls-2" d="M131.54 347.77a6.87 6.87 0 011.1 3.48 4.25 4.25 0 01-1.44 3 7.84 7.84 0 01-3.31 2 3.82 3.82 0 01-3.12-.66c-2.1-1.44-3.72-3.93-5.27-6.21a25.28 25.28 0 00-2.59-3.46 6.92 6.92 0 00-4-1.81 12.86 12.86 0 00-6.66 1.2c-.63.27-1 .66-.86.87s.58.26 1.18.13a13.81 13.81 0 016-.11 4.91 4.91 0 012.54 1.53 12.44 12.44 0 011 1.65 25.1 25.1 0 01-4.2 4.69 26.79 26.79 0 00-2.28-1.65 19.62 19.62 0 00-15.36-2.33c-.69.15-1.11.44-1 .68s.55.39 1.23.34a20.73 20.73 0 0113.5 3.8 15.75 15.75 0 015.32 6.5 7.36 7.36 0 01.48 3.94 4.77 4.77 0 01-2.15 3 8.91 8.91 0 01-4 1.44 4.32 4.32 0 01-3.25-1.34c-1.94-1.94-3.15-4.87-4.3-7.57a27.89 27.89 0 00-2-4.15 7.37 7.37 0 00-3.83-2.62A14 14 0 0087 354c-.71.16-1.15.47-1.08.71s.53.34 1.21.31a15.2 15.2 0 016.29 1.05 5.5 5.5 0 012.44 2.1 25.82 25.82 0 011.26 3.36 50.52 50.52 0 01-12.74.29 48.32 48.32 0 01-12-2.57 40.06 40.06 0 01-10.15-5.17 35.3 35.3 0 01-7.41-7.08 29.64 29.64 0 01-5.59-23.7 8.24 8.24 0 00.19-1 26.22 26.22 0 0012.66-8.6c.08 3.3 1.36 7.94 7.84 13.76l.6.55.76-.31c.24-.1 4.88-2.07 7-9.7 1.34 4.09 3.93 8.42 9.07 9.75l.65.25.55-.53c.18-.21 4.48-4.67 4.48-13.69a18.43 18.43 0 0011.22 6.35l.92.16.45-.84a17.59 17.59 0 001.52-10c.26.29.55.58.84.87 1.78 1.86 3.83 4 6.58 4.14h.44l.37-.21a6.45 6.45 0 002.28-3.72c3 4.82 4.3 10.62 4.3 18.3a40.89 40.89 0 01-1.13 9.83 17.67 17.67 0 00-8.62 1.79c-.61.26-1 .63-.84.84s.57.26 1.2.13a19 19 0 0113 1.23 14.64 14.64 0 015.98 5.12zm-64.85-8.47c1.45-2.39 1-4.67.58-6.4a21.76 21.76 0 00-4.11-7.9c-.27-.31-.58-.44-.79-.31s-.26.47-.13.84a43.66 43.66 0 012.1 7.89c.18 1.49.1 3.09-.58 3.91s-1.94 1.15-3.7 1.18a6.09 6.09 0 01-4-1.26 5.59 5.59 0 01-1.33-3.73 32.61 32.61 0 011-8 .69.69 0 00-.2-.81c-.21-.11-.53 0-.74.39a19 19 0 00-3.09 8.39 8.17 8.17 0 001.73 6.16c1.75 2 4.35 2.52 6.6 2.6a11.39 11.39 0 003.54-.55 5.14 5.14 0 001.74-.92 4.49 4.49 0 001.38-1.48zm59.18-26.77a2.1 2.1 0 01-.47 1.78 5.46 5.46 0 01-2.57 1.42 28.45 28.45 0 00-4.67-9.08 11 11 0 00-.23-2.12 19.75 19.75 0 016.84 5.53 5.77 5.77 0 011.1 2.47zm-8.73-46.39c.42 6.82-.92 14.66-5.69 21.08s-12.61 10.86-21.63 12.41c-8.13 1.33-17.17 1.25-25.56-1.55-.92-.32-1.84-.66-2.73-1a33 33 0 01-12-8.42 24.68 24.68 0 01-6-13.37 25.69 25.69 0 012.68-14.45 33.3 33.3 0 019.67-11.06c7.95-5.88 17.68-8.52 26.85-9.08s18 1.39 24.23 6.4 9.21 12.31 10.18 19.04zm-25 23.65c13.22-2.7 20.64-9.7 20.4-19.19a1.32 1.32 0 00-1.31-1.28 1.31 1.31 0 00-1.28 1.36c.29 11.06-11.35 15.13-18.3 16.54-15.92 3.28-35.22-1.2-38.26-8.83a1.3 1.3 0 10-2.41 1c3 7.55 16.28 11.56 29.5 11.56a58.61 58.61 0 0011.62-1.16zm16.1-25.46a3.71 3.71 0 00-7.42 0 3.71 3.71 0 107.42 0zm-43.86 6.3a3.72 3.72 0 10-3.73 3.72 3.72 3.72 0 003.69-3.72z"/><path class="cls-3" d="M115.2 304.4a9.58 9.58 0 01-.94 7.39c-1.55-.34-3-1.83-4.36-3.25a23.89 23.89 0 00-2.07-2 2.15 2.15 0 00-2.51-.13 2.17 2.17 0 00-.95 2.36 15.18 15.18 0 01-.65 8.57 16 16 0 01-9.94-7 1.84 1.84 0 00-2.15-.76 1.9 1.9 0 00-1.26 2c.63 7.58-2 12-3.17 13.45-5.35-1.94-7-8.54-7.47-12.42a1.67 1.67 0 00-1.66-1.39 1.61 1.61 0 00-1.57 1.46c-.65 8.11-4 11.25-5.53 12.25-6-5.61-6.45-9.6-6.22-12.48a2.08 2.08 0 00-1.31-2.13A2.17 2.17 0 0061 311c-6 7.68-12.56 9.2-15.55 9.43h-.1l-.08.05a1.2 1.2 0 01-.31 0c.26-12.43 11-16.57 16.25-17.86 10 3.54 20.32 3.38 29.58 1.6a40.46 40.46 0 0014.47-5.82c5.41.36 8.84 2.41 9.94 6z"/><path class="cls-4" d="M114.26 244.46a11 11 0 01.08 5.59 28.53 28.53 0 00-5.06-5.8A32.21 32.21 0 0097 237.7c-.16-.06-.31-.08-.47-.14a10 10 0 014.53-2.54 7.71 7.71 0 013.83.29 16.19 16.19 0 014.2 2.1 13 13 0 015.17 7.05z"/><path class="cls-9" d="M90.48 404.61c.28 2.46-.24 4.43-2 5.85s-4.36 2.15-7.06 2.7l-8.62 1.54a44.19 44.19 0 01-8.63 1.08c-2.83 0-5.43-.68-7.05-2.36s-2.34-4.22-2.34-6.77c.06-5.27 2.52-10.19 5.22-14.52s5.48-8.57 9-11.07a9.55 9.55 0 015.56-2 9.84 9.84 0 015.24 1.68c2.91 2.3 5.25 5.87 7.08 10a46 46 0 013.6 13.87z"/><path class="cls-4" d="M46.87 247.87c.58.31 1.16.65 1.65 1a36.15 36.15 0 00-7.26 9.44 32.38 32.38 0 00-2.91 8.2 5.21 5.21 0 01-2.2-.81 8.81 8.81 0 01-3.15-3.52 11.63 11.63 0 01.55-10.88 12.33 12.33 0 013.86-4.3 6.47 6.47 0 014.66-.95 15.07 15.07 0 014.8 1.82z"/><path class="cls-13" d="M265 409c-83.81 0-152 27-152 60.25s68.19 60.28 152 60.28c28.16 0 54.54-3.06 77.18-8.37a16.4 16.4 0 00-1.37-1 2.12 2.12 0 01-.92-1.18c-22 4.94-47.61 7.79-74.89 7.79-82.33 0-149.32-25.81-149.32-57.53s67-57.53 149.32-57.53 149.32 25.81 149.32 57.53c0 8-4.31 15.62-12 22.55a2.41 2.41 0 01.39 1.09 7.58 7.58 0 01-.15 2c9.3-7.78 14.52-16.48 14.52-25.65C417.11 436 348.89 409 265 409z"/><path class="cls-13" d="M351.85 494.77a2.4 2.4 0 01-.26-.94 126.57 126.57 0 01-25 9.29 20.79 20.79 0 002.2.69 2.06 2.06 0 011.17.9 125.77 125.77 0 0022.66-8.81l-.11-.09a2.42 2.42 0 01-.66-1.04z"/><path class="cls-13" d="M265 425.31c-60.85 0-110.36 19.71-110.36 43.94s49.55 43.94 110.36 43.94c21.73 0 42-2.53 59.07-6.86a2 2 0 01-.7-.41l-.3-.39a2 2 0 01-.2-1.46 246.82 246.82 0 01-57.87 6.5c-59.41 0-107.74-18.54-107.74-41.32s48.37-41.32 107.74-41.32 107.75 18.54 107.75 41.32c0 7.12-4.73 13.83-13 19.69a2 2 0 01.23.18c.18.22.35.44.52.67a2.37 2.37 0 01.39 1.2c9.22-6.41 14.52-13.83 14.52-21.74 0-24.25-49.51-43.94-110.41-43.94z"/><path class="cls-13" d="M338.54 475.74C330.78 488.45 300.78 498 265 498c-41.61 0-75.46-12.87-75.46-28.7 0-15.56 34.56-28.7 75.46-28.7s75.46 13.14 75.46 28.7a10.75 10.75 0 01-.23 2.12 3.52 3.52 0 012.65.06 13.19 13.19 0 00.2-2.18c0-17.56-34.29-31.32-78.08-31.32s-78 13.71-78 31.27 34.3 31.32 78.08 31.32c36.56 0 66.49-9.59 75.38-23a3 3 0 01-1.92-1.83z"/><path class="cls-13" d="M265 450c-26.42 0-47.12 8.44-47.12 19.22s20.7 19.22 47.12 19.22 47.13-8.44 47.13-19.22S291.47 450 265 450zm0 35.82c-24.12 0-44.5-7.6-44.5-16.6s20.38-16.6 44.5-16.6 44.5 7.6 44.5 16.6-20.34 16.63-44.5 16.63z"/><path class="cls-14" d="M446.16 453.33a53.78 53.78 0 00-5.67-10.71c-4-5.91-8.66-12.16-14.12-19.12a106.45 106.45 0 00-16.47-17.08c-5.29-4.33-11.56-8-20.33-11.91a88 88 0 00-22.28-6.93c-11.73-2-23.52-1.46-34.9-.95-3.5.16-7.11.32-10.63.4a158.2 158.2 0 01-21.9-.69 88.21 88.21 0 01-13.71-4.48c-2.2-.87-4.49-1.75-6.76-2.53a41.19 41.19 0 00-10.82-2.58l-2.28-.05c-2.77-.07-5.64-.14-8.44-.09-6.92 0-14 .39-21.09 1.05a334.56 334.56 0 00-77.31 17l-.8.27c-.46.16-.92.32-1.32.42l-.84.2-1 .06a28.46 28.46 0 01-4.3-.35c-.76-.1-1.52-.22-2.28-.34a52.87 52.87 0 00-7-.76h-.3a11.22 11.22 0 00-4.79.93 6.52 6.52 0 00-3.56 4.35 5.85 5.85 0 00-.31 1.78c0 .26 0 .52-.07.81l-.2 2.08a3 3 0 01-.25 1 4.63 4.63 0 00-.23.69 4.13 4.13 0 01-.5.84 5.31 5.31 0 00-.36.57c-1.61 1.86-4.27 2.76-6.66 3.41-1.91.49-3.9.86-5.84 1.21l-2.3.43c-5.55 1-11.3 2.47-15.67 6a109.63 109.63 0 00-12.28 9.87 47.33 47.33 0 00-9.16 12.12A57.63 57.63 0 0072.94 467a64.07 64.07 0 004.44 23.66 80.74 80.74 0 009.53 17.81 101.44 101.44 0 0010.2 12.35 87.62 87.62 0 008.51 7.89l6.41 5a1.93 1.93 0 001 .52.77.77 0 00.53-.28l2-2.95c.25-.49-.07-.74-.7-1.25L108.6 525a80.87 80.87 0 01-8.31-7.32 94.91 94.91 0 01-10-11.61 75.41 75.41 0 01-9.38-16.77 60.09 60.09 0 01-4.54-22.3 54 54 0 015.84-25.34 44.25 44.25 0 018.49-11.41 101.62 101.62 0 0112-9.62c4.11-3.31 9.61-4.51 14.44-5.38l2.34-.41c2-.34 4-.69 6-1.2 2.82-.75 6-1.77 8.42-4.44.13-.21.28-.42.42-.62a7.43 7.43 0 00.95-1.62c.07-.25.16-.49.25-.73a5.69 5.69 0 00.46-1.72l.23-2.28a7 7 0 00.09-.8 3.95 3.95 0 012-3.32 9.11 9.11 0 013.6-.57 50.37 50.37 0 016.45.73l2.35.35a29.67 29.67 0 004.88.37l1.36-.09 1.34-.3c.54-.15 1-.32 1.51-.49l.77-.26c27.08-9.34 52.09-15.06 76.47-17.49 7-.7 14-1.09 20.86-1.14 2.82-.06 5.7 0 8.5.07l2.08.05a39.19 39.19 0 0110.09 2.42c2.23.76 4.5 1.64 6.69 2.49a88.56 88.56 0 0014.19 4.6 158 158 0 0022.39.69c3.56-.08 7.2-.25 10.71-.42 11.27-.52 22.93-1.06 34.36.85a85.39 85.39 0 0121.71 6.7c8.59 3.8 14.71 7.36 19.86 11.54a104.7 104.7 0 0116.19 16.65c5.48 6.94 10.1 13.13 14.11 18.92 5.24 7.69 7.73 14.73 7.6 21.56a57.56 57.56 0 01-1.3 11.66 86.52 86.52 0 01-3.14 11.41c-1.17 3.35-2.22 5.82-3.09 7.79l-.87 1.93c-.3.68-.53 1.22.06 1.51s.88-.22 1.23-.85c.23-.4.54-1 1-1.92a77 77 0 003.33-7.87 87.61 87.61 0 003.29-11.63 59.08 59.08 0 001.43-12 33.12 33.12 0 00-2.15-12.04zm-89.92 102.91l-1.09-3.3c-.23-.73-.69-.58-3.22.22l-1.26.39a115.72 115.72 0 01-18.22 4.32 93.89 93.89 0 01-16.27.74h-1.25c-5.84-.11-12.45-.24-19.31 1.24-2.53.51-5.12 1.17-7.62 1.82a80.43 80.43 0 01-14.59 2.8c-7 .47-14.2-.81-21.88-2.18l-56.16-9.79c-3.51-.6-3.88-.58-4 .14s.21.87 3.69 1.6l53.24 10.94 2.69.55c6.7 1.36 13.61 2.76 20.43 2.76.74 0 1.49 0 2.24-.05a83.36 83.36 0 0015.55-2.68c2.52-.6 4.91-1.17 7.28-1.6 6.35-1.26 12.42-1.08 18.28-.89h1.31a97.51 97.51 0 0017.06-.6 117.35 117.35 0 0019.07-4.35l1.25-.38c2.65-.82 2.99-1.02 2.78-1.7z"/><path class="cls-14" d="M196.16 559.23c-1-3.29-3-6.19-4.89-9l-.38-.54a18.42 18.42 0 00-3.85-4.33 13.11 13.11 0 00-5.56-2.23 16.7 16.7 0 00-6 0 9.64 9.64 0 00-5.43 2.81c-.85 1.15-1 1.4-.7 1.62s.5 0 1.36-1c3.13-3 7.91-2.59 10.49-2a11.76 11.76 0 014.88 2.12 17.34 17.34 0 013.38 4.08l.27.41c1.91 2.94 3.71 5.72 4.5 8.7a4.27 4.27 0 01-2.44 6.14l-.78.47c-4.61 2.71-9.47 4.24-13.47 4.24h-.63a15.93 15.93 0 01-7.67-2l-.35-.2c-.55-.32-.78-.45-1-.17l-1.06 1.55v.14c.05.25.7.65 1.08.86a18.14 18.14 0 008.87 2.3h.51c4.47 0 9.82-1.73 14.77-4.79l.19-.11c.59-.36 1.2-.74 1.83-1.17a5.55 5.55 0 002-2.15 7.88 7.88 0 00.08-5.75z"/><path class="cls-15" d="M170 546.35a7 7 0 00-3.84-4c-1.72-.75-3.51-1-4.89-1.71-.58-.31-1.47-.95-2.25-1.39s-1.62-.94-2.45-1.38c-1.65-.9-3.32-1.77-4.89-2.79-3.14-1.94-5.64-4.94-8.58-8a27.41 27.41 0 00-5.1-4.28 12.76 12.76 0 00-7-2.06 15.11 15.11 0 00-7.1 2.13 38 38 0 00-5.79 4.24c-3.39 3-7.31 5.62-11.14 8.67a59.62 59.62 0 00-10.88 10.58 28.72 28.72 0 00-2.18 3.41 17.24 17.24 0 00-1.44 4 14.13 14.13 0 00-.3 4.42 13.5 13.5 0 001.38 4.22c.38.7.77 1.4 1 1.78l-.13-.23c2.52 5 6.89 8.62 11.44 11a45.18 45.18 0 0014.35 4.51c9.77 1.42 19.2.08 27.68-2.07 4.25-1.08 8.31-2.39 12.18-3.79s7.81-3.06 10.67-6.22a10.77 10.77 0 002.63-5.6 18.11 18.11 0 00-.14-5.71 42 42 0 00-3.22-9.75l-1.46.6a42 42 0 012.66 9.46c.42 3.31.15 6.94-2.28 9.35s-6 4-9.79 5.21-7.83 2.46-12 3.42c-8.28 1.91-17.32 3-26.4 1.59a42.38 42.38 0 01-13.17-4.24c-4.09-2.19-7.79-5.33-9.83-9.44l-.14-.23-.71-1.33a9.78 9.78 0 01-1-3 10.16 10.16 0 01.23-3.15 14.34 14.34 0 011.1-3.12 24.34 24.34 0 011.87-2.91 56.66 56.66 0 0110.14-10c3.68-3 7.6-5.71 11.13-8.91 3.35-3 7-5.64 10.75-5.78s7.14 2.39 10 5.23 5.72 6 9.29 8.11c1.74 1 3.48 1.87 5.14 2.7.84.41 1.65.82 2.43 1.25s1.42.86 2.43 1.36c1.87.83 3.64 1 5.08 1.55a5.17 5.17 0 013.08 2.87zM80.7 379.49a11.28 11.28 0 00-6.09-2.44 11.66 11.66 0 00-7 1.95 24.46 24.46 0 00-5.61 5.14c-1.63 2-3.11 4-4.65 6.28-3 4.41-5.95 9.76-6.14 16.17-.07 3.11.63 6.76 3.27 9.42a11.1 11.1 0 004.58 2.76 17.71 17.71 0 005 .72 47.24 47.24 0 009.35-1.17l8.67-1.68c2.9-.65 5.94-1.48 8.51-3.6a8.7 8.7 0 002.75-4.17 11.36 11.36 0 00.22-4.6A45.75 45.75 0 0089 389.66c-2.18-4.22-4.94-7.9-8.37-10.17l-.92 1.29c2.9 2.29 5.24 5.86 7.06 10a45.72 45.72 0 013.67 13.87c.28 2.48-.24 4.45-2 5.84s-4.36 2.17-7 2.7l-8.63 1.57a46 46 0 01-8.65 1.06c-2.81 0-5.42-.67-7-2.35s-2.33-4.22-2.31-6.78c0-5.26 2.49-10.18 5.21-14.5s5.46-8.6 9-11.09a9.61 9.61 0 015.56-1.95 9.76 9.76 0 015.25 1.68zm281.56 193.18c2.17-2 4.2-4.34 6.91-5.52a15.59 15.59 0 019.2-.74 59.49 59.49 0 0110.12 3.08c3.5 1.28 7.08 2.62 10.65 4.18a70.46 70.46 0 0110.49 5.56 27.44 27.44 0 014.58 3.6A3.75 3.75 0 01415 587a8.93 8.93 0 01-3.54 4 16.6 16.6 0 01-5.56 2 17.66 17.66 0 01-6.11.05 41.57 41.57 0 00-7.1-1 20.45 20.45 0 00-7.29 1.8 75.01 75.01 0 01-6.23 2.22 65.58 65.58 0 01-12.6 2.47 66.51 66.51 0 01-12.38 0c-4-.45-8.08-1-11.34-2.39a8.73 8.73 0 01-3.86-3 4.31 4.31 0 01-.71-4 8.27 8.27 0 013.17-3.35 41.55 41.55 0 014.54-2.44 97.12 97.12 0 009-4.78 37.91 37.91 0 007.33-5.87l-1.11-1.13c-4.15 4-9.84 6.79-16.23 9.55a41.4 41.4 0 00-4.92 2.43 10.76 10.76 0 00-4.35 4.48 7.24 7.24 0 00.79 6.76 11.75 11.75 0 005 4.2c4 1.81 8.1 2.34 12.32 2.91a67.43 67.43 0 0026.38-2.34c2.19-.66 4.44-1.44 6.54-2.29a17 17 0 016-1.53 41 41 0 016.47 1 21.7 21.7 0 007.37-.1c4.67-.89 9.7-3.32 11.76-8.38a7.28 7.28 0 00-1.5-7.77 29.72 29.72 0 00-5.34-4.12 71.47 71.47 0 00-11.1-5.62c-3.72-1.52-7.39-2.77-10.94-3.95a59.38 59.38 0 00-10.71-2.81 17.44 17.44 0 00-10.47 1.34c-3.17 1.59-5.13 4.2-7.13 6.23z"/><path class="cls-14" d="M245.1 309.74l-1-2.41c7.91-3.46 15.27-4.25 22.5-2.42.8.2 1.59.44 2.36.7l-.85 2.48c-.7-.24-1.42-.45-2.15-.64-6.7-1.68-13.5-.93-20.86 2.29zm77.02 24.51a10.43 10.43 0 00-2.08-4.81 25.21 25.21 0 00-7.61-6.16 74.07 74.07 0 00-8.71-4.13c-2-.86-4.11-1.64-6.13-2.4a73.62 73.62 0 01-11.53-5.06c-1.7-1-2.77-1.51-3.3-.63s.4 1.55 2.09 2.62a69.41 69.41 0 0012.44 6c1.78.72 3.54 1.42 5.27 2.2a78.91 78.91 0 018.34 4.05 23.1 23.1 0 016.68 5.39 7.4 7.4 0 011.45 3.22v1.75c0 .39-.18.56-.26.84s-.21.73-.34 1.09a59.2 59.2 0 00-1 2.8 29.06 29.06 0 01-2.09 5 7 7 0 01-2.22 2.53 14 14 0 01-3.38 1.34 33.56 33.56 0 01-7.4 1 61.16 61.16 0 01-13.51-1.19c-3.67-.8-7.44-1.77-10.06-3.46a12.05 12.05 0 01-1.49-1.32c-.13-.21-.27-.42-.41-.63a3.59 3.59 0 01-.51-.89 7.26 7.26 0 01-.13-3.3c.23-1.48.51-2.76.74-3.79.14-.6.25-1.13.34-1.58.17-.93.29-1.62.31-1.75l.16-1h-1.67l-.7 2.3c-.14.44-.32.95-.52 1.55-.36 1-.79 2.24-1.22 3.76a9.88 9.88 0 00-.27 4.64 7.5 7.5 0 00.7 1.79c.12.23.24.48.44.89s.67.88 1.12 1.41a28.62 28.62 0 00-5.36 4l-.59.53c-2.1 1.88-4.28 3.82-7.4 3.88s-6.71.59-10.38 1.08c-1.43.19-2.9.38-4.39.56-2.55.29-5.33.5-8.17.54a34.51 34.51 0 01-4.23-.28 26.81 26.81 0 01-2.94-.53l-1.47-.31a77 77 0 00-10.1-1.13l-1.47-.09a52.43 52.43 0 01-8.44-1 15 15 0 01-8-4.62 35.73 35.73 0 01-5.44-8.92c-1.72-3.89-2.06-7-1-9.58a8.17 8.17 0 013-3.58 37.89 37.89 0 014.79-3c4.25-2.34 8.68-4.32 13.37-6.41 2.83-1.27 5.68-2.54 8.52-3.92 2.31-1.17 3.41-1.78 2.91-2.83s-1.65-.59-4 .43-5 2-7.53 3c-5 1.93-10.17 3.93-15.05 6.36a42 42 0 00-5.42 3.18 17.4 17.4 0 00-2.55 2.18 10.65 10.65 0 00-2 3.08 13.53 13.53 0 00-.9 6.82 23.25 23.25 0 001.68 6.16 38.56 38.56 0 006.07 10.33 19.66 19.66 0 0010.42 6.25 54 54 0 009.21 1.18l1.51.1a74 74 0 019.43 1.11l1.26.27a32.52 32.52 0 003.5.63 38.7 38.7 0 004.83.33h.25a70 70 0 008.57-.6c1.67-.2 3.28-.42 4.83-.63 3.45-.47 6.7-.91 9.55-1a13.18 13.18 0 006.93-2.33 29.82 29.82 0 003.71-3l.48-.44a20 20 0 014.9-3.74 12.32 12.32 0 011.25-.51l.25-.1a25.09 25.09 0 007.93 2.63 47.52 47.52 0 007.75.62 56.26 56.26 0 006.89-.43 51.67 51.67 0 008-1.56 19.12 19.12 0 004.15-1.73 9.89 9.89 0 003.27-3.61 31.28 31.28 0 002.37-5.64c.3-.87.6-1.74.94-2.59.19-.52.36-1.1.54-1.67l.11-.79a14.82 14.82 0 00.12-2.75zm-168.54 24.52A24.42 24.42 0 00151 349a26.53 26.53 0 00-6.47-8 25.86 25.86 0 00-19.53-6c-2.42.35-3 .51-2.9 1.23s.66.76 3.07.53a24.11 24.11 0 0123 13.53 21.23 21.23 0 012 8.58 22 22 0 01-1.49 8.37 17.76 17.76 0 01-4.56 6.54c-3.18 2.83-7.27 4.34-11.22 5.8-1 .37-2 .74-3 1.12a65.75 65.75 0 00-11.77 6.09l-1.46.89a40.79 40.79 0 01-10.27 4.9 41.09 41.09 0 01-8 1.18l-6.17.48c-1.7.14-2.47.2-2.41 1l.32 3.49c.06.47.35.62 1.07.62.37 0 .84 0 1.45-.09l6.3-.54a44.41 44.41 0 008.82-1.45 44.34 44.34 0 0011.4-5.6l1.63-1a61.85 61.85 0 0110.76-5.86c1-.41 1.95-.8 3-1.2 4-1.57 8.49-3.34 12.27-6.86a21.57 21.57 0 005.35-8.14 25.66 25.66 0 001.39-9.84zM58.3 392.21c0-.14-.13-.4-.93-.81l-.18-.1a27.15 27.15 0 01-4.81-3.17 19.61 19.61 0 01-6.16-8.32 20.93 20.93 0 01-.14-13.69c1.53-4.65 5.07-9.18 10-12.76.53-.38 1.34-1 .91-1.64s-1.3-.16-1.87.16a27.88 27.88 0 00-12.19 13 24 24 0 00-.83 16.33 23.59 23.59 0 007.15 10.62 30.41 30.41 0 005.64 3.91l.15.09a2.46 2.46 0 001.08.38.52.52 0 00.21 0l.28-.09 1.8-3.62z"/><path class="cls-14" d="M182.16 333.12a20.39 20.39 0 00-4.7-5.89 56.71 56.71 0 00-6-4.77c-2.79-1.86-5.47-2.65-7.91-2.35a19.24 19.24 0 00-3.92 1h-.11c-1.19.38-2.45.76-3.85 1.16l-.45.13c-2.45.71-5 1.44-7.44 2.37-6.41 2.36-10.91 5.82-13.37 10.3-1 2-1 2.09-.69 2.26s.41.1 1.46-1.84c2.46-4.16 6.85-7.34 13-9.46 2.48-.87 5-1.54 7.52-2.19l.33-.09c1.46-.38 2.74-.74 3.93-1.1a20.25 20.25 0 013.72-.88c2.07-.2 4.25.51 6.69 2.2a55.68 55.68 0 015.69 4.68 18.32 18.32 0 014.16 5.35 7.87 7.87 0 01.47 5.84c-1.1 3.22-3.65 5.51-6.11 7.72-.44.39-.87.77-1.28 1.15-3.26 2.9-5.79 4.63-8 5.46a26.68 26.68 0 01-7.19 1.17 22.46 22.46 0 01-4.53-.22c-.38-.06-.72-.14-1-.19-.42-.1-.66-.15-.76.15l-.61 1.78.07.12c.06.14.14.18.65.34a6.66 6.66 0 00.91.23l.29.05a22.26 22.26 0 003.63.26h1.41a29.2 29.2 0 007.92-1.37c3-1.18 5.63-3.25 8.7-6l.67-.62c1.2-1.09 2.44-2.22 3.66-3.54a15.33 15.33 0 003.58-5.8 10.09 10.09 0 00-.54-7.41z"/><path class="cls-15" d="M414.71 590.74a15.44 15.44 0 0011 1.71c4-.68 7.9-2.45 11.94-3.25s8.74 0 13.95-2.05a11 11 0 006.25-5.83 10.19 10.19 0 00-1.07-8.85 23.7 23.7 0 00-5.56-6 30.64 30.64 0 00-6.38-4.44 12.17 12.17 0 00-8-.85 22.87 22.87 0 00-6.66 2.8 111.32 111.32 0 00-10.37 7.09 33 33 0 00-7.67 7.83l1.31.89c3.9-4.78 10.83-8.82 18.26-13.07 3.69-2 7.94-3.43 11.58-1.47a28.76 28.76 0 015.54 4 21 21 0 014.73 5 6.66 6.66 0 01.84 5.64 7.57 7.57 0 01-4.22 3.88c-3.81 1.67-8.64 1.14-13.22 2.26s-8.19 3.07-11.78 3.9a14.13 14.13 0 01-9.73-.66z"/><path class="cls-14" d="M428 345.62c-1-.19-2.05-.36-3.07-.53a61.8 61.8 0 00-15.24-1c-1.14.11-2.26.26-3.37.46l-.47-2.58c1.19-.22 2.39-.38 3.61-.49a63.75 63.75 0 0115.89 1.06l3.13.54z"/><path class="cls-15" d="M393.81 346.15l-9 3.42c-1.55.56-3.2 1.29-4.77 1.76s-3.33.92-5.09 1.36a46.72 46.72 0 00-11.09 3.82 13.64 13.64 0 00-5.13 4.56 10 10 0 00-1.33 7.46 12.2 12.2 0 003.95 6.46 21 21 0 006.15 3.83 25.08 25.08 0 007.08 1.75 50.72 50.72 0 007.07.22c4.68-.13 9.27-.69 13.77-.83a66.1 66.1 0 0113.56 1 66.78 66.78 0 0113.1 3.69 126.35 126.35 0 0013.26 4.81 29.4 29.4 0 0014.5.48 17.89 17.89 0 0011.41-8.62 20 20 0 002.2-13.08 23 23 0 00-5.42-10.85c-5.11-5.84-11.68-8.89-17.53-10.68l-.53 1.49c5.55 2.21 11.44 5.65 15.59 11.19a19.76 19.76 0 014 9.43 16 16 0 01-2.3 10.11 13.08 13.08 0 01-8.59 5.88 24.84 24.84 0 01-11.79-.85c-4.06-1.17-8.14-3.07-12.59-4.85a68.45 68.45 0 00-29.08-4.95c-4.86.24-9.42.91-13.77 1.15a46.42 46.42 0 01-6.35 0 20 20 0 01-5.71-1.17c-3.54-1.29-6.87-3.72-7.59-6.6a5.69 5.69 0 01.53-4.31 9.72 9.72 0 013.5-3.41 45 45 0 0110-4.15c1.73-.57 3.45-1.11 5.14-1.76s3.19-1.46 4.74-2.16l8.71-4.1z"/><path class="cls-14" d="M354.67 325.51a26.77 26.77 0 00-4.14-3.59c-.57-.43-1.14-.86-1.71-1.32a23 23 0 01-3.82-3.93c-.42-.51-.85-1-1.32-1.55a11.77 11.77 0 00-3.34-2.74 7 7 0 00-2.18-.69 4.17 4.17 0 00-2.51.4c-.39.17-.77.37-1.13.57a4.32 4.32 0 01-2.15.75l-.46-.07a4.3 4.3 0 00-1.7-.09 7.31 7.31 0 00-1.86.39l-.41.12c-4.5 1.87-8.09 5.11-11.56 8.25l-2 1.79-1 .89c-.5.43-.71.6-.55 1l.11.22.22.05c.42.08 1.49-.7 2.06-1.18s1.42-1.17 2.13-1.77c3.5-2.93 7.12-6 11.21-7.52a6.23 6.23 0 013.65-.16 6 6 0 003.23-.91 8 8 0 011-.47 2.32 2.32 0 011.43-.23 4.84 4.84 0 011.56.52 9.67 9.67 0 012.69 2.31c.39.45.78.93 1.17 1.42a25.49 25.49 0 004.18 4.38c.59.48 1.18.94 1.77 1.39A25.41 25.41 0 01353 327c1.6 1.83 2.35 3.89 2 5.52-.35 1.81-2.07 3.09-3.79 4.25a56.06 56.06 0 01-10.4 5.76 20 20 0 01-9.31 1.76 26.33 26.33 0 01-11.19-3.65c-.69-.4-1.24-.76-1.25-.76l-.38-.24-1.05 1.5.34.27a16 16 0 001.33.91 28.17 28.17 0 0012 4.07c.61.06 1.19.08 1.76.08a16.42 16.42 0 003.27-.31 33 33 0 005.27-1.58 56.67 56.67 0 0010.92-6c1.82-1.24 4.08-2.79 4.69-5.63.46-2.38-.44-5.03-2.54-7.44z"/><circle class="cls-14" cx="60.64" cy="270.63" r="3.71"/><circle class="cls-14" cx="104.52" cy="264.34" r="3.71"/><path class="cls-15" d="M308.62 186.17c-6.51 7.23-15.68 13.37-26.52 17.51a97 97 0 01-36.54 6c-13.15-.33-27.28-2.29-40-8.71a48.46 48.46 0 01-16.64-13.23 36.8 36.8 0 01-7.66-20.13 45.06 45.06 0 013.55-21.51 50.77 50.77 0 0112.5-17.27 64.86 64.86 0 0117.51-11.24 80.92 80.92 0 0119.31-5.47l4.85-.62c1.61-.2 3.23-.18 4.82-.29 3.18-.21 6.39-.17 9.51-.09a99 99 0 0117.93 2 59.21 59.21 0 0128.12 14.43l1.32-1.37a60.34 60.34 0 00-28.77-16 99.8 99.8 0 00-18.47-2.53c-3.2-.14-6.42-.25-9.76-.1-1.66.08-3.34 0-5 .21l-5.07.56a84 84 0 00-20.37 5.46 68.15 68.15 0 00-18.78 11.81 54.5 54.5 0 00-13.68 18.69 49.25 49.25 0 00-4 23.72 41.15 41.15 0 008.62 22.45 52.32 52.32 0 0018.22 14.36c13.69 6.73 28.37 8.53 41.9 8.65a97.74 97.74 0 0037.68-7c11.11-4.59 20.42-11.26 26.86-19z"/><circle class="cls-14" cx="202.87" cy="160.48" r="5.03"/><circle class="cls-14" cx="286.66" cy="160.48" r="5.03"/><path class="cls-14" d="M243.67 185.11c-11.92 0-24.83-3.92-26.29-12.84a1.31 1.31 0 112.58-.42c1.21 7.32 13.84 10.92 25.14 10.62 11.45-.32 23.42-4.54 24.35-13.26a1.31 1.31 0 012.61.29c-1.18 11-15.22 15.26-26.89 15.58-.49.02-1 .03-1.5.03z"/><path class="cls-15" d="M207.44 204.32c-.14-.2-.85.12-1.6.85-4.32 4.25-8 11.38-10.23 20a85.19 85.19 0 00-2.31 13.94c-.28 2.47-.35 5-.42 7.56 0 1.29-.07 2.59 0 3.89 0 1.63.08 3.28.12 4.93a16.84 16.84 0 00.14 1.82l.1.88c0 .22.13.15.29.1l.43-.12c1.15-.3 2.34-.67 3.52-1.1l1.23-.52c.32-.14.61-.3.92-.44.6-.29 1.2-.59 1.78-.93a47.36 47.36 0 006.43-4.3 61.61 61.61 0 0010-10.09 79.08 79.08 0 0011.38-19.31c.41-.93.54-1.65.32-1.75s-.73.42-1.26 1.28a108.71 108.71 0 01-12.72 17.85 66.54 66.54 0 01-9.9 9.22 47.48 47.48 0 01-6 3.88c-.52.3-1.07.57-1.62.82-.27.13-.54.28-.82.39l-.55.23c0-1 0-1.92-.08-2.87-.06-1.28-.05-2.54 0-3.79 0-2.5.06-5 .26-7.35a98.67 98.67 0 011.72-13.53c1.71-8.38 4.57-15.41 8.08-20 .58-.76.94-1.35.79-1.54zm34.4 15.41c-.24 0-.41.66-.37 1.57a62.41 62.41 0 0019.24 41.2l1.24 1.19 1.25 1a29.65 29.65 0 002.49-2.18l.73-.82c.21-.24.38-.48.57-.72.38-.49.75-1 1.07-1.47a33.67 33.67 0 003.26-6.14 51.38 51.38 0 003.28-12.25 73.14 73.14 0 000-19.89c-.1-.9-.33-1.51-.58-1.49s-.43.64-.46 1.54a108.87 108.87 0 01-1.95 19.32 55.93 55.93 0 01-3.52 11.41 32.34 32.34 0 01-3.06 5.47c-.28.44-.61.85-.93 1.26a7.22 7.22 0 01-.5.6l-.4.46a66.49 66.49 0 01-14.54-20.2 82.13 82.13 0 01-6.13-18.34c-.2-.95-.45-1.53-.69-1.52z"/><path class="cls-14" d="M301 234.25c-1.09-9.07-5.51-19.3-13.16-30.42l2.16-1.48c7.89 11.47 12.47 22.1 13.6 31.59zm-10.18 13.68c-17-8.69-25.43-25.72-25.78-26.44l2.36-1.15c.08.16 8.43 17 24.61 25.25z"/><path class="cls-15" d="M220.28 219.73c-.24 0-.44.6-.46 1.45a104.79 104.79 0 001.24 18.63 95.15 95.15 0 002.44 11.51c.57 2 1.18 4 2 6.05.39 1 .73 2.05 1.21 3.06l1.12 2.49.69 1.41.35.69c.17 0 .42-.26.62-.37.86-.58 1.71-1.24 2.56-1.89.21-.15.45-.33.62-.48l.33-.28.64-.55c.83-.74 1.66-1.48 2.42-2.26a56.07 56.07 0 004.29-4.78 54.65 54.65 0 006.37-10.07 46 46 0 004.68-18.2c0-.86-.08-1.46-.32-1.48s-.53.53-.72 1.35A57.7 57.7 0 01244 243a61.92 61.92 0 01-6.45 9.21c-1.28 1.49-2.64 3-4.12 4.4-.73.72-1.51 1.4-2.28 2.08l-.9.76c0-.05.1.24-.21-.45-.46-.94-.79-1.94-1.18-2.89-.77-1.91-1.4-3.85-2-5.75-1.2-3.81-2.1-7.54-2.88-11.06-1.56-7-2.46-13.29-3.13-18.13-.1-.88-.33-1.45-.57-1.44z"/><path class="cls-15" d="M202.35 251.89a39.23 39.23 0 00.17 13 34.92 34.92 0 0018.65 25.32 53.48 53.48 0 0017.41 5.49 89.31 89.31 0 0018 .83 49.74 49.74 0 0016.58-3.25c10.11-3.88 17.63-10.66 21.51-17.58l-1.35-.82c-4.21 6.2-11.66 12.17-21.23 15.45A49.31 49.31 0 01256.5 293a94.64 94.64 0 01-17.35-.94c-11.72-1.63-22.4-6.73-28.31-14.85s-7.43-17.7-6.93-25.07z"/><path class="cls-15" d="M232.59 292.56a88 88 0 00-5.26 16.27 39 39 0 00-1 10.49 12.66 12.66 0 001.73 6 7.17 7.17 0 006.37 3.09 11.86 11.86 0 006.17-2 11.68 11.68 0 004-4.84 23.71 23.71 0 001.65-10.66 56.75 56.75 0 00-3.66-16.82l-1.5.48a74.75 74.75 0 012 16.39 21.87 21.87 0 01-1.74 9.08 7.93 7.93 0 01-7.05 4.65 3.42 3.42 0 01-3.18-1.43 9.65 9.65 0 01-1.22-4.26 40.56 40.56 0 01.52-9.62 145.91 145.91 0 013.65-16.28zm37.86.07a70.89 70.89 0 00-3.45 15.45 28 28 0 00.52 9.88A8.47 8.47 0 00271 323a7.94 7.94 0 006.38.69 9.54 9.54 0 005.24-3.25 10.94 10.94 0 002.2-5.42 25.6 25.6 0 00-1-9.87 59.17 59.17 0 00-6.35-14.55l-1.4.74a83.42 83.42 0 014.69 14.53 24.53 24.53 0 01.5 8.61c-.44 2.84-2 5-4.84 5.62-2.94.82-4.59-.36-5.46-3.19a27.51 27.51 0 01-.8-8.65 112.46 112.46 0 011.84-15.21z"/><path class="cls-14" d="M196.29 223.47c-1.41-.32-4.7-1.05-9.33-1.76l-1.11-.16a68 68 0 00-16.21-.74 16.41 16.41 0 00-5.65 1.57 7 7 0 00-2.76 2.55 6 6 0 00-.67 3.92 10.81 10.81 0 003.15 6 12.8 12.8 0 005.94 3.12 22.84 22.84 0 005.21.57 40.83 40.83 0 007.53-.82 69.76 69.76 0 0012.23-3.72c1-.45 2-.83 1.68-1.57s-1.21-.45-2.28-.09a73 73 0 01-12.02 2.71c-4.81.61-8.44.48-11.42-.39a9.64 9.64 0 01-4.19-2.44 7.23 7.23 0 01-1.84-3.92 1.6 1.6 0 01.29-1.34c.71-.93 2.59-1.56 5.28-1.78a67.65 67.65 0 0115.23 1.19l.88.14c4.46.79 7.63 1.54 9 1.86s1.46.17 1.63.06l.22-.15.91-3.69c.01-.68-.72-.91-1.7-1.12z"/><path class="cls-15" d="M310.66 79.6c5.1-.25 10.52-.57 17.08-1.43a40.21 40.21 0 005.3-1c1.35-.37 2.86-1.06 3-2.57a6.91 6.91 0 00-.07-2.26c-.11-.63-.2-1.07-.32-1.59-.48-2-1.1-4-1.73-6-.3-1-.62-2.05-.94-3.11l-.1-.4V61c-.05-.16 0-.35.19-.35l2.51-.44 4-.63c1.36-.2 2.78-.39 4.19-.53a1.06 1.06 0 01.46 0 1.19 1.19 0 01.06.43c.28 3 .42 6.23.71 9.61.09.91.13 1.6.3 2.74a8.56 8.56 0 00.57 2.28 1.86 1.86 0 00.65.76l.21.15h.06s.06-.06 0 .09h.11c.15.06.28.18.47.17a10.67 10.67 0 004-.54c.89-.24 1.76-.5 2.64-.78a74.17 74.17 0 005.26-1.89c.89-.36 1.77-.74 2.69-1.21a14.56 14.56 0 001.4-.8c.26-.18.53-.39.88-.68a3.84 3.84 0 001.14-2.32l.12-.84.12-1.52c.05-1 .07-2 .08-3 0-2 0-3.93-.09-5.92s-.19-4-.37-6c-.1-1-.22-2-.37-3.1l-.15-.82-.08-.41a5.65 5.65 0 00-.23-.63c-.31-.86-.68-1.86-1.65-2.17a3.45 3.45 0 00-1.39-.36l-.71-.07h-.45c-.61 0-1.14.09-1.69.16-1.08.13-2.1.32-3.12.51l-3 .53c-.47.08-1 .15-1.36.18s-.16-.37-.22-.59c-.18-.49-.32-1-.47-1.57-.28-1.09-.53-2.19-.73-3.29a46 46 0 01-.78-6.3v-.64h.53c.4 0 .82.06 1.25.1.87.09 1.68.21 2.66.25a4.86 4.86 0 002.12-.33 2.94 2.94 0 001.3-1.26 16.5 16.5 0 00.41-4v-3c0-2-.14-3.84-.28-5.59a46.58 46.58 0 00-.59-4.78c-.12-.7-.3-1.4-.47-2-.13-.34-.25-.67-.36-1a7.34 7.34 0 00-.68-1.1l-1.17-.79c-.39-.13-.71-.21-1.05-.3a13.84 13.84 0 00-1.73-.17 28.51 28.51 0 00-3.1.1 56.09 56.09 0 00-5.73.8c-1.84.34-3.62.76-5.33 1.23-.86.24-1.7.51-2.54.82a9.45 9.45 0 00-1.29.57 3.82 3.82 0 00-1.51 1.29 6.12 6.12 0 00-.5 3.09c0 .82.08 1.58.14 2.31.14 1.44.27 2.79.4 4.06s.22 2.4.24 3.39a9 9 0 01-.06 1.27.34.34 0 01-.14.31l-.12.06-.39.13c-.28.09-.58.17-.88.24-.6.14-1.21.25-1.8.36-1.18.19-2.31.32-3.3.38a10.1 10.1 0 01-3.44-.14.53.53 0 01-.19-.32 5.36 5.36 0 01-.12-.87 19.2 19.2 0 01-.05-2c0-1.36.08-2.62.11-3.74a25.45 25.45 0 000-3.06 5.38 5.38 0 00-.35-1.6 3.11 3.11 0 00-.68-.93 3.67 3.67 0 00-1.22-.2 3.74 3.74 0 00-1.18.08c-.58.09-1.09.23-1.61.34-1 .26-1.95.53-2.83.79-1.76.54-3.31 1.05-4.72 1.54-2.82 1-5.09 1.82-7.3 2.67l.55 1.48c2.21-.75 4.51-1.51 7.33-2.4 1.41-.44 3-.91 4.69-1.4.87-.24 1.79-.48 2.75-.71.48-.1 1-.22 1.46-.28a1.51 1.51 0 01.76 0c.16.14.18.37.19.79a25.26 25.26 0 01-.05 2.81c-.05 1.13-.12 2.41-.19 3.78a21.12 21.12 0 000 2.24A8.48 8.48 0 00319 28a3.52 3.52 0 00.92 1.58c1.29.78 3 .85 5.14.76a32.67 32.67 0 003.56-.34c.65-.1 1.31-.21 2-.37.34-.07.69-.16 1.05-.26.18-.05.35-.11.57-.19a5.7 5.7 0 00.8-.35c.18-.08.27-.25.39-.39a2.22 2.22 0 00.37-.44 5 5 0 00.42-1.13 11.59 11.59 0 00.15-1.8c0-1.15-.06-2.35-.15-3.63s-.21-2.61-.32-4c0-.7-.08-1.42-.08-2.12a5.13 5.13 0 01.12-1.46c.06-.07 0 0 .31-.19a9.34 9.34 0 011-.4c.72-.25 1.49-.48 2.29-.69 1.61-.42 3.31-.79 5.07-1.09s3.59-.56 5.42-.68a24.65 24.65 0 012.71-.05 5 5 0 011.63.26l.05.15.2.57c.11.49.25 1 .34 1.66a43.48 43.48 0 01.48 4.44c.11 1.67.18 3.49.2 5.38v2.88c0 .97-.12 2.37-.1 2 0 0-.05 0 0 0-.58 0-1.44-.15-2.33-.25-.46-.06-.94-.11-1.48-.14a8 8 0 00-.88 0 6.5 6.5 0 00-1.39.22 2.78 2.78 0 00-1.95 1.84c-.09.47-.23 1-.28 1.44v.95a47.17 47.17 0 00.78 6.91c.2 1.18.46 2.37.75 3.58.17.61.32 1.22.54 1.86.11.34.2.56.42 1.08a5.35 5.35 0 001 1.39c.64.81 1.79.76 2.74.76.66 0 1.17-.13 1.71-.21l3.07-.52c1-.18 2-.35 2.92-.47a13.4 13.4 0 011.34-.11h.36l.19 1.06c.14.93.24 1.89.33 2.85.16 1.94.26 3.88.34 5.81s.09 3.85.07 5.73c0 .94 0 1.87-.08 2.77l-.1 1.32-.1.7-.25.2c-.25.2-.63.39-1 .58-.74.38-1.56.73-2.37 1.06-1.63.67-3.3 1.26-5 1.79-1.5.5-3.93 1.13-3.43 1-.1 0-.08-.12-.11-.18-.08-.54-.19-1.54-.25-2.3-.3-3.29-.46-6.49-.8-9.67-.14-1.28-.28-2.93-1.26-3.49-.13-.31-.45-.33-.74-.39a3.34 3.34 0 00-.92-.09 12.74 12.74 0 00-1.9.09c-1.52.18-3 .4-4.36.62l-4.07.73-2 .39a15 15 0 00-2.92.88A2.26 2.26 0 00329 60a8.69 8.69 0 00.23 1.4l.32 1.24c.33 1.09.66 2.16 1 3.2.65 2 1.27 4 1.73 5.76.09.42.18.83.28 1.24a4.29 4.29 0 01.07.5c.06.41-.4.49-.67.61a45.06 45.06 0 01-4.71 1c-6.35 1-11.76 1.53-16.77 2z"/><path class="cls-14" d="M379.56 250.28a37.92 37.92 0 00-3.08-12.53 26.28 26.28 0 00-7-9.53 28.43 28.43 0 00-9.14-5.11 46.15 46.15 0 00-16-2.06c-1.5 0-2.89.13-4.12.24l-1.8.14-2.06.27-2.2-11.21c-.51-2.6-1-4.75-1-4.75l-.2-.9-3.38.54.1.93s.24 2.19.58 4.81l1.3 9.93 1 5.92 6.35-.8c.56 0 1.14-.09 1.75-.15 1.19-.12 2.42-.24 3.78-.25a41.64 41.64 0 0114.39 1.67 23.84 23.84 0 017.71 4.21 22 22 0 015.92 7.9 33.64 33.64 0 012.82 11 18.33 18.33 0 01-2.67 11.51c-2.17 3.2-5.67 6.08-10.42 8.54a81 81 0 01-14.39 5.57c-4.71 1.42-10.05 2.73-16.31 4a89 89 0 01-17 2A34.49 34.49 0 01305 281a17.14 17.14 0 01-7.64-4.36c-4.87-4.78-6.42-12.11-6.86-17.4a22.78 22.78 0 017-18.13 39.1 39.1 0 018.55-6.27l.44-.22c1.46-.76 3-1.54 4.54-2.18.83-.38 1.67-.74 2.56-1.06l3.73-1.42-3.93-26.51c-1.7-11.24-4.33-28.41-7.26-46.41-1.17-7.17-1.34-7.15-2.39-7s-1.22.18-.2 7.39c2.56 18.06 5.16 35.24 6.88 46.46l3.76 24.22-1.58.58c-.93.32-1.83.71-2.7 1.09-1.69.68-3.31 1.51-4.88 2.31l-.35.18a42.12 42.12 0 00-9.28 6.69 25.86 25.86 0 00-8.05 20.47c.66 8.52 3.24 15.11 7.67 19.57a20.38 20.38 0 009 5.29 35.5 35.5 0 009.8 1.43h1.23a93.84 93.84 0 0017.14-1.87c6.51-1.27 11.82-2.52 16.7-3.93a85.8 85.8 0 0015.13-5.71c5.45-2.78 9.38-6 12-9.79a22.4 22.4 0 003.55-14.14zm-57.29-115.86l-12.41-77.61L303.39 18l-2.18-12.13a27 27 0 00-.93-3.75l-.1-.19a4 4 0 00-1.67-1.36 3.2 3.2 0 00-1.15-.39h-.24a6.52 6.52 0 00-.82-.1h-.3a23.56 23.56 0 00-4.48.27 38.51 38.51 0 00-5.35 1.19 28.16 28.16 0 00-3.1 1.13l-.27.13a10 10 0 00-1.55.87 6.21 6.21 0 00-.92.83l-.17.2a3.74 3.74 0 00-.52 1.45 10.13 10.13 0 000 1.31L281.3 22c.74 5.21 1.64 11.08 2.82 18.47 3.95 24.6 9.54 56.93 16.18 93.49 1 5.45 1.15 6.14 1.68 6.14h.26c.76-.13.8-.14-.2-6.4-4.91-30.7-10.46-65.83-14.47-93.7-1.06-7.43-1.86-13.29-2.51-18.45l-.94-8-.33-3.66-.13-2.52v-.44a2.67 2.67 0 01.53-.28c.18-.09.39-.18.57-.28a22.38 22.38 0 012.58-.87 35.2 35.2 0 014.78-1 19.07 19.07 0 013.57-.15h.24a2.36 2.36 0 01.29 0h.15l8.83 53.07 11.66 74.59.51 3c.26 1.42.36 1.88 1 1.79l3.45-.54c.7.07.63-.41.45-1.84z"/><path class="cls-14" transform="rotate(-9.28 325.024 167.084)" d="M322.46 147.16h5.25v39.89h-5.25z"/><path class="cls-15" d="M334.13 259a8.86 8.86 0 00-5.69 3.59 16.45 16.45 0 00-1.87 3.64 16.21 16.21 0 01-.81 1.79.92.92 0 01-.79.55c-3.62.31-8.31.67-12.47-.44a9.29 9.29 0 01-5.14-3.19 11.91 11.91 0 01-2.08-6.3 10.33 10.33 0 011.84-6.55A18.46 18.46 0 01313 247c4.93-2.82 10.9-4.67 17.06-6.13s12.48-2.41 18.16-1.92 10.32 2.94 11.78 7.57a10.75 10.75 0 01.5 6.6 10 10 0 01-3.68 5 29.84 29.84 0 01-5.67 3.41c-1 .45-2 .89-2.94 1.28-.48.2-.95.4-1.44.57s-1.12.41-1.19.46c-.73.3-1-.24-2.06-1.39a13.15 13.15 0 00-3-2.66 7.92 7.92 0 00-6.45-.78l.54 2.32a5.49 5.49 0 014.35.85 11 11 0 012.18 2.26l.65.81.39.46a5.59 5.59 0 00.6.59 4.07 4.07 0 001.51.87 1.83 1.83 0 00.9.09 4.23 4.23 0 00.93-.12l1.73-.5c.52-.14 1-.31 1.56-.48 1-.32 2.13-.71 3.22-1.13a31.92 31.92 0 006.73-3.5 14.36 14.36 0 005.55-7 15.28 15.28 0 00-.22-9.62 15 15 0 00-6.17-8.17 22 22 0 00-9.78-3.19c-6.74-.67-13.39.41-20 1.88S316 239 310.26 242.34a23.22 23.22 0 00-7.48 6.84 15.29 15.29 0 00-2.47 9.86 16.3 16.3 0 003.42 8.85 13.62 13.62 0 007.77 4.43 28.58 28.58 0 007.55.43 64 64 0 006.64-.87 4 4 0 002.91-2.28 17.51 17.51 0 00.89-2.25 14.94 14.94 0 011.34-3.13 6.39 6.39 0 013.84-2.88zm-17.58-56.46c.93 4.25 6.29 7.89 12.22 6.5a9.25 9.25 0 006.59-6.53c.94-3.18.52-6.35-.07-9.47a15.34 15.34 0 00-1.77-4.62 6.78 6.78 0 00-4.5-3.34 7.51 7.51 0 00-5.09 1.18 14.82 14.82 0 00-3.31 2.87 20.2 20.2 0 00-3.81 6.68 10.48 10.48 0 00-.26 6.73l1.51-.45c-.49-3.22 1.65-7.52 4.86-10.82 1.57-1.61 3.88-3.05 5.44-2.68 1.48.22 2.77 2.65 3.31 5.3s.87 5.4.26 7.65a6.07 6.07 0 01-4 4.48 8.71 8.71 0 01-6-.32 7.11 7.11 0 01-3.84-3.61zm-5.46-64.35c2.21-.24 4.66-.54 7.22-.61s5.43.21 6.14 2.1a5.44 5.44 0 01.33 3.33 4.18 4.18 0 01-2.44 2.26c-2.62 1.21-6 1.83-9.42 2.5s-6.81 1.3-9.69 1.13a4.17 4.17 0 01-3.1-1.2 5.43 5.43 0 01-.91-3.22c0-2 2.6-3.34 4.94-4.21s4.79-1.5 6.93-2.08l-.29-1.55a55.82 55.82 0 00-7.39 1.28 15.72 15.72 0 00-4.18 1.67 7.25 7.25 0 00-2 1.77 6.33 6.33 0 00-1.11 2.77 8.37 8.37 0 001.34 5.62 6.42 6.42 0 002.59 2 10.21 10.21 0 002.9.7c3.76.29 7.17-.42 10.69-1s6.94-1.32 10.32-3a10.24 10.24 0 002.45-1.71 6.38 6.38 0 001.66-2.83 8.29 8.29 0 00-.81-5.71 6.27 6.27 0 00-2.05-2.17 7.36 7.36 0 00-2.54-.91 15.77 15.77 0 00-4.5 0 54.22 54.22 0 00-7.34 1.52zm-127.87 3.6a15.89 15.89 0 01-9.47-3.71 24.57 24.57 0 01-6.74-9.87 25.94 25.94 0 01-1.46-13.1 24.45 24.45 0 015.91-12.66c3.26-3.57 7.52-6.22 11.68-6.69s8.39 1.24 11.86 3.7a46.1 46.1 0 018.95 8.79 36.22 36.22 0 015.74 9.23l2.43-.72a34.23 34.23 0 00-5-10.82A45 45 0 00198 95.45a25.92 25.92 0 00-6.86-4.06 18.71 18.71 0 00-8.61-1.31 21.59 21.59 0 00-8.53 2.75 29.16 29.16 0 00-7 5.65 28.84 28.84 0 00-7.13 15.88 29.58 29.58 0 002.48 15.81 27 27 0 009 11.08 18 18 0 0011.87 3.08z"/><path class="cls-15" d="M206.89 119.32c-1.73-3.68-4-8.19-8.77-11.71a13 13 0 00-9.07-2.63 15.34 15.34 0 00-8.93 4.83 18 18 0 00-3.8 18.08 17.62 17.62 0 004.31 6.91 11.55 11.55 0 006.19 3.3l.38-1.54c-3.48-1.1-6.59-4.87-7.88-9.59a15.56 15.56 0 013.5-14.61 12.5 12.5 0 016.69-3.84 10.08 10.08 0 016.85 1.7 25.57 25.57 0 015.34 4.7c1.57 1.7 2.57 3.53 3.76 5.07z"/><path class="cls-14" d="M293 81.61l-.07-.29-.24-.15c-.11-.07-.37-.22-1.19 0-2.42.49-7.24 3.58-11.75 8.51a51.82 51.82 0 00-7 9.26c-2 3.58-4.12 7.86-4 12.56 0 .38.09 1.38.87 1.39.76 0 .85-1 .88-1.32.55-4.17 2.92-7.74 5.09-10.77a58 58 0 017.22-8c4.75-4.53 8.88-6.61 9.89-6.73.76-.19 1-.64.89-1zm2 12.91l-.1-.1c-.06-.06-.17-.15-.7-.12a16 16 0 00-3.84.65 21.19 21.19 0 00-6.1 3.07 29.77 29.77 0 00-6.21 6.13 22.24 22.24 0 00-4.35 8.75c-.06.39-.13.88.25 1h.05c.33 0 .45-.45.53-.78a23 23 0 014.81-7.87 30.45 30.45 0 016.13-5.39 16.52 16.52 0 018.74-3h.05c.25 0 .72 0 .72-.41zm62.46 480.24c0-.53-3.24-53.19-40.6-72.8l-7.33-3.85 8.16 1.4c.41.07 40.67 7.59 56.41 65.45l-2.53.69c-8-29.37-22.33-45.09-33-53.1a66.07 66.07 0 00-11-6.75c29.75 23.35 32.47 68.33 32.49 68.82z"/><path class="cls-14" d="M366.57 550.65c-6.06-41.28-19.27-70.23-38.19-83.7l-5-3.58 6 1.23c1.38.28 34.06 7.61 54.12 72.45l-2.51.78c-10.22-33.06-23.87-50.52-33.53-59.35a60.11 60.11 0 00-10.67-7.89c16 15.5 26.86 42.24 32.36 79.68z"/><path class="cls-14" d="M384.4 566.64c-10.12-53.64 4.13-83.64 13.52-96.82 2.5-3.5 5.93-7.36 7-7.53l2.8-.4-1.5 2.4c-11.74 18.77-15.42 68.6-3.18 88.48l-2.23 1.38c-11-17.87-9.6-59.09-1.08-82.23-8.69 12.5-22.64 42-12.79 94.23z"/><path class="cls-14" d="M407.24 544.92c-1.77-12.8 7.07-47.26 22.11-66.52-8.76 6.48-23.33 21.42-32.9 53.1l-2.51-.75c14.82-49.06 40.87-58.84 42-59.24l6.35-2.26-5 4.48c-18.14 16.11-29.33 56.85-27.39 70.83z"/><path class="cls-14" d="M425.11 570.18l-2.22-1.4c12.19-19.35 25.44-33 39.5-40.61-7.69 2.24-19.18 7.34-32.43 19l-4.68 4.11 2.63-5.65c6.08-13.09 13.33-23.5 21.62-31.09-6.72 3.88-16.3 11.25-26.08 25l-4 5.58 1.65-6.66a78.42 78.42 0 0130.77-45c-9.93 4.09-26.68 14.23-41.59 38.81l-2.28-1.42c23.61-38.9 51.14-42.57 52.3-42.7l6.46-.77-5.66 3.21c-16.95 9.6-29.34 24.2-35.45 41.61 16.91-20.88 31.93-24.15 32.61-24.29l6.85-1.39-5.88 3.78c-10.11 6.5-18.93 16.87-26.26 30.89 22.51-17.86 38.87-17.4 39.58-17.38l7 .29-6.55 2.26c-17.16 5.83-33.26 20.57-47.89 43.82z"/><path class="cls-15" d="M117.16 266.15c.43 6.81-.91 14.64-5.68 21.07s-12.61 10.85-21.63 12.4-19.17 1.25-28.29-2.57a33 33 0 01-12-8.41 24.82 24.82 0 01-6-13.37 25.74 25.74 0 012.68-14.46 33.05 33.05 0 019.66-11.06c7.94-5.88 17.68-8.51 26.86-9.07s18 1.39 24.23 6.39 9.28 12.32 10.24 19.08l2.36-.25a35.57 35.57 0 00-2.69-11.26 28.81 28.81 0 00-7.54-10.41A32 32 0 0097 237.69 47.77 47.77 0 0082.5 236c-9.91.31-20.67 2.88-29.83 9.45a38.05 38.05 0 00-11.4 12.84A31 31 0 0038 275.92a30 30 0 007.42 16.36A38 38 0 0059.53 302c10.47 4.17 21.47 4.13 31.22 2.24s18.81-7.29 23.77-14.9 6-16.28 5-23.44z"/><path class="cls-14" d="M80.42 290.92c-13.2 0-26.51-4-29.5-11.56a1.31 1.31 0 112.44-1c3 7.63 22.32 12.1 38.23 8.83 7-1.43 18.6-5.48 18.31-16.56a1.31 1.31 0 011.27-1.34 1.31 1.31 0 011.31 1.27c.25 9.49-7.18 16.49-20.4 19.2a59.38 59.38 0 01-11.66 1.16z"/><path class="cls-15" d="M51.75 250.69c.33-.16.44-.64.22-1.15a13.76 13.76 0 00-3.12-4.25 15 15 0 00-5.62-3.59 10.61 10.61 0 00-8.38.64 15.59 15.59 0 00-6.15 6.27c-3 5.22-2.65 11.92.57 16a11 11 0 005.74 4 7.7 7.7 0 005.57-.58c.49-.24.71-.68.58-1a1 1 0 00-1-.5 6.9 6.9 0 01-4-.91 9 9 0 01-3.16-3.44 11.61 11.61 0 01.56-10.87 12.33 12.33 0 013.87-4.31 6.45 6.45 0 014.66-.92 15.4 15.4 0 014.81 1.81 19.78 19.78 0 013.77 2.58 1 1 0 001.08.22zm42.4-11.55a.85.85 0 001-.2c1.52-1.57 3.6-3.45 6-3.93a7.94 7.94 0 013.82.29 15.62 15.62 0 014.18 2.1 13.07 13.07 0 015.16 7.06 11 11 0 01-.43 7.08.92.92 0 00.16 1 .79.79 0 001 0 10.16 10.16 0 003.67-8.72 14.62 14.62 0 00-6.37-11 16.51 16.51 0 00-6.19-2.71 11 11 0 00-6.53.63 10.82 10.82 0 00-5.88 7.41.8.8 0 00.41.99z"/><path class="cls-14" d="M97.18 361.54a49.17 49.17 0 01-12.8.29 48.61 48.61 0 01-12-2.55 40.23 40.23 0 01-10.15-5.17 35.3 35.3 0 01-7.4-7.11 29.68 29.68 0 01-5.57-23.72c.22-1 .4-1.72-.3-1.88l-3.64-1-.24.15c-.13.08-.41.24-.72 1.61a22.39 22.39 0 00-.54 4.15 51.66 51.66 0 00.23 6.37 33.86 33.86 0 007.33 17.06 38.69 38.69 0 008.6 7.64 43.05 43.05 0 0011.33 5.13 49.22 49.22 0 0012.89 2h2a49.36 49.36 0 0011.3-1.28c1.31-.33 2.11-.58 1.95-1.32s-1.13-.57-2.27-.37zm15.29-4.46l-1.64-2.08a26.94 26.94 0 005.81-6.37l2.19 1.43a29.7 29.7 0 01-6.36 7.02zm10.71-16.91l-2.53-.67a41.76 41.76 0 001.35-10.65c0-9.13-1.89-15.59-6.12-21l2.06-1.62c4.62 5.85 6.68 12.81 6.68 22.57a44.27 44.27 0 01-1.44 11.37z"/><path class="cls-15" d="M85.92 354.73c.06.23.55.35 1.22.33a14.92 14.92 0 016.29 1 5.31 5.31 0 012.43 2.1 29.74 29.74 0 011.4 3.75c1 2.8 1.95 6 4.61 9a7.8 7.8 0 005.84 2.51 11.57 11.57 0 005.87-2 8.25 8.25 0 003.75-5.37 10.68 10.68 0 00-.82-6 17.87 17.87 0 00-6.9-7.62 19.65 19.65 0 00-15.35-2.34c-.69.17-1.13.45-1.07.68s.56.38 1.24.36a20.61 20.61 0 0113.51 3.78 16 16 0 015.32 6.5 7.36 7.36 0 01.47 3.93 4.66 4.66 0 01-2.16 3 8.55 8.55 0 01-4 1.44 4.26 4.26 0 01-3.25-1.34c-1.92-1.93-3.15-4.88-4.31-7.56a24 24 0 00-2-4.15 7.46 7.46 0 00-3.81-2.64A14.13 14.13 0 0087 354c-.69.18-1.13.49-1.08.73zm19.47-8.51c.1.22.57.25 1.19.12a13.47 13.47 0 015.94-.09 4.94 4.94 0 012.55 1.52A30.85 30.85 0 01117 351c1.41 2.41 2.82 5.24 5.79 7.54a7.34 7.34 0 005.9 1.35 10.9 10.9 0 005.11-2.89 7.87 7.87 0 002.52-5.69 10.24 10.24 0 00-1.81-5.45 16.75 16.75 0 00-7.7-5.9 18.21 18.21 0 00-14.6.53c-.6.28-.95.63-.85.85s.59.27 1.21.14a19.08 19.08 0 0113 1.22 14.68 14.68 0 015.94 5.09 6.9 6.9 0 011.1 3.49 4.34 4.34 0 01-1.43 3.05 7.79 7.79 0 01-3.31 2 3.84 3.84 0 01-3.13-.66c-2.07-1.43-3.72-3.93-5.25-6.21a24.85 24.85 0 00-2.6-3.47 7 7 0 00-4-1.81 12.92 12.92 0 00-6.67 1.2c-.58.24-.93.62-.83.84zm-49.84-21.5c-.22-.11-.53 0-.75.39a18.89 18.89 0 00-3.08 8.38 8.19 8.19 0 001.74 6.18c1.74 2 4.35 2.51 6.59 2.59a11.16 11.16 0 003.55-.57 4.74 4.74 0 001.73-.91 4.55 4.55 0 001.38-1.48 8 8 0 00.58-6.41 21.8 21.8 0 00-4.12-7.89c-.26-.31-.58-.44-.79-.31s-.25.46-.13.83a40.9 40.9 0 012.1 7.9c.19 1.48.1 3.1-.57 3.89s-2 1.17-3.69 1.2a6 6 0 01-4-1.27 5.5 5.5 0 01-1.34-3.71 31.48 31.48 0 011-8c.1-.38.02-.7-.2-.81zm59.78-22a.6.6 0 00.31.61c2.53 1.31 6.66 3.22 9.15 6.71a6 6 0 011.09 2.48 2 2 0 01-.45 1.78c-.92 1-2.79 1.53-4.15 1.84a.6.6 0 00-.45.51.51.51 0 00.39.54 8.12 8.12 0 002.65.43 4.84 4.84 0 001.68-.21 8.57 8.57 0 00.91-.28c.3-.17.61-.36.92-.56a5 5 0 002-4.25 8 8 0 00-1.54-4.37 13.32 13.32 0 00-6.32-4.76 13.59 13.59 0 00-5.7-.89.52.52 0 00-.49.42z"/><path class="cls-14" d="M70.54 328.06l-.61-.55c-6.46-5.82-7.76-10.46-7.82-13.75-8.7 10.18-18.21 9.38-18.63 9.34l-1.14-.1v-1.15c-.65-19.79 21.3-22.34 21.52-22.37l.28 2.61c-.79.08-18.82 2.23-19.19 18.41 2.73-.14 9.68-1.34 16.07-9.49a2.14 2.14 0 012.47-.68 2.08 2.08 0 011.32 2.13c-.23 2.88.28 6.87 6.23 12.48 1.48-1 4.86-4.14 5.52-12.24a1.61 1.61 0 011.58-1.48 1.66 1.66 0 011.64 1.4c.49 3.88 2.12 10.47 7.48 12.42 1.14-1.5 3.79-5.88 3.16-13.46a1.9 1.9 0 011.27-1.95 1.82 1.82 0 012.14.74 16 16 0 009.94 7 15 15 0 00.66-8.57 2.16 2.16 0 011-2.36 2.13 2.13 0 012.52.14 22.27 22.27 0 012.07 2c1.38 1.42 2.79 2.9 4.34 3.24a9.46 9.46 0 00.94-7.39c-1.18-3.94-5.2-6-11.62-6h-.06v-2.62h.07c10.38 0 13.35 5.08 14.19 8.1 1.24 4.48-.58 9.35-2.41 10.45l-.35.21h-.41c-2.76-.17-4.78-2.27-6.57-4.12-.29-.3-.57-.6-.85-.87a17.59 17.59 0 01-1.51 9.95l-.44.84-.93-.15a18.48 18.48 0 01-11.21-6.34c0 9-4.3 13.47-4.5 13.67l-.53.53-.73-.19c-5.15-1.34-7.76-5.65-9.08-9.73-2.08 7.62-6.73 9.59-7 9.68zM91.6 311.8z"/><circle class="cls-14" cx="447.7" cy="243.34" r="3.71"/><circle class="cls-14" cx="403.82" cy="237.05" r="3.71"/><path class="cls-15" d="M388.82 238.61c-1 7.16-.06 15.88 5 23.44S407.76 275 417.59 277s20.74 1.93 31.22-2.23A38 38 0 00463 265a30 30 0 007.43-16.36 31 31 0 00-3.36-17.64 37.92 37.92 0 00-11.39-12.84c-9.17-6.57-19.93-9.14-29.83-9.45a47.8 47.8 0 00-14.55 1.71 32.18 32.18 0 00-12.25 6.54 28.81 28.81 0 00-7.54 10.41 35.57 35.57 0 00-2.69 11.26l2.36.25c1-6.76 4-14.15 10.24-19.08s15.06-6.93 24.23-6.39 18.92 3.19 26.86 9.07a33.05 33.05 0 019.66 11.06 25.74 25.74 0 012.68 14.46 24.82 24.82 0 01-6 13.37 33.06 33.06 0 01-12 8.41c-9.13 3.82-19.27 4.05-28.29 2.57s-17-5.94-21.64-12.4-6.11-14.26-5.68-21.07z"/><path class="cls-14" d="M425.36 262.66c-1.15 0-2.29-.06-3.41-.17-8.43-.86-18-5.2-19.42-14.79a1.31 1.31 0 012.59-.39c1.55 10.2 13.48 12.2 17.1 12.57 8.26.82 16.19-1.64 17.63-5.52a1.31 1.31 0 112.45.9c-1.85 5.04-9.55 7.4-16.94 7.4z"/><path class="cls-15" d="M457.63 224a18.06 18.06 0 018.55-5.08 6.29 6.29 0 014.71.8 12 12 0 013.87 4.33c2.07 3.65 2.11 8 .41 10.9a8.14 8.14 0 01-3.36 3.33 6.51 6.51 0 01-4.2.43l-.84 2.22a8.63 8.63 0 006.19.87 11.13 11.13 0 006.11-4.21c3.33-4.3 3.55-11 .57-16.24a15.81 15.81 0 00-6.15-6.31 10.76 10.76 0 00-8.57-.66 15.94 15.94 0 00-5.91 3.72 13.45 13.45 0 00-3.47 4.77zm-42.37-12.68a14.43 14.43 0 00-1.94-4.14 10.87 10.87 0 00-4.45-3.74 11.13 11.13 0 00-6.69-.61 16.87 16.87 0 00-6.2 2.74 15 15 0 00-6.5 11.09 10.82 10.82 0 004 9.42l1.68-1.68a9.74 9.74 0 01-1-7.13 12.39 12.39 0 015-7.16 14.65 14.65 0 014.2-2.07 7.46 7.46 0 013.84-.18c2.38.57 4.41 2.65 5.88 4.52z"/><path class="cls-14" d="M393.43 279.52a21.77 21.77 0 00-4.76 7.17 29 29 0 00-1.78 8.56 51 51 0 000 8.92 43.6 43.6 0 001.94 8.68 32.21 32.21 0 009.25 14.61 26.8 26.8 0 0015.75 6.36 56 56 0 0017.62-1.65 44.24 44.24 0 0015.9-7.31 34 34 0 006.21-5.95 29.3 29.3 0 004.15-7.39 26.27 26.27 0 001.69-8.26 31.14 31.14 0 000-4.32 18 18 0 00-.73-4l5-1.42a22.66 22.66 0 01.85 5.1 35.3 35.3 0 01-.07 4.93 31.13 31.13 0 01-2.16 9.74 34.15 34.15 0 01-5 8.61 38.74 38.74 0 01-7.21 6.7 48.65 48.65 0 01-17.61 7.8 60.1 60.1 0 01-19.08 1.46 30.63 30.63 0 01-17.83-7.57 35.75 35.75 0 01-10.08-16.38 47.12 47.12 0 01-2-9.38 54.38 54.38 0 01.11-9.56 32 32 0 012.14-9.44 24.7 24.7 0 015.53-8.07z"/><path class="cls-15" d="M452.79 297.43c-.22.11-.3.43-.21.81a31 31 0 011.05 8 5.57 5.57 0 01-1.33 3.76 6.06 6.06 0 01-4 1.27c-1.75 0-3.13-.4-3.7-1.2s-.76-2.41-.57-3.89a40.9 40.9 0 012.1-7.9c.13-.37.08-.7-.13-.83s-.53 0-.78.31a21.65 21.65 0 00-4.13 7.86 8 8 0 00.58 6.41 4.66 4.66 0 001.38 1.48 4.74 4.74 0 001.73.91 11.16 11.16 0 003.55.57c2.24-.08 4.85-.62 6.59-2.59a8.11 8.11 0 001.74-6.18 18.89 18.89 0 00-3.08-8.38c-.26-.36-.58-.52-.79-.41zm-58.23-22.11a.52.52 0 00-.52-.42 16.1 16.1 0 00-12.42 5.21 10.26 10.26 0 00-2.28 3.87 5.12 5.12 0 00.67 4.77 4.88 4.88 0 003.61 1.59 7.62 7.62 0 002.74-.4.51.51 0 00.4-.53.65.65 0 00-.46-.52c-1.36-.26-3.4-.88-3.86-1.89-.41-.8.41-2.75 1.95-4.42 3.12-3.4 7.23-5.31 9.85-6.65a.59.59 0 00.32-.61z"/><path class="cls-14" d="M418.86 298.52l-.4-.37c-.14-.13-3.33-3.21-2.89-12.58a18.2 18.2 0 01-11.57 6.94l-.7.12-.3-.63a17.2 17.2 0 01-1.23-11 3.57 3.57 0 01-1 1.13c-2.51 2.12-5.94 5-8.91 5.21l-.89.06-.14-.89c-.05-.32-1.15-8 3.42-12.86 2.79-3 7-4.25 12.56-3.81l-.16 2c-4.91-.41-8.6.67-10.95 3.19-3 3.24-3.13 8.12-3 10.21 2.2-.66 4.93-3 6.82-4.57.47-.4.9-.77 1.27-1.07a1.84 1.84 0 012.14-.12 1.86 1.86 0 01.82 2 15.3 15.3 0 00.77 9 16.24 16.24 0 0010.41-7.19 1.49 1.49 0 011.77-.61 1.57 1.57 0 011 1.61c-.62 7.52 1.11 10.95 1.86 12.06A13.7 13.7 0 00429 285.4a1.29 1.29 0 012.57.07c.71 8.8 5.13 10.6 6.51 10.94 6.34-5.81 6.13-8.33 5.89-11.23a1.75 1.75 0 011.11-1.8 1.79 1.79 0 012.09.57c6.61 8.42 13.82 9.53 16.48 9.63-2.78-15.06-19.25-19.05-19.42-19.1l.44-1.91c.19 0 18.76 4.52 21.11 21.84l.13 1-1 .1c-.42.06-10.19.87-18.93-9.92.23 3.65-.37 6.68-6.93 12.6l-.32.29h-.43c-.29 0-6.28-.71-8.2-9.51a15.79 15.79 0 01-10.64 9.48z"/><path class="cls-15" d="M397.39 329.63a41.81 41.81 0 00-4.32 8.74 19.61 19.61 0 00-1.17 6.08 8.52 8.52 0 00.78 3.76 5.78 5.78 0 003.46 2.78 9.24 9.24 0 003.87.25 8.61 8.61 0 003.54-1.26 9.16 9.16 0 003.78-5.6 21.8 21.8 0 00-.18-10l-1.57.17a28.68 28.68 0 01-1.25 8.89 6.34 6.34 0 01-2.65 3.49 6.25 6.25 0 01-4.43.5 2.12 2.12 0 01-1.32-1 5.48 5.48 0 01-.47-2.11 20.49 20.49 0 01.62-5.12c.81-3.38 1.88-6.41 2.73-8.92zm31.61 5.22a37 37 0 00-2.33 11.25 14.58 14.58 0 001.4 7.33 7.05 7.05 0 003.43 3.15 8.6 8.6 0 004.57.47 6.87 6.87 0 004.31-2.26 7.69 7.69 0 001.63-4.24 18.93 18.93 0 00-1-7.2 40.37 40.37 0 00-2.29-5.74c-.42-.86-.85-1.67-1.28-2.44l-.65-1.11-.32-.53-.16-.26-.08-.13-.05-.06a.81.81 0 01.07.39.79.79 0 01-.08.26l-.07.09c-.28-.22.56.55-.63-.49l-.59-.52a.94.94 0 00-.09.95v.07l.05.14.1.27.21.57.42 1.17.86 2.51a57.59 57.59 0 011.54 5.61c.85 3.8 1.23 9.1-2.48 9.23-2 .29-3.47-.24-4.35-1.71a12.74 12.74 0 01-1.35-5.59 56 56 0 01.72-10.79z"/></g></g></g></svg>