<svg id="Layer_1" data-name="Layer 1" xmlns="http://www.w3.org/2000/svg" viewBox="0 0 1200 1200"><defs><style>.cls-3{fill:#876458}.cls-4{fill:#f9d7c6}.cls-5{fill:#b57538}.cls-6{fill:#c62f07}.cls-8{fill:#4186b1}.cls-9{fill:#c1917a}.cls-10{fill:#7b5f48}.cls-11,.cls-12{fill:#1c1c1c}.cls-11{fill-rule:evenodd}</style></defs><path d="M895.7 426.51c13.39 107.14-23 213.21-89.93 309.07C739 831.36 641.83 917 557 907c-84.71-9.94-157.15-115.41-202.46-208.33s-63.42-173.44-47-247.28 67.63-141.2 148.08-198.28c80.37-56.92 190.05-103.72 276.56-72.86C818.8 211.18 882.16 319.3 895.7 426.51z" fill="#eae7f4"/><path d="M814.69 516.69l-.65-.17a.13.13 0 00-.08 0 2.91 2.91 0 010-.51.22.22 0 00.14 0c.22 0 .45-.25.76-.59a47.78 47.78 0 0112.27-9.53 46.85 46.85 0 0127.16-5.6c.81.05 1.26.05 1.32-.34s-.42-.48-1.21-.59a45.5 45.5 0 00-28.4 4.47 48 48 0 00-8.27 5.3 36.63 36.63 0 012.75-2.84 46.24 46.24 0 0112.52-8.35 37.27 37.27 0 0116.08-3.5 33.64 33.64 0 018.61 1.34 39.36 39.36 0 014.2 1.55l2 1c.37.17.67.37 1 .56l.36.23c0 .08-.22.39-.81 1.32-.84 1.29-1.74 2.49-2.63 3.7a44.55 44.55 0 01-6.2 6.3 37.21 37.21 0 01-14.6 7.63 38.48 38.48 0 01-7.62 1.26c-1.24.08-2.5 0-3.73 0a21.44 21.44 0 01-3.59-.23l-3.47-.5-1.69-.25-1.62-.42-3.11-.84c-.49-.09-.99-.26-1.49-.4zm-61.19 1.07a40.65 40.65 0 014.43-.62 33 33 0 018.69.56 37.82 37.82 0 0115 6.84 46.17 46.17 0 0110.51 10.85 31.15 31.15 0 013.28 5.88c.09.26.2.51.28.73a81.88 81.88 0 00-8.49-8.6c-5.69-5-14.71-11.24-25.31-12.78-.76-.12-1.2-.2-1.32.22s.37.53 1.15.73c8 1.74 16.09 6.31 23.91 13.57a86 86 0 0110.09 11.18l-5.55.33c-2.19.09-4.48-.19-6.87-.25-4.65-.7-9.72-1.62-14.37-4.2a37.8 37.8 0 01-12.65-10.6 41.41 41.41 0 01-4.7-7.48 43.33 43.33 0 01-1.8-4.15l-.36-1.06.81-.31c.34-.11.73-.2 1.09-.28.68-.2 1.45-.42 2.18-.56z" fill="#6ab81a"/><path class="cls-3" d="M811.83 508.7l1.73-7.51 3.48-15 6.92-30 .76-3.33a2.61 2.61 0 01.5-.09 2.73 2.73 0 011.24.23 2.15 2.15 0 011.43 1.76 16.72 16.72 0 01-.28 3.45c-.68 5.1-1.38 10.15-2.3 15.16a121.91 121.91 0 01-3.62 14.77c-1.54 4.8-3.61 9.45-5.66 14.16-1.32 2.94-2.58 6-3.73 9.05l-1-.39c0-.09.06-.2.09-.28.18-.8.3-1.33.44-1.98z"/><path class="cls-3" d="M793.36 631c-.14 2.64-.09 5.24 0 7.82.11 4.63.22 9.25-.81 13.51-1.27-.06-2.53-.08-3.73-.06a4.5 4.5 0 00.39-.5 8.14 8.14 0 001.32-6.22 8.05 8.05 0 00-.9-2.36c2.1-20.15 2.16-40.39 3.81-60.4a245.15 245.15 0 014.23-30.32c.48-2.13.87-4.29 1.24-6.45.5-2.91 1-5.86 1.4-8.8a89.72 89.72 0 001.43-15.5 60 60 0 00-1.82-15.58 98.49 98.49 0 00-5.58-14.58c-1-2.35-2.1-4.68-3.08-7-.51-1.17-1-2.35-1.41-3.53l-.64-1.76-.31-.9v-.06l.51-.22a11.87 11.87 0 011.65-.56 24.49 24.49 0 013.59-.67l1.09-.14.09.42.87 3.75q3.48 15.06 8.43 29.74a5.39 5.39 0 001.35 2.24 2.74 2.74 0 003.52.13 4.42 4.42 0 001.29-2.07l1 .39q-1 2.7-1.93 5.38c-1.68 4.85-3.28 9.78-4.54 14.83a119.72 119.72 0 00-2.89 15.27l-2.17 15.2c-1.49 10.15-2.86 20.41-3.59 30.67l-.48 7.73c-.14 2.5-.42 5.05-.7 7.57l-1.79 15.28c-.31 2.58-.68 5.08-.84 7.75z"/><path class="cls-4" d="M777.69 685.28a22.88 22.88 0 01-3.93-.47 6.24 6.24 0 01-1.48-.59 1.25 1.25 0 01-.56-.9c.08-.79.81-1.49 1.93-2a15.56 15.56 0 013.73-1.12 50.85 50.85 0 018.88-.76h1.21c2.94 0 6 .14 9.17.31 1.14 0 2.27.14 3.47.14a.46.46 0 01.2 0 7.31 7.31 0 011.48.31c1.4.5 1.68.81 1.91 2.46a9.8 9.8 0 010 1.21 2.81 2.81 0 010 .36 2.74 2.74 0 01-1.12.39 34.36 34.36 0 01-5.22.4c-3.61.05-7.12.14-10.42.19s-6.42.21-9.25.07zm-4.35-8.63c-3.28 0-6.61-.39-6.64-2.89s2.86-4.06 6-4.85a51.73 51.73 0 0110.65-1.2c2.1-.06 4.29-.06 6.56 0h.76c2 .08 4 .19 6.05.39.7 0 1.4.08 2.1.14h.17a13.22 13.22 0 012.35.59c1.6.62 2.13 1.51 2.36 3.56a9.31 9.31 0 01-.06 2.69c-.22.56-.08.45-.84.73a11.37 11.37 0 01-2.3.19c-1.26-.14-2.44-.14-3.61-.16h-6.06c-2.24 0-4.4.09-6.5.2-3.95.24-7.65.58-10.99.61zm11.5-12.47c-3.79.08-7.38.19-10.66.08a21.15 21.15 0 01-4.51-.59c-1.37-.39-2.18-1-2.27-2a3.41 3.41 0 01.56-1.71h.37v-.45a9.48 9.48 0 014.9-2.5 49.57 49.57 0 0110.35-1.15 76.61 76.61 0 0111.63.56c3.78.51 8.21 1.94 8.52 4.85a7 7 0 01-.11 2.39c-.23.56-.09.44-.79.7a15.25 15.25 0 01-3 .11 31.37 31.37 0 00-4.09-.37c-3 0-5.91 0-8.74.06-.79-.01-1.49-.01-2.16.02zm2.38-17.83a6.2 6.2 0 01-1.6 6c-.76 0-1.51 0-2.24.11a56.86 56.86 0 00-7.43 1 6.79 6.79 0 01-2.89-5.55 5.59 5.59 0 011.55-4.09 7.05 7.05 0 014.54-1.77c3.72-.27 7.28 1.55 8.07 4.3z"/><path class="cls-4" d="M694.25 652.8c17 3.19 55.86 7.14 71.3 7.14h.34a4.87 4.87 0 00-.17 1.69 3.72 3.72 0 00.95 2.66 6.86 6.86 0 002.27 1.46 16.66 16.66 0 002.72.75 12.63 12.63 0 00-4.48 2.5 6.13 6.13 0 00-2.16 4c-20.52 1.71-59.53-3.59-68.47-4.88 0-.47-.06-.92-.09-1.37a76.62 76.62 0 00-1.17-9.92l-.23-1a24.43 24.43 0 00-.81-3.03z"/><path class="cls-3" d="M758.52 1020.44c-.17-1.09-.12-2.72-.17-4.15l-.09-4.4v-8.77c0-11.72.56-23.43 1.4-35.12 1.77-23.37 4.74-46.72 7.26-70.13l7.71-70.12c4.87-46.28 9.25-92.66 11.63-139.16h.73c1.12 0 2.24.08 3.39.11-1.74 50.93-6.28 101.8-14.69 152l-.31 1.77 1.77-.14a25.06 25.06 0 008.91-2.69 25.71 25.71 0 007.6-5.33l.61.9 2.42 3.7-.16.17-1.53 1.65a36.84 36.84 0 01-3.22 2.74c-2.27 1.49-5 3.14-7.32 5a43.44 43.44 0 00-3.42 3 15.25 15.25 0 00-4.62 8.32l-.76 4.4-1.34 8.81c-3.22 23.37-5 46.83-7.28 70.23s-4.26 47-3.59 70.63c.14 2.89.08 5.78-1.23 7.15a3 3 0 01-2.47 1c-.67-.17-1.01-.45-1.23-1.57z"/><path class="cls-4" d="M354 870.6c-.84-.19-1.15.84-1.29 1.32a34.63 34.63 0 00-1.37 13.15 16 16 0 01-3.39-7.54 29.9 29.9 0 01.06-9.62 38.93 38.93 0 016.78-16.11 55.54 55.54 0 019-10.09 51.8 51.8 0 013.54-2.86c.36-.28.7-.51 1-.73l1.77-1.12.37-.48.47-3.81c0-.34.09-.67.12-1a9.81 9.81 0 01.19-1.63l1-5.24.56-2.27c.68-2.69 1.29-5.21 2.08-7.73.92-3.14 1.87-6.25 2.91-9.28.81-2.58 1.71-5.07 2.55-7.48l.39-1.1c3.84-10.76 7.46-19.84 10.8-28.08 5.46-13.3 9.28-22.07 11.46-26.9.34.45.62.9.93 1.32a59.77 59.77 0 008.24 8.66c.59.5 1.2 1 1.79 1.46a74 74 0 00-6.84 12.16c-2 4.32-3.84 8.72-5.57 13.18-3.4 8.85-6.42 17.85-9.14 27a273.09 273.09 0 00-6.76 27.75c-.39 2.38-.75 4.76-1 7.23a17.61 17.61 0 00.81 7.93 13.09 13.09 0 005.33 6.39 43.39 43.39 0 006.73 3.25c4.34 1.77 8.24 3.76 10.84 7 1.32 1.6 2.33 3.5 2.27 4.79s-1 2.24-2.8 3a16.93 16.93 0 01-12-.42c-1.82-.84-3.05-1.93-3.47-3.47a10.59 10.59 0 01-.4-2.89 11.29 11.29 0 00-.84-4.46 5.17 5.17 0 00-2.24-2.27 7.63 7.63 0 00-2.49-.75 11.4 11.4 0 00-4.54.28 6.74 6.74 0 00-4.15 3.27 9.24 9.24 0 00-1 4.69 23.12 23.12 0 001.93 7.7 46 46 0 003.53 6.62 54.48 54.48 0 004.46 5.94c.81 1 1.65 1.85 2.55 2.75s1.76 1.68 2.52 2.44a12.89 12.89 0 013.28 4.76 1.9 1.9 0 010 1.57 2.46 2.46 0 01-1 1 28.46 28.46 0 01-12.19-1.26 17.45 17.45 0 01-4.76-2.58 20.07 20.07 0 01-4.8-5 33.16 33.16 0 01-4.59-12.25 106.66 106.66 0 01-1.42-13.79l-.39-.06a38.25 38.25 0 00-1.07 14.06 37 37 0 004.09 13.93 21.53 21.53 0 002.39 3.51h-.71a19.21 19.21 0 01-8.6-1.59c-3.08-1.38-5.58-4.57-6.73-8.55a35.46 35.46 0 01-.59-14c.06-.44.23-1.5-.6-1.7z"/><path class="cls-5" d="M644.08 987.65c1.15-.17 2.3-.34 3.39-.48 2.21-.36 4.32-.73 6.31-1.15s3.84-.87 5.57-1.4c.56-.19 1.07-.39 1.6-.59a9.19 9.19 0 000 1.66 11.57 11.57 0 01.11 1.17 12.4 12.4 0 00.37 2.5c.11.36.22.73.31 1.12a9.23 9.23 0 00.89 2.38c.14.25.28.53.42.81a8.51 8.51 0 001.57 2.27l1.26 1.41c.31.25.65.5 1 .72l.47.34a20.45 20.45 0 0012.42 3.5 32.9 32.9 0 005.24-.53 13.4 13.4 0 001.63-.36l.7-.17a11 11 0 002-.7l.37-.17a17.22 17.22 0 004.73-2.77c.23-.17.4-.31.54-.4l.75-.5-.39-.81a2.5 2.5 0 00-.14-.34l-.11-.45-.39-.25a12.21 12.21 0 01-1.77-1.29l-.78-.62a6.75 6.75 0 01-.65-.67l-.73-.73a4 4 0 01-.5-.64 13.26 13.26 0 01-1.82-3.76 12.21 12.21 0 01-.14-7.82 8.92 8.92 0 014.85-5.16 22.22 22.22 0 017.9-1.68c5.69-.25 10.85 1.66 14.15 5.1a17.55 17.55 0 014.94 13.23 19.17 19.17 0 01-5.64 12.36 26.9 26.9 0 01-11.88 6.53c-7.74 2.05-15.64 1.94-23.26 1.83-1.29 0-2.55-.06-3.82-.06a108.11 108.11 0 00-12.95.39c-4.2.42-8.12 1.12-11.6 1.74l-1.32.2a33.73 33.73 0 01-8.1.78 3.77 3.77 0 01-2.43-.84 5.52 5.52 0 01-1.38-2.49c-1.23-3.59.37-7.38 1.77-10.68l.59-1.4c1.82-4.15 2.91-7.26 2.83-9.87a8 8 0 00-.11-1.12zm-4.08-6.48a38.17 38.17 0 01-2.38-5.32l-1-2.83-.12-.37a.1.1 0 000-.06s.14-.11.22-.17l.14-.08a2.92 2.92 0 00.34-.17c.84-.34 1.65-.76 2.52-1.07a44.86 44.86 0 015.13-1.73 109.15 109.15 0 0118.3-3.45v.17a6.27 6.27 0 01.11 1.34 21 21 0 01-.25 3.39c-.19 1.24-.48 2.58-.84 4-.2.73-.42 1.49-.67 2.24-.11.4-.25.76-.39 1.13a4.3 4.3 0 01-.37.75.28.28 0 01-.2.11s-.14.06-.47.14a17.36 17.36 0 01-2 .54c-1.54.33-3.31.64-5.21.92s-4 .56-6.12.81c-1.06.12-2.15.23-3.27.37l-2.89.25s.08.09-.11-.17a5.18 5.18 0 01-.47-.74z"/><path class="cls-4" d="M644.67 921.05c1.82 8.24 7.17 33.19 8.49 42.16a68.93 68.93 0 00-9.61 1.23c-1.43.31-2.86.65-4.35 1.07-1.6-8.52-6.16-32.4-9.19-42.75 4.99-.53 9.86-1.12 14.66-1.71z"/><path class="cls-5" d="M499.15 973.35A12.77 12.77 0 01499 972s-.06-.06-.09-.06a108.52 108.52 0 0118.89-.36 52.66 52.66 0 015.36.67c.92.14 1.79.37 2.72.56.3.06.3.06.33.09h.09l.16.08v.08c0 .02 0-.19-.09.54-.14 1-.25 2-.39 3a36 36 0 01-1.26 5.66 7.28 7.28 0 01-.28.78.56.56 0 00-.06.14l-2.88.34c-1.13.08-2.22.2-3.28.31-2.16.17-4.24.34-6.14.45s-3.73.17-5.27.17c-.79 0-1.51-.06-2.08-.14-.36 0-.47-.06-.5 0a.29.29 0 01-.22-.09 2.65 2.65 0 01-.51-.64c-.19-.34-.42-.7-.62-1-.39-.7-.78-1.37-1.12-2.07-.64-1.35-1.2-2.61-1.62-3.79a17 17 0 01-.99-3.37zm-16.77 37.73h.73a8.6 8.6 0 001.6 0 33.59 33.59 0 005.33-.56 20.75 20.75 0 0011.43-6l.37-.4a12.28 12.28 0 00.89-1.06l.82-1.4a8.35 8.35 0 001.09-2.64c.08-.28.17-.59.28-.89a8.64 8.64 0 00.36-2.53c0-.36.06-.75.12-1.2a19.42 19.42 0 00-.17-2.47c-.06-.39-.11-.76-.14-1.2-.09-.59-.2-1.1-.31-1.57.53.11 1.09.19 1.65.25 1.8.17 3.7.22 5.75.25s4.17-.08 6.39-.2c1.12 0 2.27-.14 3.42-.22l.89-.08a5.68 5.68 0 00.15 1.17c.56 2.92 2.74 6.11 4.93 9.11l.87 1.26c2.07 2.92 4.43 6.25 4 10.07a4.91 4.91 0 01-.81 2.63 3.6 3.6 0 01-2.18 1.32 34.69 34.69 0 01-8.1 1l-1.35.06c-3.7.14-7.54.28-11.63.7a112.25 112.25 0 00-12.75 2.27l-3.73.84c-7.43 1.68-15.19 3.42-23.15 3a27.2 27.2 0 01-13-4 19.28 19.28 0 01-8.07-11 17.6 17.6 0 012.13-14c2.55-4.06 7.23-7 12.84-7.9a22.44 22.44 0 018.1 0 9.07 9.07 0 015.86 4.1 12.43 12.43 0 011.45 7.73 14.51 14.51 0 01-1.06 4.18 4.6 4.6 0 01-.34.62l-.53.81c-.17.25-.31.53-.45.73s-.47.56-.73.84a11.9 11.9 0 01-1.43 1.62l-.36.26v.44a3 3 0 01-.08.45l-.2.87.81.34c.17.08.37.17.62.31a18 18 0 005.18 1.73l.37.09a12.46 12.46 0 002.14.27z"/><path class="cls-4" d="M522.21 966.68c-1.46-.11-2.86-.14-4.23-.16a64.39 64.39 0 00-9.84.75c-.5-8.69-.05-32.06.11-40.39 3 .06 6 .09 9.09.12h4.7c-.7 10.73-.04 31.75.17 39.68zm166.41-522.61a34.09 34.09 0 00-4.18 2c-.93.56-1.77 1.13-2.55 1.63.11-4.29-.17-8.44-.34-12.67a3 3 0 00.51-.06 48.08 48.08 0 0111.49-.36 40.21 40.21 0 0113.17 3.08 20.41 20.41 0 0110.48 9.53c2.13 4.43 2.5 10.12 1.26 15.53a25.12 25.12 0 01-3.05 7.57 26.15 26.15 0 01-4.93 6.16 26.75 26.75 0 01-6.23 4.38 27.16 27.16 0 01-6.83 2.44 29.05 29.05 0 01-13.23-.26 30.72 30.72 0 01-9.9-4.57c.14-2.91.09-5.71.2-8.43a88.87 88.87 0 00-.28-9.92 40.62 40.62 0 003.92-1.85 8.2 8.2 0 002.3-1.83 6.47 6.47 0 001.07-2.88c.19-1.6.3-3.17.36-4.71 1-.28 2.1-.67 3.34-1.09s2.71-.76 4.2-1.21a29.88 29.88 0 0110-1 18.23 18.23 0 014.38.93 17.26 17.26 0 012 10c-.39 4.83-2.24 9.09-3.05 12a.54.54 0 00.2.62.5.5 0 00.58-.17 20.82 20.82 0 003.26-4.74 19.9 19.9 0 002.18-7.42 14.76 14.76 0 00-1.4-7.8c-.17-.33-.36-.67-.53-1a13.57 13.57 0 011.51.93 24.74 24.74 0 015.52 5.52c.2.31.48.45.68.39s.25-.42.11-.78a17.16 17.16 0 00-4.68-7.12 18.13 18.13 0 00-10.49-4.49 24.47 24.47 0 00-11.05 1.65zm-337.32 3.09a20.29 20.29 0 0110.76-9.51 41.6 41.6 0 0113.76-2.86 44.94 44.94 0 0111 .82c-.39 3.89-.62 7.82-.7 11.74-.65-.42-1.35-.87-2.1-1.32a35.54 35.54 0 00-4.18-2 24.49 24.49 0 00-11.1-1.74 18.24 18.24 0 00-10.48 4.49 17.37 17.37 0 00-4.68 7.12c-.14.36-.06.7.14.78s.45-.08.67-.39a24.75 24.75 0 015.49-5.52 11.23 11.23 0 011.55-.95 7.92 7.92 0 00-.57 1 15.05 15.05 0 00-1.4 7.8 19.91 19.91 0 002.19 7.42 21.83 21.83 0 003.25 4.74.56.56 0 00.62.17.6.6 0 00.17-.62c-.82-2.88-2.67-7.14-3-12a17.07 17.07 0 012-10 18.39 18.39 0 014.4-.93 29.75 29.75 0 0110 1c1.49.45 2.95.73 4.21 1.21 1 .33 1.93.67 2.8.92v.53c-.05 2.89 0 5.75.09 8.66.08 1.43.19 2.92.39 4.4l.36 1.8.28 1c.17.25.59.25.87.39l2.64.82a43.51 43.51 0 014.26 1.57c0 2.91 0 6 .22 9.19a29.69 29.69 0 01-10.21 5.58 27.94 27.94 0 01-13.67.7 25.08 25.08 0 01-7-2.35A27.33 27.33 0 01350 462.71c-1.25-5.41-.89-11.1 1.3-15.55z"/><path class="cls-6" d="M574.06 409.51l-.86.2-.4.11-.42.11a1.74 1.74 0 01-.08-.36c-.09-.25-.28-1.88-.42-3-.11-.73-.17-.92 0-1.29a1.14 1.14 0 01.73-.67 94.32 94.32 0 0132.85-1.94 85.93 85.93 0 0119.11 4.43 90 90 0 019.56 4.09l.56.29-.09.59-.19 1.38-.37 2.71-.14 1.15s0-.05-.06-.05c-.84-.4-1.71-.73-2.55-1.1-1.71-.7-3.42-1.4-5.13-2-3.39-1.26-6.81-2.27-10.2-3.19a99.53 99.53 0 00-19.82-3.2 82.51 82.51 0 00-18 .87c-1.41.2-2.76.59-4.08.87zm-135.71 7.15a93.68 93.68 0 00-5 2.13c-.85.39-1.69.76-2.53 1.18h-.05c-.26-1.52-.51-3-.76-4.52l-.2-1.29h.05l1.09-.59a84.57 84.57 0 019.51-4.32 85.57 85.57 0 0119.06-4.85 94.91 94.91 0 0132.9 1.26.39.39 0 01.2.48l-.17 1.77c-.09.61-.14 1.2-.2 1.82l-.14.92c-.14.34-3.64-.78-6.25-1a82.38 82.38 0 00-17.86-.25 101.32 101.32 0 00-19.59 3.78c-3.33 1.01-6.72 2.14-10.06 3.48z"/><path class="cls-6" d="M400 464.22a66.49 66.49 0 01-8.18-1.76c-.45-.14-1.13-.34-1.35-.45 0-.05 0-.14-.06-.31a36.61 36.61 0 01-.22-4 83.2 83.2 0 01.28-8.32c.45-5.58 1.21-11.1 2.13-16.51.48-2.72 1-5.38 1.63-8a22.58 22.58 0 012.49-6.72 37.67 37.67 0 015.21-5.55 25.06 25.06 0 005.67-7.29 16.24 16.24 0 001-9.67c-.5-3-1.34-5.49-1.71-7.85a14.5 14.5 0 01-.19-3.22 7 7 0 01.73-2.58c.73-1.35 2.46-2.44 4.73-3.36 4.82-1.77 10.21-4.52 14.16-8.41a37.54 37.54 0 009.14-13.46c2-5.12 2.52-10.2 3.84-14.54a20.93 20.93 0 012.6-5.78 13.94 13.94 0 014.46-3.95c3.61-2 8.15-2.91 12.72-4.48a33.51 33.51 0 006.56-3.06c2-1.09 4-2.21 5.94-3.44a44.86 44.86 0 0010.42-8.92 55.26 55.26 0 0119-14.18 64.84 64.84 0 0121.38-5.3c7.68-.28 15.61 1.8 23.74 4.66s16.65 6.41 26.43 7.65c10.06 1.68 20.18-2.78 29.18-3.34 4.15.06 8.77 2.19 12.81 4.79s7.82 6 9.86 10.23c2.25 4.18 2.56 9.23 3.12 14.8a36.72 36.72 0 001.82 8.75 23.13 23.13 0 004.85 8.1 22.79 22.79 0 007.7 5.66 77.66 77.66 0 008.27 3.2 37.77 37.77 0 017.29 3.27 12.61 12.61 0 014.88 4.91c.92 1.82.92 4.23.73 7.15-.26 2.77-.31 6.78.92 9.95 2.24 6.42 6.31 11.07 7.65 16.08.62 2.53 1.1 5.72 1.63 8.64s1 6 1.54 9c1 6 2 12.11 2.8 18.25s1.4 12.42.76 18.08c-.11.59-.31 1.45-.42 1.4a4.63 4.63 0 01-1.38.87 19.35 19.35 0 01-4 1.2c-2.89.53-5.86.79-8.8 1.15l-3.65.45v-.05l-.11-.56-.17-1.13-.33-2.21-.7-4.4c-1-5.89-2-11.69-3-17.46-2-11.55-4.14-22.76-5.83-34a20.08 20.08 0 00-3.08-8.3 12.3 12.3 0 00-3.33-3.11c-1.24-.81-2.5-1.4-3.68-2.05-4.65-2.38-7.14-7.23-9.64-11.91a52 52 0 00-4.23-7 38.11 38.11 0 00-5.61-5.88 40.9 40.9 0 00-13.76-7.8 40.47 40.47 0 00-15.24-2 42 42 0 00-14.4 3.7c-4.43 1.88-8.52 4-12.64 5.61a109.42 109.42 0 01-12.36 4.12 122 122 0 01-24.1 3.81 153.9 153.9 0 01-46.5-4.23q-3.15-.81-6.34-1.6a7.83 7.83 0 00-3.81-.08 5.06 5.06 0 00-3.11 2.66c-.56 1.15-.9 2.1-1.4 3.05a22.6 22.6 0 01-6.14 7.54 12.38 12.38 0 01-5.77 2.72 33.78 33.78 0 01-6.81.31 31.49 31.49 0 00-7.38.36 13.09 13.09 0 00-6.83 3.79c-3.48 3.92-5.3 8.63-8.19 12.47a14.75 14.75 0 01-2.3 2.58 7.08 7.08 0 01-1.29 1 3 3 0 01-.67.34l-.84.42c-3 1.48-4.43 4.17-5.52 6.61a65.11 65.11 0 00-3.78 15.5c-.76 5.24-1.29 10.54-1.74 15.86s-.9 10.66-1.35 16c-.25 2.66-.56 5.32-1 7.9a26.23 26.23 0 01-.81 3.64 10.9 10.9 0 01-.53 1.43 2.13 2.13 0 00-.62-.22l-1-.28c-1.41-.38-2.79-.68-4.17-.94z"/><path d="M641.81 452.2a31 31 0 01-31.34 36.18c-9.81-.19-19.34-4.26-25.08-11.38-5.94-7-7.4-16.56-5.78-24.77a33 33 0 0112.48-19.85 34.8 34.8 0 019.55-5.1 38.81 38.81 0 019.84-1.73c6.36.25 13.76 1.26 19.68 5.83s9.27 12.33 10.65 20.82zm-10.37 5.35a20.53 20.53 0 00-.37-3.78A12.32 12.32 0 11613.7 437a22.21 22.21 0 00-3.09-.25 20.83 20.83 0 1020.83 20.82zm-140.23-2.91c1.6 8.35-.22 18-6.39 24.92-6 7-15.81 10.81-25.73 10.76s-19.78-3.76-26.15-10.4a23.16 23.16 0 01-6-11.72c-.84-4.26-.06-8.66.92-12.92 2-8.46 6.11-15.94 12-20.79a28.89 28.89 0 019.5-5.33 29.32 29.32 0 0119.9.06 33.84 33.84 0 019.64 5.21 32.87 32.87 0 0112.31 20.21zM480 459.46a20.53 20.53 0 00-.37-3.78 12.33 12.33 0 11-17.4-16.79 21.77 21.77 0 00-3.06-.26A20.82 20.82 0 10480 459.46z" fill="#fff"/><path class="cls-8" d="M674.35 892.33a50 50 0 01.11 7.39 43.54 43.54 0 01-1.15 8 14.73 14.73 0 01-1.29 3.54 4 4 0 01-.39.56c-.14.14-.06.08-.11.11h-.09l-1.12.11c-12.69 1.49-26.65 3.31-41.14 4.85-7.93.87-15.73 1.6-22.62 2-3.45.22-6.67.36-9.53.36-1.43 0-2.78-.06-3.95-.14-.54-.08-1.18-.11-1.57-.22s-.14 0-.23 0v-.06l-.2-.39-.67-1.4-1.26-2.78c-.82-1.85-1.57-3.67-2.27-5.49a50.3 50.3 0 01-3.06-10.51 14 14 0 01-.17-2.36l.09-1c0-.31.19-.47.14-.56-.23-.11 1.71-1 3.16-1.46a90 90 0 019.56-2.35c12.67-2.52 23.85-3.92 33.63-5.16 5.67-.28 11.78-.53 19.09-.64 3.65-.06 7.6-.09 11.89.08 1.54.06 3.11.14 4.7.31.65 0 1.32.08 2 .17a26.43 26.43 0 013.36.53 8.13 8.13 0 011.46.45c.33.14.33.17.45.31a1.53 1.53 0 00.14.39 4.34 4.34 0 01.22.64 9.28 9.28 0 01.39 1.43 26 26 0 01.43 3.29zm-110.49 6.47a22.9 22.9 0 01.11 3.14 40.23 40.23 0 01-.78 7.15 42 42 0 01-2.1 7.56 16.17 16.17 0 01-1.74 3.37 3.93 3.93 0 01-.93 1.06c-.3.2 0 .09-.3.11-12.48-.05-26.38-.11-40.73-.14-9.84-.11-19.51-.28-28.05-.67-4.26-.2-8.27-.45-11.83-.78-1.8-.17-3.45-.4-5-.68-.76-.11-1.43-.28-2.05-.42l-.42-.14h-.2v-.06l-.17-.42-.53-1.43c-.31-1-.65-1.93-1-2.89-.61-1.9-1.2-3.78-1.71-5.63a48.63 48.63 0 01-1.9-10.68 8.24 8.24 0 01.56-4c.06-.31.08-.19.76-.53a22.21 22.21 0 012.24-.56 93.8 93.8 0 019.61-1.21c12.61-1 23.6-1.09 33.33-1.23 6.89.42 14.4.9 23.32 1.71 4.42.39 9.25.87 14.43 1.57 2.58.36 5.27.78 8 1.35a42 42 0 014.09 1 13.29 13.29 0 011.82.68 2.32 2.32 0 01.48.28.18.18 0 01.14.17l.11.33c.06.23.11.39.17.62.13.39.19.86.27 1.37zm-75.65-29.04a5.51 5.51 0 01-1.51-1.17c-.06-.06 0-.09-.06-.12s0-.36 0-.53a9.47 9.47 0 010-1.32c0-.89 0-1.82.05-2.74 0-.54.06-1.1.12-1.63.87.11 1.73.17 2.6.2v-1.68c-.84 0-1.68-.09-2.49-.2.22-3.62.59-7.12 1.06-10.51.81.14 1.66.22 2.5.31l.14-1.68c-.82-.06-1.63-.17-2.44-.28.28-1.83.56-3.59.84-5.33s.67-3.7 1-5.49a23.83 23.83 0 003.19.72l.25-1.65a19.67 19.67 0 01-3.08-.73 44.55 44.55 0 013.28-10 1 1 0 011-.34l2.13.17 1.12.08a16.48 16.48 0 00-.09 4.38l1.69-.17a15 15 0 01.11-4.07c.53.06 1.06.09 1.6.14q3.62.35 7.48.76-.25 1.47-.42 2.94l1.72.18c.11-1 .25-1.93.42-2.91h.25c3.25.39 6.62.81 10.06 1.43l1 .16c-.23 1.15-.39 2.3-.53 3.45l1.68.17c.11-1.12.28-2.22.47-3.31a45.32 45.32 0 017.6 2.1 6.15 6.15 0 011.09.54 2.66 2.66 0 01.87.56 1.54 1.54 0 01.53.59 4.64 4.64 0 01.34 1 21.36 21.36 0 01.42 5.32c0 .79-.06 1.6-.11 2.41-.93-.22-1.85-.47-2.75-.73l-.48 1.6c1 .31 2 .59 3.09.84-.2 2.47-.59 5-1 7.54-.06.37-.14.7-.23 1.07a26.36 26.36 0 01-3.67-1.15l-.61 1.57a25.54 25.54 0 004 1.26c-.65 3-1.4 6.11-2.36 9.14-.14.47-.31.92-.47 1.4a25.46 25.46 0 01-3.54-1.1l-.61 1.57a31.59 31.59 0 003.61 1.15c-.36.93-.73 1.85-1.15 2.78a18.56 18.56 0 01-3 5 4.05 4.05 0 01-.84.75 3.24 3.24 0 00-.36.2l-.59.2a21.69 21.69 0 01-2.83.47 46.55 46.55 0 01-5.91.09c.14-1.46.22-3 .28-4.4l-1.69-.09c0 1.49-.14 2.95-.25 4.4a76 76 0 01-8.18-.87c.33-1.26.64-2.49.92-3.75l-1.67-.45c-.31 1.29-.62 2.58-1 3.87a7.53 7.53 0 01-.87-.14c-1.52-.25-3-.53-4.46-.87l1.26-2.27-1.48-.81c-.48.9-1 1.79-1.49 2.69a47.92 47.92 0 01-5.13-1.6 18.84 18.84 0 01-2.42-1.11z"/><path class="cls-8" d="M655.6 841.29c-1.46-8.44-2.83-17.66-4-27.92-.59-5.13-1.12-10.51-1.54-16.23-.23-2.86-.37-5.8-.51-8.8 0-1.54 0-3.05-.11-4.62v-3.51l-.25-.25-.48-.48-1.57-1.59c-.16-.2-.33-.37-.5-.56-.87-.9-1.71-1.83-2.58-2.75-2-2.24-4.06-4.57-6.08-7q-6.06-7.27-12-15.72a230.67 230.67 0 01-22-38.76 193.41 193.41 0 01-14.55-49.56 167.73 167.73 0 01-1.57-28.64c0-1.57.09-3.14.23-4.74 0-.9.11-1.82.19-2.72.11-1.26.23-2.52.31-3.78 0-.39.06-.51.06-.62a1.49 1.49 0 00-.12-.39 1.25 1.25 0 00-.19-.34 4 4 0 00-.45-.33c-3.81-2.69-8.77-3.48-13.73-3.4v.2l.14 1c.22 1.35.42 2.77.62 4.23.39 3 .81 6.08 1.26 9.42.84 6.64 1.71 14 2.35 22 .34 4 .62 8.05.76 12.28a79.84 79.84 0 01-.39 13 19 19 0 01-.79 3.45 5.91 5.91 0 01-.92 1.85 3.87 3.87 0 01-2 1.37 47.94 47.94 0 01-6.67 1.69 114.83 114.83 0 01-13.52 1.59 88.52 88.52 0 01-14.38-.19c-4.71-.59-9.65-1.35-13.76-4.57a9 9 0 01-2.42-3.08l-.78-1.69-.56-1.65a30.92 30.92 0 01-1-3.31c-.31-1.09-.59-2.18-.79-3.28-1-4.34-1.65-8.6-2.27-12.75-1.2-8.27-2-16-2.72-23.07-.3-3.5-.61-6.84-.89-10s-.39-5.77-.59-8.35c0 0 0-.06-.14 0-.93.2-1.94.28-2.8.45a24.93 24.93 0 00-5.13 1.37 14 14 0 00-4.15 2.92 9.62 9.62 0 00-.79.84.51.51 0 00-.08.28l.45 2.52c.19 1.12.39 2.22.56 3.34 1.06 6.33 1.88 12.58 2.52 18.81a312.08 312.08 0 011.57 42.82c-1.09 27.69-6.42 54.24-18.69 76.15a105.07 105.07 0 01-10.37 15.25c-1 1.18-1.88 2.41-2.95 3.48l-1.54 1.65c-.45.48-1.12 1.18-1.15 1.18l-.15.22a.53.53 0 000 .31 2.23 2.23 0 000 .56l.12 1.09c.11 1.43.25 2.86.36 4.29.95 11.44 1.6 22.48 2 33.16.73 20.54.62 39.72-1.21 57.54 1.4-.11 2.78-.17 4.15-.25 12.92-.53 23.91-.06 33.66.45 6.93-.06 14.52 0 23.52.45 4.51.22 9.36.53 14.69 1.06 2.66.28 5.43.65 8.38 1.15.5.08 1 .17 1.51.28-.48-31.92 1.82-50.42 6.75-55a4.58 4.58 0 013.59-1.34c2.72.25 10.88 1 18.3 54.12 2.75-.7 5.39-1.15 7.94-1.6a325.7 325.7 0 0134.24-3.39c5.66-.7 11.8-1.32 19.17-1.77 3.7-.22 7.68-.42 12.11-.39 1.09 0 2.21 0 3.39.06a328.53 328.53 0 01-9.07-39.49zM541 844.57a80.13 80.13 0 01-3.39-.59c-.17 2.46-.5 4.9-.9 7.4 0 .36-.11.72-.19 1.09a22.62 22.62 0 002.32.17v1.68c-.87 0-1.71-.09-2.58-.17a86.87 86.87 0 01-2.38 9.64c-.11.31-.2.65-.31 1a31.86 31.86 0 003.67.22v1.68a29.76 29.76 0 01-4.23-.28c-.42 1.21-.9 2.44-1.43 3.64a22 22 0 01-3.7 6.09 10.37 10.37 0 01-1.63 1.4c-.33.17-.72.39-1.06.53l-1 .31a23.55 23.55 0 01-3.56.62 53.35 53.35 0 01-6.56 0c-.14 1.29-.28 2.58-.45 3.87l-1.68-.22c.17-1.24.31-2.5.45-3.76a83.07 83.07 0 01-8.94-1c-.45 1.54-1 3.06-1.49 4.54l-1.57-.59c.5-1.4 1-2.8 1.4-4.23l-.47-.08c-2-.37-3.93-.79-5.83-1.29-.87 1.37-1.8 2.75-2.75 4.06l-1.37-1c.84-1.15 1.65-2.35 2.41-3.56a41.84 41.84 0 01-4.43-1.48 22.84 22.84 0 01-2.86-1.4 7.52 7.52 0 01-2.8-2.58 4.32 4.32 0 01-.42-1.24 3.22 3.22 0 01-.06-.89 13.36 13.36 0 010-1.54c0-1 .09-1.94.14-2.89.06-.67.11-1.35.2-2a33.07 33.07 0 01-3.67-1l.53-1.6a33.78 33.78 0 003.31.93c.36-3.62.84-7.12 1.42-10.49a38.82 38.82 0 01-4.06-1l.48-1.62c1.26.39 2.58.73 3.87 1 .3-1.82.67-3.62 1-5.35.45-1.94.87-3.84 1.38-5.69a32.3 32.3 0 01-4.6-2.11l.81-1.48a28.14 28.14 0 004.23 1.93 43.21 43.21 0 014-10.17 2.71 2.71 0 012.58-1.32h2.13c.48 0 .95 0 1.46.05a16.49 16.49 0 011.37-3.47l1.49.78a12.54 12.54 0 00-1.1 2.75h1.27c2.52.08 5.15.22 7.84.42.4-1.6.87-3.2 1.43-4.77l1.57.56a40.31 40.31 0 00-1.26 4.32c3.28.25 6.7.56 10.2 1.07l1.18.16a34.43 34.43 0 011-3.36l1.57.56c-.37 1-.68 2-1 3.08a45.42 45.42 0 018.16 2 8 8 0 011.46.68 4.64 4.64 0 011.51 1 5.09 5.09 0 011.32 1.54 6.31 6.31 0 01.64 1.71 24.18 24.18 0 01.68 6.25c0 1.06 0 2.13-.09 3.2 1.15.22 2.33.44 3.51.61zm47.93-100c-.34 4.74-1.9 9.84-5.46 13.62a24.14 24.14 0 01-12.9 6.95 47.73 47.73 0 01-13.7.93c-8.86-.34-17.83-3-24.14-8.72a27.36 27.36 0 01-6.81-10.06 33.36 33.36 0 01-1.73-5.5 47.85 47.85 0 01-.76-5.43 50.33 50.33 0 01.22-10.32c.2-1.62.45-3.19.76-4.73l.25-1.15a3.3 3.3 0 01.59-1.38 3.18 3.18 0 012.64-1.31c11.71-.34 25.87-.62 41.73-.82l6-.08h3.86a3.85 3.85 0 011.24.14 4.43 4.43 0 012.88 2.47l.34.75.62 1.52c.42 1 .78 2 1.15 3 .72 2 1.34 4.18 1.87 6.34a43.78 43.78 0 011.31 13.8z"/><path class="cls-9" d="M593.26 663a153.87 153.87 0 01-1.9-28c0-1.15 0-2.3.08-3.45l2.36.37c5.69.81 17.57 2.49 34.19 5.27 7.26 1.2 17 2.88 27.72 5.07 4.26.87 9.89 2 15.89 3.56 2.55.61 5.27 1.37 8.21 2.27a39 39 0 017.66 3.14 3.52 3.52 0 011 1.06 17.52 17.52 0 011.91 5.52 73.94 73.94 0 011.15 9.2c.39 5.66.48 11.94.31 19.76-.17 6.56-.51 13.56-1 20.77l-.08.89a8.73 8.73 0 01-.15 1.43A2.52 2.52 0 01690 711a2.81 2.81 0 01-2.94.56l-33.8-8a7.42 7.42 0 00-2-.14 6.71 6.71 0 00-3.7 1.41 6.6 6.6 0 00-2.3 3.3 9.32 9.32 0 00-.37 2.41c0 .28 0 .54-.05.84-.28 3.7-.48 7.6-.62 11.55a275 275 0 002.16 45.91c-1.37-1.54-2.78-3.17-4.15-4.82-4-4.74-7.93-9.81-11.83-15.3a237.58 237.58 0 01-22.08-37.59A187.11 187.11 0 01593.26 663z"/><path class="cls-8" d="M583.87 731.72a41 41 0 011.1 12.53 18.26 18.26 0 01-4.49 11.3 20.5 20.5 0 01-10.84 5.8 45.49 45.49 0 01-12.64.92c-8.39-.22-16.43-2.49-22-7.39a24.15 24.15 0 01-6.31-8.75 35.29 35.29 0 01-1.77-5c-.31-1.71-.75-3.36-.89-5.07a49.85 49.85 0 01-.2-9.81c.08-1.6.28-3.14.5-4.63l.17-1.12a1.79 1.79 0 01.23-.7 1.4 1.4 0 011.15-.64c11.71.33 25.87.61 41.73.81l6 .08h3.86a.65.65 0 01.28.06.81.81 0 01.42.28 1 1 0 01.12.19l.28.68.56 1.43c.36 1 .73 1.93 1 2.91a58.9 58.9 0 011.74 6.12z"/><path class="cls-10" d="M673.47 885.28c-.53-.51-1.07-1-1.61-1.47a5.62 5.62 0 01-1.2.27c-7.84.84-15.33-.72-23.12-.91-6.89-.17-13.69 1.42-20.56 1.78a32.85 32.85 0 00-.53 7.38 42.43 42.43 0 002.06 11.3 40.48 40.48 0 00-30.29 18.9c14.93-1.78 29.92-2.69 44.87-4.26 9.58-1 19-2.73 28.47-4.54a4.58 4.58 0 012.13-2.83c3.87-2.37 3.75-7.63 3.77-11.65v-.13c-1.39-4.59-2.67-9.24-3.99-13.84zm-83.13-34.07a19.72 19.72 0 00-10.08 2.93 5.06 5.06 0 01.31 1.38c.39 6 2.37 11.68 3.27 17.57a4.67 4.67 0 010 .74c.92 3.26 1.81 6.52 2.61 9.81a4.59 4.59 0 01-.82 4 5.32 5.32 0 01.21 1.43 19.13 19.13 0 004.47.53 19.83 19.83 0 0013.61-5.6c3.33-3.33 5.84-8.8 5.63-13.59-.47-10.41-8.44-19.2-19.21-19.2zm14.6-15.49a6.41 6.41 0 100 12.81c3.35 0 6.56-2.94 6.4-6.4a6.51 6.51 0 00-6.4-6.41z"/><path class="cls-10" d="M669.38 881.25c-5.85-6-7.49-19.8-7.61-25.94v-.16c-.44-.9-.89-1.79-1.38-2.67a5 5 0 01-.62-1.83c-12.64 2.8-23.45 11.65-26.7 24.93-2.34 9.52 7.13 15.25 14.28 13.28a10.66 10.66 0 003.42.56h10.14a11.39 11.39 0 009.66-5.87 4.78 4.78 0 01-1.19-2.3z"/><path class="cls-9" d="M487.57 643.24c5.27-4.32 8.86-7.15 11.24-9 .34-.25.64-.5.95-.7.79 5.38 1.4 10.73 1.88 16.06a288.66 288.66 0 01.84 42.24c-1.57 27.24-7.34 52.89-19.2 73.6a102.63 102.63 0 01-8.77 13c-.2-8.46-1.6-16.81-3.14-25.33-.73-4-1.54-8.07-2.52-12.5l-1.4-6.2-2.81-11.24-25 35.12a5.08 5.08 0 01-1.46 1.46 4.72 4.72 0 01-3.7.48 82.49 82.49 0 01-19.34-11.89 57.8 57.8 0 01-7.54-7.87c-.87-1.24-1.85-2.72-2.77-4.32a29.62 29.62 0 01-2.3-5 10.87 10.87 0 01-.56-1.8l-.14-.53a7.44 7.44 0 00-.25-.95c-.11-.51-.25-1-.34-1.46s-.11-1.15-.2-1.74a16.42 16.42 0 01-.22-3.45 24.08 24.08 0 011.68-9.55c2.08-5.19 5.64-10.23 11.21-15.81 9.34-9.11 19.82-16 29-22.12 4.29-2.8 8.41-5.41 12.36-7.93 4.82-3 9.33-5.94 13.48-8.69a198.84 198.84 0 0019.02-13.88z"/><path class="cls-4" d="M568.94 650.36a24.55 24.55 0 005.75-4c-.49-4.41-1-8.63-1.55-12.57a1202 1202 0 00-1.32-9.36c-.05-.31-.08-.59-.14-.9v.06c-15.72-6.25-13.79-27.89-12.52-35.79a189.14 189.14 0 01-24.5.95c-2.38.06-4.88.09-7.46 0 1 5.69 3.17 21.52-2.41 29.79a11.55 11.55 0 01-6.33 4.82c.05 1.12.11 2.27.19 3.48.26 3.08.51 6.39.79 9.89.19 2.11.4 4.3.62 6.52 12.68 11.88 31.45 14.86 48.88 7.11z"/><path class="cls-9" d="M575.63 655.63c-.28-3.18-.6-6.24-.94-9.24a24.55 24.55 0 01-5.75 4c-17.43 7.75-36.2 4.77-48.91-7.05.52 5.19 1.13 10.68 1.93 16.41.59 4.09 1.23 8.32 2.16 12.56a53.47 53.47 0 001.65 6.3l.51 1.52.64 1.4a6.35 6.35 0 001.74 2.27c3.11 2.52 7.82 3.45 12.28 4a85.85 85.85 0 0013.9.19 108.87 108.87 0 0013.2-1.59 42.52 42.52 0 006.22-1.54c1.07-.15 1.6-2.53 1.88-4.49a78.77 78.77 0 00.31-12.56q-.26-6.26-.82-12.18z"/><path class="cls-4" d="M632.73 429.25A27.65 27.65 0 00622 424.7a47.89 47.89 0 00-10.48-.84 38.91 38.91 0 00-10.52 1.32 35.94 35.94 0 00-10.46 5.07 35.36 35.36 0 00-14.43 35.54 30.39 30.39 0 006.31 13.63 33.35 33.35 0 0012.36 9.47 40.53 40.53 0 0015.61 3.45 34.57 34.57 0 0027.89-13 33.72 33.72 0 006.56-13.42 34.75 34.75 0 00.28-14.27 45.85 45.85 0 00-4.21-12.67 27.15 27.15 0 00-8.18-9.73zm-58.19-17.38c1.29-.17 2.58-.51 4-.59a86.48 86.48 0 0117.38-.14 105.07 105.07 0 0119.08 3.53c3.25.95 6.56 2 9.84 3.2 1.65.58 3.27 1.26 4.93 2l2.44 1.06c1.48.68 3.3 1.63 4.93 2.44.06-.48.17-1.34.31-2.24.31-2.38.61-4.74 1-7.09l.45-3.48.17-1.34-1.21-.59-1.9-.9a83.16 83.16 0 00-10.07-4.2 84.79 84.79 0 00-20-4.18 87.73 87.73 0 00-33.76 3.65 3 3 0 00-1.88 1.52 3.72 3.72 0 00-.31 2.24c.09 1.46.2 2.94.31 4.43a7.14 7.14 0 00.2 1.43l1.48-.26c.84-.18 1.74-.36 2.61-.49zM406.93 510c-6.08-14.61-8.29-28.9-9.22-41l.79.34c1.29.53 2.57 1 3.89 1.48l2.38.76 1 .28.93.06c.31 0 .64.14.9-.09l.81-.53a7.27 7.27 0 002.55-3 14.51 14.51 0 00.87-2.38 38.88 38.88 0 00.92-4.37c.42-2.86.65-5.64.84-8.39.34-5.46.51-10.84.7-16.17s.42-10.54.93-15.66a60.3 60.3 0 012.83-14.72c.84-2.21 2.1-4.26 3.73-5.13a5.26 5.26 0 01.84-.45 8.17 8.17 0 00.95-.56 9.89 9.89 0 001.68-1.34 19.07 19.07 0 002.55-3.14c2.89-4.35 4.63-9.08 7.66-12.47 6.19-7.29 18.3 0 26.34-7.21a25.37 25.37 0 004.88-5.16 24.78 24.78 0 001.88-3c.56-1 1-2.15 1.45-3a2.76 2.76 0 011.77-1.51 6.15 6.15 0 012.69.17l6.22 1.82a151.62 151.62 0 0047.37 5.78v-.06a116.35 116.35 0 0024.92-4 104 104 0 0012.78-4.4c4.29-1.76 8.41-4 12.61-5.83a38.1 38.1 0 0113.26-3.67A37.63 37.63 0 01628.07 374a61.38 61.38 0 004.24 7.06 19 19 0 006.44 5.69c2.53 1.32 4.82 2.41 6.23 4.52a16.63 16.63 0 012.52 7.31c1.32 11 2.55 22.56 3.75 34.19q1 8.71 2 17.63c.39 3.14.79 6.28 1.21 9.45.16 1.49.42 2.91.7 4.34l.05.28c0 .09.17 0 .23 0l.56-.05 1.09-.11 2.22-.28a30.58 30.58 0 003-.48c.76-.11 1.51-.28 2.27-.45a63.35 63.35 0 007-2.07 79.28 79.28 0 01-.42 8.83c-.36 3.61-.45 7.4-1.06 11.26s-1.4 7.85-2.25 11.91c-1.23 4-2.32 8.16-3.72 12.34a113.28 113.28 0 01-32.52 46.72c-15.61 13.34-33.83 21.64-50.78 26.65s-33 6.73-46.22 7.46a204 204 0 01-44.87-7.06A142.29 142.29 0 01440 554.11 111.13 111.13 0 01406.93 510zm190.51 21.21c5.69-6.28 9.36-13.39 9-19.39-.17-1-.48-1.66-.73-1.6s-.42.73-.39 1.63c-.51 5.32-4.46 11.54-10.18 17.15a60.2 60.2 0 01-22.65 13.84 46.91 46.91 0 01-26.2 1 60.11 60.11 0 01-18.64-8.63c-.81-.5-1.49-.76-1.65-.53s.22.76 1 1.43a50 50 0 0018.47 10.82 46.16 46.16 0 0028.31-.34 56.06 56.06 0 0023.66-15.41zm-46.33-49.33a15 15 0 000-5.52c-.08-.53-.34-.89-.59-.87s-.48.42-.53.93a14.39 14.39 0 01-4.23 9.5c-2.89 2.83-7.57 4.43-12.56 4.4s-9.7-1.63-12.61-4.34a12.13 12.13 0 01-3.68-9.51c0-.5-.16-.92-.42-1s-.53.28-.67.82a11.87 11.87 0 00-.47 5.49 12 12 0 002.91 6.36c3.36 3.93 9 6.17 14.94 6.14s11.6-2.21 14.91-6.19a13.87 13.87 0 003-6.24zm-56.65-13.42a34.63 34.63 0 00.06-14.44 35.46 35.46 0 00-24.66-26.85 41.62 41.62 0 00-21.22-.05 30 30 0 00-10.48 5.35c-6.59 5.05-11.27 13.09-13.57 22a49.12 49.12 0 00-1.37 6.93 26.63 26.63 0 00.11 7.45 27.05 27.05 0 006.81 13.71c7.23 7.65 18 11.63 28.93 11.74s21.86-4.15 28.64-12.22a31.1 31.1 0 006.75-13.65zm0-62.17a2.11 2.11 0 00-1.57-2.21 86.43 86.43 0 00-33.77-3 83.81 83.81 0 00-20 4.62 81.43 81.43 0 00-10 4.4l-3.69 1.9.67 4.12c.34 2.13.7 4.26 1 6.44.25 1.38.48 2.78.59 3.54 1.6-.9 3.36-1.88 4.85-2.58l2.41-1.15c1.6-.73 3.19-1.46 4.82-2.08 3.22-1.34 6.47-2.43 9.67-3.47a105.58 105.58 0 0118.83-4.12 85.46 85.46 0 0117.24-.42 35.58 35.58 0 013.95.45l2.33.33 1.49.23.72.11c.12-.11.06-.48.09-.67.08-1.6.14-3.17.22-4.68.07-.58.07-1.2.1-1.79z"/><path class="cls-11" d="M519.23 643.31c-.29.27-.24.81.12 1.28a32.22 32.22 0 009.86 8.38 36.94 36.94 0 0016.58 4.75 40.12 40.12 0 0016.92-3.16 68.35 68.35 0 006.25-3.38c1.74-1.29 3.27-2.5 4.54-3.6.45-.38.6-.86.39-1.19a1.08 1.08 0 00-1.27-.24c-6.11 2.43-15.69 6-26.56 5.61s-20-5.1-25.56-8.4a1.08 1.08 0 00-1.27-.05zm278.05-95.64a4.88 4.88 0 00.9-3.66 14.49 14.49 0 00-.72-3.46 31.74 31.74 0 00-3.13-6.6 46.28 46.28 0 00-10.67-12.05 39.61 39.61 0 00-16.26-7.9 35.78 35.78 0 00-9.73-.74 38.08 38.08 0 00-5 .66c-.82.15-1.63.4-2.45.59-.41.12-.83.19-1.22.34l-1.46.5c-.77.27-1.55.53-2.25.81l-.55.21c-.07 0-.23 0-.22.13l.08.29.31 1.14c.22.74.41 1.53.67 2.24l.43 1.21a46.11 46.11 0 002 4.53 45 45 0 005.21 8.1 40.19 40.19 0 0014.15 11.23c5.21 2.63 10.71 3.39 15.67 3.83 2.5-.06 4.92.07 7.2-.18l6.48-.91-.27-1.67-6.33.39c-2.21.09-4.5-.2-6.87-.26-4.67-.7-9.73-1.63-14.4-4.21a38.12 38.12 0 01-12.63-10.58 43.1 43.1 0 01-4.7-7.5c-.67-1.34-1.27-2.74-1.81-4.15l-.37-1.05.82-.28c.36-.14.74-.2 1.1-.31.74-.17 1.47-.4 2.21-.54a33.68 33.68 0 014.43-.61 33 33 0 018.68.54 37.59 37.59 0 0115 6.86 46.25 46.25 0 0110.51 10.82 31.79 31.79 0 013.27 5.9 13 13 0 01.85 2.93 3.38 3.38 0 01-.25 2.36zM814 516.52c-.24-1.44.84-3.46 2-5.16a32.8 32.8 0 014.49-5.07A46.6 46.6 0 01833 498a37.25 37.25 0 0116.1-3.49 32.7 32.7 0 018.59 1.34 40.09 40.09 0 014.2 1.54l2 1a8.78 8.78 0 011 .55l.38.23c-.07.1.32-.51-.82 1.34-.82 1.28-1.72 2.49-2.64 3.68a43 43 0 01-6.18 6.32 37.48 37.48 0 01-14.6 7.63 40.8 40.8 0 01-7.62 1.26c-1.26.08-2.5 0-3.72 0a21.49 21.49 0 01-3.61-.22l-3.46-.5-1.69-.24-1.61-.44-3.14-.83-1.52-.4-.64-.17h-.23l-1.49.43a1.85 1.85 0 00.91 1.11 7.72 7.72 0 00.84.32l1.52.53 3.17 1.1 1.65.56 1.74.37 3.6.75a21.57 21.57 0 003.8.43c1.31.07 2.63.23 4 .21a42.62 42.62 0 008.33-1 39.5 39.5 0 0016.21-8 44.79 44.79 0 006.83-6.8c1-1.28 2-2.6 2.9-4a30.33 30.33 0 001.62-2.77l1.08-2.1a17.77 17.77 0 00-1.92-1.28l-1.71-1a9.12 9.12 0 00-1.11-.6l-2.26-1.11a39.56 39.56 0 00-4.7-1.75 35.34 35.34 0 00-9.66-1.38 39.26 39.26 0 00-17.57 4.27 46.38 46.38 0 00-13 9.5 33.31 33.31 0 00-4.48 5.75 17.06 17.06 0 00-1.49 3.18 6 6 0 00-.29 3.64z"/><path class="cls-12" d="M798.14 545.1a77.21 77.21 0 00-11-11.7c-5.68-5-14.69-11.24-25.29-12.76-.77-.13-1.22-.2-1.31.2s.35.53 1.13.73c8 1.74 16.09 6.31 23.91 13.57A86.06 86.06 0 01796 546.69c.43.59.54.63.67.65h.14l1.77-1.22v-.15c.02-.09.04-.23-.44-.87zm56.24-45.72a45.5 45.5 0 00-28.4 4.45 47.68 47.68 0 00-13.16 9.81c-.5.54-.69.84-.41 1.11l1.43 1.17a.32.32 0 00.23.1c.21 0 .44-.25.74-.57a48.07 48.07 0 0112.28-9.55 46.87 46.87 0 0127.17-5.59c.8.05 1.26.06 1.3-.34s-.4-.49-1.18-.59z"/><path class="cls-12" d="M786.7 644c2.24-20.32 2.32-40.87 4.06-61.4a252.43 252.43 0 014.3-30.61c1.09-5 1.81-10.07 2.58-15.11a88.77 88.77 0 001.36-15.16 56.33 56.33 0 00-1.78-14.89 92.74 92.74 0 00-5.44-14.14c-1-2.33-2.13-4.68-3.14-7.07-.5-1.19-1-2.4-1.45-3.62l-.67-1.84-.31-.94-.16-.46a2.39 2.39 0 01-.14-1.07 2.14 2.14 0 01.65-1.28 3.32 3.32 0 01.72-.46c.32-.16.65-.32 1-.45a15.67 15.67 0 012-.69 30 30 0 014-.76l1-.11.49-.06h.24a2.56 2.56 0 01.45 0 2 2 0 011.38.64 2.45 2.45 0 01.53 1.09l.2.94.85 3.74c2.32 9.94 5.12 19.8 8.38 29.47a3.05 3.05 0 00.56 1.07h-.07c.29-.13.63-1.53.89-2.77l1.73-7.5 3.46-15 6.92-30 .9-3.9a2.18 2.18 0 01.85-1.1 4.63 4.63 0 012-.62 5.5 5.5 0 012.52.42 5.32 5.32 0 012.09 1.54 5 5 0 011 2.44 16.64 16.64 0 01-.27 4.21c-.69 5.09-1.39 10.19-2.33 15.28a118.61 118.61 0 01-3.7 15.12 153 153 0 01-5.76 14.42c-2.1 4.71-4 9.34-5.58 14.23s-3.23 9.68-4.48 14.6a121.16 121.16 0 00-2.81 15l-2.19 15.25c-1.5 10.15-2.85 20.27-3.56 30.47l-.48 7.66c-.16 2.63-.43 5.18-.71 7.74L797 623.6c-.28 2.53-.65 5.13-.8 7.57s-.09 5 0 7.58c.11 5.11.3 10.46-1.29 15.73l-2.68-.83c1.41-4.63 1.29-9.73 1.17-14.83-.06-2.57-.11-5.17 0-7.81s.53-5.17.82-7.74L796 608c.27-2.53.54-5.09.69-7.58l.48-7.71c.72-10.29 2.08-20.53 3.59-30.68l2.24-15.24a123.21 123.21 0 012.86-15.27c1.28-5 2.87-10 4.56-14.83s3.57-9.76 5.65-14.43a152 152 0 005.67-14.16 117.25 117.25 0 003.61-14.76c.92-5 1.62-10.07 2.3-15.16a14.75 14.75 0 00.27-3.44 2.15 2.15 0 00-1.42-1.78 2.42 2.42 0 00-1.23-.21 2.06 2.06 0 00-.57.11s-.26.13-.15.06a.71.71 0 00.28-.35l-.83 3.6-6.92 30-3.46 15-1.73 7.51c-.16.65-.26 1.19-.47 1.93A4.69 4.69 0 01810 513a2.73 2.73 0 01-3.58-.13 5.39 5.39 0 01-1.33-2.23q-5-14.69-8.46-29.75l-.85-3.77-.21-.94c-.08-.32 0 .15.15.22a.85.85 0 00.54.25l-1.67.19a27.3 27.3 0 00-3.58.68 14.57 14.57 0 00-1.65.57c-.26.11-.52.23-.76.36-.5.3.16-.11.11-.41-.06-.59.09.12.18.32l.3.89.64 1.78c.44 1.18.91 2.35 1.4 3.52 1 2.34 2 4.67 3.09 7a95 95 0 015.56 14.58 59.29 59.29 0 011.84 15.6 91.91 91.91 0 01-1.43 15.49c-.8 5.11-1.55 10.24-2.64 15.23a244.35 244.35 0 00-4.22 30.34c-1.68 20.39-1.72 41-3.94 61.49zm-21.14 16c-17.14 0-63.12-4.87-76-8.21l.91-3.53c13.16 3.4 64 8.64 77.73 8l.16 3.64c-.85.1-1.77.1-2.8.1zm-9.98 17.49c-24.61 0-59.84-5.27-61.56-5.53l.63-4.16c.48.08 48.39 7.25 71.23 5.07l.4 4.18c-3.19.3-6.81.44-10.7.44zm30.7 9.51c-2.38 47-6.78 93.91-11.7 140.7l-7.71 70.15c-2.52 23.38-5.49 46.74-7.25 70.12-.85 11.69-1.38 23.39-1.42 35.11v8.79l.08 4.39c.06 1.42 0 3.07.19 4.14s.55 1.42 1.23 1.56a3.18 3.18 0 002.47-1c1.32-1.39 1.37-4.26 1.24-7.15-.67-23.67 1.37-47.23 3.56-70.64 2.34-23.4 4.08-46.86 7.29-70.25l1.32-8.75.76-4.42a16.51 16.51 0 011.66-4.52 15.53 15.53 0 013-3.78 39.2 39.2 0 013.43-3 87.73 87.73 0 017.31-5 33.92 33.92 0 003.21-2.75l1.53-1.51c.38-.4.13-.14.19-.17s.07.16-.06 0l-2.42-3.68-1.19-1.87a.83.83 0 001.28 0c.17-.22.06-.09 0 0l-.2.3a3.92 3.92 0 01-.42.53 29 29 0 01-16.55 8.07l-1.77.15.3-1.78c8.54-50.84 13.07-102.34 14.75-153.86l2.8.08c-1.68 51.65-6.22 103.25-14.79 154.25l-1.47-1.64a22.52 22.52 0 007.86-2.4 23.16 23.16 0 006.73-4.68 1.5 1.5 0 00.26-.33l.41-.58a2 2 0 013.16.31l1.21 1.84 2.42 3.68a2.83 2.83 0 01.48 2 3 3 0 01-.94 1.67l-1.6 1.59a36.44 36.44 0 01-3.48 3c-2.63 1.74-4.94 3.15-7.2 5s-4.42 3.71-5.63 6a13.47 13.47 0 00-1.35 3.72l-.71 4.28-1.28 8.7c-3.08 23.24-4.73 46.73-7 70.14s-4.07 46.84-3.33 70.23a32.29 32.29 0 01-.08 4.68 8.85 8.85 0 01-2.1 5 6.63 6.63 0 01-5.5 2.07 4.85 4.85 0 01-3-1.62 5.86 5.86 0 01-1.25-2.85 44.9 44.9 0 01-.26-4.66l-.09-4.43-.08-8.85c0-11.8.45-23.61 1.37-35.38 1.85-23.53 4.9-46.85 7.48-70.23l7.93-70.1c5.06-46.75 9.6-93.57 12.12-140.5z"/><path class="cls-11" d="M765.71 661.65a3.78 3.78 0 00.95 2.64 6.39 6.39 0 002.28 1.45 21 21 0 005 1.15c3.43.42 7.07.55 10.89.66s7.72.19 11.87.55a30.14 30.14 0 006.9.06 5 5 0 002.34-1.09 4.72 4.72 0 001.44-2.31 10.46 10.46 0 00.23-4.16 7.44 7.44 0 00-1.93-4 10 10 0 00-3.27-2.3 22.74 22.74 0 00-6.72-1.75 68 68 0 00-12.32-.11 44.83 44.83 0 00-11 2 13.53 13.53 0 00-4.63 2.54 5.83 5.83 0 00-2.08 4.66h1.69c.11-2.43 2.75-3.94 5.79-4.68a49 49 0 0110.34-1.13 76.81 76.81 0 0111.65.54c3.79.52 8.2 2 8.52 4.85a7.07 7.07 0 01-.11 2.4c-.24.56-.08.44-.8.69a30.77 30.77 0 01-5.83 0c-4.18-.26-8.35-.23-12.12-.1s-7.39.2-10.66.07a21.07 21.07 0 01-4.5-.58c-1.38-.38-2.19-1-2.28-2z"/><path class="cls-11" d="M766.71 673.76c.09-2.51 2.86-4.07 6-4.83a50.24 50.24 0 0110.64-1.22c3.82-.1 8 0 12.16.18a21.25 21.25 0 015.84.94c1.58.63 2.13 1.52 2.35 3.56a10.32 10.32 0 01-.05 2.71c-.24.56-.09.44-.86.72a31.41 31.41 0 01-6 .15c-4.29-.15-8.52-.1-12.46.12s-7.64.54-11 .55-6.61-.38-6.63-2.88H765a10.22 10.22 0 00.11 1.33 4.43 4.43 0 00.6 1.33 5 5 0 002.26 1.77 16.73 16.73 0 005.24 1.09c3.56.28 7.28.16 11.18.16s7.94.09 12.22.34a30.91 30.91 0 007.07-.13 5.21 5.21 0 002.35-1.16 4.89 4.89 0 001.44-2.42 12.93 12.93 0 00.16-4.07 8.69 8.69 0 00-1.32-4.11 7.28 7.28 0 00-3.57-2.73 23.23 23.23 0 00-7.07-1.08 125 125 0 00-12.52.28 46.47 46.47 0 00-11.24 2 13.84 13.84 0 00-4.75 2.59 5.9 5.9 0 00-2.16 4.77z"/><path class="cls-11" d="M771.7 683.32c.11-.77.84-1.47 1.94-2a15.7 15.7 0 013.73-1.13 53.12 53.12 0 019.07-.76c3.22 0 6.79.07 10.34.19a23.13 23.13 0 015 .58c1.4.51 1.67.83 1.91 2.49 0 .36 0 .84.06 1.19s0 .42 0 .37a2.43 2.43 0 01-1.12.4 35.2 35.2 0 01-5.19.37l-10.44.22c-3.31.08-6.43.15-9.28 0a21 21 0 01-3.93-.48 4.58 4.58 0 01-1.46-.59 1.39 1.39 0 01-.59-.9H770a3.2 3.2 0 001 2.38 6.19 6.19 0 002 1.19 21.05 21.05 0 004.37 1 93.21 93.21 0 009.51.71c3.35.11 6.81.2 10.5.23a34 34 0 005.89-.32 7.62 7.62 0 001.81-.53 4.38 4.38 0 002-1.65 4.64 4.64 0 00.64-2.38 16 16 0 00-.08-1.7 6.93 6.93 0 00-1.37-3.69 6.61 6.61 0 00-3.38-2.13 24.84 24.84 0 00-6-.63c-3.73 0-7.17.06-10.59.27a46.57 46.57 0 00-9.56 1.56 16.66 16.66 0 00-4.18 1.78 4.65 4.65 0 00-2.55 3.88zm5.86-28.95a6.93 6.93 0 01-4.5-6.45 5.56 5.56 0 011.55-4.09 7 7 0 014.52-1.77c3.74-.27 7.29 1.57 8.09 4.28s-.8 5.72-2.89 7.16l.81 1.49a9.06 9.06 0 004-3.21 8.17 8.17 0 001.3-6.24 8.9 8.9 0 00-4.32-5.78 12.81 12.81 0 00-7.27-1.66 10.26 10.26 0 00-7.06 3.12 8.77 8.77 0 00-2.12 6.93 9 9 0 002.75 5.62 8.54 8.54 0 004.68 2.24z"/><path class="cls-12" d="M404.82 736.7l-.17-.42-3.83-1.72c-1.11-.46-1.5.45-2.56 2.87l-.13.31c-1.93 4.43-6 13.67-12.05 29-3.24 8.25-6.76 17.4-10.55 28.45l-.32.92c-.86 2.52-1.74 5.12-2.57 7.82-1 3.07-2 6.27-2.83 9.47-.79 2.63-1.42 5.33-2.08 8.18l-1.5 7.71c-.11.63-.17 1.29-.22 2 0 .33-.05.66-.09 1l-.14 1.76-1.37 1.11c-1 .85-2.25 1.93-3.64 3.25a63.22 63.22 0 00-9.36 11.12 42.55 42.55 0 00-6.93 17.93 31.66 31.66 0 00.29 10.77 18 18 0 005.5 9.93c1.08.92 2.6 1.91 3.62 1.91a1.29 1.29 0 00.35 0l.5-.16.21-.44c.4-.87-.33-1.42-.87-1.83a20.3 20.3 0 01-1.88-1.64 15.18 15.18 0 01-4.2-8.43 29.05 29.05 0 01.05-9.62 39.1 39.1 0 016.77-16.12 55.42 55.42 0 019-10.07c1.2-1.06 2.41-2.05 3.52-2.86.37-.28.71-.52 1-.73l1.72-1.14.37-.45.46-3.83c0-.33.07-.67.1-1 0-.54.1-1.08.2-1.61l1-5.25.57-2.26c.66-2.69 1.29-5.24 2.08-7.74.9-3.15 1.88-6.26 2.9-9.27.83-2.6 1.71-5.09 2.57-7.5l.39-1.09c3.84-10.75 7.45-19.85 10.78-28.08 6.07-14.81 10.12-24 12.07-28.4l.26-.59c1.19-2.69 1.19-2.87 1.01-3.26z"/><path class="cls-12" d="M377.13 896.63c-.08-.54-.56-.75-1.46-.63h-.17a37.38 37.38 0 01-5 .45 19.39 19.39 0 01-8.6-1.58c-3.08-1.37-5.59-4.57-6.72-8.56a35 35 0 01-.6-14c.07-.45.24-1.52-.57-1.71s-1.14.84-1.28 1.3a33.8 33.8 0 00-1.1 15.24 18.65 18.65 0 002.81 7 15.17 15.17 0 005.3 4.86 22.59 22.59 0 0010.75 2.62h.77a37.32 37.32 0 005.13-.36c.88-.1 1.07-.35 1.15-.46l.19-.26z"/><path class="cls-12" d="M366.2 865a107.75 107.75 0 001.42 13.61 33.27 33.27 0 004.6 12.27 19.55 19.55 0 009.55 7.62 29.16 29.16 0 0012.57 1.25l-.6.13a2.77 2.77 0 001.24-1.06 2 2 0 000-1.58 13 13 0 00-3.3-4.78c-.73-.76-1.59-1.51-2.52-2.43s-1.74-1.78-2.54-2.73a51.58 51.58 0 01-4.45-6 44.89 44.89 0 01-3.53-6.61 22.64 22.64 0 01-1.93-7.71 9.22 9.22 0 011-4.67 6.76 6.76 0 014.17-3.28 11.5 11.5 0 014.52-.28 7.1 7.1 0 012.5.75 5.19 5.19 0 012.26 2.28 10.91 10.91 0 01.82 4.44 11.11 11.11 0 00.39 2.9 5.72 5.72 0 003.47 3.46 17 17 0 0012 .43c1.83-.73 2.83-1.78 2.81-3s-1-3.19-2.28-4.8c-2.6-3.27-6.49-5.24-10.83-7a42.17 42.17 0 01-6.73-3.26 13.07 13.07 0 01-5.33-6.4 17.49 17.49 0 01-.82-7.91c.2-2.47.56-4.86 1-7.23a267.29 267.29 0 016.77-27.75c2.71-9.1 5.72-18.11 9.13-27 1.72-4.43 3.54-8.83 5.56-13.16a74.55 74.55 0 017.07-12.5l2.24 1.68a71.83 71.83 0 00-6.57 12.18c-1.9 4.27-3.61 8.65-5.22 13.06-3.21 8.83-6 17.81-8.53 26.87a270.51 270.51 0 00-6.36 27.38c-.36 2.29-.68 4.58-.84 6.83a13.46 13.46 0 00.63 6c1.25 3.59 5.3 5.31 9.71 7.05s9.3 4 12.7 8.21c1.59 2 3.34 4.38 3.39 7.89a7.15 7.15 0 01-2 4.74 10.46 10.46 0 01-3.8 2.49 20 20 0 01-7.92 1.24 21.24 21.24 0 01-7.78-1.7 13 13 0 01-3.64-2.4 9.42 9.42 0 01-2.45-4 15.66 15.66 0 01-.62-4.1 8.22 8.22 0 00-.32-2.5c-.07-.12-.05-.09-.2-.18a2.81 2.81 0 00-.89-.23 7 7 0 00-2.5.14 1.82 1.82 0 00-1.26.94 4.47 4.47 0 00-.37 2.19c.23 3.81 2.36 8.11 4.73 11.81a47 47 0 004.05 5.38c.73.85 1.51 1.65 2.29 2.44s1.68 1.55 2.59 2.48a17.39 17.39 0 014.54 6.87 6.81 6.81 0 01-2.12 7.44 7.92 7.92 0 01-2.29 1.35l-.27.11h-.33A32.12 32.12 0 01380 903a22.39 22.39 0 01-11.21-10 36.76 36.76 0 01-4.03-14 38 38 0 011-14.07z"/><path class="cls-11" d="M534.63 586.24c-12.8-.74-28.29-2.32-44.87-7.06s-34.14-12.65-49.76-25.06A111 111 0 01406.93 510c-6.6-15.84-8.64-31.31-9.44-44.05H395c-.25 13 1 29.09 7.29 45.9a109.74 109.74 0 0034.05 46.93 137 137 0 0052.17 25.3 173.33 173.33 0 0046.17 4.73z"/><path class="cls-11" d="M671.62 459.52c-.06 3.3 0 6.77-.43 10.38s-.45 7.39-1.07 11.25-1.4 7.85-2.25 11.93c-1.23 4-2.33 8.15-3.72 12.33a113.47 113.47 0 01-32.51 46.71c-15.64 13.35-33.84 21.63-50.79 26.68s-33 6.71-46.22 7.44v2.54a171.7 171.7 0 0047.57-5.13c17.65-4.62 36.86-12.95 53.31-27a112.12 112.12 0 0033.4-49.6c1.32-4.42 2.31-8.8 3.4-13 .7-4.28 1.19-8.45 1.74-12.45s.28-7.91.42-11.61a96 96 0 00-.31-10.6zm-276.03 17.06a29.54 29.54 0 01-10.56 5.9 27.93 27.93 0 01-13.67.71 25.56 25.56 0 01-7-2.37 25.87 25.87 0 01-6.33-4.35 26.81 26.81 0 01-8.03-13.75c-1.25-5.4-.89-11.11 1.29-15.56a20.42 20.42 0 0110.78-9.5 41.18 41.18 0 0113.76-2.85 43.77 43.77 0 0112.32 1.08l.77-2.41a40.73 40.73 0 00-13.08-2.63 41.93 41.93 0 00-15.6 2.15 25 25 0 00-14.05 11.59 28.64 28.64 0 00-2 19.52 31.44 31.44 0 0010.05 16.66 30.11 30.11 0 007.83 5 29.1 29.1 0 008.5 2.42 30.6 30.6 0 0015.82-2 29.8 29.8 0 0011-7.83z"/><path class="cls-11" d="M353.69 454.72c.2.07.45-.08.67-.37a25.28 25.28 0 015.5-5.53 18.69 18.69 0 019.16-3.31 29.68 29.68 0 0110 1c1.48.47 2.94.73 4.21 1.21s2.44.84 3.49 1.15c.36.11.67.06.77-.12s0-.45-.36-.67c-.9-.63-2-1.31-3.17-2a34.68 34.68 0 00-4.17-2 24.47 24.47 0 00-11.09-1.72 18 18 0 00-10.48 4.48 17.16 17.16 0 00-4.69 7.12c-.09.36-.03.69.16.76z"/><path class="cls-11" d="M365.49 444.51a.49.49 0 00-.63-.07 10.35 10.35 0 00-4 4.43 14.64 14.64 0 00-1.39 7.79 19.54 19.54 0 002.17 7.42 21.48 21.48 0 003.27 4.75.46.46 0 00.59.15.51.51 0 00.18-.6c-.81-2.88-2.66-7.14-3-12a16.94 16.94 0 012.82-11.28.51.51 0 00-.01-.59zM672 477.48c-.27.26.07 1.11.93 2a28.4 28.4 0 0010.22 6.8 30.12 30.12 0 0015.07 1.72 29.26 29.26 0 008.29-2.39 30 30 0 007.73-4.93 31.28 31.28 0 0010-16.6 28.51 28.51 0 00-2-19.45 24.63 24.63 0 00-13.76-11.41 39.32 39.32 0 00-14.9-2.08 39.92 39.92 0 00-12 2.18c-1.16.42-1.85 1-1.72 1.37s1 .44 2.14.26a48 48 0 0111.48-.36 40.16 40.16 0 0113.17 3.08 20.49 20.49 0 0110.5 9.53c2.13 4.44 2.5 10.12 1.25 15.53a27.48 27.48 0 01-14.22 18.1 26.07 26.07 0 01-6.84 2.44 28.8 28.8 0 01-13.23-.25 30.77 30.77 0 01-10.19-4.8c-.92-.68-1.68-1.03-1.92-.74z"/><path class="cls-11" d="M714.75 454.72c.19-.07.25-.4.13-.77a17.16 17.16 0 00-4.69-7.12 18 18 0 00-10.47-4.48 24.49 24.49 0 00-11.1 1.72 34.68 34.68 0 00-4.17 2c-1.21.73-2.27 1.41-3.17 2-.31.22-.46.49-.36.67s.41.23.77.12c1-.31 2.22-.69 3.49-1.15s2.73-.74 4.21-1.21a29.68 29.68 0 0110-1 18.69 18.69 0 019.16 3.31 25.06 25.06 0 015.5 5.53c.25.3.5.45.7.38z"/><path class="cls-11" d="M703 444.51a.53.53 0 000 .61 16.94 16.94 0 012.82 11.28c-.38 4.84-2.23 9.1-3 12a.51.51 0 00.18.6.46.46 0 00.59-.15 21.48 21.48 0 003.27-4.75 19.54 19.54 0 002.17-7.42 14.64 14.64 0 00-1.39-7.79 10.35 10.35 0 00-4-4.43.49.49 0 00-.64.05zm-243.75-17.06a38 38 0 0110 1.78 34 34 0 019.63 5.2 33.07 33.07 0 0112.38 20.21c1.59 8.37-.24 18-6.39 24.91s-15.87 10.82-25.79 10.77-19.77-3.75-26.15-10.4a23.15 23.15 0 01-6-11.7c-.82-4.26 0-8.67.93-12.94 2-8.45 6.12-15.94 12-20.78a28.66 28.66 0 019.49-5.32 37.37 37.37 0 0110-1.73v-1.69a38.27 38.27 0 00-10.61 1.32 30.79 30.79 0 00-10.5 5.36c-6.57 5.06-11.26 13.09-13.57 22a50.74 50.74 0 00-1.36 6.9 25.85 25.85 0 006.93 21.16c7.24 7.68 18 11.65 28.92 11.77s21.87-4.16 28.66-12.25a31.34 31.34 0 006.75-13.61 35 35 0 000-14.42 35.55 35.55 0 00-24.66-26.87 38.31 38.31 0 00-10.61-1.38zm152.23-1.9c6.35.26 13.76 1.25 19.67 5.84s9.29 12.33 10.65 20.82a31 31 0 01-31.32 36.17c-9.82-.19-19.36-4.24-25.1-11.36-5.93-7-7.41-16.56-5.77-24.79a32.94 32.94 0 0112.48-19.85 34.62 34.62 0 019.55-5.09 38.25 38.25 0 019.84-1.74v-1.69A38.53 38.53 0 00601 425.2a36.13 36.13 0 00-10.46 5.05 35.35 35.35 0 00-14.21 21.29 35.76 35.76 0 00-.22 14.26 30.64 30.64 0 006.32 13.62 33.37 33.37 0 0012.36 9.48 40.85 40.85 0 0015.6 3.45 34.49 34.49 0 0027.88-13 33.81 33.81 0 006.58-13.45 34.86 34.86 0 00.26-14.26 46.24 46.24 0 00-4.18-12.67 27.35 27.35 0 00-8.2-9.67 27.69 27.69 0 00-10.73-4.59 49.19 49.19 0 00-10.48-.85z"/><path class="cls-11" d="M469.22 461.36a12.33 12.33 0 01-7-22.47 22.17 22.17 0 00-3.07-.25 20.82 20.82 0 1020.82 20.82 21.43 21.43 0 00-.36-3.78 12.32 12.32 0 01-10.39 5.68zm151.49-1.9a12.33 12.33 0 01-7-22.47 22 22 0 00-3.06-.25 20.82 20.82 0 1020.82 20.82 21.43 21.43 0 00-.36-3.78 12.32 12.32 0 01-10.4 5.68zM516.5 475.48c-.26-.06-.54.26-.7.79a12.45 12.45 0 00-.47 5.52 12.24 12.24 0 002.92 6.35c3.36 3.91 9 6.16 14.93 6.14s11.63-2.22 14.91-6.19a13.87 13.87 0 003-6.24 15.08 15.08 0 000-5.5c-.1-.54-.33-.89-.59-.87s-.48.4-.53.91a14.54 14.54 0 01-4.23 9.52c-2.89 2.81-7.58 4.42-12.57 4.4s-9.7-1.64-12.62-4.36a12.12 12.12 0 01-3.66-9.5c.03-.51-.14-.91-.39-.97zm89.2 34.71c-.26.06-.41.73-.4 1.63-.48 5.34-4.44 11.56-10.17 17.16a59.48 59.48 0 01-22.64 13.83 46.83 46.83 0 01-26.2 1 59.73 59.73 0 01-18.65-8.63c-.8-.52-1.47-.74-1.63-.54s.21.78.94 1.43a49.46 49.46 0 0018.48 10.82 46 46 0 0028.29-.32 56.32 56.32 0 0023.72-15.39c5.69-6.28 9.36-13.41 9-19.41-.18-1-.5-1.64-.74-1.58zM492.84 404.06a86.29 86.29 0 00-33.78-3 82.54 82.54 0 00-20 4.6 80.51 80.51 0 00-10 4.4l-3.63 1.94c.22 1.37.44 2.74.67 4.12.34 2.13.7 4.28 1 6.44l.58 3.53c1.61-.87 3.36-1.87 4.84-2.57l2.4-1.15c1.61-.73 3.22-1.44 4.84-2.08 3.22-1.34 6.48-2.44 9.68-3.48a105.22 105.22 0 0118.83-4.1 84.61 84.61 0 0117.23-.43 35.67 35.67 0 013.94.45l2.33.34 1.48.22.73.11c.13-.09.06-.46.1-.67.07-1.59.14-3.15.21-4.67 0-.61 0-1.2.07-1.79a2.12 2.12 0 00-1.57-2.22l-.45 1.63c.17.09.25.19.2.46-.06.59-.12 1.18-.19 1.78s-.12 1.21-.19 1.83l-.12.9c-.16.34-3.66-.78-6.26-1a80.7 80.7 0 00-17.87-.28 100.67 100.67 0 00-19.57 3.78c-3.32 1-6.69 2.12-10 3.47a94.91 94.91 0 00-5 2.13c-.84.39-1.68.76-2.51 1.18h-.07c-.25-1.51-.5-3-.74-4.51l-.22-1.3 1.11-.57a81.94 81.94 0 019.49-4.32 85 85 0 0119.05-4.84 94 94 0 0132.92 1.26zm79.76.55a95 95 0 0132.85-1.94 85.22 85.22 0 0128.68 8.54l.56.27-.09.6-.18 1.37-.42 2.75-.15 1.13h-.08c-.85-.4-1.7-.75-2.55-1.12-1.71-.7-3.41-1.38-5.12-2-3.4-1.26-6.83-2.27-10.2-3.19a101.25 101.25 0 00-19.83-3.21 82.86 82.86 0 00-18 .88c-1.4.15-2.73.57-4.05.84l-.87.2-.39.11-.43.12c-.06-.08 0-.25-.08-.38s-.27-1.88-.43-3c-.1-.71-.14-.9 0-1.26a1.24 1.24 0 01.73-.69l-.47-1.62a3 3 0 00-1.89 1.5 3.83 3.83 0 00-.31 2.27c.1 1.44.21 2.92.32 4.43a6 6 0 00.19 1.43l1.48-.27 2.61-.46c1.3-.19 2.59-.53 4-.61a87.24 87.24 0 0117.38-.14 106.82 106.82 0 0119.14 3.51c3.25 1 6.56 2 9.84 3.21 1.65.59 3.29 1.27 4.93 1.95l2.44 1.08c1.49.65 3.3 1.61 4.93 2.43.06-.47.18-1.35.3-2.23q.48-3.58 1-7.12l.46-3.46.18-1.35-1.22-.59-1.88-.9a83.7 83.7 0 00-30.1-8.36 87.11 87.11 0 00-33.75 3.67z"/><path class="cls-11" d="M528.07 371.34a118.75 118.75 0 0024.9-4 105.37 105.37 0 0012.79-4.42c4.28-1.76 8.4-4 12.61-5.83a38.65 38.65 0 0113.25-3.66 37.69 37.69 0 0136.44 20.64 60 60 0 004.26 7 18.73 18.73 0 006.44 5.7c2.52 1.32 4.82 2.41 6.21 4.5a16.94 16.94 0 012.53 7.34c1.32 11 2.55 22.54 3.76 34.17q1 8.73 2 17.63l1.2 9.45c.18 1.51.45 2.93.71 4.36l.05.26c0 .09.16 0 .24 0l.55-.06 1.1-.13 2.2-.26c1.8-.24 2.27-.33 3.06-.47s1.52-.3 2.28-.47a62.58 62.58 0 009-2.83 34.46 34.46 0 004.5-2.06 8.38 8.38 0 002.31-1.83 6.34 6.34 0 001-2.9c.79-6.56.28-12.67 0-19s-.79-12.49-1.43-18.64c-.31-3.07-.7-6.13-1.12-9.18s-.83-5.94-1.65-9.3c-1.93-6.74-6.11-11.51-7.65-16.44-.89-2.47-.84-4.56-.61-7.65.19-2.9.4-6.65-1.32-10.15a18.33 18.33 0 00-7.14-7.44 43.05 43.05 0 00-8.47-3.78c-5.52-1.88-10.48-3.53-13.58-7.16-3.43-3.6-4.75-8.24-5.32-13.55s-1-11.34-3.91-16.68a26 26 0 00-5.3-7 42 42 0 00-6.63-5.14 40.51 40.51 0 00-7.39-3.7 22.61 22.61 0 00-8.38-1.62c-5.7.42-10.32 1.94-15.06 3a38.62 38.62 0 01-13.5 1.11c-9-.86-17.5-4.1-25.84-6.66s-16.8-4.54-25-3.9l.15 2.53c7.68-.28 15.62 1.79 23.73 4.66s16.67 6.41 26.45 7.65c10.06 1.68 20.17-2.77 29.16-3.33 4.14 0 8.79 2.16 12.82 4.77s7.82 6 9.85 10.24c2.24 4.19 2.55 9.21 3.13 14.81a38.58 38.58 0 001.81 8.74 24 24 0 0012.55 13.77 79.87 79.87 0 008.28 3.19 38.31 38.31 0 017.29 3.26 12.43 12.43 0 014.87 4.93c.92 1.82.94 4.21.73 7.14-.26 2.77-.3 6.77.92 9.93 2.25 6.42 6.32 11.08 7.65 16.11.63 2.52 1.11 5.72 1.64 8.63s1 6 1.53 9c1 6 2 12.11 2.81 18.25s1.41 12.41.74 18.08c-.11.6-.3 1.47-.39 1.41a5.07 5.07 0 01-1.38.87 18.39 18.39 0 01-4 1.19c-2.88.55-5.87.8-8.81 1.15l-3.62.46s-.09 0 0 0 0 0 0-.05l-.08-.56-.17-1.11-.34-2.21-.71-4.42-3-17.45c-2-11.55-4.15-22.75-5.82-34a20.08 20.08 0 00-3.1-8.27 12.34 12.34 0 00-3.32-3.13c-1.25-.8-2.52-1.4-3.67-2.05-4.66-2.38-7.15-7.21-9.64-11.89a51.71 51.71 0 00-4.26-7 38.54 38.54 0 00-5.58-5.9 41 41 0 00-13.76-7.78 40.2 40.2 0 00-15.25-2 42 42 0 00-14.4 3.68c-4.43 1.88-8.51 4-12.63 5.61a110.37 110.37 0 01-12.4 4.11 123.65 123.65 0 01-24.12 3.82z"/><path class="cls-11" d="M522.2 290.59a66.85 66.85 0 00-22.57 4.68 58.11 58.11 0 00-20.82 14.5 39.67 39.67 0 01-9.65 7.84c-1.83 1.11-3.77 2.14-5.76 3.19a30.53 30.53 0 01-5.87 2.57c-4.11 1.36-8.94 2.09-13.68 4.6a19 19 0 00-6.26 5.37 25.47 25.47 0 00-3.49 7.3c-1.56 5-2.11 9.87-3.88 14a31.93 31.93 0 01-7.87 11.36c-3.45 3.28-7.49 5.34-12.42 7.18-2.5 1-5.73 2.53-7.67 5.87a14.92 14.92 0 00-1.25 9.7c.47 2.94 1.31 5.51 1.69 7.87a10.25 10.25 0 01-.53 6.21 19.44 19.44 0 01-4.38 5.49 44 44 0 00-6 6.5 17.41 17.41 0 00-2.1 4.44 41.25 41.25 0 00-1.17 4.3c-.61 2.84-1.05 5.66-1.39 8.5a170.65 170.65 0 00-1.09 17.12c-.07 2.88 0 5.76.08 8.66q.09 2.16.39 4.41l.35 1.78.28 1c.16.26.59.27.87.41l2.65.81a71.56 71.56 0 017.82 3.06c1.28.56 2.58 1.07 3.89 1.51l2.37.74 1 .29.93.05c.3 0 .64.14.91-.07l.81-.53a7.33 7.33 0 002.54-3 15.31 15.31 0 00.88-2.39 35.11 35.11 0 00.91-4.37c.43-2.85.66-5.62.84-8.36.35-5.49.5-10.87.71-16.19s.43-10.55.92-15.68a60 60 0 012.85-14.71c.83-2.22 2.08-4.26 3.71-5.12a7 7 0 01.84-.45 7.66 7.66 0 001-.56 10.6 10.6 0 001.67-1.35 18.64 18.64 0 002.56-3.14c2.88-4.33 4.61-9.08 7.63-12.48 6.22-7.27 18.31 0 26.37-7.19a26.38 26.38 0 004.87-5.15 25.56 25.56 0 001.86-3c.57-1 1-2.17 1.46-3a2.68 2.68 0 011.77-1.51 5.84 5.84 0 012.71.18l6.2 1.8a150.78 150.78 0 0047.38 5.77l-.23-4a153.9 153.9 0 01-46.5-4.22l-6.34-1.65a8.1 8.1 0 00-3.81-.08 5 5 0 00-3.11 2.67c-.58 1.14-.9 2.1-1.41 3.05a21.66 21.66 0 01-1.67 2.77 23.17 23.17 0 01-4.46 4.77 12.43 12.43 0 01-5.78 2.7 32.41 32.41 0 01-6.81.31 32 32 0 00-7.38.38 13 13 0 00-6.83 3.79c-3.49 3.93-5.31 8.64-8.19 12.48a15.91 15.91 0 01-2.29 2.58 8.8 8.8 0 01-1.29 1 4.07 4.07 0 01-.69.35l-.84.42c-2.95 1.47-4.43 4.17-5.51 6.61a66 66 0 00-3.79 15.5c-.76 5.25-1.28 10.55-1.73 15.87s-.89 10.64-1.35 16c-.26 2.66-.56 5.32-1 7.88a31.12 31.12 0 01-.82 3.65 9.78 9.78 0 01-.57 1.48v-.07c0-.07-.26-.13-.6-.22l-1-.29c-1.34-.36-2.7-.65-4.08-.9a69.67 69.67 0 01-8.2-1.79c-.59-.18-1.65-.48-1.33-.47s0 .14-.06-.29a39.56 39.56 0 01-.25-4c0-2.74.08-5.52.31-8.31.44-5.58 1.18-11.12 2.13-16.53.47-2.71 1-5.38 1.62-8a22.45 22.45 0 012.48-6.74 39.38 39.38 0 015.22-5.55 24.8 24.8 0 005.67-7.29 16.29 16.29 0 001-9.67c-.5-3-1.34-5.5-1.7-7.83a14.06 14.06 0 01-.19-3.24 7 7 0 01.72-2.57c.73-1.36 2.48-2.44 4.74-3.35 4.83-1.8 10.21-4.53 14.14-8.41a37.32 37.32 0 009.14-13.48c2.06-5.13 2.52-10.2 3.85-14.52a19.94 19.94 0 012.62-5.79 13.62 13.62 0 014.44-3.94c3.63-2.05 8.17-2.92 12.73-4.49a35.37 35.37 0 006.57-3c2-1.1 4-2.23 5.92-3.47a44.34 44.34 0 0010.44-8.9 55.13 55.13 0 0119-14.18 65.15 65.15 0 0121.38-5.3z"/><path class="cls-12" d="M559.25 892.06c-.6-33.12 1.66-52.29 6.7-57a4.61 4.61 0 013.6-1.32c2.74.25 11.08 1 18.56 56.06l-2.77.38c-6.67-49-14-53.46-16-53.65a1.72 1.72 0 00-1.44.58c-2.49 2.32-6.57 12.53-5.81 54.87z"/><path class="cls-11" d="M527.85 719.19c11.7.35 25.87.64 41.74.84l6 .07h3.85a1.08 1.08 0 01.29 0 .87.87 0 01.41.27 1.48 1.48 0 01.13.21l.28.69.56 1.42c.36 1 .71 1.93 1 2.92.65 2 1.22 4 1.69 6a41.15 41.15 0 011.2 12.66 18.47 18.47 0 01-4.5 11.28 20.35 20.35 0 01-10.83 5.79 44.91 44.91 0 01-12.65.94c-8.39-.23-16.42-2.49-22-7.39a24.43 24.43 0 01-6.29-8.74 33.8 33.8 0 01-1.76-5 47.72 47.72 0 01-.9-5.07 50 50 0 01-.21-9.83c.1-1.57.28-3.11.5-4.61l.18-1.11a1.52 1.52 0 01.23-.71 1.45 1.45 0 011.15-.66v-1.66a3.21 3.21 0 00-2.64 1.3 3.36 3.36 0 00-.59 1.38l-.25 1.15c-.31 1.53-.58 3.11-.76 4.74a49.44 49.44 0 00-.23 10.3 48 48 0 00.75 5.46 37.2 37.2 0 001.74 5.5 27.2 27.2 0 006.82 10c6.3 5.79 15.27 8.37 24.13 8.72a48.11 48.11 0 0013.71-.91 24.15 24.15 0 0012.88-6.95 22.24 22.24 0 005.48-13.64 43.92 43.92 0 00-1.32-13.74 65 65 0 00-1.88-6.36c-.35-1-.74-2-1.14-3.06l-.62-1.49-.33-.76a4.45 4.45 0 00-2.9-2.46 4.19 4.19 0 00-1.24-.16h-3.85l-6 .07c-15.87.2-30 .48-41.74.83zM493.68 825.9a.94.94 0 011-.34l2.14.16 4.43.38c3 .28 6.16.59 9.42 1s6.62.82 10.05 1.43a54.67 54.67 0 0110.2 2.59 5.52 5.52 0 011.09.53 2.66 2.66 0 01.86.57 1.5 1.5 0 01.53.57 5.41 5.41 0 01.34 1 21.39 21.39 0 01.42 5.31 76.78 76.78 0 01-1.27 11.66 96.71 96.71 0 01-2.89 11.9 54.76 54.76 0 01-2.15 5.78 19.14 19.14 0 01-3 5 5.08 5.08 0 01-.85.75l-.38.2-.58.2a18.56 18.56 0 01-2.83.47 50.18 50.18 0 01-6.14.09 95 95 0 01-12.16-1.34 62.5 62.5 0 01-11.3-2.88 20.79 20.79 0 01-2.42-1.1 4.87 4.87 0 01-1.51-1.2c-.07-.05 0-.07-.06-.09s0-.37 0-.55v-1.31c0-.89 0-1.82.07-2.73a187.46 187.46 0 012.31-20.86c1.14-6.4 2.36-12.44 4.7-17.19l-1.46-.85c-2.88 5-4.38 11.06-5.83 17.54a167.16 167.16 0 00-3.11 21.11c0 1-.13 1.91-.14 2.91v1.54a8.08 8.08 0 00.07.88 4.33 4.33 0 00.43 1.24 7.46 7.46 0 002.78 2.58 22.42 22.42 0 002.88 1.4 64.16 64.16 0 0011.95 3.26 94.55 94.55 0 0012.66 1.49 51.43 51.43 0 006.67-.08 21.09 21.09 0 003.54-.59l1-.32c.34-.15.72-.36 1.07-.55a9.17 9.17 0 001.61-1.38 22.24 22.24 0 003.71-6.09 58.41 58.41 0 002.29-6.22 97.61 97.61 0 002.89-12.42 77.57 77.57 0 001.13-12.28 24.3 24.3 0 00-.67-6.25 8.18 8.18 0 00-.65-1.7 4.66 4.66 0 00-1.34-1.54 5.47 5.47 0 00-1.49-1 10.23 10.23 0 00-1.45-.66 54.81 54.81 0 00-11-2.46c-3.54-.51-7-.81-10.27-1.07s-6.48-.42-9.53-.54l-4.47-.13h-2.16a2.68 2.68 0 00-2.56 1.31z"/><path class="cls-12" d="M502.59 630.17l-.48-.95-1.55-2.91-.6-.1c-.25 0-1.08-.19-5.06 3-2.31 1.82-5.66 4.59-11.25 9.29a190.56 190.56 0 01-18.23 13.77c-4.2 2.87-8.79 5.86-13.7 9.07-3.8 2.48-7.78 5.08-11.92 7.84l-.41.28c-9.22 6.25-19.66 13.33-29.19 22.8-4.11 4.18-9.21 10-12.18 17.62a27.66 27.66 0 00-1.9 11.29 19.34 19.34 0 00.28 4.13c.08.57.16 1.13.23 1.76a16.62 16.62 0 00.44 1.95c.09.3.17.61.25 1l.15.57a13.66 13.66 0 00.72 2.24 42 42 0 005.71 10.47 59.92 59.92 0 008.24 8.69 81.9 81.9 0 0020.8 12.69 9.21 9.21 0 0010.53-3.67l19.44-28.52 2.16 9.06q1.4 6.13 2.62 12.34c1.71 8.86 3.16 16.86 3.52 25 .06 2.15 0 3.67-.09 4.66-.08 1.23-.13 2.2.77 2.45l.64.26.56-.37c1.41-.92 1.41-6.79 1.41-7.07-.16-8.57-1.57-17-3.13-25.61-.73-4-1.56-8-2.53-12.49l-1.39-6.19-2.81-11.25-25 35.14a4.66 4.66 0 01-1.47 1.43 4.45 4.45 0 01-3.69.48 80.91 80.91 0 01-19.33-11.87 56.12 56.12 0 01-7.54-7.89 37.14 37.14 0 01-5.08-9.35 10.14 10.14 0 01-.56-1.79l-.14-.52c-.07-.32-.16-.64-.24-1a10.88 10.88 0 01-.34-1.46q-.09-.87-.21-1.74a16.42 16.42 0 01-.22-3.45 23.52 23.52 0 011.67-9.55c2.07-5.2 5.64-10.22 11.22-15.8 9.33-9.11 19.8-16 29-22.13 4.28-2.79 8.42-5.42 12.37-7.93 4.81-3.06 9.33-5.93 13.48-8.69a203.71 203.71 0 0018.93-13.86c5.29-4.32 8.86-7.17 11.24-9 1.14-.89 2.14-1.61 2.75-2.06.85-.57 1.59-1.1 1.11-2.06zm193.86 36.53a78.33 78.33 0 00-1.16-9.91l-.24-1a18.72 18.72 0 00-1.16-3.89l-.52-1.29a9.44 9.44 0 00-.58-.93l-.16-.24a7.61 7.61 0 00-2.34-2.41 38.53 38.53 0 00-8.25-3.61l-.64-.22c-3-.95-5.81-1.75-8.51-2.44-6-1.56-11.74-2.83-16.09-3.76-10.5-2.24-20-4-27.86-5.4-15.93-2.83-27.49-4.65-33.7-5.62l-3.56-.52c-1.34-.17-2.33-.29-2.5.85l-.52 3.67c-.18 1.14.84 1.31 2.16 1.53l3 .45c5.71.81 17.57 2.48 34.19 5.25 7.29 1.22 17 2.9 27.73 5.07 4.26.87 9.91 2.06 15.89 3.56 2.57.64 5.27 1.39 8.23 2.29a38.62 38.62 0 017.65 3.14c1.5 1 2.28 3.79 2.91 6.58a73.74 73.74 0 011.14 9.21c.4 5.64.5 11.92.31 19.75-.17 6.56-.51 13.55-1 20.75l-.07.91a9.69 9.69 0 01-.14 1.42 2.3 2.3 0 01-.66 1.19 2.75 2.75 0 01-2.92.57l-33.82-8a6.92 6.92 0 00-2-.14 6.81 6.81 0 00-6 4.71 10.2 10.2 0 00-.36 2.42c0 .27 0 .54-.07.84-.27 3.7-.47 7.59-.6 11.56a275.38 275.38 0 002.29 47c.83 5.4 1.11 6.41 2.09 6.41h.3c1.24-.17 1.29-.87.54-6.77a292.89 292.89 0 01-1.45-46.56c.18-3.92.43-7.76.74-11.37 0-.29 0-.58.08-.87a6.93 6.93 0 01.21-1.51 2.73 2.73 0 011-1.34 2.79 2.79 0 011.53-.56 3.38 3.38 0 01.79.07l33.63 8.4a7.51 7.51 0 003.74.2 7.15 7.15 0 003.43-1.83 7 7 0 001.95-3.44 14.37 14.37 0 00.26-2.07c0-.28 0-.56.07-.9.58-7.22 1-14.28 1.22-21 .2-7.97.16-14.39-.2-20.2zm-179.61-42.89l-.8-4.7a7 7 0 004.78-3.16c4.64-6.89 2.5-22.7 1.28-28.21l4.65-1c.2.89 4.74 21.92-2 31.9a11.59 11.59 0 01-7.91 5.17zm54.81-.18c-19-7.51-12.28-37.4-12-38.67l4.65 1.07c-.07.27-6.06 27.17 9.09 33.17zM504.12 970c-.93-7.53-.05-44.55 0-46.12l4.2.1c0 .38-.91 38.28 0 45.5zm18.2-.23c-.05-1.43-1.33-35.21 0-45.95l4.17.53c-1.31 10.4 0 44.91 0 45.26z"/><path class="cls-11" d="M498.8 971.94a110.4 110.4 0 0119-.38c1.76.16 3.57.34 5.37.68.91.13 1.79.37 2.7.55a1.88 1.88 0 01.33.09h.1c.06 0 .18.06.16.07a.15.15 0 010 .07c0 .06 0-.17-.08.54l-.4 3a36.81 36.81 0 01-1.25 5.68 7.17 7.17 0 01-.3.78v.12l-2.88.33-3.28.31c-2.15.19-4.22.35-6.14.45s-3.72.18-5.28.16c-.76 0-1.49 0-2.06-.11-.36 0-.48-.09-.51 0a.38.38 0 01-.22-.07 3.71 3.71 0 01-.49-.66c-.22-.32-.43-.68-.64-1-.39-.71-.77-1.39-1.1-2.07a41.12 41.12 0 01-1.65-3.81 20.63 20.63 0 01-.95-3.27 8.81 8.81 0 01-.23-1.4c-.16-.09-.25-.22-.19-.1l-.5-2.45a2.62 2.62 0 00-2.12 2.2 11.19 11.19 0 00-.15 2 19.83 19.83 0 00.56 4 33.19 33.19 0 001.36 4.42c.29.79.64 1.6 1 2.45.21.42.42.85.68 1.31a10.26 10.26 0 001.08 1.64 15.16 15.16 0 001.43 1.06 8.75 8.75 0 001.59.51 20.78 20.78 0 002.68.44c1.8.19 3.71.25 5.74.26s4.18-.07 6.41-.18l3.41-.23 1.75-.15.89-.09 1.36-.17a5.27 5.27 0 002.74-1.68 7.47 7.47 0 001-1.7 12 12 0 00.54-1.36 38.15 38.15 0 001.45-6.77c.14-1.08.26-2.15.35-3.2 0-.31.18-1.58.18-2.51v-.74l-.16-.62a2.74 2.74 0 00-.56-1.15 3.21 3.21 0 00-.44-.46l-.62-.23-1.24-.43-1.23-.44a6 6 0 00-1.05-.31c-1-.17-2.08-.38-3.1-.46a50.77 50.77 0 00-5.95-.34 70.54 70.54 0 00-19.68 2.92z"/><path class="cls-12" d="M536.49 1002a46.28 46.28 0 00-3.81-5.18l-.43-.53c-2.15-2.58-4.21-5.21-4.68-7a4.46 4.46 0 01-.1-2.32l.19-1.08-3.66-1.4-.4.91s-.22.5-.53 1.47a9.22 9.22 0 000 3.55c.54 2.91 2.74 6.12 4.93 9.13l.87 1.25c2.08 2.93 4.43 6.24 4 10.05a5.19 5.19 0 01-.81 2.64 3.74 3.74 0 01-2.19 1.34 35 35 0 01-8.11.93h-1.35c-3.7.14-7.53.28-11.62.72a112 112 0 00-12.79 2.32l-3.71.83c-7.46 1.68-15.2 3.43-23.16 3a26.8 26.8 0 01-13-4 19.23 19.23 0 01-8.09-11 17.54 17.54 0 012.13-14c2.56-4.09 7.24-7 12.85-7.93a22.87 22.87 0 018.1 0 9.08 9.08 0 015.86 4.09 12.51 12.51 0 011.44 7.73 14.56 14.56 0 01-1 4.18 5.85 5.85 0 01-.36.61l-.51.82c-.17.27-.33.53-.47.73s-.47.56-.71.85a16.35 16.35 0 01-1.44 1.62l-.35.24v.47a4.21 4.21 0 01-.1.44l-.2.87.82.34c.17.07.37.17.61.29a17.43 17.43 0 005.19 1.75l.37.07a10.9 10.9 0 002.17.27h.74a12 12 0 001.58 0 34.54 34.54 0 005.33-.57 20.78 20.78 0 0011.46-6l.35-.4a12.25 12.25 0 00.89-1.05l.81-1.41a8.29 8.29 0 001.1-2.63c.09-.29.18-.59.28-.89a9 9 0 00.37-2.52c0-.39 0-.77.1-1.22a13.22 13.22 0 00-.16-2.46c-.06-.38-.11-.77-.14-1.2a13.92 13.92 0 00-.78-3.07c-.1-.27-.18-.5-.26-.78-.35-1-.76-2.17-1.81-1.8s-.87 1.17-.53 2.91c.15.77.35 1.82.57 3.13.68 4.28-.55 8.53-3.23 11.1a17.51 17.51 0 01-9.67 4.49 27.35 27.35 0 01-4.72.28 6.26 6.26 0 01-1.23-.08c-.25 0-.49-.06-.71-.07a7.73 7.73 0 01-1.26-.22 7.63 7.63 0 01-1.36-.39 9.72 9.72 0 001.8-2.85 18.74 18.74 0 001.52-5.36 17.62 17.62 0 00-1.85-11 14.47 14.47 0 00-9.11-6.84 28.11 28.11 0 00-10.37-.36c-7.19 1-13.6 4.84-17.13 10.24a23.89 23.89 0 00-3.26 19.07 25.67 25.67 0 0010.7 15 33.35 33.35 0 0016.3 5.2c1.05.06 2.1.09 3.13.09 8 0 15.27-1.65 21.79-3.13l3.89-.87a107.06 107.06 0 0112-2.18c3.58-.41 7.07-.6 10.45-.78l2.69-.17a35 35 0 009.25-1.43 9.83 9.83 0 005.44-4 11.18 11.18 0 001.68-5.74 16 16 0 00-2.59-9.11zm116.93-36.64c-.61-7.26-9.23-46.61-9.32-47l4.1-.91c.36 1.64 8.78 40 9.4 47.56zm-17.81 3.93c-.07-.38-6.86-37.43-10.27-47.35l4-1.37c3.52 10.22 10.16 46.43 10.43 48z"/><path class="cls-11" d="M663.41 963.34a70.66 70.66 0 00-19.87 1.11 50.68 50.68 0 00-5.76 1.52c-1 .29-1.95.71-2.94 1.08-.49.19-1.38.76-2.06 1.13l-1.11.64c-.18.11-.37.21-.54.33a2.9 2.9 0 00-.38.52 3.9 3.9 0 00-.45 2.57l.39 1.45.34 1.1c.31 1 .63 2 1 3.06a39.48 39.48 0 002.75 6.32 14.85 14.85 0 00.82 1.25 7.35 7.35 0 001.36 1.49 5 5 0 003.12 1.15l1.36-.11.89-.1 1.75-.21 3.39-.47c2.21-.34 4.32-.71 6.3-1.13s3.85-.87 5.57-1.42a23.59 23.59 0 002.53-1 10.58 10.58 0 001.45-.83 14.25 14.25 0 001.18-1.33 10.81 10.81 0 00.72-1.82c.16-.49.28-.95.39-1.41.22-.9.39-1.76.52-2.58a35.54 35.54 0 00.43-4.57 20.9 20.9 0 00-.27-4 9.51 9.51 0 00-.52-1.89 4 4 0 00-.66-1.19 2.18 2.18 0 00-1.7-.67v2.34a.43.43 0 01.09-.24l-.51.23v.07l.06.29a7.82 7.82 0 01.12 1.36 22.15 22.15 0 01-.27 3.37 39.979 39.979 0 01-1.5 6.24c-.13.37-.26.76-.41 1.12a3.87 3.87 0 01-.34.74.39.39 0 01-.21.11s-.14.06-.48.15a20.14 20.14 0 01-2 .53c-1.52.34-3.29.64-5.19.93s-4 .55-6.11.81l-3.28.36-2.89.27s.08.09-.11-.15-.31-.49-.47-.73a39.78 39.78 0 01-2.37-5.34c-.33-1-.67-1.9-1-2.84l-.12-.35a.09.09 0 010-.06s.15-.09.22-.14l.16-.1a2 2 0 01.31-.15c.86-.36 1.67-.78 2.54-1.09 1.7-.68 3.42-1.24 5.13-1.74a109.51 109.51 0 0118.66-3.46z"/><path class="cls-12" d="M719.72 972.66c-4.59-4.57-11.65-7-19-6.52a28 28 0 00-10.1 2.52 14.45 14.45 0 00-7.51 8.58 17.65 17.65 0 00.46 11.13 19.61 19.61 0 002.62 5 10 10 0 002.31 2.36 7.14 7.14 0 01-1.29.68 8.19 8.19 0 01-1.14.46c-.21 0-.43.13-.67.21a8.25 8.25 0 01-1.27.34 27.71 27.71 0 01-4.58.67 17.45 17.45 0 01-10.43-2.43c-3.12-2-5.19-5.86-5.4-10.18-.06-1.34-.08-2.4-.08-3.19 0-1.77 0-2.66-1.09-2.74s-1.29 1.07-1.44 2.2c0 .22 0 .46-.09.74a14.66 14.66 0 00-.13 3.22c0 .38.08.77.11 1.16a13.19 13.19 0 00.36 2.51c.13.37.23.74.32 1.11a9.53 9.53 0 00.89 2.39c.15.27.3.54.44.81a8.46 8.46 0 001.55 2.27l1.27 1.4c.31.26.63.5 1 .74l.46.34a20.56 20.56 0 0012.43 3.48 33.12 33.12 0 005.24-.52 11.61 11.61 0 001.62-.36c.23-.06.47-.13.71-.18a11.4 11.4 0 002.05-.7l.37-.15a17.68 17.68 0 004.72-2.78c.21-.17.39-.3.54-.41l.74-.5-.38-.81c-.1-.21-.14-.32-.15-.32l-.1-.46-.41-.24a16.09 16.09 0 01-1.74-1.29l-.8-.63c-.24-.22-.45-.44-.65-.66l-.71-.75a3.63 3.63 0 01-.52-.62 14.2 14.2 0 01-1.82-3.78 12.56 12.56 0 01-.15-7.82 8.93 8.93 0 014.85-5.15 22.47 22.47 0 017.92-1.69c5.69-.25 10.83 1.66 14.16 5.12a17.5 17.5 0 014.91 13.22 19.14 19.14 0 01-5.63 12.36 26.89 26.89 0 01-11.88 6.53c-7.74 2-15.64 1.93-23.27 1.81h-3.79a110.47 110.47 0 00-13 .4c-4.18.42-8.13 1.11-11.59 1.71l-1.32.23a35.47 35.47 0 01-8.11.78 3.78 3.78 0 01-2.43-.86 5.38 5.38 0 01-1.38-2.48c-1.22-3.6.38-7.37 1.78-10.68l.58-1.4c1.82-4.15 2.92-7.25 2.82-9.87a8.8 8.8 0 00-.79-3.47c-.43-.72-.72-1.13-.72-1.13l-.57-.82-2.67 1.68.26.78a7.94 7.94 0 00.33.84 5.73 5.73 0 01.15 2c-.11 1.71-1.34 4.26-3.29 7.82l-.29.55a46.79 46.79 0 00-2.75 5.84 15.85 15.85 0 00-.66 9.51 11.11 11.11 0 002.79 5.3 9.78 9.78 0 006.11 2.85 23.5 23.5 0 002.75.15 47.5 47.5 0 006.64-.6l2.69-.38c3.33-.5 6.78-1 10.36-1.34a106.78 106.78 0 0112.18-.29h3.95c7.57.15 16.14.3 25.1-2.1a33.59 33.59 0 0014.93-8.46 25.69 25.69 0 007.41-17 24 24 0 00-7.09-18.04z"/><path class="cls-11" d="M511 889.7c6.9.41 14.43.89 23.33 1.69 4.44.42 9.24.89 14.43 1.6 2.59.36 5.28.77 8 1.33 1.37.28 2.75.6 4.07 1a14.35 14.35 0 011.83.67 3.07 3.07 0 01.49.27.33.33 0 01.14.19s0 .11.1.34.12.38.16.61a13.69 13.69 0 01.23 1.38A24.88 24.88 0 01564 902a43.11 43.11 0 01-.78 7.14 41.44 41.44 0 01-2.11 7.56 16.37 16.37 0 01-1.72 3.37 4.41 4.41 0 01-.93 1.05c-.32.19 0 .09-.32.11l-40.72-.14c-9.85-.09-19.5-.27-28.05-.66-4.27-.19-8.27-.44-11.84-.8-1.78-.17-3.45-.38-4.95-.65-.76-.12-1.44-.29-2.06-.44l-.42-.13h-.2v-.07l-.15-.4-.53-1.45c-.33-1-.66-1.92-1-2.87-.63-1.91-1.2-3.8-1.71-5.65a48.06 48.06 0 01-1.92-10.67 8.22 8.22 0 01.56-4c.07-.3.1-.21.77-.52a19.29 19.29 0 012.24-.56 88.5 88.5 0 019.59-1.21c12.63-1 23.63-1.11 33.33-1.24l.06-2.53c-9.75-.51-20.74-1-33.66-.45a89.91 89.91 0 00-10.16.94 25.31 25.31 0 00-2.82.62 7.44 7.44 0 00-1.77.81c-.32.23-.62.48-.95.7a10.6 10.6 0 00-.65 1 12.08 12.08 0 00-1.42 6.54 52.16 52.16 0 001.81 11.9q.75 3 1.67 6c.33 1 .65 2 1 3l.52 1.52.91 2.5 1.79 1a6 6 0 00.93.37l.66.23c.85.24 1.71.47 2.56.63 1.72.35 3.51.61 5.38.83 3.74.45 7.82.76 12.16 1 8.68.49 18.39.71 28.29.81 14.3.15 28.38-.09 40.59-.17a6.62 6.62 0 002.13-.31 6.09 6.09 0 001.83-1 9.76 9.76 0 002.08-2.34 21.26 21.26 0 002.24-4.55 45.34 45.34 0 002.2-8.62 46.78 46.78 0 00.62-8 28.66 28.66 0 00-.29-3.83c-.11-.63-.23-1.26-.4-1.89-.07-.31-.19-.64-.29-1a11.19 11.19 0 00-.46-1.15c-.16-.31-.41-.57-.59-.87s-.5-.49-.76-.71a8.25 8.25 0 00-1.54-.86 20.22 20.22 0 00-2.46-.86c-1.58-.44-3.08-.74-4.55-1-2.92-.51-5.7-.86-8.36-1.14-5.33-.55-10.19-.86-14.69-1.08-9-.43-16.59-.5-23.53-.45zm119.19-4.3c5.67-.27 11.79-.53 19.1-.64 3.64 0 7.59-.07 11.89.09 2.14.08 4.38.21 6.66.46a33.35 33.35 0 013.37.55 10.21 10.21 0 011.46.44c.32.14.33.17.43.33 0 0 .08.15.16.38s.16.4.22.63c.15.44.27.93.39 1.43a28 28 0 01.48 3.26 48.92 48.92 0 01.11 7.41 44.78 44.78 0 01-1.14 8 14.69 14.69 0 01-1.31 3.53 4.15 4.15 0 01-.38.56c-.13.12-.06.07-.11.1h-.08l-1.14.11c-12.68 1.48-26.64 3.3-41.15 4.85-7.91.85-15.7 1.6-22.6 2-3.44.22-6.67.36-9.54.36-1.43 0-2.76 0-4-.15-.53-.08-1.19-.1-1.57-.21h-.23l-.19-.39-.66-1.39-1.27-2.78c-.82-1.85-1.57-3.68-2.27-5.49a51.82 51.82 0 01-3.05-10.53 18.09 18.09 0 01-.19-2.34l.1-1c0-.3.19-.46.15-.55-.23-.11 1.69-1 3.17-1.45a94.58 94.58 0 019.56-2.37c12.66-2.51 23.84-3.93 33.61-5.16l-.22-2.52a322.91 322.91 0 00-34.18 3.41 89.93 89.93 0 00-10.16 2.15 25.77 25.77 0 00-2.76.94 12.26 12.26 0 00-1.6.82c-.32.14-.58.53-.86.79s-.65.52-.77.92c-1.38 2.88-1 4.84-.84 7a54.67 54.67 0 003.08 11.75c.69 1.92 1.44 3.86 2.26 5.79.42 1 .84 1.94 1.26 2.92l.67 1.46 1.16 2.42a14.88 14.88 0 003 1.15 20 20 0 002.21.37c1.43.15 2.92.23 4.46.26 3.08.06 6.41 0 9.94-.23 7.06-.38 14.92-1.1 22.9-2 14.57-1.56 28.67-3.53 41.15-5.22l1.22-.15a5.94 5.94 0 002.13-.7 6.92 6.92 0 001.62-1.44 10.18 10.18 0 00.89-1.36 19.08 19.08 0 001.76-5 47.16 47.16 0 001.05-9 50.9 50.9 0 00-.41-8.2 28.64 28.64 0 00-.74-3.82c-.17-.63-.36-1.24-.59-1.86-.11-.3-.25-.62-.39-.92s-.3-.6-.57-1.1a5 5 0 00-2.58-2 13.62 13.62 0 00-2.18-.6 33.78 33.78 0 00-3.88-.52c-2.48-.2-4.8-.26-7-.26-4.43 0-8.42.17-12.11.39-7.37.45-13.51 1.09-19.18 1.77z"/><path class="cls-12" d="M497.89 830.21a17.12 17.12 0 011.86-9.84l1.49.78a15.39 15.39 0 00-1.68 8.86zM510 830l-1.68-.18a43.71 43.71 0 012.35-10.22l1.58.57A42 42 0 00510 830zm12.84 2.3l-1.67-.18a42 42 0 012.23-9.79l1.58.56a40.91 40.91 0 00-2.14 9.41zM541 844.57a74.82 74.82 0 01-10.12-2.2l.47-1.61a74.64 74.64 0 009.9 2.15zm-2.25 9.75a30.31 30.31 0 01-10.35-2.09l.61-1.57a28.53 28.53 0 009.79 2zm-1.61 12.35a33.36 33.36 0 01-11.73-2.18l.6-1.57a31.64 31.64 0 0011.13 2.08zm-43.93-28.35a30.89 30.89 0 01-10.06-3.54l.83-1.47a28.8 28.8 0 009.51 3.35zm-2.75 12.04a44.31 44.31 0 01-9.46-1.82l.49-1.61a43.54 43.54 0 009.11 1.76zm-1.11 12.08a33.1 33.1 0 01-9.56-1.72l.54-1.6a30.82 30.82 0 009.07 1.64zm3.34 17.85l-1.36-1a86.66 86.66 0 005.94-9.5l1.49.8a89.67 89.67 0 01-6.07 9.7zm9.24 2.11l-1.58-.56a106.18 106.18 0 003.43-11.84l1.64.37a106.86 106.86 0 01-3.49 12.03zm11.63.5l-1.66-.23c.53-3.95.88-8 1-12l1.68.07c-.12 4.04-.48 8.15-1.02 12.16z"/><path class="cls-11" d="M670.57 883.38a364.39 364.39 0 01-9.47-43c-1.39-8.36-2.7-17.48-3.89-27.62-.58-5.07-1.14-10.39-1.56-16-.23-2.81-.39-5.67-.54-8.62 0-1.46-.08-2.94-.13-4.45v-5.75l-1.33-1.26-1-1-1.49-1.53-3-3.2q-3-3.28-5.95-6.83c-4-4.74-7.93-9.83-11.83-15.29a237.94 237.94 0 01-22.07-37.61 186.36 186.36 0 01-15-48.18 156.66 156.66 0 01-1.9-28c0-2.42.14-4.85.34-7.3.08-1.23.17-2.46.26-3.7a9 9 0 000-1.25 4.79 4.79 0 00-.37-1.43 4.71 4.71 0 00-.82-1.26 5.64 5.64 0 00-1-.83 21.76 21.76 0 00-7.58-3.16 35.67 35.67 0 00-8.14-.66 3.19 3.19 0 00-2.88 2.05 3.28 3.28 0 00-.13 1.81l.15 1c.21 1.35.43 2.75.65 4.21.41 2.92.86 6 1.32 9.35.89 6.62 1.79 14 2.5 21.83.35 3.92.64 8 .8 12.13a77.3 77.3 0 01-.3 12.54c-.28 2-.81 4.35-1.87 4.48a43.64 43.64 0 01-6.23 1.56 106.68 106.68 0 01-13.2 1.59 83.74 83.74 0 01-13.91-.2c-4.46-.53-9.16-1.44-12.27-4a5.91 5.91 0 01-1.73-2.27l-.66-1.39-.51-1.53a55.88 55.88 0 01-1.65-6.29c-.93-4.23-1.56-8.46-2.16-12.55-1.13-8.21-1.91-16-2.53-22.94-.28-3.49-.55-6.8-.8-9.9s-.39-6.17-.57-8.89a2.83 2.83 0 00-3.81-2.48c-1 .19-1.84.26-2.86.43a26.51 26.51 0 00-5.94 1.56 18.07 18.07 0 00-5.16 3.54 14.45 14.45 0 00-1.14 1.24 3.79 3.79 0 00-.76 2.37 5.58 5.58 0 00.05.61l.06.35.12.69.23 1.39q1.83 11.06 2.79 21.92a293.18 293.18 0 01.85 42.26c-1.58 27.22-7.35 52.86-19.2 73.59a101 101 0 01-9.91 14.4c-.92 1.09-1.76 2.25-2.77 3.25l-3.31 3.52-1.31 1.32a9.28 9.28 0 00.08 1.81l.26 2.68c.12 1.42.25 2.84.37 4.26 1 11.33 1.67 22.31 2.17 32.91.95 21.19 1.14 40.94-.35 59l4.48.46c2.05-18.42 2.21-38.37 1.44-59.74a760.08 760.08 0 00-2-33.16c-.13-1.43-.25-2.86-.38-4.3l-.1-1.08a4.91 4.91 0 010-.55.82.82 0 010-.31l.21-.23c0 .08.67-.69 1.15-1.19l1.55-1.65c1.06-1.07 1.95-2.3 2.93-3.46a104.56 104.56 0 0010.38-15.27c12.27-21.92 17.6-48.45 18.69-76.15a309.16 309.16 0 00-1.56-42.83q-1.14-10.95-3.08-22.13l-.45-2.53a.43.43 0 01.08-.27 10.66 10.66 0 01.78-.86 14.63 14.63 0 014.15-2.91 23.64 23.64 0 015.12-1.36c.87-.16 1.89-.26 2.83-.45h.13c.18 2.56.38 5.35.59 8.35s.57 6.43.88 10c.67 7 1.51 14.79 2.71 23.06.64 4.14 1.3 8.4 2.28 12.75.21 1.09.49 2.18.79 3.28a32.37 32.37 0 001 3.3l.57 1.66.79 1.68a8.7 8.7 0 002.41 3.07c4.12 3.25 9.06 4 13.77 4.59a88.51 88.51 0 0014.38.2 113.2 113.2 0 0013.54-1.62 45.82 45.82 0 006.67-1.67 4 4 0 001.94-1.38 6.88 6.88 0 001-1.84 18.83 18.83 0 00.78-3.46 82.17 82.17 0 00.39-13c-.15-4.21-.43-8.31-.75-12.27-.66-7.93-1.52-15.32-2.36-22q-.66-5-1.26-9.41c-.21-1.47-.42-2.88-.61-4.24l-.16-1v-.15c0-.06 0 0 0 0 5-.08 9.93.7 13.73 3.38a2.34 2.34 0 01.45.35 1.16 1.16 0 01.2.32 1.24 1.24 0 01.09.39 5.22 5.22 0 010 .63l-.3 3.77c-.22 2.51-.4 5-.42 7.47a164.73 164.73 0 001.57 28.64A193.52 193.52 0 00604 713.1a233.3 233.3 0 0022 38.76q5.91 8.45 12 15.72c2 2.44 4.06 4.76 6.1 7l3.07 3.29 1.56 1.6.5.49.25.23v3.51c0 1.56.07 3.1.1 4.62.14 3 .29 6 .51 8.81.41 5.71 1 11.1 1.53 16.23 1.19 10.26 2.54 19.47 4 27.91 3 16.87 6.17 30.71 10.32 43.56z"/><circle class="cls-9" cx="469.15" cy="523.84" r="2.9"/><circle class="cls-9" cx="474.85" cy="511.11" r="2.9"/><circle class="cls-9" cx="456.88" cy="511.11" r="2.9"/><circle class="cls-9" cx="636.08" cy="512" r="2.9"/><circle class="cls-9" cx="641.88" cy="498.73" r="2.9"/><circle class="cls-9" cx="624.62" cy="501.63" r="2.9"/></svg>