<svg xmlns="http://www.w3.org/2000/svg" viewBox="0 0 1000 750"><defs><style>.cls-4{fill:#876459}.cls-5{fill:#f9d8c8}.cls-6{fill:#b4753e}.cls-7{fill:#c33218}.cls-9{fill:#4588b0}.cls-10{fill:#c0927c}.cls-11{fill:#7a5f4a}.cls-12,.cls-13{fill:#1c1c1c}.cls-12{fill-rule:evenodd}</style></defs><g id="Layer_2" data-name="Layer 2"><g id="export"><g id="pasacek-vepru"><path d="M804.16 225.14c11.27 90.22-19.33 179.53-75.73 260.26-56.2 80.65-138.06 152.78-209.52 144.34s-132.33-97.18-170.49-175.43S295 308.25 308.83 246.08s56.95-118.9 124.7-167 160-87.34 232.89-61.36 126.33 117.14 137.74 207.42z" fill="#ebe8f5"/><path d="M194.78 326.08a21.73 21.73 0 000-2.92 36.07 36.07 0 00-1.81-8.67 79.81 79.81 0 00-7.86-16.49 116.11 116.11 0 00-26.74-30.18c-11.23-8.9-25-16.52-40.71-19.86a89.79 89.79 0 00-24.37-1.85 97.5 97.5 0 00-12.43 1.64c-2.07.4-4.09 1-6.14 1.5-1 .29-2.07.47-3.06.85L68 251.32c-1.94.66-3.87 1.31-5.65 2l-1.35.53c-.18.11-.58.11-.56.32l.19.72.78 2.85c.56 1.86 1 3.84 1.68 5.61l1.08 3a119 119 0 005 11.33A112.9 112.9 0 0082.26 298a100.65 100.65 0 0035.45 28.15c13 6.56 26.82 8.46 39.24 9.57 6.27-.15 12.32.19 18-.45l16.26-2.27-.24-1.53h.29l.17-.12 1.06.9a9.4 9.4 0 001.56-2.72l1.65-1.14.05-.37c.04-.15.08-.5-.97-1.94zm-20.11 3.75c-5.52.23-11.26-.49-17.2-.66-11.69-1.75-24.38-4.08-36.06-10.53a95.7 95.7 0 01-31.65-26.51A108.26 108.26 0 0178 273.35c-1.68-3.37-3.18-6.85-4.53-10.4l-.92-2.62v-.05l2-.7c.9-.35 1.84-.51 2.76-.77 1.85-.44 3.67-1 5.52-1.37A89.81 89.81 0 0194 255.91a82.36 82.36 0 0121.74 1.37c14.12 2.72 26.83 9.29 37.56 17.18a116.17 116.17 0 0126.31 27.1 78.53 78.53 0 018.2 14.78c.24.6.47 1.19.68 1.79a202.58 202.58 0 00-21.26-21.55c-14.25-12.47-36.81-28.14-63.35-31.95-1.94-.33-3-.49-3.28.51s.88 1.33 2.84 1.81c20.15 4.38 40.29 15.82 59.87 34a215.6 215.6 0 0125.29 28zM155 432.39a13.27 13.27 0 010-1.79 21.85 21.85 0 011.11-5.3 48.57 48.57 0 014.78-10.1 71 71 0 0116.34-18.45 60.74 60.74 0 0124.89-12.14 54.69 54.69 0 0114.9-1.13 57.94 57.94 0 017.6 1c1.26.24 2.5.61 3.75.92.62.17 1.27.29 1.87.52l2.24.76c1.18.4 2.36.81 3.45 1.24l.83.32c.1.07.35.07.34.2l-.12.44-.48 1.74c-.34 1.14-.62 2.35-1 3.44l-.66 1.85a72.05 72.05 0 01-3.07 6.93 68.81 68.81 0 01-8 12.4 61.36 61.36 0 01-21.67 17.21c-8 4-16.4 5.18-24 5.85-3.83-.09-7.53.12-11-.27l-9.92-1.39.15-.93h-.18l-.11-.08-.64.56a6 6 0 01-1-1.67l-1-.69v-.23c-.01-.12-.04-.33.6-1.21zm12.29 2.29c3.37.14 6.88-.3 10.51-.41 7.15-1.06 14.91-2.49 22.05-6.43a58.67 58.67 0 0019.35-16.21 65.68 65.68 0 007.18-11.48 67.88 67.88 0 002.77-6.36l.57-1.6-1.25-.43c-.55-.21-1.13-.31-1.69-.47-1.13-.27-2.24-.62-3.37-.84a54.65 54.65 0 00-6.78-.93 50.75 50.75 0 00-13.3.83 57.49 57.49 0 00-22.95 10.51 71 71 0 00-16.09 16.56 48.13 48.13 0 00-5 9c-.15.37-.29.73-.42 1.09a125 125 0 0113-13.17c8.71-7.62 22.5-17.21 38.72-19.53 1.19-.2 1.87-.3 2 .31s-.53.81-1.73 1.11c-12.32 2.67-24.63 9.67-36.6 20.78a131.55 131.55 0 00-15.47 17.14zm790.99-44.5c2 .4 4.08.76 6.13 1.06l.43-3c-2.11-.31-4.22-.69-6.33-1.1.11-1.93.17-3.86.17-5.79a44.21 44.21 0 00-1.21-11.35 14.85 14.85 0 00-1.18-3.06 8.51 8.51 0 00-2.41-2.79 10 10 0 00-2.71-1.75 17.3 17.3 0 00-2.63-1.19 80.92 80.92 0 00-14.76-3.66c.51-1.88 1.06-3.73 1.71-5.56l-2.87-1c-.71 2-1.31 4-1.86 6.1l-2.1-.32c-6.37-.91-12.55-1.47-18.5-1.93a73 73 0 012.33-7.81l-2.87-1a80.59 80.59 0 00-2.55 8.63c-4.89-.33-9.67-.59-14.24-.77l-2.31-.07a27 27 0 012-4.92l-2.7-1.43a30.94 30.94 0 00-2.45 6.26l-2.62-.08-3.91-.07a4.86 4.86 0 00-4.64 2.37 80.28 80.28 0 00-7.28 18.45 53 53 0 01-7.63-3.5l-1.5 2.65a54.4 54.4 0 008.34 3.8c-.87 3.36-1.68 6.8-2.47 10.33-.66 3.15-1.28 6.37-1.87 9.64-2.36-.49-4.7-1.07-7-1.77l-.89 2.91c2.43.74 4.9 1.35 7.38 1.86-1 6.08-1.91 12.38-2.59 18.91a54.86 54.86 0 01-6-1.63l-1 2.88a57.79 57.79 0 006.68 1.8c-.11 1.21-.26 2.38-.35 3.61-.1 1.73-.25 3.45-.26 5.26a26.17 26.17 0 000 2.79 11.25 11.25 0 00.12 1.59 8.22 8.22 0 00.77 2.24 13.65 13.65 0 005 4.68 41.31 41.31 0 005.2 2.52c2.64 1.06 5.33 1.92 8 2.71-1.41 2.18-2.86 4.33-4.37 6.44l2.46 1.78c1.73-2.4 3.38-4.86 5-7.35 3.46.9 7 1.65 10.53 2.33l.87.15c-.79 2.57-1.62 5.14-2.52 7.67l2.86 1c1-2.7 1.84-5.43 2.69-8.18 5.27.87 10.65 1.51 16.15 1.88-.24 2.28-.5 4.54-.8 6.79l3 .41c.32-2.32.58-4.65.82-7a89.69 89.69 0 0011.91-.14 38.44 38.44 0 006.42-1.08l1.73-.57c.62-.27 1.3-.64 1.93-1a15.73 15.73 0 002.91-2.5c3.23-3.53 5-7.29 6.72-11 1-2.21 1.82-4.43 2.6-6.64a62.41 62.41 0 007.62.56v-3a56.53 56.53 0 01-6.64-.46c.19-.56.37-1.12.55-1.68a163.79 163.79 0 004.32-17.48c1.55.17 3.11.28 4.68.32l.08-3c-1.41 0-2.81-.14-4.21-.29.12-.66.25-1.33.36-2 .83-4.56 1.4-9.01 1.76-13.46zm-9.41 17.13a165 165 0 01-4.26 16.6c-.27.84-.57 1.67-.85 2.5a58 58 0 01-6.42-2l-1.08 2.84a58.09 58.09 0 006.5 2c-.63 1.72-1.31 3.42-2 5.08-1.51 3.32-3.27 6.73-5.4 9a10.08 10.08 0 01-1.54 1.36 7.7 7.7 0 00-.69.36l-1.06.35a32.72 32.72 0 01-5.12.86 87.45 87.45 0 01-10.63.17c.19-2.66.36-5.33.47-8l-3-.12c-.1 2.65-.27 5.3-.46 7.94-5-.29-10-.82-14.84-1.54q.92-3.39 1.71-6.81l-3-.67c-.53 2.34-1.13 4.68-1.75 7l-1.58-.25c-2.72-.48-5.4-1-8-1.62.78-1.36 1.55-2.72 2.29-4.1l-2.68-1.44c-.87 1.61-1.78 3.22-2.71 4.81a83.88 83.88 0 01-9.29-2.86 37.63 37.63 0 01-4.38-2 8.87 8.87 0 01-2.74-2.16c-.13-.09 0-.14-.1-.18s0-.66-.08-1a22.63 22.63 0 01-.06-2.37c0-1.62.06-3.3.11-5 0-1 .15-2 .21-3 1.56.18 3.12.3 4.7.34l.09-3c-1.54 0-3.06-.16-4.58-.33.48-6.52 1.15-12.86 2-19 1.51.21 3 .38 4.55.51l.25-3a73.44 73.44 0 01-4.41-.5c.47-3.28 1-6.5 1.48-9.63.6-3.39 1.22-6.71 1.89-9.94a56.43 56.43 0 005.76 1.3l.5-3a50.82 50.82 0 01-5.62-1.28 82.69 82.69 0 016-18.18 1.72 1.72 0 011.86-.62l3.87.3 2.06.17a30.6 30.6 0 00-.17 7.94l3-.35a27.28 27.28 0 01.18-7.33l2.91.25c4.36.4 8.91.86 13.56 1.38a79.52 79.52 0 00-.76 5.3l3 .32c.18-1.77.45-3.53.76-5.28h.45c5.88.72 12 1.5 18.19 2.6l1.72.33c-.39 2.05-.72 4.12-.94 6.21l3 .31c.21-2 .53-4 .9-6a80 80 0 0113.74 3.79 11 11 0 012 1 4.83 4.83 0 011.56 1 2.66 2.66 0 011 1 9.3 9.3 0 01.61 1.79 39.11 39.11 0 01.77 9.61c0 1.45-.11 2.92-.2 4.39-1.68-.42-3.35-.86-5-1.34l-.85 2.92c1.85.54 3.72 1 5.6 1.48-.41 4.5-1 9.06-1.85 13.65-.11.64-.25 1.29-.38 1.94a53.11 53.11 0 01-6.68-2.07l-1.11 2.83a53.05 53.05 0 007.02 2.44z" fill="#ededed"/><path d="M735.94 301.08l-.55-.14h-.07a3 3 0 010-.42.25.25 0 00.12 0c.19 0 .38-.21.64-.49a40.21 40.21 0 0110.33-8 39.41 39.41 0 0122.87-4.72c.69.05 1.07.05 1.11-.28s-.35-.4-1-.5a38.43 38.43 0 00-23.91 3.75 40.92 40.92 0 00-7 4.47 28.74 28.74 0 012.31-2.39 38.9 38.9 0 0110.57-7 31.37 31.37 0 0113.55-3 28.36 28.36 0 017.25 1.13 34.3 34.3 0 013.54 1.3l1.7.85c.3.14.56.31.85.47l.3.19c0 .07-.19.33-.68 1.11-.71 1.08-1.47 2.1-2.22 3.11a36.45 36.45 0 01-5.22 5.31 31.3 31.3 0 01-12.29 6.42 32.25 32.25 0 01-6.42 1.07c-1 .07-2.1 0-3.14 0a18.92 18.92 0 01-3-.19l-2.93-.43-1.42-.21-1.36-.35-2.62-.71c-.46-.12-.89-.23-1.31-.35zm-51.53.92a35.11 35.11 0 013.73-.51 27.81 27.81 0 017.32.47 31.82 31.82 0 0112.63 5.76 38.9 38.9 0 018.85 9.13 27 27 0 012.76 5c.07.21.16.42.24.61a69.86 69.86 0 00-7.16-7.25c-4.79-4.2-12.39-9.46-21.31-10.76-.64-.09-1-.16-1.11.19s.31.45 1 .61c6.77 1.47 13.55 5.31 20.13 11.43A71.71 71.71 0 01720 326l-4.67.28c-1.85.07-3.78-.17-5.79-.21-3.92-.59-8.19-1.37-12.1-3.54a31.74 31.74 0 01-10.65-8.93 34.91 34.91 0 01-4-6.3 37.18 37.18 0 01-1.52-3.49l-.3-.9.68-.26c.29-.09.62-.16.92-.23.62-.14 1.23-.33 1.84-.42z" fill="#70b62c"/><path class="cls-4" d="M733.53 294.35L735 288l2.93-12.66 5.83-25.27.64-2.81a1.75 1.75 0 01.42-.07 2.14 2.14 0 011 .19 1.79 1.79 0 011.2 1.48 13.25 13.25 0 01-.23 2.91c-.57 4.29-1.16 8.54-1.94 12.77a101.48 101.48 0 01-3 12.43c-1.3 4-3.05 8-4.77 11.92-1.11 2.48-2.17 5.05-3.14 7.63l-.85-.33c0-.08 0-.17.07-.24.16-.61.25-1.06.37-1.6z"/><path class="cls-4" d="M718 397.33c-.12 2.22-.07 4.41 0 6.58.1 3.9.19 7.79-.68 11.38-1.06-.05-2.13-.07-3.14-.05q.18-.21.33-.42a6.85 6.85 0 001.11-5.24 6.61 6.61 0 00-.76-2c1.77-17 1.82-34 3.21-50.86a207 207 0 013.57-25.54c.4-1.79.73-3.61 1-5.42.42-2.46.8-4.94 1.18-7.42A75.41 75.41 0 00725 305.3a50.67 50.67 0 00-1.53-13.12 82.52 82.52 0 00-4.7-12.27c-.87-2-1.77-4-2.6-5.9-.42-1-.8-2-1.18-3l-.54-1.48-.26-.76v-.05l.42-.19a11.36 11.36 0 011.39-.47 19.88 19.88 0 013-.56l.93-.12.07.35.73 3.16q2.94 12.68 7.1 25a4.62 4.62 0 001.13 1.88 2.32 2.32 0 003 .12 3.78 3.78 0 001.08-1.74l.85.33q-.88 2.26-1.63 4.53c-1.41 4.08-2.76 8.23-3.82 12.48a99.88 99.88 0 00-2.43 12.87l-1.84 12.81c-1.25 8.55-2.41 17.18-3 25.82l-.41 6.52c-.11 2.1-.35 4.25-.59 6.37l-1.51 12.86c-.24 2.26-.54 4.34-.66 6.59z"/><path class="cls-5" d="M704.78 443a19 19 0 01-3.3-.4 4.4 4.4 0 01-1.25-.49 1 1 0 01-.47-.76c.07-.66.68-1.25 1.62-1.67a12.71 12.71 0 013.14-1 43.31 43.31 0 017.48-.63h1c2.48 0 5.05.11 7.72.25 1 0 1.91.12 2.92.12a.34.34 0 01.17 0 5.88 5.88 0 011.25.26c1.18.42 1.42.68 1.61 2.07a8.7 8.7 0 010 1 1.85 1.85 0 010 .3 2.35 2.35 0 01-1 .34 30.14 30.14 0 01-4.39.33c-3 0-6 .11-8.78.16s-5.33.28-7.72.12zm-3.66-7.23c-2.76 0-5.57-.33-5.59-2.43s2.41-3.42 5.05-4.08a43.22 43.22 0 019-1c1.77-.05 3.61-.05 5.52 0h.64c1.65.07 3.35.16 5.1.33.59 0 1.18.07 1.77.11h.14a11.44 11.44 0 012 .5c1.35.52 1.8 1.27 2 3a7.82 7.82 0 01-.05 2.26c-.19.48-.07.38-.71.62a10.2 10.2 0 01-1.94.16c-1.06-.12-2-.12-3-.14h-5.1c-1.89 0-3.7.07-5.47.16-3.43.21-6.55.49-9.36.51zm9.68-10.5c-3.19.07-6.21.17-9 .07a18.73 18.73 0 01-3.8-.49c-1.15-.33-1.84-.83-1.91-1.73a2.83 2.83 0 01.47-1.44h.31v-.37a7.91 7.91 0 014.13-2.1 40.71 40.71 0 018.71-1 61.41 61.41 0 019.79.47c3.19.43 6.92 1.63 7.18 4.08a5.82 5.82 0 01-.1 2c-.19.47-.07.38-.66.59a12.14 12.14 0 01-2.55.09 24.75 24.75 0 00-3.44-.3c-2.55-.05-5-.05-7.37 0-.56.11-1.19.11-1.76.13zm2.01-15.01a5.23 5.23 0 01-1.35 5.08c-.64 0-1.27 0-1.89.09a48.26 48.26 0 00-6.25.83 5.69 5.69 0 01-2.43-4.68 4.69 4.69 0 011.3-3.44 5.88 5.88 0 013.82-1.49c3.14-.24 6.14 1.35 6.8 3.61z"/><path class="cls-5" d="M634.52 415.69c14.28 2.69 47 6 60 6h.29a4.24 4.24 0 00-.15 1.41 3.18 3.18 0 00.81 2.25 5.64 5.64 0 001.91 1.22 12.38 12.38 0 002.29.64 10.67 10.67 0 00-3.78 2.1 5.2 5.2 0 00-1.82 3.33c-17.27 1.44-50.13-3-57.66-4.11 0-.4 0-.78-.07-1.15a63.35 63.35 0 00-1-8.36l-.19-.87a20.46 20.46 0 00-.63-2.46z"/><path class="cls-4" d="M688.64 725.28c-.14-.92-.1-2.29-.14-3.49l-.07-3.71v-7.39c0-9.86.47-19.73 1.18-29.57 1.49-19.69 4-39.35 6.11-59l6.44-59.12c4.11-39 7.79-78 9.8-117.18h.61l2.86.1a979.4 979.4 0 01-12.37 128l-.26 1.49 1.49-.12a21.2 21.2 0 007.5-2.27 21.65 21.65 0 006.4-4.48l.52.75 2 3.12-.14.14-1.28 1.27a28.86 28.86 0 01-2.71 2.31c-1.91 1.26-4.2 2.65-6.16 4.23a37.9 37.9 0 00-2.88 2.52 14.12 14.12 0 00-2.5 3.19 13.91 13.91 0 00-1.34 3.93l-.64 3.71-1.06 7.4c-2.71 19.68-4.18 39.44-6.14 59.14s-3.58 39.56-3 59.48c.12 2.43.07 4.86-1 6a2.55 2.55 0 01-2.07.83c-.68-.1-.96-.34-1.15-1.28z"/><path class="cls-5" d="M348 599.1c-.71-.16-1 .71-1.09 1.11a29.18 29.18 0 00-1.16 11.07 13.49 13.49 0 01-2.85-6.35 25 25 0 01.05-8.09 32.83 32.83 0 015.71-13.58 46.89 46.89 0 017.6-8.49c1-.9 2.05-1.73 3-2.41.31-.24.59-.42.85-.61l1.44-1 .31-.4.4-3.21c0-.28.07-.57.09-.85a8.84 8.84 0 01.17-1.37l.85-4.41.47-1.91c.57-2.27 1.09-4.39 1.75-6.52.78-2.64 1.58-5.26 2.45-7.81.69-2.17 1.44-4.27 2.15-6.3l.33-.92c3.23-9.06 6.28-16.71 9.09-23.65 4.58-11.19 7.81-18.58 9.6-22.66.29.38.52.76.78 1.11a50 50 0 006.94 7.29c.5.43 1 .83 1.51 1.23a62.2 62.2 0 00-5.76 10.24c-1.7 3.64-3.23 7.34-4.69 11.1q-4.29 11.19-7.7 22.7a230.06 230.06 0 00-5.69 23.37c-.33 2-.63 4-.8 6.09a14.73 14.73 0 00.68 6.68A11 11 0 00379 586a37.42 37.42 0 005.66 2.74c3.66 1.48 6.94 3.16 9.14 5.9 1.11 1.34 2 3 1.91 4s-.83 1.89-2.36 2.5a14.25 14.25 0 01-10.08-.35 4.81 4.81 0 01-2.93-2.93 9.08 9.08 0 01-.33-2.43 9.46 9.46 0 00-.7-3.75 4.41 4.41 0 00-1.89-1.91 6.61 6.61 0 00-2.1-.64 9.68 9.68 0 00-3.83.24 5.67 5.67 0 00-3.49 2.76 7.84 7.84 0 00-.83 3.94 19.53 19.53 0 001.63 6.49 37.56 37.56 0 003 5.57 44.34 44.34 0 003.75 5c.68.81 1.39 1.56 2.15 2.32s1.48 1.41 2.12 2a11 11 0 012.76 4 1.68 1.68 0 010 1.33 2.21 2.21 0 01-.85.8 24.08 24.08 0 01-10.27-1.06 14.61 14.61 0 01-4-2.18 17 17 0 01-4-4.24 28.06 28.06 0 01-3.87-10.32 91.47 91.47 0 01-1.2-11.47h-.33a32.35 32.35 0 00-.9 11.85 31.12 31.12 0 003.45 11.73 18.23 18.23 0 002 3 3.63 3.63 0 01-.59 0 16.16 16.16 0 01-7.24-1.35 11.08 11.08 0 01-5.67-7.2 29.74 29.74 0 01-.49-11.8c-.06-.38.08-1.27-.62-1.44z"/><path class="cls-6" d="M592.27 697.66l2.86-.4c1.86-.3 3.63-.61 5.31-1s3.23-.73 4.69-1.18c.48-.16.9-.33 1.35-.49a6.45 6.45 0 000 1.39c0 .33.07.66.09 1a10.36 10.36 0 00.31 2.1 9.46 9.46 0 01.26.95 7.45 7.45 0 00.76 2l.35.69a7.56 7.56 0 001.32 1.91l1.06 1.18c.26.21.55.42.81.61l.4.29a17.32 17.32 0 0010.45 2.95 29.46 29.46 0 004.42-.45 11.43 11.43 0 001.37-.31l.59-.14a9.33 9.33 0 001.72-.59l.31-.14a14.48 14.48 0 004-2.34c.19-.14.33-.26.45-.33l.64-.42-.33-.69a2.22 2.22 0 00-.12-.28l-.09-.38-.33-.21a10.12 10.12 0 01-1.49-1.09l-.66-.52a4.7 4.7 0 01-.54-.56l-.62-.62a2.88 2.88 0 01-.42-.54 11.42 11.42 0 01-1.54-3.16 10.35 10.35 0 01-.11-6.59 7.51 7.51 0 014.06-4.3 18.57 18.57 0 016.65-1.42 15.47 15.47 0 0111.92 4.3 14.8 14.8 0 014.16 11.12 16.2 16.2 0 01-4.75 10.41 22.73 22.73 0 01-10 5.5c-6.52 1.72-13.17 1.63-19.59 1.53h-3.21a90.92 90.92 0 00-10.91.33c-3.54.35-6.84.94-9.77 1.46l-1.11.16a28.2 28.2 0 01-6.82.66 3.22 3.22 0 01-2-.7 4.7 4.7 0 01-1.16-2.1c-1-3 .31-6.21 1.49-9l.49-1.18c1.54-3.49 2.46-6.11 2.39-8.3a5.88 5.88 0 00-.1-1zm-3.47-5.45a33.48 33.48 0 01-2-4.48l-.85-2.39-.1-.3s.12-.1.19-.15l.12-.07a1.46 1.46 0 00.28-.14c.71-.28 1.4-.64 2.13-.9a38.54 38.54 0 014.32-1.46 91.54 91.54 0 0115.41-2.9v.14a5.66 5.66 0 01.1 1.13 18.8 18.8 0 01-.21 2.86c-.17 1-.41 2.17-.71 3.37q-.26.93-.57 1.89a9.67 9.67 0 01-.33 1 3 3 0 01-.31.63s-.09.07-.16.1-.12.05-.4.12a16 16 0 01-1.71.34c-1.3.29-2.78.55-4.39.78s-3.33.48-5.14.69l-2.77.3-2.43.22s.07.07-.09-.14a5.61 5.61 0 01-.38-.64z"/><path class="cls-5" d="M592.77 641.59c1.53 6.93 6 27.94 7.15 35.49a57.08 57.08 0 00-8.1 1c-1.2.26-2.4.54-3.66.9-1.34-7.18-5.19-27.29-7.74-36 4.18-.4 8.31-.9 12.35-1.39z"/><path class="cls-6" d="M470.22 685.63c-.07-.43-.11-.81-.14-1.16 0 0 0-.05-.07-.05a90.7 90.7 0 0115.91-.3 41.44 41.44 0 014.51.56c.78.12 1.51.31 2.29.47.26.05.26.05.28.08h.07l.14.07v.07c0 .07 0-.16-.07.45-.12.83-.21 1.65-.33 2.5a30.46 30.46 0 01-1.06 4.77 5.31 5.31 0 01-.24.66.32.32 0 00-.05.12l-2.43.28c-.94.07-1.86.17-2.76.26-1.82.14-3.56.28-5.17.38s-3.14.14-4.44.14a16 16 0 01-1.74-.12c-.31 0-.4-.05-.43 0a.32.32 0 01-.19-.07 2.71 2.71 0 01-.42-.55l-.52-.87c-.33-.59-.66-1.16-.94-1.75a31.11 31.11 0 01-1.37-3.18 15.93 15.93 0 01-.83-2.76zm-14.11 31.77h.61a6.12 6.12 0 001.35 0 26.79 26.79 0 004.48-.47 17.37 17.37 0 009.63-5l.31-.33c.24-.26.47-.52.76-.89l.68-1.18a6.85 6.85 0 00.92-2.22c.07-.24.14-.5.24-.76a7.54 7.54 0 00.3-2.12c0-.31.05-.64.1-1a15.19 15.19 0 00-.14-2.07 9.86 9.86 0 01-.12-1c-.07-.49-.17-.92-.26-1.32.45.09.92.16 1.39.21 1.51.14 3.12.19 4.84.21s3.52-.07 5.38-.16c.95 0 1.91-.12 2.88-.19l.76-.07a5.08 5.08 0 00.11 1c.48 2.45 2.32 5.15 4.16 7.67l.73 1.06c1.75 2.46 3.73 5.27 3.37 8.48a4.11 4.11 0 01-.68 2.21 3 3 0 01-1.84 1.11 29 29 0 01-6.82.81h-1.13c-3.12.12-6.35.24-9.8.59a96.11 96.11 0 00-10.74 1.92l-3.14.7c-6.25 1.42-12.79 2.88-19.49 2.53a22.89 22.89 0 01-11-3.35 16.25 16.25 0 01-6.8-9.3 14.82 14.82 0 011.8-11.8 15.66 15.66 0 0110.83-6.67 18.77 18.77 0 016.82 0 7.58 7.58 0 014.93 3.44 10.51 10.51 0 011.23 6.52 11.91 11.91 0 01-.9 3.51 3.47 3.47 0 01-.28.52l-.45.69c-.14.21-.26.44-.38.61l-.61.71a10.74 10.74 0 01-1.2 1.37l-.31.21v.42a1.88 1.88 0 01-.07.37l-.17.74.69.28.52.26a15.09 15.09 0 004.36 1.46l.31.07a9.87 9.87 0 001.84.22z"/><path class="cls-5" d="M489.65 680c-1.23-.1-2.41-.12-3.56-.14a53.71 53.71 0 00-8.29.63c-.42-7.31-.05-27 .1-34q3.78.07 7.64.1h4c-.62 9.04-.1 26.74.11 33.41zm140.13-440.08a28.27 28.27 0 00-3.52 1.66c-.78.47-1.49.94-2.15 1.37.09-3.62-.14-7.11-.28-10.67a3 3 0 00.42-.05 40.47 40.47 0 019.68-.31 34.08 34.08 0 0111.09 2.6 17.21 17.21 0 018.83 8 20.4 20.4 0 011.06 13.08 20.94 20.94 0 01-2.57 6.37 21.83 21.83 0 01-4.16 5.2 23.25 23.25 0 01-11 5.73 24.62 24.62 0 01-11.14-.21 26 26 0 01-8.34-3.85c.12-2.45.08-4.81.17-7.1a73.29 73.29 0 00-.24-8.36 30.74 30.74 0 003.31-1.56 6.68 6.68 0 001.93-1.53 5.42 5.42 0 00.9-2.43c.17-1.35.26-2.67.31-4 .85-.23 1.77-.56 2.81-.92s2.28-.63 3.54-1a25.11 25.11 0 018.45-.85 15.73 15.73 0 013.68.78 14.58 14.58 0 011.7 8.4c-.33 4.06-1.89 7.65-2.58 10.08a.47.47 0 00.17.52.43.43 0 00.49-.14 17.83 17.83 0 002.74-4 16.74 16.74 0 001.84-6.26 12.28 12.28 0 00-1.18-6.56c-.14-.28-.3-.57-.44-.83a13.47 13.47 0 011.27.78 21 21 0 014.65 4.65.57.57 0 00.57.33c.16-.07.21-.35.09-.66a14.46 14.46 0 00-3.94-6 15.25 15.25 0 00-8.83-3.78 20.56 20.56 0 00-9.33 1.52zm-284.06 2.6a17.09 17.09 0 019.07-8 34.77 34.77 0 0111.59-2.41 37.54 37.54 0 019.25.69c-.33 3.28-.52 6.58-.59 9.89-.55-.36-1.14-.74-1.77-1.11a29 29 0 00-3.52-1.66 20.62 20.62 0 00-9.35-1.46 15.34 15.34 0 00-8.82 3.78 14.56 14.56 0 00-3.94 6c-.12.31-.05.59.11.66s.38-.07.57-.33a20.85 20.85 0 014.63-4.65 10.84 10.84 0 011.29-.8 7.54 7.54 0 00-.47.85 12.57 12.57 0 00-1.18 6.56 16.92 16.92 0 001.84 6.26 18.88 18.88 0 002.74 4 .47.47 0 00.52.14.49.49 0 00.14-.52c-.68-2.43-2.24-6-2.55-10.08a14.46 14.46 0 011.68-8.4 15.79 15.79 0 013.7-.78 25.07 25.07 0 018.43.85c1.25.38 2.48.61 3.54 1 .85.29 1.63.57 2.36.78v.45c-.05 2.43 0 4.84.07 7.29.07 1.21.17 2.46.33 3.71l.31 1.51.23.8c.15.21.5.21.74.33l2.21.69a35 35 0 013.59 1.32c0 2.45 0 5.05.19 7.74a25 25 0 01-8.52 4.65 23.51 23.51 0 01-11.52.59 21.38 21.38 0 01-5.9-2 23 23 0 01-12.11-15.25 20.21 20.21 0 011.11-13.09z"/><path class="cls-7" d="M533.31 210.82l-.73.17-.33.09-.35.1a1 1 0 01-.07-.31c-.07-.21-.24-1.58-.36-2.53-.09-.61-.14-.77 0-1.08a1 1 0 01.62-.57 79.56 79.56 0 0127.66-1.63 72.1 72.1 0 0116.09 3.73 73 73 0 018 3.45l.47.24-.07.49-.16 1.16-.31 2.29-.12 1c-.71-.33-1.44-.61-2.14-.92-1.44-.59-2.88-1.18-4.32-1.68-2.86-1.06-5.74-1.91-8.6-2.69a84.6 84.6 0 00-16.68-2.69 68.78 68.78 0 00-15.18.74c-1.17.08-2.31.41-3.42.64zM419 216.84c-1.41.54-2.81 1.16-4.22 1.8-.71.33-1.42.63-2.13 1-.22-1.27-.43-2.55-.64-3.8l-.17-1.09h.05l.92-.49a70.3 70.3 0 018-3.64 72.52 72.52 0 0116.05-4.08 79.66 79.66 0 0127.71 1.06.31.31 0 01.16.4l-.14 1.49c-.07.52-.12 1-.16 1.53l-.12.78c-.12.28-3.07-.66-5.27-.83a68.61 68.61 0 00-15-.23 84.72 84.72 0 00-16.5 3.19c-2.84.83-5.7 1.78-8.54 2.91z"/><path class="cls-7" d="M386.74 256.89a57.44 57.44 0 01-6.89-1.48c-.38-.12-.94-.29-1.13-.38a1.74 1.74 0 00-.05-.26 30.48 30.48 0 01-.19-3.35c0-2.32 0-4.65.24-7 .38-4.7 1-9.35 1.79-13.91.4-2.29.85-4.53 1.37-6.72a19.37 19.37 0 012.1-5.67 32.22 32.22 0 014.39-4.67 20.83 20.83 0 004.77-6.14 13.67 13.67 0 00.85-8.14c-.42-2.5-1.13-4.63-1.44-6.61a12.25 12.25 0 01-.16-2.71 5.86 5.86 0 01.61-2.17c.61-1.14 2.08-2.06 4-2.84a33.72 33.72 0 0011.92-7.08 31.3 31.3 0 007.69-11.33c1.72-4.32 2.13-8.59 3.23-12.25a18.17 18.17 0 012.2-4.86 11.7 11.7 0 013.75-3.33c3.05-1.72 6.87-2.45 10.72-3.77a28.85 28.85 0 005.52-2.57c1.68-.92 3.35-1.87 5-2.91a37.89 37.89 0 008.74-7.5 46.54 46.54 0 0116-12 54.92 54.92 0 0118-4.46c6.46-.23 13.14 1.51 20 3.92s14 5.41 22.26 6.44c8.47 1.42 17-2.33 24.56-2.8 3.5 0 7.39 1.84 10.79 4s6.59 5 8.31 8.62c1.89 3.51 2.15 7.76 2.62 12.46a31.89 31.89 0 001.53 7.36 19.56 19.56 0 004.09 6.82 19 19 0 006.49 4.77 65.55 65.55 0 007 2.69 32 32 0 016.14 2.76 10.67 10.67 0 014.1 4.13c.78 1.54.78 3.57.62 6a19.49 19.49 0 00.78 8.38c1.88 5.41 5.31 9.32 6.44 13.55.52 2.12.92 4.81 1.37 7.27s.87 5.05 1.3 7.6c.85 5.07 1.69 10.19 2.36 15.36s1.18 10.46.63 15.23c-.09.49-.26 1.22-.35 1.18a3.75 3.75 0 01-1.16.73 15.69 15.69 0 01-3.4 1c-2.43.45-4.93.66-7.41 1l-3.07.38-.1-.47-.14-.95-.28-1.86-.59-3.71c-.85-5-1.68-9.84-2.5-14.7-1.73-9.73-3.5-19.17-4.91-28.61a17 17 0 00-2.6-7 10.15 10.15 0 00-2.81-2.62c-1-.69-2.1-1.18-3.09-1.73-3.92-2-6-6.09-8.12-10a44.14 44.14 0 00-3.56-5.85 32.16 32.16 0 00-4.72-5 34.55 34.55 0 00-11.59-6.56 34 34 0 00-12.84-1.72 35.43 35.43 0 00-12.13 3.15c-3.73 1.58-7.17 3.35-10.64 4.72a91.47 91.47 0 01-10.46 3.47 102.49 102.49 0 01-20.3 3.21 129.38 129.38 0 01-39.15-3.57c-1.77-.45-3.54-.9-5.34-1.34a6.5 6.5 0 00-3.21-.07 4.3 4.3 0 00-2.62 2.24c-.47 1-.75 1.77-1.18 2.57a20 20 0 01-1.39 2.34 19.64 19.64 0 01-3.78 4 10.42 10.42 0 01-4.86 2.29 28.31 28.31 0 01-5.73.26 26.3 26.3 0 00-6.21.31 11 11 0 00-5.76 3.18c-2.93 3.31-4.46 7.27-6.89 10.5a12.42 12.42 0 01-1.94 2.18 5.6 5.6 0 01-1.08.82 3.06 3.06 0 01-.57.29l-.71.35c-2.5 1.25-3.73 3.52-4.65 5.57a55.52 55.52 0 00-3.18 13.05c-.64 4.41-1.09 8.88-1.47 13.36s-.75 9-1.13 13.5c-.21 2.24-.47 4.48-.85 6.66a22.89 22.89 0 01-.68 3.06 9.15 9.15 0 01-.45 1.21 1.58 1.58 0 00-.52-.19l-.83-.24c-1.15-.36-2.31-.62-3.47-.84z"/><path d="M590.36 246.77A26.13 26.13 0 01564 277.24c-8.26-.17-16.28-3.59-21.12-9.58-5-5.9-6.23-14-4.86-20.87a27.69 27.69 0 0110.5-16.71 28.9 28.9 0 018-4.29 33 33 0 018.28-1.47c5.36.22 11.59 1.07 16.57 4.91s7.83 10.39 8.99 17.54zm-8.73 4.51a17.69 17.69 0 00-.31-3.19A10.38 10.38 0 11566.69 234a20 20 0 00-2.6-.21 17.54 17.54 0 1017.54 17.54zm-118.08-2.46c1.34 7-.19 15.13-5.39 21s-13.31 9.12-21.66 9.07-16.67-3.16-22-8.76a19.52 19.52 0 01-5.08-9.86c-.71-3.59 0-7.3.78-10.88 1.68-7.13 5.15-13.43 10.08-17.52a24.29 24.29 0 018-4.48 24.7 24.7 0 0116.76 0 28.49 28.49 0 018.12 4.39 27.76 27.76 0 0110.39 17.04zm-9.49 4.06a17.58 17.58 0 00-.31-3.18 10.38 10.38 0 11-14.66-14.14 17.94 17.94 0 00-2.57-.21 17.52 17.52 0 1017.54 17.53z" fill="#fff"/><path class="cls-9" d="M617.76 617.39a42.64 42.64 0 01.1 6.23 37.83 37.83 0 01-1 6.71 12.22 12.22 0 01-1.09 3 3.08 3.08 0 01-.33.47c-.12.12-.05.07-.09.1h-.07l-.95.09c-10.69 1.25-22.44 2.79-34.65 4.08-6.67.74-13.24 1.35-19 1.73-2.9.19-5.62.3-8 .3-1.2 0-2.33 0-3.32-.11-.45-.07-1-.1-1.33-.19s-.11 0-.19 0l-.16-.33-.57-1.18-1.11-2.44c-.69-1.56-1.32-3.09-1.91-4.63a43.27 43.27 0 01-2.58-8.85 12.54 12.54 0 01-.14-2l.07-.8c0-.26.17-.4.12-.47s1.44-.88 2.67-1.23a75.55 75.55 0 018-2c10.66-2.13 20.08-3.31 28.32-4.35 4.77-.23 9.91-.45 16.07-.54 3.07 0 6.4-.07 10 .07 1.3 0 2.62.12 4 .26.55 0 1.11.07 1.66.14a23.84 23.84 0 012.83.45 7.81 7.81 0 011.23.38c.28.12.28.14.37.26a1.52 1.52 0 00.12.33 3.08 3.08 0 01.19.54 7.87 7.87 0 01.33 1.21 21.82 21.82 0 01.41 2.77zm-93.04 5.46a18.82 18.82 0 01.1 2.64 35.48 35.48 0 01-.66 6 36.46 36.46 0 01-1.77 6.37 13.7 13.7 0 01-1.47 2.83 3.34 3.34 0 01-.78.9c-.26.16 0 .07-.26.09-10.5 0-22.21-.09-34.29-.11-8.28-.1-16.43-.24-23.63-.57-3.58-.17-7-.38-10-.66q-2.26-.21-4.17-.57c-.64-.09-1.21-.23-1.73-.35l-.35-.12h-.17l-.14-.35-.45-1.2c-.26-.83-.54-1.63-.83-2.43-.51-1.61-1-3.19-1.44-4.75a40.91 40.91 0 01-1.6-9 7 7 0 01.47-3.35c.05-.26.07-.17.64-.45a18.64 18.64 0 011.89-.47 80.55 80.55 0 018.09-1c10.62-.82 19.88-.92 28.07-1 5.8.36 12.13.76 19.63 1.44 3.73.33 7.79.74 12.16 1.33 2.17.3 4.43.66 6.75 1.13a32 32 0 013.44.85 11 11 0 011.54.56c.19.1.47.26.4.24a.15.15 0 01.12.14l.09.29c.05.18.1.33.14.51.09.21.14.63.21 1.06zM461 598.39a4.6 4.6 0 01-1.27-1c-.05 0 0-.07-.05-.09s0-.31 0-.45a10 10 0 010-1.11c0-.76 0-1.53.05-2.31 0-.45.05-.92.09-1.37.73.09 1.47.14 2.2.16v-1.41a20.74 20.74 0 01-2.1-.17c.19-3 .5-6 .9-8.85.68.12 1.39.19 2.1.26l.12-1.42c-.69 0-1.37-.14-2.06-.23.24-1.54.47-3 .71-4.49s.57-3.11.87-4.62a20.17 20.17 0 002.69.61l.22-1.39a16.63 16.63 0 01-2.6-.61 38.09 38.09 0 012.76-8.45.8.8 0 01.88-.29l1.79.14.94.08a13.74 13.74 0 00-.07 3.68l1.42-.14a12.72 12.72 0 01.09-3.43l1.35.12q3 .28 6.3.64c-.14.82-.26 1.65-.35 2.48l1.41.14c.1-.83.21-1.63.36-2.46h.21c2.74.33 5.57.68 8.47 1.2l.8.14c-.18 1-.33 1.94-.44 2.91l1.41.14c.1-1 .24-1.87.4-2.79a38.75 38.75 0 016.4 1.77 5.64 5.64 0 01.92.45 2.62 2.62 0 01.73.47 1.48 1.48 0 01.45.5 4.87 4.87 0 01.28.82 18.26 18.26 0 01.36 4.49c0 .66-.05 1.34-.1 2-.78-.19-1.55-.4-2.31-.61l-.4 1.34c.85.26 1.72.5 2.6.71-.17 2.08-.5 4.22-.85 6.35-.05.3-.12.59-.19.89a20.89 20.89 0 01-3.1-1l-.51 1.32a20.69 20.69 0 003.35 1.06c-.55 2.57-1.18 5.15-2 7.69-.11.41-.26.78-.4 1.18a20.8 20.8 0 01-3-.92l-.52 1.33a29 29 0 003 1c-.3.78-.61 1.56-1 2.34a15.72 15.72 0 01-2.53 4.18 3.45 3.45 0 01-.71.64 1.46 1.46 0 00-.3.16l-.5.17a20.7 20.7 0 01-2.38.4 39.36 39.36 0 01-5 .07c.12-1.23.19-2.48.23-3.71l-1.41-.07c0 1.25-.12 2.48-.22 3.71a68.12 68.12 0 01-6.89-.73c.29-1.07.55-2.11.78-3.17l-1.37-.3c-.26 1.08-.52 2.17-.82 3.25a5.3 5.3 0 01-.73-.12c-1.28-.21-2.53-.44-3.76-.73l1.06-1.91-1.25-.68c-.4.75-.82 1.51-1.25 2.26a38.81 38.81 0 01-4.32-1.34 16.8 16.8 0 01-1.94-.88z"/><path class="cls-9" d="M602 574.41c-1.23-7.1-2.38-14.87-3.37-23.5-.5-4.32-1-8.85-1.3-13.67-.19-2.41-.31-4.89-.43-7.41 0-1.3 0-2.57-.09-3.9v-2.95l-.21-.21-.4-.4-1.36-1.37c-.14-.17-.28-.31-.42-.48-.73-.75-1.44-1.53-2.17-2.31-1.7-1.89-3.42-3.85-5.12-5.9Q582 506.22 577 499.1a195.3 195.3 0 01-18.5-32.64 163 163 0 01-12.25-41.73 142.06 142.06 0 01-1.25-24.12c0-1.32.07-2.65.19-4 0-.76.09-1.54.16-2.29.1-1.06.19-2.12.26-3.19 0-.33.05-.42.05-.52a1.78 1.78 0 00-.09-.33 1.31 1.31 0 00-.17-.28 2.38 2.38 0 00-.38-.28c-3.21-2.27-7.38-2.93-11.56-2.86v.14l.12.85c.19 1.13.36 2.33.52 3.56.33 2.48.69 5.12 1.06 7.93.71 5.59 1.44 11.82 2 18.5.28 3.33.52 6.78.63 10.34a65.82 65.82 0 01-.33 11 15.25 15.25 0 01-.66 2.9 5 5 0 01-.78 1.56 3.23 3.23 0 01-1.65 1.15 39.88 39.88 0 01-5.62 1.42 98 98 0 01-11.4 1.35 74.09 74.09 0 01-12.1-.17c-4-.5-8.12-1.13-11.59-3.85a7.51 7.51 0 01-2-2.59l-.66-1.42-.48-1.39a26.44 26.44 0 01-.82-2.79 27.62 27.62 0 01-.66-2.76c-.83-3.66-1.39-7.24-1.91-10.74-1-7-1.73-13.5-2.29-19.42-.26-2.95-.52-5.76-.76-8.38s-.33-4.86-.49-7c0 0 0-.05-.12 0-.78.17-1.63.24-2.36.38a19.89 19.89 0 00-4.32 1.16 11.68 11.68 0 00-3.49 2.45 8.33 8.33 0 00-.67.71.45.45 0 00-.07.24l.38 2.12c.17.94.33 1.86.47 2.81.9 5.33 1.58 10.6 2.13 15.84a263.68 263.68 0 011.32 36.06c-.92 23.32-5.41 45.67-15.74 64.13a88.41 88.41 0 01-8.74 12.84c-.82 1-1.58 2-2.47 2.92l-1.3 1.4c-.38.4-.95 1-1 1l-.19.19a.51.51 0 000 .25 1.91 1.91 0 000 .48l.09.92c.1 1.2.21 2.4.31 3.61.8 9.63 1.34 18.93 1.7 27.92.61 17.3.52 33.44-1 48.45 1.18-.09 2.34-.14 3.5-.21 10.88-.45 20.13 0 28.34.38 5.83 0 12.23 0 19.8.38 3.8.19 7.89.45 12.37.89 2.24.24 4.58.55 7.06 1 .42.07.85.14 1.27.24-.4-26.88 1.54-42.46 5.69-46.33a3.9 3.9 0 013-1.14c2.29.22 9.16.83 15.42 45.58 2.31-.59 4.53-1 6.67-1.35a277.15 277.15 0 0128.8-2.85c4.77-.59 9.94-1.11 16.14-1.49 3.12-.19 6.47-.35 10.2-.33h2.86a276.65 276.65 0 01-7.64-33.29zm-96.53 2.76c-.94-.14-1.91-.3-2.86-.49-.14 2.08-.42 4.13-.75 6.23-.05.31-.1.61-.17.92a16.14 16.14 0 002 .14l-.05 1.42c-.73 0-1.44-.07-2.17-.14a73.35 73.35 0 01-2 8.12c-.1.26-.17.54-.26.8a26.29 26.29 0 003.09.19v1.41a26.39 26.39 0 01-3.56-.23c-.36 1-.76 2.05-1.21 3.07a18.84 18.84 0 01-3.11 5.12 9 9 0 01-1.37 1.18c-.29.14-.62.33-.9.45l-.8.26a19.41 19.41 0 01-3 .51 40.82 40.82 0 01-5.52 0c-.12 1.09-.24 2.17-.38 3.26l-1.42-.19c.15-1 .26-2.1.38-3.16a68.24 68.24 0 01-7.53-.88c-.38 1.3-.8 2.58-1.25 3.83l-1.32-.5c.42-1.18.83-2.36 1.18-3.56l-.4-.07c-1.65-.31-3.31-.66-4.91-1.09-.73 1.16-1.51 2.31-2.31 3.42l-1.16-.82c.71-1 1.39-2 2-3a34.75 34.75 0 01-3.73-1.25 19.8 19.8 0 01-2.41-1.18 6.32 6.32 0 01-2.36-2.17 4.11 4.11 0 01-.35-1 3 3 0 01-.05-.76 11.17 11.17 0 010-1.29c0-.83.07-1.63.12-2.43 0-.57.09-1.14.16-1.7a30 30 0 01-3.09-.83l.45-1.35a27.35 27.35 0 002.78.78c.31-3 .71-6 1.21-8.82-1.16-.22-2.29-.52-3.43-.85l.41-1.37c1.06.33 2.17.61 3.25.85.26-1.54.57-3 .88-4.51.37-1.63.73-3.23 1.15-4.79a27.47 27.47 0 01-3.87-1.77l.69-1.25a23.79 23.79 0 003.56 1.63 36 36 0 013.38-8.57 2.27 2.27 0 012.17-1.11h1.79c.4 0 .8 0 1.23.05a14.28 14.28 0 011.15-2.93l1.25.66a10.79 10.79 0 00-.92 2.32h1.07c2.12.07 4.34.19 6.61.35a41.78 41.78 0 011.2-4l1.32.47a32.31 32.31 0 00-1.06 3.64c2.76.21 5.64.47 8.59.9l1 .14c.24-1 .54-1.91.87-2.84l1.33.48c-.31.85-.57 1.72-.81 2.59a38.27 38.27 0 016.87 1.7 7.51 7.51 0 011.23.57 4.22 4.22 0 011.27.8 4.26 4.26 0 011.11 1.3 5.72 5.72 0 01.55 1.44 20.4 20.4 0 01.56 5.26c0 .9 0 1.8-.07 2.69 1 .19 2 .38 2.95.52zM545.8 493a18.64 18.64 0 01-4.6 11.47 20.37 20.37 0 01-10.86 5.85 40.16 40.16 0 01-11.54.78c-7.46-.28-15-2.48-20.32-7.34a22.94 22.94 0 01-5.74-8.47 28.2 28.2 0 01-1.46-4.63 39.36 39.36 0 01-.64-4.58 42.23 42.23 0 01.19-8.68c.16-1.37.38-2.7.64-4l.21-1a2.9 2.9 0 01.49-1.16 2.7 2.7 0 012.22-1.11c9.87-.28 21.79-.52 35.15-.68l5.07-.07h3.26a3.43 3.43 0 011 .12 3.72 3.72 0 011.84 1.16 3.89 3.89 0 01.59.92l.28.64.52 1.27c.35.83.66 1.7 1 2.57.61 1.73 1.13 3.52 1.58 5.34a37 37 0 011.12 11.6z"/><path class="cls-10" d="M549.48 424.26a130.39 130.39 0 01-1.6-23.56c0-1 0-1.93.07-2.9l2 .31c4.79.68 14.8 2.1 28.79 4.43 6.12 1 14.33 2.43 23.35 4.28 3.58.73 8.33 1.72 13.38 3 2.15.52 4.44 1.16 6.91 1.91a33.31 33.31 0 016.45 2.65 3.16 3.16 0 01.85.89 15 15 0 011.6 4.65 62.47 62.47 0 011 7.75c.33 4.76.4 10 .26 16.64-.14 5.52-.43 11.42-.85 17.48l-.07.76a7.45 7.45 0 01-.12 1.2 2.09 2.09 0 01-.54 1 2.37 2.37 0 01-2.48.48L600 458.46a5.88 5.88 0 00-1.68-.12 5.67 5.67 0 00-3.12 1.18 5.58 5.58 0 00-1.93 2.78 7.84 7.84 0 00-.31 2v.71c-.23 3.12-.4 6.4-.51 9.73a231.69 231.69 0 001.81 38.66c-1.15-1.3-2.33-2.67-3.49-4.06-3.33-4-6.68-8.26-10-12.89a201 201 0 01-18.6-31.65 157.86 157.86 0 01-12.69-40.54z"/><path class="cls-9" d="M541.57 482.15a34.41 34.41 0 01.92 10.55 15.35 15.35 0 01-3.77 9.51 17.18 17.18 0 01-9.14 4.89 38.41 38.41 0 01-10.64.78c-7.06-.19-13.83-2.1-18.55-6.23a20.3 20.3 0 01-5.31-7.37 29.58 29.58 0 01-1.49-4.17 41.28 41.28 0 01-.92-12.54c.07-1.34.24-2.64.43-3.89l.14-.94a1.32 1.32 0 01.19-.59 1.18 1.18 0 011-.55c9.87.29 21.79.52 35.15.69l5.07.07h3.26a.61.61 0 01.23.05.8.8 0 01.36.23 1.31 1.31 0 01.09.17l.24.57.47 1.2c.31.83.61 1.63.87 2.45a52.07 52.07 0 011.4 5.12z"/><path class="cls-11" d="M617 611.46c-.44-.43-.9-.84-1.35-1.24a4.68 4.68 0 01-1 .23c-6.59.7-12.9-.61-19.47-.77-5.8-.14-11.52 1.2-17.3 1.5a26.77 26.77 0 00-.45 6.22 35.37 35.37 0 001.73 9.51 34.07 34.07 0 00-25.5 15.92c12.56-1.5 25.19-2.27 37.78-3.59 8.06-.84 16-2.3 24-3.82a3.87 3.87 0 011.8-2.39c3.25-2 3.16-6.42 3.17-9.8v-.12c-1.2-3.86-2.27-7.77-3.41-11.65zm-70-28.69a16.59 16.59 0 00-8.48 2.47 4.27 4.27 0 01.26 1.16c.33 5 2 9.83 2.76 14.8a4.33 4.33 0 010 .62c.77 2.74 1.53 5.49 2.2 8.26a3.83 3.83 0 01-.7 3.4 4.92 4.92 0 01.19 1.2 15.85 15.85 0 003.75.45 16.7 16.7 0 0011.45-4.74 16.45 16.45 0 004.76-11.39c-.39-8.82-7.1-16.23-16.19-16.23zm12.31-13.04a5.4 5.4 0 105.4 5.39 5.45 5.45 0 00-5.4-5.39z"/><path class="cls-11" d="M613.58 608.07c-4.93-5-6.31-16.68-6.41-21.84v-.14c-.37-.76-.75-1.51-1.17-2.25a4.17 4.17 0 01-.51-1.54c-10.65 2.36-19.75 9.81-22.49 21-2 8 6 12.84 12 11.18a9.12 9.12 0 002.89.47h8.54a9.58 9.58 0 008.13-4.94 4 4 0 01-.98-1.94z"/><path class="cls-10" d="M460.48 407.64c4.43-3.63 7.46-6 9.46-7.55.28-.21.54-.43.8-.59.66 4.53 1.18 9 1.59 13.52a244.7 244.7 0 01.7 35.57c-1.32 22.94-6.18 44.54-16.16 62a87 87 0 01-7.39 10.95 139.63 139.63 0 00-2.64-21.34c-.62-3.35-1.3-6.79-2.13-10.52l-1.18-5.22-2.36-9.46-21 29.57a4.24 4.24 0 01-1.23 1.23 3.9 3.9 0 01-3.11.4 69.2 69.2 0 01-16.29-10 49.83 49.83 0 01-6.35-6.63c-.73-1-1.55-2.29-2.33-3.63a25.67 25.67 0 01-1.94-4.25 8.92 8.92 0 01-.47-1.51l-.12-.45a6.79 6.79 0 00-.21-.8c-.09-.43-.21-.85-.28-1.23s-.1-1-.17-1.46a13.36 13.36 0 01-.19-2.91 20.31 20.31 0 011.42-8.05c1.74-4.36 4.74-8.61 9.44-13.31 7.86-7.67 16.69-13.47 24.45-18.62 3.61-2.36 7.08-4.56 10.41-6.68 4.06-2.57 7.86-5 11.35-7.32a168 168 0 0015.93-11.71z"/><path class="cls-5" d="M529 413.64a20.71 20.71 0 004.84-3.35c-.41-3.71-.86-7.26-1.31-10.58-.37-2.78-.75-5.43-1.1-7.88 0-.26-.08-.5-.12-.76v.05c-13.31-5.26-11.64-23.48-10.58-30.12a159.6 159.6 0 01-20.62.8c-2 .05-4.11.07-6.28 0 .85 4.79 2.66 18.12-2 25.08a9.73 9.73 0 01-5.34 4.06c.05.95.1 1.92.17 2.93.21 2.6.42 5.38.66 8.33.16 1.77.34 3.62.53 5.49 10.67 9.97 26.47 12.47 41.15 5.95z"/><path class="cls-10" d="M534.64 418.07c-.24-2.67-.51-5.25-.8-7.78a20.71 20.71 0 01-4.84 3.35c-14.68 6.52-30.48 4-41.18-5.94.43 4.38.94 9 1.62 13.82.49 3.45 1 7 1.81 10.57a45 45 0 001.4 5.31l.42 1.28.54 1.18a5.47 5.47 0 001.47 1.91c2.62 2.12 6.58 2.9 10.34 3.35a72.4 72.4 0 0011.7.17 90.78 90.78 0 0011.12-1.35 34.31 34.31 0 005.24-1.3c.9-.12 1.34-2.12 1.58-3.77a65.71 65.71 0 00.26-10.58c-.14-3.49-.38-6.89-.68-10.22z"/><path class="cls-5" d="M582.71 227.44a23.24 23.24 0 00-9.06-3.82 39.41 39.41 0 00-8.83-.71A32.1 32.1 0 00556 224a30 30 0 00-8.8 4.27 29.74 29.74 0 00-12.2 29.95 25.53 25.53 0 005.31 11.47 27.92 27.92 0 0010.41 8 34.05 34.05 0 0013.14 2.91 29.09 29.09 0 0023.49-11 28.26 28.26 0 005.52-11.3 29.06 29.06 0 00.23-12 38.21 38.21 0 00-3.54-10.66 22.72 22.72 0 00-6.85-8.2zm-49-14.63c1.09-.15 2.18-.43 3.33-.5a74.13 74.13 0 0114.64-.12 89.19 89.19 0 0116.07 3c2.74.8 5.52 1.65 8.28 2.69 1.4.49 2.76 1.06 4.16 1.65l2 .9c1.25.56 2.79 1.36 4.15 2.05.05-.4.15-1.13.26-1.89.26-2 .52-4 .81-6l.37-2.93.15-1.13-1-.5-1.6-.75a70.18 70.18 0 00-8.48-3.54 71.29 71.29 0 00-16.85-3.51 74 74 0 00-28.35 3.09 2.51 2.51 0 00-1.58 1.28 3.23 3.23 0 00-.26 1.89c.07 1.22.17 2.47.26 3.73a5.67 5.67 0 00.17 1.2l1.25-.21c.74-.14 1.51-.21 2.22-.4zm-141.14 82.6c-5.12-12.29-7-24.33-7.76-34.55l.66.28c1.09.45 2.17.88 3.28 1.25l2 .64.85.24h.78c.25 0 .54.12.75-.07l.68-.44a6.28 6.28 0 002.15-2.51 10.42 10.42 0 00.73-2 32.41 32.41 0 00.78-3.68c.36-2.41.55-4.75.71-7.06.28-4.6.43-9.14.59-13.62s.36-8.87.78-13.19a50.76 50.76 0 012.38-12.4c.71-1.86 1.77-3.58 3.14-4.31a3.87 3.87 0 01.71-.38c.26-.17.57-.29.8-.47A8.54 8.54 0 00408 202a16 16 0 002.15-2.64c2.43-3.66 3.89-7.65 6.44-10.5 5.22-6.14 15.41 0 22.19-6.07a21.59 21.59 0 004.1-4.34 21 21 0 001.58-2.5c.48-.85.83-1.82 1.23-2.53a2.27 2.27 0 011.49-1.27 4.94 4.94 0 012.26.14c1.78.52 3.52 1 5.24 1.53a127.36 127.36 0 0039.89 4.86 98.72 98.72 0 0021-3.4 88.06 88.06 0 0010.77-3.71c3.61-1.48 7.08-3.35 10.62-4.91a32.23 32.23 0 0111.16-3.09 31.69 31.69 0 0130.68 17.37 51.19 51.19 0 003.57 5.95 16.06 16.06 0 005.43 4.79c2.12 1.11 4.06 2 5.24 3.8a14.09 14.09 0 012.12 6.16c1.11 9.3 2.15 19 3.16 28.8.57 4.88 1.14 9.84 1.7 14.84.33 2.65.66 5.29 1 8 .14 1.25.35 2.45.59 3.65v.24c0 .07.15 0 .19 0l.48-.05.92-.09 1.86-.24c1.51-.19 1.91-.26 2.57-.4s1.28-.23 1.92-.38a53.36 53.36 0 005.85-1.74 68.22 68.22 0 01-.36 7.43c-.3 3-.37 6.23-.89 9.49s-1.18 6.61-1.89 10c-1 3.38-2 6.87-3.14 10.39a95.37 95.37 0 01-27.38 39.34c-13.14 11.24-28.49 18.22-42.77 22.45a168.46 168.46 0 01-38.91 6.27 171.09 171.09 0 01-37.79-5.94 119.88 119.88 0 01-41.87-21.1 93.62 93.62 0 01-27.83-37.19zM553 313.28c4.79-5.29 7.88-11.28 7.57-16.33-.14-.88-.4-1.4-.61-1.35s-.35.62-.33 1.37c-.43 4.49-3.75 9.72-8.57 14.45A50.6 50.6 0 01532 323.07a39.49 39.49 0 01-22.07.85 50.68 50.68 0 01-15.69-7.26c-.69-.43-1.25-.64-1.39-.45s.18.63.8 1.2a41.84 41.84 0 0015.55 9.11 38.81 38.81 0 0023.84-.28A47.36 47.36 0 00553 313.28zm-39-41.54a12.48 12.48 0 000-4.65c-.07-.45-.28-.75-.49-.73s-.4.35-.45.78a12.09 12.09 0 01-3.56 8c-2.44 2.38-6.38 3.73-10.58 3.7a15.7 15.7 0 01-10.62-3.65 10.17 10.17 0 01-3.09-8c0-.43-.14-.78-.36-.83s-.44.23-.56.68a9.92 9.92 0 00-.4 4.63 10.2 10.2 0 002.45 5.36c2.83 3.3 7.62 5.19 12.58 5.17s9.77-1.87 12.56-5.22a11.7 11.7 0 002.52-5.24zm-47.7-11.31a29.27 29.27 0 00.05-12.15 29.81 29.81 0 00-20.77-22.61 35.14 35.14 0 00-17.87 0 25.42 25.42 0 00-8.82 4.51c-5.55 4.25-9.49 11-11.43 18.53a41.76 41.76 0 00-1.15 5.83 22.45 22.45 0 00.09 6.28 22.81 22.81 0 005.74 11.54c6.09 6.44 15.17 9.79 24.35 9.89s18.41-3.5 24.13-10.29a26.34 26.34 0 005.66-11.53zm0-52.34a1.8 1.8 0 00-1.33-1.87 72.92 72.92 0 00-28.44-2.5 71.08 71.08 0 00-16.8 3.89 68.6 68.6 0 00-8.43 3.71l-3.09 1.6.57 3.47c.28 1.8.59 3.59.87 5.43.21 1.16.4 2.34.5 3 1.34-.76 2.83-1.59 4.08-2.18l2-1c1.34-.62 2.69-1.23 4.06-1.75 2.71-1.13 5.45-2 8.14-2.93a89.37 89.37 0 0115.86-3.47 72.23 72.23 0 0114.52-.35 29.73 29.73 0 013.33.38l1.95.28 1.26.19.61.09c.09-.09.05-.4.07-.56.07-1.35.12-2.67.19-3.94-.01-.48-.01-1 .02-1.49z"/><path class="cls-12" d="M487.14 407.7c-.24.23-.2.68.1 1.08a27.17 27.17 0 008.3 7.06 31.1 31.1 0 0014 4 33.58 33.58 0 0014.25-2.65c2-.92 3.71-1.92 5.27-2.85 1.46-1.09 2.75-2.11 3.82-3 .37-.33.51-.73.33-1a.94.94 0 00-1.08-.2c-5.14 2.05-13.21 5.08-22.36 4.73s-16.85-4.3-21.53-7.08a.9.9 0 00-1.1-.09zm234.14-80.54a4.08 4.08 0 00.76-3.08 12.65 12.65 0 00-.61-2.92 27 27 0 00-2.63-5.55 39 39 0 00-9-10.15 33.56 33.56 0 00-13.69-6.68 30.12 30.12 0 00-8.19-.62 33 33 0 00-4.18.55c-.7.14-1.38.34-2.07.51-.34.09-.69.16-1 .28l-1.23.42c-.65.23-1.3.45-1.9.69l-.46.17c-.05 0-.19 0-.18.11l.06.24.26 1c.19.63.35 1.29.57 1.89l.36 1a40.77 40.77 0 001.69 3.81 37.84 37.84 0 004.39 6.82 33.86 33.86 0 0011.92 9.47c4.38 2.2 9 2.84 13.19 3.21 2.11-.05 4.14.07 6.06-.15l5.46-.76-.22-1.41-5.34.33c-1.86.08-3.79-.16-5.78-.22-3.93-.59-8.2-1.37-12.13-3.54a32.31 32.31 0 01-10.64-8.92 36.09 36.09 0 01-4-6.31 35.21 35.21 0 01-1.52-3.5L681 303l.7-.24c.3-.12.62-.17.93-.26.62-.15 1.23-.34 1.85-.46a30.09 30.09 0 013.73-.51 27.79 27.79 0 017.31.46 31.63 31.63 0 0112.63 5.77 39.15 39.15 0 018.84 9.11 26.54 26.54 0 012.76 5 10.83 10.83 0 01.72 2.46 2.86 2.86 0 01-.21 2zm14.04-26.22c-.2-1.22.71-2.92 1.69-4.36a28.53 28.53 0 013.78-4.26 38.93 38.93 0 0110.58-7 31.28 31.28 0 0113.55-2.95 28.28 28.28 0 017.24 1.13 33.3 33.3 0 013.53 1.3l1.72.85a7.67 7.67 0 01.84.46l.32.19c-.06.08.27-.43-.69 1.13-.69 1.07-1.45 2.1-2.23 3.1a36.4 36.4 0 01-5.2 5.32 31.72 31.72 0 01-12.29 6.43 34.67 34.67 0 01-6.42 1.06c-1.06.07-2.11 0-3.14 0a16 16 0 01-3-.18l-2.92-.42-1.42-.2-1.36-.37-2.64-.7-1.28-.33-.54-.15h-.19l-1.26.36a1.56 1.56 0 00.77.93 5.31 5.31 0 00.71.27l1.28.45 2.67.92 1.39.48 1.46.31 3 .63a17.72 17.72 0 003.21.36c1.09.06 2.21.2 3.35.18a35.92 35.92 0 007-.87 33.18 33.18 0 0013.65-6.69 38 38 0 005.75-5.73c.85-1.08 1.68-2.19 2.45-3.37a26.2 26.2 0 001.36-2.33l.91-1.77a13.78 13.78 0 00-1.62-1.07l-1.44-.86a10.45 10.45 0 00-.93-.51l-1.91-.93a33.53 33.53 0 00-4-1.42 29.92 29.92 0 00-8.13-1.17 33.19 33.19 0 00-14.79 3.6 39.33 39.33 0 00-10.94 8 28.24 28.24 0 00-3.76 4.85 13.29 13.29 0 00-1.26 2.67 5 5 0 00-.25 3.07z"/><path class="cls-13" d="M722 325a65.35 65.35 0 00-9.24-9.86c-4.79-4.19-12.37-9.46-21.3-10.74-.65-.11-1-.17-1.1.17s.29.45 1 .61c6.78 1.47 13.55 5.32 20.13 11.43a71.57 71.57 0 018.73 9.73c.37.5.46.53.57.54h.12l1.49-1v-.12c-.01-.1.01-.22-.4-.76zm47.36-38.5a38.26 38.26 0 00-23.91 3.74 40.08 40.08 0 00-11.08 8.27c-.42.45-.58.7-.35.93l1.2 1a.29.29 0 00.2.08c.18 0 .37-.21.62-.48a40.46 40.46 0 0110.34-8 39.53 39.53 0 0122.89-4.71c.67 0 1.06.05 1.09-.29s-.36-.46-1-.54z"/><path class="cls-13" d="M712.37 408.26c1.89-17.11 2-34.42 3.42-51.71a212.74 212.74 0 013.62-25.77c.92-4.25 1.52-8.49 2.18-12.72a74.07 74.07 0 001.14-12.75 47.4 47.4 0 00-1.49-12.53 79.48 79.48 0 00-4.58-11.92c-.89-2-1.79-3.93-2.64-5.95-.43-1-.84-2-1.23-3.05l-.56-1.55-.26-.79-.13-.39a1.8 1.8 0 01-.12-.9 1.78 1.78 0 01.54-1.07 2.67 2.67 0 01.61-.39 8.67 8.67 0 01.82-.38 11.81 11.81 0 011.67-.58 23.78 23.78 0 013.35-.64l.83-.1h.61a3.63 3.63 0 01.38 0 1.69 1.69 0 011.16.54 2.12 2.12 0 01.45.92l.17.79.72 3.15c2 8.37 4.31 16.67 7.05 24.81a2.38 2.38 0 00.47.9h-.06a6 6 0 00.75-2.33l1.46-6.32 2.91-12.62 5.83-25.25.76-3.28a1.79 1.79 0 01.72-.94 4.08 4.08 0 01.6-.28 4.39 4.39 0 011.11-.23 4.54 4.54 0 012.13.35 4.49 4.49 0 011.75 1.29 4.3 4.3 0 01.87 2.06 13.84 13.84 0 01-.23 3.54c-.58 4.29-1.16 8.59-1.95 12.87a100.7 100.7 0 01-3.12 12.74c-1.35 4.19-3.13 8.19-4.85 12.14s-3.33 7.87-4.7 12-2.73 8.15-3.78 12.29a100.45 100.45 0 00-2.36 12.61l-1.84 12.84c-1.27 8.55-2.4 17.07-3 25.66l-.4 6.45c-.13 2.21-.36 4.36-.59 6.52L721 391.11c-.24 2.13-.55 4.31-.67 6.37s-.08 4.22 0 6.38c.09 4.3.25 8.81-1.08 13.24l-2.26-.7c1.19-3.89 1.08-8.18 1-12.48-.05-2.16-.09-4.36 0-6.58s.45-4.35.69-6.52L720.2 378c.23-2.14.46-4.29.59-6.39l.4-6.49c.61-8.66 1.75-17.28 3-25.83l1.84-12.82a106.79 106.79 0 012.41-12.87c1.08-4.24 2.42-8.38 3.84-12.48s3-8.22 4.76-12.15a125.64 125.64 0 004.79-11.97 97.13 97.13 0 003-12.43c.78-4.22 1.37-8.48 1.94-12.76a12.08 12.08 0 00.23-2.9 1.81 1.81 0 00-1.19-1.5 2.15 2.15 0 00-1-.18 1.52 1.52 0 00-.48.1s-.22.1-.13 0a.55.55 0 00.24-.29l-.7 3-5.83 25.28L735 288l-1.46 6.32c-.13.55-.22 1-.39 1.63a3.91 3.91 0 01-1.17 2 2.3 2.3 0 01-3-.11 4.51 4.51 0 01-1.12-1.88q-4.17-12.36-7.12-25.05l-.72-3.17-.18-.8c-.06-.26 0 .13.13.19a.68.68 0 00.45.21l-1.4.16a22.4 22.4 0 00-3 .57 14 14 0 00-1.38.48 6.44 6.44 0 00-.65.3c-.42.26.14-.09.1-.34-.06-.5.07.1.15.27l.25.75.51 1.47c.37 1 .76 2 1.18 3 .82 2 1.72 3.93 2.6 5.91a80.71 80.71 0 014.68 12.27 49.57 49.57 0 011.54 13.14 77.6 77.6 0 01-1.2 13c-.68 4.31-1.31 8.63-2.22 12.83a205.77 205.77 0 00-3.58 25.59c-1.42 17.17-1.44 34.5-3.32 51.78zm-17.8 13.47c-14.44 0-53.15-4.1-64-6.91l.77-3c11.07 2.86 53.91 7.27 65.45 6.77l.14 3.06c-.72.06-1.5.08-2.36.08zm-8.4 14.75c-20.73 0-50.39-4.44-51.84-4.66l.53-3.5c.4.07 40.75 6.11 60 4.27l.33 3.52c-2.7.26-5.75.37-9.02.37zm25.83 8.04c-2 39.61-5.71 79.08-9.86 118.49l-6.49 59.07c-2.12 19.69-4.62 39.36-6.11 59-.71 9.85-1.16 19.7-1.19 29.57v7.4l.07 3.7c0 1.2 0 2.58.16 3.49s.46 1.19 1 1.31a2.67 2.67 0 002.08-.83c1.11-1.16 1.15-3.58 1-6-.57-19.93 1.15-39.77 3-59.48s3.43-39.46 6.14-59.16l1.11-7.37.64-3.71a13.82 13.82 0 011.4-3.82 13.38 13.38 0 012.5-3.18 32.9 32.9 0 012.88-2.54 74.64 74.64 0 016.16-4.23 27.54 27.54 0 002.7-2.31l1.29-1.28c.32-.33.11-.11.16-.14s.06.14 0 0l-2-3.1-1-1.55a.71.71 0 001.09 0c.14-.18 0-.08 0 0l-.17.26a4.41 4.41 0 01-.35.45 21.72 21.72 0 01-6.43 4.53 21.31 21.31 0 01-7.51 2.26l-1.49.13.25-1.5a975.13 975.13 0 0012.42-129.57l2.36.07a975.43 975.43 0 01-12.46 129.89l-1.22-1.37a19 19 0 006.63-2 19.47 19.47 0 005.66-3.94 1.24 1.24 0 00.22-.27l.35-.49a1.67 1.67 0 012.65.25l1 1.55 2 3.11a2.34 2.34 0 01.41 1.71 2.59 2.59 0 01-.79 1.41l-1.26 1.32a30 30 0 01-2.93 2.52c-2.22 1.47-4.16 2.66-6.06 4.2a19 19 0 00-4.75 5 11.12 11.12 0 00-1.13 3.14l-.6 3.61-1.07 7.32c-2.61 19.57-4 39.35-5.87 59.06s-3.43 39.44-2.81 59.14a26.23 26.23 0 01-.06 3.94 7.39 7.39 0 01-1.77 4.22 5.57 5.57 0 01-4.63 1.74 4.08 4.08 0 01-2.55-1.36 5.09 5.09 0 01-1.06-2.4 38 38 0 01-.21-3.92l-.08-3.73-.06-7.46c0-9.94.37-19.88 1.15-29.79 1.56-19.81 4.12-39.45 6.3-59.14l6.67-59c4.27-39.37 8.09-78.79 10.21-118.32z"/><path class="cls-12" d="M694.69 423.14a3.22 3.22 0 00.81 2.22 5.33 5.33 0 001.92 1.23 18.39 18.39 0 004.21 1c2.89.35 6 .46 9.17.55s6.51.16 10 .46a25.2 25.2 0 005.81.06 4.32 4.32 0 002-.92 3.9 3.9 0 001.21-1.94 8.7 8.7 0 00.2-3.51 6.35 6.35 0 00-1.63-3.33 8.27 8.27 0 00-2.75-1.93 18.89 18.89 0 00-5.66-1.47 56.55 56.55 0 00-10.38-.1 38 38 0 00-9.22 1.65 11.35 11.35 0 00-3.9 2.14 4.93 4.93 0 00-1.76 3.92h1.43c.09-2 2.31-3.31 4.88-3.94a40.2 40.2 0 018.7-.94 62.74 62.74 0 019.81.45c3.19.43 6.91 1.64 7.18 4.08a6.13 6.13 0 01-.1 2c-.2.48-.06.37-.67.58a26 26 0 01-4.91 0c-3.52-.22-7-.19-10.2-.09s-6.23.17-9 .06a17.33 17.33 0 01-3.79-.49c-1.16-.32-1.84-.83-1.92-1.71z"/><path class="cls-12" d="M695.54 433.34c.08-2.11 2.41-3.42 5.05-4.07a42.43 42.43 0 019-1c3.22-.09 6.72 0 10.24.15a18 18 0 014.92.79c1.33.53 1.79 1.28 2 3a8.37 8.37 0 01-.05 2.28c-.2.47-.07.37-.72.61a26.61 26.61 0 01-5.06.12c-3.61-.12-7.18-.08-10.49.1s-6.44.46-9.25.47-5.56-.32-5.58-2.43h-1.43a11.08 11.08 0 00.1 1.12 3.32 3.32 0 00.5 1.12 4.22 4.22 0 001.9 1.49 14.47 14.47 0 004.33.91c3 .23 6.13.14 9.42.14s6.68.07 10.29.28a25.62 25.62 0 006-.11 4.31 4.31 0 002-1 4 4 0 001.2-2 10.65 10.65 0 00.14-3.43 7.27 7.27 0 00-1.11-3.46 6 6 0 00-3-2.3 20 20 0 00-5.95-.91c-3.7-.08-7.17 0-10.54.23a39.28 39.28 0 00-9.46 1.73 11.61 11.61 0 00-4 2.18 5 5 0 00-1.82 4z"/><path class="cls-12" d="M699.74 441.39c.09-.65.7-1.24 1.63-1.66a13.78 13.78 0 013.14-1 45.2 45.2 0 017.64-.64c2.71 0 5.72.06 8.71.16a19.4 19.4 0 014.22.49c1.17.43 1.41.7 1.61 2.1v1a1 1 0 010 .31 2 2 0 01-1 .33 29.8 29.8 0 01-4.37.32l-8.79.19c-2.79.06-5.42.12-7.81 0a18.18 18.18 0 01-3.31-.4 4 4 0 01-1.24-.5 1.16 1.16 0 01-.49-.76h-1.42a2.68 2.68 0 00.85 2 5.4 5.4 0 001.72 1 18.33 18.33 0 003.67.87 79.46 79.46 0 008 .59c2.82.09 5.74.17 8.84.2a28.87 28.87 0 005-.27 6.28 6.28 0 001.53-.45 3.63 3.63 0 001.64-1.39 3.92 3.92 0 00.54-2 11.23 11.23 0 00-.07-1.43 5.86 5.86 0 00-1.15-3.11 5.51 5.51 0 00-2.84-1.79 20.83 20.83 0 00-5.07-.53c-3.14 0-6 0-8.92.23a39.6 39.6 0 00-8 1.3 14.25 14.25 0 00-3.52 1.5 3.91 3.91 0 00-2.14 3.27zm4.93-24.39a5.82 5.82 0 01-3.78-5.43 4.66 4.66 0 011.3-3.44 5.84 5.84 0 013.81-1.49c3.14-.23 6.13 1.32 6.81 3.61s-.68 4.81-2.44 6l.68 1.25a7.58 7.58 0 003.41-2.7 6.86 6.86 0 001.09-5.25 7.49 7.49 0 00-3.63-4.87 10.85 10.85 0 00-6.13-1.4 8.66 8.66 0 00-5.94 2.63 7.36 7.36 0 00-1.78 5.83 7.57 7.57 0 002.31 4.74 7.09 7.09 0 003.94 1.88z"/><path class="cls-13" d="M390.8 486.34l-.15-.35-3.22-1.45c-.94-.39-1.27.38-2.16 2.42l-.11.26c-1.63 3.73-5 11.51-10.14 24.39-2.73 6.95-5.69 14.66-8.89 24l-.27.78c-.72 2.12-1.47 4.31-2.16 6.58-.85 2.59-1.65 5.28-2.39 8-.66 2.21-1.19 4.48-1.75 6.88l-1.26 6.5a14.69 14.69 0 00-.18 1.64c0 .28-.05.56-.08.86l-.12 1.48-1.15.94c-.86.71-1.9 1.62-3.07 2.73a52.83 52.83 0 00-7.88 9.37 35.94 35.94 0 00-5.84 15.1 26.83 26.83 0 00.25 9.06 15.1 15.1 0 004.63 8.36 6 6 0 003.05 1.61 1 1 0 00.3 0l.41-.13.18-.38c.34-.72-.28-1.19-.73-1.53a18.91 18.91 0 01-1.58-1.32 12.85 12.85 0 01-3.55-7.1 24.83 24.83 0 01.05-8.11 32.9 32.9 0 015.7-13.57 46.85 46.85 0 017.61-8.48c1-.9 2-1.73 3-2.41.32-.24.6-.43.86-.61l1.44-1 .31-.39.4-3.22c0-.28.06-.56.08-.85a12.32 12.32 0 01.17-1.36l.85-4.41.47-1.91c.56-2.26 1.09-4.41 1.76-6.51.76-2.66 1.58-5.28 2.44-7.82.7-2.18 1.44-4.28 2.17-6.31l.32-.92c3.23-9.05 6.27-16.71 9.08-23.64 5.11-12.47 8.53-20.2 10.17-23.92l.22-.5c.96-2.27.88-2.42.76-2.76z"/><path class="cls-13" d="M367.48 621c-.07-.45-.47-.64-1.23-.53h-.15a29.36 29.36 0 01-4.19.37 16.29 16.29 0 01-7.24-1.32 11 11 0 01-5.66-7.22 29.45 29.45 0 01-.51-11.78c.06-.39.21-1.29-.48-1.45s-.95.72-1.07 1.1a28.53 28.53 0 00-.93 12.84 15.74 15.74 0 002.37 5.92 12.79 12.79 0 004.46 4.09 19.07 19.07 0 009 2.2h.65a31.2 31.2 0 004.32-.3c.74-.08.9-.3 1-.39l.16-.22z"/><path class="cls-13" d="M358.27 594.38a93.17 93.17 0 001.2 11.47 28.17 28.17 0 003.87 10.33 16.5 16.5 0 008.05 6.41 24.29 24.29 0 0010.58 1l-.51.11a2.32 2.32 0 001.05-.89 1.67 1.67 0 000-1.33 10.91 10.91 0 00-2.77-4c-.62-.64-1.34-1.28-2.12-2s-1.47-1.5-2.15-2.3a44.37 44.37 0 01-3.74-5 37.13 37.13 0 01-3-5.57 18.88 18.88 0 01-1.62-6.49 7.66 7.66 0 01.81-3.94 5.64 5.64 0 013.51-2.76 9.77 9.77 0 013.81-.24 6.19 6.19 0 012.1.63 4.48 4.48 0 011.9 1.93 9.29 9.29 0 01.69 3.74 10 10 0 00.33 2.43 4.82 4.82 0 002.93 2.92 14.25 14.25 0 0010.08.36c1.54-.61 2.38-1.5 2.37-2.49s-.82-2.69-1.92-4c-2.19-2.76-5.47-4.42-9.12-5.9a35.81 35.81 0 01-5.6-2.8 11.07 11.07 0 01-4.49-5.39 14.94 14.94 0 01-.69-6.67c.17-2.07.47-4.08.81-6.08a226.84 226.84 0 015.7-23.37c2.28-7.66 4.82-15.25 7.69-22.72 1.45-3.73 3-7.43 4.68-11.08a62.61 62.61 0 016-10.59l1.89 1.41a60.42 60.42 0 00-5.59 10.24c-1.6 3.6-3 7.28-4.4 11-2.7 7.44-5.07 15-7.18 22.64a226.81 226.81 0 00-5.36 23c-.3 1.93-.57 3.86-.7 5.75a11.32 11.32 0 00.52 5.09c1.06 3 4.47 4.48 8.18 5.94s7.84 3.39 10.7 6.92c1.34 1.7 2.81 3.69 2.85 6.64a6 6 0 01-1.65 4 8.66 8.66 0 01-3.2 2.1 16.75 16.75 0 01-6.67 1 17.88 17.88 0 01-6.55-1.43 10.69 10.69 0 01-3.06-2 7.85 7.85 0 01-2.07-3.35 13.45 13.45 0 01-.52-3.45 6.67 6.67 0 00-.27-2.11c-.06-.1 0-.07-.17-.15a2.18 2.18 0 00-.75-.19 5.72 5.72 0 00-2.1.11 1.57 1.57 0 00-1.07.79 3.84 3.84 0 00-.3 1.85c.19 3.2 2 6.83 4 9.94a39.74 39.74 0 003.41 4.53c.61.72 1.27 1.4 1.93 2.06s1.41 1.3 2.18 2.09a14.7 14.7 0 013.83 5.78 5.7 5.7 0 01-1.79 6.26 6.59 6.59 0 01-1.93 1.15l-.22.08h-.29a27.06 27.06 0 01-12.44-1.52 18.82 18.82 0 01-9.44-8.44 30.91 30.91 0 01-3.43-11.72 32.12 32.12 0 01.87-11.85z"/><path class="cls-12" d="M500.1 359.64a171.7 171.7 0 01-37.78-5.94 120 120 0 01-41.87-21.11 93.49 93.49 0 01-27.88-37.18c-5.55-13.33-7.27-26.36-7.95-37.09h-2.14c-.2 10.92.81 24.5 6.15 38.65a92.31 92.31 0 0028.67 39.53 115 115 0 0043.93 21.29 145.22 145.22 0 0038.87 4zm115.36-106.71c-.05 2.78 0 5.7-.36 8.74s-.38 6.23-.9 9.48-1.18 6.6-1.89 10c-1 3.36-2 6.87-3.14 10.39a95.59 95.59 0 01-27.37 39.33c-13.16 11.24-28.5 18.22-42.77 22.46a168.07 168.07 0 01-38.93 6.27v2.14a144.58 144.58 0 0040.06-4.32c14.87-3.89 31-10.9 44.9-22.74A94.42 94.42 0 00613.18 293c1.11-3.72 2-7.41 2.87-10.94.59-3.61 1-7.12 1.46-10.49s.24-6.66.36-9.77a80.9 80.9 0 00-.27-8.93z"/><path class="cls-12" d="M383 267.3a24.89 24.89 0 01-8.89 5 23.72 23.72 0 01-11.51.6 23.09 23.09 0 01-11.22-5.67 22.62 22.62 0 01-6.78-11.57 20.14 20.14 0 011.09-13.1 17.26 17.26 0 019.07-8 35 35 0 0111.59-2.4 37.11 37.11 0 0110.38.92l.65-2a34.78 34.78 0 00-11-2.21 35.31 35.31 0 00-13.12 1.78 21 21 0 00-11.83 9.75 24.14 24.14 0 00-1.7 16.45 26.59 26.59 0 008.46 14 25.59 25.59 0 006.59 4.21 24.77 24.77 0 007.16 2 25.71 25.71 0 0013.33-1.65 25 25 0 009.26-6.59z"/><path class="cls-12" d="M347.74 248.89c.16.06.38-.06.56-.31a21.32 21.32 0 014.63-4.66 15.82 15.82 0 017.72-2.78 24.88 24.88 0 018.44.84c1.25.39 2.48.61 3.55 1s2.05.71 2.94 1c.3.09.57.05.65-.11s0-.38-.3-.56c-.76-.53-1.66-1.11-2.67-1.72a29.78 29.78 0 00-3.52-1.66 20.83 20.83 0 00-9.34-1.45 15.15 15.15 0 00-8.82 3.78 14.4 14.4 0 00-3.95 6c-.11.3-.05.57.11.63z"/><path class="cls-12" d="M357.67 240.29a.4.4 0 00-.52 0 8.63 8.63 0 00-3.38 3.72 12.4 12.4 0 00-1.17 6.56 16.63 16.63 0 001.82 6.25 18 18 0 002.76 4 .38.38 0 00.49.13.43.43 0 00.16-.51c-.68-2.42-2.25-6-2.56-10.08a14.18 14.18 0 012.38-9.5.47.47 0 00.02-.57zm258.07 27.76c-.22.23.06.94.78 1.69a23.87 23.87 0 008.61 5.73 25.47 25.47 0 0012.73 1.44 24.48 24.48 0 007-2 24.79 24.79 0 006.5-4.15 26.39 26.39 0 008.44-14 24.11 24.11 0 00-1.69-16.39 20.76 20.76 0 00-11.59-9.6A33 33 0 00634 229a33.5 33.5 0 00-10.07 1.83c-1 .35-1.55.85-1.45 1.16s.83.37 1.81.22a39.75 39.75 0 019.66-.31 34.07 34.07 0 0111.1 2.6 17.27 17.27 0 018.84 8 20.28 20.28 0 011 13.08 21.77 21.77 0 01-2.56 6.37 21.19 21.19 0 01-4.17 5.19 21.43 21.43 0 01-5.24 3.68 22 22 0 01-5.76 2.06 24.22 24.22 0 01-11.14-.22 25.77 25.77 0 01-8.58-4c-.79-.55-1.44-.84-1.7-.61z"/><path class="cls-12" d="M651.78 248.89c.17-.06.22-.33.12-.65a14.53 14.53 0 00-4-6 15.15 15.15 0 00-8.82-3.78 20.86 20.86 0 00-9.34 1.45 28.87 28.87 0 00-3.51 1.66c-1 .61-1.91 1.19-2.67 1.72-.27.18-.39.41-.31.56s.35.2.66.11c.88-.26 1.87-.59 2.94-1s2.29-.63 3.54-1a24.88 24.88 0 018.44-.84 15.82 15.82 0 017.72 2.78 21.32 21.32 0 014.63 4.66c.22.27.44.44.6.33z"/><path class="cls-12" d="M641.85 240.29a.45.45 0 000 .52 14.3 14.3 0 012.38 9.5c-.32 4.07-1.89 7.66-2.57 10.08a.46.46 0 00.16.51.4.4 0 00.5-.13 18 18 0 002.75-4 16.63 16.63 0 001.82-6.25 12.3 12.3 0 00-1.17-6.56 8.68 8.68 0 00-3.37-3.72.41.41 0 00-.5.05zm-205.22-14.36a31.51 31.51 0 018.38 1.5 28.82 28.82 0 018.12 4.38 27.79 27.79 0 0110.42 17c1.34 7-.2 15.13-5.38 21s-13.32 9.11-21.69 9.07-16.65-3.16-22-8.76a19.52 19.52 0 01-5.07-9.85c-.7-3.59-.05-7.3.78-10.9 1.68-7.11 5.15-13.42 10.08-17.5a24 24 0 018-4.48 31.32 31.32 0 018.38-1.45v-1.42a32 32 0 00-8.93 1.11 25.68 25.68 0 00-8.84 4.51c-5.54 4.26-9.49 11-11.43 18.54a43.28 43.28 0 00-1.15 5.81 21.74 21.74 0 005.84 17.82c6.09 6.47 15.17 9.81 24.35 9.91s18.42-3.5 24.13-10.31a26.4 26.4 0 005.69-11.46A29.79 29.79 0 00454.45 230a30.27 30.27 0 00-8.88-4.36 32.48 32.48 0 00-8.94-1.15zm128.19-1.6c5.35.22 11.59 1 16.56 4.91s7.83 10.39 9 17.54A26.12 26.12 0 01564 277.24c-8.27-.16-16.31-3.57-21.14-9.57-5-5.9-6.23-14-4.86-20.88a27.74 27.74 0 0110.51-16.71 29.4 29.4 0 018-4.29 32.5 32.5 0 018.29-1.46v-1.42A32.14 32.14 0 00556 224a30.4 30.4 0 00-8.8 4.26 29.7 29.7 0 00-12 17.92 30.1 30.1 0 00-.19 12 25.77 25.77 0 005.32 11.47 27.94 27.94 0 0010.41 8 34.37 34.37 0 0013.13 2.91 29.08 29.08 0 0023.49-11 28.6 28.6 0 005.53-11.33 29.34 29.34 0 00.22-12 38.9 38.9 0 00-3.52-10.67 22.87 22.87 0 00-6.91-8.14 23.31 23.31 0 00-9.05-3.84 40.62 40.62 0 00-8.83-.71z"/><path class="cls-12" d="M445 254.48a10.38 10.38 0 01-5.92-18.92 18.2 18.2 0 00-2.58-.21 17.58 17.58 0 1017.23 14.35 10.37 10.37 0 01-8.73 4.78zm127.6-1.6a10.38 10.38 0 01-5.93-18.88 18.18 18.18 0 00-2.57-.21 17.58 17.58 0 1017.22 14.35 10.37 10.37 0 01-8.72 4.74zm-87.76 13.49c-.22 0-.45.22-.59.67a10.31 10.31 0 002.06 10c2.84 3.3 7.62 5.2 12.58 5.18s9.79-1.87 12.55-5.22a11.7 11.7 0 002.55-5.25 12.61 12.61 0 000-4.64c-.08-.45-.28-.75-.5-.73s-.39.34-.44.77a12.24 12.24 0 01-3.57 8c-2.43 2.37-6.38 3.73-10.58 3.71a15.76 15.76 0 01-10.62-3.67 10.17 10.17 0 01-3.08-8c-.01-.43-.15-.77-.36-.82zM560 295.6c-.22 0-.34.62-.33 1.37-.41 4.5-3.74 9.74-8.57 14.46a50.26 50.26 0 01-19.1 11.64 39.47 39.47 0 01-22.06.86 50.37 50.37 0 01-15.71-7.26c-.68-.44-1.24-.63-1.38-.47s.19.66.8 1.21a41.51 41.51 0 0015.56 9.11 38.77 38.77 0 0023.83-.27 47.2 47.2 0 0020-13c4.8-5.29 7.89-11.29 7.57-16.34-.19-.82-.45-1.36-.61-1.31zm-95.08-89.37a72.82 72.82 0 00-28.45-2.49 69.39 69.39 0 00-16.81 3.87 66.23 66.23 0 00-8.41 3.71l-3.1 1.61c.18 1.15.37 2.31.56 3.47l.89 5.42c.19 1.17.38 2.34.49 3 1.35-.73 2.82-1.57 4.08-2.17l2-1c1.36-.61 2.71-1.22 4.08-1.76 2.71-1.12 5.45-2.05 8.15-2.92a88.65 88.65 0 0115.85-3.46 72.23 72.23 0 0114.52-.36 31.88 31.88 0 013.31.38l2 .29 1.25.18.61.1c.11-.08.05-.39.08-.57q.09-2 .18-3.93c0-.51 0-1 .05-1.51a1.78 1.78 0 00-1.31-1.87l-.39 1.37a.32.32 0 01.18.39c-.06.49-.11 1-.16 1.5s-.11 1-.16 1.54l-.11.76c-.13.29-3.07-.66-5.26-.82a67.66 67.66 0 00-15.06-.23 84.78 84.78 0 00-16.48 3.18c-2.79.86-5.63 1.78-8.45 2.92-1.42.55-2.82 1.16-4.23 1.79-.7.33-1.41.64-2.11 1-.11.05 0 0-.06 0l-.63-3.8-.18-1.09.93-.49a69.3 69.3 0 018-3.63 72 72 0 0116-4.08 79.43 79.43 0 0127.72 1.06zm67.16.46a80.26 80.26 0 0127.66-1.63 72.22 72.22 0 0116.1 3.74 71.13 71.13 0 018 3.45l.47.23-.07.52-.16 1.14-.31 2.3-.13 1h-.07c-.71-.34-1.43-.63-2.15-.94-1.43-.59-2.86-1.17-4.3-1.67-2.87-1.07-5.75-1.91-8.59-2.69a85.18 85.18 0 00-16.7-2.7 70.4 70.4 0 00-15.16.74c-1.18.13-2.3.48-3.41.71l-.73.17-.33.09-.36.1a.94.94 0 01-.07-.31c-.06-.22-.23-1.59-.36-2.54-.08-.6-.12-.77 0-1.06a1.09 1.09 0 01.62-.59l-.4-1.36a2.56 2.56 0 00-1.59 1.26 3.32 3.32 0 00-.26 1.91c.09 1.22.18 2.46.27 3.73a5.37 5.37 0 00.16 1.21l1.25-.23 2.2-.39c1.09-.16 2.18-.44 3.32-.51a73.38 73.38 0 0114.64-.12 88.87 88.87 0 0116.07 3c2.74.8 5.52 1.65 8.29 2.7 1.39.5 2.77 1.06 4.15 1.64l2.06.91c1.25.55 2.77 1.35 4.15 2.05.05-.4.15-1.14.25-1.88l.8-6 .39-2.92.15-1.13-1-.5-1.59-.76a69.72 69.72 0 00-25.34-7 73.35 73.35 0 00-28.34 3.08z"/><path class="cls-12" d="M494.58 178.68a100 100 0 0021-3.39 87.55 87.55 0 0010.77-3.72c3.61-1.48 7.07-3.34 10.62-4.91a32.79 32.79 0 0111.16-3.08A31.73 31.73 0 01578.78 181a51.46 51.46 0 003.59 5.93 15.77 15.77 0 005.42 4.8c2.13 1.11 4.06 2 5.23 3.79a14.27 14.27 0 012.14 6.18c1.1 9.28 2.14 19 3.16 28.77q.82 7.37 1.68 14.85.51 4 1 7.95c.15 1.27.37 2.47.59 3.67v.23c0 .07.13 0 .19 0l.47-.06.92-.1 1.86-.22c1.52-.21 1.91-.28 2.58-.4s1.27-.26 1.91-.39a54.78 54.78 0 007.57-2.39 29.52 29.52 0 003.79-1.74 7.17 7.17 0 001.94-1.53 5.36 5.36 0 00.89-2.45c.66-5.52.23-10.67 0-16s-.66-10.51-1.2-15.69c-.26-2.59-.59-5.16-.94-7.73s-.71-5-1.39-7.83c-1.63-5.68-5.15-9.69-6.45-13.84a14.38 14.38 0 01-.51-6.44c.16-2.45.33-5.61-1.11-8.56a15.47 15.47 0 00-6-6.26 36.42 36.42 0 00-7.13-3.18c-4.66-1.59-8.83-3-11.44-6-2.89-3-4-6.94-4.48-11.41s-.84-9.55-3.29-14a22.25 22.25 0 00-4.47-5.92 34.61 34.61 0 00-5.58-4.32 34.14 34.14 0 00-6.22-3.12 19.05 19.05 0 00-7.06-1.37c-4.8.36-8.69 1.63-12.68 2.49a32.39 32.39 0 01-11.42.94c-7.59-.72-14.73-3.45-21.75-5.61s-14.15-3.82-21-3.28l.13 2.13c6.46-.24 13.15 1.51 20 3.92s14 5.4 22.27 6.44c8.47 1.42 17-2.33 24.55-2.8 3.5 0 7.41 1.82 10.8 4s6.59 5 8.3 8.62c1.88 3.53 2.15 7.76 2.63 12.47a32.11 32.11 0 001.53 7.36 20.16 20.16 0 0010.56 11.6 72.27 72.27 0 007 2.69 31.72 31.72 0 016.15 2.74 10.58 10.58 0 014.1 4.15c.78 1.53.79 3.55.61 6a19.76 19.76 0 00.78 8.37c1.89 5.4 5.32 9.33 6.44 13.56.53 2.13.93 4.82 1.38 7.27l1.29 7.58c.85 5.08 1.71 10.21 2.36 15.38s1.19 10.45.63 15.22c-.09.51-.26 1.24-.33 1.18a4.39 4.39 0 01-1.16.74 15.33 15.33 0 01-3.42 1c-2.42.47-4.93.67-7.41 1l-3 .39s-.07 0 0 0l-.07-.47-.14-.93-.29-1.87-.59-3.72q-1.27-7.41-2.51-14.69c-1.71-9.73-3.49-19.16-4.9-28.62a16.76 16.76 0 00-2.61-7 10.4 10.4 0 00-2.79-2.63c-1.05-.68-2.12-1.18-3.1-1.73-3.91-2-6-6.07-8.11-10a43.33 43.33 0 00-3.59-5.85 32.59 32.59 0 00-4.7-5 34.41 34.41 0 00-11.58-6.55 34 34 0 00-12.84-1.73 35.56 35.56 0 00-12.18 3.02c-3.73 1.58-7.17 3.35-10.64 4.72a93.09 93.09 0 01-10.44 3.46 104.23 104.23 0 01-20.31 3.22z"/><path class="cls-12" d="M489.64 110.68a56.35 56.35 0 00-19 3.94 49 49 0 00-17.53 12.21 33.28 33.28 0 01-8.12 6.6c-1.55.94-3.18 1.81-4.85 2.69a25.82 25.82 0 01-4.95 2.16c-3.46 1.15-7.52 1.76-11.52 3.88a16 16 0 00-5.27 4.52 21.55 21.55 0 00-2.94 6.15c-1.31 4.19-1.78 8.31-3.27 11.8a26.85 26.85 0 01-6.62 9.55 29.42 29.42 0 01-10.47 6c-2.1.87-4.82 2.13-6.45 4.94a12.59 12.59 0 00-1.06 8.17c.41 2.47 1.11 4.64 1.43 6.62a8.76 8.76 0 01-.44 5.24 16.49 16.49 0 01-3.69 4.61 37.26 37.26 0 00-5 5.48 14.8 14.8 0 00-1.77 3.74 34.42 34.42 0 00-1 3.63c-.51 2.38-.89 4.76-1.17 7.15a143.85 143.85 0 00-.93 14.42c-.05 2.42 0 4.84.08 7.29.05 1.21.16 2.45.32 3.72l.3 1.49.24.8c.13.22.49.23.73.35l2.23.68a57.9 57.9 0 016.58 2.58c1.08.46 2.17.89 3.28 1.26l2 .63.84.25h.79c.25 0 .54.12.76-.06l.69-.45a6.18 6.18 0 002.14-2.42 13.82 13.82 0 00.74-2 29.41 29.41 0 00.76-3.68c.36-2.4.56-4.73.71-7 .3-4.62.42-9.16.59-13.63s.37-8.88.78-13.21a51.35 51.35 0 012.4-12.39c.7-1.86 1.75-3.58 3.13-4.31.12-.08.4-.23.7-.38a6 6 0 00.82-.46A10 10 0 00408 202a15.55 15.55 0 002.15-2.64c2.42-3.64 3.88-7.65 6.43-10.5 5.23-6.13 15.41 0 22.2-6.06a22.51 22.51 0 004.11-4.34 21 21 0 001.56-2.51c.48-.86.84-1.82 1.23-2.52a2.28 2.28 0 011.49-1.28 5 5 0 012.28.15l5.22 1.52a126.83 126.83 0 0039.9 4.86l-.19-3.4a129.39 129.39 0 01-39.16-3.54l-5.32-1.37a6.9 6.9 0 00-3.21-.06 4.2 4.2 0 00-2.62 2.25c-.48 1-.76 1.77-1.18 2.57a17.82 17.82 0 01-1.41 2.33 19.36 19.36 0 01-3.76 4 10.43 10.43 0 01-4.86 2.27 27.09 27.09 0 01-5.74.26 27.4 27.4 0 00-6.21.32 10.91 10.91 0 00-5.76 3.2c-2.93 3.3-4.47 7.27-6.89 10.5a13.1 13.1 0 01-1.93 2.17 6.91 6.91 0 01-1.09.82 3.49 3.49 0 01-.58.29l-.71.35c-2.48 1.24-3.72 3.51-4.64 5.56a56.63 56.63 0 00-3.19 13.06c-.64 4.42-1.07 8.88-1.45 13.37l-1.14 13.5c-.22 2.24-.47 4.48-.84 6.63a28.57 28.57 0 01-.69 3.08 9.13 9.13 0 01-.48 1.25v-.05c0-.05-.21-.11-.5-.2l-.84-.23c-1.13-.31-2.27-.56-3.43-.77a59.85 59.85 0 01-6.91-1.5c-.5-.16-1.39-.4-1.12-.4s0 .12 0-.25a30.45 30.45 0 01-.21-3.36c0-2.3.06-4.65.26-7 .37-4.69 1-9.36 1.79-13.92.4-2.28.84-4.53 1.36-6.71a19.31 19.31 0 012.08-5.6 33.47 33.47 0 014.4-4.68 21 21 0 004.78-6.14 13.73 13.73 0 00.83-8.14c-.42-2.49-1.13-4.63-1.44-6.6a12.23 12.23 0 01-.15-2.72 5.92 5.92 0 01.6-2.17c.61-1.14 2.09-2.05 4-2.82a34.06 34.06 0 0011.9-7.08 31.45 31.45 0 007.7-11.35c1.73-4.32 2.12-8.59 3.24-12.23a17.16 17.16 0 012.2-4.88 11.42 11.42 0 013.75-3.31c3.05-1.73 6.87-2.46 10.72-3.78a30.53 30.53 0 005.53-2.57c1.67-.93 3.35-1.88 5-2.92a37.19 37.19 0 008.73-7.5 46.33 46.33 0 0116-11.94 54.92 54.92 0 0118-4.46z"/><path class="cls-13" d="M520.83 617.17c-.49-27.89 1.41-44 5.65-48a3.91 3.91 0 013-1.11c2.31.21 9.33.85 15.63 47.21l-2.33.32c-5.62-41.29-11.76-45-13.51-45.18a1.45 1.45 0 00-1.21.49c-2.1 2-5.53 10.56-4.89 46.21z"/><path class="cls-12" d="M494.4 471.6c9.85.3 21.78.54 35.14.7l5.08.06h3.48a.7.7 0 01.35.23.77.77 0 01.1.18l.24.57.47 1.21c.31.8.6 1.62.88 2.45.55 1.66 1 3.35 1.42 5.08a34.22 34.22 0 01.94 10.57 15.5 15.5 0 01-3.79 9.5 17.21 17.21 0 01-9.12 4.88 38.14 38.14 0 01-10.65.79c-7.06-.2-13.83-2.11-18.56-6.23a20.52 20.52 0 01-5.3-7.36 28.11 28.11 0 01-1.48-4.18 40.46 40.46 0 01-.76-4.28 42.64 42.64 0 01-.18-8.27c.09-1.33.24-2.62.43-3.88l.14-.94a1.41 1.41 0 01.2-.6 1.22 1.22 0 011-.55v-1.42a2.67 2.67 0 00-2.23 1.09 2.8 2.8 0 00-.49 1.17l-.21 1c-.26 1.29-.49 2.62-.64 4a42.13 42.13 0 00-.2 8.67 39.52 39.52 0 00.64 4.59 29.86 29.86 0 001.46 4.63 22.85 22.85 0 005.75 8.46c5.3 4.87 12.85 7.05 20.31 7.35a40.56 40.56 0 0011.55-.78 20.21 20.21 0 0010.84-5.85A18.72 18.72 0 00545.8 493a36.93 36.93 0 00-1.11-11.58c-.44-1.83-1-3.62-1.58-5.35-.3-.87-.63-1.73-1-2.57l-.53-1.26-.28-.64a3.69 3.69 0 00-2.44-2.08 4.29 4.29 0 00-1-.13h-3.24l-5.08.05c-13.36.17-25.29.41-35.14.71zm-28.78 89.86a.82.82 0 01.87-.29l1.8.14 3.72.32c2.54.23 5.19.49 7.93.82s5.58.69 8.47 1.21a46.4 46.4 0 018.59 2.17 6.56 6.56 0 01.92.45 2 2 0 01.72.48 1.36 1.36 0 01.45.48 5.15 5.15 0 01.28.84 18.13 18.13 0 01.36 4.47 65 65 0 01-1.07 9.82 82.49 82.49 0 01-2.43 10 48.15 48.15 0 01-1.82 4.87 16.12 16.12 0 01-2.51 4.19 4.38 4.38 0 01-.72.63l-.32.17-.49.16a15.33 15.33 0 01-2.38.4 40.44 40.44 0 01-5.17.08 81.82 81.82 0 01-10.24-1.13 52.52 52.52 0 01-9.51-2.42 16.73 16.73 0 01-2-.93 4.07 4.07 0 01-1.28-1c-.06 0 0-.06-.05-.08s0-.31 0-.46v-1.1c0-.76 0-1.54.05-2.31a156.33 156.33 0 012-17.52c.95-5.39 2-10.48 3.95-14.47l-1.23-.72c-2.42 4.24-3.68 9.32-4.9 14.77a139 139 0 00-2.62 17.78c-.05.81-.11 1.61-.12 2.45v1.3a4.36 4.36 0 00.06.74 3.75 3.75 0 00.35 1 6.49 6.49 0 002.35 2.18 19.86 19.86 0 002.42 1.17 54.12 54.12 0 009.95 2.8 79.84 79.84 0 0010.66 1.28 44.1 44.1 0 005.62-.07 18.36 18.36 0 003-.5l.81-.27a9.57 9.57 0 00.9-.46 7.44 7.44 0 001.35-1.16 18.39 18.39 0 003.13-5.13 49.56 49.56 0 001.93-5.24 80.12 80.12 0 002.43-10.46 64.89 64.89 0 001-10.34 20.52 20.52 0 00-.57-5.26 7 7 0 00-.54-1.43 4 4 0 00-1.13-1.3 4.44 4.44 0 00-1.26-.81 8.18 8.18 0 00-1.22-.56 46.68 46.68 0 00-9.25-2.07c-3-.43-5.87-.69-8.65-.9s-5.46-.36-8-.46l-3.76-.11h-1.82a2.26 2.26 0 00-2.16 1.1z"/><path class="cls-13" d="M473.12 396.63l-.4-.79-1.31-2.44-.5-.09c-.22 0-.91-.16-4.27 2.55-1.94 1.53-4.77 3.87-9.47 7.83a161.29 161.29 0 01-15.35 11.59c-3.53 2.41-7.4 4.94-11.54 7.64-3.19 2.09-6.55 4.27-10 6.6l-.35.24C412.12 435 403.32 441 395.3 449c-3.46 3.53-7.75 8.4-10.26 14.84a23.49 23.49 0 00-1.6 9.51 16.6 16.6 0 00.24 3.48c.07.47.14 1 .19 1.48a16.11 16.11 0 00.37 1.64c.08.26.15.51.22.81l.12.48a10.61 10.61 0 00.61 1.88 35.2 35.2 0 004.81 8.78 51.58 51.58 0 006.93 7.31 69 69 0 0017.52 10.68 7.63 7.63 0 006.53-.8 7.83 7.83 0 002.36-2.33l16.37-24 1.82 7.62q1.17 5.17 2.21 10.4a144.5 144.5 0 013 21c.05 1.82 0 3.09-.08 3.93-.06 1-.11 1.85.65 2.06l.54.22.47-.31c1.19-.78 1.2-5.72 1.2-6a136.18 136.18 0 00-2.64-21.57c-.62-3.34-1.32-6.78-2.13-10.52l-1.17-5.21-2.41-9.38-21 29.59a3.87 3.87 0 01-1.24 1.21 3.77 3.77 0 01-3.1.41 68.17 68.17 0 01-16.28-10 47.44 47.44 0 01-6.35-6.64 31.51 31.51 0 01-4.28-7.88 7.87 7.87 0 01-.47-1.51l-.12-.44c-.06-.27-.13-.54-.2-.8a9.39 9.39 0 01-.29-1.23c0-.49-.11-1-.17-1.47a12.68 12.68 0 01-.18-2.9 19.66 19.66 0 011.4-8c1.74-4.38 4.75-8.61 9.45-13.31 7.86-7.67 16.67-13.5 24.44-18.63q5.42-3.52 10.42-6.68c4.05-2.58 7.85-5 11.35-7.32a171.56 171.56 0 0015.94-11.67c4.46-3.64 7.46-6 9.47-7.56.95-.74 1.8-1.35 2.32-1.73s1.25-1 .84-1.81zm163.25 30.77a66.93 66.93 0 00-1-8.35l-.2-.87a16.66 16.66 0 00-1-3.27l-.44-1.09a8.35 8.35 0 00-.49-.78l-.14-.2a6.4 6.4 0 00-2-2 32.41 32.41 0 00-7-3l-.54-.19c-2.55-.8-4.89-1.47-7.17-2.05-5-1.32-9.88-2.39-13.55-3.17-8.84-1.88-16.82-3.35-23.45-4.54-13.42-2.39-23.16-3.92-28.38-4.74l-3-.43c-1.12-.15-1.95-.25-2.1.71l-.44 3.09c-.14 1 .72 1.1 1.82 1.29l2.5.38c4.8.68 14.79 2.09 28.79 4.42 6.13 1 14.33 2.44 23.34 4.27 3.59.73 8.35 1.73 13.39 3 2.16.53 4.44 1.17 6.93 1.93a31.74 31.74 0 016.44 2.64c1.26.88 1.92 3.19 2.45 5.54a60.5 60.5 0 011 7.75c.34 4.75.42 10 .26 16.63-.14 5.53-.42 11.42-.86 17.48v.77a8.47 8.47 0 01-.12 1.19 2 2 0 01-.56 1 2.32 2.32 0 01-2.46.47L600 458.46a5.74 5.74 0 00-6.72 3.84 8.31 8.31 0 00-.3 2c0 .23 0 .45-.06.71-.22 3.11-.39 6.39-.5 9.73a232.15 232.15 0 001.92 39.56c.7 4.55.94 5.4 1.77 5.4h.25c1-.15 1.09-.74.45-5.71a246.31 246.31 0 01-1.21-39.1c.15-3.3.36-6.53.62-9.58 0-.24.05-.48.06-.73a6.32 6.32 0 01.18-1.27 2.37 2.37 0 012.11-1.6 2.81 2.81 0 01.67.06l28.31 7.08a6.48 6.48 0 003.15.16 5.92 5.92 0 002.89-1.54 6 6 0 001.65-2.9 11.93 11.93 0 00.21-1.74c0-.24 0-.47.06-.76.5-6.08.84-12 1-17.68.2-6.7.16-12.1-.14-16.99zm-151.25-36.12l-.67-4a5.87 5.87 0 004-2.66c3.91-5.8 2.1-19.12 1.07-23.76l3.92-.86c.17.74 4 18.46-1.67 26.86a9.75 9.75 0 01-6.65 4.42zm46.16-.15c-16-6.32-10.34-31.5-10.09-32.57l3.91.91c-.06.23-5.11 22.87 7.66 27.93zm-56.86 291.63c-.79-6.34-.05-37.51 0-38.84l3.54.09c0 .32-.76 32.24 0 38.31zm15.32-.15c0-1.21-1.12-29.65 0-38.69l3.51.44c-1.11 8.76 0 37.82 0 38.11z"/><path class="cls-12" d="M469.93 684.44a92.38 92.38 0 0116-.32 44.85 44.85 0 014.53.57c.76.11 1.51.31 2.27.47a1.27 1.27 0 01.28.07h.09s.14.05.13.06 0 0 0 .06 0-.15-.07.45l-.34 2.51a31.4 31.4 0 01-1 4.78 6.26 6.26 0 01-.26.65c-.07.16 0 .08 0 .1l-2.43.28-2.77.26c-1.81.16-3.55.3-5.17.38s-3.13.15-4.44.14c-.64 0-1.26 0-1.74-.1-.3 0-.4-.07-.42 0a.33.33 0 01-.19-.06 2.75 2.75 0 01-.41-.55c-.19-.27-.36-.58-.54-.86-.33-.6-.65-1.18-.93-1.75-.56-1.14-1-2.21-1.39-3.2a17.49 17.49 0 01-.8-2.76 8.36 8.36 0 01-.12-1.14c-.14-.08-.22-.19-.17-.09l-.42-2.06a2.2 2.2 0 00-1.78 1.85 8.69 8.69 0 00-.12 1.68 16.26 16.26 0 00.47 3.38 29.26 29.26 0 001.14 3.73c.24.66.54 1.34.87 2.06.18.35.35.72.57 1.1a8.25 8.25 0 00.91 1.38 11.32 11.32 0 001.2.89 8.88 8.88 0 001.35.44 19.18 19.18 0 002.25.37c1.51.16 3.12.2 4.83.21s3.52 0 5.4-.15l2.87-.19 1.47-.13.76-.08 1.14-.14a4.4 4.4 0 002.31-1.41 6.2 6.2 0 00.88-1.44 10.46 10.46 0 00.46-1.14 31.51 31.51 0 001.21-5.7c.12-.91.23-1.81.31-2.7 0-.26.15-1.33.14-2.11v-.62l-.13-.52a2.43 2.43 0 00-.47-1 3.5 3.5 0 00-.37-.39l-.53-.19-1-.37-1-.36a3.71 3.71 0 00-.88-.26c-.88-.15-1.75-.32-2.61-.4a41.15 41.15 0 00-5-.28 59.7 59.7 0 00-16.58 2.46z"/><path class="cls-13" d="M501.67 709.73a39.63 39.63 0 00-3.2-4.36l-.37-.44c-1.81-2.18-3.54-4.39-3.94-5.89a3.8 3.8 0 01-.08-2l.16-.91-3.13-1.13-.34.76s-.18.42-.44 1.24a7.75 7.75 0 000 3c.46 2.45 2.3 5.15 4.15 7.68l.74 1.06c1.78 2.46 3.78 5.26 3.38 8.46a4.29 4.29 0 01-.68 2.22 3.13 3.13 0 01-1.85 1.13 28.67 28.67 0 01-6.83.78h-1.13c-3.12.12-6.35.24-9.79.61a91.46 91.46 0 00-10.75 1.91l-3.12.69c-6.28 1.42-12.79 2.9-19.5 2.53a22.74 22.74 0 01-11-3.35 16.19 16.19 0 01-6.82-9.29 14.78 14.78 0 011.8-11.8 15.62 15.62 0 0110.85-6.63 19.23 19.23 0 016.82 0 7.61 7.61 0 014.93 3.44 10.6 10.6 0 011.22 6.52 12.36 12.36 0 01-.88 3.51 3.88 3.88 0 01-.3.52l-.44.69c-.13.22-.27.45-.39.61s-.39.48-.59.72a13.25 13.25 0 01-1.22 1.36l-.29.2v.4s0 .15-.08.37l-.17.73.69.29.51.24a14.48 14.48 0 004.37 1.48l.31.06a10 10 0 001.83.22h.62a8.62 8.62 0 001.34 0 27.88 27.88 0 004.48-.48 17.42 17.42 0 009.65-5l.3-.34a11.24 11.24 0 00.74-.88l.69-1.19a7.4 7.4 0 00.93-2.21c.07-.25.14-.5.23-.75a7.68 7.68 0 00.31-2.13c0-.32 0-.64.08-1a10.76 10.76 0 00-.13-2.07c0-.33-.09-.65-.12-1a11.33 11.33 0 00-.66-2.58c-.08-.23-.15-.42-.21-.66-.3-.85-.64-1.83-1.52-1.52s-.74 1-.46 2.45c.13.65.3 1.54.48 2.65a10.68 10.68 0 01-2.71 9.34 14.81 14.81 0 01-8.14 3.81 23.47 23.47 0 01-4 .24 5.7 5.7 0 01-1-.07l-.6-.06a5.58 5.58 0 01-1.07-.19 5.9 5.9 0 01-1.14-.33 8.21 8.21 0 001.51-2.39 16.06 16.06 0 001.27-4.51 14.87 14.87 0 00-1.55-9.26 12.2 12.2 0 00-7.67-5.75 23.44 23.44 0 00-8.73-.31c-6.06.85-11.46 4.08-14.43 8.62a20.12 20.12 0 00-2.75 16.07 21.63 21.63 0 009 12.65 28.17 28.17 0 0013.73 4.38c.89.05 1.77.08 2.63.08 6.72 0 12.86-1.4 18.35-2.64 1.11-.25 2.2-.5 3.28-.73a89.61 89.61 0 0110.1-1.84c3-.34 6-.5 8.8-.65L490 727a29.69 29.69 0 007.79-1.2 8.27 8.27 0 004.58-3.38 9.39 9.39 0 001.42-4.82 13.42 13.42 0 00-2.12-7.87zm98.46-30.84c-.5-6.11-7.77-39.24-7.84-39.58l3.46-.76c.3 1.38 7.39 33.7 7.91 40.05zm-14.99 3.31c-.06-.31-5.78-31.51-8.65-39.87l3.35-1.15c3 8.61 8.55 39.09 8.78 40.39z"/><path class="cls-12" d="M608.55 677.19a59.4 59.4 0 00-16.73.94 42 42 0 00-4.85 1.28c-.83.24-1.64.6-2.48.91-.41.16-1.16.64-1.73.95l-.93.54c-.16.09-.32.17-.47.27a3.58 3.58 0 00-.31.45 3.25 3.25 0 00-.38 2.16l.33 1.22.28.92c.26.86.54 1.72.84 2.59a34.27 34.27 0 002.32 5.32c.24.36.41.68.69 1a6.2 6.2 0 001.15 1.25 4.25 4.25 0 002.62 1l1.15-.09.75-.08 1.47-.18 2.85-.4c1.86-.29 3.64-.6 5.32-1s3.23-.74 4.68-1.2a19.06 19.06 0 002.13-.82 9.75 9.75 0 001.23-.7 14.2 14.2 0 001-1.12 8.91 8.91 0 00.61-1.53c.13-.41.23-.8.33-1.19.18-.76.32-1.48.43-2.17a29.2 29.2 0 00.36-3.85 17.68 17.68 0 00-.22-3.38 7.86 7.86 0 00-.44-1.59 3.3 3.3 0 00-.56-1 1.84 1.84 0 00-1.43-.57v2a.33.33 0 01.08-.2l-.42.19v.34a6.66 6.66 0 01.1 1.15 17.63 17.63 0 01-.23 2.84c-.16 1-.39 2.17-.7 3.39-.16.61-.35 1.24-.56 1.88-.11.32-.21.64-.34 1a3.34 3.34 0 01-.29.62.42.42 0 01-.17.1s-.12 0-.41.12c-.46.16-1.06.3-1.68.45-1.28.29-2.78.53-4.38.78s-3.33.46-5.14.68l-2.76.31-2.43.22s.06.08-.09-.13a4.77 4.77 0 01-.4-.62 32.52 32.52 0 01-2-4.49c-.28-.81-.56-1.6-.84-2.39l-.1-.3s.12-.08.19-.12l.12-.08a1.53 1.53 0 01.27-.13c.72-.31 1.41-.66 2.14-.91a44.9 44.9 0 014.32-1.47 92.25 92.25 0 0115.71-2.92z"/><path class="cls-13" d="M656 685a20.74 20.74 0 00-16-5.49 23.73 23.73 0 00-8.51 2.12 12.17 12.17 0 00-6.32 7.23 14.84 14.84 0 00.39 9.37 16.24 16.24 0 002.2 4.2 8.59 8.59 0 002 2 6.17 6.17 0 01-1.08.57 6.31 6.31 0 01-1 .39c-.17 0-.36.11-.56.17a6.27 6.27 0 01-1.07.3 23.16 23.16 0 01-3.86.56 14.68 14.68 0 01-8.78-2.05 10.69 10.69 0 01-4.55-8.57c-.05-1.13-.06-2-.07-2.69 0-1.49 0-2.24-.91-2.3s-1.09.9-1.21 1.85c0 .18 0 .39-.08.62a11.56 11.56 0 00-.11 2.71c0 .33.07.65.09 1a10.54 10.54 0 00.31 2.12q.15.45.27.93a8.18 8.18 0 00.74 2c.14.22.26.45.38.68a7 7 0 001.3 1.92l1.07 1.18c.26.21.53.42.81.62l.39.28a17.27 17.27 0 0010.46 2.93 25.94 25.94 0 004.41-.44 8.3 8.3 0 001.37-.3l.6-.15a10 10 0 001.73-.59l.3-.13a14.67 14.67 0 004-2.33c.18-.15.33-.26.46-.35l.62-.42-.32-.68a2 2 0 00-.13-.28l-.08-.39-.35-.2a14.09 14.09 0 01-1.46-1.09l-.68-.53c-.2-.18-.37-.37-.55-.56l-.6-.63a2.9 2.9 0 01-.43-.52 12 12 0 01-1.53-3.18 10.57 10.57 0 01-.13-6.59 7.52 7.52 0 014.08-4.33 18.84 18.84 0 016.68-1.43 15.48 15.48 0 0111.92 4.31 14.74 14.74 0 014.1 11.16 16 16 0 01-4.74 10.41 22.56 22.56 0 01-10 5.5c-6.52 1.73-13.17 1.63-19.6 1.53h-3.19a93.25 93.25 0 00-10.92.34c-3.52.36-6.84.93-9.76 1.44l-1.11.19a29.28 29.28 0 01-6.83.66 3.15 3.15 0 01-2-.72 4.57 4.57 0 01-1.16-2.09c-1-3 .32-6.21 1.5-9l.49-1.18c1.53-3.49 2.46-6.1 2.38-8.31a7.81 7.81 0 00-.67-2.92c-.36-.6-.61-.95-.61-.95l-.48-.69-2.25 1.41.22.66a6.32 6.32 0 00.28.71 4.64 4.64 0 01.13 1.68c-.1 1.44-1.13 3.59-2.78 6.59l-.24.46a38.83 38.83 0 00-2.31 4.92 13.23 13.23 0 00-.56 8 9.25 9.25 0 002.35 4.47 8.23 8.23 0 005.15 2.4 20.12 20.12 0 002.31.13 40.32 40.32 0 005.59-.51l2.27-.32c2.8-.42 5.7-.85 8.72-1.13a90.18 90.18 0 0110.26-.24c1.09 0 2.19 0 3.32.05 6.37.11 13.6.24 21.14-1.78a28.07 28.07 0 0012.57-7.12 21.59 21.59 0 006.22-14.33 20.22 20.22 0 00-6-15.26z"/><path class="cls-12" d="M480.24 615.19c5.81.33 12.15.75 19.64 1.42 3.75.35 7.79.75 12.16 1.34 2.18.3 4.45.65 6.76 1.12 1.15.24 2.32.51 3.43.85a11.87 11.87 0 011.54.57 2.66 2.66 0 01.42.23.33.33 0 01.11.15s0 .09.09.29.1.32.13.52c.08.36.14.75.19 1.16a19.19 19.19 0 01.1 2.67 36.58 36.58 0 01-.65 6 35.78 35.78 0 01-1.78 6.36 14.08 14.08 0 01-1.45 2.85 4 4 0 01-.78.88c-.27.16 0 .07-.27.09l-34.29-.12c-8.3-.08-16.42-.23-23.62-.55-3.6-.17-7-.37-10-.67-1.5-.15-2.91-.33-4.17-.55-.64-.1-1.21-.25-1.74-.37l-.35-.11h-.17v-.06l-.13-.34-.44-1.21c-.28-.82-.56-1.62-.83-2.42q-.79-2.41-1.44-4.76a41 41 0 01-1.62-9 7 7 0 01.47-3.35c.06-.26.08-.18.65-.45a18.64 18.64 0 011.89-.47 80.73 80.73 0 018.08-1c10.63-.83 19.89-.92 28.06-1l.05-2.14c-8.21-.43-17.47-.81-28.34-.38a76.53 76.53 0 00-8.56.79 20.86 20.86 0 00-2.38.47 5.77 5.77 0 00-1.49.68c-.27.2-.52.4-.8.59a8.72 8.72 0 00-.55.8 10.22 10.22 0 00-1.2 5.51 44.26 44.26 0 001.53 10c.42 1.66.89 3.32 1.41 5 .27.84.54 1.68.82 2.53l.43 1.28.78 2.11 1.5.81a4.28 4.28 0 00.78.32l.56.19c.71.2 1.44.4 2.16.53 1.45.29 2.95.52 4.53.7 3.15.38 6.58.64 10.24.85 7.31.41 15.49.6 23.82.68 12 .13 23.9-.08 34.18-.14a5.92 5.92 0 001.79-.26 5 5 0 001.54-.86 8.47 8.47 0 001.76-2 18.27 18.27 0 001.88-3.83 38 38 0 001.85-7.26 39.85 39.85 0 00.53-6.77 24.68 24.68 0 00-.25-3.23c-.09-.53-.19-1.06-.33-1.59a8.18 8.18 0 00-.25-.8c-.07-.24-.21-.53-.39-1-.13-.26-.34-.48-.49-.73s-.42-.41-.65-.6a6.61 6.61 0 00-1.29-.72 15.76 15.76 0 00-2.08-.73c-1.32-.37-2.59-.62-3.82-.84-2.46-.43-4.8-.72-7-1-4.48-.47-8.57-.72-12.36-.91-7.59-.37-14-.42-19.82-.38zm100.33-3.63c4.78-.23 9.94-.45 16.09-.54 3.07 0 6.39 0 10 .08 1.81.07 3.69.18 5.61.39a26.27 26.27 0 012.84.46 7.85 7.85 0 011.23.37c.27.12.28.14.36.28 0 0 .07.12.13.31a4.29 4.29 0 01.19.54 10 10 0 01.32 1.2 24.09 24.09 0 01.42 2.75 42.84 42.84 0 01.08 6.24 36.19 36.19 0 01-1 6.7 12.11 12.11 0 01-1.1 3 3.62 3.62 0 01-.32.48l-.09.08h-.07l-1 .1c-10.67 1.24-22.43 2.78-34.65 4.08-6.66.72-13.22 1.35-19 1.72-2.9.18-5.62.31-8 .3-1.21 0-2.33 0-3.33-.12-.45-.07-1-.09-1.32-.18s-.13 0-.19 0l-.16-.33-.56-1.18c-.36-.78-.71-1.56-1.06-2.34-.69-1.55-1.33-3.1-1.92-4.62a43.56 43.56 0 01-2.57-8.87 13.79 13.79 0 01-.15-2l.08-.81c0-.26.16-.39.13-.46-.2-.1 1.42-.88 2.66-1.22a76.28 76.28 0 018-2c10.66-2.12 20.08-3.31 28.3-4.35l-.18-2.12a274.14 274.14 0 00-28.78 2.87 76.88 76.88 0 00-8.56 1.81 20.06 20.06 0 00-2.32.8 9.13 9.13 0 00-1.35.69c-.27.11-.48.44-.73.66s-.54.44-.64.77c-1.16 2.43-.82 4.08-.71 5.86a46.77 46.77 0 002.59 9.89c.59 1.62 1.22 3.25 1.91 4.88.35.81.7 1.63 1.06 2.45l.56 1.24 1 2a12.54 12.54 0 002.57 1 16 16 0 001.86.31c1.21.13 2.46.19 3.75.22 2.6.05 5.4 0 8.37-.19 5.95-.32 12.57-.93 19.29-1.65 12.26-1.31 24.14-3 34.65-4.39l1-.12a5 5 0 001.79-.59 5.78 5.78 0 001.36-1.21 7.85 7.85 0 00.76-1.15 16 16 0 001.48-4.19 39.06 39.06 0 00.88-7.58 43 43 0 00-.34-6.9 24.44 24.44 0 00-.63-3.22 15 15 0 00-.5-1.57c-.08-.25-.21-.52-.32-.77s-.25-.5-.48-.93a4.31 4.31 0 00-2.17-1.65 12 12 0 00-1.84-.51 31.3 31.3 0 00-3.27-.43c-2.08-.17-4-.22-5.9-.22-3.73 0-7.09.14-10.2.33-6.21.38-11.37.92-16.15 1.49z"/><path class="cls-13" d="M469.17 565.08a14.39 14.39 0 011.56-8.28l1.25.66a13.14 13.14 0 00-1.41 7.46zm10.21-.2l-1.41-.14a37 37 0 012-8.62l1.33.48a35.17 35.17 0 00-1.92 8.28zm10.8 1.97l-1.41-.15a35.67 35.67 0 011.88-8.25l1.33.47a34.68 34.68 0 00-1.8 7.93zm15.26 10.33a64.21 64.21 0 01-8.53-1.85l.4-1.36a62.79 62.79 0 008.33 1.81zm-1.86 8.21a25.53 25.53 0 01-8.72-1.76l.51-1.32a24.25 24.25 0 008.24 1.66zm-1.36 10.4a28 28 0 01-9.88-1.84l.5-1.32a26.65 26.65 0 009.38 1.74zm-36.99-23.88a25.64 25.64 0 01-8.47-3l.69-1.23a24.63 24.63 0 008 2.82zm-2.31 10.15a38.8 38.8 0 01-8-1.53l.42-1.36a36.49 36.49 0 007.67 1.48zm-.92 10.17a27.88 27.88 0 01-8-1.45l.45-1.35a26.2 26.2 0 007.64 1.38zm2.79 15.03l-1.15-.83a73.24 73.24 0 005-8l1.25.67a75.21 75.21 0 01-5.1 8.16zm7.78 1.74l-1.33-.47a88.39 88.39 0 002.89-9.95l1.38.32a90.48 90.48 0 01-2.94 10.1zm9.8.45l-1.41-.19c.45-3.33.74-6.74.88-10.14h1.42c-.14 3.5-.44 6.96-.89 10.33z"/><path class="cls-12" d="M614.58 609.86a306.63 306.63 0 01-8-36.23c-1.17-7-2.28-14.72-3.28-23.26-.49-4.27-1-8.75-1.31-13.48-.2-2.36-.33-4.77-.46-7.25 0-1.24-.07-2.48-.11-3.75V521l-1.09-1-.88-.87-1.25-1.29-2.51-2.7a184.34 184.34 0 01-5-5.75c-3.33-4-6.67-8.27-10-12.87a200.58 200.58 0 01-18.58-31.67 156.84 156.84 0 01-12.67-40.57 132.23 132.23 0 01-1.6-23.56c0-2 .12-4.09.28-6.16.08-1 .15-2.07.22-3.11a6.34 6.34 0 000-1.05 4 4 0 00-.31-1.21 3.85 3.85 0 00-.7-1.05 4.8 4.8 0 00-.86-.7 18.21 18.21 0 00-6.39-2.67 30.14 30.14 0 00-6.85-.55 2.68 2.68 0 00-2.43 1.72 2.83 2.83 0 00-.11 1.53l.13.84c.17 1.14.35 2.32.54 3.55.35 2.45.72 5.09 1.12 7.87.74 5.58 1.5 11.76 2.1 18.38.29 3.31.54 6.72.68 10.21a65.5 65.5 0 01-.26 10.57c-.23 1.65-.68 3.66-1.58 3.77a37.51 37.51 0 01-5.24 1.32 92.83 92.83 0 01-11.11 1.33 70.41 70.41 0 01-11.72-.17c-3.76-.44-7.71-1.21-10.33-3.35a5 5 0 01-1.46-1.91l-.55-1.17-.43-1.29a45.35 45.35 0 01-1.39-5.3c-.78-3.56-1.31-7.12-1.82-10.57-1-6.9-1.61-13.42-2.13-19.31-.24-2.94-.46-5.73-.67-8.33s-.34-5.21-.48-7.5a2.39 2.39 0 00-3.21-2.09c-.81.17-1.56.23-2.41.37a22.54 22.54 0 00-5 1.32 15.1 15.1 0 00-4.34 3 10.07 10.07 0 00-1 1 3.23 3.23 0 00-.64 2 2.76 2.76 0 00.05.51l.05.29.1.58.19 1.17q1.53 9.31 2.35 18.46a247.87 247.87 0 01.72 35.59c-1.34 22.92-6.2 44.52-16.17 62a85.2 85.2 0 01-8.35 12.12c-.78.92-1.48 1.9-2.33 2.74l-2.79 3-1 1.16a7.13 7.13 0 00.07 1.52l.21 2.26c.11 1.2.21 2.4.32 3.59.81 9.54 1.4 18.78 1.82 27.71.8 17.85 1 34.47-.3 49.72l3.78.39c1.72-15.52 1.86-32.31 1.21-50.31q-.51-13.5-1.69-27.92c-.11-1.21-.22-2.41-.32-3.63l-.09-.91v-.46a.77.77 0 010-.26l.18-.19c0 .06.56-.58 1-1l1.3-1.39c.9-.89 1.65-1.93 2.47-2.91A87 87 0 00461 512.9c10.33-18.45 14.82-40.8 15.74-64.12a257.5 257.5 0 00-1.32-36.06c-.64-6.16-1.49-12.38-2.59-18.64l-.38-2.14a.34.34 0 01.07-.22 7.92 7.92 0 01.66-.72 12.26 12.26 0 013.5-2.46 19.86 19.86 0 014.3-1.14c.74-.13 1.6-.22 2.38-.38h.11c.16 2.15.33 4.51.51 7s.47 5.41.73 8.37c.57 5.91 1.28 12.46 2.29 19.42.54 3.49 1.09 7.08 1.92 10.74.18.91.41 1.83.66 2.76a27.29 27.29 0 00.82 2.78l.48 1.4.67 1.41a7.41 7.41 0 002 2.59c3.48 2.73 7.63 3.36 11.6 3.86a74.07 74.07 0 0012.1.17 96.29 96.29 0 0011.41-1.36 40.18 40.18 0 005.62-1.41 3.32 3.32 0 001.63-1.17 5.55 5.55 0 00.8-1.54 15.47 15.47 0 00.65-2.91 66.85 66.85 0 00.33-11c-.12-3.55-.35-7-.63-10.34-.56-6.67-1.27-12.9-2-18.5-.38-2.8-.73-5.45-1.06-7.92-.18-1.24-.35-2.43-.52-3.57l-.13-.86v-.12c0-.05 0 0 0 0 4.18-.07 8.36.59 11.56 2.85a2.31 2.31 0 01.38.29 1.24 1.24 0 01.17.27 1.14 1.14 0 01.08.33v.53c-.09 1.07-.17 2.13-.26 3.18-.19 2.11-.34 4.2-.36 6.29a139 139 0 001.33 24.12 162.6 162.6 0 0012.24 41.73 195.4 195.4 0 0018.51 32.7q5 7.11 10.1 13.24c1.7 2 3.42 4 5.13 5.9l2.59 2.78 1.31 1.35.42.41.22.19a1.58 1.58 0 010 .31v2.65c0 1.31.06 2.61.09 3.89.11 2.54.24 5 .43 7.41.34 4.81.8 9.35 1.29 13.67 1 8.64 2.14 16.4 3.38 23.5a269.53 269.53 0 008.68 36.69z"/><circle class="cls-10" cx="444.96" cy="307.09" r="2.44"/><circle class="cls-10" cx="449.77" cy="296.38" r="2.44"/><circle class="cls-10" cx="434.63" cy="296.38" r="2.44"/><circle class="cls-10" cx="585.53" cy="297.13" r="2.44"/><circle class="cls-10" cx="590.42" cy="285.95" r="2.44"/><circle class="cls-10" cx="575.89" cy="288.39" r="2.44"/><path fill="none" d="M0 0h1000v750H0z"/></g></g></g></svg>