<svg xmlns="http://www.w3.org/2000/svg" viewBox="0 0 564.83 768.55"><defs><style>.cls-2{fill:#2592ab}.cls-3{fill:#d94e25}.cls-4{fill:#f9dbcc}.cls-5{fill:#f9d8c7}.cls-6{fill:#dfa838}.cls-8{fill:#5563aa}.cls-10,.cls-9{fill:#1c1c1c}.cls-9{fill-rule:evenodd}</style></defs><g id="Layer_2" data-name="Layer 2"><g id="export"><g id="sasek"><path d="M427.59 110c70.94 55.18 112 139 129 234.84 17.07 95.63 10.27 203.26-45.59 247.31s-160.42 24.57-241.78-3.46S129.82 523.93 96 470.82 52.72 347.91 66.47 267s50.81-172.95 119.9-205.71S356.52 54.84 427.59 110z" fill="#ebe8f5"/><path class="cls-2" d="M469.85 90.8a8.87 8.87 0 01-2 6.67 8.54 8.54 0 01-13.17 0 8.83 8.83 0 01-2-6.67 9.27 9.27 0 013.08-5.8 7.34 7.34 0 0111 0 9.37 9.37 0 013.09 5.8z"/><path class="cls-3" d="M400.34 10.62a8.85 8.85 0 01-2 6.67 8.58 8.58 0 01-13.2 0 8.93 8.93 0 01-2-6.67 9.34 9.34 0 013-5.83 10.2 10.2 0 015.53-2.48 10.08 10.08 0 015.53 2.48 9.25 9.25 0 013.14 5.83z"/><path class="cls-4" d="M511.12 135.79c-3.7 2.15-6.08 5.73-7.57 8.23-.05.1-.12.27-.19.4a4.3 4.3 0 01-1.79-1l-.4-.45a1.64 1.64 0 01-.1-.22 2.07 2.07 0 00-.12-.3 2 2 0 01-.15-.72v-.22a7.43 7.43 0 011.79-4.36 15.32 15.32 0 017.09-5.39 3.74 3.74 0 011.12-.27 2.81 2.81 0 00.52-.1h.49a6.07 6.07 0 011.22 0 2.62 2.62 0 011.78.77 2.77 2.77 0 01.35 2.05 11.42 11.42 0 00-4.04 1.58zM497.35 137a7.64 7.64 0 011.07-3.7 15 15 0 014.74-5.43l.49-.32c.23 0 .45-.13.62-.18a1 1 0 01.57 0 1.35 1.35 0 011 .57 3.75 3.75 0 01.34 1.88v.08a18.69 18.69 0 00-5.7 5.83 13 13 0 00-1.49 3.62 2.71 2.71 0 01-1.64-2.35z"/><path class="cls-5" d="M478.53 140.62a8 8 0 013.75-1.91 9.11 9.11 0 014.39-.32 1.17 1.17 0 01.89.84 5 5 0 010 2.11 23.54 23.54 0 01-1.86 5c-.42.84-.89 1.68-1.36 2.5l-1.86 3v.2c0 .84 2.33 2.88 2.33 2.9a14.51 14.51 0 004.91 2.85c1.61.4 2.38.58 2.58-.12s-.52-1-2.06-1.46a12.23 12.23 0 01-4-2.73 11.27 11.27 0 01-1-1.12 1.72 1.72 0 00-.12-.22l1.34-2c.37-.59.72-1.19 1.06-1.78a8.11 8.11 0 003.57.81c2.44 0 5.63-1 9.4-4.48a6 6 0 002.31 1 6.69 6.69 0 00-.42 1.24 4.09 4.09 0 000 1.56 3.84 3.84 0 00.59 1.76c1.27 2.16 3.72 2.7 5.46 2.95a13.73 13.73 0 005.78-.67 14.18 14.18 0 005-2.7 6.75 6.75 0 001.29-1.22l.22-.27c.35-.4.82-1 .32-1.39s-.91-.05-1.43.42c-.33.25-.77.65-1.39 1.12a13.22 13.22 0 01-9.53 2.6c-1.09-.17-3.05-.67-3.69-2-.52-.94-.25-2.13.82-3.76 2.18-3.45 4.39-5.73 6.79-7a9.78 9.78 0 018.68-.28 7.17 7.17 0 014.54 6.3 18 18 0 01-1.54 8.56 37 37 0 01-10 13.64 32.18 32.18 0 01-12.89 7 25.89 25.89 0 01-6.25.87l-3-.1c-.75-.07-1 .35-1 .6l-7.94 17.16a20.26 20.26 0 00-7.06-4.14l8.25-15.35-2-3.59a80.48 80.48 0 01-1.89-4.17 59.11 59.11 0 01-4-12.8 19.29 19.29 0 01.05-8 7.34 7.34 0 011.97-3.41z"/><path class="cls-2" d="M361.8 68.65A120 120 0 00341 86.09a74.9 74.9 0 00-10.49 13.74 74.73 74.73 0 00-4.49-9.6 60.48 60.48 0 00-6.82-10 50.25 50.25 0 00-9.62-9c-.82-.6-1.66-1.14-2.5-1.69a.43.43 0 01.07-.1l.15-.4a154.79 154.79 0 0119-31.22 97.42 97.42 0 0122.4-21.22 61 61 0 0131.67-10.54 12.4 12.4 0 00-1.54 3.82 12.53 12.53 0 00-.27 2.55 52.52 52.52 0 00-11.68 16.34 63.56 63.56 0 00-5.13 17.83 81.9 81.9 0 00-.08 20.89l.13 1.09z"/><path class="cls-6" d="M457.52 79.29c.35.42.62.77.87 1.07a11.9 11.9 0 00-4.76 1.81c-.12.07-.22.2-.32.27-12.38.6-23.78 3.55-33 8.61a50.12 50.12 0 00-21.72 22.66 61.18 61.18 0 00-5.59 23.56 80.86 80.86 0 00.12 9.78 63.11 63.11 0 00-9.27-4.39 101.81 101.81 0 00-23.81-5.81c-4.19-.69-8.51-.89-12.87-1.26-3.23-.18-6.47-.27-9.8-.3v-.74a113.35 113.35 0 00-3.75-25c-.3-1.06-.62-2.23-1-3.44.17-.35.4-.82.72-1.54 1.49-3.25 5.16-9 11-15.33a118.54 118.54 0 0127-21.57A99.71 99.71 0 01391 58.83a66.57 66.57 0 0123.19-3.27A52.42 52.42 0 01438 62.25a67.58 67.58 0 0119.52 17.04z"/><path class="cls-3" d="M220.58 118.72a78.67 78.67 0 012.31-16.44 62.5 62.5 0 016.05-15.1 47.48 47.48 0 0110.39-12 15.94 15.94 0 012-1.41l1.17-.77c.34-.22.71-.47 1.06-.72a12.61 12.61 0 012.22-1.28c.72-.32 1.44-.67 2.13-1a23.7 23.7 0 015-2c19.76-6.15 41-3.57 54.16 6.55a47 47 0 018.78 8.4 58.29 58.29 0 016.27 9.43 83 83 0 017.07 18.35 112.67 112.67 0 013.45 24v.55c-17.5.27-34.37 2.45-48.63 8.3a77.9 77.9 0 00-7.84 3.8c0-6.2-1.88-16.1-7.73-27.31a45.13 45.13 0 00-7.72-10.61c-2.33-2.38-7.19-6.37-13.54-6.57a18.18 18.18 0 00-8 1.83 28.87 28.87 0 00-6.3 4.61 52 52 0 00-9.1 12.18c-.15.25-.3.5-.42.75a10.84 10.84 0 00-2.9-.85v-.07c.07-.63.1-1.47.12-2.62zm37.57 64.11c-3.15 1.66-6.22 3.38-8.7 6.08a12.26 12.26 0 01.77-5.63c1.09-3 3.57-5.68 6.47-8 5.95-4.59 13.84-7.79 22.3-10.34a169.09 169.09 0 0127.48-5.56 202.57 202.57 0 0130.25-1.49A232.67 232.67 0 01367 161a200.7 200.7 0 0127.38 6.3c8.44 2.7 16.42 5.88 22.22 10.49 2.88 2.28 4.94 5.11 5.06 8a9.08 9.08 0 01-1.56 5.23 12.46 12.46 0 00-3.47-4.31 32.49 32.49 0 00-4.76-3.28c-6.7-3.72-14.34-6.25-22.45-8.4a221.9 221.9 0 00-108.67-.13 114.25 114.25 0 00-22.6 7.93z"/><path class="cls-2" d="M277.18 159.32a83.39 83.39 0 00-17.18 7.84 27.3 27.3 0 011.47-2.38 36.13 36.13 0 016.15-6.87 45.77 45.77 0 015.45-4l.53.24.39.25.42-.17c.18-.08.62-.22 1.17-1.81a66.17 66.17 0 0110.12-4.71c14-5.16 30.7-7 48.23-7.2h2.86c3.42 0 6.82.12 10.17.25 4.24.32 8.45.47 12.49 1.06a105.43 105.43 0 0122.92 5 62.59 62.59 0 0111.27 5.18 1.33 1.33 0 00.45.84l.32.25.84-.1a38.58 38.58 0 015.13 3.85 29.34 29.34 0 017.22 9.57 112.36 112.36 0 00-11.36-4.76 185.3 185.3 0 00-28.15-7.34 210.93 210.93 0 00-31.17-3.37 184.67 184.67 0 00-31.35 1.81 158.56 158.56 0 00-28.39 6.57zm-49.55-30.18a9.25 9.25 0 01.54 6.55 8.91 8.91 0 01-4.36 5.4 8.55 8.55 0 01-12.18-5.09 8.89 8.89 0 01.74-6.91 9.7 9.7 0 0111.09-4.42 10.38 10.38 0 014.17 4.47z"/><path class="cls-4" d="M166.17 117.68l.6.4A15.15 15.15 0 01171 124a7.57 7.57 0 01.67 3.79 2.72 2.72 0 01-1.84 2.18 11.72 11.72 0 00-1.12-3.74 18.32 18.32 0 00-5-6.4 3.33 3.33 0 01.52-1.86c.13-.2.37-.4 1-.47a1.66 1.66 0 01.55 0 4.93 4.93 0 00.39.18zm-9.52 3a4.78 4.78 0 011.16.08h.37l.62.17a3.77 3.77 0 011.12.4 15.1 15.1 0 016.47 6.05 7.76 7.76 0 011.37 4.49v.27a1.86 1.86 0 01-.25.74.85.85 0 00-.12.23 1.14 1.14 0 00-.1.2l-.45.42a4.83 4.83 0 01-1.88.79 4.4 4.4 0 01-.18-.42c-1.21-2.63-3.22-6.42-6.67-9a12 12 0 00-3.87-1.94 2.84 2.84 0 01.55-2 2.71 2.71 0 011.86-.48z"/><path class="cls-5" d="M234.72 210.83a16.56 16.56 0 014.34-3.42 2.68 2.68 0 00-.25.37 8.42 8.42 0 00-1 4.52 12.15 12.15 0 002.93 7.21c.1.13.22.18.32.13a.3.3 0 00.1-.35c-.44-1.69-1.49-4.22-1.59-7.07a9.67 9.67 0 011.42-5.65 13.11 13.11 0 013.47-.7 22.05 22.05 0 018.63 1.52c-.42 1.29-.79 2.65-1.14 4a59.39 59.39 0 00-1.59 11.21 47.79 47.79 0 00.08 5.34 21.33 21.33 0 01-3.18-.1 19.36 19.36 0 01-7-2.34c-4.51-2.48-8.35-7.39-7.86-13.09a10.91 10.91 0 013-7.19 14.74 14.74 0 016.82-3.67 28.58 28.58 0 0113.1-.1c-.7 1.59-1.34 3.2-1.91 4.88a17 17 0 00-9.1-2.2 12.41 12.41 0 00-6.6 2.4 11.89 11.89 0 00-3.42 4c-.1.22-.1.42 0 .47s.28 0 .43-.17zm177.64-8.55a31.5 31.5 0 0112.63-.5 17 17 0 017.41 3 9.77 9.77 0 013.75 6.79 12.72 12.72 0 01-1.44 8 16.69 16.69 0 01-5.53 5.76 18.63 18.63 0 01-12.2 2.87 39.56 39.56 0 00.07-5.65 60.32 60.32 0 00-1.66-11.21c-.27-1-.55-2.08-.87-3.1a23.25 23.25 0 019.38-2.24 13.17 13.17 0 013.52.54 9.58 9.58 0 011.66 5.58 29.12 29.12 0 01-1.27 7.12.36.36 0 00.13.35c.1 0 .22 0 .32-.13a12.36 12.36 0 002.58-7.36 8.23 8.23 0 00-1.22-4.44 1.29 1.29 0 00-.27-.37 15.85 15.85 0 014.49 3.22c.17.15.35.22.45.17s.07-.24 0-.47a12.1 12.1 0 00-3.62-3.87 12.63 12.63 0 00-6.69-2.1 17 17 0 00-9.7 3.1c-.6-1.76-1.22-3.43-1.92-5.06z"/><path d="M377.2 195.36a12.51 12.51 0 1012.52 12.5 13.85 13.85 0 00-.22-2.26 7.41 7.41 0 11-10.5-10.09 11 11 0 00-1.8-.15zm-19.55 9a19.55 19.55 0 017.27-11.74 21.37 21.37 0 015.61-3 22.06 22.06 0 015.82-1.11c3.8.2 8.19.87 11.58 3.57s5.39 7.24 6.18 12.3a18.16 18.16 0 01-18.35 21.08c-5.76-.1-11.34-2.45-14.68-6.6s-4.34-9.69-3.43-14.52zM279.93 210a12.51 12.51 0 1025 0 11.18 11.18 0 00-.22-2.26 7.4 7.4 0 11-10.44-10.09 11.23 11.23 0 00-1.84-.15 12.52 12.52 0 00-12.5 12.5zm-5.83-1.71a22.46 22.46 0 017-12.3 18.4 18.4 0 0111.46-4.29 22.79 22.79 0 015.88 1.11 21.17 21.17 0 015.65 3.13 19.54 19.54 0 017.22 11.95 17.3 17.3 0 01-3.8 14.53c-3.49 4.07-9.22 6.28-15.05 6.25s-11.63-2.2-15.33-6a13.44 13.44 0 01-3.52-6.74 18.37 18.37 0 01.49-7.65z" fill="#fff"/><path class="cls-5" d="M148.61 138.32a15.06 15.06 0 004.74 3.25 14.14 14.14 0 005.7 1.24c1.74-.05 4.22-.35 5.73-2.39a3.34 3.34 0 00.72-1.56 4 4 0 00.12-1.78 6.13 6.13 0 00-.24-1.19 5.63 5.63 0 002.35-.72c3.85 4.29 7.27 5.45 9.77 5.45a7.92 7.92 0 002.78-.49c.27.64.57 1.26.89 1.91l1.12 2.06a1.1 1.1 0 00-.12.17 10.81 10.81 0 01-1.12 1.07 11.8 11.8 0 01-4.24 2.28c-1.61.32-2.38.52-2.26 1.24s.9.64 2.61.39a14.27 14.27 0 005.13-2.33s2.51-1.81 2.6-2.65v-.17l-1.51-3.1c-.4-.89-.74-1.79-1.09-2.65a22.56 22.56 0 01-1.34-5.21 4.75 4.75 0 01.2-2.08 1.14 1.14 0 01.94-.75 8.77 8.77 0 014.34.77 8.4 8.4 0 013.55 2.28 7 7 0 011.59 3.5 19.14 19.14 0 01-.75 8 58.55 58.55 0 01-5.28 12.35c-.74 1.32-1.49 2.61-2.31 3.92l-2.23 3.38 6.92 16.81a24.88 24.88 0 00-3 1.39 35.79 35.79 0 00-4.27 2.63l-6.54-19.17a.9.9 0 00-.25-.47 1.07 1.07 0 00-.87-.25l-2.8-.2a26.42 26.42 0 01-6.18-1.49 32.43 32.43 0 01-12.12-8.28 37.12 37.12 0 01-8.56-14.58 18.17 18.17 0 01-.65-8.71 7.17 7.17 0 015.19-5.8 9.75 9.75 0 018.58 1.16c2.23 1.54 4.21 4 6 7.69.89 1.74 1 2.95.4 3.87-.77 1.22-2.76 1.51-3.87 1.56a13.33 13.33 0 01-9.2-3.54c-.57-.55-1-1-1.27-1.27-.47-.49-.87-.94-1.36-.54s-.15 1 .17 1.43l.18.25a6 6 0 001.11 1.32z"/><path class="cls-6" d="M276.16 321.79a62.57 62.57 0 014.22-14.93c.37.25.76.47 1.14.69.62.35 1.24.72 1.88 1.05a33.1 33.1 0 00-2.8 12.72 23.13 23.13 0 005.33 15.37c3.92 4.62 9.67 7.84 15.87 9.78a80.48 80.48 0 0019.82 3.32 104.77 104.77 0 0020-.69c6.37-1 12.52-2.66 17.58-5.83a22.22 22.22 0 0010.07-12.78 24.37 24.37 0 00.15-12.42 34.69 34.69 0 003.94-.92 2.53 2.53 0 01.18.42 35.07 35.07 0 012.08 16 21.6 21.6 0 01-3 8.68 23.47 23.47 0 01-6.87 7.12c-5.73 4-13.15 6.2-21 7.39a137.8 137.8 0 01-24.9 1.29c-8.58-.32-17-1.31-24.36-4s-13.69-7.14-16.84-13.29-3.36-13.02-2.49-18.97z"/><path class="cls-3" d="M359.54 718.35a17.22 17.22 0 0110.14-2.11A29.56 29.56 0 01381 719a21.67 21.67 0 018.8 7.79c4.44 6.77 4.49 16.44 0 23.73A26.6 26.6 0 01374 762c-6.43 1.91-13.37 1.66-20.07.89-13.44-1.66-26.41-6.18-39.5-6.82-6.43-.5-12.75-.35-18.38-1-2.75-.39-5.43-1.06-6.7-2.77s-1.71-4.39-1.51-6.78a17.2 17.2 0 012.63-6.94c1.34-2.18 2.9-4.26 4.44-6.37a37.21 37.21 0 004.17-6.65 10.72 10.72 0 001.09-5.58c4.34.5 8.3.69 12.32.84 2.28.08 4.52.1 6.7 0a31.16 31.16 0 005-.52 27.74 27.74 0 00-1.17 8.16 17.38 17.38 0 004.79 11.86c3.32 3.44 8.08 5.63 13.39 6.67a36 36 0 008.53.52 26.37 26.37 0 004.76-.72 18.09 18.09 0 006.35-3.15c-1-.89-1.91-1.71-3-2.75a5 5 0 01-.67-.75l-.47-.62a4.24 4.24 0 01-.52-.82 18.14 18.14 0 01-1.56-3.84 18.5 18.5 0 01-.22-9 11.75 11.75 0 015.14-7.51z"/><path class="cls-6" d="M325 717l.22.22-.12-.1c-.35-.25-.13 0-.33 0a22.73 22.73 0 01-5.68.55c-2.08 0-4.26-.08-6.49-.17-4.39-.25-9.23-.62-13.74-1.2 0 0 .07.08-.18-.22a6.45 6.45 0 01-.69-1.36 36.39 36.39 0 01-1.64-7c-.2-1.22-.37-2.41-.52-3.62l-.2-1.79-.07-.79a.78.78 0 010-.22.62.62 0 01.3-.3 3.1 3.1 0 01.62-.18l.84-.19c1.1-.3 2.21-.48 3.33-.7 2.2-.35 4.39-.59 6.54-.72a114.37 114.37 0 0122.8 1.07 1.44 1.44 0 011 1 6.22 6.22 0 01-.1 2 26.45 26.45 0 01-1.31 4.79 44.13 44.13 0 01-2.16 5 43 43 0 01-1.36 2.46c-.25.39-.5.76-.77 1.11l-.17.23-.1.12z"/><path class="cls-4" d="M301.88 696.57a26.2 26.2 0 00-.13-8.23l1.79.15c6.5.52 13 .72 19.49.67a14.52 14.52 0 01-.25 8.16 87.4 87.4 0 00-15.72-1.09c-1.71.05-3.42.14-5.18.34zM104.52 469.6a171.12 171.12 0 00-9.3 7 14.48 14.48 0 01-4.39-6.37c2.1-1.12 4.29-2.38 6.57-3.84a77.71 77.71 0 0010.6-8.12 25 25 0 004.62 6.1c-2.8 1.63-5.47 3.39-8.1 5.23z"/><path class="cls-3" d="M77.29 455.79c.07-.05 0-.05.15-.25a23.71 23.71 0 014.22-3.82c1.66-1.27 3.44-2.51 5.28-3.75 3.62-2.43 7.69-5 11.65-7.26l.35.1a7.54 7.54 0 011.59.84 48.59 48.59 0 016.64 5.8c1 1 1.84 1.94 2.66 2.78.2.2.37.4.52.57a.12.12 0 010 .08 68.6 68.6 0 01-14.45 13.39 128 128 0 01-13 8.13.86.86 0 01-1.1-.39 10.67 10.67 0 01-1.19-1.89 29.67 29.67 0 01-1.76-4.61 40.44 40.44 0 01-1.21-5.23 23.17 23.17 0 01-.37-2.76 7.25 7.25 0 01-.05-1.31v-.37h-.42.17z"/><path class="cls-6" d="M76 452.74a26.24 26.24 0 00-4-7.22 17.1 17.1 0 00-10.94-6.6c-4.71-.77-9.85.35-14.71 2.73a34.68 34.68 0 00-7.14 4.69 26.9 26.9 0 00-3.35 3.44 18.56 18.56 0 00-3.2 6.33c1.32.12 2.56.22 4.05.4a3.48 3.48 0 011 .19l.74.23a3.4 3.4 0 01.92.34 16 16 0 013.55 2.14 18.3 18.3 0 015.58 7 11.63 11.63 0 01.29 9.08 17 17 0 01-6.79 7.82 29.32 29.32 0 01-10.66 4.62 21.69 21.69 0 01-11.72-.93C12 484.26 6.16 476.57 5.39 468a26.42 26.42 0 015.7-18.62c4-5.41 9.68-9.4 15.5-12.8 11.73-6.74 24.83-10.94 35.69-18.3 5.41-3.47 10.37-7.39 15.28-10.24 2.45-1.34 5-2.41 7-1.81 2 .44 4 2.48 5.28 4.48a17.15 17.15 0 012.08 7.15c.25 2.55.25 5.15.28 7.76a36.16 36.16 0 00.66 7.81 11.11 11.11 0 002.48 5.11c-3.74 2.21-7 4.44-10.29 6.7-1.83 1.31-3.62 2.62-5.33 4a31.14 31.14 0 00-3.72 3.5zm246.59-54.19c-.67-4.84 11.3-7.47 10.61.52a4.49 4.49 0 01-1.88 3.79 7.05 7.05 0 01-4.17 1.07 4.88 4.88 0 01-3.22-2 6.74 6.74 0 01-1.34-3.38zm-10.77 29.71c-.67-4.84 11.31-7.49 10.62.52a4.44 4.44 0 01-1.91 3.77 6.79 6.79 0 01-4.14 1.09 5 5 0 01-3.23-2 7 7 0 01-1.34-3.38zm-11.73 27.95c-.67-4.84 11.31-7.47 10.62.52a4.43 4.43 0 01-1.91 3.79 6.91 6.91 0 01-4.14 1.07 5 5 0 01-3.25-2 7.16 7.16 0 01-1.32-3.38zm-29.63-8.06c-.67-4.84 11.33-7.49 10.63.49a4.43 4.43 0 01-1.9 3.8 7 7 0 01-4.15 1.09 5.15 5.15 0 01-3.25-2 7.24 7.24 0 01-1.33-3.38zm10.71-29.59c-.67-4.84 11.31-7.49 10.61.5a4.42 4.42 0 01-1.91 3.79 6.93 6.93 0 01-4.14 1.09 4.89 4.89 0 01-3.22-2 6.67 6.67 0 01-1.34-3.38zm6.65-26.29c-.67-4.83 11.3-7.49 10.61.52a4.41 4.41 0 01-1.91 3.77 6.93 6.93 0 01-4.14 1.09 5 5 0 01-3.25-2 6.86 6.86 0 01-1.31-3.38z"/><path class="cls-3" d="M352.4 373.7c-4-5.76-7.07-10.54-8.68-13.12a.76.76 0 00-.18-.25c.6-.1 1.19-.15 1.76-.25a71 71 0 0010.64-2.63c.25 5 .47 10.59.32 15.8 0 1.09-.12 2.51-.29 3.8a5.69 5.69 0 01-.23.91 39.26 39.26 0 01-3.34-4.26z"/><path class="cls-8" d="M334.89 383.47l-.5-.84a9 9 0 01-.62-1.2c-.37-.71-.69-1.43-1-2.13l-.1-.2c-.65-1.53-1.19-3-1.69-4.34-.94-2.58-1.66-4.73-2.3-6.74-1-3.23-1.59-5.19-1.91-6.3v-.08c4.29-.05 8.53-.29 12.65-.74a.59.59 0 01.12.17l.25.4c-1 7.12-2 12.57-3 16.62-.3 1.24-.59 2.33-.92 3.3a9.35 9.35 0 01-.84 2 .42.42 0 01-.07.12s-.05-.02-.07-.04z"/><path class="cls-3" d="M310.81 382.6c-.23-.82-.45-1.74-.65-2.78a90.18 90.18 0 01-.87-5c-.44-3.05-.69-5.61-.91-7.76-.28-3.1-.43-5.14-.53-6.48a116.25 116.25 0 0011.88 1c1 .05 2.06 0 3.1.05v.15a3.84 3.84 0 00.15.62l.07.22c0 .05.05.15.08.2-2.86 6.94-5.29 12.33-7.42 16.37a29.6 29.6 0 01-3.67 5.75 3.92 3.92 0 00-.37.32.17.17 0 000-.1l-.07-.17c-.05-.17-.25-.59-.35-1l-.15-.39a9.42 9.42 0 01-.29-1z"/><path class="cls-8" d="M288.34 375.31c-.1-1.29-.1-2.65-.08-4 .1-4.93.52-10.14 1.14-16.32a38 38 0 005 2.21 57.82 57.82 0 008.31 2.38c-1.86 2.58-5.23 7.29-9.92 12.8-.84 1-1.61 1.78-2.35 2.53-.48.47-.9.84-1.27 1.14a1.93 1.93 0 01-.64.44l-.05-.27a4.22 4.22 0 01-.14-.91z"/><path class="cls-3" d="M272.54 361.92c.1-.57.2-1.14.32-1.74.2-1.16.47-2.36.72-3.57 1-4.37 2.16-8.85 3.3-13.19a27.77 27.77 0 008.43 9.1l-3.42 3.35-.6.54a81.7 81.7 0 01-7.29 6.3c-.35.27-.87.6-1.14.77a2.48 2.48 0 01-.49.3v-.42z"/><path class="cls-2" d="M482.35 198.14c-.35-.48-.72-.92-1.12-1.39a10.29 10.29 0 00-1.06-1 16 16 0 00-5.71-3.37 4.18 4.18 0 00-2.28-.25c-.07 0-.05.1-.12.07s0 .1-.05.1c-.25.4-.57 1.09-.87 1.64l-7 13.79a537.21 537.21 0 01-31.49 53.39c-2.83 4.34-6 8.46-9 12.68s-6.32 8.23-9.74 12.15a145.85 145.85 0 01-22.57 21.77 67.42 67.42 0 01-13.84 8c-1 .4-2.11.79-3.2 1.11a3.7 3.7 0 01.17.35 34.68 34.68 0 013.2 16.62 23.55 23.55 0 01-2.9 9.7 25.9 25.9 0 01-7.34 8.18 40.91 40.91 0 01-10.1 5.32 152.84 152.84 0 011.51 16.3 36.37 36.37 0 01-.1 4.09 8 8 0 01-.66 2.8 2.77 2.77 0 01-.87 1.12 1.86 1.86 0 01-1.07.34 1.15 1.15 0 01-.52-.1 5.59 5.59 0 01-2.16-1.51l-1.46-1.61c-.69-.81-1.41-1.68-2.23-2.75-4-5.18-6.92-9.55-8.68-12.25a147.6 147.6 0 01-1.68 15.2c-.23 1.29-.5 2.48-.77 3.57l-.15.52a10.37 10.37 0 01-1.12 2.86 3 3 0 01-2.45 1.73 1.6 1.6 0 01-.5-.05 3.15 3.15 0 01-1.51-.91 1 1 0 01-.18-.15l-.79-1.07-.47-.79c-.27-.45-.52-.9-.74-1.34-.43-.8-.8-1.61-1.15-2.38v-.13c-.77-1.66-1.37-3.2-1.86-4.46-1.1-2.8-1.89-5.14-2.46-6.85s-1-2.87-1.29-3.91a155.77 155.77 0 01-5.78 15.07 32.85 32.85 0 01-3.74 6.63 4.38 4.38 0 01-3.08 1.81 2.81 2.81 0 01-.44 0 2.87 2.87 0 01-1.32-.8 2.79 2.79 0 01-.5-.54.32.32 0 00-.09-.15l-.08-.13a14.9 14.9 0 01-.87-2l-.1-.32a11.74 11.74 0 01-.42-1.27c-.27-.91-.49-1.86-.74-3-.42-1.84-.72-3.52-1-5.24-.5-3.12-.8-5.75-1.05-7.93-.17-1.44-.27-2.66-.37-3.7a145.11 145.11 0 01-9.12 10.94c-.92 1-1.76 1.83-2.63 2.6-.4.35-.92.82-1.54 1.29a6.14 6.14 0 01-2.68 1.24 1.57 1.57 0 01-.37.05 2.49 2.49 0 01-1.19-.32 2.7 2.7 0 01-.94-1.29l-.08-.32a15 15 0 01-.25-2.51 35 35 0 01.15-4.14 153.39 153.39 0 012.26-16c-.82.76-2 1.91-3.57 3.32l-.52.45a70.74 70.74 0 01-7.94 6.39c-.49.35-.87.57-1.54 1a6.46 6.46 0 01-2.48.87 2.23 2.23 0 01-.37 0 2 2 0 01-2-1.19 1.7 1.7 0 01-.2-1v-.3a8.56 8.56 0 010-1.34l.38-2.08c.12-.6.27-1.19.42-1.81.3-1.22.64-2.46 1-3.62 1.27-4.35 2.85-9.06 4.84-14.41a30.14 30.14 0 01-2.56-13.5 42.49 42.49 0 01.77-6.59 59.18 59.18 0 015.33-15.16c-14.16-8.77-26-20.38-36.78-32.61a251.86 251.86 0 01-29.63-41.91C205 217.21 198.09 201.66 195 185a7.23 7.23 0 00-3 .14 18.69 18.69 0 00-1.86.55 22.32 22.32 0 00-3.07 1.34 30.52 30.52 0 00-4.62 2.88 20.62 20.62 0 00-2 1.71 6.88 6.88 0 00-1.29 1.66c0 .07-.1.12-.1.25v.39a5.84 5.84 0 000 1.15 21.92 21.92 0 00.34 2.67c.25 1.84.77 3.7 1.19 5.53s1.09 3.7 1.64 5.53l1.93 5.44c5.58 14.43 13.3 28.09 21.83 41.14a373 373 0 0028.2 37.42c4.93 6.08 10.34 11.76 15.55 17.61s10.83 11.31 16.24 17l.52.54-.15.74q-6.26 32.75-11.81 65.6c-1.81 11-3.57 21.93-5.18 32.91s-3 22-3.7 32.89l-.05.84-.54.65c-12.84 14.75-26 29.11-39.95 42.88A225.27 225.27 0 01183.08 524a57 57 0 01-6.35 4.16 25.26 25.26 0 01-3.62 1.74c-.67.22-1.38.42-2.1.62a10.47 10.47 0 01-2.51.12c-3.47-.49-5.68-2.48-7.59-4.26a42.11 42.11 0 01-4.93-5.88c-5.81-8.21-10.22-17-14.68-25.67s-8.56-17.58-13.45-25.69c-.62-1-1.26-2-1.93-2.85a9.42 9.42 0 00-1.91-2s-.05 0-.05-.05a.9.9 0 01-.22 0 7.67 7.67 0 00-1.37.35 22.53 22.53 0 00-3.1 1.27 97.29 97.29 0 00-12.17 7.39c-3.65 2.53-7.2 5.2-10.57 8.06-.3.22-.57.47-.84.69a76.4 76.4 0 00-10 10 23.14 23.14 0 00-1.86 2.73 5.55 5.55 0 00-.81 2.33 1.24 1.24 0 01.07.4l.22.64c.13.42.45.94.67 1.44.52 1 1.12 2 1.76 2.95a121.28 121.28 0 008.73 11.36 253.46 253.46 0 0020.07 20.88A200.18 200.18 0 00136.81 553a95 95 0 0012.3 7.27c4.21 2 8.7 3.72 13.12 4s8.92-1.19 13.31-2.88a114.47 114.47 0 0013-6.2 286.65 286.65 0 0024.46-15.4c15.28-10.54 30-22 44.17-33.93a28.34 28.34 0 01-1.73-2.26 34.69 34.69 0 01-5.63-12.77c-.13-.62 0-1.14.37-1.24s.74.2 1 .72A60 60 0 00258.8 501a30.53 30.53 0 0013.32 8.93 32.8 32.8 0 0016.12.5 91.1 91.1 0 0012.65-3.67c.59-.2 1.11-.13 1.29.17s-.08.77-.58 1.14a41.8 41.8 0 01-12.3 6.47 33.08 33.08 0 01-5.4 1.29c.87 40.43 1.86 80.88 3.37 121.28.42 10.26.84 20.53 1.51 30.77.15 2.56.33 5.11.57 7.64.1 1.27.25 2.51.4 3.77.07.62.17 1.17.27 1.76a3.41 3.41 0 00.13.55c0 .25.07.15.05.17a8.3 8.3 0 002.63 1.09c1.14.3 2.33.57 3.57.77 2.45.4 5 .7 7.49.9 7 .57 14 .74 21.08.62 3.15 0 6.32-.1 9.5-.28a90.55 90.55 0 0014.9-1.71 10.16 10.16 0 001.49-.47h.07a22.9 22.9 0 00-.25-3.06c-.34-2.45-.79-5-1.26-7.49-8.23-40.2-18.45-80.2-24.78-121.05-1.48-10.21-2.85-20.48-2.9-31a55.78 55.78 0 01.6-7.91l1-7.71c.58-5.16 1.69-10.22 2.58-15.33a346 346 0 0117.56-59.52 415.39 415.39 0 0127.06-55.8 392.22 392.22 0 0135-51.22A520.8 520.8 0 00442 273c11.23-17.18 21.87-34.77 31.64-52.77 2.43-4.52 4.79-9.06 6.94-13.64.55-1.14 1.07-2.28 1.54-3.43.25-.57.45-1.14.67-1.68.1-.3.18-.52.25-.77l.1-.37a.3.3 0 010-.13 4.25 4.25 0 00-.79-2.07zM288 387.86a9.27 9.27 0 014.69-2.48 7.17 7.17 0 013.08-.2 6.11 6.11 0 013 1.46 7.84 7.84 0 012.48 6.25 7.12 7.12 0 01-3.28 5.95 8.79 8.79 0 01-3 1.12 7.62 7.62 0 01-3.05 0 6.76 6.76 0 01-4.39-3.33 7.87 7.87 0 01-1-4.39 5.74 5.74 0 011.47-4.38zm-7.31 66.83a8.32 8.32 0 01-3 1.12 7.43 7.43 0 01-3.05.05 6.78 6.78 0 01-4.39-3.32 7.83 7.83 0 01-1-4.39 5.62 5.62 0 011.37-4.42 9 9 0 014.69-2.48 7.36 7.36 0 013.05-.2 6.19 6.19 0 013.07 1.47 7.73 7.73 0 012.46 6.25 7 7 0 01-3.24 5.92zm.27-31.74a7.63 7.63 0 01-.94-4.39 5.66 5.66 0 011.34-4.41 9 9 0 014.69-2.48 7.11 7.11 0 013.07-.2 6.11 6.11 0 013.05 1.46 7.81 7.81 0 012.48 6.25 7 7 0 01-3.27 5.93 8.56 8.56 0 01-2.95 1.11 7.42 7.42 0 01-3.08 0 6.74 6.74 0 01-4.43-3.22zm6.85 36.75c-.35.55-.72.87-.87.77s-.08-.57.2-1.16c3.32-6.8 8.48-17.56 13.24-30.09a245.56 245.56 0 009.57-31.42c.13-.62.35-1 .52-1s.3.5.25 1.17c-.47 7.61-2.88 19.54-7.71 32.29a138.65 138.65 0 01-15.24 29.44zm22.49 3.08a8.44 8.44 0 01-3 1.12 7.61 7.61 0 01-3 .05 6.88 6.88 0 01-4.39-3.33 8 8 0 01-1-4.41 5.78 5.78 0 011.36-4.39 9.08 9.08 0 014.69-2.48 7.59 7.59 0 013.07-.23 6.38 6.38 0 013.05 1.49 7.81 7.81 0 012.48 6.25 7.07 7.07 0 01-3.3 5.93zm11.7-27.95a9.16 9.16 0 01-3 1.17 7.6 7.6 0 01-3.08 0 6.84 6.84 0 01-4.39-3.3 7.82 7.82 0 01-.94-4.41 5.77 5.77 0 011.34-4.42 9 9 0 014.69-2.45 7.26 7.26 0 013.07-.23 6.3 6.3 0 013 1.47 7.87 7.87 0 012.48 6.27 7 7 0 01-3.17 5.9zm10.76-29.71a8.27 8.27 0 01-2.95 1.11 7.72 7.72 0 01-3.07 0 6.84 6.84 0 01-4.39-3.32 7.66 7.66 0 01-.94-4.41 5.63 5.63 0 011.33-4.39 9.12 9.12 0 014.69-2.48 7.33 7.33 0 013.08-.23 6.42 6.42 0 013.05 1.49 7.84 7.84 0 012.48 6.25 7 7 0 01-3.29 5.98z"/><path class="cls-5" d="M368.34 318.24a24.52 24.52 0 01-1 11.63 20.59 20.59 0 01-9.6 11c-4.66 2.7-10.47 4.14-16.57 5a114.57 114.57 0 01-19.37.47 81.43 81.43 0 01-19-3c-5.86-1.69-11.12-4.49-14.74-8.44a21.26 21.26 0 01-5.43-13.56 33.8 33.8 0 011.69-12.18 57.5 57.5 0 009.32 3.87 26.34 26.34 0 0013.87.84 16.45 16.45 0 006.59-3.29 20.78 20.78 0 004.67-5.53 36.18 36.18 0 003.82-11.49 85.54 85.54 0 0011.11.2 84.26 84.26 0 009.87-.12 27.57 27.57 0 00.32 7.14 25.33 25.33 0 003.05 8 19.78 19.78 0 0014.14 9.45 23.6 23.6 0 007.26.01zM256.27 212.4A64.94 64.94 0 01271 183.35c3.52-1 7.22-1.88 11-2.67a265 265 0 0153-5.46 268.79 268.79 0 0153 5.55c3 .65 5.88 1.34 8.68 2.11a69.86 69.86 0 0114.39 29.44 59.75 59.75 0 011.21 10.39 44.47 44.47 0 01-.24 5.38c0 .92-.13 1.84-.18 2.76a26.85 26.85 0 01-.49 2.72 57 57 0 01-8.26 21.33c-8.61 13.4-21.31 22.87-33.93 28.35a98.6 98.6 0 01-35.46 8.21 98.46 98.46 0 01-35.44-8.21c-12.6-5.48-25.32-14.93-33.93-28.3a57.52 57.52 0 01-8.28-21.33c-.15-.89-.38-1.81-.47-2.7-.05-.47-.08-.94-.1-1.41s-.08-.9-.1-1.34c-.1-1.81-.33-3.6-.25-5.38a58.7 58.7 0 011.12-10.39zm136.6 8.45a20.86 20.86 0 004.13-17.06 28.15 28.15 0 00-2.61-7.74 17 17 0 00-5.08-5.93c-4.27-3-9.05-3.27-13-3.17a23.64 23.64 0 00-6.4.74 22.07 22.07 0 00-6.42 3 21.65 21.65 0 00-8.78 13 20.22 20.22 0 003.72 17.21c4 5.06 10.59 7.86 17.21 8a21.18 21.18 0 0017.23-8.05zm-16.47 22.57a.3.3 0 00.1-.32 9.51 9.51 0 00-4.34-5.21 12.11 12.11 0 00-6.5-1.84.28.28 0 00-.27.2.31.31 0 00.18.3 56.91 56.91 0 015.45 2.7 47.49 47.49 0 01-39.58 18.38c-13.71-.42-26.51-6.37-32.74-15.23a24.66 24.66 0 013.3-2.28.27.27 0 00.18-.3.31.31 0 00-.3-.17 9.94 9.94 0 00-6.28 3.2 12.32 12.32 0 00-3.3 6.23.26.26 0 00.15.29.28.28 0 00.33-.12 44.56 44.56 0 014.09-5.16c6.69 9.33 20.16 15.57 34.5 16h1.61a49.79 49.79 0 0040.1-19.52 26.64 26.64 0 013 2.73.3.3 0 00.32.12zm-62.22-27.23a21.09 21.09 0 000-8.88 21.58 21.58 0 00-8.71-13.24A21.36 21.36 0 00299 191a22 22 0 00-6.47-.77 19.71 19.71 0 00-12.92 3.94c-4.07 3.08-7 8-8.39 13.42a27.89 27.89 0 00-.86 4.22 15.87 15.87 0 00.07 4.61 16.64 16.64 0 004.19 8.53c4.49 4.74 11.09 7.19 17.78 7.27s13.45-2.58 17.64-7.59a19.53 19.53 0 004.14-8.44z"/><path class="cls-3" d="M267.59 183.23s-23.4 3.79-18.2 14.92l8.72 2.59zm132.52 0s23.39 3.77 18.19 14.92l-8.72 2.59z"/><path class="cls-9" d="M333.71 291.44a98.38 98.38 0 01-35.44-8.2c-12.61-5.47-25.32-14.93-33.93-28.3a57.27 57.27 0 01-8.27-21.31c-.16-.92-.39-1.82-.49-2.73s-.13-1.83-.19-2.73a44.71 44.71 0 01-.24-5.4 57.79 57.79 0 011.13-10.39c2.77-13.43 10-24.06 17-31.51l-1.56-1.61a63.66 63.66 0 00-19.76 32.15 59.75 59.75 0 00-1.58 11.2 48.22 48.22 0 00.1 5.88c.05 1 .11 2 .16 3s.31 2 .46 3a60.18 60.18 0 008.81 23.3 77.28 77.28 0 0036.66 29.58 89.8 89.8 0 0037.17 6.34z"/><path class="cls-9" d="M394.55 180.4a70.42 70.42 0 0116.51 31.91 58 58 0 011.2 10.38 44.69 44.69 0 01-.23 5.4l-.19 2.74c-.08.91-.32 1.81-.48 2.72a57.09 57.09 0 01-8.26 21.35c-8.6 13.38-21.31 22.85-33.93 28.33a98.56 98.56 0 01-35.46 8.21v2.24a89.61 89.61 0 0037.19-6.35 77.24 77.24 0 0036.67-29.62 60.06 60.06 0 008.79-23.33c.15-1 .39-2 .46-3l.15-3a48.19 48.19 0 00.1-5.88 59.74 59.74 0 00-1.67-11.21 67.39 67.39 0 00-19.26-32.49zm-140.79 47.07a19.78 19.78 0 01-6.5.36 19.24 19.24 0 01-7-2.33c-4.49-2.48-8.36-7.39-7.86-13.1a11 11 0 013-7.18 14.83 14.83 0 016.82-3.67 28.49 28.49 0 0114.18.14l.84-2.08a26 26 0 00-15.95-2.42 18.24 18.24 0 00-9.4 4.38 15.58 15.58 0 00-4.75 10.51 16.66 16.66 0 003.15 10.92 19.75 19.75 0 008 6.46 20.44 20.44 0 008.82 1.85 19.12 19.12 0 007.44-1.75z"/><path class="cls-9" d="M234.3 211c.1.05.27 0 .42-.2a14.54 14.54 0 019.73-5c4.56-.25 8.55 1.45 11.05 2.39.23.08.42.06.47 0s0-.26-.22-.39a17.78 17.78 0 00-11.42-3.71 12.36 12.36 0 00-6.6 2.42 11.49 11.49 0 00-3.42 4c-.11.26-.11.49-.01.49z"/><path class="cls-9" d="M241.63 205.37a.26.26 0 00-.35-.05 6.15 6.15 0 00-2.47 2.46 8.43 8.43 0 00-1 4.51 12.34 12.34 0 002.92 7.22.28.28 0 00.33.11.31.31 0 00.11-.35 29.37 29.37 0 01-1.6-7.05 9.47 9.47 0 012-6.5.31.31 0 00.06-.35zm173.3 24.77a19.43 19.43 0 0016.47-1 19.83 19.83 0 007.69-7 17.06 17.06 0 002.3-11.32 14.47 14.47 0 00-6-10.12 20.2 20.2 0 00-9.87-3.34 28.24 28.24 0 00-16 3.42l.94 2a31.67 31.67 0 0114.47-1 17.15 17.15 0 017.43 3 9.83 9.83 0 013.75 6.78 12.78 12.78 0 01-1.45 8 16.68 16.68 0 01-5.54 5.75 18.75 18.75 0 01-13.5 2.69z"/><path class="cls-9" d="M434.29 210.67c.1-.06.09-.26 0-.47a11.68 11.68 0 00-3.6-3.86 12.39 12.39 0 00-6.71-2.1 17.75 17.75 0 00-11.23 4.23c-.19.14-.27.31-.21.41s.25.1.47 0c2.46-1 6.37-2.94 10.93-2.89a14.46 14.46 0 019.95 4.5c.11.17.3.24.4.18z"/><path class="cls-9" d="M426.7 205.36a.3.3 0 00.07.34 9.51 9.51 0 012.32 6.4 29.7 29.7 0 01-1.27 7.13.31.31 0 00.12.34.27.27 0 00.33-.13 12.26 12.26 0 002.58-7.34 8.35 8.35 0 00-1.22-4.46 6 6 0 00-2.57-2.34.27.27 0 00-.36.06zm-134.17-13.68a22.74 22.74 0 015.89 1.12 20.14 20.14 0 015.66 3.13 19.48 19.48 0 017.19 11.94 17.23 17.23 0 01-3.78 14.52c-3.51 4.08-9.23 6.29-15.06 6.26s-11.61-2.2-15.33-6.05a13.49 13.49 0 01-3.51-6.75 18.51 18.51 0 01.52-7.58 22.67 22.67 0 017-12.31 18.6 18.6 0 0111.46-4.28v-1.5a19.82 19.82 0 00-12.92 4c-4.05 3.07-6.95 8-8.39 13.41a31.05 31.05 0 00-.84 4.21 16.27 16.27 0 00.05 4.62 16.56 16.56 0 004.21 8.52c4.47 4.76 11.08 7.19 17.77 7.27s13.45-2.57 17.64-7.57a19.48 19.48 0 004.15-8.42 21.42 21.42 0 000-8.88A21.63 21.63 0 00299 191a23 23 0 00-6.47-.77zm83.83-3.24c3.79.2 8.18.85 11.59 3.56s5.38 7.25 6.16 12.3a18.15 18.15 0 01-18.34 21.09c-5.77-.11-11.33-2.47-14.68-6.61a17.34 17.34 0 01-3.42-14.45 19.48 19.48 0 017.25-11.73 20.84 20.84 0 015.61-3.06 22.67 22.67 0 015.83-1.1v-1.5a23.25 23.25 0 00-6.4.74 22.07 22.07 0 00-6.41 3 21.56 21.56 0 00-8.79 13 20.24 20.24 0 003.71 17.2c4 5.08 10.6 7.87 17.21 8a21.29 21.29 0 0017.2-8.06 20.86 20.86 0 004.12-17.05 27.9 27.9 0 00-2.6-7.72 16.73 16.73 0 00-5.08-5.92c-4.25-3-9.05-3.28-13-3.19z"/><path class="cls-9" d="M298.52 211.13a7.42 7.42 0 01-4.23-13.51 12.35 12.35 0 00-1.84-.15A12.51 12.51 0 10305 210a13.13 13.13 0 00-.21-2.27 7.4 7.4 0 01-6.27 3.4zm84.76-2.13a7.41 7.41 0 01-4.23-13.5 12.35 12.35 0 00-1.84-.15 12.51 12.51 0 1012.51 12.51 12.13 12.13 0 00-.22-2.27 7.39 7.39 0 01-6.22 3.41z"/><path class="cls-10" d="M333 260.13h-1.62c-14.6-.45-28.29-7-34.89-16.56l2-1.4c6.16 9 19.08 15 32.92 15.48a47.57 47.57 0 0039.71-18.57l2 1.53A49.84 49.84 0 01333 260.13z"/><path class="cls-9" d="M302.18 239.83a.26.26 0 00-.29-.19 10 10 0 00-6.28 3.21 12.24 12.24 0 00-3.29 6.21.26.26 0 00.13.3.3.3 0 00.33-.11 47.74 47.74 0 014.09-5.18 23 23 0 015.15-3.95.28.28 0 00.16-.29zm63.23-3.58a.26.26 0 00.17.28 54.32 54.32 0 015.67 2.85 22.82 22.82 0 014.82 4 .28.28 0 00.33.06.25.25 0 00.1-.31 9.51 9.51 0 00-4.34-5.21 11.88 11.88 0 00-6.49-1.83.25.25 0 00-.26.16z"/><path class="cls-10" d="M420.7 193.16a4.52 4.52 0 010 1.72 4 4 0 01-.45 1.58 4.72 4.72 0 01-.74 1.37 13 13 0 01-3.95 3.59l-1.68-2.42a10.77 10.77 0 002.7-2.95 3 3 0 00.12-3 8.73 8.73 0 00-2.8-3 27.1 27.1 0 00-4.26-2.48c-6.25-3-13.72-5-21.65-6.77a268.74 268.74 0 00-52.99-5.59 266 266 0 00-53 5.45 121.57 121.57 0 00-21.88 6.4c-3.17 1.37-6.27 2.93-8.25 4.91a4.36 4.36 0 00-1.62 3 5 5 0 001.52 3l-2 2.2a7.83 7.83 0 01-2.93-5 7.67 7.67 0 012.13-5.81c2.58-3 5.83-4.81 9.18-6.57a112 112 0 0122.52-8 221.9 221.9 0 01108.67.13c8.14 2.15 15.75 4.68 22.47 8.4a30.79 30.79 0 014.74 3.28 12.38 12.38 0 013.72 4.83 5.25 5.25 0 01.43 1.73z"/><path class="cls-9" d="M250.3 192.37a12.71 12.71 0 01-.07-9.11c1.09-3 3.57-5.67 6.48-8 6-4.58 13.83-7.78 22.29-10.34a171.26 171.26 0 0127.48-5.55 200 200 0 0130.25-1.48 232.37 232.37 0 0130.22 3 201.66 201.66 0 0127.4 6.32c8.43 2.69 16.4 5.86 22.21 10.48 2.87 2.28 4.94 5.11 5.06 8s-1.62 5.81-3.78 8.09l2.08 2.15 1.93-1.93c.59-.73 1.18-1.5 1.74-2.3a12.28 12.28 0 001.91-6 12.14 12.14 0 00-1.71-6.45 21 21 0 00-4.15-5.06c-6.48-5.8-14.7-9.42-23.4-12.61a183.7 183.7 0 00-28.14-7.33 210.77 210.77 0 00-31.16-3.39 184.66 184.66 0 00-31.35 1.82 158.47 158.47 0 00-28.4 6.58c-8.78 3-17 6.79-23.47 12.42-3.17 2.82-6 6.22-7.16 10.3a15.89 15.89 0 001 11.52z"/><path class="cls-9" d="M258 172.34a21.46 21.46 0 013.45-7.56 35.64 35.64 0 016.17-6.88 60.3 60.3 0 0118.06-10.18c14-5.18 30.72-7 48.25-7.22 4.39 0 8.74.11 13 .28 4.25.34 8.46.47 12.52 1.08a105.47 105.47 0 0122.91 5 53.51 53.51 0 0118 10 27.09 27.09 0 018.92 14.82l2.23-.29c-.59-5.93-3.74-12.11-8.73-17.07s-11.61-8.82-18.93-11.63a101.88 101.88 0 00-23.79-5.8c-4.2-.7-8.51-.89-12.88-1.27q-6.57-.31-13.31-.34c-17.95.19-35.29 2.37-49.86 8.34a60.6 60.6 0 00-18.8 11.75 37.15 37.15 0 00-6.27 7.92 22.84 22.84 0 00-3.19 8.76z"/><path class="cls-9" d="M474.24 90a12.54 12.54 0 00-5.31-7.87 11.82 11.82 0 00-7.64-2h-1c-.31-.46-.75-1.07-1.4-1.94a68.13 68.13 0 00-19.59-18.21 54.65 54.65 0 00-24.88-7.72 68.64 68.64 0 00-24.45 2.9A99.91 99.91 0 00369.29 64l-.83.5a86.25 86.25 0 01-.52-17.26 65.44 65.44 0 013.43-16.67 56.3 56.3 0 017.7-14.57 13 13 0 002.15 4.38 13.28 13.28 0 0021.14 0 13.07 13.07 0 002.39-10.55A12.53 12.53 0 00399.43 2a15.94 15.94 0 00-15.28 0 12.3 12.3 0 00-1.88 1.54h-.77c-11.79-.82-24.34 2.38-35.36 9-8.79 5.19-16.86 12.16-24.68 21.32a148.77 148.77 0 00-20.68 32.26c-1.2-.55-2.42-1-3.65-1.48a37.58 37.58 0 00-5.2-1.61l-1.88-.5-1.92-.34a42.6 42.6 0 00-5.42-.77 71.12 71.12 0 00-15.29.13 37.18 37.18 0 00-6.26.9l-1.6.32c-.44.11-.88.19-1.33.27a13 13 0 00-2.58.64l-3.77 1.27a28.06 28.06 0 00-5.39 2.31c-.69.36-1.39.72-2.07 1a13.42 13.42 0 00-2.51 1.52c-.34.25-.69.49-1.07.75s-.78.54-1.18.81a18 18 0 00-2.18 1.66 49.32 49.32 0 00-10.73 12.94 64 64 0 00-5.93 15.87 80.05 80.05 0 00-1.91 16.93c0 1.12 0 2 .05 2.6a12 12 0 00-2.43.21 12.5 12.5 0 00-7.92 5.22 13.09 13.09 0 00-1.85 10.67 13.28 13.28 0 0019.53 8.11 13.13 13.13 0 006.25-8.84 12.62 12.62 0 00-1.88-9.31 12 12 0 00-5-4.18l.24-.33a52.66 52.66 0 019.55-10.69 24.53 24.53 0 015.54-3.48 13.85 13.85 0 015.88-1c4.32.42 7.69 3.29 9.76 5.63a41.38 41.38 0 016.25 9.57c6.32 13.19 6.79 24.76 5.92 27.13-.49 1.25-.12 1.79.34 2.05l4.38 2.08.4.24.43-.17c.19-.07.69-.26 1.32-2.29 1.29-4.79.42-17.24-7.25-31.89a45.11 45.11 0 00-7.71-10.61c-2.33-2.37-7.19-6.38-13.55-6.57a18.28 18.28 0 00-8 1.84 27.69 27.69 0 00-6.29 4.6 52.14 52.14 0 00-9.12 12.18c-.14.24-.28.49-.41.74a11.26 11.26 0 00-2.91-.82c0-.65.06-1.51.08-2.68a78.8 78.8 0 012.3-16.47A62.12 62.12 0 01229 87.16a47.41 47.41 0 0110.39-12 15.87 15.87 0 012-1.42c.4-.26.81-.52 1.16-.77s.72-.47 1.08-.72a11.21 11.21 0 012.16-1.25c.72-.32 1.43-.67 2.13-1a25.13 25.13 0 015-2c19.79-6.14 41.06-3.57 54.19 6.55a46.27 46.27 0 018.76 8.41 56 56 0 016.27 9.43 81.8 81.8 0 017.07 18.35 111.25 111.25 0 013.45 24v.67c.09 2.52.09 2.52.35 2.74l.18.14h3.59c.52-.06.75-.08.62-3.77a115.27 115.27 0 00-3.75-25c-.3-1.07-.64-2.23-1-3.43.19-.37.41-.84.72-1.55 1.5-3.26 5.17-9 11-15.32a118.67 118.67 0 0127-21.58A98.15 98.15 0 01391 58.83a65.78 65.78 0 0123.17-3.28A52.72 52.72 0 01438 62.24a67.38 67.38 0 0119.53 17l.87 1.07a11.42 11.42 0 00-4.75 1.81c-.12.08-.23.19-.34.27-12.37.59-23.79 3.56-33 8.62a50.05 50.05 0 00-21.71 22.66 60.75 60.75 0 00-5.6 23.61 83.22 83.22 0 00.34 12.41l.08.89c.17 1.84.44 2 .65 2.22l.32.25 5.28-.65c1.1-.12 1-1.42.85-2.56l-.1-1a82.43 82.43 0 01-.52-11.37 56.6 56.6 0 014.31-21.25 45.59 45.59 0 0118.46-21c7.57-4.72 17.06-8.07 27.61-9.79a12.6 12.6 0 00-2 4.58 13.12 13.12 0 002.39 10.56 13.28 13.28 0 0021.14 0A13.08 13.08 0 00474.24 90zm-91-79.41a9.3 9.3 0 013-5.83 7.37 7.37 0 0111.06 0 9.3 9.3 0 013 5.83 8.83 8.83 0 01-2 6.67 8.55 8.55 0 01-13.18 0 8.87 8.87 0 01-1.89-6.64zM223.48 124.7a10.2 10.2 0 014.15 4.43 9.3 9.3 0 01.56 6.55 8.88 8.88 0 01-4.38 5.4 8.54 8.54 0 01-12.17-5.08 8.85 8.85 0 01.73-6.91 9.7 9.7 0 0111.11-4.39zm138.2-57.23l.12 1.1a.2.2 0 000 .07A121 121 0 00341 86.07a75.73 75.73 0 00-10.48 13.75 74.7 74.7 0 00-4.52-9.61 60.13 60.13 0 00-6.84-10 50.27 50.27 0 00-9.62-9c-.81-.59-1.65-1.15-2.49-1.69a1.09 1.09 0 00.06-.11l.17-.37a153.19 153.19 0 0119-31.24 98.06 98.06 0 0122.42-21.22 61.16 61.16 0 0131.68-10.53 12.16 12.16 0 00-1.54 3.82 12.43 12.43 0 00-.28 2.54 53.31 53.31 0 00-11.67 16.36 63.74 63.74 0 00-5.14 17.82 82.17 82.17 0 00-.07 20.88zm106.2 30a8.54 8.54 0 01-13.18 0 8.82 8.82 0 01-2-6.67 9.27 9.27 0 013-5.82 7.37 7.37 0 0111.06 0 9.27 9.27 0 013 5.82 8.86 8.86 0 01-1.88 6.65z"/><path class="cls-10" d="M322.84 292a37.79 37.79 0 01-4.07 13 20.56 20.56 0 01-4.65 5.54 16.3 16.3 0 01-6.6 3.29 26.55 26.55 0 01-13.87-.83 60.08 60.08 0 01-12.11-5.41c-15.08-8.9-27.49-21.05-38.83-33.87a252.91 252.91 0 01-29.65-41.91c-8.31-15-15.34-30.94-18.34-48.15l1 1.6a5.54 5.54 0 00-3.7-.09 20.92 20.92 0 00-4.92 1.87 32.2 32.2 0 00-4.62 2.88 26 26 0 00-2 1.72 6.71 6.71 0 00-1.28 1.65c0 .1-.11.13-.11.26v.4a4.56 4.56 0 000 1.13 18.78 18.78 0 00.33 2.69c.25 1.83.77 3.69 1.19 5.54s1.09 3.67 1.63 5.51l2 5.45c5.58 14.43 13.29 28.09 21.82 41.13a376.19 376.19 0 0028.2 37.43c4.93 6.07 10.33 11.76 15.54 17.6s10.85 11.3 16.26 17l.54.54-.14.75q-6.25 32.73-11.81 65.6c-1.83 10.95-3.58 21.92-5.18 32.89s-3.07 22-3.71 32.9v.84l-.55.64c-12.85 14.74-26 29.12-40 42.88A228.42 228.42 0 01183.1 524a59.09 59.09 0 01-6.35 4.19 30.89 30.89 0 01-3.61 1.73c-.69.22-1.41.42-2.12.61a11 11 0 01-2.5.13c-3.49-.51-5.68-2.49-7.59-4.26a43.13 43.13 0 01-5-5.9c-5.8-8.2-10.21-17-14.67-25.65s-8.55-17.59-13.44-25.7c-.63-1-1.27-1.95-1.94-2.84a9 9 0 00-1.9-2s-.14-.12-.14-.1a.09.09 0 00.09 0c.17-.07-.16 0-.29 0a8.41 8.41 0 00-1.36.34 26.32 26.32 0 00-3.09 1.28 95.89 95.89 0 00-12.18 7.38c-3.89 2.79-7.71 5.69-11.36 8.79a76.33 76.33 0 00-10 10 20.63 20.63 0 00-1.86 2.73 5.4 5.4 0 00-.83 2.34 1.22 1.22 0 01.07.38l.24.65a12 12 0 00.67 1.43 33.7 33.7 0 001.76 2.95 120 120 0 008.72 11.37 258.2 258.2 0 0020.05 20.88 198.79 198.79 0 0022.39 18.24 95.64 95.64 0 0012.29 7.28c4.23 2 8.71 3.71 13.13 4s8.92-1.19 13.32-2.89a115 115 0 0012.93-6.19 285.37 285.37 0 0024.56-15.38c15.95-11 31.31-23 46.07-35.52l3.2 3.79c-7.57 6.24-15.25 12.24-23 18.13s-15.68 11.67-23.77 17.18a288 288 0 01-25 15.48 120.57 120.57 0 01-13.59 6.32c-4.65 1.75-9.6 3.32-15 3.1-5.32-.38-10.13-2.26-14.65-4.39a99.69 99.69 0 01-12.85-7.55 203.08 203.08 0 01-22.91-18.57 260.48 260.48 0 01-20.45-21.18 123.12 123.12 0 01-9.08-11.78c-.7-1.05-1.35-2.15-2-3.31a15.62 15.62 0 01-.87-1.88l-.39-1.06c-.09-.47-.17-.95-.22-1.43a9.26 9.26 0 011.42-4.53 25.9 25.9 0 012.24-3.31 80.13 80.13 0 0110.56-10.63q5.65-4.81 11.73-9a101 101 0 0112.77-7.76 28.14 28.14 0 013.65-1.52 12.1 12.1 0 012.17-.53 4.05 4.05 0 011.52 0 7.66 7.66 0 011 .25 4 4 0 01.66.36 12.28 12.28 0 013.23 3.14c.79 1.05 1.5 2.12 2.18 3.18 5.19 8.57 9.24 17.37 13.71 26s8.87 17.3 14.36 25a38.33 38.33 0 004.43 5.27c1.55 1.54 3.39 2.8 4.8 3s3.57-.82 5.47-1.92a56.48 56.48 0 005.83-3.86A226.34 226.34 0 00201.82 501c13.75-13.65 26.87-28 39.57-42.69l-.6 1.48c.86-11.29 2.56-22.28 4.29-33.29s3.72-22 5.72-32.91q6.07-32.82 12.87-65.48l.39 1.28c-5.51-5.63-11.14-11.13-16.54-16.86S236.74 301 231.7 295a377.64 377.64 0 01-28.88-37.46C194 244.38 186 230.62 180.11 215.8l-2.11-5.62c-.58-1.92-1.23-3.81-1.77-5.76s-1-3.9-1.34-6a20.51 20.51 0 01-.42-3.14 8.42 8.42 0 01-.06-1.8 5.23 5.23 0 01.48-2.19 11 11 0 012.21-3.06 28.83 28.83 0 012.43-2.17 37.8 37.8 0 015.32-3.41 26.07 26.07 0 016-2.35 11.27 11.27 0 011.71-.31 9.23 9.23 0 011.85-.1 7.8 7.8 0 014.15 1.26l.78.5.21 1.1c2.83 16.31 9.64 31.91 17.78 46.53a247.59 247.59 0 0029.06 41.08c11.13 12.64 23.37 24.5 37.61 32.89a55.48 55.48 0 0011.08 5c3.79 1.14 7.74 1.64 11.23.77a13 13 0 008.16-6.49 33.24 33.24 0 003.46-11.2zm-38.98 221.66c.88 41.14 1.87 82.29 3.43 123.4.41 10.27.84 20.55 1.49 30.78.17 2.56.34 5.12.58 7.64.1 1.28.25 2.52.39 3.77.07.62.19 1.17.28 1.77a4.58 4.58 0 00.13.55c0 .23.07.14 0 .15a8.35 8.35 0 002.63 1.1 35.17 35.17 0 003.57.76c2.45.41 5 .7 7.49.91a241.8 241.8 0 0030.58.35 90.54 90.54 0 0014.9-1.72 9.31 9.31 0 001.51-.48l.27-.13-.17.3c-.17.3 0 .08-.05.1a20.64 20.64 0 00-.24-3.33c-.33-2.47-.79-5-1.26-7.49-8.23-40.2-18.45-80.21-24.77-121-1.5-10.23-2.87-20.5-2.9-31a53.22 53.22 0 01.58-7.92l1-7.71c.56-5.16 1.69-10.22 2.59-15.33a345 345 0 0117.54-59.51 419 419 0 0127.06-55.8 392.82 392.82 0 0135-51.21A525.85 525.85 0 00442 273c11.23-17.16 21.87-34.75 31.64-52.77 2.42-4.5 4.79-9.05 6.95-13.63.53-1.14 1.06-2.29 1.53-3.43.25-.57.45-1.13.66-1.68a7.72 7.72 0 00.25-.78l.12-.36a.49.49 0 010-.12 4.22 4.22 0 00-.79-2.11 13.55 13.55 0 00-2.18-2.41 16.09 16.09 0 00-5.72-3.38 4.08 4.08 0 00-2.27-.23c-.07 0 0 .09-.11.06s0 .1-.07.1c-.24.41-.57 1.1-.85 1.64l-7 13.8a540.66 540.66 0 01-31.49 53.39c-2.84 4.33-6 8.46-9 12.68-3.19 4.09-6.34 8.22-9.76 12.14a145 145 0 01-22.57 21.77 66.45 66.45 0 01-13.84 8c-5 2-10.62 3.4-16.39 2.42A21.12 21.12 0 01353 315a22 22 0 01-6-6.32 25.52 25.52 0 01-3.05-8 28.17 28.17 0 01-.19-8.5l4.91.72a23.61 23.61 0 00.14 6.87 20.94 20.94 0 002.4 6.34 17.19 17.19 0 004.54 4.8 16.2 16.2 0 006.17 2.36c4.46.8 9.27-.34 13.75-2.11a61.6 61.6 0 0012.79-7.42 140.72 140.72 0 0021.79-21c3.35-3.83 6.44-7.89 9.58-11.9 3-4.15 6.07-8.21 8.88-12.48a534.89 534.89 0 0031.28-52.88l7-13.71c.31-.6.53-1.07.92-1.78a7.63 7.63 0 011.12-1.41 7.88 7.88 0 011.54-.91 8.2 8.2 0 015.31.14 20.51 20.51 0 017.48 4.38 17.59 17.59 0 013 3.32 8.5 8.5 0 011.56 5.08c0 .28-.08.57-.13.84l-.17.56c-.11.36-.22.75-.34 1.06-.25.64-.49 1.3-.76 1.9-.51 1.24-1.06 2.43-1.61 3.62-2.24 4.72-4.63 9.3-7.09 13.86-9.87 18.16-20.58 35.81-31.9 53.07a530.27 530.27 0 01-36.78 49.84A389.48 389.48 0 00374.39 376a414.4 414.4 0 00-26.83 55.18 340.55 340.55 0 00-17.4 58.74c-.89 5-2 10-2.57 15.1l-1 7.6A49.59 49.59 0 00326 520c0 10.05 1.34 20.26 2.82 30.38 6.23 40.57 16.37 80.46 24.59 120.91.48 2.55.94 5.1 1.3 7.72a21 21 0 01.23 4.37 3.4 3.4 0 01-.27 1 2.52 2.52 0 01-.76 1 4.6 4.6 0 01-1.37.85 13.32 13.32 0 01-2.16.72 94.54 94.54 0 01-15.72 1.82 244.94 244.94 0 01-31.12-.4c-2.6-.22-5.2-.52-7.82-1a39.42 39.42 0 01-4-.86 16.58 16.58 0 01-2.05-.7 7.11 7.11 0 01-2.27-1.38 3.43 3.43 0 01-.94-1.46 7.35 7.35 0 01-.36-1.31c-.1-.68-.24-1.39-.32-2-.15-1.31-.3-2.63-.4-3.92-.24-2.59-.41-5.17-.58-7.75-.64-10.3-1.06-20.59-1.46-30.88-1.51-41.16-2.45-82.32-3.28-123.48z"/><path class="cls-9" d="M250.22 489.58c-.33.1-.48.61-.36 1.24a34.89 34.89 0 005.63 12.78 29.36 29.36 0 0015.05 11.32 30.78 30.78 0 0018.78-.42 41.88 41.88 0 0012.29-6.5c.5-.37.74-.83.57-1.13s-.69-.37-1.28-.18a91.39 91.39 0 01-12.65 3.68 32.84 32.84 0 01-16.13-.51A30.64 30.64 0 01258.8 501a60.81 60.81 0 01-7.54-10.65c-.26-.58-.71-.87-1.04-.77zm80.06 209.22a91.31 91.31 0 00-23.22-2.58 64.12 64.12 0 00-6.91.54c-1.17.19-2.37.34-3.56.63l-.9.19a7.27 7.27 0 00-1.09.29 3.91 3.91 0 00-2.17 2.18 4.08 4.08 0 00-.28 1.54l.08 1 .18 1.85c.13 1.24.28 2.49.47 3.75a38.18 38.18 0 001.83 7.75 8.65 8.65 0 001.18 2.21 5 5 0 001 1c.46.22.9.36 1.25.5 5.12.64 9.67.89 14.27 1.06 2.27.06 4.5.09 6.7 0a23.06 23.06 0 006.73-1A5.71 5.71 0 00327 719a5.26 5.26 0 00.61-.74 16.37 16.37 0 00.85-1.4c.5-.91.95-1.82 1.34-2.73a44.3 44.3 0 002-5.36 27 27 0 001-5.27 9.7 9.7 0 000-1.32 3.8 3.8 0 00-.22-1.49 3 3 0 00-2.34-1.9l-.29 1.47a1.43 1.43 0 011 1 6.7 6.7 0 01-.11 2 26.32 26.32 0 01-1.32 4.77 46.06 46.06 0 01-2.15 5c-.42.83-.88 1.65-1.36 2.45-.25.4-.5.77-.76 1.12l-.19.23-.1.12c-.07-.06.66.59.33.31h-.07l-.13-.1c-.35-.26-.12-.06-.31-.06a23.26 23.26 0 01-5.68.55c-2.1 0-4.27-.07-6.5-.18-4.39-.25-9.22-.61-13.75-1.2 0 0 .09.08-.16-.21a5.62 5.62 0 01-.69-1.36 36.68 36.68 0 01-1.66-7c-.19-1.2-.35-2.41-.5-3.61l-.2-1.79-.08-.78a.85.85 0 010-.23.51.51 0 01.28-.31 4.59 4.59 0 01.63-.16l.84-.21c1.09-.29 2.22-.46 3.31-.68 2.22-.34 4.41-.61 6.56-.74a113.49 113.49 0 0122.8 1.09z"/><path class="cls-9" d="M297.41 718.39a7.3 7.3 0 01-.7 6 35.84 35.84 0 01-4.15 6c-1.6 2-3.31 4.07-4.86 6.43a20.15 20.15 0 00-3.38 8.24 16.79 16.79 0 00.08 4.75 10.07 10.07 0 00.66 2.44l.52 1.22c.24.38.52.75.79 1.12a9.65 9.65 0 002 1.91 15.61 15.61 0 002.31 1.23 21.82 21.82 0 004.72 1.27c6.26.92 12.37.86 18.63 1.48 12.4.83 25 5.47 39.22 7.42 7.06.88 14.65 1.24 22.13-.91a31.62 31.62 0 0018.86-13.73c5.55-8.94 5.49-20.83-.1-29.28a26.7 26.7 0 00-11-9.55 34.05 34.05 0 00-13.29-3.08 21.89 21.89 0 00-12.9 3 16.36 16.36 0 00-7.06 10.44 22.34 22.34 0 00.53 11.17 20.53 20.53 0 002.13 4.77 5.61 5.61 0 00.71 1.06l.21.26.11.11a2.18 2.18 0 00.42.37c.14.07 0 .12 0 .17l-.25.13a4.18 4.18 0 01-.58.22 25.13 25.13 0 01-3.8.62 31.91 31.91 0 01-7.62-.3c-4.79-.79-9-2.63-11.76-5.37a14.37 14.37 0 01-4.31-9.74 27.32 27.32 0 011.42-9.94l-2.12-.73a29.37 29.37 0 00-2 10.79 17.22 17.22 0 004.79 11.86c3.31 3.44 8.07 5.64 13.39 6.66a35.85 35.85 0 008.52.54 25.56 25.56 0 004.75-.74 18.3 18.3 0 006.36-3.14c-1-.89-1.92-1.71-3-2.75a3.23 3.23 0 01-.67-.74l-.48-.63a3.76 3.76 0 01-.51-.83 16.79 16.79 0 01-1.56-3.83 18.14 18.14 0 01-.22-9 11.69 11.69 0 015.22-7.45 17.07 17.07 0 0110.13-2.11A29.3 29.3 0 01381 719a21.64 21.64 0 018.8 7.78c4.43 6.75 4.49 16.43 0 23.73a26.51 26.51 0 01-15.8 11.42c-6.44 1.91-13.37 1.68-20.07.91-13.44-1.67-26.41-6.19-39.52-6.84-6.41-.49-12.73-.32-18.38-1-2.75-.39-5.43-1.06-6.68-2.76s-1.72-4.4-1.52-6.77a16.85 16.85 0 012.63-6.94c1.33-2.2 2.9-4.28 4.44-6.37a38.21 38.21 0 004.18-6.65c1.12-2.36 1.61-5.44.43-8z"/><path class="cls-10" d="M301.43 698.52l-2.33-.84s1.31-3.84-.05-10.34l2.43-.51c1.52 7.25.01 11.51-.05 11.69zm23.49.14l-2.21-1.13 1.1.57-1.1-.56s1.79-3.75-.08-10.11l2.37-.7c2.18 7.39 0 11.75-.08 11.93z"/><path class="cls-9" d="M83.57 473.74a92.43 92.43 0 0013.83-7.34 64.4 64.4 0 0015.6-13.55 3.35 3.35 0 000-4.14l-.66-.76c-.8-.91-1.71-1.89-2.7-2.93a48 48 0 00-7.17-6.31 10.75 10.75 0 00-2.44-1.24 4.71 4.71 0 00-1.54-.27 9.23 9.23 0 00-1.46.35c-4.46 2.56-8.22 5.08-12 7.7-1.84 1.31-3.63 2.62-5.32 4A23.79 23.79 0 0075 454a3.67 3.67 0 00-.48 1.13 2.77 2.77 0 00-.11 1 13.81 13.81 0 00.13 1.64 30.05 30.05 0 00.55 3 44.93 44.93 0 001.63 5.44 28 28 0 002.28 4.84 12 12 0 001.56 2.08 2.48 2.48 0 003 .61l-.64-1.35a.88.88 0 01-1.11-.4 10.52 10.52 0 01-1.17-1.88 28.58 28.58 0 01-1.77-4.6 50.64 50.64 0 01-1.23-5.23c-.15-.91-.29-1.84-.36-2.75a12.28 12.28 0 01-.05-1.33v-.39h-.46.52c.06 0 0 0 .14-.23a23.82 23.82 0 014.23-3.84c1.65-1.26 3.44-2.49 5.27-3.73 3.64-2.43 7.7-5 11.65-7.27a2 2 0 01.37.11 7.55 7.55 0 011.59.84 47.11 47.11 0 016.62 5.79l2.67 2.79.53.57a.08.08 0 010 .08 68.27 68.27 0 01-14.45 13.37 124.35 124.35 0 01-13 8.14z"/><path class="cls-9" d="M98.46 438.13a7.28 7.28 0 01-3-5.22 36.66 36.66 0 01-.28-7.27c.07-2.56.2-5.24 0-8.06a20.24 20.24 0 00-2.29-8.58 16.62 16.62 0 00-2.89-3.79 10.35 10.35 0 00-2-1.55l-1.17-.66c-.42-.16-.87-.28-1.31-.42a9.88 9.88 0 00-2.71-.35 15.39 15.39 0 00-2.59.42 20.66 20.66 0 00-4.54 1.85c-5.56 3-10.41 6.75-15.78 10-10.41 6.81-23.3 10.69-35.81 17.67-6.16 3.54-12.45 7.81-17.14 14a31.6 31.6 0 00-6.8 22.31c.94 10.48 8.13 19.94 17.67 23.33a26.64 26.64 0 0014.51 1 34.16 34.16 0 0012.47-5.53 21.79 21.79 0 008.48-10.18 16.39 16.39 0 00-.63-12.59A22.33 22.33 0 0045.5 456a20.46 20.46 0 00-4.56-2.53 5.81 5.81 0 00-1.21-.43l-.32-.07h-.16a2.5 2.5 0 00-.56 0c-.15 0-.11-.07-.07-.16s.08-.17.12-.26a5 5 0 01.34-.52 25.21 25.21 0 012.66-2.78 31.92 31.92 0 016.26-4.42c4.31-2.25 8.74-3.28 12.62-2.78a14.39 14.39 0 019.31 5.19 27.18 27.18 0 014.83 8.8l2.14-.7a29.12 29.12 0 00-4.9-9.83 17.22 17.22 0 00-11-6.61c-4.71-.75-9.84.35-14.71 2.73a35.51 35.51 0 00-7.13 4.7 26.29 26.29 0 00-3.36 3.44 18.48 18.48 0 00-3.19 6.34c1.31.13 2.57.21 4 .39a3.87 3.87 0 011 .19l.76.22a3.72 3.72 0 01.9.35 16.45 16.45 0 013.73 2.13 18.3 18.3 0 015.58 7 11.74 11.74 0 01.3 9.09A17.06 17.06 0 0142 483.3a29.23 29.23 0 01-10.66 4.61 21.63 21.63 0 01-11.72-.91C12 484.25 6.16 476.56 5.39 468a26.56 26.56 0 015.72-18.63c4-5.4 9.67-9.38 15.48-12.79 11.75-6.75 24.83-10.93 35.69-18.3 5.42-3.47 10.37-7.4 15.3-10.24 2.44-1.34 5-2.42 7-1.81 2 .44 4 2.48 5.28 4.49a17 17 0 012.08 7.13c.26 2.56.25 5.17.28 7.77a37.68 37.68 0 00.66 7.82c.53 2.56 2 5.31 4.44 6.62z"/><path class="cls-10" d="M114.18 465.79c-5.57-4.88-6.93-9.19-7-9.36l2.38-.74s1.25 3.86 6.25 8.24zM95.45 480c-6.19-4.59-7.08-9.38-7.11-9.59l2.44-.42-1.22.21 1.22-.22s.82 4.07 6.14 8zm433.79-336.09a11.69 11.69 0 00-2.08-5.38 10.35 10.35 0 00-4.75-3.51 13.42 13.42 0 00-3.45-.86v-.78a5.72 5.72 0 00-1.3-3.51 6 6 0 00-4.31-2 10.43 10.43 0 00-1.86 0h-.77a7.48 7.48 0 00-1.17-2.74 6 6 0 00-6.64-2l-1.18.53-.93.64a17.12 17.12 0 00-5.35 7.56 9.59 9.59 0 00-.62 5.3 5.07 5.07 0 001.49 2.7 5.16 5.16 0 002.45 1.15 5.19 5.19 0 000 .56v.23a5.82 5.82 0 00.18.78c-5.18 4.83-8.7 4.29-10.32 3.53a20.5 20.5 0 001.65-4.31 7.53 7.53 0 00.11-3.44 4.26 4.26 0 00-2.74-3 11 11 0 00-5.8 0l-.37.07a11.51 11.51 0 00-5.35 2.52 10.87 10.87 0 00-3.11 4.87 22.69 22.69 0 00-.49 9.69 62.16 62.16 0 003.85 13.87c.59 1.5 1.2 2.95 1.86 4.42l.75 1.63-8.21 15.07c-.75 1.36-.69 1.56-.63 1.76l.08.25 3.13 1.69a.64.64 0 00.31.09c.47 0 .82-.64 1.29-1.53l9.28-17.27-1.87-3.62c-.65-1.33-1.29-2.73-1.9-4.15a59.74 59.74 0 01-4-12.81 19.37 19.37 0 01.07-8 7.2 7.2 0 012-3.34 8.28 8.28 0 013.75-1.9 9.1 9.1 0 014.38-.34 1.22 1.22 0 01.89.85 4.78 4.78 0 010 2.1 21.81 21.81 0 01-1.87 5c-.42.84-.87 1.68-1.35 2.51l-1.86 3v.21c0 .83 2.31 2.89 2.33 2.9a14.12 14.12 0 004.9 2.85c1.61.41 2.39.57 2.59-.13s-.54-1-2.06-1.46a12.11 12.11 0 01-4.05-2.71 9.3 9.3 0 01-1-1.13l-.14-.22 1.34-2c.38-.59.72-1.19 1.07-1.79a8 8 0 003.58.82c2.42 0 5.62-1 9.4-4.48a5.71 5.71 0 002.29 1 7.33 7.33 0 00-.4 1.25 3.74 3.74 0 00-.06 1.56 3.91 3.91 0 00.58 1.76c1.29 2.16 3.73 2.72 5.47 2.94a13.55 13.55 0 005.78-.65 14.53 14.53 0 005-2.72 7.05 7.05 0 001.29-1.22l.22-.25c.34-.41.81-1 .32-1.39s-.91-.06-1.44.4c-.32.27-.77.66-1.38 1.12a13.12 13.12 0 01-9.52 2.6c-1.1-.17-3.05-.66-3.71-2-.51-1-.25-2.14.82-3.78 2.18-3.44 4.4-5.74 6.81-7a9.86 9.86 0 018.67-.28 7.22 7.22 0 014.54 6.32 18.15 18.15 0 01-1.53 8.56 37.15 37.15 0 01-10 13.63 32.44 32.44 0 01-12.9 7 27 27 0 01-6.26.84l-3-.08c-.74-.08-.95.34-1 .59l-8.69 18.85c-.89 1.92-.83 2.08-.74 2.31l.1.24 3.46 1.58.24-.09c.23-.08.39-.14 1.26-2.07l6.59-14.63 1-2.18h.88a31.55 31.55 0 007.35-1.1 36.44 36.44 0 0014.5-8.17 40.49 40.49 0 0010.78-15.38 22.13 22.13 0 001.48-10.3zM497.37 137a7.43 7.43 0 011.05-3.69 15.09 15.09 0 014.74-5.43l.51-.31.6-.19a1.17 1.17 0 01.58 0 1.27 1.27 0 01.95.57 3.53 3.53 0 01.33 1.89v.07a18.28 18.28 0 00-5.69 5.84 12.25 12.25 0 00-1.49 3.61 2.68 2.68 0 01-1.58-2.36zm13.75-1.19c-3.7 2.17-6.08 5.74-7.55 8.24-.07.11-.14.27-.21.4a4.33 4.33 0 01-1.78-1l-.39-.43a1.24 1.24 0 01-.11-.23 2.65 2.65 0 00-.12-.3 1.54 1.54 0 01-.14-.72v-.23a7.59 7.59 0 011.8-4.35 15.3 15.3 0 017.1-5.4 4.18 4.18 0 011.11-.26c.21 0 .42-.07.52-.1h.48a6.07 6.07 0 011.22 0 2.61 2.61 0 011.8.77 2.81 2.81 0 01.34 2 11.85 11.85 0 00-4.07 1.57zm-321.68 23.41a63.18 63.18 0 005.25-13.41 22.69 22.69 0 00.51-9.68 10.9 10.9 0 00-2.59-5.15 11.67 11.67 0 00-5.1-3.08l-.32-.09a11.09 11.09 0 00-5.78-.56 4.28 4.28 0 00-3 2.72 7.72 7.72 0 00-.24 3.45 20.07 20.07 0 001.21 4.45c-1.7.59-5.25.77-9.92-4.57a4.86 4.86 0 00.27-.75l.07-.27a4.8 4.8 0 00.05-.52 5.29 5.29 0 002.57-.91 5.09 5.09 0 001.73-2.51A9.61 9.61 0 00174 123a17.29 17.29 0 00-4.58-8.09l-.93-.78-1.07-.61a5.81 5.81 0 00-2.63-.48 5.74 5.74 0 00-4.15 1.88 7.46 7.46 0 00-1.43 2.61l-.29-.1-.45-.08a13.42 13.42 0 00-1.84-.22 6.06 6.06 0 00-4.51 1.5 5.66 5.66 0 00-1.62 3.37c-.05.29-.05.53-.07.77a13 13 0 00-3.5.5 10.22 10.22 0 00-5.09 3 11.73 11.73 0 00-2.63 5.15 22 22 0 00.45 10.46 40.34 40.34 0 009.14 16.39 36.47 36.47 0 0013.58 9.61 31.84 31.84 0 007.25 1.85l.84.07 5.79 17.49c.55 1.64.79 2.27 1.27 2.27a1.18 1.18 0 00.25 0l3.38-1.14.11-.23c.11-.22.18-.37-.5-2.38l-6.72-19.62a.79.79 0 00-.22-.46 1.22 1.22 0 00-.87-.26l-2.81-.2a27.19 27.19 0 01-6.18-1.49 32.59 32.59 0 01-12.12-8.28 37.12 37.12 0 01-8.57-14.58 18.07 18.07 0 01-.64-8.69 7.19 7.19 0 015.19-5.82 9.77 9.77 0 018.57 1.18c2.25 1.52 4.23 4 6 7.69.89 1.73 1 2.95.42 3.85-.79 1.23-2.77 1.52-3.88 1.58a13.34 13.34 0 01-9.21-3.56c-.57-.53-1-1-1.27-1.26-.46-.49-.87-.93-1.36-.55s-.14 1 .18 1.45l.17.24a6.9 6.9 0 001.11 1.31 14.72 14.72 0 004.76 3.25 13.88 13.88 0 005.69 1.25c1.74-.05 4.23-.35 5.74-2.39a3.6 3.6 0 00.71-1.55 4.33 4.33 0 00.13-1.79 6.53 6.53 0 00-.27-1.18 5.74 5.74 0 002.38-.74c3.84 4.3 7.25 5.46 9.77 5.46a8.2 8.2 0 002.77-.48c.28.63.56 1.26.88 1.89l1.13 2.08-.12.16a9.07 9.07 0 01-1.12 1.07 11.82 11.82 0 01-4.25 2.27c-1.6.34-2.37.53-2.24 1.25s.88.64 2.61.38a14.06 14.06 0 005.11-2.31s2.51-1.83 2.62-2.65v-.19l-1.47-3.12c-.39-.88-.76-1.76-1.09-2.64a21.85 21.85 0 01-1.34-5.2 4.82 4.82 0 01.19-2.09 1.2 1.2 0 011-.76 8.79 8.79 0 014.33.78 8.18 8.18 0 013.55 2.28 7.07 7.07 0 011.59 3.51 19.33 19.33 0 01-.75 8 59.42 59.42 0 01-5.29 12.34c-.73 1.33-1.48 2.62-2.3 3.93L181 164.5l7.47 18.13c.59 1.44.77 1.52 1 1.59l.24.1 3.52-1.45.1-.25c.09-.19.17-.37-.44-1.82l-6.65-15.8.9-1.54c.78-1.38 1.56-2.79 2.3-4.24zm-20.75-33a18.47 18.47 0 00-5.06-6.38 3.54 3.54 0 01.52-1.87 1.38 1.38 0 011-.47 1.67 1.67 0 01.56 0 2.11 2.11 0 00.47.2l.58.42A15.07 15.07 0 01171 124a7.37 7.37 0 01.66 3.8 2.66 2.66 0 01-1.81 2.18 12.69 12.69 0 00-1.16-3.76zm-3.95 7.91c-1.21-2.63-3.22-6.42-6.66-8.95a11.94 11.94 0 00-3.88-1.92 2.83 2.83 0 01.55-2 2.69 2.69 0 011.9-.57 6.26 6.26 0 011.18.08h.37c.2.07.41.12.61.17a4.79 4.79 0 011.13.4 15.3 15.3 0 016.46 6.07 7.7 7.7 0 011.36 4.47v.28a1.8 1.8 0 01-.24.74 1.83 1.83 0 00-.13.24l-.09.19-.46.41a4.32 4.32 0 01-1.88.79c-.11-.11-.16-.27-.22-.4z"/><path class="cls-9" d="M284.82 306.53c-.2-.1-.79.64-1.33 1.87a33.47 33.47 0 00-2.89 12.9 23.17 23.17 0 005.4 15.39c3.92 4.62 9.67 7.83 15.86 9.76a79.55 79.55 0 0019.81 3.32 104.92 104.92 0 0020-.68c6.37-1 12.52-2.65 17.57-5.84a22.32 22.32 0 0010.09-12.77 24.61 24.61 0 00-.07-13.26c-.36-1.3-.86-2.11-1.07-2s-.11 1 .1 2.25a24.78 24.78 0 01-.9 12.42 20.54 20.54 0 01-9.6 11c-4.67 2.72-10.48 4.15-16.57 5a112.43 112.43 0 01-19.36.48 83.22 83.22 0 01-19-3c-5.86-1.71-11.11-4.51-14.72-8.44a21.49 21.49 0 01-5.45-13.57 35.2 35.2 0 011.79-12.51c.34-1.33.52-2.21.34-2.32z"/><path class="cls-10" d="M374.45 317.19c-.7-1.56-1.44-2.51-1.64-2.4s.16 1.21.72 2.78a35.12 35.12 0 012.1 16 22.33 22.33 0 01-3 8.68 23.63 23.63 0 01-6.88 7.12c-5.73 4-13.15 6.18-21 7.39a137.82 137.82 0 01-24.9 1.28c-8.57-.33-17-1.31-24.35-4s-13.69-7.13-16.84-13.29-3.36-13.05-2.5-19a64 64 0 014.58-15.75c.67-1.54 1.06-2.63.86-2.75s-1 .81-1.75 2.32a58.7 58.7 0 00-5.69 15.87c-1.16 6-1.37 13.23 1.77 20.1-2 5.35-3.57 10.08-4.83 14.41-.34 1.16-.69 2.4-1 3.62-.15.61-.29 1.21-.42 1.82l-.36 2.06a6.2 6.2 0 000 1.36 2.64 2.64 0 010 .28 2.17 2.17 0 00.2 1 2 2 0 002 1.19h.37a6.54 6.54 0 002.49-.89c.66-.37 1-.62 1.54-.95a80.24 80.24 0 007.94-6.39l.52-.47c1.56-1.41 2.75-2.53 3.55-3.31a156.75 156.75 0 00-2.26 16c-.1 1.5-.18 2.85-.15 4.16a14.26 14.26 0 00.27 2.49l.07.34a2.51 2.51 0 00.95 1.28 2.29 2.29 0 001.17.32 1.64 1.64 0 00.38 0 6.07 6.07 0 002.67-1.26 18.93 18.93 0 001.55-1.28c.86-.77 1.72-1.62 2.63-2.6 4-4.4 7.06-8.22 9.11-10.93.1 1 .22 2.24.38 3.69.25 2.19.55 4.8 1.05 7.93.28 1.71.57 3.4 1 5.24.24 1.11.49 2.06.76 3a13.23 13.23 0 00.4 1.27l.12.33a12.37 12.37 0 00.86 2l.07.13a1 1 0 01.11.15 2.46 2.46 0 00.48.55 2.7 2.7 0 001.32.79 2.12 2.12 0 00.44 0 4.33 4.33 0 003.08-1.8 31.86 31.86 0 003.75-6.61c1.83-4 3.81-9.2 5.78-15.09.33 1 .74 2.31 1.28 3.92s1.38 4.05 2.46 6.85c.5 1.27 1.1 2.8 1.85 4.47l.06.12c.35.77.72 1.57 1.15 2.38.22.45.47.9.74 1.34l.47.79.8 1.07.16.15a3.16 3.16 0 001.52.91 2.07 2.07 0 00.5.06 3 3 0 002.46-1.75 11.07 11.07 0 001.11-2.86l.15-.52c.28-1.07.53-2.27.76-3.56a150.47 150.47 0 001.69-15.2c1.77 2.69 4.72 7.08 8.68 12.26.82 1.07 1.53 1.94 2.23 2.75l1.48 1.58a5.79 5.79 0 002.17 1.52 1.32 1.32 0 00.53.1 1.76 1.76 0 001.06-.36 2.59 2.59 0 00.87-1.11 8.39 8.39 0 00.67-2.8c.12-1.47.11-2.9.09-4.1a150.67 150.67 0 00-1.53-16.38 41.07 41.07 0 0010.07-5.28 25.76 25.76 0 007.36-8.18 24 24 0 002.89-9.71 34.64 34.64 0 00-3.2-16.64zm-92.56 38.66l-.6.55a82.86 82.86 0 01-7.27 6.29c-.37.28-.87.61-1.15.79a3.05 3.05 0 01-.5.28 2.74 2.74 0 010-.41l.18-1.44c.08-.56.18-1.14.3-1.73.21-1.17.47-2.37.74-3.58 1-4.36 2.14-8.86 3.29-13.19a28.06 28.06 0 008.42 9.1zm10.87 16.55c-.84 1-1.61 1.79-2.35 2.52-.49.48-.89.85-1.26 1.15a2.53 2.53 0 01-.67.45v-.27a5.89 5.89 0 01-.1-.95c-.1-1.29-.09-2.65-.08-4 .1-4.93.54-10.15 1.15-16.33a40.58 40.58 0 004.95 2.21 59.55 59.55 0 008.31 2.39c-1.88 2.61-5.27 7.32-9.95 12.83zm23 6.77a28.89 28.89 0 01-3.68 5.75c-.21.21-.33.28-.35.31s0 0 0-.08l-.07-.19a8.23 8.23 0 01-.37-1l-.13-.38c-.11-.33-.22-.66-.31-1-.23-.83-.44-1.73-.65-2.77-.37-1.78-.63-3.47-.86-5-.44-3.06-.7-5.61-.91-7.77-.29-3.09-.44-5.12-.53-6.47a116 116 0 0011.88 1h3.11a.54.54 0 000 .15 6.11 6.11 0 00.15.63l.07.21c0 .06 0 .15.06.21-2.86 6.97-5.29 12.36-7.42 16.4zm21-1.09c-.3 1.23-.61 2.34-.93 3.3a11.85 11.85 0 01-.83 2l-.1.13v-.08l-.51-.85c-.22-.38-.42-.76-.62-1.17-.36-.73-.68-1.46-1-2.16l-.08-.19c-.66-1.53-1.21-3-1.71-4.33-.94-2.58-1.64-4.75-2.28-6.74-1-3.23-1.6-5.19-1.92-6.32v-.07c4.3-.06 8.53-.29 12.66-.75l.12.19.25.39c-1.05 7.15-2.03 12.57-3.02 16.65zm19.48-4.84c0 1.08-.12 2.49-.3 3.79a4.25 4.25 0 01-.22.93 42.7 42.7 0 01-3.34-4.26c-4.05-5.76-7.06-10.55-8.68-13.12l-.17-.27c.58-.08 1.17-.14 1.75-.24a70.22 70.22 0 0010.72-2.63c.21 4.97.43 10.56.27 15.8z"/><path class="cls-9" d="M310.45 396.76c-.19 0-.4.41-.54 1a247.29 247.29 0 01-9.56 31.41c-4.75 12.53-9.91 23.29-13.25 30.09-.28.6-.36 1.07-.2 1.16s.52-.21.89-.76A138.44 138.44 0 00303 430.2c4.83-12.73 7.24-24.67 7.72-32.29.02-.66-.09-1.13-.27-1.15zm-22.63-4.5c-.67-4.84 11.32-7.48 10.63.51a4.49 4.49 0 01-1.91 3.79 7 7 0 01-4.15 1.08 5 5 0 01-3.24-2 7 7 0 01-1.33-3.39h-1.2a7.74 7.74 0 001 4.4A6.76 6.76 0 00292 400a7.54 7.54 0 003.07 0 8.71 8.71 0 003-1.11 7.07 7.07 0 003.25-5.94 7.76 7.76 0 00-2.46-6.25 6.2 6.2 0 00-3.06-1.47 7.06 7.06 0 00-3.06.21 9.13 9.13 0 00-4.7 2.47 5.69 5.69 0 00-1.35 4.41zm-6.65 26.28c-.66-4.83 11.32-7.48 10.63.52a4.44 4.44 0 01-1.91 3.78 6.89 6.89 0 01-4.14 1.08 4.92 4.92 0 01-3.24-2 7 7 0 01-1.34-3.39H280a7.7 7.7 0 001 4.41 6.77 6.77 0 004.38 3.31 7.54 7.54 0 003.07 0 8.82 8.82 0 003-1.12 7.05 7.05 0 003.26-5.93 7.77 7.77 0 00-2.46-6.26 6.23 6.23 0 00-3.07-1.47 7.4 7.4 0 00-3.06.21 9.22 9.22 0 00-4.7 2.48 5.66 5.66 0 00-1.34 4.4zm-10.69 29.59c-.67-4.84 11.32-7.49 10.62.51a4.47 4.47 0 01-1.9 3.79 7 7 0 01-4.15 1.08 5 5 0 01-3.24-2 6.93 6.93 0 01-1.33-3.38h-1.2a7.66 7.66 0 001 4.4 6.76 6.76 0 004.38 3.32 7.72 7.72 0 003.07 0 8.92 8.92 0 003-1.11 7.07 7.07 0 003.25-5.94 7.76 7.76 0 00-2.46-6.25 6.2 6.2 0 00-3.06-1.47 7.22 7.22 0 00-3.06.2 9.22 9.22 0 00-4.7 2.48 5.69 5.69 0 00-1.35 4.41zm52.11-49.58c-.67-4.84 11.32-7.49 10.63.51a4.44 4.44 0 01-1.91 3.78 6.82 6.82 0 01-4.14 1.08 4.88 4.88 0 01-3.24-2 7 7 0 01-1.34-3.38h-1.19a7.61 7.61 0 001 4.4 6.77 6.77 0 004.38 3.31 7.5 7.5 0 003.06 0 8.66 8.66 0 003-1.12 7 7 0 003.26-5.93 7.8 7.8 0 00-2.46-6.26 6.36 6.36 0 00-3.07-1.47 7.4 7.4 0 00-3.06.21 9.22 9.22 0 00-4.7 2.48 5.67 5.67 0 00-1.34 4.41zm-10.76 29.7c-.67-4.84 11.32-7.48 10.63.52a4.48 4.48 0 01-1.91 3.78 7 7 0 01-4.15 1.08 5 5 0 01-3.24-2 7 7 0 01-1.33-3.39h-1.2a7.74 7.74 0 001 4.4A6.76 6.76 0 00316 436a7.54 7.54 0 003.07 0 9 9 0 003-1.12 7.08 7.08 0 003.26-5.94 7.8 7.8 0 00-2.47-6.25 6.2 6.2 0 00-3.06-1.47 7.38 7.38 0 00-3.06.21 9.07 9.07 0 00-4.7 2.48 5.67 5.67 0 00-1.35 4.4zm-11.74 27.96c-.67-4.84 11.32-7.49 10.63.51a4.45 4.45 0 01-1.91 3.79 7 7 0 01-4.14 1.08 4.93 4.93 0 01-3.24-2 7 7 0 01-1.34-3.38h-1.19a7.66 7.66 0 001 4.4 6.76 6.76 0 004.38 3.32 7.72 7.72 0 003.07 0 8.8 8.8 0 003-1.11 7.06 7.06 0 003.26-5.94 7.79 7.79 0 00-2.46-6.25 6.23 6.23 0 00-3.07-1.47 7.25 7.25 0 00-3.06.2 9.3 9.3 0 00-4.7 2.48 5.68 5.68 0 00-1.34 4.41z"/></g></g></g></svg>