<svg id="Layer_1" data-name="Layer 1" xmlns="http://www.w3.org/2000/svg" viewBox="0 0 1200 1200"><defs><style>.cls-2{fill:#f6f6f7}.cls-3{fill:#eb80a3}.cls-4{fill:#f4bbc8}.cls-5{fill:#f9cbd9}.cls-6{fill:#fbe6ed}.cls-7{fill:#6c6968}.cls-8{fill:#eca5b7}.cls-12,.cls-9{fill:#5c2a33}.cls-10,.cls-11{fill:#2d2d2b}.cls-10,.cls-12{fill-rule:evenodd}</style></defs><path d="M814.81 800.23C730.9 857.41 621.68 869.52 505 849.86c-116.51-19.49-240.49-70.58-276.71-150.94-36.21-80.18 15.15-189.63 70.16-269.46 55.19-79.82 113.85-130 185.19-146.43 71.51-16.41 155.54 1.14 246.42 49.24C820.75 380.38 918.3 459 937.7 549.66c19.42 90.8-38.99 193.22-122.89 250.57z" fill="#eae7f4"/><g id="veprik"><path class="cls-2" d="M714.46 360.45c1.47 2 3 3.91 4.63 5.87a41 41 0 01-7.39 14.57 39.74 39.74 0 01-44.34 12.81A38.83 38.83 0 01654 328a40.05 40.05 0 0121-9.7 41 41 0 0117.76 1.27 135.9 135.9 0 0021.7 40.88zm-14.53-2.71a16.93 16.93 0 00-.2-2 11.75 11.75 0 01-7.74 2.92 12 12 0 01-8.3-20.72 18.12 18.12 0 00-3.64-.4 20.18 20.18 0 1019.88 20.2zm-195.2-7.27a38.48 38.48 0 01-4.23 24.95 39.68 39.68 0 01-42.22 19.95 40.77 40.77 0 01-28.62-21.67c2.36-3.11 4.63-6.22 6.83-9.38 2.83-4.27 5.66-8.42 8.14-12.73a112.18 112.18 0 0013.85-33.48 43.07 43.07 0 0116.52.68 40.43 40.43 0 0119 10.61 38.8 38.8 0 016.9 9.5 35.91 35.91 0 013.83 11.57zm-17.36 7.27a16.93 16.93 0 00-.2-2 11.81 11.81 0 01-7.74 2.92 12 12 0 01-8.3-20.72 18.43 18.43 0 00-3.63-.4 20.18 20.18 0 1019.87 20.2z"/><path class="cls-3" d="M669.28 439.67c5.23 9.46 8.06 20.83 5.27 31.29a32.56 32.56 0 01-7.91 14.09 27.76 27.76 0 01-14 8c-11.06 2.6-23.59.08-35.92-3-6.27-1.72-12.57-3.39-19-5.15a122.56 122.56 0 00-20.31-3.95c-14.77-.88-28 4.15-40.19 8.1a126.13 126.13 0 01-18 4.87 47.68 47.68 0 01-17.36-.24l-4.15-1.08c-1.36-.44-2.64-1.12-3.95-1.63-2.72-.92-5.07-2.72-7.55-4.11-2.43-1.56-4.62-3.56-6.9-5.27-1.08-.92-2-1.88-2.95-2.8-.76-1.07-1.72-2-2.36-3.15a27.25 27.25 0 01-4.31-14.89 41.7 41.7 0 013.31-15.57c4.08-10 10.94-18.64 18.56-25.74a109.83 109.83 0 0125.07-17.36c17.64-9 36.07-12.89 52.72-13.89a125.88 125.88 0 0153.35 11 113.2 113.2 0 0125.95 16.09 84.94 84.94 0 0120.63 24.39zm-38 34.36c16.12 1.92 31.2-11.53 21.39-27.85-9.38-15.53-39.43-17.12-48.41-17.24a2.09 2.09 0 00-2.12 2.51c1.86 9.14 9.75 40.27 29.11 42.55zm-87.81-42.58a2.07 2.07 0 00-2.07-2.51c-9 .12-39.07 1.71-48.45 17.24-9.85 16.32 5.24 29.82 21.36 27.82 19.36-2.28 27.22-33.41 29.13-42.55z"/><path class="cls-4" d="M813.75 271.21c5.59 17.05 7 36.84 5.15 57.12s-6.51 41.54-15.69 61.1c-1.19 2.39-2.35 4.83-3.71 7.06a76.67 76.67 0 01-4.15 6.63c-1.39 2.23-3.15 4-4.67 6l-.68.64-.23.28-.32-.16-1.72-1-3.51-1.88a256.95 256.95 0 01-6.75-4.07c-4.43-2.8-8.78-5.67-12.93-8.66-1.35-1-2.71-1.92-4-3a213 213 0 01-38.91-36.4 133.79 133.79 0 01-24.54-44.21 107.92 107.92 0 01-4.42-41.66c.43-4.27.28-7.3-.44-7.46s-1.84 2.71-2.76 7.06a80.84 80.84 0 00-1.35 10.22 189.92 189.92 0 00-39.79-22.71 186.14 186.14 0 0116.56-15.29 121.72 121.72 0 0115.36-10.61 64.37 64.37 0 0120.52-7.9 36.79 36.79 0 0111.89-.52 33.69 33.69 0 0112 3.51c4 1.79 7.39 4.67 10.78 7.66.48.48 1 1 1.44 1.48 1.11 1.16 2.31 2.39 3.31 3.67.52.68 1.08 1.36 1.63 2.08a42.77 42.77 0 012.72 3.71c11.81 17.52 18.32 39.83 22.67 57.31.83 3.35 1.19 4.39 2 4.39a.88.88 0 00.32 0c1.08-.24 1-1.16.28-5-3.55-17.8-9.14-40.71-20.95-59.51a47.25 47.25 0 00-2.84-4.23 48.45 48.45 0 01-1.59-2.11c-1.16-1.52-2.44-3-3.67-4.31l-.72-.84a30.15 30.15 0 003-.32 74.18 74.18 0 019.62-.84 66.88 66.88 0 0110.18.16 29.08 29.08 0 015.22.64c1.76.32 3.56.56 5.31 1 3.47 1.12 7.07 2 10.42 3.79A51.55 51.55 0 01802 248.47a73.31 73.31 0 0111.75 22.74z"/><path class="cls-5" d="M741.79 240.17c-.55-.72-1.11-1.4-1.63-2.08-1-1.28-2.2-2.51-3.31-3.67-.48-.52-1-1-1.44-1.48-3.39-3-6.83-5.87-10.78-7.66a33.69 33.69 0 00-12-3.51 36.79 36.79 0 00-11.89.52c-1.65.3-3.29.7-4.93 1.16 31.73-.38 54.53 39 68.39 66.64-4.27-15.21-10.29-32.22-19.72-46.21a42.77 42.77 0 00-2.69-3.71zm72.88 34.18c-.31-1-.58-2.11-.92-3.14A73.31 73.31 0 00802 248.47 51.55 51.55 0 00783.82 234c-3.35-1.8-7-2.67-10.42-3.79-1.75-.4-3.55-.64-5.31-1a29.08 29.08 0 00-5.22-.64 66.88 66.88 0 00-10.18-.16 74.18 74.18 0 00-9.62.84 30.15 30.15 0 01-3 .32l.72.84c1 1.13 2.07 2.35 3.07 3.6 29.89-4.81 56.65 14.86 70.81 40.34z"/><path class="cls-4" d="M755.88 401.12a133 133 0 01-.68 19c-.16 2.39-.36 4.83-.55 7.26s-.88 4.87-1.32 7.34c-1 4.95-1.68 10-3.43 14.93a160.38 160.38 0 01-31.09 58.47c-1.48 1.75-3 3.47-4.51 5.18a182.3 182.3 0 01-53.3 40.43c-22.95 11.86-49.41 18.64-76.83 20.24a203.41 203.41 0 01-78.74-11 183.56 183.56 0 01-63.22-38A167.85 167.85 0 01403 471.52a160.29 160.29 0 01-13.92-54c1.63-1.47 3.23-2.95 4.82-4.43a318.9 318.9 0 0032.85-35.68 43.41 43.41 0 008.1 12.3 44.54 44.54 0 0021.87 12.65 45.42 45.42 0 0028.34-2.32A46.18 46.18 0 00508 379.45a45.64 45.64 0 004.75-30.45 41.72 41.72 0 00-5.1-13.85 43.55 43.55 0 00-8.78-11 44.72 44.72 0 00-22.79-11 44 44 0 00-16.6.6c.12-.52.2-1 .31-1.56A260.73 260.73 0 00464 274a188.82 188.82 0 0136.43-17.88 201.35 201.35 0 01144.27 2.79 185.67 185.67 0 0143.19 24.67 108.52 108.52 0 002.91 28.81c.2.8.4 1.64.64 2.48a42.22 42.22 0 00-16.92-2.2 44.56 44.56 0 00-40.75 35.84A46.22 46.22 0 00695 400.84a44.2 44.2 0 0021.23-16.64 43.28 43.28 0 006.23-13.89 215.88 215.88 0 0033.42 30.81zm-24.7 58.75a.62.62 0 00.4-.68 9.54 9.54 0 00-3.35-5.75 16 16 0 00-7.87-3.63 23.49 23.49 0 00-14.32 2 .67.67 0 00-.32.72.68.68 0 00.55.56c3 .4 7.31.24 11.82.92a20.69 20.69 0 00-1.12 5.59A64.65 64.65 0 01703.8 491c-7.82 10-19.2 18.63-32.73 25.26-27.09 13.21-61.89 19.23-98.29 18.68s-70.92-7.87-98-21.32c-13.45-6.74-24.94-15.2-33-25.06a60.18 60.18 0 01-13.65-31.05c-.16-1.36-.32-2.59-.52-3.55 4.31-.6 8.42-.44 11.25-.84a.68.68 0 00.56-.56.67.67 0 00-.32-.72 23.51 23.51 0 00-14.33-2 16 16 0 00-7.86 3.63 9.54 9.54 0 00-3.35 5.75.62.62 0 00.4.68.74.74 0 00.76-.2 18.76 18.76 0 0110.89-5.43h.24a30.58 30.58 0 00-.12 3.51c.28 10.54 4 22.83 12.13 33.84s19.88 20.6 33.77 28.14c27.89 15 63.45 23 101 23.75 37.51.52 73.47-6.23 101.57-21.12 14-7.42 25.82-17.2 33.56-28.41a64.69 64.69 0 0011.62-34.08 18.27 18.27 0 00-.52-5.71l.67.12a18.82 18.82 0 0110.9 5.43.74.74 0 00.75.13zm-49.17 13c3.27-13.17-.52-26.34-6.43-36.68a91.1 91.1 0 00-22.86-26A116.59 116.59 0 00624.94 394a127.32 127.32 0 00-55.71-9.42c-17.09.32-36.32 3.55-55.08 12.45a113.46 113.46 0 00-26.94 17.64c-8.34 7.42-16 16.52-20.83 27.78a48.84 48.84 0 00-4.15 18.27 34.59 34.59 0 005.27 19.08 42.21 42.21 0 003 4.15c1.16 1.2 2.36 2.48 3.59 3.55 2.52 2 4.91 4.15 7.62 6 2.88 1.64 5.51 3.67 8.71 4.83a49.41 49.41 0 004.66 1.95l5 1.36a54.91 54.91 0 0020.44.48 134.72 134.72 0 0019.37-5.12c12.37-4 24.67-8.42 36.92-7.62 12.41 1.2 25.1 5.67 37.83 8.78s26.22 6 40 2.75a35.28 35.28 0 0017.84-10.45 39.58 39.58 0 009.52-17.58z"/><path class="cls-4" d="M488.93 238.93a73.13 73.13 0 018.66 14 191.46 191.46 0 00-33.41 16.28c0-1 .08-2.08.12-3.07.2-4.67-.16-7.95-.91-8s-1.64 3.08-2.28 7.67c-1.75 13.37-3.55 28.77-7.7 45a109.64 109.64 0 01-16.08 36.32c-2.48 4-5.39 7.9-8.23 11.94a329 329 0 01-42.46 46.17c-4.11 3.67-8.26 7.38-12.61 10.94l-3.27 2.67-1.64 1.28c-.16.08-.08.08-.12 0l-.32-.36a96.78 96.78 0 01-17.28-28.58c-8.62-21.43-11.65-44.42-11.45-66.13.44-21.75 4.35-42.54 12-60.3 7.66-17.56 19.64-32.09 34.52-38.59a59.11 59.11 0 0122.53-4.64c1.88 0 3.67.2 5.51.32a33.3 33.3 0 015.31.56l5.1 1 2.52.48 2.39.72c1.32.4 2.52.72 3.59 1a108.67 108.67 0 00-10.69 6.9c-11.34 8.3-22.79 19.44-35.08 34.13-1.68 2-2.48 3-1.6 3.79a1 1 0 00.68.28c.72 0 1.56-.84 2.95-2.28 13.13-13.89 24.91-24.22 36-31.69 9.82-6.58 24.35-14.12 38-12.65a32.21 32.21 0 0115.16 5.51 45.47 45.47 0 0110.09 9.33z"/><path class="cls-6" d="M486.16 235.76a41.81 41.81 0 00-7.25-6.25 32.21 32.21 0 00-15.16-5.51c-8.79-.95-17.9 1.83-25.91 5.68 16.16-3.04 34.21-4.9 48.32 6.08zm-56.34-11.2l-2.39-.72-2.52-.48-5.1-1a33.3 33.3 0 00-5.31-.56c-1.84-.12-3.63-.36-5.51-.32a59.11 59.11 0 00-22.51 4.67 50.51 50.51 0 00-9.56 5.6c16.46-5.43 34.78-7.71 51-3q2.76-1.8 5.45-3.31a22 22 0 01-3.55-.88z"/><path class="cls-7" d="M844.72 925.57c5.95.84 26.42 3.71 35.88 5.11-10.78 21.75-62.74 54.11-101.85 57.47-19.12 1.63-32.65-3.52-40.19-15.29-7-11-7.9-22.19-2.55-33.36a47.45 47.45 0 016.22-9.82c18-22.63 68-45.42 102.17-45.42 1.6 0 3.19 0 4.71.16a47.69 47.69 0 0111.14 1.92c-5 8.22-16 26.38-19.12 31.57a5.06 5.06 0 003.59 7.66zm-210.24-15.49c-1.12 3.16-2.48 6.43-4 9.82-2.44 5.59-5.31 11.5-8.58 17.68s-6.87 12.69-11.06 19.28c-2.07 3.27-4.31 6.62-6.74 9.78a48.5 48.5 0 01-3.83 4.35 10.61 10.61 0 01-1.24 1h-.08s.08 0-.16-.2a6.15 6.15 0 01-.92-1.19 21.54 21.54 0 01-1.72-4.23c-.51-1.76-1-3.84-1.75-6.27a14.68 14.68 0 00-.76-1.92l-.6-1.31c-.28-.48-.68-.92-1-1.36a8.59 8.59 0 00-2.31-2.27 9.27 9.27 0 00-3-1c-2.48-.44-4.67.84-6.55 2.67-1.08 1.16-1.28 1.4-1.79 2l-1.28 1.63c-1.68 2.12-3.19 4.19-4.75 6-.8.92-1.56 1.76-2.32 2.51-.39.32-.79.76-1.11 1l-.68.48h-.08c-.24-.16-.44-.72-.68-1-1.8-3.43-2.79-8.34-3.51-12.85s-1.24-9.18-1.6-13.69c-1-13-1.28-25.22-1.44-36.07a38.28 38.28 0 0017.88 11.21 64 64 0 0018.92 2.63h.2a86.33 86.33 0 0029.45-5.34 46.2 46.2 0 007.09-3.34z"/><path class="cls-4" d="M841.37 784.21a235.56 235.56 0 013.31 59.19c-1.28 17.44-3.55 28.61-4.51 32.64l-.12.6c-34.16 1.68-82 20.43-104 48.05-.52.64-1 1.28-1.48 1.92a226 226 0 012-47.86A170 170 0 01750 832.66 131.47 131.47 0 01782 789c2.36-2.24 3.08-3 2.32-3.87s-1.6-.24-4.07 1.83a129.42 129.42 0 00-35 43.42 167.41 167.41 0 00-15.41 47.26 228.23 228.23 0 00-3 28.05c-22.71 22-58.27 45.86-100 36.92.31-.72.67-1.44 1-2.16 3-6.5 5.51-12.73 7.59-18.67a86.32 86.32 0 004.11-15.65 8.42 8.42 0 002.31-5.27c3.11-16.08 10.38-30.61 17-42.7 6.39-11.57 13.65-22.19 20.68-32.4l2.87-4.2q5-7.05 9.78-13.8c12.57-17.68 24.42-34.37 34.4-50.77 10.61-17.28 18.6-33.24 24.22-48.49 5.43 9.82 13.41 19 17.32 23.19-.51.44-1 .88-1.47 1.36l-4.31 3.83c-9.5 9.18-18.24 20.39-28.34 36.35-3 4.71-3.55 5.91-2.15 6.83s2.27 0 5.5-4.55c10.7-15.21 19.72-25.74 29.14-34.08l4.27-3.56a31.69 31.69 0 014.23-3.19l4.35-3 4.71-2.44c6.86-3.23 13.25-4.47 19-3.67a28.4 28.4 0 0116.16 8.42 63.37 63.37 0 0110.93 15.41c4.96 10.03 8.59 21.4 11.23 34.81z"/><path class="cls-6" d="M840.48 780.25a131.34 131.34 0 00-10.33-30.76 63.37 63.37 0 00-10.93-15.41 28.4 28.4 0 00-16.16-8.42c-5.71-.8-12.1.44-19 3.67l-1.05.55c25.73-1.17 46.07 25.18 57.47 50.37z"/><path class="cls-8" d="M744.83 845.41a178.53 178.53 0 00-8.34 33.34 226 226 0 00-2 47.86c.48-.64 1-1.28 1.48-1.92 22-27.62 69.88-46.37 104-48.05l.12-.6c1-4 3.23-15.2 4.51-32.64.27-4.3.41-8.51.48-12.68-18.01 33.09-63.29 37.98-100.25 14.69z"/><path class="cls-4" d="M550.05 804.38a213.14 213.14 0 00-7.24-12.71c-2.68-4.27-5.23-8.06-7.87-11.57l-.4-.52c-2.87-3.87-5.86-7.9-8.77-12.17-10.06-14.89-24.15-37.88-30.77-65.41-3.28-14.15-3.53-27-.8-38.32-26.08 45.69 14.54 109.49 55.85 140.7z"/><path class="cls-4" d="M751.65 641.65c-.88-27.17-5.9-52.08-15-74.07-6-13.81-13.13-25.3-21.2-34a48.18 48.18 0 00-3.39-3.67A190.64 190.64 0 01666 563.43c-24.15 12.77-52.16 20.16-81.1 21.83a208 208 0 01-83.13-12.13A187.36 187.36 0 01435.69 532c-2-1.87-3.91-3.83-5.75-5.78-.8.95-2.11 2.35-4.19 4.43-.92 1-1.87 2.11-2.95 3.43-.64.84-1.36 1.67-2.12 2.59-1.43 1.76-2.91 4-4.51 6.27l-1.67 2.47A146.65 146.65 0 00401.65 572c-9.3 25.34-13.57 56.47-12 87.68l.4 6.75.92 6.62c.24 1.32.4 2.68.6 4.07a54.54 54.54 0 001.76 9.46c.43 1.72.87 3.39 1.27 5.07.56 2.31 1.12 4.63 1.8 6.94.2.64.4 1.32.64 2l5 14.13c6.82 16.68 16.56 34.64 30.65 56.43 6.34 9.86 13 19.55 20 29.81 6.47 9.46 13.17 19.24 19.72 29.26 2.27 3.51 4.47 7.06 6.66 10.65l3.23 5.27c1.08 2 2.2 3.95 3.28 5.87 2 3.55 4.07 7.18 5.86 11l4.11 8.74c.92 2 1.64 4 2.36 6 .4 1.07.76 2.11 1.16 3.19a76.62 76.62 0 014 13.81c.4 1.79.79 3.55 1.27 5.31l.12.48-.12.71a5.45 5.45 0 002 2.6 33.6 33.6 0 009.78 5.35 79.18 79.18 0 0032.28 4.51c3.36-.28 5.83-.68 7.31-.88.24-5.11.64-9.94 1-14.49a18.19 18.19 0 01-1.15-6.82 77.14 77.14 0 011.31-9.1c.2-1 .4-2 .56-3 1.56-8.06 3.47-16.28 5.71-24.38 1.08-3.91 2.19-7.7 3.39-11.42-.32-.71-.6-1.63-1-2.87A269 269 0 00554.38 813c-1.41-3-2.86-5.81-4.33-8.6-41.31-31.21-81.93-95-55.85-140.7.2-.81.37-1.64.6-2.43a54.88 54.88 0 019.61-19 58.37 58.37 0 0116.13-14c4.19-2.31 5.62-3 6.5-1.51s-.36 2.43-4.43 5a55.31 55.31 0 00-14.17 13.57 50 50 0 00-8 17.4c-2.71 11-2.27 23.34 1.4 37.59 6.86 26.06 20.71 48.17 30.49 62.58 2.83 4.07 5.71 7.9 8.5 11.65l.56.72c2.75 3.67 5.43 7.62 8.26 12.17a207.64 207.64 0 0111.93 22.15c4.19 9.06 7.07 16.52 9 22a241.16 241.16 0 0112.1-28.09 183.61 183.61 0 0115.44-25.5l3-4.07c4.83-6.58 9.82-13.37 14.29-20.55 12.69-20.35 20.79-38.83 24.82-56.51a91 91 0 002-15.41 61.66 61.66 0 00-1-15.48 50.16 50.16 0 00-14.44-26.82 76.54 76.54 0 00-10.86-8.54c-1.4-1-3.19-2.12-2-3.91l.44-.64.72-.2c.6-.16 1.2-.36 5.19 1.87a54.69 54.69 0 0110.22 7.51 55.43 55.43 0 0116.6 29.53 66.14 66.14 0 011.4 16.92 99.88 99.88 0 01-1.92 16.49c-4 18.83-12 37.55-25.14 58.9-4.63 7.54-9.82 14.69-14.85 21.59l-2.59 3.57a183.6 183.6 0 00-14.73 24.55 253.46 253.46 0 00-14.94 36.2q-2.21 6.71-4.23 13.88c-2.19 7.91-4.11 15.93-5.66 23.79l-.52 2.55a82.84 82.84 0 00-1.36 8.51v1.19a12.2 12.2 0 002.83 6.71c3.6 4.67 8.74 8.22 15.45 10.57a58.62 58.62 0 0017.2 3 76 76 0 0027.66-4.27 34.66 34.66 0 008.5-4.39 8.79 8.79 0 01.8-.54c1.51-1.36 2.07-2.64 2-3.16v-.63c3-16.81 10.38-32 17.12-44.58 6.31-11.78 13.41-22.47 20.28-32.81l3-4.63q4.24-6.23 8.38-12.21c12.65-18.48 24.59-35.88 34.4-52.76 11.66-19.87 20-38.55 25-55.63.36-1.16.63-2.28 1-3.4l2.16-8.74a29 29 0 001-4.94l1.79-13.65a239.15 239.15 0 00.52-25.21z"/><path class="cls-6" d="M550.05 804.38a213.14 213.14 0 00-7.24-12.71c-2.68-4.27-5.23-8.06-7.87-11.57l-.4-.52c-2.87-3.87-5.86-7.9-8.77-12.17-10.06-14.89-24.15-37.88-30.77-65.41-3.28-14.15-3.53-27-.8-38.32-26.08 45.69 14.54 109.49 55.85 140.7zM435.69 532c-2-1.87-3.91-3.83-5.75-5.78-.8.95-2.11 2.35-4.19 4.43-.92 1-1.87 2.11-2.95 3.43-.64.84-1.36 1.67-2.12 2.59-1.43 1.76-2.91 4-4.51 6.27l-1.67 2.47A146.65 146.65 0 00401.65 572c-7 19.08-11.15 41.45-12.11 64.66 14.33-55.24 30.58-87.28 50.38-100.82-1.42-1.28-2.86-2.54-4.23-3.84zm315.96 109.65c-.88-27.17-5.9-52.08-15-74.07-6-13.81-13.13-25.3-21.2-34a48.18 48.18 0 00-3.39-3.67c-3.89 3.85-8.05 7.51-12.34 11.07 35.14 36.69 49.83 90 49.21 142a19.64 19.64 0 00.37-2.45l1.79-13.65a239.15 239.15 0 00.56-25.23z"/><path class="cls-7" d="M556.34 955.3a8.16 8.16 0 00-2-1.16 5.57 5.57 0 00-4.87.24c-1.52.8-2.51 2.44-3.35 4.23-.64 1.64-.88 2.48-1.28 3.72s-.72 2.15-1.08 3a6.5 6.5 0 01-.55 1.12c-.08.12-.12.12-.12.12h-.08c-.2.08-.16 0-.68 0a12 12 0 01-4.47-3 70.19 70.19 0 01-9.46-11.81 281.89 281.89 0 01-15.17-26.58c-2.11-4.19-4.07-8.22-5.74-12-.44-1-.88-2-1.28-3a51.37 51.37 0 008.18 3.6 83.6 83.6 0 0026.34 4.19 75.83 75.83 0 008-.4 42.26 42.26 0 006.75-1.2c-.36 7.74-.48 16.08-.24 24.9.22 4.65.5 9.28 1.1 14.03z"/><path class="cls-4" d="M502.22 915.19c-.6-2.07-1.08-4.11-1.48-6.1 0-.28-.08-.6-.12-.88l-1.24-4.21a7.53 7.53 0 01-.87-3l-1.32-5a73 73 0 00-4-12.74c-.44-1.11-.88-2.19-1.28-3.27a55.34 55.34 0 00-2.27-5.47l-4.23-8.5c-1.72-3.59-3.79-7.06-5.83-10.45-1.12-1.92-2.27-3.83-3.35-5.79-1.12-1.72-2.28-3.55-3.47-5.35-2.16-3.39-4.32-6.78-6.55-10-6.47-9.54-13.09-18.84-19.52-27.86-7.46-10.5-14.52-20.43-21.27-30.57-14.72-22-25-40.35-32.28-57.63l-3-8a135 135 0 01-15.14 22.2c.6.48 1.15 1 1.71 1.47.84.72 1.68 1.48 2.56 2.2 12.89 12 22.75 26.42 29.89 37.67 3.07 4.87 3.67 6.07 2.27 7s-2.27-.08-5.62-4.75c-7.59-10.74-17.88-24.43-30.57-35.32-.88-.64-1.76-1.4-2.64-2.12a51 51 0 00-6.26-4.59c-.64-.36-1.24-.75-1.8-1.11a31.73 31.73 0 00-2.91-1.8l-5-2.35c-7-2.8-13.81-3.4-19.64-1.72s-11.05 5.27-15.88 10.93c-4.43 5.11-7.5 11.26-10.3 17.13-4.59 10.65-7.86 22.7-10.09 36.71a244 244 0 00-1.28 61.78c2 18 5 29.49 6.22 33.61.12.39.2.75.28 1.11 34.53-2.19 80.94 15.25 102.93 38.4a226 226 0 00-2.31-49.25A168.51 168.51 0 00393 832.54a132.78 132.78 0 00-31.61-42.7c-2.36-2.2-3.07-3-2.32-3.83s1.6-.24 4.07 1.79a130.41 130.41 0 0134.53 42.43 167.36 167.36 0 0115.52 46.25 224.48 224.48 0 013.35 29.57c32.93 31.77 64.78 43.94 97.14 37.16-2.67-5.11-4.95-10.18-6.9-15a129.13 129.13 0 01-4.56-13.02z"/><path class="cls-6" d="M397.71 765.15a164 164 0 00-22.44-24.28c-.88-.64-1.76-1.4-2.64-2.12a51 51 0 00-6.26-4.59c-.64-.36-1.24-.75-1.8-1.11a31.73 31.73 0 00-2.91-1.8l-5-2.35c-7-2.8-13.81-3.4-19.64-1.72-5.46 1.53-10.58 5-15.24 10.27 26.02-11.52 55.07 6.43 75.93 27.7z"/><path class="cls-8" d="M298.85 808.22a252.85 252.85 0 00.59 45.51c2 18 5 29.49 6.22 33.61.12.39.2.75.28 1.11 34.53-2.19 80.94 15.25 102.93 38.4a226 226 0 00-1.26-41.68c-50.44 2.71-87.68-36.84-108.76-76.95z"/><path class="cls-7" d="M407.47 937.58c6.47 8.82 8 17.36 4.71 25.38-16.48 39.91-71 26.74-87.32 21.75-36.8-11.25-63.1-32.52-62.9-44.41l4 .19c9.25.44 24.82 1.16 34.88 1a5.21 5.21 0 004.23-8.3l-22.35-30.17a43.33 43.33 0 0114.88-5.55c1.36-.24 2.72-.48 4.15-.64 34.29-4.39 86.37 15.33 105.13 39.83.19.34.39.64.59.92z"/><path class="cls-2" d="M692.83 319.58a41 41 0 00-17.76-1.27 40.05 40.05 0 00-21 9.7 38.91 38.91 0 0013.33 65.69 39.74 39.74 0 0044.34-12.81 41 41 0 007.39-14.57c-1.6-2-3.16-3.91-4.63-5.87a135.9 135.9 0 01-21.67-40.87zm-12.78 58.31a20.18 20.18 0 010-40.35 18.12 18.12 0 013.64.4 12 12 0 008.3 20.72 11.75 11.75 0 007.74-2.92 16.93 16.93 0 01.2 2 20 20 0 01-19.88 20.15zm-221.57-59.78c-.28 1.12-.59 2.26-.9 3.4a49 49 0 014.3-3.76c-1.15.09-2.29.19-3.4.36z"/><path class="cls-2" d="M504.73 350.47a35.91 35.91 0 00-3.87-11.57 38.8 38.8 0 00-6.9-9.5 40.43 40.43 0 00-19-10.61 42.37 42.37 0 00-13.12-1 49 49 0 00-4.3 3.76 116 116 0 01-6.05 17.11 118.61 118.61 0 01-6.9 13c-2.48 4.31-5.31 8.46-8.14 12.73-2.2 3.16-4.47 6.27-6.83 9.38a40.77 40.77 0 0028.62 21.67 39.68 39.68 0 0042.22-19.95 38.48 38.48 0 004.27-25.02zm-37.23 27.42a20.18 20.18 0 010-40.35 18.43 18.43 0 013.63.4 12 12 0 008.3 20.72 11.81 11.81 0 007.74-2.92 16.93 16.93 0 01.2 2 20 20 0 01-19.87 20.15z"/><path class="cls-3" d="M669.28 439.67c5.23 9.46 8.06 20.83 5.27 31.29a32.56 32.56 0 01-7.91 14.09 27.76 27.76 0 01-14 8c-11.06 2.6-23.59.08-35.92-3-6.27-1.72-12.57-3.39-19-5.15a122.56 122.56 0 00-20.31-3.95c-14.77-.88-28 4.15-40.19 8.1a126.13 126.13 0 01-18 4.87 47.68 47.68 0 01-17.36-.24l-4.15-1.08c-1.36-.44-2.64-1.12-3.95-1.63-2.72-.92-5.07-2.72-7.55-4.11-2.43-1.56-4.62-3.56-6.9-5.27-1.08-.92-2-1.88-2.95-2.8-.76-1.07-1.72-2-2.36-3.15a27.25 27.25 0 01-4.31-14.89 41.7 41.7 0 013.31-15.57c4.08-10 10.94-18.64 18.56-25.74a109.83 109.83 0 0125.07-17.36c17.64-9 36.07-12.89 52.72-13.89a125.88 125.88 0 0153.35 11 113.2 113.2 0 0125.95 16.09 84.94 84.94 0 0120.63 24.39zm-38 34.36c16.12 1.92 31.2-11.53 21.39-27.85-9.38-15.53-39.43-17.12-48.41-17.24a2.09 2.09 0 00-2.12 2.51c1.86 9.14 9.75 40.27 29.11 42.55zm-87.81-42.58a2.07 2.07 0 00-2.07-2.51c-9 .12-39.07 1.71-48.45 17.24-9.85 16.32 5.24 29.82 21.36 27.82 19.36-2.28 27.22-33.41 29.13-42.55z"/><path class="cls-8" d="M418.33 357.38c-43.16 6.16-64.87-35.29-72.53-74.71a176.26 176.26 0 00-5.8 42.42c-.2 21.71 2.83 44.7 11.45 66.13a96.78 96.78 0 0017.28 28.58l.32.36h.12l1.64-1.28 3.27-2.67c4.35-3.56 8.5-7.27 12.61-10.94a329 329 0 0042.46-46.17c2.84-4 5.75-7.91 8.23-11.94 1.27-1.9 2.45-3.78 3.57-5.66-6.29 7.5-13.09 13.97-22.62 15.88z"/><path class="cls-7" d="M844.72 925.57a5.06 5.06 0 01-3.59-7.66c3.15-5.19 14.17-23.35 19.12-31.57a47.69 47.69 0 00-11.14-1.92c-1.52-.12-3.11-.16-4.71-.16-34.16 0-84.13 22.79-102.17 45.42a47.45 47.45 0 00-6.23 9.82c-5.35 11.17-4.47 22.39 2.55 33.36 7.54 11.77 21.07 16.92 40.19 15.29 39.11-3.36 91.07-35.72 101.85-57.47-9.45-1.4-29.92-4.27-35.87-5.11zm-210.24-15.49c-1.12 3.16-2.48 6.43-4 9.82-2.44 5.59-5.31 11.5-8.58 17.68s-6.87 12.69-11.06 19.28c-2.07 3.27-4.31 6.62-6.74 9.78a48.5 48.5 0 01-3.83 4.35 10.61 10.61 0 01-1.24 1h-.08s.08 0-.16-.2a6.15 6.15 0 01-.92-1.19 21.54 21.54 0 01-1.72-4.23c-.51-1.76-1-3.84-1.75-6.27a14.68 14.68 0 00-.76-1.92l-.6-1.31c-.28-.48-.68-.92-1-1.36a8.59 8.59 0 00-2.31-2.27 9.27 9.27 0 00-3-1c-2.48-.44-4.67.84-6.55 2.67-1.08 1.16-1.28 1.4-1.79 2l-1.28 1.63c-1.68 2.12-3.19 4.19-4.75 6-.8.92-1.56 1.76-2.32 2.51-.39.32-.79.76-1.11 1l-.68.48h-.08c-.24-.16-.44-.72-.68-1-1.8-3.43-2.79-8.34-3.51-12.85s-1.24-9.18-1.6-13.69c-1-13-1.28-25.22-1.44-36.07a38.28 38.28 0 0017.88 11.21 64 64 0 0018.92 2.63h.2a86.33 86.33 0 0029.45-5.34 46.2 46.2 0 007.09-3.34zm-78.14 45.22a8.16 8.16 0 00-2-1.16 5.57 5.57 0 00-4.87.24c-1.52.8-2.51 2.44-3.35 4.23-.64 1.64-.88 2.48-1.28 3.72s-.72 2.15-1.08 3a6.5 6.5 0 01-.55 1.12c-.08.12-.12.12-.12.12h-.08c-.2.08-.16 0-.68 0a12 12 0 01-4.47-3 70.19 70.19 0 01-9.46-11.81 281.89 281.89 0 01-15.17-26.58c-2.11-4.19-4.07-8.22-5.74-12-.44-1-.88-2-1.28-3a51.37 51.37 0 008.18 3.6 83.6 83.6 0 0026.34 4.19 75.83 75.83 0 008-.4 42.26 42.26 0 006.75-1.2c-.36 7.74-.48 16.08-.24 24.9.22 4.65.5 9.28 1.1 14.03zm-148.87-17.72c-.2-.28-.4-.6-.64-.88-18.75-24.5-70.83-44.22-105.12-39.83-1.43.16-2.79.4-4.15.64a43.33 43.33 0 00-14.88 5.55L305 933.23a5.21 5.21 0 01-4.23 8.3c-10.06.12-25.63-.6-34.88-1l-4-.19c-.2 11.89 26.1 33.16 62.9 44.41 16.32 5 70.84 18.16 87.32-21.75 3.39-8.06 1.83-16.6-4.64-25.42z"/><path class="cls-8" d="M781.5 353.39c-22.56 10-46.69 2.73-68.45-10q3.91 5.83 8.55 11.49a213 213 0 0038.91 36.4c1.32 1 2.68 2 4 3 4.15 3 8.5 5.86 12.93 8.66 2.24 1.39 4.47 2.75 6.75 4.07l3.47 1.95 1.72 1 .32.16.23-.28.68-.64c1.52-2 3.28-3.75 4.67-6a76.67 76.67 0 004.15-6.63c1.36-2.23 2.52-4.67 3.71-7.06 9.18-19.56 13.85-40.83 15.69-61.11.19-2.12.32-4.23.44-6.34-9.76 14.16-22.36 25.55-37.77 31.33z"/><ellipse class="cls-5" cx="570.55" cy="270.63" rx="61.63" ry="17.53"/><ellipse class="cls-6" cx="570.55" cy="266.64" rx="27.71" ry="7.88"/><path class="cls-2" d="M645 412.4a113.75 113.75 0 00-22.25-13.24 125.88 125.88 0 00-53.35-11c-16.65 1-35.08 4.87-52.72 13.89a109.83 109.83 0 00-25.07 17.36 95.88 95.88 0 00-3.79 3.76c69.23-37.89 95.77-31.31 157.18-10.77z"/><path class="cls-3" d="M514.31 474c-16.12 1.92-31.21-11.53-21.39-27.85 9.38-15.53 39.43-17.12 48.45-17.24a2.07 2.07 0 012.07 2.51c-1.91 9.17-9.77 40.3-29.13 42.58zm116.94 0c-19.36-2.31-27.22-33.44-29.14-42.58a2.09 2.09 0 012.12-2.51c9 .12 39 1.71 48.41 17.24 9.81 16.35-5.27 29.85-21.39 27.85z"/><path class="cls-3" d="M604.23 428.94a2.09 2.09 0 00-2.12 2.51c1.92 9.14 9.78 40.27 29.14 42.58 16.12 1.92 31.2-11.53 21.39-27.85-9.38-15.53-39.43-17.12-48.41-17.24zm-62.86 0c-9 .12-39.07 1.71-48.45 17.24-9.82 16.32 5.27 29.82 21.39 27.82 19.36-2.31 27.22-33.44 29.13-42.58a2.07 2.07 0 00-2.07-2.48z"/><path class="cls-9" d="M645 952.59a94.85 94.85 0 01-23.42-3l2-7.73c43.2 11 80.06-13.67 103.37-36.26l5.55 5.73c-20.5 19.92-51.02 41.26-87.5 41.26zm-148.81.41c-28.67 0-56.9-13.77-85.69-41.67l5.55-5.74c34.36 33.3 67.52 45.31 101.34 36.72l2 7.73a93.5 93.5 0 01-23.2 2.96zm-87.01-179.07c-7.14-11.26-17-25.71-29.9-37.68q-1.29-1.1-2.55-2.22a52.92 52.92 0 00-6.8-5.38c-.56-.37-1.1-.76-1.65-1.15a32.17 32.17 0 00-3.43-2.23l-5.37-2.79c-8.32-3.71-17-4.71-24.47-2.83-7.23 1.75-14.25 6.21-20.28 12.89-5.35 5.8-8.92 12.48-12.14 18.88-5.24 11.35-9.08 24.07-11.74 38.89a245.34 245.34 0 00-2.47 64.51c1.87 18.86 5 31.13 6.21 35.5 1.21 4.63 1.59 4.84 2.08 5.12l.56.31 8.26-2.41c1.58-.47 1.29-1.9.18-6s-4.2-15.61-6.23-33.62a243.47 243.47 0 011.29-61.72c2.2-14 5.51-26.06 10.1-36.73 2.77-5.87 5.84-12 10.27-17.09 4.85-5.68 10.19-9.37 15.89-10.94s12.67-1.09 19.65 1.7l5 2.37a27.48 27.48 0 012.93 1.77c.58.38 1.15.76 1.78 1.14a47.08 47.08 0 016.27 4.59c.89.73 1.78 1.46 2.64 2.12 12.71 10.87 23 24.57 30.57 35.3 3.34 4.69 4.25 5.69 5.65 4.75s.8-2.21-2.3-7.05zm163.62 63.95a264.34 264.34 0 00-11.18-28.27 208.39 208.39 0 00-12-22.19c-2.81-4.52-5.52-8.49-8.26-12.14l-.56-.74c-2.79-3.72-5.67-7.57-8.49-11.65-9.8-14.39-23.62-36.53-30.52-62.58-3.65-14.22-4.11-26.51-1.39-37.57a50.48 50.48 0 018-17.42 55.11 55.11 0 0114.18-13.55c4-2.54 5.26-3.48 4.4-4.94s-2.3-.84-6.51 1.51a58.49 58.49 0 00-16.11 13.95 55.5 55.5 0 00-9.63 19c-.23.81-.4 1.65-.6 2.48A66 66 0 01505 649.63a66 66 0 00-10.82 14.09c-2.72 11.29-2.47 24.13.82 38.27 6.63 27.56 20.72 50.54 30.75 65.43 2.91 4.27 5.9 8.28 8.79 12.16l.4.53c2.62 3.49 5.2 7.28 7.87 11.58 2.55 4.08 5 8.3 7.26 12.7 1.46 2.79 2.9 5.63 4.31 8.61a271.68 271.68 0 0111.19 27.68c1.1 3.27 1.52 4.51 2.57 4.51a2.32 2.32 0 00.63-.11l4.19-1.36c1.57-.5 1.22-1.56-.16-5.84zm-16.93 74.9c-1.5.23-4 .62-7.44.91a78.93 78.93 0 01-32.29-4.53 32.78 32.78 0 01-9.76-5.33 5.87 5.87 0 01-2-2.61l.12-.71-.12-.47c-.45-1.76-.86-3.54-1.26-5.31a80.71 80.71 0 00-4-13.83c-.41-1-.79-2.12-1.16-3.18a64.55 64.55 0 00-2.37-6l-4.11-8.72c-1.78-3.82-3.85-7.49-5.86-11-1.09-1.93-2.18-3.85-3.27-5.88l-3.24-5.23c-2.2-3.6-4.41-7.17-6.68-10.66-6.54-10.05-13.23-19.81-19.71-29.26-7-10.28-13.7-20-20-29.81-14.08-21.79-23.82-39.74-30.63-56.46l-5-14.11c-1-2.92-1.73-6-2.44-8.89-.41-1.69-.82-3.37-1.29-5.08a56.12 56.12 0 01-1.76-9.45c-.18-1.38-.35-2.76-.57-4.09l-.92-6.63-.41-6.74c-1.56-31.21 2.71-62.34 12-87.66a146.31 146.31 0 0112.8-26.65l1.68-2.47c1.58-2.32 3.07-4.52 4.51-6.28.76-.9 1.46-1.77 2.12-2.58 1.07-1.33 2-2.51 2.95-3.45 5.46-5.52 5.81-6.06 4.74-7.24l-5.45-5.83c-1.12-1.16-2.14-.19-3.82 1.41-1 1-2.38 2.32-3.86 3.83-1.12 1.16-2.23 2.54-3.51 4.13-.67.83-1.38 1.71-2.15 2.64-1.73 2.15-3.45 4.72-5.27 7.44l-1.55 2.3a155.22 155.22 0 00-13.76 28.9c-6.8 18.95-14.38 50.3-11.83 92.09l.51 7.06 1.06 7.11c.23 1.37.42 2.75.62 4.14a64.18 64.18 0 002.08 10.4c.48 1.66.91 3.35 1.34 5 .81 3.15 1.64 6.41 2.78 9.61l5.44 14.61c7.3 17.28 17.57 35.59 32.3 57.61 6.76 10.14 13.81 20.07 21.29 30.58 6.41 9 13 18.34 19.49 27.85 2.23 3.3 4.4 6.67 6.57 10.06 1.16 1.81 2.33 3.62 3.46 5.35 1.08 1.94 2.22 3.86 3.37 5.79 2 3.38 4.07 6.88 5.82 10.46l4.22 8.48a55.16 55.16 0 012.28 5.48c.41 1.07.81 2.15 1.27 3.26a73.76 73.76 0 014 12.73c.42 1.69.85 3.38 1.31 5.06a7.41 7.41 0 00.86 3l2.88 10-.36-6.75a11.16 11.16 0 001 .8 39 39 0 0011.57 5.84 83.23 83.23 0 0026.33 4.22 78.82 78.82 0 008-.41 48.85 48.85 0 007.34-1.33c2-.57 3.74-1.06 3.3-2.63s-1.61-1.19-3.56-.89z"/><path class="cls-10" d="M500.24 902.9a22.12 22.12 0 00.51 6.18c.39 2 .89 4 1.48 6.1a136.32 136.32 0 004.52 13 162.08 162.08 0 0014.64 28.32 67.06 67.06 0 0011.09 13.22c2.3 1.86 4.82 3.83 8.75 4.49a8.91 8.91 0 006.38-1.61l1.18-1.23a14.66 14.66 0 00.89-1.4 15.36 15.36 0 00.87-2.2 37 37 0 00.94-3.73c.21-1 .43-1.93.64-2.87 0-.54.45-1.41 1.2-1.16a2.59 2.59 0 011.15.65c.69.57 1.39 1.24 2.1 1.91a40.53 40.53 0 004.42 3.8l2.38-2.72c-1.1-1.22-2.15-2.62-3.3-4.18-.58-.78-1.19-1.61-1.93-2.46a10.87 10.87 0 00-3.76-2.89 5.54 5.54 0 00-4.87.25 8.46 8.46 0 00-3.35 4.22c-.65 1.63-.9 2.49-1.29 3.7s-.7 2.15-1.07 3.05a8.74 8.74 0 01-.56 1.11c-.11.15-.11.12-.11.12h-.1c-.19.09-.16 0-.67 0a12.43 12.43 0 01-4.49-3 71.36 71.36 0 01-9.42-11.83 278.55 278.55 0 01-15.18-26.57c-2.12-4.2-4.06-8.21-5.74-12s-3.25-7.49-3.7-10.17z"/><path class="cls-10" d="M557.33 892.84a363.09 363.09 0 00-2 48.58c.17 4.65.46 9.44 1.08 14.39s1.32 10 4 15.59a14.08 14.08 0 001.35 2.16A12.06 12.06 0 00563 975c.47.37 1 .69 1.48 1a7.15 7.15 0 006.95.16 9.42 9.42 0 002.61-1.49c.71-.5 1.21-1 1.82-1.53 1.08-1 2.06-2.09 3-3.15 1.81-2.1 3.43-4.24 5-6.26l1.18-1.47.83-1c0 .07-.09-.18.1.23s.31.83.47 1.22c.6 1.81 1.1 4 1.77 6.08a27 27 0 002.67 6.16 15 15 0 002.11 2.61 15.24 15.24 0 003.14 2.33l.72.26.18.06s0 .13.12-.06h.09l.38.09a3.3 3.3 0 001.52.19 7.73 7.73 0 003-.79 15.39 15.39 0 003.88-2.93 48.53 48.53 0 004.51-5.35 124.86 124.86 0 006.89-10.64c4.1-7 7.5-13.81 10.49-20.31s5.5-12.72 7.56-18.65 3.75-11.54 4.28-17.2l-3.59-.45c-1 4.86-3.17 10.17-5.56 15.74s-5.34 11.47-8.59 17.66-6.89 12.67-11.06 19.27c-2.09 3.29-4.32 6.62-6.76 9.78a41.89 41.89 0 01-3.81 4.34 12.38 12.38 0 01-1.24 1 .09.09 0 01-.1 0c-.06-.06.08.06-.16-.21a6.71 6.71 0 01-.9-1.17 19.37 19.37 0 01-1.71-4.23c-.55-1.78-1-3.84-1.79-6.28a19.62 19.62 0 00-.73-1.93l-.62-1.31a16.68 16.68 0 00-1-1.36 9.55 9.55 0 00-2.35-2.27 9.36 9.36 0 00-3-1c-2.46-.41-4.68.83-6.54 2.67a89.903 89.903 0 00-1.78 2l-1.29 1.63c-1.66 2.14-3.19 4.19-4.75 6-.78.92-1.56 1.78-2.33 2.53-.38.31-.77.74-1.11 1l-.66.49a.1.1 0 01-.1 0 6.37 6.37 0 01-.66-1c-1.8-3.44-2.79-8.33-3.53-12.84s-1.2-9.21-1.57-13.71c-1.35-18.07-1.44-34.48-1.51-48z"/><path class="cls-9" d="M748.76 562.74c-6-15.57-13.48-28.66-22.09-38.83a57.69 57.69 0 00-6.48-6.94c-3-2.88-3.38-3.11-4.35-3.09h-.85l-7.59 8.57c-1.34 1.53-.23 2.62 2.48 5.26l.35.34a65.66 65.66 0 015.28 5.45c8.06 8.75 15.18 20.2 21.16 34 9.07 22 14.1 46.91 15 74.07a235.77 235.77 0 01-.5 25.18l-1.78 13.67a31.18 31.18 0 01-1 5l-2.14 8.72c-4.83 18-13.58 37.84-26 59-9.81 16.89-21.76 34.3-34.4 52.74-2.75 4-5.54 8.07-8.37 12.23l-3.05 4.61c-6.87 10.35-14 21.05-20.27 32.81-6.76 12.62-14.07 27.79-17.11 44.61l-.06.34v.29c0 .61-.67 2.15-2.77 3.7a34.46 34.46 0 01-8.5 4.39 75.35 75.35 0 01-27.66 4.29 58.46 58.46 0 01-17.21-3c-6.68-2.36-11.84-5.89-15.42-10.58a11.81 11.81 0 01-2.87-7.89 84.33 84.33 0 011.37-8.51l.48-2.52c1.57-7.87 3.49-15.88 5.69-23.81a273.46 273.46 0 0119.11-50.11A178.65 178.65 0 01604 782.25l2.58-3.54c5-6.9 10.23-14 14.84-21.61 13.12-21.34 21.1-40 25.14-58.91a98.77 98.77 0 001.93-16.49 65.65 65.65 0 00-1.4-16.9 55.79 55.79 0 00-26.81-37c-4-2.23-4.61-2-5.21-1.87l-.73.22-.4.62c-1.17 1.79.61 3 2 3.91a74.8 74.8 0 0110.83 8.53A50.3 50.3 0 01641.22 666a60.5 60.5 0 011 15.49 93.31 93.31 0 01-2 15.41c-4 17.69-12.15 36.17-24.83 56.5-4.46 7.2-9.45 14-14.28 20.56l-3 4.09a183.72 183.72 0 00-15.39 25.49A274.87 274.87 0 00563.18 855c-2.21 8.13-4.13 16.33-5.68 24.41-.18 1-.36 2-.55 3a75.76 75.76 0 00-1.33 9.11 18.46 18.46 0 004.55 12.48c4.42 5.58 10.72 9.68 18.73 12.21a63.78 63.78 0 0018.9 2.62h.2a86.2 86.2 0 0029.43-5.34 41.1 41.1 0 009.66-5.05c3-2.21 4.73-4.92 4.77-7.5 3.12-16.08 10.36-30.6 17-42.7 6.39-11.56 13.66-22.16 20.68-32.41l2.88-4.19q4.93-7 9.76-13.8c12.55-17.68 24.41-34.37 34.4-50.77 13.41-21.86 22.64-41.63 28.21-60.47l2.45-9a36 36 0 001.25-5.63l2.22-14.16A251.16 251.16 0 00762 641.5c0-28.6-4.48-55.08-13.24-78.76zM413.15 876.47a167.44 167.44 0 00-15.55-46.24 130.16 130.16 0 00-34.51-42.42c-2.46-2.06-3.32-2.66-4.07-1.81s0 1.63 2.31 3.85a132.29 132.29 0 0131.61 42.68 169.36 169.36 0 0113.62 45.08 225.63 225.63 0 011.86 55.06l-.09 1.12c-.21 2.37-.26 3.43.85 3.56l5.7.59.33-.27c.26-.22.51-.42.74-3.21l.07-1a218.6 218.6 0 00-2.87-56.99z"/><path class="cls-11" d="M362.77 999c-12.11 0-25.63-2.18-40.22-6.65-36-11-72.31-35.12-68.26-55a6.34 6.34 0 016.57-5.13l5.42.25c7.64.36 19.57.92 29 1l-20.11-27.17a6.25 6.25 0 011.38-8.82c6.25-4.48 14.36-7.39 24.11-8.63 37.28-4.76 91.95 16.1 112.47 42.93 8.71 11.38 10.92 23.19 6.4 34.13-8.91 21.73-29.16 33.09-56.76 33.09zM262 940.31c-.2 11.89 26.11 33.17 62.92 44.41 16.31 5 70.81 18.15 87.31-21.77 3.42-8.28 1.62-17.11-5.36-26.23-18.74-24.5-70.84-44.24-105.12-39.86-7.65 1-14 3.06-19 6.22L305 933.24a5.18 5.18 0 01.48 5.39 5.3 5.3 0 01-4.71 2.91c-10.05.13-25.61-.61-34.89-1zm.15-1.33zm19.52-37.34z"/><path class="cls-12" d="M543.43 431.44a2.08 2.08 0 00-2.08-2.52c-9 .13-39.05 1.73-48.42 17.27-9.84 16.3 5.24 29.75 21.38 27.83 19.35-2.3 27.22-33.43 29.12-42.58z"/><path class="cls-12" d="M543.43 431.44a2.08 2.08 0 00-2.08-2.52c-9 .13-39.05 1.73-48.42 17.27-9.84 16.3 5.24 29.75 21.38 27.83 19.35-2.3 27.22-33.43 29.12-42.58zm58.7 0a2.08 2.08 0 012.08-2.52c9 .13 39 1.73 48.42 17.27 9.84 16.3-5.24 29.75-21.38 27.83-19.35-2.3-27.25-33.43-29.12-42.58z"/><path class="cls-12" d="M602.13 431.44a2.08 2.08 0 012.08-2.52c9 .13 39 1.73 48.42 17.27 9.84 16.3-5.24 29.75-21.38 27.83-19.35-2.3-27.25-33.43-29.12-42.58zm-146.37-112.8a43.24 43.24 0 0119.23.14 40.47 40.47 0 0118.95 10.61 39.17 39.17 0 016.92 9.51 35.85 35.85 0 013.88 11.57 38.69 38.69 0 01-4.24 24.95 39.74 39.74 0 01-42.2 20A40.73 40.73 0 01428 369.9l-3.45 1.1a42 42 0 0010.35 18.76 44 44 0 0021.88 12.66 45.43 45.43 0 0028.32-2.31 46.14 46.14 0 0022.9-20.65 45.58 45.58 0 004.8-30.42 42.5 42.5 0 00-5.12-13.86 44 44 0 00-52.9-20z"/><path class="cls-12" d="M479.43 358.67a12 12 0 01-8.3-20.74 19.77 19.77 0 00-3.63-.37 20.16 20.16 0 1019.88 20.16c0-.67-.14-1.31-.2-2a11.91 11.91 0 01-7.75 2.95zm240.57 3.5a40.77 40.77 0 01-8.32 18.7 39.66 39.66 0 01-65.21-4.3A38.69 38.69 0 01654 328a40.26 40.26 0 0121-9.71 42.39 42.39 0 0120.4 2.1l1.44-3.31a44 44 0 00-22.42-4.4 44.64 44.64 0 00-40.72 35.82 46.12 46.12 0 0031 52.9 45.64 45.64 0 0030.28-.57 44.05 44.05 0 0021.21-16.64 42.49 42.49 0 007.36-21.64z"/><path class="cls-12" d="M692 358.67a12 12 0 01-8.31-20.74 19.66 19.66 0 00-3.62-.37 20.16 20.16 0 1019.87 20.16 18.51 18.51 0 00-.2-2 11.83 11.83 0 01-7.74 2.95z"/><path class="cls-9" d="M688.8 284.31c-33.33-25.91-75.86-40.18-119.8-40.18-38.11 0-74.69 10.48-105.79 30.32l-2.14-3.37c31.73-20.24 69.06-30.94 107.93-30.94 44.8 0 88.21 14.57 122.23 41z"/><path class="cls-12" d="M755.29 392.45a134 134 0 01-.07 27.66q-.29 3.6-.57 7.28c-.31 2.44-.89 4.87-1.33 7.34-1 4.93-1.67 10-3.43 14.94a159.26 159.26 0 01-31.1 58.43A182.24 182.24 0 01661 553.75c-22.95 11.82-49.44 18.64-76.83 20.22a202.92 202.92 0 01-78.74-11A183.24 183.24 0 01442.24 525a167.39 167.39 0 01-39.18-53.48A161.23 161.23 0 01389 415.79l-4.82.15a159.6 159.6 0 0012 58.58A170.31 170.31 0 00435.7 532a187.9 187.9 0 0066.05 41.16 208.11 208.11 0 0083.1 12.13c28.94-1.67 57-9.08 81.11-21.84a187.14 187.14 0 0060.26-49.3 162.77 162.77 0 0030.93-62.54c1.64-5.23 2.19-10.59 3-15.78.35-2.6.83-5.16 1.05-7.71s.18-5.11.26-7.63a133.17 133.17 0 00-1.38-28.61z"/><path class="cls-12" d="M437.72 225.67c.29-.68-2.51-2.36-6.92-4.14l-2.41-1-2.55-.72-5.26-1.47a37 37 0 00-5.57-1c-1.91-.24-3.84-.64-5.83-.76a62.54 62.54 0 00-25.18 3.57c-8.57 3.09-16.52 8.76-23.34 15.81a96.79 96.79 0 00-17 25.06c-8.92 18.88-13.59 40.82-14.45 63.8-.61 22.95 2.33 47.32 11.69 70.66 4.73 11.61 11.08 22.59 19.5 31.81l5.68 5.94 1.48 1.51c.13.06.23.39.38.24l.43-.32.85-.65 3.33-2.53 3.08-2.41 2.05-1.66 3.36-2.81c4.46-3.74 8.71-7.6 12.88-11.47a307.87 307.87 0 0042.57-48.8c2.83-4.27 5.66-8.41 8.11-12.72a119.25 119.25 0 006.93-13 126.16 126.16 0 008.25-26.33c3.31-17.17 4-32.7 4.52-46.2.2-4.67-.17-7.91-.91-8s-1.65 3.07-2.27 7.69c-1.77 13.34-3.58 28.76-7.72 45a125.51 125.51 0 01-9 24.4 118.88 118.88 0 01-7 11.9c-2.51 4-5.4 7.92-8.25 11.93a328.53 328.53 0 01-42.45 46.2c-4.11 3.68-8.29 7.37-12.64 10.93l-3.27 2.66-1.63 1.29c-.13.09-.08.06-.12 0l-.33-.35c-7.25-8.06-13-17.93-17.3-28.58-8.61-21.42-11.66-44.42-11.44-66.12.44-21.74 4.36-42.54 12-60.28s19.66-32.12 34.55-38.6a59.14 59.14 0 0122.48-4.63c1.85 0 3.67.23 5.47.32a33.31 33.31 0 015.32.56l5.11 1 2.51.47 2.4.73c4.39 1.3 7.62 1.76 7.91 1.07z"/><path class="cls-9" d="M504.89 250.41l-.33-.66a78.91 78.91 0 00-9.89-15.51 51.74 51.74 0 00-11.85-10.69 39.17 39.17 0 00-18.49-6.19c-6.58-.56-13.78.68-21.45 3.66a89 89 0 00-20.15 11.4c-11.34 8.28-22.82 19.45-35.08 34.13-1.69 2-2.47 3-1.6 3.79a.94.94 0 00.67.29c.71 0 1.57-.86 2.94-2.29 13.12-13.88 24.91-24.23 36-31.67 9.81-6.6 24.35-14.16 38.06-12.65a32.22 32.22 0 0115.16 5.49 44.29 44.29 0 0110 9.42 73.39 73.39 0 018.79 14.21l.28.59c.77 1.65 1.28 2.85 2.41 2.38l5.22-2.36.14-.4c.16-.35.28-.62-.83-2.94z"/><path class="cls-12" d="M692.23 261.51c-.72-.15-1.84 2.71-2.75 7.06a104.38 104.38 0 001.28 43.83c4 16 12 32.71 23.68 48.06s26.56 29.79 43.79 42.47c4.3 3.2 8.77 6.26 13.37 9.22q3.43 2.24 7 4.36l3.61 2.1 1.83 1 1.48.81 1.79.94 3.59 1.83c.3.12.62.38.9.38l.73-.68 1.46-1.38 5-4.87a84.88 84.88 0 005.57-7.05 75.66 75.66 0 004.75-7.5c1.55-2.54 2.82-5.18 4.11-7.83 10-21.34 14.61-43.66 16.2-65.12s-.46-42.47-7.27-61a80.25 80.25 0 00-14.24-24.81A57.3 57.3 0 00786.43 228c-3.89-1.78-8-2.52-11.84-3.45-2-.33-3.93-.44-5.85-.65a31.91 31.91 0 00-5.67-.27 70.42 70.42 0 00-10.74.73 69.08 69.08 0 00-9.83 1.79c-4.31 1.08-7.12 2.31-6.93 3s3.25.76 7.5.12a72.29 72.29 0 019.61-.85 69.56 69.56 0 0110.18.15 28.44 28.44 0 015.24.65c1.75.33 3.54.54 5.3 1 3.46 1.12 7.08 2 10.4 3.8a51.6 51.6 0 0118.2 14.44 74.2 74.2 0 0111.73 22.74c5.58 17.06 7 36.85 5.16 57.14s-6.51 41.53-15.71 61.07c-1.17 2.42-2.33 4.84-3.7 7.09a66.14 66.14 0 01-4.17 6.62 73.67 73.67 0 01-4.66 6l-.65.64-.33.32.07-.05-.32-.17-1.73-1-3.44-2q-3.43-2-6.76-4.07c-4.44-2.79-8.77-5.65-13-8.64-16.76-11.88-31.35-25.21-42.92-39.39a133.55 133.55 0 01-24.54-44.19 108.55 108.55 0 01-4.38-41.57c.47-4.27.35-7.33-.42-7.49z"/><path class="cls-9" d="M769.8 300.61c-3.54-17.83-9.12-40.72-20.92-59.54a42.55 42.55 0 00-2.88-4.2c-.52-.7-1-1.4-1.57-2.15-1.15-1.51-2.44-2.93-3.68-4.3l-1.36-1.51c-3.56-3.33-7.42-6.77-12-9a39.6 39.6 0 00-13.91-4.47 44.25 44.25 0 00-13.82.25 71.29 71.29 0 00-22.88 8.31 124.85 124.85 0 00-16.5 11 182.87 182.87 0 00-17.61 15.9l-.27.27c-2.2 2.3-2.19 2.59-2.18 3v.42l4.18 3.93c.81.75 1.53.07 3.49-2l.28-.29a182.07 182.07 0 0116.7-15.39 119.73 119.73 0 0115.37-10.61 65.06 65.06 0 0120.5-7.94 37.7 37.7 0 0111.9-.5 33.43 33.43 0 0112 3.53c4 1.77 7.39 4.65 10.79 7.63.47.49.94 1 1.42 1.48 1.13 1.18 2.31 2.41 3.34 3.66.51.71 1.06 1.39 1.61 2.08a36.14 36.14 0 012.73 3.73c11.83 17.53 18.32 39.84 22.66 57.31.85 3.36 1.2 4.39 2.05 4.39a1.15 1.15 0 00.31 0c1.07-.3 1.01-1.21.25-4.99z"/><path class="cls-12" d="M426.72 451.56c-.52 0-1.05 2.47-1 6.14a61 61 0 0012.15 33.85c8 11 19.88 20.59 33.75 28.12 27.89 15.07 63.46 23 101 23.76 37.5.54 73.46-6.2 101.57-21.1 14-7.43 25.78-17.19 33.55-28.43a64.57 64.57 0 0011.6-34.07c.07-3.66-.38-6.15-.92-6.15s-1.09 2.45-1.47 5.94A64.54 64.54 0 01703.81 491c-7.82 10-19.22 18.66-32.72 25.27-27.13 13.22-61.92 19.22-98.31 18.68-36.41-.7-70.91-7.87-98-21.31-13.47-6.74-25-15.22-33-25.08a60.59 60.59 0 01-13.65-31.05c-.38-3.51-.82-5.94-1.41-5.95z"/><path class="cls-12" d="M414 459.86a.72.72 0 00.75-.18 18.68 18.68 0 0110.9-5.43c5.05-.92 10-.7 13.24-1.14a.7.7 0 00.58-.55.63.63 0 00-.34-.7 23.23 23.23 0 00-14.3-2.06 16 16 0 00-7.89 3.64 9.85 9.85 0 00-3.36 5.74.61.61 0 00.42.68zm317.18 0a.62.62 0 00.42-.68 9.91 9.91 0 00-3.36-5.74 16 16 0 00-7.9-3.64 23.21 23.21 0 00-14.29 2.06.63.63 0 00-.34.7.69.69 0 00.58.55c3.25.44 8.19.22 13.24 1.14a18.61 18.61 0 0110.89 5.43.74.74 0 00.76.18z"/><path class="cls-9" d="M373.17 734.74l-6-5.28c.16-.18 15.84-18.05 20-32.52l7.68 2.19c-4.64 16.22-20.99 34.87-21.68 35.61zm478 47.46c-3.11-14.25-7.36-26.33-13-37a72.59 72.59 0 00-13.09-17.2 36.4 36.4 0 00-21.07-10c-7.28-.77-15 .95-23.08 5.15l-5.12 2.85-4.55 3.33a37.16 37.16 0 00-4.58 3.73l-4.28 3.85c-9.51 9.18-18.26 20.4-28.35 36.37-3 4.69-3.56 5.89-2.17 6.82s2.29 0 5.53-4.57c10.71-15.21 19.7-25.74 29.12-34.09l4.29-3.55a32.44 32.44 0 014.23-3.18l4.35-3 4.7-2.43c6.87-3.25 13.23-4.48 19-3.67a28.4 28.4 0 0116.16 8.42 64.32 64.32 0 0110.93 15.4c4.93 9.94 8.59 21.3 11.2 34.71a237 237 0 013.32 59.2 221.14 221.14 0 01-4.5 32.64c-.81 3.83-1.07 5.4.57 5.8l8.39 1.92.53-.35c.45-.29.84-.54 1.74-5a223.86 223.86 0 004.36-34.33 238.49 238.49 0 00-4.63-61.82z"/><path class="cls-9" d="M784.34 785.17c-.76-.85-1.62-.23-4.08 1.84a129.86 129.86 0 00-35 43.4 169.06 169.06 0 00-15.39 47.27 219.27 219.27 0 00-2.18 59.13c.29 2.81.54 3 .8 3.23l.35.27 5.67-.69c1.18-.14 1-1.38.79-3.62v-.34a226 226 0 011.2-56.91 171.36 171.36 0 0113.5-46.08 131.76 131.76 0 0132-43.62c2.39-2.24 3.1-3.05 2.34-3.88zm-13.99-51.09c-.79-.8-19.42-19.76-24.06-36.1l7.71-2.18c4.09 14.35 21.89 32.48 22.07 32.67z"/><path class="cls-11" d="M772.22 996.4c-18.4 0-32.28-6.57-40.37-19.22-11-17.16-9.55-35.32 4.15-52.49 28.13-35.27 98.48-56.1 128.5-45.33a6.65 6.65 0 014 4 6.57 6.57 0 01-.5 5.64c-3.66 6-12.85 21.24-17.74 29.29 9 1.28 25.88 3.66 33 4.7a6.82 6.82 0 015.33 9.38c-12 28.53-72.68 60.6-109.18 63.72q-3.69.32-7.19.31zm72.17-112.15c-34.15 0-84.11 22.79-102.15 45.42-11.52 14.45-12.76 29-3.66 43.21 7.52 11.76 21 16.91 40.15 15.25 39.13-3.34 91.08-35.7 101.86-57.46-9.46-1.37-29.93-4.26-35.86-5.1a5.06 5.06 0 01-3.61-7.67c3.17-5.19 14.17-23.36 19.12-31.55a54.12 54.12 0 00-15.85-2.1z"/><path class="cls-10" d="M257.97 933.07l34.68-11.77 10.71 16.66-45.39-4.89zm627.8-9.05l-32.37-20.89-9.24 15.22 41.61 5.67z"/><path class="cls-12" d="M569.24 384.57A133.52 133.52 0 00514.16 397a113.17 113.17 0 00-26.95 17.63c-8.32 7.43-16 16.53-20.83 27.78a49 49 0 00-4.17 18.29 34.86 34.86 0 005.28 19.08 48.3 48.3 0 003 4.11c1.17 1.2 2.36 2.5 3.59 3.57 2.54 2 4.92 4.15 7.65 6 2.86 1.65 5.49 3.68 8.69 4.86 1.56.65 3.08 1.41 4.68 2l4.95 1.35a55.19 55.19 0 0020.45.46 134.73 134.73 0 0019.36-5c12.37-4.06 24.67-8.44 36.93-7.62 12.4 1.17 25.08 5.67 37.84 8.76s26.2 6 39.92 2.75a35.51 35.51 0 0017.86-10.44 40.14 40.14 0 009.59-17.7c3.27-13.19-.54-26.33-6.46-36.69a91.51 91.51 0 00-22.86-26A116.77 116.77 0 00624.93 394a127 127 0 00-55.69-9.41l.13 3.61a126.45 126.45 0 0153.32 11 113.12 113.12 0 0125.95 16.09 86 86 0 0120.65 24.42c5.21 9.48 8 20.83 5.25 31.3a32.44 32.44 0 01-7.91 13.99 27.41 27.41 0 01-14 8c-11 2.6-23.61.11-35.92-3l-19-5.12a120.05 120.05 0 00-20.32-4c-14.76-.91-28 4.13-40.18 8.11a128.41 128.41 0 01-18 4.83 46.92 46.92 0 01-17.38-.23l-4.14-1.07c-1.35-.45-2.64-1.1-4-1.63-2.71-.92-5-2.74-7.54-4.12-2.42-1.56-4.6-3.53-6.91-5.25-1.07-.92-1.94-1.88-2.91-2.82-.78-1.07-1.72-2-2.39-3.16a27.37 27.37 0 01-4.31-14.85 42 42 0 013.37-15.5c4.08-10 10.94-18.63 18.57-25.75a108.82 108.82 0 0125.07-17.35c17.65-9 36.07-12.89 52.73-13.91z"/></g></svg>