<svg xmlns="http://www.w3.org/2000/svg" viewBox="0 0 437.85 540.46"><defs><style>.cls-1{fill:#f7f7f8}.cls-2{fill:#e883a4}.cls-3{fill:#f3bdc9}.cls-4{fill:#f8cdda}.cls-5{fill:#fbe7ee}.cls-6{fill:#6c6968}.cls-7{fill:#eaa7b8}.cls-11,.cls-8{fill:#5a2b33}.cls-10,.cls-9{fill:#2d2d2b}.cls-11,.cls-9{fill-rule:evenodd}</style></defs><g id="Layer_2" data-name="Layer 2"><g id="export"><g id="veprik"><path class="cls-1" d="M317.44 100.27c1 1.35 2.09 2.7 3.19 4a28.29 28.29 0 01-5.09 10 27.43 27.43 0 01-30.54 8.92 26.77 26.77 0 01-9.19-45.29 27.55 27.55 0 0114.5-6.68 28.08 28.08 0 0112.25.88 93.59 93.59 0 0014.88 28.17zm-10-1.87a12.87 12.87 0 00-.13-1.38A8.13 8.13 0 01302 99a8.29 8.29 0 01-5.72-14.28 13 13 0 00-2.51-.27 13.91 13.91 0 1013.7 13.92zm-134.58-5.01a26.57 26.57 0 01-2.91 17.2 27.37 27.37 0 01-29.11 13.75 28.12 28.12 0 01-19.73-14.94q2.43-3.21 4.71-6.46c2-3 3.9-5.81 5.61-8.78a82.41 82.41 0 004.76-8.94A81.6 81.6 0 00141 71.08a29.69 29.69 0 0111.39.47 27.81 27.81 0 0113.06 7.31 26.67 26.67 0 014.76 6.55 24.89 24.89 0 012.65 7.98zm-12 5a12.87 12.87 0 00-.13-1.38 8.15 8.15 0 01-5.34 2 8.29 8.29 0 01-5.72-14.28 13.12 13.12 0 00-2.51-.27 13.91 13.91 0 1013.7 13.92z"/><path class="cls-2" d="M286.29 154.88c3.61 6.52 5.56 14.36 3.64 21.57a22.54 22.54 0 01-5.45 9.71 19.08 19.08 0 01-9.66 5.5c-7.62 1.79-16.26.06-24.76-2.06-4.32-1.18-8.67-2.34-13.07-3.55a85.07 85.07 0 00-14-2.72c-10.18-.61-19.31 2.86-27.71 5.58a86.8 86.8 0 01-12.43 3.36 32.91 32.91 0 01-12-.17l-2.86-.74c-.94-.3-1.82-.77-2.72-1.13a31.55 31.55 0 01-5.2-2.83c-1.68-1.07-3.2-2.45-4.76-3.63-.75-.63-1.35-1.29-2-1.93-.52-.74-1.18-1.4-1.62-2.17a18.75 18.75 0 01-3-10.26 28.73 28.73 0 012.31-10.73 51.44 51.44 0 0112.79-17.75 76.06 76.06 0 0117.28-12 92 92 0 0136.34-9.57 86.67 86.67 0 0136.78 7.64 77.57 77.57 0 0117.88 11 58.6 58.6 0 0114.22 16.88zm-26.22 23.69c11.12 1.32 21.52-7.95 14.75-19.2-6.46-10.71-27.18-11.81-33.37-11.89a1.44 1.44 0 00-1.46 1.73c1.32 6.3 6.74 27.79 20.08 29.36zm-60.52-29.36a1.44 1.44 0 00-1.43-1.73c-6.22.08-26.94 1.18-33.4 11.89-6.77 11.25 3.63 20.52 14.74 19.2 13.35-1.57 18.77-23.06 20.09-29.36z"/><path class="cls-3" d="M385.89 38.75c3.85 11.75 4.78 25.4 3.55 39.37s-4.49 28.64-10.82 42.12c-.82 1.65-1.62 3.33-2.55 4.87a52.91 52.91 0 01-2.87 4.57c-1 1.54-2.17 2.75-3.21 4.13l-.47.44-.17.19-.22-.11-1.19-.66-2.39-1.35c-1.57-.91-3.11-1.84-4.65-2.81-3.05-1.92-6.05-3.9-8.91-6-.94-.66-1.88-1.32-2.78-2a147 147 0 01-26.83-25.09 92.34 92.34 0 01-16.92-30.49 74.22 74.22 0 01-3-28.72c.3-2.94.19-5-.31-5.14s-1.26 1.87-1.9 4.87a54.9 54.9 0 00-.93 7 130.21 130.21 0 00-27.43-15.65 126.42 126.42 0 0111.42-10.54 84.07 84.07 0 0110.59-7.32A44.42 44.42 0 01308 5a25.39 25.39 0 018.2-.36 23.28 23.28 0 018.25 2.43 30.58 30.58 0 017.43 5.28l1 1a32.45 32.45 0 012.29 2.53c.35.47.74.93 1.12 1.43a27.61 27.61 0 011.87 2.56c8.15 12.07 12.63 27.45 15.63 39.5.58 2.31.83 3 1.4 3a.53.53 0 00.22 0c.75-.16.72-.8.2-3.41-2.45-12.27-6.3-28.06-14.45-41a31.54 31.54 0 00-1.95-2.92c-.39-.46-.74-1-1.1-1.45-.8-1-1.68-2-2.53-3l-.5-.58c.64 0 1.35-.11 2.09-.22a50.45 50.45 0 016.63-.58 45.91 45.91 0 017 .11 20.12 20.12 0 013.6.44c1.21.22 2.45.38 3.66.66a42.1 42.1 0 017.18 2.61 35.54 35.54 0 0112.55 10 50.83 50.83 0 018.1 15.72z"/><path class="cls-4" d="M336.28 17.35c-.38-.5-.77-1-1.12-1.43a32.45 32.45 0 00-2.29-2.53c-.33-.36-.66-.69-1-1a30.58 30.58 0 00-7.43-5.28 23.28 23.28 0 00-8.25-2.43A25.39 25.39 0 00308 5c-1.14.22-2.27.49-3.4.81 21.87-.26 37.59 26.85 47.15 45.93-2.94-10.48-7.09-22.21-13.6-31.85a27.61 27.61 0 00-1.87-2.54zm50.24 23.57c-.21-.72-.4-1.46-.63-2.17a50.83 50.83 0 00-8.09-15.68 35.54 35.54 0 00-12.55-10 42.1 42.1 0 00-7.18-2.61c-1.21-.28-2.45-.44-3.66-.66a20.12 20.12 0 00-3.6-.44 45.91 45.91 0 00-7-.11 50.45 50.45 0 00-6.63.58c-.74.11-1.45.19-2.09.22l.5.57c.71.79 1.43 1.63 2.11 2.49 20.61-3.32 39.06 10.24 48.82 27.81z"/><path class="cls-3" d="M346 128.3a92.3 92.3 0 01-.46 13.1c-.11 1.65-.25 3.33-.39 5s-.6 3.35-.91 5.06a68.83 68.83 0 01-2.36 10.29 110.45 110.45 0 01-21.43 40.3c-1 1.21-2 2.4-3.11 3.58a125.88 125.88 0 01-36.73 27.87c-15.82 8.17-34.06 12.85-53 14a140.27 140.27 0 01-54.28-7.59 126.47 126.47 0 01-43.58-26.17 115.76 115.76 0 01-27-36.86 110.69 110.69 0 01-9.6-37.2c1.13-1 2.23-2 3.33-3A220.76 220.76 0 00119.13 112a29.68 29.68 0 005.59 8.47 30.54 30.54 0 0015.07 8.72 31.26 31.26 0 0019.54-1.59 31.86 31.86 0 0015.76-14.23 31.47 31.47 0 003.3-21 28.75 28.75 0 00-3.52-9.55 29.79 29.79 0 00-6.05-7.56 30.82 30.82 0 00-15.71-7.57 30.42 30.42 0 00-11.45.42c.09-.36.14-.72.22-1.08a178.05 178.05 0 002.86-26.38 130.66 130.66 0 0125.12-12.33 138.77 138.77 0 0199.46 1.93 128.19 128.19 0 0129.77 17 74.32 74.32 0 002 19.86c.13.55.27 1.13.44 1.71a29.25 29.25 0 00-11.67-1.51A30.72 30.72 0 00261.78 92a31.72 31.72 0 0021.38 36.46 31.51 31.51 0 0020.88-.39 30.44 30.44 0 0014.64-11.47 30 30 0 004.29-9.58A148.16 148.16 0 00346 128.3zm-17 40.5a.42.42 0 00.28-.47 6.6 6.6 0 00-2.31-4 11 11 0 00-5.42-2.5 16.2 16.2 0 00-9.88 1.4.48.48 0 00-.22.5.47.47 0 00.39.38c2 .28 5 .17 8.14.63a14.6 14.6 0 00-.77 3.86 44.4 44.4 0 01-9.08 21.62c-5.39 6.91-13.23 12.85-22.56 17.42-18.68 9.1-42.67 13.26-67.76 12.87s-48.89-5.42-67.54-14.69c-9.27-4.65-17.2-10.48-22.75-17.28a41.46 41.46 0 01-9.41-21.4c-.11-.94-.22-1.79-.36-2.45 3-.41 5.8-.3 7.76-.58a.47.47 0 00.38-.38.45.45 0 00-.22-.5 16.17 16.17 0 00-9.87-1.4 10.94 10.94 0 00-5.42 2.5 6.57 6.57 0 00-2.32 4 .44.44 0 00.28.47.49.49 0 00.52-.14 13 13 0 017.51-3.74h.17a19.82 19.82 0 00-.08 2.43 42 42 0 008.36 23.33c5.56 7.59 13.7 14.19 23.27 19.39 19.24 10.37 43.75 15.85 69.61 16.37 25.86.36 50.65-4.29 70-14.55 9.63-5.12 17.8-11.86 23.14-19.59a44.52 44.52 0 008-23.5 12.47 12.47 0 00-.36-3.93l.47.08a13 13 0 017.51 3.74.49.49 0 00.54.11zm-33.89 9c2.26-9.08-.36-18.16-4.43-25.28a62.91 62.91 0 00-15.76-17.91 80.6 80.6 0 00-19.15-11.2 87.83 87.83 0 00-38.41-6.49 92.56 92.56 0 00-38 8.58 78.4 78.4 0 00-18.57 12.16 55.26 55.26 0 00-14.36 19.15 33.57 33.57 0 00-2.86 12.6 23.87 23.87 0 003.63 13.15 29.82 29.82 0 002.09 2.86c.8.83 1.63 1.71 2.48 2.45 1.73 1.35 3.38 2.86 5.25 4.13 2 1.12 3.8 2.53 6 3.33 1.08.46 2.12 1 3.22 1.34l3.44.94a37.94 37.94 0 0014.09.33 93.63 93.63 0 0013.34-3.49c8.53-2.78 17-5.81 25.45-5.26 8.55.83 17.3 3.91 26.08 6.05s18.08 4.13 27.54 1.9a24.42 24.42 0 0012.3-7.21 27.17 27.17 0 006.59-12.16z"/><path class="cls-3" d="M162 16.5a50.9 50.9 0 016 9.62 131.51 131.51 0 00-23 11.23c0-.72.05-1.43.08-2.12.14-3.22-.11-5.47-.63-5.5s-1.13 2.12-1.57 5.28c-1.21 9.22-2.45 19.84-5.31 31a86.24 86.24 0 01-6.22 16.84 84 84 0 01-4.87 8.2c-1.7 2.78-3.71 5.45-5.66 8.23a227.58 227.58 0 01-29.28 31.83c-2.83 2.53-5.69 5.09-8.69 7.54l-2.26 1.84-1.12.88h-.09l-.22-.25a66.81 66.81 0 01-11.91-19.7c-5.94-14.77-8-30.62-7.9-45.59.31-15 3-29.32 8.29-41.57S81.08 12.2 91.34 7.72a40.83 40.83 0 0115.52-3.22c1.29 0 2.53.14 3.8.22a22.16 22.16 0 013.66.39l3.52.66 1.73.33 1.65.49c.91.28 1.73.5 2.48.66a76.51 76.51 0 00-7.38 4.75c-7.81 5.72-15.7 13.4-24.18 23.52-1.15 1.38-1.7 2.09-1.1 2.62a.73.73 0 00.47.19c.49 0 1.07-.58 2-1.57 9.06-9.57 17.17-16.7 24.85-21.84 6.77-4.54 16.78-9.74 26.22-8.72a22.13 22.13 0 0110.48 3.8 31.7 31.7 0 016.94 6.5z"/><path class="cls-5" d="M160.06 14.31a29.35 29.35 0 00-5-4.31 22.13 22.13 0 00-10.45-3.79c-6.06-.66-12.34 1.26-17.86 3.91 11.14-2.12 23.58-3.38 33.31 4.19zm-38.84-7.72l-1.65-.49-1.73-.33-3.52-.66a22.16 22.16 0 00-3.66-.39c-1.27-.08-2.51-.25-3.8-.22a40.83 40.83 0 00-15.52 3.22 35.46 35.46 0 00-6.59 3.86c11.35-3.74 24-5.32 35.19-2.05q1.91-1.23 3.76-2.28c-.7-.16-1.57-.38-2.48-.66z"/><path class="cls-6" d="M407.24 489.84c4.1.58 18.21 2.56 24.73 3.52-7.43 15-43.25 37.31-70.21 39.62-13.18 1.13-22.51-2.42-27.71-10.54-4.84-7.56-5.44-15.3-1.76-23a33.33 33.33 0 014.3-6.77c12.43-15.6 46.88-31.31 70.43-31.31 1.1 0 2.2 0 3.24.11a32.9 32.9 0 017.68 1.33c-3.41 5.66-11 18.18-13.18 21.76a3.49 3.49 0 002.48 5.28zM262.3 479.16c-.77 2.18-1.7 4.43-2.72 6.77-1.68 3.85-3.66 7.93-5.92 12.19s-4.73 8.75-7.62 13.29c-1.43 2.25-3 4.57-4.65 6.74a31.23 31.23 0 01-2.64 3 6.41 6.41 0 01-.85.71h-.05s.05 0-.11-.14a4.27 4.27 0 01-.64-.83 14.34 14.34 0 01-1.18-2.91c-.36-1.21-.69-2.64-1.21-4.32a11.61 11.61 0 00-.52-1.32l-.42-.91c-.19-.33-.46-.63-.68-.94a6.23 6.23 0 00-1.6-1.56 6.33 6.33 0 00-2.06-.72c-1.71-.3-3.22.58-4.52 1.84-.74.8-.88 1-1.23 1.41l-.88 1.12c-1.16 1.46-2.2 2.89-3.28 4.16-.55.63-1.07 1.21-1.59 1.73-.28.22-.55.52-.77.69l-.47.33h-.06c-.06 0-.3-.5-.46-.72a31 31 0 01-2.43-8.86c-.52-3.16-.85-6.32-1.1-9.43-.68-9-.88-17.39-1-24.87a26.49 26.49 0 0012.36 7.74 44.25 44.25 0 0013 1.81h.14a59.51 59.51 0 0020.3-3.68 31.73 31.73 0 004.86-2.32z"/><path class="cls-3" d="M404.93 392.39a162.71 162.71 0 012.28 40.8 149.58 149.58 0 01-3.11 22.51l-.08.41c-23.55 1.16-56.54 14.09-71.73 33.12-.35.44-.68.88-1 1.32a155.82 155.82 0 011.34-33 117.38 117.38 0 019.3-31.78A90.63 90.63 0 01364 395.72c1.62-1.54 2.11-2.09 1.59-2.67s-1.1-.16-2.81 1.27a89.33 89.33 0 00-24.1 29.93 115.86 115.86 0 00-10.62 32.58 156.91 156.91 0 00-2.06 19.34c-15.65 15.16-40.16 31.61-68.94 25.44.22-.49.47-1 .69-1.48q3.09-6.74 5.22-12.88a59 59 0 002.84-10.78 5.74 5.74 0 001.59-3.63c2.15-11.09 7.16-21.1 11.75-29.44 4.4-8 9.41-15.3 14.25-22.34l2-2.89c2.29-3.25 4.54-6.41 6.74-9.52 8.67-12.19 16.84-23.69 23.72-35a190.07 190.07 0 0016.7-33.43 87.6 87.6 0 0011.94 16c-.36.31-.69.61-1 .94l-3 2.64c-6.55 6.33-12.57 14.06-19.53 25.06-2.07 3.25-2.45 4.08-1.49 4.71s1.57 0 3.8-3.14c7.37-10.48 13.59-17.74 20.08-23.49l2.94-2.45a21.06 21.06 0 012.92-2.2l3-2 3.25-1.68c4.73-2.23 9.13-3.08 13.06-2.53a19.56 19.56 0 0111.15 5.81 43.76 43.76 0 017.53 10.62 93.55 93.55 0 017.72 23.88z"/><path class="cls-5" d="M404.31 389.66a90.13 90.13 0 00-7.12-21.2 43.76 43.76 0 00-7.53-10.62 19.56 19.56 0 00-11.15-5.84c-3.93-.55-8.33.3-13.06 2.53l-.73.38c17.71-.78 31.74 17.39 39.59 34.75z"/><path class="cls-7" d="M338.38 434.58a123.15 123.15 0 00-5.76 23 155.82 155.82 0 00-1.34 33c.33-.44.66-.88 1-1.32 15.19-19 48.18-32 71.73-33.12l.08-.41a149.58 149.58 0 003.11-22.51c.18-3 .28-5.86.33-8.74-12.46 22.79-43.68 26.16-69.15 10.1z"/><path class="cls-3" d="M204.1 406.3c-1.59-3-3.24-5.94-5-8.76s-3.61-5.56-5.42-8l-.28-.36c-2-2.67-4-5.45-6-8.39-6.93-10.26-16.64-26.11-21.21-45.09-2.26-9.76-2.43-18.63-.55-26.41-18.01 31.51 9.98 75.49 38.46 97.01z"/><path class="cls-3" d="M343.08 294.12c-.61-18.74-4.07-35.9-10.32-51.06-4.13-9.52-9.05-17.45-14.61-23.47a33 33 0 00-2.34-2.53A131.55 131.55 0 01284 240.2c-16.64 8.8-36 13.89-55.9 15a143.25 143.25 0 01-57.31-8.36 129.09 129.09 0 01-45.53-28.36c-1.35-1.3-2.7-2.65-4-4-.55.66-1.45 1.62-2.88 3.05-.64.66-1.3 1.46-2 2.37-.44.57-.94 1.15-1.46 1.78-1 1.22-2 2.73-3.11 4.32l-1.15 1.71a100.71 100.71 0 00-8.86 18.35c-6.41 17.47-9.36 38.93-8.28 60.44l.27 4.65.63 4.57c.17.91.28 1.84.42 2.81a37.41 37.41 0 001.21 6.52c.3 1.18.6 2.34.88 3.49.38 1.6.77 3.19 1.24 4.79.13.44.27.91.44 1.35l3.46 9.74c4.71 11.5 11.42 23.88 21.13 38.9 4.38 6.79 8.94 13.48 13.81 20.55 4.46 6.52 9.08 13.26 13.59 20.17 1.57 2.42 3.09 4.87 4.6 7.34l2.23 3.63c.74 1.38 1.51 2.73 2.25 4.05 1.38 2.45 2.81 4.95 4 7.59l2.83 6c.63 1.34 1.13 2.75 1.62 4.12.28.75.53 1.46.8 2.2a52.13 52.13 0 012.78 9.52c.28 1.24.55 2.45.88 3.66l.08.33-.08.5a3.8 3.8 0 001.35 1.79 23.27 23.27 0 006.74 3.68 54.38 54.38 0 0022.32 3.19c2.31-.19 4-.47 5-.6.17-3.53.44-6.85.72-10a12.39 12.39 0 01-.8-4.71 50.24 50.24 0 01.91-6.27c.14-.69.27-1.35.38-2.06 1.08-5.56 2.4-11.23 3.94-16.81.74-2.7 1.51-5.31 2.34-7.87-.22-.49-.42-1.13-.72-2a187.48 187.48 0 00-7.7-19.09c-1-2.05-2-4-3-5.93-28.48-21.52-56.47-65.5-38.5-97 .14-.56.25-1.13.41-1.68a38 38 0 016.63-13.07 40.2 40.2 0 0111.12-9.63c2.89-1.6 3.88-2 4.48-1.05s-.25 1.68-3.05 3.42a37.82 37.82 0 00-9.77 9.35 34.38 34.38 0 00-5.5 12c-1.87 7.62-1.57 16.09 1 25.91 4.73 18 14.28 33.21 21 43.14 1.95 2.81 3.93 5.45 5.86 8l.39.5c1.89 2.53 3.74 5.25 5.69 8.39a143.83 143.83 0 018.23 15.27c2.89 6.24 4.87 11.39 6.21 15.19a167.15 167.15 0 018.34-19.37 126.27 126.27 0 0110.62-17.58l2.06-2.81c3.33-4.54 6.77-9.22 9.85-14.17 8.75-14 14.34-26.77 17.11-38.95a62.22 62.22 0 001.41-10.62 42.57 42.57 0 00-.66-10.64 34.63 34.63 0 00-10-18.49 52.48 52.48 0 00-7.48-5.88c-1-.66-2.2-1.46-1.4-2.7l.3-.44.5-.14c.41-.11.82-.25 3.57 1.29a37.6 37.6 0 017 5.18A38.23 38.23 0 01271 310.08a45.54 45.54 0 011 11.66 67.93 67.93 0 01-1.32 11.36c-2.78 13-8.31 25.89-17.33 40.61-3.19 5.2-6.77 10.13-10.23 14.89l-1.86 2.4a127.84 127.84 0 00-10.16 17 176.45 176.45 0 00-10.26 25q-1.51 4.63-2.91 9.58c-1.52 5.45-2.84 11-3.91 16.4l-.36 1.76a56.46 56.46 0 00-.93 5.86v.82a8.39 8.39 0 002 4.62 22.3 22.3 0 0010.64 7.29 40.28 40.28 0 0011.86 2 52.54 52.54 0 0019.07-2.94 23.73 23.73 0 005.86-3 5.41 5.41 0 01.49-.38 3.62 3.62 0 001.41-2.18v-.44c2.09-11.58 7.16-22 11.81-30.73 4.34-8.12 9.24-15.49 14-22.61l2.09-3.2q2.94-4.29 5.78-8.41c8.72-12.74 17-24.74 23.72-36.38 8-13.7 13.81-26.57 17.25-38.35.24-.79.44-1.57.66-2.34l1.48-6a19.12 19.12 0 00.66-3.41l1.24-9.41a166 166 0 00.33-17.43z"/><path class="cls-5" d="M204.1 406.3c-1.59-3-3.24-5.94-5-8.76s-3.61-5.56-5.42-8l-.28-.36c-2-2.67-4-5.45-6-8.39-6.93-10.26-16.64-26.11-21.21-45.09-2.26-9.76-2.43-18.63-.55-26.41-18.01 31.51 9.98 75.49 38.46 97.01zm-78.83-187.78c-1.35-1.3-2.7-2.65-4-4-.55.66-1.45 1.62-2.88 3.05-.64.66-1.3 1.46-2 2.37-.44.57-.94 1.15-1.46 1.78-1 1.22-2 2.73-3.11 4.32l-1.15 1.71a100.71 100.71 0 00-8.86 18.35c-4.83 13.16-7.69 28.57-8.35 44.57 9.88-38.08 21.08-60.16 34.73-69.5-.99-.87-1.98-1.75-2.92-2.65zm217.81 75.6c-.61-18.74-4.07-35.9-10.32-51.06-4.13-9.52-9.05-17.45-14.61-23.47a33 33 0 00-2.34-2.53c-2.68 2.65-5.54 5.18-8.5 7.63 24.22 25.29 34.35 62 33.92 97.89a12.78 12.78 0 00.25-1.69l1.24-9.41a166 166 0 00.36-17.36z"/><path class="cls-6" d="M208.43 510.34a5.59 5.59 0 00-1.34-.8 3.83 3.83 0 00-3.36.16 5.94 5.94 0 00-2.31 2.92c-.44 1.13-.61 1.71-.88 2.56s-.5 1.48-.74 2.09a4 4 0 01-.39.77c0 .08-.08.08-.08.08h-.06c-.13.05-.11 0-.46 0a8.29 8.29 0 01-3.09-2 49.32 49.32 0 01-6.52-8.15 194.12 194.12 0 01-10.45-18.32c-1.46-2.89-2.81-5.67-4-8.25-.31-.69-.61-1.38-.88-2a35.63 35.63 0 005.64 2.48 57.74 57.74 0 0018.16 2.88 53.19 53.19 0 005.53-.27 29 29 0 004.64-.83c-.24 5.34-.33 11.09-.16 17.17.15 3.04.32 6.23.75 9.51z"/><path class="cls-3" d="M171.13 482.69a47.27 47.27 0 01-1-4.21c0-.2-.05-.42-.08-.61l-.86-2.91a5.23 5.23 0 01-.6-2.07l-.91-3.46a49.62 49.62 0 00-2.75-8.78c-.3-.77-.6-1.51-.88-2.26a34.61 34.61 0 00-1.57-3.77l-2.91-5.86c-1.19-2.47-2.62-4.87-4-7.2-.77-1.32-1.57-2.65-2.31-4-.77-1.19-1.57-2.45-2.4-3.69-1.48-2.34-3-4.68-4.51-6.93-4.45-6.58-9-13-13.45-19.21-5.15-7.23-10-14.08-14.66-21.07-10.24-15.18-17.24-27.81-22.3-39.72l-2.07-5.5a93.35 93.35 0 01-10.42 15.35c.41.33.8.69 1.18 1 .58.49 1.16 1 1.76 1.51 8.89 8.26 15.68 18.22 20.61 26 2.12 3.36 2.53 4.19 1.57 4.85s-1.57-.06-3.88-3.28c-5.23-7.4-12.33-16.84-21.08-24.35-.6-.44-1.21-1-1.81-1.45a34.28 34.28 0 00-4.32-3.17c-.44-.25-.86-.52-1.24-.77a22.19 22.19 0 00-2-1.24l-3.47-1.62c-4.81-1.93-9.51-2.34-13.53-1.18s-7.62 3.63-10.95 7.54c-3.05 3.52-5.17 7.75-7.1 11.8a105.62 105.62 0 00-7 25.31 168.44 168.44 0 00-.88 42.59 143.23 143.23 0 004.29 23.16c.08.28.14.53.19.77 23.8-1.51 55.8 10.51 71 26.47a155.75 155.75 0 00-1.6-34 115.8 115.8 0 00-9.38-31.06A91.42 91.42 0 0074 396.27c-1.62-1.51-2.12-2.06-1.59-2.64s1.1-.17 2.8 1.24A89.93 89.93 0 0199 424.11 115.47 115.47 0 01109.72 456a153.47 153.47 0 012.28 20.39c22.7 21.9 44.65 30.29 67 25.61-1.85-3.52-3.41-7-4.76-10.34-1.24-3.11-2.24-6.11-3.11-8.97z"/><path class="cls-5" d="M99.08 379.25a113.07 113.07 0 00-15.47-16.74c-.6-.44-1.21-1-1.81-1.45a34.28 34.28 0 00-4.32-3.17c-.44-.25-.86-.52-1.24-.77a22.19 22.19 0 00-2-1.24l-3.47-1.62c-4.81-1.93-9.51-2.34-13.53-1.18a22.31 22.31 0 00-10.51 7.07c17.95-7.94 37.97 4.44 52.35 19.1z"/><path class="cls-7" d="M30.93 409a174.81 174.81 0 00.41 31.37 143.23 143.23 0 004.29 23.16c.08.28.14.53.19.77 23.8-1.51 55.8 10.51 71 26.47a155.46 155.46 0 00-.87-28.73c-34.81 1.82-60.49-25.45-75.02-53.04z"/><path class="cls-6" d="M105.81 498.12c4.46 6.08 5.53 12 3.25 17.5-11.36 27.51-48.94 18.43-60.19 15C23.5 522.85 5.37 508.19 5.51 500l2.72.14c6.38.3 17.11.8 24.05.71a3.6 3.6 0 003.24-2 3.56 3.56 0 00-.33-3.72l-15.41-20.8a29.82 29.82 0 0110.27-3.82c.93-.17 1.87-.33 2.86-.44 23.63-3 59.53 10.56 72.46 27.46a5.72 5.72 0 01.44.59z"/><path class="cls-1" d="M302.53 72.1a28.08 28.08 0 00-12.25-.88 27.55 27.55 0 00-14.5 6.68 26.83 26.83 0 009.22 45.29 27.43 27.43 0 0030.57-8.83 28.45 28.45 0 005.09-10c-1.1-1.34-2.17-2.69-3.19-4a93.59 93.59 0 01-14.94-28.26zm-8.81 40.19a13.91 13.91 0 010-27.81 12.86 12.86 0 012.51.27A8.29 8.29 0 00302 99a8.13 8.13 0 005.34-2 12.87 12.87 0 01.13 1.38 13.81 13.81 0 01-13.75 13.91zM141 71.08c-.19.78-.41 1.56-.62 2.34a36.09 36.09 0 013-2.59c-.85.06-1.64.17-2.38.25z"/><path class="cls-1" d="M172.86 93.39a24.89 24.89 0 00-2.67-8 26.67 26.67 0 00-4.76-6.55 27.81 27.81 0 00-13.06-7.31 29.4 29.4 0 00-9.05-.72 36.09 36.09 0 00-3 2.59 80.84 80.84 0 01-4.17 11.8 82.41 82.41 0 01-4.76 8.94c-1.71 3-3.66 5.83-5.61 8.78q-2.28 3.25-4.71 6.46a28.12 28.12 0 0019.73 14.94 27.37 27.37 0 0029.2-13.73 26.57 26.57 0 002.86-17.2zm-25.67 18.9a13.91 13.91 0 010-27.81 13.12 13.12 0 012.51.27A8.29 8.29 0 00155.42 99a8.15 8.15 0 005.34-2 12.87 12.87 0 01.13 1.38 13.81 13.81 0 01-13.7 13.91z"/><path class="cls-2" d="M286.29 154.88c3.61 6.52 5.56 14.36 3.64 21.57a22.54 22.54 0 01-5.45 9.71 19.08 19.08 0 01-9.66 5.5c-7.62 1.79-16.26.06-24.76-2.06-4.32-1.18-8.67-2.34-13.07-3.55a85.07 85.07 0 00-14-2.72c-10.18-.61-19.31 2.86-27.71 5.58a86.8 86.8 0 01-12.43 3.36 32.91 32.91 0 01-12-.17l-2.86-.74c-.94-.3-1.82-.77-2.72-1.13a31.55 31.55 0 01-5.2-2.83c-1.68-1.07-3.2-2.45-4.76-3.63-.75-.63-1.35-1.29-2-1.93-.52-.74-1.18-1.4-1.62-2.17a18.75 18.75 0 01-3-10.26 28.73 28.73 0 012.31-10.73 51.44 51.44 0 0112.79-17.75 76.06 76.06 0 0117.28-12 92 92 0 0136.34-9.57 86.67 86.67 0 0136.78 7.64 77.57 77.57 0 0117.88 11 58.6 58.6 0 0114.22 16.88zm-26.22 23.69c11.12 1.32 21.52-7.95 14.75-19.2-6.46-10.71-27.18-11.81-33.37-11.89a1.44 1.44 0 00-1.46 1.73c1.32 6.3 6.74 27.79 20.08 29.36zm-60.52-29.36a1.44 1.44 0 00-1.43-1.73c-6.22.08-26.94 1.18-33.4 11.89-6.77 11.25 3.63 20.52 14.74 19.2 13.35-1.57 18.77-23.06 20.09-29.36z"/><path class="cls-7" d="M113.3 98.15c-29.75 4.25-44.72-24.32-50-51.5a121.74 121.74 0 00-4 29.24c-.13 15 2 30.82 7.9 45.59a66.81 66.81 0 0011.91 19.7l.22.25h.09l1.12-.88 2.26-1.84c3-2.45 5.86-5 8.69-7.54a227.58 227.58 0 0029.28-31.83c2-2.78 4-5.45 5.66-8.23q1.32-2 2.47-3.9c-4.35 5.16-9.03 9.63-15.6 10.94z"/><path class="cls-6" d="M407.24 489.84a3.49 3.49 0 01-2.48-5.28c2.17-3.58 9.77-16.1 13.18-21.76a32.9 32.9 0 00-7.68-1.33c-1-.08-2.14-.11-3.24-.11-23.55 0-58 15.71-70.43 31.31a33.33 33.33 0 00-4.3 6.77c-3.68 7.7-3.08 15.44 1.76 23 5.2 8.12 14.53 11.67 27.71 10.54 27-2.31 62.78-24.62 70.21-39.62-6.52-.96-20.63-2.94-24.73-3.52zM262.3 479.16c-.77 2.18-1.7 4.43-2.72 6.77-1.68 3.85-3.66 7.93-5.92 12.19s-4.73 8.75-7.62 13.29c-1.43 2.25-3 4.57-4.65 6.74a31.23 31.23 0 01-2.64 3 6.41 6.41 0 01-.85.71h-.05s.05 0-.11-.14a4.27 4.27 0 01-.64-.83 14.34 14.34 0 01-1.18-2.91c-.36-1.21-.69-2.64-1.21-4.32a11.61 11.61 0 00-.52-1.32l-.42-.91c-.19-.33-.46-.63-.68-.94a6.23 6.23 0 00-1.6-1.56 6.33 6.33 0 00-2.06-.72c-1.71-.3-3.22.58-4.52 1.84-.74.8-.88 1-1.23 1.41l-.88 1.12c-1.16 1.46-2.2 2.89-3.28 4.16-.55.63-1.07 1.21-1.59 1.73-.28.22-.55.52-.77.69l-.47.33h-.06c-.06 0-.3-.5-.46-.72a31 31 0 01-2.43-8.86c-.52-3.16-.85-6.32-1.1-9.43-.68-9-.88-17.39-1-24.87a26.49 26.49 0 0012.36 7.74 44.25 44.25 0 0013 1.81h.14a59.51 59.51 0 0020.3-3.68 31.73 31.73 0 004.86-2.32zm-53.87 31.18a5.59 5.59 0 00-1.34-.8 3.83 3.83 0 00-3.36.16 5.94 5.94 0 00-2.31 2.92c-.44 1.13-.61 1.71-.88 2.56s-.5 1.48-.74 2.09a4 4 0 01-.39.77c0 .08-.08.08-.08.08h-.06c-.13.05-.11 0-.46 0a8.29 8.29 0 01-3.09-2 49.32 49.32 0 01-6.52-8.15 194.12 194.12 0 01-10.45-18.32c-1.46-2.89-2.81-5.67-4-8.25-.31-.69-.61-1.38-.88-2a35.63 35.63 0 005.64 2.48 57.74 57.74 0 0018.16 2.88 53.19 53.19 0 005.53-.27 29 29 0 004.64-.83c-.24 5.34-.33 11.09-.16 17.17.15 3.04.32 6.23.75 9.51zm-102.61-12.22c-.14-.19-.28-.41-.45-.6-12.93-16.9-48.83-30.52-72.46-27.46-1 .11-1.93.27-2.86.44a29.82 29.82 0 00-10.27 3.82l15.41 20.8a3.56 3.56 0 01.33 3.72 3.6 3.6 0 01-3.24 2c-6.94.09-17.67-.41-24-.71L5.51 500c-.14 8.2 18 22.86 43.36 30.62 11.25 3.44 48.83 12.52 60.19-15 2.28-5.53 1.21-11.42-3.24-17.5z"/><path class="cls-7" d="M363.66 95.4c-15.56 6.91-32.19 1.88-47.19-6.91a97.85 97.85 0 005.89 7.93 147 147 0 0026.83 25.09c.9.71 1.84 1.37 2.78 2 2.86 2.07 5.86 4 8.91 6 1.54 1 3.08 1.9 4.65 2.81l2.39 1.35 1.18.66.23.11.17-.19.47-.44c1-1.38 2.25-2.59 3.21-4.13a52.91 52.91 0 002.87-4.57c.93-1.54 1.73-3.22 2.55-4.87 6.33-13.48 9.55-28.14 10.82-42.12.13-1.46.22-2.92.3-4.37-6.72 9.82-15.44 17.67-26.06 21.65z"/><ellipse class="cls-4" cx="218.24" cy="38.35" rx="42.48" ry="12.08"/><ellipse class="cls-5" cx="218.24" cy="35.6" rx="19.1" ry="5.43"/><path class="cls-1" d="M269.52 136.08a77.87 77.87 0 00-15.33-9.08 86.67 86.67 0 00-36.79-7.57 92 92 0 00-36.34 9.57 76.06 76.06 0 00-17.28 12c-.89.83-1.76 1.71-2.61 2.6 47.76-26.21 66.06-21.68 108.35-7.52z"/><path class="cls-2" d="M179.46 178.57c-11.11 1.32-21.51-7.95-14.74-19.2 6.46-10.71 27.18-11.81 33.4-11.89a1.44 1.44 0 011.43 1.73c-1.32 6.3-6.74 27.79-20.09 29.36zm80.61 0c-13.34-1.6-18.76-23.06-20.08-29.36a1.44 1.44 0 011.46-1.73c6.19.08 26.91 1.18 33.37 11.89 6.77 11.25-3.63 20.52-14.75 19.2z"/><path class="cls-2" d="M241.45 147.48a1.44 1.44 0 00-1.46 1.73c1.32 6.3 6.74 27.76 20.08 29.36 11.12 1.32 21.52-7.95 14.75-19.2-6.46-10.71-27.18-11.81-33.37-11.89zm-43.33 0c-6.22.08-26.94 1.18-33.4 11.89-6.77 11.25 3.63 20.52 14.74 19.2 13.35-1.6 18.77-23.06 20.09-29.36a1.44 1.44 0 00-1.43-1.73z"/><path class="cls-8" d="M269.58 508.47a65.23 65.23 0 01-16.15-2l1.36-5.33c29.78 7.55 55.19-9.43 71.26-25l3.83 3.95c-14.14 13.67-35.18 28.38-60.3 28.38zm-102.58.31c-19.76 0-39.22-9.49-59.07-28.73l3.83-3.95c23.68 22.95 46.54 31.23 69.86 25.31l1.35 5.33a64.59 64.59 0 01-15.97 2.04zM107 385.3c-4.92-7.76-11.71-17.72-20.61-26-.6-.5-1.18-1-1.76-1.53a37 37 0 00-4.68-3.71c-.39-.25-.77-.52-1.14-.79a24 24 0 00-2.36-1.54l-3.71-1.92a26.18 26.18 0 00-16.87-1.95c-5 1.2-9.82 4.28-14 8.89-3.68 4-6.15 8.6-8.37 13a109.29 109.29 0 00-8.09 26.8 169.39 169.39 0 00-1.71 44.48 144.19 144.19 0 004.3 24.51c.83 3.19 1.1 3.34 1.43 3.53l.39.21 5.69-1.66c1.09-.32.89-1.31.13-4.14a141.82 141.82 0 01-4.3-23.17 167.45 167.45 0 01.89-42.58 105 105 0 017-25.33c1.91-4 4-8.28 7.08-11.77 3.35-3.92 7-6.46 11-7.55s8.73-.75 13.54 1.18l3.45 1.63a19 19 0 012 1.22c.4.26.79.53 1.22.79a32.24 32.24 0 014.33 3.16c.61.5 1.23 1 1.82 1.46 8.76 7.49 15.86 16.94 21.07 24.34 2.31 3.23 2.93 3.92 3.9 3.27s.49-1.49-1.64-4.83zm112.78 44.09a180.29 180.29 0 00-7.71-19.49 142.37 142.37 0 00-8.23-15.29c-1.94-3.12-3.8-5.86-5.7-8.37l-.38-.52c-1.92-2.56-3.91-5.21-5.85-8-6.76-9.91-16.28-25.18-21-43.13-2.52-9.81-2.84-18.28-1-25.9a34.73 34.73 0 015.51-12 38.19 38.19 0 019.78-9.35c2.78-1.74 3.63-2.39 3-3.4s-1.58-.58-4.49 1a40.51 40.51 0 00-11.1 9.62 38.48 38.48 0 00-6.61 13.06c-.16.56-.28 1.14-.42 1.71a45.86 45.86 0 017.47-9.71 45.86 45.86 0 00-7.47 9.71c-1.87 7.78-1.69 16.63.57 26.38 4.58 19 14.29 34.84 21.2 45.11 2 2.94 4.07 5.71 6.06 8.38l.28.37c1.8 2.4 3.58 5 5.42 8 1.76 2.81 3.41 5.72 5 8.75 1 1.93 2 3.89 3 5.94a187.91 187.91 0 017.71 19.08c.76 2.26 1 3.11 1.77 3.11a1.58 1.58 0 00.44-.08l2.89-.93c1.08-.37.82-1.1-.14-4.05zM208.11 481c-1 .15-2.76.42-5.12.62a54.48 54.48 0 01-22.27-3.12 22.54 22.54 0 01-6.72-3.67 4.08 4.08 0 01-1.37-1.81l.08-.48-.08-.33c-.31-1.21-.59-2.44-.86-3.66A56.24 56.24 0 00169 459c-.28-.72-.54-1.45-.8-2.18a44 44 0 00-1.63-4.15l-2.84-6c-1.22-2.64-2.65-5.16-4-7.61-.76-1.32-1.51-2.65-2.26-4.05l-2.23-3.61c-1.52-2.47-3-4.94-4.6-7.34-4.51-6.93-9.13-13.66-13.6-20.17-4.85-7.09-9.44-13.78-13.8-20.55-9.71-15-16.42-27.4-21.11-38.93l-3.48-9.72c-.69-2-1.2-4.11-1.69-6.13-.28-1.17-.56-2.33-.88-3.5a37.76 37.76 0 01-1.21-6.52c-.13-.95-.25-1.9-.4-2.82l-.64-4.57-.27-4.64c-1.08-21.52 1.86-43 8.28-60.43a100.06 100.06 0 018.86-18.35l1.16-1.7c1.09-1.61 2.11-3.13 3.1-4.34.53-.62 1-1.21 1.47-1.78.74-.91 1.4-1.72 2-2.37 3.76-3.81 4-4.18 3.27-5l-3.76-4c-.77-.8-1.47-.12-2.63 1-.7.66-1.65 1.6-2.66 2.64-.78.8-1.54 1.75-2.42 2.85l-1.49 1.82c-1.19 1.48-2.38 3.25-3.63 5.12l-1.11 1.59a106.86 106.86 0 00-9.49 19.92c-4.69 13.07-9.92 34.68-8.16 63.48l.35 4.87.73 4.91c.16.94.3 1.89.43 2.85a43.6 43.6 0 001.44 7.19c.32 1.14.62 2.31.92 3.48.56 2.17 1.13 4.41 1.92 6.62L95.92 347c5 11.91 12.12 24.53 22.27 39.72 4.66 7 9.53 13.83 14.68 21.07 4.42 6.22 9 12.64 13.43 19.2 1.55 2.28 3 4.6 4.54 6.94.8 1.24 1.6 2.5 2.38 3.69s1.53 2.66 2.32 4c1.38 2.33 2.81 4.74 4 7.21l2.9 5.85a37.7 37.7 0 011.58 3.77c.28.74.55 1.48.87 2.25a50.64 50.64 0 012.76 8.77c.29 1.17.58 2.33.9 3.49a5.33 5.33 0 00.59 2.06l2 6.91-.25-4.65c.21.19.43.37.67.55a26.82 26.82 0 008 4 57.08 57.08 0 0018.15 2.91 53.24 53.24 0 005.54-.28 34.51 34.51 0 005.06-.91c1.38-.4 2.58-.74 2.28-1.82s-1.14-.91-2.48-.73z"/><path class="cls-9" d="M169.76 474.21a15.16 15.16 0 00.36 4.27c.26 1.37.61 2.77 1 4.2.82 2.86 1.87 5.86 3.11 9a110.77 110.77 0 0010.1 19.52 45.7 45.7 0 007.64 9.12 12.48 12.48 0 006 3.1 6.16 6.16 0 004.4-1.12l.82-.84c.23-.34.47-.72.6-1a10.38 10.38 0 00.61-1.51c.29-.94.48-1.79.64-2.57s.3-1.34.44-2c0-.37.32-1 .83-.79a1.65 1.65 0 01.8.44c.47.4 1 .86 1.44 1.32a27.8 27.8 0 003.05 2.62l1.64-1.88a35.82 35.82 0 01-2.27-2.88c-.4-.54-.82-1.1-1.33-1.7a7.63 7.63 0 00-2.59-2 3.76 3.76 0 00-3.36.17 5.77 5.77 0 00-2.31 2.9c-.45 1.13-.62 1.73-.9 2.56s-.47 1.48-.73 2.1a5.94 5.94 0 01-.38.76c-.08.11-.08.09-.08.09h-.07c-.13.07-.11 0-.46 0a8.68 8.68 0 01-3.1-2 48.92 48.92 0 01-6.49-8.15 192.31 192.31 0 01-10.47-18.32c-1.46-2.89-2.8-5.66-4-8.25a34.77 34.77 0 01-2.54-7z"/><path class="cls-9" d="M209.12 467.28a249.39 249.39 0 00-1.4 33.48c.11 3.21.31 6.51.74 9.93s.91 6.89 2.75 10.74a9.07 9.07 0 00.93 1.49 8.94 8.94 0 00.87 1c.32.25.68.47 1 .71a4.91 4.91 0 004.79.11 6.53 6.53 0 001.8-1 14.8 14.8 0 001.25-1.06 29.33 29.33 0 002-2.16c1.25-1.45 2.37-2.93 3.46-4.32l.82-1 .57-.66s-.06-.12.07.16.21.57.32.84c.41 1.25.76 2.74 1.22 4.19a18.28 18.28 0 001.84 4.24 10.76 10.76 0 001.45 1.81 10.87 10.87 0 002.17 1.6l.5.18h.12s0 .09.08 0h.07l.26.07a2.32 2.32 0 001 .13 5.4 5.4 0 002.07-.55 10.58 10.58 0 002.67-2 31.9 31.9 0 003.11-3.69 85.6 85.6 0 004.75-7.33c2.83-4.83 5.17-9.52 7.23-14s3.79-8.77 5.22-12.86a53.52 53.52 0 002.94-11.86l-2.47-.31a58.53 58.53 0 01-3.84 10.85q-2.54 5.78-5.92 12.18c-2.25 4.26-4.75 8.74-7.62 13.28-1.44 2.27-3 4.57-4.66 6.74a28.93 28.93 0 01-2.63 3 6.28 6.28 0 01-.85.71h-.07c-.01 0 0 0-.11-.14a4.06 4.06 0 01-.62-.81 13.37 13.37 0 01-1.18-2.92c-.38-1.22-.69-2.64-1.23-4.32-.17-.45-.27-.84-.5-1.33l-.43-.91c-.2-.33-.45-.62-.67-.93a6.7 6.7 0 00-1.62-1.57 6.56 6.56 0 00-2.06-.72 5.26 5.26 0 00-4.51 1.85c-.73.8-.87 1-1.22 1.4l-.9 1.13c-1.14 1.47-2.19 2.88-3.27 4.16-.54.63-1.08 1.22-1.6 1.74-.26.22-.54.52-.77.67l-.45.34a.07.07 0 01-.07 0 4.47 4.47 0 01-.46-.7 31.17 31.17 0 01-2.42-8.85c-.51-3.17-.83-6.35-1.09-9.46-.93-12.45-1-23.77-1-33.05z"/><path class="cls-8" d="M341.09 239.72C336.93 229 331.79 220 325.85 213a40.22 40.22 0 00-4.46-4.79c-2.09-2-2.33-2.14-3-2.12h-.59l-5.23 5.91c-.92 1.06-.15 1.81 1.71 3.63l.25.23a44.9 44.9 0 013.63 3.76c5.56 6 10.47 13.92 14.59 23.45 6.25 15.16 9.72 32.34 10.32 51.06a165.63 165.63 0 01-.35 17.36l-1.23 9.42a20.21 20.21 0 01-.67 3.42l-1.47 6C336 342.72 330 356.41 321.43 371c-6.77 11.64-15 23.64-23.72 36.35-1.89 2.77-3.82 5.57-5.77 8.43l-2.1 3.18c-4.74 7.14-9.64 14.52-14 22.62-4.66 8.7-9.71 19.16-11.8 30.75v.43c0 .42-.46 1.49-1.91 2.56a23.53 23.53 0 01-5.86 3 51.93 51.93 0 01-19.06 3 40.07 40.07 0 01-11.87-2.06 22.22 22.22 0 01-10.63-7.26 8.19 8.19 0 01-2-5.44 58.28 58.28 0 011-5.87l.33-1.73c1.08-5.43 2.4-10.95 3.92-16.41A189 189 0 01231.1 408a123 123 0 0110.17-17l1.73-2.4c3.47-4.76 7.05-9.68 10.23-14.9 9-14.71 14.55-27.6 17.33-40.61a66.86 66.86 0 001.33-11.36 45.09 45.09 0 00-1-11.65 38.45 38.45 0 00-18.48-25.54c-2.76-1.54-3.18-1.41-3.59-1.29l-.5.15-.28.43c-.81 1.24.42 2.05 1.4 2.7a51.35 51.35 0 017.46 5.88 34.65 34.65 0 0110 18.48 41.69 41.69 0 01.71 10.67 63.27 63.27 0 01-1.4 10.63c-2.77 12.19-8.37 24.94-17.12 38.95-3.07 5-6.51 9.64-9.84 14.17l-2.07 2.82a127.19 127.19 0 00-10.61 17.58 189 189 0 00-13.47 35.48c-1.52 5.6-2.84 11.26-3.91 16.83-.13.7-.25 1.38-.38 2.05a52.3 52.3 0 00-.92 6.28 12.7 12.7 0 003.14 8.59 26 26 0 0012.97 8.41 43.76 43.76 0 0013 1.81h.14a59.44 59.44 0 0020.29-3.68 27.92 27.92 0 006.66-3.49c2.08-1.52 3.26-3.39 3.29-5.16 2.15-11.09 7.14-21.1 11.75-29.44 4.4-8 9.41-15.27 14.25-22.34l2-2.89c2.27-3.23 4.52-6.39 6.74-9.51 8.65-12.19 16.82-23.7 23.71-35 9.25-15.07 15.6-28.7 19.45-41.69l1.69-6.19a24.77 24.77 0 00.85-3.89l1.54-9.75a173 173 0 00.88-18.14c-.04-19.7-3.11-37.99-9.15-54.27zM109.73 456A115.58 115.58 0 0099 424.12a89.79 89.79 0 00-23.79-29.25c-1.69-1.41-2.29-1.83-2.8-1.25s0 1.13 1.59 2.66a91.06 91.06 0 0121.79 29.42 116.44 116.44 0 019.4 31.08 155.88 155.88 0 011.28 38l-.06.76c-.15 1.64-.19 2.37.58 2.46l3.93.41.22-.19c.19-.15.36-.29.52-2.21v-.66a151 151 0 00-1.93-39.35z"/><path class="cls-10" d="M75 540.46a95.93 95.93 0 01-27.73-4.58C22.47 528.3-2.57 511.66.21 498a4.37 4.37 0 014.53-3.53l3.74.17c5.27.25 13.49.63 20 .71l-13.84-18.74a4.29 4.29 0 01.95-6.08c4.31-3.09 9.9-5.09 16.62-6 25.7-3.28 63.38 11.09 77.53 29.59 6 7.85 7.53 16 4.41 23.53C108 532.63 94 540.46 75 540.46zM5.51 500c-.15 8.2 18 22.87 43.37 30.62 11.24 3.43 48.82 12.51 60.19-15 2.36-5.71 1.11-11.79-3.7-18.09C92.45 480.64 56.54 467 32.9 470.05a31.92 31.92 0 00-13.1 4.28l15.39 20.8a3.56 3.56 0 01.33 3.71 3.63 3.63 0 01-3.25 2c-6.93.09-17.65-.42-24.05-.72zm.1-.91zm13.45-25.75z"/><path class="cls-11" d="M199.54 149.2a1.43 1.43 0 00-1.43-1.73c-6.2.09-26.92 1.19-33.39 11.9-6.78 11.24 3.62 20.52 14.75 19.19 13.33-1.56 18.76-23.05 20.07-29.36z"/><path class="cls-11" d="M199.54 149.2a1.43 1.43 0 00-1.43-1.73c-6.2.09-26.92 1.19-33.39 11.9-6.78 11.24 3.62 20.52 14.75 19.19 13.33-1.56 18.76-23.05 20.07-29.36zm40.46 0a1.44 1.44 0 011.44-1.73c6.19.09 26.91 1.19 33.38 11.9 6.78 11.24-3.62 20.52-14.74 19.19-13.34-1.56-18.77-23.05-20.08-29.36z"/><path class="cls-11" d="M240 149.2a1.44 1.44 0 011.44-1.73c6.19.09 26.91 1.19 33.38 11.9 6.78 11.24-3.62 20.52-14.74 19.19-13.34-1.56-18.77-23.05-20.08-29.36zM139.1 71.45a29.85 29.85 0 0113.26.09 28 28 0 0113.06 7.32 26.56 26.56 0 014.77 6.55 24.83 24.83 0 012.68 8 26.66 26.66 0 01-2.93 17.2 27.37 27.37 0 01-29.09 13.75A28 28 0 01120 106.78l-2.38.74a29 29 0 007.14 12.94 30.44 30.44 0 0015.09 8.72 31.35 31.35 0 0019.52-1.59 31.87 31.87 0 0015.76-14.21 31.42 31.42 0 003.3-21 29.07 29.07 0 00-3.53-9.55 30.4 30.4 0 00-6-7.57 30.31 30.31 0 00-30.43-6.22z"/><path class="cls-11" d="M155.42 99a8.31 8.31 0 01-5.73-14.3 13.65 13.65 0 00-2.49-.25 13.9 13.9 0 1013.7 13.9 12 12 0 00-.14-1.36 8.15 8.15 0 01-5.34 2.01zm165.85 2.45a28.25 28.25 0 01-5.74 12.9 27.35 27.35 0 01-45-3 26.67 26.67 0 015.2-33.47 27.73 27.73 0 0114.5-6.7 29.33 29.33 0 0114.07 1.45l1-2.28a30.39 30.39 0 00-15.46-3A30.8 30.8 0 00261.77 92a31.87 31.87 0 0042.28 36.07 30.34 30.34 0 0014.62-11.47 29.32 29.32 0 005.07-14.91z"/><path class="cls-11" d="M302 99a8.3 8.3 0 01-5.73-14.3 13.67 13.67 0 00-2.5-.25 13.9 13.9 0 1013.7 13.9 12 12 0 00-.14-1.36A8.14 8.14 0 01302 99z"/><path class="cls-8" d="M299.75 47.78c-23-17.86-52.3-27.7-82.57-27.7A135.28 135.28 0 00144.25 41l-1.48-2.32a138 138 0 0174.41-21.33c30.88 0 60.8 10 84.26 28.28z"/><path class="cls-11" d="M345.59 122.33a92.74 92.74 0 010 19.06l-.39 5c-.13 1.67-.62 3.35-.92 5.06a69.73 69.73 0 01-2.37 10.29 109.91 109.91 0 01-21.44 40.29 125.69 125.69 0 01-39.81 31.46c-15.82 8.15-34.08 12.85-53 13.94a139.68 139.68 0 01-54.29-7.61 126.25 126.25 0 01-43.58-26.14 115.52 115.52 0 01-27-36.87 111.28 111.28 0 01-9.71-38.42l-3.32.1A109.9 109.9 0 0098 178.9a117.15 117.15 0 0027.25 39.61 129.41 129.41 0 0045.54 28.38 143.45 143.45 0 0057.28 8.36C248 254.1 267.36 249 284 240.19a129 129 0 0041.54-34 112.22 112.22 0 0021.33-43.11 72.77 72.77 0 002.06-10.88c.24-1.8.57-3.56.72-5.32s.13-3.52.18-5.25a90.94 90.94 0 00-.95-19.73z"/><path class="cls-11" d="M126.66 7.36c.2-.47-1.73-1.63-4.76-2.86l-1.67-.67-1.76-.5-3.62-1a25.05 25.05 0 00-3.85-.72c-1.32-.17-2.65-.45-4-.53a43.26 43.26 0 00-17.36 2.47 43.42 43.42 0 00-16.08 10.9 66.84 66.84 0 00-11.73 17.27c-6.15 13-9.37 28.14-10 44-.42 15.83 1.61 32.63 8.06 48.72a73.35 73.35 0 0013.44 21.92l3.91 4.1 1 1c.09.05.16.27.26.16l.29-.22.59-.44 2.3-1.75 2.12-1.66 1.41-1.14 2.32-1.94c3.07-2.58 6-5.24 8.88-7.9a212.55 212.55 0 0029.35-33.65c1.94-2.94 3.9-5.8 5.59-8.77a82.75 82.75 0 004.77-9A86.71 86.71 0 00141.81 67c2.28-11.84 2.73-22.54 3.12-31.85.13-3.22-.12-5.46-.63-5.5s-1.14 2.12-1.57 5.3c-1.22 9.2-2.46 19.83-5.32 31a86.53 86.53 0 01-6.23 16.82 79.48 79.48 0 01-4.84 8.2c-1.73 2.78-3.72 5.46-5.69 8.23a225.74 225.74 0 01-29.26 31.84c-2.83 2.54-5.71 5.09-8.71 7.54l-2.26 1.83-1.12.89c-.09.06-.06 0-.08 0l-.22-.24a67.34 67.34 0 01-11.93-19.71c-5.94-14.76-8-30.62-7.88-45.58s3-29.32 8.27-41.56S81.09 12.2 91.35 7.73a40.73 40.73 0 0115.52-3.23c1.28 0 2.53.15 3.78.21a24.54 24.54 0 013.66.39l3.53.67 1.73.32 1.65.51c3.02.91 5.25 1.23 5.44.76z"/><path class="cls-8" d="M173 24.41l-.23-.46a54.48 54.48 0 00-6.82-10.69 35.4 35.4 0 00-8.17-7.37A27 27 0 00145 1.63a33.12 33.12 0 00-14.79 2.52A61.26 61.26 0 00116.33 12c-7.82 5.71-15.73 13.41-24.18 23.52-1.17 1.39-1.71 2.08-1.1 2.62a.62.62 0 00.45.2c.5 0 1.09-.59 2-1.58 9-9.57 17.17-16.71 24.84-21.83 6.76-4.55 16.79-9.76 26.24-8.72A22.23 22.23 0 01155.07 10a30.9 30.9 0 016.93 6.49 51.21 51.21 0 016.06 9.8l.2.41c.53 1.14.87 2 1.65 1.64l3.6-1.63.1-.27c.04-.22.12-.44-.61-2.03z"/><path class="cls-11" d="M302.12 32.07c-.5-.11-1.27 1.86-1.9 4.86a72 72 0 00.88 30.21 91.87 91.87 0 0016.33 33.13 146.2 146.2 0 0030.19 29.28c3 2.21 6 4.32 9.21 6.36 1.58 1 3.19 2 4.84 3l2.48 1.45 1.26.71 1 .56 1.24.64 2.48 1.27c.2.08.42.26.61.26l.51-.47 1-1 3.44-3.36a57 57 0 003.83-4.85 51.25 51.25 0 003.28-5.18c1.07-1.74 1.94-3.57 2.83-5.4 6.9-14.7 10.07-30.09 11.17-44.88s-.32-29.28-5-42a55.27 55.27 0 00-9.8-17.1A39.32 39.32 0 00367.05 9a43.61 43.61 0 00-8.16-2.39c-1.35-.22-2.71-.29-4-.44A21.47 21.47 0 00351 6a47.91 47.91 0 00-7.4.49 50 50 0 00-6.78 1.24c-3 .74-4.91 1.59-4.78 2.08s2.24.53 5.17.08a50.45 50.45 0 016.62-.58 48.75 48.75 0 017 .1 19.48 19.48 0 013.61.45c1.2.22 2.44.38 3.65.66a40.41 40.41 0 017.17 2.62 35.45 35.45 0 0112.56 10 50.78 50.78 0 018.08 15.67c3.85 11.76 4.8 25.41 3.56 39.39s-4.48 28.63-10.82 42.1c-.82 1.67-1.61 3.34-2.56 4.89a43.9 43.9 0 01-2.87 4.56c-.95 1.54-2.16 2.75-3.21 4.14l-.45.44-.23.22-.22-.12-1.2-.65-2.37-1.35c-1.57-.92-3.13-1.85-4.66-2.82q-4.59-2.86-8.92-5.95a150.51 150.51 0 01-29.59-27.15 92.09 92.09 0 01-16.92-30.47 74.88 74.88 0 01-3.05-28.72c.34-3.04.23-5.15-.27-5.25z"/><path class="cls-8" d="M355.59 59c-2.44-12.29-6.29-28.07-14.42-41a28.82 28.82 0 00-2-2.89c-.37-.49-.73-1-1.09-1.49-.79-1-1.68-2-2.53-3l-.95-1a34.25 34.25 0 00-8.3-6.21A27.21 27.21 0 00316.73.3a30.34 30.34 0 00-9.52.17 49.12 49.12 0 00-15.75 5.73 85.91 85.91 0 00-11.37 7.6 125.55 125.55 0 00-12.14 11l-.18.18c-1.52 1.59-1.52 1.79-1.51 2v.29l2.89 2.73c.56.52 1.06.05 2.41-1.37l.19-.2a126.91 126.91 0 0111.52-10.63 83.1 83.1 0 0110.6-7.32A44.92 44.92 0 01308 5a25.93 25.93 0 018.2-.34 23 23 0 018.24 2.43 30.81 30.81 0 017.44 5.26l1 1c.78.82 1.59 1.66 2.3 2.52.36.49.73 1 1.11 1.44a24.59 24.59 0 011.88 2.57c8.16 12.08 12.64 27.46 15.63 39.51.58 2.31.82 3 1.41 3h.22c.73-.14.68-.77.16-3.39z"/><path class="cls-11" d="M119.08 163.08c-.35 0-.72 1.7-.67 4.23a42.05 42.05 0 008.38 23.33c5.53 7.61 13.7 14.2 23.27 19.39 19.22 10.38 43.74 15.87 69.61 16.38s50.65-4.28 70-14.55c9.63-5.12 17.78-11.85 23.13-19.6a44.46 44.46 0 008-23.49c.05-2.52-.26-4.24-.63-4.23s-.76 1.68-1 4.09a44.47 44.47 0 01-9.07 21.62c-5.39 6.93-13.25 12.87-22.56 17.43-18.7 9.11-42.69 13.25-67.77 12.88s-48.88-5.43-67.53-14.7c-9.29-4.64-17.21-10.49-22.77-17.29a41.64 41.64 0 01-9.41-21.4c-.27-2.4-.57-4.08-.98-4.09z"/><path class="cls-11" d="M110.3 168.8a.53.53 0 00.52-.12 12.77 12.77 0 017.51-3.75c3.48-.63 6.88-.48 9.13-.78a.49.49 0 00.4-.38.46.46 0 00-.23-.49 16.05 16.05 0 00-9.86-1.42 11.11 11.11 0 00-5.44 2.51 6.81 6.81 0 00-2.32 4 .42.42 0 00.29.43zm218.7 0a.42.42 0 00.29-.47 6.79 6.79 0 00-2.31-4 11.15 11.15 0 00-5.44-2.51 16 16 0 00-9.86 1.42.44.44 0 00-.23.49.48.48 0 00.4.38c2.24.3 5.64.15 9.12.78a12.74 12.74 0 017.51 3.75.54.54 0 00.52.16z"/><path class="cls-8" d="M82.17 358.29L78 354.65c.11-.13 10.92-12.44 13.76-22.42l5.3 1.51c-3.15 11.18-14.42 24.01-14.89 24.55zM411.68 391a98.54 98.54 0 00-9-25.48 50.3 50.3 0 00-9-11.91 25.15 25.15 0 00-14.53-6.9c-5-.53-10.34.66-15.91 3.55l-3.53 2-3.14 2.3a25.07 25.07 0 00-3.15 2.57l-2.95 2.65c-6.56 6.33-12.59 14.07-19.54 25.07-2.07 3.24-2.46 4.06-1.5 4.71s1.58 0 3.81-3.16c7.38-10.48 13.58-17.74 20.08-23.49l3-2.46a21.86 21.86 0 012.92-2.18l3-2 3.24-1.68c4.73-2.24 9.12-3.09 13.07-2.53a19.61 19.61 0 0111.15 5.8 44.52 44.52 0 017.53 10.62 93.43 93.43 0 017.72 23.93 163.16 163.16 0 012.29 40.8 152.21 152.21 0 01-3.11 22.51c-.55 2.64-.73 3.72.4 4l5.78 1.32.37-.24c.31-.2.58-.38 1.2-3.45a156.65 156.65 0 003-23.67 164.6 164.6 0 00-3.2-42.68z"/><path class="cls-8" d="M365.61 393.05c-.52-.58-1.11-.16-2.81 1.27a89.54 89.54 0 00-24.11 29.92 116.93 116.93 0 00-10.61 32.58 151.48 151.48 0 00-1.5 40.77c.2 1.94.37 2.08.56 2.22l.23.19 3.91-.48c.81-.09.72-.94.55-2.49v-.24a155.61 155.61 0 01.83-39.22 117.91 117.91 0 019.28-31.77A90.9 90.9 0 01364 395.73c1.65-1.55 2.13-2.09 1.61-2.68zM356 357.83c-.55-.55-13.39-13.62-16.59-24.88l5.29-1.51c2.82 9.9 15.09 22.4 15.21 22.52z"/><path class="cls-10" d="M357.26 538.67c-12.69 0-22.25-4.53-27.83-13.25-7.57-11.83-6.58-24.35 2.86-36.19 19.39-24.31 67.89-38.67 88.58-31.25a4.62 4.62 0 012.79 2.79 4.53 4.53 0 01-.4 3.86c-2.52 4.17-8.85 14.64-12.23 20.19 6.25.88 17.84 2.52 22.77 3.24a4.68 4.68 0 013.44 2.36 4.62 4.62 0 01.24 4.11c-8.29 19.66-50.11 41.78-75.27 43.92-1.69.15-3.35.22-4.95.22zM407 461.36c-23.54 0-58 15.71-70.42 31.3-7.94 10-8.8 20-2.53 29.79 5.19 8.11 14.52 11.66 27.69 10.52 27-2.3 62.78-24.62 70.22-39.62-6.53-.94-20.64-2.93-24.73-3.51a3.49 3.49 0 01-2.68-2 3.45 3.45 0 01.2-3.31c2.18-3.58 9.76-16.1 13.18-21.75a37.48 37.48 0 00-10.93-1.42z"/><path class="cls-9" d="M2.75 495.01l23.91-8.11 7.38 11.48-31.29-3.37zm432.79-6.24l-22.32-14.4-6.37 10.5 28.69 3.9z"/><path class="cls-11" d="M217.33 116.9a92.14 92.14 0 00-38 8.58 78.12 78.12 0 00-18.58 12.15 55.48 55.48 0 00-14.36 19.15 33.87 33.87 0 00-2.87 12.61 24 24 0 003.64 13.15 31.88 31.88 0 002.09 2.84c.81.82 1.62 1.72 2.47 2.46 1.75 1.36 3.4 2.86 5.28 4.11a39.24 39.24 0 006 3.36c1.07.44 2.12 1 3.22 1.34l3.42.93a37.74 37.74 0 0014.09.32 94 94 0 0013.35-3.47c8.52-2.8 17-5.82 25.46-5.26 8.55.81 17.28 3.91 26.08 6s18.06 4.13 27.52 1.9a24.43 24.43 0 0012.31-7.2 27.55 27.55 0 006.61-12.13c2.26-9.1-.37-18.16-4.45-25.3a63.18 63.18 0 00-15.76-17.91 80.44 80.44 0 00-19.15-11.19 87.42 87.42 0 00-38.39-6.48l.09 2.49a87 87 0 0136.78 7.65 77.62 77.62 0 0117.88 11 59.1 59.1 0 0114.24 16.84c3.59 6.53 5.54 14.35 3.62 21.57a22.35 22.35 0 01-5.45 9.71 19 19 0 01-9.65 5.5c-7.61 1.79-16.27.07-24.76-2.06l-13.06-3.5a82.56 82.56 0 00-14-2.72c-10.18-.63-19.31 2.84-27.7 5.59a89.81 89.81 0 01-12.44 3.33 32.53 32.53 0 01-12-.16l-2.85-.74c-.93-.31-1.82-.76-2.74-1.12a35.06 35.06 0 01-5.2-2.84c-1.66-1.08-3.17-2.44-4.76-3.62-.74-.63-1.33-1.3-2-1.95-.53-.73-1.18-1.39-1.64-2.17a18.87 18.87 0 01-3-10.24 29.05 29.05 0 012.33-10.74 51.37 51.37 0 0112.81-17.75 75.05 75.05 0 0117.28-12 92 92 0 0136.35-9.58z"/></g></g></g></svg>