<svg id="Layer_1" data-name="Layer 1" xmlns="http://www.w3.org/2000/svg" viewBox="0 0 1200 1200"><defs><style>.cls-2{fill:#5c9f4b}.cls-3{fill:#efcc82}.cls-4{fill:#db593c}.cls-5{fill:#f9d7c5}.cls-6{fill:#fff}.cls-7{fill:#f0b178}.cls-8{fill:#f6cfad}.cls-10,.cls-9{fill:#1c1c1c}.cls-10{fill-rule:evenodd}</style></defs><path d="M834.81 800.23C750.9 857.41 641.68 869.52 525 849.86c-116.51-19.49-240.49-70.58-276.71-150.94-36.21-80.18 15.15-189.63 70.16-269.46 55.19-79.82 113.85-130 185.19-146.43 71.51-16.41 155.54 1.14 246.42 49.24C840.75 380.38 938.3 459 957.7 549.66c19.42 90.8-38.99 193.22-122.89 250.57z" fill="#eae7f4"/><path class="cls-2" d="M616.92 951.11a9.59 9.59 0 00.87-3.17h.06l1.7.13c1.12.09 2.24.17 3.31.22 2.18.14 4.26.19 6.26.19s3.86-.05 5.61-.22c.57 0 1.09-.13 1.64-.21a4.62 4.62 0 00-.19.6 28.76 28.76 0 00-.44 4.73 14.12 14.12 0 004.08 10 21 21 0 0011.24 5.62 30.9 30.9 0 007.14.38 11.78 11.78 0 001.92-.22 10.91 10.91 0 002.87-.74c.88-.41 1.78-.68 2.68-1.18a10.59 10.59 0 002.3-1.36c-.79-.74-1.61-1.48-2.46-2.38l-1.29-1.29a2.61 2.61 0 01-.27-.33c-.06-.11 0 0-.19-.3v-.08l-.19-.33a12.5 12.5 0 01-1.12-3 14 14 0 010-7 8.77 8.77 0 014.08-5.55 13.93 13.93 0 017.87-1.5 22.89 22.89 0 018.9 2.24 16.88 16.88 0 016.81 6.1 17.75 17.75 0 01-.11 18.52 20.93 20.93 0 01-12.42 9c-5.12 1.51-10.67 1.34-16.09.74-10.86-1.34-21.48-5-32.28-5.5-5.25-.38-10.45-.24-15-.76-2.21-.3-4.24-.85-5.11-2s-1.32-3.31-1.15-5.11c.35-3.78 3.17-7.28 5.61-10.67a32.47 32.47 0 003.36-5.57zm24.84-18.47c0 .25-.11.52-.16.82-.14.55-.33 1.13-.55 1.75a34.2 34.2 0 01-1.64 3.92c-.33.71-.71 1.42-1.12 2.13l-.66 1.07a4.83 4.83 0 01-.49.68.51.51 0 01-.22.06h-.49c-.55.06-1.26.08-2 .11-1.53 0-3.28-.05-5.17-.14s-3.89-.27-6-.43c-1-.11-2.11-.22-3.2-.3l-2.8-.33c0-.06 0-.11-.08-.19a26.11 26.11 0 01-1.31-5.28c-.16-1-.3-1.92-.44-2.88l-.19-1.45v-.19c0-.03 0 0 .14 0l.63-.14c.43-.11.87-.22 1.31-.3a48.74 48.74 0 015.2-.79 105.2 105.2 0 0118.46.08 1.27 1.27 0 01.88 1.26v.16zm-75.67-.22s.06.06.06.08a.12.12 0 010 .14c-.17 1.15-.38 2.82-.71 4.65-.14.9-.36 1.86-.58 2.79a21.45 21.45 0 01-.76 2.38c-.82.08-1.62.19-2.41.28-1 .08-1.92.19-2.85.27l-5.55.41c-1.81.11-3.56.19-5.23.19h-2.38l-1-.11c-.24-.09-.13 0-.27-.06s0 0-.24-.24a7.59 7.59 0 01-.61-.91c-.38-.6-.76-1.26-1.09-1.91a36 36 0 01-1.81-3.94 18.66 18.66 0 01-1.06-3.56 1.43 1.43 0 01.93-1.59 123.09 123.09 0 0113.13-.41 77.09 77.09 0 017.82.66c1.34.19 2.74.47 4.13.79zm-18.17 16.42c1.86.11 3.72.14 5.61.11s3.8-.11 5.74-.22c1-.08 2-.16 3-.22l1.34-.11a10.13 10.13 0 00.88 3.18 32.45 32.45 0 003.41 5.49c2.44 3.4 5.23 6.93 5.61 10.67.14 1.84-.19 4.08-1.17 5.15s-2.9 1.72-5.12 2c-4.51.52-9.68.36-14.94.77-10.8.49-21.42 4.16-32.28 5.47-5.42.63-11 .79-16.09-.74a20.72 20.72 0 01-12.42-9 17.66 17.66 0 01-.11-18.49 16.73 16.73 0 016.82-6.13 22.8 22.8 0 018.86-2.22 14 14 0 017.91 1.51 9 9 0 014.03 5.54 14.45 14.45 0 010 7 13.58 13.58 0 01-1.15 3l-.17.32v.09a1.6 1.6 0 01-.17.27 3 3 0 01-.3.33l-1.28 1.31c-.82.88-1.65 1.64-2.44 2.35a9.11 9.11 0 002.3 1.37 28.41 28.41 0 002.68 1.18 9.64 9.64 0 002.87.76 14.49 14.49 0 001.92.22 28.5 28.5 0 007.11-.41 20.77 20.77 0 0011.27-5.58 14.15 14.15 0 004-10 26.19 26.19 0 00-.41-4.76l-.16-.52h.05c.94.17 1.88.25 2.8.31z"/><path class="cls-3" d="M553.53 926.49a64.57 64.57 0 00-7.09.9v-.27l-3.51-43.83c-.73-10.26-1.66-23.07-1.64-36.72s1.7-28.26 3.12-41.25c20.41-31.47 35.79-69.55 44.68-110.86.22-1 .41-1.86.57-2.63a386.87 386.87 0 0010.78 40.36 336.26 336.26 0 0012.89 33.18c1.56 3.72 3.36 7.33 5.14 10.84.82 1.67 1.64 3.33 2.49 5l2.35 4.32c1.92 3.59 3.94 7.31 6.1 10.78 2.49 4.19 5.09 8.26 7.77 12.26 3 21.83 3.62 46.54 1.86 75.43-1.25 19.48-3 34.44-3.77 40.82l-.22 1.77v.3a67.84 67.84 0 00-12.77-1.06h-1.59c.11-.6.22-1.26.33-2a462.37 462.37 0 004.73-65.55c-.16-13-.9-26.89-4.29-41.28-1.84-7.14-4.14-14.56-8.95-21.18a26.07 26.07 0 00-9.3-8.37 23.42 23.42 0 00-12.61-2.63 26.78 26.78 0 00-12.26 3.61 34 34 0 00-9.06 8.4 63.94 63.94 0 00-9.63 20.85c-3.94 14.26-5 28.21-5.39 41.2a310 310 0 005.86 65.5c.16.71.3 1.34.46 1.92a52.13 52.13 0 00-7.05.19zm272.98-419.03c-.49-7.66-1.86-15.24-5.19-21.83A46.34 46.34 0 00807.17 469c-5.85-4.54-12.53-8.18-19-12.34-.79-.52-1.61-1-2.4-1.59-5.58-3.77-11-8.23-14.94-13.89a26.71 26.71 0 01-4.93-11 23.29 23.29 0 01.22-8.89 22.68 22.68 0 01.8-3.07c2.49-7.41 6.81-13.32 10.67-19.12s7.74-11.35 10.28-17.32a33.19 33.19 0 002.93-18.22c-.77-6.07-3.56-11.71-6.92-16.74a55 55 0 00-12.12-13 50.65 50.65 0 00-15.1-7.85l-1.34-.41c-10.29-3-20.82-3-30.54-1.67a123.92 123.92 0 00-27.9 7.47c-3.34 1.29-6 2.43-7.8 3.12-.79 4-1.53 7.88-2.27 11.65a3.48 3.48 0 01.82.85 1.33 1.33 0 01.25.3c1.64-.93 4.07-2.13 7-3.42a65.69 65.69 0 0118.73-4.42 2.58 2.58 0 004.58-.14h1.26a37.22 37.22 0 0125.17 11.93 55.73 55.73 0 018.7 12.5 80 80 0 015.55 14.8A57.32 57.32 0 01761 395a62.58 62.58 0 01-3.15 17c-1.69 5.53-3.83 10.89-4.87 16.42a37.14 37.14 0 00-.68 8.34 24.84 24.84 0 001.56 8.07 10 10 0 004.95 5.42 51.85 51.85 0 008.4 3 63.17 63.17 0 0111.52 4.68 44.5 44.5 0 016.43 4.18c1.31 1.12 2.65 2.19 3.94 3.34l3.61 3.67a32.21 32.21 0 015.77 9.13 50.25 50.25 0 013.53 21.1 99.25 99.25 0 01-3.12 21.31c-.87 3.5-1.89 7-3.06 10.45-.58 1.75-1.18 3.47-1.84 5.2l-.46 1.17h30.53l.52-3c.22-1.15.41-2.3.55-3.45a115.91 115.91 0 001.38-23.57z"/><path class="cls-2" d="M716.31 368.07a19.78 19.78 0 00-7.6 2.19l-1.73.82a130 130 0 0112.12-28.56l.22-.44c.08-.14.14-.25.19-.36a34.48 34.48 0 0122 10.67 73.81 73.81 0 00-5.09 7.09 56.22 56.22 0 00-6.29 13.27 18.78 18.78 0 00-13.82-4.68zm38.41-46.18c-10.45-2.55-20.87-2.14-30.31-.58a122.41 122.41 0 00-28.15 8.49 58.21 58.21 0 00-7 3.44c1.4-7.25 2.85-14.85 4.27-22.81 9.11-7.45 17.86-13 26.1-16.56a38.14 38.14 0 0113.65-3.47c4.51-.19 8.51 1 11.3 3.31a21 21 0 016.13 8.67 42.84 42.84 0 012.65 9c.41 1.91.63 3.66.82 5.25.08.66.17 1.28.25 1.83zm16.12 209.68a30.12 30.12 0 01-4.76-2.38 74.65 74.65 0 01-16.23-13.27 26.07 26.07 0 01-2.81-3.83 7 7 0 01-1.26-3.51c0-.57.27-1 1.48-1.53l2.18-.79c.25-.11.5-.19.74-.28a8.83 8.83 0 001.62-.65 84.46 84.46 0 0015.07-9.55c4.68-3.58 8.62-7 11.19-9.27a294.7 294.7 0 0012.42-11.63 26.87 26.87 0 013.07 5.47 44.74 44.74 0 012.92 18.85 79.26 79.26 0 01-.68 8A114.46 114.46 0 01783 523.8c-2.6 2.73-5.28 5.58-8.26 7.46a5.38 5.38 0 01-1.83.8 5.92 5.92 0 01-2.07-.49zm61.58-93.93c.19 9.11-3.17 16.75-6.86 23.64-1.54 2.71-3 5.23-4.41 7.42l-2.27 3.3a58 58 0 00-8.26-7.53 116.61 116.61 0 00-10.43-7 28 28 0 004.85-7.6 17.86 17.86 0 001.28-5.42 13.85 13.85 0 00-.9-5.47 18.3 18.3 0 00-6.54-8 40.3 40.3 0 00-7.91-4.46 80.31 80.31 0 00-19.53-5.28c.11-.52.25-1 .41-1.56a42.9 42.9 0 012.9-6.75c14.47-.77 26.51.3 36.77 3.28 6.57 2 11.44 4.62 14.83 8a20 20 0 016.07 13.43zm-81.88-17.73a103.09 103.09 0 01-18.22-4.13 53.29 53.29 0 01-9.74-4.35 84.82 84.82 0 007.52-11.87c.22-.41.41-.85.63-1.26 4.1 6.43 11.52 11.49 22.08 15.08-.74 2.13-1.53 4.32-2.27 6.53z"/><path class="cls-4" d="M689.58 303.56c-2.16 14.8-4.18 28.59-6 41.17a17.49 17.49 0 00-3.83-.27 149 149 0 00-16.06 1.78c-10.26 1.53-20.06 3-29.39 4.24-18.65 2.46-35.43 4-49.3 5-13.05 0-28.8-.08-46.48-.38-8.84-.14-18.11-.41-27.88-.49-2.43 0-4.89 0-7.44.13a42.41 42.41 0 00-6.1.63c-2-12.69-5.33-26.4-9.25-40.9-2.08-7.82-4.32-15.92-6.07-24.27-.47-2.1-.57-4-.9-6.1-.08-2 0-4.07.05-6.15.38-2.05.58-4.13 1.07-6.16a60.27 60.27 0 012-6 55.65 55.65 0 0116-20.92c7.12-5.85 15.68-10.28 24.71-13.89 18.27-6.9 38.85-10 59.94-10.43s42 .71 61.17 5c9.5 2.3 18.66 5.36 26.6 10s14.47 10.87 18.08 18.42a33.79 33.79 0 012.79 12 95.2 95.2 0 01-.63 12.78c-.81 8.48-1.95 16.79-3.08 24.81z"/><path class="cls-2" d="M683.56 351.52c.66 1.75.55 4.29.22 6.73a36.06 36.06 0 01-2 7.28 30 30 0 01-1.54 3.42c-.27.52-.57 1.06-.87 1.55-.47.72-.25.44-.66.8a23.91 23.91 0 01-6.26 2.84c-2.41.8-4.87 1.48-7.34 2.08-9.87 2.44-19.64 4.08-28.94 5.53-18.58 2.82-35.32 4.62-49.16 6.05-13 .3-28.81.62-46.43.16-8.78-.25-18.09-.6-27.55-1.61-2.38-.25-4.76-.55-7.09-.93-1.17-.22-2.35-.41-3.44-.72a8 8 0 01-1.56-.43 4.33 4.33 0 01-1.15-.44c-.19 0-.39-.27-.63-.52a8.65 8.65 0 01-.71-1.2 17.27 17.27 0 01-1.29-3.07 38.41 38.41 0 01-1.59-7 32.11 32.11 0 01-.27-6.95 10.77 10.77 0 01.6-2.84 3.32 3.32 0 00.22-.41v-.06a2 2 0 01.74-.39 25.57 25.57 0 016.49-.95c2.38-.14 4.81-.19 7.19-.22 9.69-.06 19-.11 27.85-.19 17.73-.25 33.54-1 46.59-2.06 14 0 30.89-.68 49.77-2.59 9.44-1 19.34-2.25 29.57-3.62a150.77 150.77 0 0115.35-1.53 13.28 13.28 0 013.18.25 1.13 1.13 0 00.24.11l.14.3a3.07 3.07 0 01.33.63z"/><path class="cls-4" d="M678 382.43c-10 3.26-20.6 6.05-31.52 8.43-10.12 2.22-20.52 4.19-31.19 5.75s-21.58 3-32.66 4a313.33 313.33 0 01-32.63 1.3 252.89 252.89 0 01-31.33-2.62c-6.18-1-12.28-2.19-18.19-3.7a20.47 20.47 0 00.19-2.9 20.73 20.73 0 00-.16-2.57l.62.17c1.32.32 2.6.52 3.86.73 2.52.39 5 .66 7.44.88 9.83.9 19.18 1 28.07 1 17.79-.13 33.63-1.28 46.62-2.59 14-.42 30.86-1.4 49.71-3.67a295.78 295.78 0 0029.58-4.95c2.57-.6 5.14-1.29 7.77-2.14 1.34-.46 2.65-.87 4-1.42l-.16 1.15a15.26 15.26 0 00-.02 3.15z"/><path class="cls-4" d="M729.36 381.26a15.12 15.12 0 01.14 5.39 40.54 40.54 0 01-3.45 11 92.77 92.77 0 01-11.9 18.68 119 119 0 01-13.73 14.48c-1.26 1.12-2.36 2.13-3.2 2.92A131.13 131.13 0 00686.08 402c1.78-.87 3.48-1.69 5.12-2.51 1.94-1 3.17-1.87 3-2.22s-1.67 0-3.72.74a879.11 879.11 0 00-20 7.77l-11.93 3.77c-2 .66-4.16 1.32-6.29 2s-4.32 1.48-6.59 1.94a330.27 330.27 0 01-61 10.42 270 270 0 01-61.72-2.76 237.13 237.13 0 01-45.71-12c-2-.77-3.51-1.15-3.67-.82s1 1.34 3 2.32q5.91 3 13.27 5.8a130.35 130.35 0 00-6.95 25.61c-1.07-.66-2.52-1.45-4.18-2.38a95.48 95.48 0 01-16.39-11.22 58.72 58.72 0 01-14-16.82 38.21 38.21 0 01-3.92-10.78 32.41 32.41 0 01-.52-5.83 26.86 26.86 0 010-3c.14-1 .27-2 .41-3l.19-1.48a9 9 0 01.36-1.15 8.05 8.05 0 011.2-2 7 7 0 014.05-2.35 6.6 6.6 0 014.6.73c.57.3 1.78 1.13 2.71 1.75s2 1.32 3 1.92c16.47 10 36.12 16.47 57 20.05a246.87 246.87 0 0032.31 3 293.83 293.83 0 0033.54-1.23c11.3-1 22.29-2.43 33.13-4.16s21.37-3.74 31.63-6.12c20.51-4.77 39.8-11.06 57-19.24 2.14-1 4.24-2.08 6.32-3.17a14.11 14.11 0 015.37-1.75 13.14 13.14 0 0110.12 3.28 7.5 7.5 0 012.54 4.15z"/><path class="cls-5" d="M717.16 474.91a10.17 10.17 0 00-.19-5.56 5.3 5.3 0 00-.57-1.23 11.46 11.46 0 011.5 1.18 16.81 16.81 0 013.42 4.54c.14.22.27.35.41.33s.16-.25.11-.52a12.3 12.3 0 00-2.84-5.45 13.34 13.34 0 00-7.08-4.07 18.39 18.39 0 00-8.08.08 19.34 19.34 0 00-3.69 1.15c.11-2.68.11-5.34 0-7.94a36 36 0 0114.5 3.31 18.18 18.18 0 017.42 6 13.94 13.94 0 012.07 9.54c-.65 7.2-6.51 12.31-12.36 14.37a23.48 23.48 0 01-14.94.43c.66-2.7 1.23-5.44 1.72-8.15a124.73 124.73 0 001.54-16.11 3.24 3.24 0 010-.44c3-.57 7.12-1.31 11.39-.36a14.34 14.34 0 013.09 1.1 11.41 11.41 0 01.65 7.39c-.74 3.39-2.57 6.18-3.5 8.07a.35.35 0 000 .43.35.35 0 00.38-.08 15 15 0 005.05-8.01zm-251.04-14.18a35.86 35.86 0 0115.21-3.31c-.11 1.92-.14 3.83-.11 5.8v2.38a22.08 22.08 0 00-4.35-1.39 18.2 18.2 0 00-8-.08 13.3 13.3 0 00-7.08 4.07 12.19 12.19 0 00-2.82 5.45c-.06.27 0 .49.11.52s.27-.11.41-.33a16.6 16.6 0 013.42-4.54 10.27 10.27 0 011.5-1.18 4.92 4.92 0 00-.57 1.23 10.45 10.45 0 00-.22 5.56 15.38 15.38 0 005 8 .39.39 0 00.41.08.35.35 0 000-.43c-.93-1.89-2.77-4.68-3.51-8.07a11.34 11.34 0 01.66-7.39 14.34 14.34 0 013.09-1.1c4.57-1 8.95-.11 12 .47a77.73 77.73 0 00.82 11.19c.33 2.43.52 4.95 1 7.44.44 1.92.85 3.86 1.32 5.83a23.69 23.69 0 01-15.46-.3c-5.86-2.06-11.71-7.17-12.37-14.37a13.79 13.79 0 012.08-9.54 18.29 18.29 0 017.46-5.99z"/><path class="cls-6" d="M674.65 462.92c1.53 7.77.21 16.91-5.59 23.28s-15 9.53-24.32 9.39-18.6-3.17-24.4-9.58a23.77 23.77 0 01-5.83-11 30.73 30.73 0 01-.08-12.12 31.17 31.17 0 0111.79-18.77 31.83 31.83 0 019-4.81 35.08 35.08 0 019.3-1.67 35.44 35.44 0 019.3 1.67 31.83 31.83 0 019 4.81 31.19 31.19 0 0111.83 18.8zM645.15 486a18.79 18.79 0 0018.77-18.8 18.47 18.47 0 00-.3-3 9.37 9.37 0 11-10.86-14.12 18.17 18.17 0 00-7.61-1.67 18.79 18.79 0 000 37.57zm-77.23-23.08c1.53 7.77.19 16.91-5.64 23.26s-15 9.52-24.32 9.44-18.63-3.15-24.4-9.58a23.53 23.53 0 01-5.77-11 30.33 30.33 0 01-.09-12.15 31.22 31.22 0 0111.79-18.77 32 32 0 019-4.81 26.81 26.81 0 0118.63 0 32.23 32.23 0 019 4.81 31.18 31.18 0 0111.8 18.8zM538.24 486A18.79 18.79 0 00557 467.19a17.4 17.4 0 00-.3-3 9.27 9.27 0 01-7.69 4.05 9.35 9.35 0 01-3.14-18.17 18.26 18.26 0 00-7.63-1.67 18.79 18.79 0 000 37.57z"/><path class="cls-5" d="M522.12 425.82a238.86 238.86 0 0062.93 4A279.77 279.77 0 00647 418a66.94 66.94 0 006.62-2.27c2.13-.8 4.24-1.56 6.29-2.33q6.17-2.34 11.82-4.51c4.24-2 8.24-3.92 11.93-5.69a144.66 144.66 0 0111 48.53 111.09 111.09 0 01-.14 14.8 124.31 124.31 0 01-1.72 15.35 121.84 121.84 0 01-10.2 30.7 108.63 108.63 0 01-19 26.1 60.725 60.725 0 01-4.22 4 104.53 104.53 0 01-19.86 13.71 114 114 0 01-48.7 12.7c-3.34-.28-6.84-.58-10.53-.91-3.64-.49-7.42-1.28-11.33-1.91-1.94-.52-3.88-1.07-5.88-1.62a50.47 50.47 0 01-6-1.8c-3.94-1.59-8.15-2.85-12.09-5.06a98.17 98.17 0 01-23-15.35A101.19 101.19 0 01502.45 519c-5.61-8.83-9.14-18.49-11.85-27.88-.6-2.38-1.17-4.76-1.75-7.08s-.74-4.73-1.15-7.06c-.87-4.65-.93-9.3-1.25-13.79a141.23 141.23 0 015.93-45.66 203.1 203.1 0 0029.74 8.29zM537.83 436a36.57 36.57 0 00-10 1.26 34.28 34.28 0 00-9.91 4.79 33.38 33.38 0 00-13.62 33.73 27.28 27.28 0 006.45 12.75 31.34 31.34 0 0012.29 8.23 42.31 42.31 0 0014.85 2.68 40.23 40.23 0 0014.89-2.54 29.8 29.8 0 0012.25-8.29 27.4 27.4 0 006.27-12.86 34.07 34.07 0 00-.19-13.51 33.57 33.57 0 00-13.49-20.19 34 34 0 00-9.9-4.79 36.32 36.32 0 00-9.89-1.26zm140.24 39.75a34.07 34.07 0 00-.2-13.51 33.57 33.57 0 00-13.46-20.19 34 34 0 00-9.93-4.79 39.88 39.88 0 00-19.89 0 34.35 34.35 0 00-9.9 4.79 33.42 33.42 0 00-13.63 33.73 27 27 0 006.52 12.72 31.08 31.08 0 0012.28 8.21 42.59 42.59 0 0014.86 2.73A40.8 40.8 0 00659.6 497a29.81 29.81 0 0012.26-8.31 27.72 27.72 0 006.21-12.91zm-46.65 44a1.38 1.38 0 00-1.12-1.59 1.41 1.41 0 00-1.59 1.15c-2.68 16.5-23.2 21.58-40.05 20.85-17.54-.74-36.75-8.27-37.73-20.74a1.41 1.41 0 00-1.48-1.26 1.34 1.34 0 00-1.23 1.48c1.12 14.2 21.12 22.46 40.33 23.25 1 0 2.05.06 3.09.06 17.26.05 36.96-5.95 39.78-23.2zm-25.5-21.23c.08-.36 0-.66-.25-.74a.7.7 0 00-.73.3c-2.06 3.06-7.12 6.65-13.27 7a12.21 12.21 0 01-7.85-2.08 17.52 17.52 0 01-4.46-5.11.66.66 0 00-.72-.33.56.56 0 00-.3.71 12.57 12.57 0 003.45 7.09 13 13 0 0010.07 3.58c7.93-.44 13.46-6.24 14.06-10.42z"/><path class="cls-3" d="M589.89 635.58a333.53 333.53 0 00-45.09-72c3.59 1.59 7.31 2.63 10.81 3.86A52.64 52.64 0 00562 569c2.1.46 4.15.9 6.18 1.37 4.1.43 8 1 11.82 1.28 3.77 0 7.41.09 10.83.11a107.06 107.06 0 0044.64-7.76 293.84 293.84 0 00-42.57 65.3c-.9 1.88-1.97 4.04-3.01 6.28z"/><path class="cls-2" d="M585.43 652a2.81 2.81 0 01-.44.52c0-.11 0-.36.33-.77l1.75-4.3c.25-.63.52-1.25.77-1.88l.3-.36v-.3c1-2.24 1.92-4.35 2.68-6.07 1.31-3.07 2.79-6.08 4-8.65a319.47 319.47 0 0143.67-67c.27-.3.52-.61.76-.88.88-.38 1.75-.79 2.63-1.23 2.13-1.07 4.27-2.22 6.4-3.45l4.6 6.9 11.13 18-24.43-1.78 9 13.1 1.64 2.44-32.26 27c-2 1.69-4 3.42-6.07 5.17-6.4 5.41-13 11-19.67 17.18l-1.29 1.2c-1.81 1.68-3.61 3.35-5.5 5.16zm2.98-13.08c-.57 1.34-1.2 2.79-1.86 4.32a4 4 0 01-.41-.33c-3.67-3-12.67-10.34-31.35-25.58l-25.5-20.79-.19-.19c.33-.66 1.56-2.52 3.88-6.05 1.29-1.94 2.93-4.43 5.06-7.66l.77-1.17-23.94 2.19-1.18.19 1.48-2.52c1.48-2.49 3.09-5.06 4.76-7.69 2.6-4.07 6.57-10.15 11-16 .25-.33.47-.6.63-.85 2.41 1.48 4.85 2.82 7.28 4 8.51 9.68 31.27 37.61 49.57 78.13z"/><path class="cls-6" d="M649.17 660.37a3.47 3.47 0 104.38-2.19 3.47 3.47 0 00-4.38 2.19zm1.29 7.2a6.44 6.44 0 118.13-4.08 6.42 6.42 0 01-8.13 4.08z"/><path class="cls-7" d="M603.79 656.7a4.51 4.51 0 011.39 3.72 9 9 0 01-1.15 4.74c-.79 1.23-2 1.69-3.83 1.56a6.6 6.6 0 01-4.4-2.05 5.22 5.22 0 01-1.26-4.19c.22-3.09 3-4.93 5.55-5.17a7.22 7.22 0 013.7 1.39z"/><path class="cls-6" d="M531.59 652.19a7.68 7.68 0 11-4.82-14.58 7.16 7.16 0 012.41-.39 7.69 7.69 0 013.45.83 7.57 7.57 0 013.83 4.43 6.45 6.45 0 01.35 1.94 3.94 3.94 0 00-3.83-.79 4 4 0 00-2.54 5.06 4 4 0 002.93 2.65 8.1 8.1 0 01-1.78.85z"/><path class="cls-7" d="M432.93 705.21c-.19-.16-.38-.19-.46-.14s-.09.28 0 .5a13.51 13.51 0 003.64 3.88 8.42 8.42 0 007.17 1.37 8 8 0 004.9-5.36 12.72 12.72 0 00.65-4 6.41 6.41 0 004.84-.74s.06 0 .09-.05c2.95 3.94 6 8 9.22 12.2a6.61 6.61 0 01-.39.68 7 7 0 01-4.32 3.07 9.17 9.17 0 01-5.39-1 18.89 18.89 0 01-3.75-2.6.48.48 0 00-.46-.11.4.4 0 000 .47 11.28 11.28 0 003.37 3.58 9 9 0 006.54 1.51 7.66 7.66 0 005.3-4.19.25.25 0 00.06-.14q3.48 4.52 7.22 9.28a172.85 172.85 0 01-22.62-.47 188.32 188.32 0 01-16.86-2.1c-3-.52-6.21-1.12-9.52-1.86l-2.49-.58-2.92-.74c-1.54-.41-3.07-.76-4.71-1.28-.79-.25-1.61-.49-2.44-.74a15.58 15.58 0 00-2.27-.6c.85 1.47 1.73 3 2.6 4.54a98.19 98.19 0 012 4.38 28.17 28.17 0 011 4.67 23.21 23.21 0 01-1 10.13c-1 3.47-3.15 6.7-5.64 9.79a47.72 47.72 0 01-9.55 8.13 53 53 0 01-5.74 3.42c-1 .52-2 1-3 1.5-.09 0-.14.08-.14 0v-.06l-.55-1.31a28.8 28.8 0 01-1.12-3.28c-.3-1.12-.74-2.25-.93-3.39l-.66-3.45a33.51 33.51 0 01.85-14 30.37 30.37 0 017.06-12.4l.36-.41.76-.71 1.64-1.5 3.45-3.07.88-.79a1.54 1.54 0 00.11-.46l.16-.88v-.52a2.76 2.76 0 00-.27-.79c-.36-.52-.25-.55-.82-.93l-.9-.47c-.17 0-.25-.16-.47-.19l-1.2.14c-1.59.19-3.2.43-4.74.57a22.72 22.72 0 01-2.27.17l-1.2.08a39.63 39.63 0 01-16.42-2.88 32.13 32.13 0 01-12.69-9.46 23.5 23.5 0 01-2.33-3.15c-.38-.54-.76-1.06-1.12-1.64l-.82-1.56s-.19-.19-.05-.19h.16l1.64-.5c10.1-3 20-4.73 28.81-4.1a29.57 29.57 0 0111.82 3.4 15.42 15.42 0 012.32 1.56l1.07.88.9 1a5.9 5.9 0 01.85 1 8.76 8.76 0 011.12 1.86c.39.87.74 1.72 1.1 2.6s.63 1.75 1 2.59l.52-.35c1.1-1.53 2.36-3.23 3.56-4.84.49-.69 1-1.34 1.48-2 .38-.49.74-1 1.09-1.45 1.48-1.92 2.88-3.69 4.22-5.42 2.7-3.39 5.17-6.4 7.49-9.14 3.48-4.1 6.57-7.6 9.5-10.83.82 1.29 1.72 2.65 2.65 4 5.12 7.58 10.75 15.54 17 24a6.16 6.16 0 01-3.89.11 20.49 20.49 0 01-6.87-3.8.29.29 0 00-.38 0c-.11.08-.11.22 0 .39a11.2 11.2 0 006.32 5.14 18.47 18.47 0 01-1.25 3.66 7.24 7.24 0 01-4 4.11c-2 .65-4.08 0-5.75-.88a21.37 21.37 0 01-4.12-2.86zm-11-7.09a8.33 8.33 0 007.14 1.4 8 8 0 004.93-5.39 14.58 14.58 0 00.63-5.28c0-.25-.11-.41-.25-.41s-.25.14-.3.36a28.57 28.57 0 01-1.53 4.76c-.8 1.72-2.08 3.53-4.05 4.1s-4.11 0-5.75-.88a20.71 20.71 0 01-4-2.9c-.19-.13-.38-.19-.49-.11s-.05.28.06.47a13.23 13.23 0 003.68 3.88zm92.7-6.56a36.34 36.34 0 0018.19 9.14 87.71 87.71 0 01-23.45 14.11c-2-2.6-4-5.14-6-7.68-1.64-2.06-3.26-4.14-4.9-6.24l-5.55-7c-5.8-7.36-11.82-14.94-17.65-22.57l-1.77-2.36a145 145 0 01-9.09-12.88l-.13-.3a2.49 2.49 0 01-.31-.63 7 7 0 01.8-1.56c.82-1.34 1.78-2.68 2.62-3.81 1.65-2.21 3.53-4.59 5.89-7.49 2.7-3.28 5.58-6.68 8.59-10.12a77.74 77.74 0 0122.13-7.26 22 22 0 00-4.46 5.89 32.38 32.38 0 00-3.37 11.05 57.76 57.76 0 003.48 27 57 57 0 0014.98 22.71z"/><path class="cls-8" d="M545.65 663.65a65.94 65.94 0 0013.62-4.37c.33-.14.66-.31 1-.44-4.35 12.2-10.42 23.83-19 33.54a77.2 77.2 0 01-7.63 7.61c-.11 0-.25-.06-.39-.11a39.58 39.58 0 01-16.82-10.24 60.42 60.42 0 01-13.54-22 61.46 61.46 0 01-3.83-25.49c.57-7.64 3.31-14 7.11-17.6a62.73 62.73 0 0122.68 1.13 68.2 68.2 0 0122.43 10 103.54 103.54 0 0117.62 15.24 68.08 68.08 0 01-10.56 6.46 66.82 66.82 0 01-13 4.84 51.36 51.36 0 01-13.87 1.61 48.63 48.63 0 01-13.82-2.32l-.08.19a47.63 47.63 0 0013.87 3 51.62 51.62 0 0014.21-1.05zm-7.17-14.09a10.42 10.42 0 10-9.3 5.75 10.72 10.72 0 003.26-.52 10.4 10.4 0 006.04-5.23z"/><path class="cls-7" d="M666.77 720.42a76.15 76.15 0 01-16.72-10.37 30.38 30.38 0 006.37-2 33.24 33.24 0 008.76-5.75 49.08 49.08 0 0013.21-20 50.14 50.14 0 003-23.75 28.57 28.57 0 00-3.23-10 19.5 19.5 0 00-2.68-3.74 40.21 40.21 0 014.16.93 69.48 69.48 0 0110.15 3.39 105.09 105.09 0 0121.72 12.58c-1.81 2.66-3.72 5.23-5.61 7.77L692 687.67q-3.65 4.77-7.3 9.44c-5.47 7-10.89 14-16.17 21z"/><path class="cls-8" d="M655.36 652.74a9.2 9.2 0 00-11.6 5.82 9.15 9.15 0 005.83 11.57 8.72 8.72 0 002.9.47 9.41 9.41 0 004.1-1 9.18 9.18 0 004.08-12.34 9.09 9.09 0 00-5.31-4.52zm-4.87 25a43.89 43.89 0 01-12-1.45 57.62 57.62 0 01-11.24-4.21 91.16 91.16 0 01-3.37-1.81 47.82 47.82 0 01-5.5-3.61 85.78 85.78 0 0119.78-15.87 53.56 53.56 0 0133.92-6.53c3.37 3.22 5.5 8.59 6 14.66a52.85 52.85 0 01-3.32 22.08A51.85 51.85 0 01663 699.9a34 34 0 01-14.61 8.68c-10.28-8.92-18.08-20.71-23.33-35.21.46.24.93.43 1.39.65a59.89 59.89 0 0011.79 3.75 45.54 45.54 0 0012.32.85 43 43 0 0012-2.6l-.08-.22a42.56 42.56 0 01-11.99 1.97z"/><path class="cls-7" d="M738.23 703.73a7.9 7.9 0 004.89 5.37 8.27 8.27 0 007.15-1.4 13.22 13.22 0 003.66-3.86c.14-.22.17-.41.06-.49s-.28 0-.47.14a24.65 24.65 0 01-4 2.9c-1.67.85-3.8 1.53-5.74.87s-3.26-2.41-4.05-4.1a23.68 23.68 0 01-1.53-4.76c-.06-.25-.2-.38-.33-.38s-.22.19-.22.41a13.87 13.87 0 00.58 5.3zm-18.93 21.51a8.73 8.73 0 01-5.37 1 6.81 6.81 0 01-4.32-3.06 12.7 12.7 0 01-.93-1.78q4.56-5.82 9-11.65a5.92 5.92 0 00.82.63 6.46 6.46 0 004.84.71 13.41 13.41 0 00.63 4 8 8 0 004.93 5.39 8.28 8.28 0 007.14-1.39 12.92 12.92 0 003.66-3.89c.14-.19.17-.38.06-.46s-.3 0-.47.11a23 23 0 01-4.05 2.9c-1.67.87-3.8 1.56-5.74.87a6.9 6.9 0 01-4-4.07 18.85 18.85 0 01-1.26-3.7 11.15 11.15 0 006.32-5.14.32.32 0 000-.38.37.37 0 00-.41 0 20.82 20.82 0 01-6.87 3.81 6.29 6.29 0 01-4-.17 6.19 6.19 0 01-.68-.35c6.54-8.65 12.91-17.3 19-25.91.47-.66.9-1.29 1.31-1.92 3 3.28 6.1 6.84 9.63 11 2.33 2.73 4.82 5.74 7.53 9.14 1.31 1.69 2.73 3.5 4.18 5.38.39.5.74 1 1.13 1.45.46.66.95 1.35 1.45 2 1.23 1.61 2.48 3.28 3.58 4.84a3 3 0 01.52.36c.55-1.62 1.26-3.37 1.94-5a5.88 5.88 0 01.58-1.15c.11-.19.24-.35.35-.52l.2-.29a9.36 9.36 0 01.8-1 13.43 13.43 0 011.88-1.8l1-.85 1.15-.71a28.68 28.68 0 0111.27-3.48c8.49-.84 18 .74 27.8 3.42 1.18.36 2.38.72 3.59 1.07.08.06.27.06.19.14l-.06.11-.19.39-.43.85c-.63 1.09-1.43 2.1-2.11 3.17a34 34 0 01-11.55 10.15 36 36 0 01-15.56 4.05c-1.37.11-2.77 0-4.16 0l-1.86-.11-2.3-.25-4.65-.57a18.09 18.09 0 00-1.64.9l-.3.38a.64.64 0 00-.17.25 2.55 2.55 0 00-.24.6l-.09.44v.24l.08.44.13.88a12.86 12.86 0 001.13 1.39 31.56 31.56 0 013.12 2.46c.54.5 1.09 1 1.66 1.54l.88.79.38.44a30.35 30.35 0 017.06 12.36 34.08 34.08 0 01.85 14c-.22 1.18-.44 2.33-.66 3.48s-.65 2.24-1 3.36a22.26 22.26 0 01-1.13 3.31l-.52 1.29v.08c0 .06-.06 0-.11 0l-3-1.5a60.79 60.79 0 01-5.74-3.42 49.5 49.5 0 01-9.58-8.15c-2.49-3.09-4.65-6.3-5.63-9.77a24.07 24.07 0 01-1-10.15 26.85 26.85 0 011-4.65c.57-1.59 1.23-2.9 1.91-4.38.88-1.56 1.75-3.06 2.6-4.57a19.39 19.39 0 00-2.24.63c-.82.25-1.64.49-2.46.71-1.64.52-3.15.88-4.68 1.32l-3 .74c-.82.19-1.67.35-2.49.54-3.28.74-6.45 1.34-9.49 1.86-6.1 1.07-11.68 1.7-16.88 2.14a168.51 168.51 0 01-24.16.35q4.19-5.16 8.29-10.37a9 9 0 00.52 1.32 7.74 7.74 0 005.31 4.21 9.08 9.08 0 006.54-1.51 11.22 11.22 0 003.39-3.61c.11-.16.14-.35 0-.43s-.28 0-.44.11a21.33 21.33 0 01-3.71 2.61z"/><path class="cls-5" d="M646.17 740.91c-2.33 1.48-5.94 1-8-.3-.87-.54-1.23-1.12-1.17-1.42.05-.49.93-1.31 3.23-2.08 7.3-2.35 14.77-.11 17.53.9a11.6 11.6 0 00.63 1.51l.28.52a26.84 26.84 0 002.73 4.07 51.56 51.56 0 006.62 6.93c.41.32.82.68 1.23 1-7.9 12.34-16.14 22-18.38 21.39-.71-.19-.82-.49-.88-.6-.54-1.45 1.81-5.22 3.09-7.25 1.65-2.63 2.74-4.35 1.24-5.42s-2.74.44-5 3.1-6.24 7.25-8.21 6a.82.82 0 01-.41-.63c-.3-1.7 2.46-5.28 4.1-7.41 2-2.6 2.8-3.7 2.55-4.85l-.3-.82-.58-.3c-1.47-.76-2.9.63-5.25 2.9-2.71 2.57-6.73 6.49-9.38 5.15-.5-.25-.5-.47-.5-.63 0-3.15 9.53-11.08 14-13.49 3.5-1.83 6.57-5.42 6.59-7.66a2 2 0 00-1-1.81c-.99-.63-2.49-.25-4.76 1.2zm-98 21.73c0 .16 0 .38-.5.63-2.65 1.31-6.67-2.58-9.35-5.15-2.38-2.27-3.81-3.66-5.28-2.9l-.74.49-.14.63c-.24 1.15.55 2.25 2.55 4.85 1.64 2.13 4.4 5.71 4.13 7.41a1 1 0 01-.44.63c-1.94 1.29-6-3.42-8.18-6s-3.56-4.14-5-3.1-.41 2.79 1.23 5.42c1.28 2 3.64 5.8 3.09 7.25-.06.11-.17.41-.88.6-2.16.66-10.15-8.67-17.89-20.65a52.54 52.54 0 004.24-3.86 40.52 40.52 0 006-7.44 16.42 16.42 0 001.21-2.27 11 11 0 00.52-1.37 1.42 1.42 0 00.05-.16c3.31-1.1 10-2.69 16.56-.58 2.29.77 3.17 1.59 3.25 2.08 0 .3-.33.88-1.18 1.42-2.05 1.29-5.66 1.78-8 .3s-3.75-1.83-4.82-1.23a1.93 1.93 0 00-1 1.81c0 2.24 3.09 5.83 6.56 7.66 4.49 2.45 14.06 10.38 14.01 13.53z"/><path class="cls-2" d="M748.68 653.67v-.09c0-.13-.2-.6-.31-.87a24.18 24.18 0 00-1.42-2.93c-1-1.72-2.08-3.53-3.66-5.85-2.33-3.48-5-7.09-8-11-11.92-15.54-23.41-28.56-31.05-37-20.11-22.21-34.93-35.54-42.1-40.57-1.53-1.12-2.9-2-3.89-2.6-.49-.27-.9-.52-1.23-.74-2.19 1.59-4.4 3-6.65 4.38l.71.82.22.25c.8.93 1.92 2.19 4.27 5.14 1.45 1.81 3.07 3.88 5.12 6.68l5.66 8 2.65 4 .28.58c.13.35.3.68.41 1a3.84 3.84 0 01-.08 2.08 4.2 4.2 0 01-3.4 2.9 9.65 9.65 0 01-1.94 0c-.22 0-.46 0-.71-.06l-5.2-.3-8.23-.57-.22-.06 4.43 6.81a4.74 4.74 0 011 2.55 3.6 3.6 0 01-.9 2.7 21 21 0 01-2.19 1.89c-.27.22-.55.41-.82.66l-7.8 6.15-23.36 18.55-26.76 21.59c-2.19 1.78-4.46 3.64-6.56 5.61l-.33.27c-.17.17-.36.33-.6.55a2 2 0 01-.74.33c.27 1.37.6 3.39 1.06 6.34.17 1 .33 2 .5 3a417.13 417.13 0 0016.69 67.16 348.6 348.6 0 0013.21 32.7c1.59 3.61 3.39 7.14 5.17 10.56.85 1.66 1.72 3.33 2.54 5 .83 1.43 1.62 2.88 2.44 4.33 1.94 3.47 3.94 7.08 6.1 10.45a258 258 0 0019.12 27.36 245.27 245.27 0 0021.56 23.74c15.71 15 31.93 26.59 48.26 34.31.69.33 1.34.6 2 .9l1.15.5.52.21.71.25a1.43 1.43 0 00.41.16c-.11-.32-1.12-2.87-1.94-4.81l-3.51-8.4c-3.14-7.41-6.12-14.42-8.91-21.26-6.16-15-11.36-28.86-15.49-41.2-9.27-27.36-12.45-45.88-13.38-52.58-.08-.58-.16-1.12-.24-1.64-.39.41-.8.79-1.21 1.2s-1.15 1.09-1.75 1.61-.79.63-1.12.85a3.8 3.8 0 01-1.94.66 3.32 3.32 0 01-.52-.06 11.36 11.36 0 01-4.87-2c-.17-.09-.3-.2-.44-.28-5.14 8.05-15.16 22.52-20.6 22.52a2.37 2.37 0 01-.74-.11 3.79 3.79 0 01-2.68-2.24c-.6-1.54-.08-3.42.82-5.34-2.76 2.76-5.86 4.9-8.67 3A3.59 3.59 0 01638 769c-.33-1.92.82-4.16 2.33-6.38-3 2.55-6.43 4.68-9.71 3a3.4 3.4 0 01-2-3c-.06-5.25 11.87-14 15.51-15.92a13.21 13.21 0 004.6-4.16c-.3.17-.66.36-1.12.66-3.37 2.13-8.13 1.42-10.89-.33-1.73-1.09-2.63-2.57-2.44-4.08.25-1.83 2-3.28 5.12-4.32 7.14-2.3 14.17-.76 17.92.44a7.37 7.37 0 01.22-.9 49.32 49.32 0 014.46-7.12l.84-1.2c.74-1 1.48-2.05 2.28-3.06-20.91-9.74-35.57-26.9-43.64-51.06a51.35 51.35 0 01-6-3.69l-1.18-.93 1-1.07c6.29-6.75 13.35-13 21.51-17.51a56.71 56.71 0 0126.81-7.37 61.24 61.24 0 0115.27 1.69c-.17-1.58-.25-4.13-.36-8.15l-.44-11.16c0-1.34-.08-2.6-.08-4.19a21.58 21.58 0 01.44-5.77 4.12 4.12 0 01.76-1.67 1.57 1.57 0 011.07-.66 1.79 1.79 0 011.29.25 3.91 3.91 0 01.57.33 23.54 23.54 0 012.08 1.48c1.26 1 2.52 2.32 3.64 3.44l.57.58c2.41 2.41 4.74 4.87 7 7.33 4.73 5.09 9.22 10.18 13.38 15.05 2.6 3.12 4.57 5.52 6.32 7.85.93 1.23 2 2.65 3 4.19l.3.51a7.49 7.49 0 011 2.38A4.67 4.67 0 01719 657a9.55 9.55 0 01-.6 1.2 154.86 154.86 0 01-9.33 13.44l-5.31 7-14.63 19c-5.86 7.5-11.91 15.27-17.62 22.85q-2.81 3.65-5.51 7.51l-.63.9a51.28 51.28 0 00-4.22 6.65 6.26 6.26 0 001 2.7 26.42 26.42 0 002.41 3.51 45.35 45.35 0 006.13 6.34 28.62 28.62 0 003.31 2.5 8.66 8.66 0 003.12 1.39l.41-.32.32-.25c.47-.41 1-.88 1.48-1.4q1.56-1.56 3-3.17l.57-.66a.5.5 0 01.36-.38c3.77-4.29 7.39-8.67 10.45-12.47 14.17-17.68 27.55-35.65 39.75-53.49l1.78-2.65c2.52-3.75 4.71-7.12 6.65-10.24l.65-1.06c2.33-3.83 4.74-7.8 6-11.52v-.17a.88.88 0 00.08-.32zM607.21 667.1A6.62 6.62 0 01604 670a8.62 8.62 0 01-4.16.6 9.92 9.92 0 01-6.94-3.52 7.55 7.55 0 01-1.7-3.86 8.47 8.47 0 01.08-3.23 7.84 7.84 0 013.67-5.28 8.33 8.33 0 015.11-1 8.14 8.14 0 015.17.93 7.12 7.12 0 013.21 5.63 12.35 12.35 0 01-.91 6.19zm-24.3-14.86a2.19 2.19 0 00.3 1.54c.14 1.31.44 3.58 1 7.49q1.85 13.14 4.43 25.77c-.39 1.18-.88 3.26-1.75 6.9-10.63 45.25-28.89 86.32-52.65 118.76a241.85 241.85 0 01-41.09 43.89 194.65 194.65 0 01-23 16.27c-4.37 2.6-8.26 4.68-11.84 6.35l-1 .49c-.63.3-1.29.61-1.94.85l-2.33 1a2.77 2.77 0 00-.38.14 3.16 3.16 0 01.22-.61l8.31-19.91c3.59-8.43 6.43-15.35 8.95-21.7 5.5-13.73 10.18-26.56 13.93-38.14 8.26-25.14 11.1-42.27 11.95-48.5.17.19.36.35.52.54.58.55 1.12 1.1 1.78 1.65l.3.24a6.45 6.45 0 002.95 1.59h.63a7.87 7.87 0 003-.61 15.76 15.76 0 002.4-1.23 10.1 10.1 0 00.93-.63c12.18 19 17.9 21.78 20.22 21.78a2.2 2.2 0 00.63-.08 3.72 3.72 0 002.68-2.24c.6-1.54.08-3.42-.82-5.34 2.76 2.76 5.86 4.9 8.67 3a3.59 3.59 0 001.62-2.46c.33-1.92-.82-4.16-2.33-6.38 3 2.55 6.46 4.68 9.72 3a3.31 3.31 0 002-3c.06-5.25-11.87-14-15.48-15.92a13.07 13.07 0 01-4.63-4.16c.3.17.69.36 1.13.66 3.36 2.13 8.12 1.42 10.88-.33 1.73-1.09 2.63-2.57 2.44-4.08-.25-1.83-2-3.28-5.12-4.32-6.67-2.16-13.27-.93-17.15.22a9.25 9.25 0 00-.88-2.24c-.43-.74-.84-1.45-1.28-2.11-3.09-4.54-6.38-9-9.71-13.32A87.24 87.24 0 00543.16 694c9.22-10.58 15.51-23.36 19.92-36.52a82.9 82.9 0 008.75-5.28l1.15-.9-1-1.07a107.88 107.88 0 00-19.15-16.8A71.59 71.59 0 00529.54 623a66.46 66.46 0 00-25.56-.91c-1 .17-2 .33-3 .55 0-.38.06-.85.11-1.4 0-.27 0-.63.05-1a25 25 0 00-.27-6.54 3.6 3.6 0 00-.85-1.67 1.62 1.62 0 00-1.61-.44l-.25.09a18.71 18.71 0 00-4.24 3.17l-3.69 3.56c-2.3 2.32-4.54 4.67-6.76 7q-2.06 2.18-4 4.35c-3.12 3.42-6.1 6.81-8.92 10.12-2.52 2.95-4.4 5.28-6.16 7.52-.93 1.26-1.94 2.6-2.87 4a9.87 9.87 0 00-1.39 2.85 5.23 5.23 0 00.68 3.17l.14.3a136.65 136.65 0 009 13.27l2 2.71c6 8.07 12.09 16.06 18 23.8l4.76 6.21c1.59 2.11 3.18 4.22 4.79 6.3 5.75 7.55 11.71 15.37 16.85 23.14a14.23 14.23 0 01.93 1.56l.25.49a.6.6 0 01.11.39 8.34 8.34 0 01-1.29 2.87A36.94 36.94 0 01511 745a35.52 35.52 0 01-6.34 5.09 10.68 10.68 0 01-1.59.79c-.19.08-.47.14-.36.17-.11 0-.21-.14-.63-.47s-.95-.9-1.42-1.37q-1.8-1.89-3.53-3.83c-5.77-6.43-11.13-13.24-16.36-19.89l-1.86-2.38c-15.07-19.48-27.27-36.33-37.32-51.51-1-1.59-2.1-3.23-3.17-4.9-1.53-2.44-3-5-4.43-7.47-.55-1-1.07-2-1.53-3a11.47 11.47 0 01-.88-2.29 1.79 1.79 0 00.08-.36c.06-.16.11-.33.17-.47a5.07 5.07 0 01.27-.68c.47-1 .9-1.89 1.48-2.84 4.46-7.56 9.79-14.45 14.94-21.13l.3-.38c8.94-11.41 18.66-22.95 29.68-35.26 16.55-18.42 31.46-33.11 39.92-39.29 1.2-.9 2.32-1.67 3.2-2.24l.49-.33a2.2 2.2 0 00.44-.28c2.41 1.86 4.9 3.62 7.41 5.2-.16.19-.33.41-.52.63-3.61 4.41-7.3 9.41-11.68 15.73q-2.7 3.9-5.11 7.58c-.17.27-.36.6-.61 1a15.33 15.33 0 00-1.91 3.53 1.74 1.74 0 00.14 1.67 1.77 1.77 0 001.42.9 7.88 7.88 0 002.41.14l13.67-.71c1.7-.09 2.25-.09 2.71-.09h.14l-5.47 8a5.78 5.78 0 00-.63 1.09 3.65 3.65 0 00-.17 2.14 3.89 3.89 0 001.24 2l57.12 47.5a14.91 14.91 0 001.78 1.34l-1.11 2.67c-.06.14-.11.25-.17.36a6.12 6.12 0 00-.3.88z"/><path class="cls-9" d="M546.4 927.13l-3.5-43.82c-.74-10.28-1.67-23.07-1.63-36.74s1.69-28.35 3.14-41.4c.28-2.56.27-3.17-.49-3.27s-.93.48-1.34 3c-2.18 13.53-4.35 27.89-4.87 41.57-.49 13.23 0 25.58.62 37.1 1 18.23 2 32.41 2.57 40l.28 3.9c.15 2.08.3 2.21.49 2.37l.22.19 4.2-.33.19-.21c.16-.13.29-.29.12-2.36z"/><path class="cls-10" d="M540.5 931.29a122.8 122.8 0 0113.12-.41 71 71 0 017.82.65c1.36.19 2.74.46 4.13.79l.51.12a.16.16 0 010 .07.12.12 0 010 .13c-.16 1.14-.38 2.83-.7 4.65-.16.92-.36 1.87-.59 2.81a14.64 14.64 0 01-.78 2.36l-2.4.27-2.85.27-5.53.42c-1.8.11-3.56.18-5.23.2-.84 0-1.64 0-2.39-.07l-1-.12c-.27-.08-.15 0-.28 0s0 0-.27-.25-.39-.57-.59-.89c-.39-.62-.76-1.27-1.1-1.93a35.92 35.92 0 01-1.8-3.93 21.5 21.5 0 01-1.08-3.57 1.45 1.45 0 011-1.57l-.44-2.44a4.24 4.24 0 00-3.68 3.95 19.15 19.15 0 00.62 4.75 34.1 34.1 0 001.47 4.61c.31.78.65 1.56 1 2.37.2.4.42.81.66 1.22a4.57 4.57 0 001.4 1.56 3.82 3.82 0 001 .61l1 .35c.5.11 1 .23 1.51.3 1 .14 1.9.23 2.83.29 1.85.11 3.72.13 5.61.1s3.8-.11 5.75-.23l3-.22 1.5-.14 2-.23c.22-.1.53-.08.8-.3a2.7 2.7 0 001-.48 6 6 0 001.65-2 15.94 15.94 0 001.36-3.86c.27-1.15.48-2.23.63-3.25.31-2 .47-3.75.56-5.1a5.58 5.58 0 00-1.47-4.28 5.75 5.75 0 00-1.84-1.31 6 6 0 00-1.06-.35l-.63-.12a40.23 40.23 0 00-4.69-.61 55.75 55.75 0 00-8.48 0 67.79 67.79 0 00-13.46 2.36z"/><path class="cls-10" d="M564.12 944.8a8.19 8.19 0 00.32 6.77 31.34 31.34 0 003.41 5.52c2.43 3.39 5.23 6.91 5.6 10.67.15 1.83-.19 4.06-1.16 5.12s-2.9 1.73-5.11 2c-4.52.53-9.7.38-15 .76-10.8.5-21.42 4.17-32.28 5.5-5.42.61-11 .78-16.08-.74a20.92 20.92 0 01-12.43-9 17.76 17.76 0 01-.11-18.51 16.88 16.88 0 016.82-6.11 23 23 0 018.87-2.23 13.9 13.9 0 017.89 1.51 8.87 8.87 0 014.08 5.54 14.29 14.29 0 010 7 12 12 0 01-1.14 3l-.18.34v.09a1 1 0 01-.18.27 1.71 1.71 0 01-.29.33l-1.27 1.3c-.84.89-1.66 1.65-2.46 2.37a10 10 0 002.3 1.37c.89.49 1.81.78 2.69 1.17a10 10 0 002.86.75 11.78 11.78 0 001.92.22 29.67 29.67 0 007.13-.39 20.85 20.85 0 0011.25-5.58 14.16 14.16 0 004.07-10 28 28 0 00-.43-4.75c-.43-1.45-.86-2.85-1.27-4.23l-2.34.8q.43 1.92.9 3.93a26.64 26.64 0 01.13 4.1 11.05 11.05 0 01-3.53 7.66 17.49 17.49 0 01-9.43 4.16 25.38 25.38 0 01-6.12.14 9.13 9.13 0 01-1.57-.22 2.39 2.39 0 01-.5-.13 2.3 2.3 0 01-.43-.18c-.12-.08-.34-.14-.1-.27a2 2 0 00.35-.3l.15-.16v.08l.07-.11.27-.47a16.62 16.62 0 001.73-4 18.8 18.8 0 00.33-9.41 14 14 0 00-6.18-8.8 18.91 18.91 0 00-10.89-2.48 28.23 28.23 0 00-11.08 2.63 22.45 22.45 0 00-9.18 8.07 23.36 23.36 0 000 24.61A26.51 26.51 0 00502.3 986c6.25 1.79 12.54 1.47 18.35.73 11.68-1.63 21.94-5.43 32-6.13 5.09-.52 10-.49 15.24-1.28a17.69 17.69 0 004-1.07 12.4 12.4 0 002-1.07 8.26 8.26 0 001.71-1.68 8.56 8.56 0 001.7-4.14 13.88 13.88 0 000-4 16.88 16.88 0 00-2.87-6.92c-1.29-1.94-2.71-3.63-4-5.25-2.58-3.17-5.11-6.48-4-9.4z"/><path class="cls-9" d="M638.86 807.48c-.48-2.49-.66-3.06-1.42-2.93s-.75.72-.4 3.23c3.1 22.07 3.75 47 2 76.26-1.26 19.48-3 34.43-3.78 40.82l-.21 1.76c-.2 1.75-.3 2.54.51 2.64l3.9.46.22-.18c.19-.15.36-.28.58-2.31l.14-1.32c.71-6.44 2.37-21.5 3.21-41.64 1.11-29.35-.44-54.48-4.75-76.79z"/><path class="cls-10" d="M641.43 928.42a67.61 67.61 0 00-19.21-2.55 47.1 47.1 0 00-5.81.46c-.49.06-1 .15-1.5.25l-.75.14c-.36.06-.84.18-1.28.3l-2.73.73-.69.19c-.16 0-.17.1-.14.23v.36l.08 1.41.21 2.87.15 1.54c.1 1 .24 2.07.39 3.13a28.75 28.75 0 001.7 6.73 9.15 9.15 0 00.67 1.25 4.61 4.61 0 001 1.14 2.79 2.79 0 001.12.67l.26.11c0 .19.16.1.23.16l.46.14 1.31.16.87.09 1.71.15 3.31.23c2.18.12 4.27.19 6.25.19s3.86-.06 5.62-.24a21.79 21.79 0 002.63-.42 9.51 9.51 0 001.57-.51 13.2 13.2 0 001.41-1 10.37 10.37 0 001.12-1.68c.25-.46.47-.91.67-1.34.41-.88.76-1.71 1.06-2.52a33 33 0 001.35-4.58 20.53 20.53 0 00.35-2.13c0-.35.07-.7.08-1v-.53a4.4 4.4 0 00-.06-.73 4 4 0 00-3.49-3.31l-.45 2.43a1.29 1.29 0 01.89 1.24v.17l-.08.39c0 .26-.11.53-.18.81-.14.56-.33 1.14-.54 1.75a35.57 35.57 0 01-1.65 3.93c-.33.7-.71 1.41-1.12 2.13l-.64 1.06a4.16 4.16 0 01-.51.69.51.51 0 01-.2.06h-.5c-.55.07-1.27.09-2 .12-1.53 0-3.29 0-5.16-.15s-3.9-.25-6-.43l-3.2-.3-2.8-.32-.09-.22a25 25 0 01-1.33-5.27c-.15-1-.29-1.93-.44-2.89l-.18-1.43v-.2c0-.03 0 0 .12 0l.64-.16c.44-.1.86-.21 1.3-.29 1.74-.36 3.49-.59 5.2-.78a105.29 105.29 0 0118.47.08z"/><path class="cls-10" d="M614.94 945.28c1.12 2.92-1.4 6.24-4 9.4-1.32 1.63-2.73 3.31-4 5.26a16.7 16.7 0 00-2.87 6.91 13.88 13.88 0 000 4 8.56 8.56 0 003.41 5.83 12.86 12.86 0 002 1.06 18.12 18.12 0 004 1.08c5.19.78 10.15.75 15.23 1.28 10 .69 20.28 4.5 32 6.13 5.8.73 12.09 1 18.35-.73a26.53 26.53 0 0015.83-11.5 23.35 23.35 0 000-24.6 22.38 22.38 0 00-9.18-8.07 28.16 28.16 0 00-11.07-2.64 19 19 0 00-10.89 2.48 13.94 13.94 0 00-6.18 8.81 18.8 18.8 0 00.33 9.41 15.66 15.66 0 001.73 4l.27.47.07.12c-.11-.21 0 0 0-.09l.15.16a1.8 1.8 0 00.35.31c.24.12 0 .19-.11.27a4.08 4.08 0 01-.42.18 2.45 2.45 0 01-.5.12 7.52 7.52 0 01-1.57.22 25.91 25.91 0 01-6.12-.13 17.6 17.6 0 01-9.44-4.17 11 11 0 01-3.52-7.65 26.77 26.77 0 01.12-4.11l.91-3.93-2.34-.8c-.42 1.38-.84 2.79-1.27 4.23a28.08 28.08 0 00-.43 4.76 14.16 14.16 0 004.06 10 20.94 20.94 0 0011.21 5.65 29.2 29.2 0 007.13.39 11.62 11.62 0 001.92-.21 10.13 10.13 0 002.87-.76c.88-.39 1.8-.68 2.69-1.17a10.18 10.18 0 002.3-1.37c-.8-.72-1.63-1.48-2.46-2.36l-1.28-1.3a2 2 0 01-.28-.33 1.62 1.62 0 01-.18-.28v-.08l-.17-.35a12 12 0 01-1.14-3 14.17 14.17 0 010-7 8.9 8.9 0 014.07-5.55 13.9 13.9 0 017.89-1.51 23 23 0 018.88 2.24 16.78 16.78 0 016.81 6.11 17.72 17.72 0 01-.11 18.51 20.88 20.88 0 01-12.43 9c-5.1 1.52-10.66 1.36-16.07.74-10.86-1.32-21.49-5-32.29-5.49-5.25-.39-10.44-.24-15-.77-2.21-.3-4.25-.83-5.11-2s-1.31-3.3-1.17-5.13c.37-3.75 3.18-7.28 5.61-10.67a31.34 31.34 0 003.41-5.52 8.23 8.23 0 00.32-6.77zm4.69-16.39c.38 0 .92-2 1.33-4.94a459.37 459.37 0 004.73-65.54c-.17-13-.91-26.92-4.3-41.3-1.82-7.13-4.13-14.55-8.93-21.17a26 26 0 00-9.31-8.37 23.45 23.45 0 00-12.61-2.64 27 27 0 00-12.27 3.62 34 34 0 00-9.06 8.41 64 64 0 00-9.61 20.83c-3.94 14.26-5 28.23-5.39 41.22a308.16 308.16 0 005.85 65.49c.62 2.94 1.29 4.92 1.67 4.85s.35-2.15-.05-5.11a383.57 383.57 0 01-2.8-65.06c.7-12.74 2.1-26.38 6-39.84a59.78 59.78 0 018.89-18.91 28.2 28.2 0 017.45-6.9 21.27 21.27 0 019.59-2.79c6.94-.53 13.08 2.89 17 8.58 4.1 5.52 6.42 12.42 8.2 19.13 3.41 13.62 4.47 27.3 5 40.07.87 25.62-.62 48-1.68 65.26-.19 2.99-.08 5.07.3 5.11z"/><path class="cls-9" d="M751.94 420.11a107.2 107.2 0 01-19.63-4.32 53 53 0 01-9.92-4.46c-.93-.54-1.31-.06-1.41.11l-2 3.42.08.28c0 .1.11.41.72.74a45 45 0 0011.23 4.3 68.92 68.92 0 0016.59 1.88c1.42 0 2.84 0 4.25-.11.85 0 1.29-.33 1.32-.86s-.38-.86-1.23-.98zm2.95-6.05c-13.41-4.16-22.11-10.51-25.85-18.87l2.5-1.12c3.4 7.61 11.53 13.46 24.16 17.38zM805.41 439c-1.09-2.9-3.23-5.52-6.54-8a39 39 0 00-7.91-4.44 81.42 81.42 0 00-20.18-5.41c-.43-.06-.8-.11-1.12-.17-.78-.1-1.61-.15-1.76.62l-.34 3.56v.31l.17.24c.14.2.34.36 1.33.48l1.17.16a85.24 85.24 0 0119.06 4.46 36.17 36.17 0 017.24 3.58c2.87 1.91 4.66 3.82 5.65 6a11.3 11.3 0 01.25 8.55 29.22 29.22 0 01-4.76 8.66c-.5.67-1.11 1.51-.47 2a.71.71 0 00.45.17c.51 0 1-.57 1.44-1a29.66 29.66 0 006-8.87 17.5 17.5 0 001.3-5.42 13.85 13.85 0 00-.98-5.48z"/><path class="cls-9" d="M827.78 422.72c-3.71-3.5-8.87-6.18-15.77-8.18-10.66-2.88-23-3.68-37.7-2.46-2.6.27-2.59.32-2.56.69s0 .42 2.64.23c14.63-.82 26.78.25 37.13 3.25 6.57 2 11.42 4.64 14.83 8a20.05 20.05 0 016.07 13.43c.19 9.12-3.19 16.75-6.88 23.63-1.53 2.73-3 5.23-4.41 7.43-1.33 2-2.36 3.48-3 4.49l-.67 1c-.3.47-.43.69-.16.91l1.58 1.13h.15c.16 0 .23-.09.56-.55l.7-1 3.08-4.57c1.43-2.3 2.94-4.87 4.47-7.64l2.46-5c.63-1.53 1.45-3.56 2.29-5.8a39.62 39.62 0 002.17-14.18 22 22 0 00-6.98-14.81zm-28.16 79.79l-.15-.26-.29-.07c-.63-.13-.85.37-1.16 1-.19.42-.48 1-.9 1.79A107.75 107.75 0 01783 523.8a45.4 45.4 0 01-8.27 7.46 5.18 5.18 0 01-1.83.82 6.14 6.14 0 01-2.08-.5 31.31 31.31 0 01-4.75-2.39 73.28 73.28 0 01-16.23-13.27 27.75 27.75 0 01-2.84-3.82 6.9 6.9 0 01-1.23-3.52c0-.56.25-1 1.46-1.53l2.2-.79.74-.26a11.07 11.07 0 001.61-.66 83.64 83.64 0 0015.06-9.56c4.68-3.57 8.63-7 11.19-9.27 6.15-5.43 10.41-9.63 12.69-11.88l.26-.27c1.64-1.63 2-2.06 1.44-2.61l-2.57-2.5-.21-.22h-.29c-.29 0-.44 0-2.08 1.64l-.36.35c-2.23 2.24-6.37 6.38-12.26 11.71-2.5 2.27-6.34 5.68-10.81 9.2a82.09 82.09 0 01-14 9.29 8.31 8.31 0 01-1.21.52l-.72.27-2.32.89a7.32 7.32 0 00-2.83 2 5.67 5.67 0 00-1.34 3.63 10.82 10.82 0 002 5.85 32.06 32.06 0 003.39 4.36 75 75 0 0017.53 13.58 34.56 34.56 0 005.39 2.5 9.35 9.35 0 003.12.6h.4a8 8 0 003.29-1.4 45.45 45.45 0 008.25-7.87l.41-.46c2.45-2.86 4.91-6 7.3-9.45a80 80 0 006.3-10.33c.09-.32 1.2-2.68.82-3.4zm-80.15-161.74l-2.35-1.38a4.24 4.24 0 01-1.11.16 4.15 4.15 0 01-1.16-.18.71.71 0 00-.1.14 92.63 92.63 0 00-5.43 12.12 80.55 80.55 0 00-5.15 23c0 .34-.1 1.37.7 1.49h.13c.69 0 .91-.91 1-1.22 1.67-7.1 5.3-18.47 13.09-32.38l.24-.43a1.26 1.26 0 00.24-1zM760 322.66l-.4-4.77c-.09-.57-.17-1.18-.26-1.83-.23-1.69-.5-3.62-1-5.75a47.64 47.64 0 00-3.14-9.88 25 25 0 00-7.82-10.34c-3.64-2.88-8.87-4.28-14.32-3.83a41.3 41.3 0 00-14.9 4.37c-8.65 4.19-17.54 10.54-26.43 18.89-1.27 1.23-1.85 1.84-1.31 2.44s1.24 0 2.54-1.06c9.29-7.67 18.27-13.4 26.67-17a38.56 38.56 0 0113.66-3.47c4.52-.18 8.51 1 11.29 3.32a20.79 20.79 0 016.14 8.67 43.66 43.66 0 012.65 9c.4 1.91.62 3.69.82 5.26.08.67.16 1.3.24 1.84l.32 4.56c.12 1.62.3 1.77.46 1.91l.22.18 4.2-.2.19-.22c.18-.24.33-.41.18-2.09zm-15.54 29.98l-.77-.72-.79-.71h-.14c-.07 0-.23 0-.57.4a65.82 65.82 0 00-5.77 7.85 53.36 53.36 0 00-7 15.83c-.08.34-.21.84.18 1h.12c.31 0 .47-.42.58-.71a72.77 72.77 0 0113.56-21.86l.31-.36c.33-.36.32-.5.32-.58z"/><path class="cls-10" d="M687 335c.18.33 4.1-1.43 9.92-3.7a124.39 124.39 0 0127.92-7.47c10.1-1.38 21.17-1.37 31.86 2.08a50.27 50.27 0 0115.1 7.84 55 55 0 0112.12 13c3.37 5 6.17 10.65 6.92 16.73a33.12 33.12 0 01-2.91 18.23c-2.56 5.95-6.38 11.55-10.3 17.32s-8.18 11.71-10.67 19.13a24.74 24.74 0 00-1 11.95 26.54 26.54 0 004.92 11c4.56 6.48 10.92 11.38 17.36 15.48s13.11 7.81 19 12.35 11 10 14.13 16.65c3.33 6.59 4.71 14.18 5.2 21.85a116 116 0 01-1.38 23.5c-.14 1.15-.34 2.3-.55 3.44l-.54 3h-30.64l.45-1.18q1-2.58 1.84-5.18c1.16-3.47 2.19-7 3.06-10.47a100.23 100.23 0 003.19-21.19 50.23 50.23 0 00-3.51-21.11 33.2 33.2 0 00-5.78-9.14l-3.63-3.66c-1.27-1.16-2.62-2.23-3.92-3.34a54.61 54.61 0 00-17.95-8.86 52.54 52.54 0 01-8.4-3 10 10 0 01-5-5.43 25.09 25.09 0 01-1.56-8.05 36.62 36.62 0 01.69-8.35c1-5.52 3.17-10.91 4.87-16.43A62.37 62.37 0 00761 395a57.71 57.71 0 00-2.08-16.5 80.44 80.44 0 00-5.56-14.81 55.69 55.69 0 00-8.69-12.5 37.24 37.24 0 00-25.18-11.91c-9-.51-17.27 1.74-24.57 4.52-5.81 2.54-9.57 4.74-9.41 5s4.22-1.21 10-3.5c7.25-2.49 15.34-4.37 23.8-3.64a34.66 34.66 0 0123.07 11.62 52.79 52.79 0 017.89 11.91 78.68 78.68 0 015 14.2 54.53 54.53 0 011.68 15.41 58.7 58.7 0 01-3.23 15.82c-1.72 5.34-4 10.77-5.23 16.85s-1.52 12.6.91 19.12l.47 1.23c.2.4.46.78.7 1.17a10 10 0 001.62 2.22 14.87 14.87 0 004.31 3.33 55.34 55.34 0 009.2 3.46 49.66 49.66 0 0116.28 8.2c1.16 1 2.37 2 3.51 3l3.29 3.38a27.88 27.88 0 014.77 7.7 45.07 45.07 0 013 18.84 95 95 0 01-3.05 20.08q-1.29 5-3 10c-.57 1.66-1.16 3.32-1.8 5l-.53 1.37-1 2.5-2.27 5.09h42.91c.51-.08 1.39.27 1.28-.56l.61-3.43.69-3.91c.22-1.18.42-2.37.57-3.57a119.7 119.7 0 001.41-24.66c-.53-8.22-2-16.58-5.83-24.07-3.62-7.57-9.49-13.81-15.85-18.6S797.41 456 791.16 452s-12-8.35-16-14a21.37 21.37 0 01-4.1-8.82 19.42 19.42 0 01.76-9.47c2-6.31 6-12.13 9.84-17.94s7.79-11.69 10.5-18.24a37.4 37.4 0 003-20.7c-1-7-4.21-13.1-7.9-18.4A58.5 58.5 0 00774 330.77a53.64 53.64 0 00-16.33-8.07c-11.44-3.4-22.93-3.07-33.24-1.38a122.27 122.27 0 00-28.17 8.47c-5.83 2.51-9.5 4.89-9.26 5.21z"/><path class="cls-9" d="M528.72 776.16c-2.42 0-8.53-3-21.77-24.21l2.31-1.45c8.19 13.08 17.06 23.65 19.37 23 .71-.2.82-.49.86-.6.56-1.44-1.8-5.22-3.07-7.24-1.65-2.64-2.74-4.37-1.25-5.42s2.74.43 5 3.09 6.25 7.24 8.2 6a.82.82 0 00.42-.62c.28-1.7-2.47-5.29-4.12-7.43-2-2.58-2.79-3.68-2.53-4.83l.13-.62.73-.5c1.48-.76 2.91.62 5.28 2.89 2.68 2.57 6.72 6.48 9.37 5.14.48-.24.49-.45.49-.63 0-3.14-9.52-11-14-13.46-3.48-1.85-6.55-5.44-6.57-7.68a2 2 0 011-1.81c1.06-.58 2.54-.2 4.83 1.25s5.93 1 8-.31c.87-.55 1.22-1.11 1.18-1.42-.06-.49-1-1.33-3.25-2.07-9.16-3-18.58 1.33-18.67 1.37l-1.23-2.6c.42-.2 10.46-4.8 20.68-1.49 3.16 1 4.88 2.48 5.11 4.32.19 1.49-.69 3-2.42 4.08-2.76 1.75-7.52 2.45-10.9.31-.44-.28-.81-.49-1.11-.65a13.17 13.17 0 004.61 4.16c3.63 1.93 15.56 10.67 15.5 15.92a3.38 3.38 0 01-2 3c-3.27 1.64-6.74-.49-9.71-3.05 1.51 2.21 2.64 4.46 2.32 6.4a3.56 3.56 0 01-1.61 2.45c-2.81 1.87-5.92-.24-8.67-3 .9 1.91 1.41 3.8.82 5.33a3.76 3.76 0 01-2.69 2.24 2.38 2.38 0 01-.64.14z"/><circle class="cls-9" cx="652.46" cy="661.47" r="3.46"/><path class="cls-10" d="M670.93 643.26c4 3 6.61 8.9 7.14 15.68a52.6 52.6 0 01-3.33 22 51.55 51.55 0 01-11.8 18.91 33.82 33.82 0 01-15.44 8.93l.3 1.62a31.88 31.88 0 008.62-2.42 34.6 34.6 0 008.76-5.73 49.6 49.6 0 0013.2-20 50.25 50.25 0 003-23.77 28.9 28.9 0 00-3.22-10 17.49 17.49 0 00-6.25-6.62z"/><path class="cls-9" d="M713 662.81a107.49 107.49 0 00-23.26-13.69 64.52 64.52 0 00-26.09-5.35 54 54 0 00-25.5 7c-7.82 4.36-14.65 10.36-20.79 17l-.16-2a59.36 59.36 0 0021.33 10.56 44.1 44.1 0 0012 1.44 41.58 41.58 0 0011.93-2l.08.22a42.23 42.23 0 01-12 2.61 45.47 45.47 0 01-12.31-.85 61.27 61.27 0 01-22.71-9.86l-1.17-.91 1-1.08c6.29-6.76 13.34-13 21.5-17.51A56.83 56.83 0 01663.6 641a67.49 67.49 0 0127.2 5.56 111 111 0 0123.86 14z"/><path class="cls-9" d="M667.12 723.61c-22.12-9.61-37.52-27.32-45.8-52.47l2.59-.86c8 24.38 22.94 41.48 44.31 50.82zm-14.65-52.96a9.2 9.2 0 01-8.73-12.06 9.18 9.18 0 118.73 12.07zm-6.13-11.21a6.45 6.45 0 1012.24 4 6.45 6.45 0 00-12.24-4z"/><path class="cls-10" d="M696.2 735.08a157.35 157.35 0 0027.61.83c5.29-.27 11-.79 17.23-1.71 3.11-.47 6.36-1 9.74-1.7l4.8-1 .64-.13.31-.08c.07 0 .28-.11.14 0a9.18 9.18 0 00-.5 1 33.55 33.55 0 00-1.32 5.42 27.91 27.91 0 00.94 12.11c1.11 4.18 3.56 8 6.37 11.57a52.74 52.74 0 0010.45 9.18 62.33 62.33 0 006.13 3.75l3.34 1.72 3.1 1.59 1.57.8c.33.32.34-.23.48-.43l.34-.82q1.09-2.65 2.22-5.36a28.63 28.63 0 001.26-3.62c.35-1.24.82-2.45 1.07-3.74s.51-2.59.76-3.89a39 39 0 00-.94-16.25 35.72 35.72 0 00-8.26-14.56l-.45-.5-.06-.07-.12-.11-.05-.08h.36c1.56 0 3.12.08 4.67 0a41.31 41.31 0 0017.75-4.76A38.61 38.61 0 00819 712.37c.79-1.22 1.66-2.38 2.34-3.62l3-5.78.44-.86.22-.42c-.08-.08-.29-.1-.42-.15l-1.85-.53-3.64-1-3.91-1.1c-10.18-2.63-20.22-4.19-29.61-3a31.9 31.9 0 00-12.9 4.43l-1.38.91c-.43.34-.84.71-1.25 1.07a16.43 16.43 0 00-2.26 2.31 9.77 9.77 0 00-.95 1.27l-.21.31v.07a1.18 1.18 0 00-.11.19 5.26 5.26 0 00-.34.84 1.5 1.5 0 00-.07.27c-.23-.31-.49-.66-.72-1a1 1 0 00-.21-.25l-.52-.79c-.34-.52-.69-1-1-1.54-1.37-2-2.69-3.92-4-5.7-2.6-3.57-5-6.72-7.33-9.55-4.61-5.67-8.72-10.12-12.74-14.19l-3.41 3.27c3.8 4.14 7.76 8.55 12.4 14 2.33 2.73 4.8 5.75 7.51 9.14l4.2 5.4 1.1 1.45 1.47 2c1.22 1.61 2.48 3.3 3.58 4.84a5.05 5.05 0 01.51.36c.57-1.61 1.25-3.37 2-5a5.87 5.87 0 01.57-1.15 6 6 0 01.36-.52l.2-.27a6.73 6.73 0 01.79-1 12.38 12.38 0 011.88-1.8l1-.84 1.17-.71a28.07 28.07 0 0111.26-3.5c8.49-.84 18 .75 27.79 3.44l3.59 1.07c.09 0 .28 0 .2.13l-.06.1-.2.39-.44.84c-.62 1.11-1.42 2.11-2.11 3.19a33.68 33.68 0 01-11.55 10.15 36.2 36.2 0 01-15.54 4.05 38.86 38.86 0 01-4.18 0l-1.86-.1-2.29-.24-4.65-.59a14.94 14.94 0 00-1.64.9l-.3.38a1.31 1.31 0 00-.18.26 3.24 3.24 0 00-.24.6l-.08.45a1.43 1.43 0 000 .23l.08.43.15.87a11 11 0 001.12 1.4 30.85 30.85 0 013.12 2.48c.53.47 1.09 1 1.66 1.51l.87.8.39.44a30.41 30.41 0 017.06 12.38 33.86 33.86 0 01.84 14c-.22 1.16-.43 2.31-.65 3.46s-.64 2.25-1 3.37a24.37 24.37 0 01-1.13 3.31l-.52 1.3v.06c0 .06-.06 0-.13 0l-3-1.5a60.18 60.18 0 01-5.75-3.43 48.4 48.4 0 01-9.56-8.14c-2.49-3.08-4.66-6.3-5.63-9.78a23.67 23.67 0 01-1-10.13 30 30 0 011-4.67c.59-1.57 1.23-2.9 1.93-4.38l2.6-4.55a16.68 16.68 0 00-2.25.61l-2.46.73c-1.64.52-3.15.88-4.69 1.3l-2.93.73-2.5.57c-3.3.74-6.47 1.33-9.51 1.86-6.09 1-11.68 1.7-16.87 2.12a170.84 170.84 0 01-27.15.18z"/><path class="cls-10" d="M730.49 705.26a.32.32 0 00-.39 0 20.57 20.57 0 01-6.87 3.81 6.4 6.4 0 01-4-.15 7.79 7.79 0 01-2.66-2 .36.36 0 00-.39-.09.29.29 0 00-.08.38 5.82 5.82 0 002.41 3 6.67 6.67 0 005.21.64 11.26 11.26 0 006.8-5.33.29.29 0 00-.03-.26zm23.51-1.89c-.1-.08-.29 0-.47.12a22.26 22.26 0 01-4 2.89c-1.67.86-3.8 1.54-5.75.88s-3.26-2.39-4.05-4.1a25.26 25.26 0 01-1.53-4.76c-.06-.23-.19-.38-.32-.37s-.22.17-.23.41a14.18 14.18 0 00.63 5.29 7.91 7.91 0 004.91 5.38 8.28 8.28 0 007.14-1.39 13.24 13.24 0 003.66-3.88c.07-.2.09-.39.01-.47zm-30.5 19.2c-.1-.08-.28 0-.45.09a19.32 19.32 0 01-3.75 2.6 8.93 8.93 0 01-5.39 1 7 7 0 01-4.31-3.06 16.29 16.29 0 01-1.8-4.16c-.07-.2-.2-.34-.33-.32s-.21.17-.21.39a10.53 10.53 0 001 4.86 7.66 7.66 0 005.3 4.19 9 9 0 006.54-1.51 11.3 11.3 0 003.39-3.59c.1-.24.11-.42.01-.49z"/><path class="cls-10" d="M739.77 714.69c-.09-.08-.29 0-.47.12a22.26 22.26 0 01-4 2.89 7.58 7.58 0 01-5.75.88 7.11 7.11 0 01-4-4.1 26.81 26.81 0 01-1.53-4.76c-.06-.23-.19-.38-.31-.37s-.22.17-.23.41a14.15 14.15 0 00.62 5.29 7.93 7.93 0 004.91 5.38 8.31 8.31 0 007.15-1.39 13.24 13.24 0 003.66-3.88c.03-.16.05-.39-.05-.47z"/><circle class="cls-9" cx="534.22" cy="647.45" r="4.01"/><path class="cls-10" d="M507.24 623c-.15-.21-.78 0-1.59.54a20.32 20.32 0 00-6.17 7.21 33 33 0 00-3.37 11.06 60.23 60.23 0 0018.51 49.73 36.6 36.6 0 0018.47 9.17c.93.15 1.59.12 1.63-.08s-.55-.53-1.43-.79a39.48 39.48 0 01-16.85-10.24 60.38 60.38 0 01-13.54-22 61.59 61.59 0 01-3.82-25.49c.56-7.74 3.4-14.17 7.26-17.75.66-.54 1.04-1.11.9-1.36z"/><path class="cls-9" d="M479.75 630.11a82.65 82.65 0 0124.23-8 66.11 66.11 0 0125.53.91 71.29 71.29 0 0123.32 10.4A108.17 108.17 0 01572 650.21l1 1.09-1.16.9a69.94 69.94 0 01-12.55 7.09 68.33 68.33 0 01-13.63 4.38 52.27 52.27 0 01-14.22 1 49.24 49.24 0 01-13.86-3l.07-.21a48.37 48.37 0 0013.83 2.33 51.27 51.27 0 0013.85-1.62 66.63 66.63 0 0013.07-4.85 67.44 67.44 0 0011.74-7.32l-.16 2a106.36 106.36 0 00-18.64-16.33 68.87 68.87 0 00-22.43-10 63.44 63.44 0 00-24.48-.87 80.1 80.1 0 00-23.43 7.75z"/><path class="cls-10" d="M475.79 723.19a169.89 169.89 0 01-27.16-.19c-5.18-.42-10.77-1.07-16.86-2.11-3-.53-6.21-1.12-9.51-1.86l-2.5-.57-2.93-.73c-1.54-.42-3.05-.78-4.69-1.3l-2.46-.73a16.68 16.68 0 00-2.25-.61l2.6 4.55c.7 1.48 1.34 2.81 1.93 4.38a29.82 29.82 0 011 4.66 23.71 23.71 0 01-1 10.14c-1 3.48-3.14 6.69-5.63 9.78a48.31 48.31 0 01-9.56 8.13 56.3 56.3 0 01-5.75 3.43l-3 1.5c-.07 0-.12.09-.13 0v-.06l-.53-1.29a24.32 24.32 0 01-1.12-3.31c-.31-1.12-.74-2.23-1-3.38s-.44-2.3-.65-3.45a33.85 33.85 0 01.84-14 30.4 30.4 0 017.06-12.39l.36-.4.78-.72 1.64-1.5 3.44-3.08.88-.78a1.62 1.62 0 00.11-.46l.16-.88a1.56 1.56 0 000-.52 2.1 2.1 0 00-.25-.79c-.37-.51-.27-.56-.84-.92l-.89-.47a1.42 1.42 0 00-.48-.21l-1.19.15c-1.59.19-3.19.42-4.75.57-.79.1-1.52.13-2.27.17L388 714a39.41 39.41 0 01-16.4-2.85 32.43 32.43 0 01-12.71-9.46 25.84 25.84 0 01-2.33-3.17c-.36-.54-.75-1.07-1.1-1.62l-.83-1.58s-.19-.17-.05-.18l.16-.06 1.65-.49c10.08-3 19.95-4.73 28.81-4.11a29.92 29.92 0 0111.8 3.4 15.36 15.36 0 012.33 1.58l1.06.87.92 1a6.62 6.62 0 01.84 1 8.57 8.57 0 011.13 1.86l1.07 2.59c.33.88.65 1.75 1 2.62a5.05 5.05 0 01.51-.36c1.1-1.54 2.36-3.23 3.58-4.84l1.47-2 1.09-1.45 4.21-5.4c2.71-3.39 5.18-6.41 7.51-9.15 4.64-5.48 8.6-9.89 12.4-14l-3.41-3.27A189.59 189.59 0 00420 679.07c-2.32 2.83-4.74 6-7.33 9.55-1.3 1.78-2.62 3.68-4 5.7l-1 1.54-.51.78a1 1 0 00-.21.25c-.23.36-.5.7-.72 1a1.5 1.5 0 00-.07-.27c-.34-.78 0-.59-1.82-2.88l-1.11-1.25-1.27-1.12a18.07 18.07 0 00-2.78-2 33.46 33.46 0 00-13.49-4.26c-9.74-.91-20.12.81-30.6 3.73l-6 1.7a11.66 11.66 0 00-1.81.58l.9 1.75 1.84 3.56 1.08 2.1c.38.62.81 1.23 1.21 1.84a30.62 30.62 0 002.62 3.63 37.37 37.37 0 0014.64 11.07 41.89 41.89 0 009.09 2.69 53.06 53.06 0 009.51.67l1.11-.05-.07.07-.12.12-.5.56a35.6 35.6 0 00-8.26 14.56 39 39 0 00-.94 16.25c.25 1.3.51 2.6.76 3.89s.72 2.5 1.07 3.74a27.14 27.14 0 001.26 3.62c.75 1.8 1.49 3.58 2.22 5.36l.34.82c.14.2.15.75.48.43l1.48-.8 3.1-1.58 3.33-1.72a59.61 59.61 0 006.14-3.76 52.7 52.7 0 0010.45-9.17c2.81-3.57 5.26-7.39 6.37-11.57a28.07 28.07 0 00.93-12.11 33.92 33.92 0 00-1.31-5.43 9.18 9.18 0 00-.5-1c-.14-.15.06 0 .14 0l.31.07.64.14 4.8 1c3.38.69 6.63 1.23 9.74 1.7 6.23.92 11.94 1.43 17.23 1.71a157.35 157.35 0 0027.61-.83z"/><path class="cls-9" d="M563.22 657c-4.42 13.32-10.75 26.26-20.08 37a88 88 0 01-34.53 24.09l-1-2.54a85.62 85.62 0 0033.7-23.16c9.12-10.36 15.42-23 19.86-36.06zm-34.05-1.69a10.41 10.41 0 119.83-13.68 10.41 10.41 0 01-6.61 13.16 10.62 10.62 0 01-3.22.52zm0-18.09a7.68 7.68 0 102.4 15 7.7 7.7 0 004.88-9.7 7.68 7.68 0 00-7.28-5.27z"/><path class="cls-10" d="M441.73 695.66a.31.31 0 000 .39 11.3 11.3 0 006.8 5.33 6.67 6.67 0 005.21-.64 5.82 5.82 0 002.41-3c.06-.17 0-.32-.08-.38a.36.36 0 00-.39.09 7.92 7.92 0 01-2.66 2 6.37 6.37 0 01-4 .14 20.61 20.61 0 01-6.86-3.8.34.34 0 00-.43-.13zm-23.49-1.89c-.1.08-.08.28.05.48a13.16 13.16 0 003.67 3.88 8.28 8.28 0 007.14 1.38 7.92 7.92 0 004.91-5.37 14.18 14.18 0 00.63-5.29c0-.24-.11-.41-.23-.42s-.26.15-.32.38a25.26 25.26 0 01-1.53 4.76 7.11 7.11 0 01-4.05 4.1 7.58 7.58 0 01-5.75-.88 22.26 22.26 0 01-4.05-2.9c-.18-.14-.37-.2-.47-.12zM448.72 713c-.1.08-.09.26 0 .45a11.35 11.35 0 003.38 3.59 9 9 0 006.54 1.51 7.66 7.66 0 005.31-4.2 10.47 10.47 0 001-4.85c0-.22-.08-.38-.21-.4s-.26.13-.33.33a16.45 16.45 0 01-1.8 4.15 6.88 6.88 0 01-4.31 3.06 8.78 8.78 0 01-5.39-1 19.32 19.32 0 01-3.75-2.59c-.16-.11-.34-.16-.44-.05z"/><path class="cls-10" d="M432.44 705.09c-.09.08-.07.28.06.48a13.24 13.24 0 003.66 3.88 8.29 8.29 0 007.14 1.38 7.93 7.93 0 004.92-5.37 14.38 14.38 0 00.62-5.29c0-.24-.1-.41-.23-.42s-.25.15-.32.38a25.9 25.9 0 01-1.52 4.76 7.1 7.1 0 01-4.06 4.1c-1.94.66-4.08 0-5.74-.88a21.92 21.92 0 01-4.05-2.9c-.18-.14-.38-.21-.48-.12z"/><path class="cls-9" d="M589.92 685.68c-.95-.21-1-.24-3 8.29-10.67 45.23-28.92 86.29-52.69 118.74a240.48 240.48 0 01-41.1 43.88 195.93 195.93 0 01-22.95 16.29c-4.39 2.58-8.26 4.66-11.84 6.35l-1 .47c-.65.3-1.3.6-2 .87l-2.32.94-.39.14c.07-.2.15-.4.23-.6l8.31-19.91c3.57-8.44 6.42-15.34 9-21.71 5.49-13.74 10.18-26.56 13.93-38.12 8.24-25.18 11.1-42.33 11.94-48.53.25-1.69.43-3.23.53-4.36.19-2.1.23-2.59-.63-2.7l-4.33-.46c-.89-.1-.94.44-1.21 2.45l-.59 4.18c-.81 6.05-3.55 22.79-11.52 47.55-3.63 11.41-8.2 24.14-13.57 37.83-2.47 6.32-5.34 13.4-8.76 21.67l-7.19 17.46-1.32 3.44a17.14 17.14 0 00-1.23 4.88 4.26 4.26 0 00.05.85l.07.42c.11.26.23.52.37.79l.08.19v.4l.93.43a2.18 2.18 0 00.89.17h.33a12 12 0 004.73-.9l1.22-.44a10.85 10.85 0 001.08-.41l1.57-.67c.69-.29 1.36-.61 2-.93l1.13-.52c3.74-1.81 7.75-4 12.26-6.72a200.76 200.76 0 0023.41-17 242.63 242.63 0 0041.38-45.21c23.74-33.24 41.5-75 51.37-120.75 1.83-8.51 1.8-8.52.83-8.74zM588.09 645c0-.27 0-.45-2-2l-31.35-25.58-25.51-20.79a1.66 1.66 0 00-.18-.19c.33-.66 1.56-2.51 3.9-6.05 1.27-1.93 2.92-4.42 5-7.65l.78-1.19-23.94 2.21-1.19.17 1.48-2.52c1.5-2.48 3.09-5.05 4.77-7.68 2.6-4.07 6.56-10.15 11-16 1.91-2.49 2.2-3 1.58-3.47s-1-.08-3 2.33c-3.6 4.41-7.31 9.41-11.69 15.73q-2.67 3.87-5.09 7.57l-.61.94a15 15 0 00-1.93 3.54 1.7 1.7 0 00.15 1.66 1.76 1.76 0 001.41.92 8.25 8.25 0 002.4.14l13.69-.71c1.7-.09 2.23-.09 2.72-.1h.14l-5.47 8a6.26 6.26 0 00-.63 1.12 3.46 3.46 0 00-.18 2.13 3.74 3.74 0 001.22 2l57.15 47.5c1.67 1.39 2 1.55 2.27 1.55h.38l2.74-3.18zm-59.59-48.23zm59.99 42.31c-20.69-45.83-47.12-75.62-52.21-81.12l2-1.86c5.14 5.56 31.84 35.64 52.7 81.85zm62.39 137.1a2.57 2.57 0 01-.73-.1 3.72 3.72 0 01-2.68-2.24c-.6-1.53-.09-3.42.81-5.33-2.74 2.76-5.85 4.87-8.67 3a3.6 3.6 0 01-1.61-2.45c-.32-1.94.82-4.19 2.33-6.4-3 2.56-6.44 4.69-9.71 3.05a3.36 3.36 0 01-2-3c-.07-5.25 11.86-14 15.5-15.92a13.12 13.12 0 004.6-4.16c-.3.16-.66.37-1.11.65-3.38 2.15-8.13 1.44-10.9-.31-1.72-1.1-2.61-2.59-2.42-4.08.24-1.84 2-3.3 5.12-4.32 10.22-3.32 20.25 1.29 20.68 1.49l-1.16 2.48c-.1 0-9.51-4.33-18.68-1.37-2.3.74-3.18 1.58-3.24 2.07 0 .31.31.87 1.17 1.42 2 1.29 5.66 1.78 8 .31s3.77-1.84 4.83-1.25a2 2 0 011 1.81c0 2.24-3.09 5.83-6.57 7.68-4.53 2.41-14.09 10.32-14 13.46 0 .18 0 .39.49.63 2.65 1.34 6.69-2.57 9.38-5.14 2.36-2.27 3.8-3.65 5.27-2.89l.57.3.3.82c.25 1.15-.54 2.25-2.54 4.83-1.64 2.14-4.4 5.73-4.12 7.43a.81.81 0 00.43.62c2 1.29 6-3.42 8.19-6s3.54-4.14 5-3.09.41 2.78-1.24 5.42c-1.27 2-3.64 5.8-3.08 7.24 0 .11.15.4.87.6 2.32.64 11.18-9.87 19.36-23l2.32 1.45c-4.74 7.52-15.89 24.29-21.76 24.29z"/><path class="cls-9" d="M753.57 650.73a29.28 29.28 0 00-1.67-3.63c-1.23-2.35-2.59-4.52-3.75-6.33-2.31-3.6-4.81-7.26-7.9-11.51-11.32-15.56-22.12-28.65-30.26-38.32-17.26-20.43-32.48-36.35-41.73-43.66a46.16 46.16 0 00-4.74-3.33c-2.66-1.49-3-1.35-3.46-1.16l-.5.21-3.35 7.22c-.37 1.13.4 1.56 2.08 2.52 1 .62 2.36 1.49 3.89 2.6 7.17 5 22 18.36 42.12 40.58 7.62 8.44 19.13 21.45 31.05 37 3 4 5.62 7.56 8 11 1.57 2.32 2.69 4.12 3.65 5.84a23.67 23.67 0 011.43 2.94 6.71 6.71 0 01.29.87v.08l.09.23a2.6 2.6 0 01-.07.31v.17c-1.32 3.73-3.72 7.69-6 11.51l-.66 1.09c-2.39 3.86-5.15 8.07-8.42 12.88-12.21 17.82-25.58 35.82-39.75 53.5-3.31 4.09-7.25 8.89-11.39 13.49-1 1.08-2 2.15-3 3.19-.5.5-1 1-1.47 1.38l-.33.26-.42.32a8.59 8.59 0 01-3.11-1.4 30.41 30.41 0 01-3.42-2.53 46 46 0 01-6.13-6.35 25.49 25.49 0 01-2.39-3.51c-.94-1.81-1-2.56-1-2.7a52 52 0 014.21-6.66l.64-.91q2.73-3.8 5.57-7.56c5.73-7.59 11.78-15.35 17.63-22.86l14.64-18.95 5.3-7a152.71 152.71 0 009.31-13.44A7.34 7.34 0 00719 657a4.49 4.49 0 00.44-2.42 7.62 7.62 0 00-1-2.4l-.31-.51c-1-1.52-2-3-3-4.19-1.76-2.31-3.71-4.72-6.33-7.83-4.15-4.9-8.64-10-13.37-15.07a320.88 320.88 0 00-7-7.34l-.58-.57c-1.12-1.12-2.39-2.39-3.65-3.45a23.93 23.93 0 00-2.08-1.47 4.39 4.39 0 00-.58-.32 1.84 1.84 0 00-1.27-.26 1.65 1.65 0 00-1.09.67 4.28 4.28 0 00-.76 1.67 23.4 23.4 0 00-.44 5.77c0 1.58.06 2.84.1 4.17l.43 11.18c.28 10.88.48 10.86 2 10.86s1.73 0 1.58-11l-.34-15v-.43c0-1 0-2 .1-2.89l.73.67c1.07 1 1.93 1.89 3.08 3.07a337 337 0 016.88 7.26c4.8 5.21 9.12 10.1 13.23 14.95 2.56 3 4.47 5.4 6.21 7.67 1.1 1.45 2 2.66 2.81 3.94.25.42.73 1.2.64 1.59a7.11 7.11 0 01-.44.87 153.33 153.33 0 01-9.17 13.26L692 687.68l-7.31 9.44c-5.47 7-10.88 14-16.16 21q-2.87 3.79-5.65 7.64l-.84 1.2a48.75 48.75 0 00-4.45 7.12 3.54 3.54 0 00-.25 1.88 4.61 4.61 0 00.29 1.53 10.3 10.3 0 00.82 2l.26.53a31.33 31.33 0 002.75 4.08 49.83 49.83 0 006.63 6.93 33.1 33.1 0 003.88 2.89 11.31 11.31 0 004.87 2 2.37 2.37 0 00.52.06 3.58 3.58 0 001.93-.66 12.41 12.41 0 001.12-.84q.93-.79 1.77-1.62c1.11-1.09 2.16-2.2 3.2-3.33 4.27-4.66 8.24-9.45 11.64-13.58 14.32-17.58 28-35.51 40.57-53.31 3.49-5 6.28-9.06 8.76-12.91 1.4-2.16 2.76-4.32 4-6.54l.2-.34a39.78 39.78 0 003.25-6.68 7.5 7.5 0 00-.23-5.44z"/><path class="cls-9" d="M669.73 582.94c-.12-.36-.27-.71-.42-1.05l-.26-.58-2.64-4-5.67-8c-2-2.8-3.66-4.87-5.11-6.68-2.37-3-3.48-4.22-4.28-5.14l-.22-.26c-1.51-1.73-2.87-3.1-2.88-3.12l-.43-.44-1.46 1.19 6.5 9.75 11.12 18-24.41-1.78 9 13.12 1.66 2.43-32.28 27q-3 2.55-6.06 5.16c-6.4 5.43-13 11.06-19.68 17.2l-1.29 1.19c-1.78 1.65-3.58 3.3-5.46 5.15a3.48 3.48 0 01-.47.56c0-.07 0-.32.35-.82l1.77-4.29c1.25-3.16 2.64-6.26 3.71-8.62 1.32-3 2.78-6.08 4-8.64a319.41 319.41 0 0143.66-67c4.06-4.6 4-4.65 3.41-5.17s-.64-.57-4.77 4a296.47 296.47 0 00-44.23 67.25c-1.24 2.56-2.7 5.6-4 8.72-1.16 2.56-2.5 5.59-3.72 8.69l-1.82 4.24a3.84 3.84 0 01-.14.36 6.37 6.37 0 00-.32.88 2 2 0 00.86 2.06 2 2 0 002.32 0c.26-.21.44-.38.61-.54l.31-.29c2.11-2 4.38-3.83 6.58-5.61l26.76-21.57 23.37-18.56 7.79-6.17c.28-.23.54-.43.82-.64a22.88 22.88 0 002.2-1.88 3.83 3.83 0 00.9-2.71 4.88 4.88 0 00-1-2.55l-4.41-6.84h.23l8.24.59 5.2.31h.7a8.38 8.38 0 001.94 0 4.17 4.17 0 003.4-2.91 3.94 3.94 0 00.02-1.99z"/><path class="cls-9" d="M733 882.47c-.42-1.54-1.22-3.62-1.63-4.67l-13.49-32.89c-6-15-11.13-28.75-15.15-40.95-9-26.94-12-45-12.92-51.54l-.64-4.54c-.31-2.23-.36-2.72-1.22-2.59l-4.35.46c-.85.1-.81.58-.61 2.86.13 1.22.31 2.9.59 4.71.93 6.69 4.1 25.21 13.37 52.57 4.13 12.34 9.34 26.21 15.5 41.22 2.79 6.83 5.76 13.83 8.9 21.24l3.53 8.4c.8 1.94 1.81 4.51 1.91 4.82l-.39-.15-.72-.27c-.1 0-.25-.1-.52-.22l-1.15-.49c-.67-.28-1.34-.57-2-.89-16.33-7.72-32.57-19.27-48.27-34.3a245.68 245.68 0 01-21.56-23.77A254.49 254.49 0 01633 794.13c-2.16-3.37-4.16-7-6.1-10.45-.81-1.45-1.62-2.91-2.42-4.32-.84-1.67-1.69-3.33-2.55-5-1.77-3.42-3.59-6.94-5.17-10.57a351.94 351.94 0 01-13.22-32.69 422.76 422.76 0 01-17.15-70.1c-1.48-9.3-1.49-9.32-2.5-9.15s-1 .15.31 9.48a417.4 417.4 0 0016.2 70.89 341.26 341.26 0 0012.9 33.2c1.56 3.71 3.37 7.34 5.13 10.84.83 1.66 1.66 3.32 2.49 5q1.19 2.16 2.35 4.32c1.94 3.59 4 7.3 6.13 10.79 23.93 40.1 56 71.41 90.27 88.16.7.36 1.43.67 2.16 1l1.15.5a11.66 11.66 0 001.1.43l1.24.47c.23.07.47.17.71.26a6.88 6.88 0 001.84.53c.25 0 .52.08.79.14a8.66 8.66 0 001.51.19h.21a2.17 2.17 0 01.36 0 2 2 0 002-.91c.97-1.35.65-3.14.26-4.67z"/><path class="cls-10" d="M600.09 655.32a7.09 7.09 0 013.69 1.4 4.53 4.53 0 011.4 3.7 9.14 9.14 0 01-1.15 4.75c-.8 1.24-2 1.69-3.84 1.55a6.73 6.73 0 01-4.41-2 5.19 5.19 0 01-1.24-4.19c.21-3.11 2.94-4.92 5.55-5.17v-1.65a8.31 8.31 0 00-5.13 1 7.84 7.84 0 00-3.66 5.29 8.42 8.42 0 001.62 7.1 10 10 0 007 3.53A8.48 8.48 0 00604 670a6.72 6.72 0 003.18-2.87 11.54 11.54 0 001.25-6.87 7.1 7.1 0 00-3.2-5.64 8.24 8.24 0 00-5.16-.93zm83.17-252.96a145.06 145.06 0 0111.32 49.41 111.1 111.1 0 01-.14 14.8 123.78 123.78 0 01-1.72 15.33 122.38 122.38 0 01-10.2 30.72 108 108 0 01-19 26.08c-7.23 7.57-15.74 13.18-24.09 17.78a113.52 113.52 0 01-48.68 12.68v2.64a107.35 107.35 0 0051.06-10.65c8.94-4.54 18.09-10.3 25.89-18.21a108.48 108.48 0 0020.31-27.52 114.74 114.74 0 0012-48.6 112.31 112.31 0 00-.27-15.4 133.1 133.1 0 00-14.17-50.18zM537.8 437.68a36.66 36.66 0 019.31 1.65 32.82 32.82 0 019 4.83 31.13 31.13 0 0111.77 18.78c1.53 7.77.19 16.89-5.64 23.24-5.68 6.47-15 9.52-24.33 9.43s-18.62-3.14-24.4-9.55a23.81 23.81 0 01-5.76-11 30.23 30.23 0 01-.08-12.13 31.13 31.13 0 0111.77-18.78 32.82 32.82 0 019-4.83 36.66 36.66 0 019.3-1.65V436a36.43 36.43 0 00-9.94 1.26 34.41 34.41 0 00-9.91 4.79 33.47 33.47 0 00-13.46 20.19 33.14 33.14 0 00-.17 13.54 27.13 27.13 0 006.47 12.75 31 31 0 0012.28 8.23 42.87 42.87 0 0014.85 2.7A41.19 41.19 0 00552.8 497a29.86 29.86 0 0012.26-8.3 27.46 27.46 0 006.27-12.85 34.16 34.16 0 00-.21-13.53 33.47 33.47 0 00-13.46-20.19 34.29 34.29 0 00-9.91-4.79 36.46 36.46 0 00-10-1.26z"/><path class="cls-10" d="M644.54 437.68a36.66 36.66 0 019.3 1.65 32.82 32.82 0 019 4.83 31.19 31.19 0 0111.78 18.78c1.51 7.77.2 16.9-5.6 23.27s-15 9.53-24.32 9.4-18.61-3.19-24.41-9.58a23.69 23.69 0 01-5.81-11 30 30 0 01-.08-12.12 31.13 31.13 0 0111.77-18.78 32.82 32.82 0 019-4.83 36.66 36.66 0 019.31-1.65V436a36.46 36.46 0 00-9.95 1.26 34.41 34.41 0 00-9.91 4.79 33.47 33.47 0 00-13.46 20.19 32.8 32.8 0 00-.16 13.54 27 27 0 006.51 12.73 31.24 31.24 0 0012.28 8.22 43.12 43.12 0 0014.84 2.73 40.64 40.64 0 0014.9-2.51 29.55 29.55 0 0012.25-8.32 27.41 27.41 0 006.23-12.87 34.3 34.3 0 00-.22-13.52 33.47 33.47 0 00-13.46-20.19 34.29 34.29 0 00-9.91-4.79 36.43 36.43 0 00-9.94-1.26zM549 468.28a9.36 9.36 0 01-3.14-18.19 18.48 18.48 0 00-7.62-1.65A18.77 18.77 0 10557 467.21a18.35 18.35 0 00-.3-3 9.37 9.37 0 01-7.7 4.07z"/><path class="cls-10" d="M655.91 468.28a9.36 9.36 0 01-3.15-18.19 18.48 18.48 0 00-7.62-1.65 18.77 18.77 0 1018.77 18.77 18.35 18.35 0 00-.3-3 9.36 9.36 0 01-7.7 4.07zm-77.28 29.28c-.25.08-.37.36-.31.71a12.69 12.69 0 003.45 7.1 13.07 13.07 0 0010.09 3.63c7.93-.44 13.44-6.25 14.06-10.43.08-.35 0-.64-.26-.73a.72.72 0 00-.75.3c-2 3.06-7.09 6.63-13.26 7a12.1 12.1 0 01-7.84-2.07 18 18 0 01-4.46-5.1.69.69 0 00-.72-.41zm-92.04-6.74c-.18-.3-.82-.33-1.55-.08a23.66 23.66 0 01-16-.09c-5.85-2-11.71-7.17-12.37-14.36a13.9 13.9 0 012.1-9.56 18.39 18.39 0 017.39-6 36 36 0 0116.2-3.28c.78 0 1.38-.19 1.45-.54s-.41-.74-1.21-1a29.93 29.93 0 00-18.13.77 21.35 21.35 0 00-9.89 7 18.33 18.33 0 00-3.3 13.22 19.79 19.79 0 005.91 12.1 23.52 23.52 0 0010.54 5.81 22.41 22.41 0 0018-2.72c.7-.44 1.05-.97.86-1.27z"/><path class="cls-10" d="M459.08 474.19c.12 0 .27-.11.4-.35a16.75 16.75 0 013.42-4.54 14 14 0 016.39-3.28c5.19-1.15 10.11.17 13.16.7.27 0 .49 0 .53-.13s-.1-.27-.35-.39a26.21 26.21 0 00-5.7-2 18.8 18.8 0 00-8.07-.08 13.48 13.48 0 00-7.08 4.08 12.46 12.46 0 00-2.82 5.45c-.06.28.04.51.12.54z"/><path class="cls-10" d="M466.62 465.84c-.09-.1-.26-.08-.41 0a7.46 7.46 0 00-2.37 3.47 10.2 10.2 0 00-.21 5.57 15.3 15.3 0 005 8 .32.32 0 00.4.07.37.37 0 000-.42c-.93-1.89-2.75-4.68-3.51-8.09a11.3 11.3 0 011.09-8.25.34.34 0 00.01-.35zm227.58 24.98c-.19.3.16.83.86 1.29a22.39 22.39 0 0018 2.72A23.52 23.52 0 00723.6 489a19.74 19.74 0 005.95-12.08 18.33 18.33 0 00-3.3-13.22 21.38 21.38 0 00-9.88-7 30 30 0 00-18.14-.77c-.8.24-1.29.64-1.21 1s.67.56 1.45.54a35.94 35.94 0 0116.2 3.28 18.48 18.48 0 017.4 6 14 14 0 012.09 9.56c-.66 7.19-6.52 12.31-12.36 14.36a23.69 23.69 0 01-16 .09c-.8-.27-1.42-.24-1.6.06z"/><path class="cls-10" d="M721.71 474.19c.13 0 .18-.26.12-.53a12.46 12.46 0 00-2.82-5.45 13.48 13.48 0 00-7.08-4.08 18.75 18.75 0 00-8.06.08 26.13 26.13 0 00-5.71 2c-.25.12-.39.27-.35.39s.26.17.53.13c3-.53 8-1.85 13.16-.7a14 14 0 016.39 3.28 17 17 0 013.43 4.54c.12.23.27.36.39.34z"/><path class="cls-10" d="M714.17 465.84a.34.34 0 000 .4 11.3 11.3 0 011.09 8.25c-.76 3.41-2.58 6.2-3.51 8.09a.35.35 0 000 .42c.09.08.25.05.39-.07a15.3 15.3 0 005-8 10.2 10.2 0 00-.21-5.57 7.52 7.52 0 00-2.36-3.47c-.14-.13-.31-.15-.4-.05zm-229.33-22.06c.21-.52-2.41-1.94-6.16-4a96.62 96.62 0 01-16.4-11.21 59 59 0 01-13.95-16.81 38.26 38.26 0 01-3.91-10.79 31.65 31.65 0 01-.54-5.84c0-1-.06-2 0-3s.28-2 .41-3l.21-1.49a8 8 0 01.36-1.15 6.94 6.94 0 015.25-4.38 6.64 6.64 0 014.59.74c.56.31 1.77 1.13 2.71 1.75s2 1.31 3 1.91c16.45 10 36.11 16.49 57 20.06a252.3 252.3 0 0032.33 3 300.87 300.87 0 0033.54-1.23q16.9-1.58 33.11-4.16c10.82-1.66 21.38-3.76 31.64-6.14 20.51-4.75 39.81-11 57-19.22 2.14-1 4.25-2.08 6.31-3.16a13.7 13.7 0 015.39-1.75 13.1 13.1 0 0110.1 3.28 7.36 7.36 0 012.44 4.07 15.08 15.08 0 01.13 5.38 40.59 40.59 0 01-3.44 11 92.45 92.45 0 01-11.9 18.71 120.26 120.26 0 01-13.73 14.46c-3.21 2.86-5.38 4.92-5.08 5.35s3-1 6.48-3.66a114.14 114.14 0 0014.93-14A92.75 92.75 0 00730 399.55a44.53 44.53 0 004.32-12.17 20.19 20.19 0 00.06-7.2 14 14 0 00-1.35-3.77 12.54 12.54 0 00-2.48-3.2 18.66 18.66 0 00-14.32-5.15 19.82 19.82 0 00-7.62 2.18c-2 1-4.11 2-6.2 2.91-16.84 7.5-35.79 13.29-56 17.71-10.1 2.21-20.51 4.17-31.18 5.74s-21.59 3-32.65 4a308.38 308.38 0 01-32.66 1.3 257.13 257.13 0 01-31.33-2.63c-20.22-3.19-39.2-9.08-55-18.16-1-.55-2-1.13-2.92-1.73s-1.71-1.11-3.17-1.91a12.67 12.67 0 00-8.66-1.12 12.87 12.87 0 00-7.2 4.5 13.29 13.29 0 00-2.57 5.72c-.09.61-.13 1.17-.2 1.76-.11 1.16-.23 2.31-.34 3.46s0 2.3.07 3.44a37.35 37.35 0 00.88 6.71 42.26 42.26 0 004.86 11.95 61.41 61.41 0 0015.72 17.26 92.74 92.74 0 0017.64 10.55c3.97 1.88 6.98 2.5 7.14 2.08z"/><path class="cls-10" d="M679.89 373.31a14.35 14.35 0 00-1.86 5.95 12.24 12.24 0 00.79 6.33l1.65-.12a21.24 21.24 0 001.42-5.81 16.27 16.27 0 00-.37-6.13zm-182.38-14.87c-1.9-13.54-5.46-28.28-9.71-43.93-2.08-7.83-4.31-15.91-6.08-24.28-.45-2.09-.56-4-.88-6.08-.08-2 0-4.1 0-6.16.38-2 .56-4.13 1.08-6.17a57.66 57.66 0 012-6c3.29-7.93 9-15.05 16.06-20.91s15.73-10.31 24.75-13.91c18.29-6.89 38.84-10 60-10.43s42 .7 61.15 5c9.51 2.31 18.67 5.37 26.61 10s14.46 10.86 18.07 18.42a33.82 33.82 0 012.81 12 96.93 96.93 0 01-.64 12.77c-.84 8.55-2 16.86-3.11 24.87-2.35 16-4.53 30.87-6.49 44.29l3.25.55c2.59-13.32 5.51-28 8.33-44 1.39-8 2.8-16.31 3.9-25a99.75 99.75 0 001-13.59 40.21 40.21 0 00-3.06-14.45c-4.15-9.23-11.77-16.65-20.46-21.83s-18.48-8.61-28.48-11.15c-20.12-4.73-41.44-6-63.07-5.52s-43.12 3.72-62.5 11.25c-9.59 3.95-18.75 8.81-26.5 15.4s-14 14.71-17.62 23.89a66.59 66.59 0 00-2.17 7c-.54 2.36-.72 4.8-1.07 7.16 0 2.4 0 4.8.12 7.15.39 2.31.66 4.73 1.18 6.87 2.06 8.57 4.55 16.64 6.9 24.4 4.77 15.48 8.85 29.81 11.4 43.06zm2.09 40.42a17.57 17.57 0 000-12.32l-1.65.06a17.27 17.27 0 000 12.21z"/><path class="cls-10" d="M587 387.81c-13 .3-28.8.62-46.41.16-8.79-.26-18.08-.6-27.56-1.61-2.37-.24-4.75-.56-7.09-.95-1.17-.2-2.34-.4-3.43-.69a11.58 11.58 0 01-1.58-.43 5.05 5.05 0 01-1.13-.45c-.21 0-.4-.28-.63-.52a12.64 12.64 0 01-.73-1.2 19.94 19.94 0 01-1.27-3.06 39.47 39.47 0 01-1.59-6.95 31.11 31.11 0 01-.27-7 11.29 11.29 0 01.6-2.83 2.91 2.91 0 00.23-.42v-.06l-.17-.12a1.4 1.4 0 01.18.13 2.3 2.3 0 01.73-.38 26.6 26.6 0 016.51-.95c2.37-.14 4.79-.19 7.19-.22l27.84-.18c17.78-.29 33.58-1.08 46.63-2.08l-.09-2.48c-13.05 0-28.83-.06-46.49-.38-8.83-.14-18.11-.42-27.87-.48-2.44 0-4.91 0-7.46.12a30.45 30.45 0 00-8.2 1.23 8 8 0 00-2.54 1.43 5.27 5.27 0 00-1.13 1.34l-.67 1.22a16 16 0 00-1.07 4.55 36.17 36.17 0 00.28 8.35 43.49 43.49 0 001.86 8 23.59 23.59 0 001.67 3.94 15.33 15.33 0 001.26 2 7.21 7.21 0 002.2 1.9 9.69 9.69 0 002.33 1 14.89 14.89 0 002 .54c1.32.33 2.59.54 3.86.74 2.53.39 5 .68 7.46.89 9.8.89 19.17 1 28.06 1 17.79-.12 33.61-1.28 46.62-2.61z"/><path class="cls-9" d="M431.83 653.06c.09-.23.17-.46.27-.68a29.39 29.39 0 011.48-2.82 210.52 210.52 0 0114.93-21.13l.31-.39c8.95-11.41 18.66-22.94 29.69-35.26 16.54-18.42 31.45-33.1 39.9-39.28 1.2-.92 2.32-1.67 3.22-2.27l.47-.32c1.81-1 2.29-1.31 1.95-2.28l-2.32-5c-.45-.91-1.38-.5-2.15-.15-.36.17-.85.4-1.42.71a44.49 44.49 0 00-4.45 3c-9 6.68-23.94 21.44-40.89 40.51-11.24 12.7-20.71 24.09-29.8 35.85l-.73 1a209.76 209.76 0 00-14.9 21.5c-.66 1.12-1.24 2.32-1.77 3.46-.21.48-.4 1-.59 1.57l-.2.6a8.21 8.21 0 00-.27 3.22 14.83 14.83 0 001.26 3.75l.26.58c.57 1.17 1.16 2.31 1.78 3.41 2.33 4.15 4.88 8.12 8 12.8 10.33 15.28 22.81 32.14 38.14 51.56l2.19 2.72c6.3 7.84 12.82 15.94 20.35 23.67.56.54 1.12 1.09 1.78 1.64l.3.24a6.17 6.17 0 002.94 1.58h.62a7.68 7.68 0 003-.6 15.77 15.77 0 002.4-1.22A39.6 39.6 0 00515 749a40.81 40.81 0 006-7.47 17.14 17.14 0 001.19-2.25 7.71 7.71 0 00.52-1.38 5.06 5.06 0 00.33-1.69 5.86 5.86 0 00-.9-3.67c-.42-.73-.84-1.45-1.28-2.11-5.47-8-11.55-15.76-17.44-23.24l-4.89-6.24-5.55-7c-5.81-7.34-11.81-14.94-17.65-22.56l-1.84-2.39a146.42 146.42 0 01-9.07-12.9l-.15-.29a5.2 5.2 0 01-.31-.65 7.75 7.75 0 01.79-1.53c.84-1.36 1.81-2.7 2.64-3.82 1.65-2.22 3.52-4.6 5.89-7.5 3.85-4.69 8.08-9.6 12.56-14.59 2.15-2.39 4.33-4.76 6.55-7.07l3.2-3.25.6-.57a19.15 19.15 0 012.09-1.82v.13a29.56 29.56 0 01.29 4.74v1.41c0 2.49 0 3.24 1.15 3.32s1.15-.88 1.33-3.28c0-.28 0-.62.05-1a24.48 24.48 0 00-.27-6.53 3.53 3.53 0 00-.83-1.66 1.63 1.63 0 00-1.63-.46l-.24.09a19.06 19.06 0 00-4.25 3.17l-3.68 3.58c-2.3 2.3-4.55 4.65-6.76 7-4.59 4.9-8.94 9.77-13 14.47-2.5 2.95-4.4 5.28-6.14 7.53-.94 1.24-1.95 2.58-2.88 4a10.18 10.18 0 00-1.39 2.86 5.21 5.21 0 00.68 3.18l.14.28a141.32 141.32 0 009 13.29l2 2.71c6 8.06 12.1 16.06 18 23.79l4.75 6.22c1.59 2.1 3.19 4.19 4.78 6.28 5.77 7.56 11.73 15.38 16.87 23.15.34.53.64 1.05.92 1.56l.25.49a.72.72 0 01.12.39 9 9 0 01-1.31 2.87A36 36 0 01511 745a35.5 35.5 0 01-6.35 5.11 11.12 11.12 0 01-1.59.78c-.19.08-.45.14-.34.18a2.41 2.41 0 01-.63-.48c-.48-.42-1-.9-1.43-1.36-7.13-7.5-13.61-15.75-19.88-23.72l-1.88-2.39c-15.06-19.49-27.27-36.34-37.31-51.51-2.57-3.92-5.26-8.13-7.6-12.38-.56-1-1.07-2-1.54-3a13 13 0 01-.88-2.3c0-.1.06-.21.09-.35s.12-.36.17-.52z"/><path class="cls-10" d="M585.05 358c14 0 30.9-.7 49.77-2.62 9.43-.93 19.35-2.22 29.58-3.6a153.82 153.82 0 0115.34-1.54 12.09 12.09 0 013.18.27c.35.15.21.06.24.09a1.18 1.18 0 00.15.31 2.51 2.51 0 01.25.62 15.2 15.2 0 01.2 6.72 35.8 35.8 0 01-2 7.29 33.91 33.91 0 01-1.52 3.41c-.29.54-.57 1.08-.89 1.58-.45.71-.24.43-.64.79a24.17 24.17 0 01-6.29 2.84c-2.39.79-4.85 1.47-7.31 2.09-9.87 2.42-19.66 4.06-28.94 5.51-18.59 2.83-35.34 4.63-49.19 6.06l.16 2.47c14-.41 30.86-1.38 49.7-3.66a292.12 292.12 0 0029.58-5c2.57-.6 5.15-1.28 7.77-2.11a27.67 27.67 0 008.13-3.75 8 8 0 001.94-2.25c.41-.63.75-1.28 1.11-1.93a42.22 42.22 0 004.13-12.5c.38-3 .68-6.09-.47-9.5a8.49 8.49 0 00-.52-1.27 6.33 6.33 0 00-.89-1.41 6.08 6.08 0 00-3.13-2 17.08 17.08 0 00-4.82-.47 147.24 147.24 0 00-16 1.77c-10.25 1.54-20 3-29.37 4.25-18.67 2.47-35.42 4-49.3 5z"/><path class="cls-9" d="M591.63 543q-1.56 0-3.09-.06c-19.2-.81-39.22-9-40.34-23.26a1.35 1.35 0 011.25-1.47 1.43 1.43 0 011.47 1.25c1 12.49 20.18 20 37.73 20.74 16.84.74 37.36-4.34 40.06-20.85a1.37 1.37 0 012.7.44C628.59 537 608.89 543 591.63 543z"/><path class="cls-10" d="M590.79 569.16l-10.54-.89c-3.65-.51-7.42-1.29-11.34-1.93l-5.86-1.61a56.33 56.33 0 01-6-1.79c-3.94-1.59-8.14-2.87-12.07-5.06A101 101 0 01502.43 519c-5.59-8.82-9.12-18.48-11.84-27.87-.59-2.38-1.17-4.75-1.74-7.09s-.75-4.73-1.14-7.06c-.9-4.65-.94-9.28-1.27-13.78a142 142 0 016.35-47.06l-2.5-.87a128.89 128.89 0 00-9.09 48c.17 4.69.09 9.54.9 14.43.35 2.45.53 5 1 7.44l1.69 7.48c2.7 10 6.37 20.2 12.29 29.56a101.28 101.28 0 0045.63 40.48c4.21 2.15 8.67 3.34 12.86 4.81A56.58 56.58 0 00562 569l6.17 1.34c4.11.46 8 1 11.82 1.3l10.85.12z"/><path class="cls-10" d="M473.54 408.42c-.19.34 1 1.31 3 2.31 11.37 5.69 27 11.32 45.57 15.09a237.67 237.67 0 0062.93 4A278.06 278.06 0 00647 418a68.22 68.22 0 006.6-2.25l6.31-2.36 11.81-4.48c7.29-3.45 13.83-6.61 19.5-9.42 2-1 3.19-1.87 3-2.21s-1.68-.05-3.72.72c-5.91 2.22-12.63 4.83-20 7.77l-11.92 3.77-6.32 2a67.85 67.85 0 01-6.58 2 328.28 328.28 0 01-61 10.44 272.33 272.33 0 01-61.72-2.76 238.24 238.24 0 01-45.73-12c-2.05-.77-3.51-1.13-3.69-.8z"/></svg>