<svg xmlns="http://www.w3.org/2000/svg" viewBox="0 0 1200 558"><defs><clipPath id="clip-path"><path d="M640.75 211.78a1.77 1.77 0 00-1.55-2.6l-75.56-.57a1.77 1.77 0 00-1.56 2.64c16.92 29.92 62.4 30.52 78.67.53z" clip-rule="evenodd" fill="none"/></clipPath><style>.cls-23{fill:none}.cls-16,.cls-17,.cls-18,.cls-21,.cls-3,.cls-5,.cls-6{fill-rule:evenodd}.cls-3{opacity:.11}.cls-4,.cls-5{fill:#bf8334}.cls-6{fill:#d39542}.cls-7{fill:#9d6721}.cls-12{fill:#ffe9b5}.cls-11,.cls-21{fill:#fff}.cls-16{fill:#fdd3a1}.cls-17{fill:#efc897}.cls-18{fill:#744a20}.cls-23{stroke:#edc594;stroke-linecap:round;stroke-linejoin:round;stroke-width:5.8px}.cls-25{fill:#272727}</style></defs><g id="Layer_2" data-name="Layer 2"><g id="Layer_1-2" data-name="Layer 1"><path fill="#3d3e68" d="M0 306.09h1200V558H0z"/><path class="cls-3" d="M503.3 479.09a7.34 7.34 0 00-7.34-7.34H225.1a7.34 7.34 0 000 14.68H496a7.34 7.34 0 007.3-7.34z"/><path class="cls-4" d="M237.98 369.3h245.97v13.62H237.98zm0 26.42h245.97v3.21H237.98z"/><path class="cls-4" d="M237.98 369.3h5.21v109.79h-5.21zm240.76 0h5.21v109.79h-5.21z"/><path class="cls-5" d="M297.41 414.25h-5.84l-19.58 64.41h5.84l19.58-64.41zm27.49 0h5.85l19.57 64.41h-5.84l-19.58-64.41z"/><path class="cls-4" d="M294.43 422.32a1.39 1.39 0 01.58.23l47.71 34.36c1.24 1 .55 1.68.15 2.07a1.42 1.42 0 01-1.74.13l-47.71-34.35a1.39 1.39 0 011.01-2.44z"/><path class="cls-4" d="M328.14 422.3a1.41 1.41 0 01.69 2.46l-47.71 34.35a1.42 1.42 0 01-2.14-1.28 1.19 1.19 0 01.56-.92l47.71-34.36c.49-.31.3-.26.89-.25z"/><path class="cls-6" d="M345.56 362.35a12.82 12.82 0 00-12.66-10.85h-43.49a12.82 12.82 0 00-12.66 10.85c-1.16 7.46-2.78 17.85-4.38 28.12a31.7 31.7 0 0031.32 36.59h14.94a31.7 31.7 0 0031.31-36.59c-1.6-10.27-3.21-20.66-4.38-28.12z"/><path class="cls-5" d="M350.2 392.61a31.69 31.69 0 01-31.57 34.45h-14.94a31.69 31.69 0 01-31.58-34.45 31.71 31.71 0 0031.58 29h14.94a31.71 31.71 0 0031.57-29z"/><path class="cls-4" d="M328.07 358.2a12 12 0 0111.53 9.93l3.39 21.8a1.87 1.87 0 01-2.85 1.74 1.6 1.6 0 01-.72-1.19c-1.13-7.29-2.2-14.59-3.41-21.88a8.37 8.37 0 00-8-6.78c-11.28 0-22.56-.07-33.84 0a8.31 8.31 0 00-7.92 6.83l-3.4 21.83a2.54 2.54 0 01-.56 1.06 1.9 1.9 0 01-3-1.21 1.79 1.79 0 010-.4q1.69-10.94 3.4-21.86a12 12 0 0111-9.85h.4c11.38-.09 22.68-.05 33.98-.02z"/><path class="cls-5" d="M393.14 414.25h-5.84l-19.58 64.41h5.84l19.58-64.41zm27.49 0h5.84l19.58 64.41h-5.84l-19.58-64.41z"/><path class="cls-4" d="M390.16 422.32a1.39 1.39 0 01.58.23l47.71 34.36a1.4 1.4 0 01-.54 2.43 1.18 1.18 0 01-1.05-.23l-47.71-34.35a1.38 1.38 0 011.01-2.44z"/><path class="cls-4" d="M423.87 422.3a1.4 1.4 0 01.69 2.46l-47.71 34.35a1.41 1.41 0 01-2.14-1.28 1.2 1.2 0 01.55-.92L423 422.55c.47-.31.28-.26.87-.25z"/><path class="cls-6" d="M441.29 362.35a12.82 12.82 0 00-12.66-10.85h-43.49a12.82 12.82 0 00-12.66 10.85c-1.16 7.46-2.78 17.85-4.38 28.12a31.7 31.7 0 0031.32 36.59h14.93a31.7 31.7 0 0031.32-36.59c-1.6-10.27-3.22-20.66-4.38-28.12z"/><path class="cls-5" d="M445.93 392.61a31.69 31.69 0 01-31.58 34.45h-14.93a31.69 31.69 0 01-31.58-34.45 31.71 31.71 0 0031.58 29h14.93a31.71 31.71 0 0031.58-29z"/><path class="cls-4" d="M423.8 358.2a12 12 0 0111.53 9.93l3.39 21.8a1.87 1.87 0 01-2.85 1.74 1.6 1.6 0 01-.72-1.19c-1.13-7.29-2.21-14.59-3.41-21.88a8.36 8.36 0 00-8-6.78c-11.28 0-22.56-.07-33.84 0a8.32 8.32 0 00-7.92 6.83l-3.4 21.83a2.54 2.54 0 01-.56 1.06 1.9 1.9 0 01-3-1.21 1.79 1.79 0 010-.4q1.69-10.94 3.4-21.86a12 12 0 0111.05-9.85h.4c11.33-.09 22.63-.05 33.93-.02z"/><path class="cls-3" d="M980.75 479.09a7.34 7.34 0 00-7.34-7.34H702.55a7.34 7.34 0 100 14.68h270.86a7.34 7.34 0 007.34-7.34z"/><path class="cls-4" d="M715 369.3h245.97v13.62H715zm0 26.42h245.97v3.21H715z"/><path class="cls-4" d="M715 369.3h5.21v109.79H715zm240.76 0h5.21v109.79h-5.21z"/><path class="cls-5" d="M774.43 414.25h-5.85l-19.57 64.41h5.84l19.58-64.41zm27.49 0h5.84l19.58 64.41h-5.85l-19.57-64.41z"/><path class="cls-4" d="M771.45 422.32a1.3 1.3 0 01.57.23l47.71 34.36a1.41 1.41 0 01-.53 2.43 1.17 1.17 0 01-1.05-.23l-47.71-34.35a1.38 1.38 0 011.01-2.44z"/><path class="cls-4" d="M805.16 422.3a1.41 1.41 0 01.69 2.46l-47.71 34.35a1.41 1.41 0 01-2.14-1.28 1.2 1.2 0 01.55-.92l47.71-34.36c.49-.31.31-.26.9-.25z"/><path class="cls-6" d="M822.58 362.35a12.82 12.82 0 00-12.66-10.85h-43.5a12.81 12.81 0 00-12.65 10.85c-1.17 7.46-2.78 17.85-4.39 28.12a31.71 31.71 0 0031.32 36.59h14.94A31.7 31.7 0 00827 390.47a7095.63 7095.63 0 01-4.42-28.12z"/><path class="cls-5" d="M827.22 392.61a31.69 31.69 0 01-31.58 34.45H780.7a31.69 31.69 0 01-31.57-34.45 31.71 31.71 0 0031.57 29h14.94a31.71 31.71 0 0031.58-29z"/><path class="cls-4" d="M805.09 358.2a12 12 0 0111.53 9.93l3.39 21.8a1.52 1.52 0 01-.33 1.34 1.88 1.88 0 01-3.24-.79c-1.14-7.29-2.21-14.59-3.41-21.88a8.37 8.37 0 00-8-6.78c-11.28 0-22.56-.07-33.84 0a8.34 8.34 0 00-7.92 6.83l-3.4 21.83s-.44 1.31-1.46 1.5a1.9 1.9 0 01-2.12-2.05c1.14-7.29 2.26-14.58 3.41-21.86a12 12 0 0111-9.85h.41c11.38-.09 22.68-.05 33.98-.02z"/><path class="cls-5" d="M870.16 414.25h-5.85l-19.57 64.41h5.84l19.58-64.41zm27.49 0h5.84l19.58 64.41h-5.85l-19.57-64.41z"/><path class="cls-4" d="M867.18 422.32a1.3 1.3 0 01.57.23l47.71 34.36a1.4 1.4 0 01-.53 2.43 1.17 1.17 0 01-1-.23l-47.71-34.35a1.39 1.39 0 01.96-2.44z"/><path class="cls-4" d="M900.88 422.3a1.4 1.4 0 01.7 2.46l-47.71 34.35a1.41 1.41 0 01-2.14-1.28 1.2 1.2 0 01.55-.92L900 422.55c.48-.31.29-.26.88-.25z"/><path class="cls-6" d="M918.31 362.35a12.82 12.82 0 00-12.66-10.85h-43.5a12.81 12.81 0 00-12.65 10.85c-1.17 7.46-2.79 17.85-4.39 28.12a31.71 31.71 0 0031.32 36.59h14.94a31.7 31.7 0 0031.32-36.59c-1.6-10.27-3.22-20.66-4.38-28.12z"/><path class="cls-5" d="M923 392.61a31.69 31.69 0 01-31.58 34.45h-14.99a31.69 31.69 0 01-31.57-34.45 31.71 31.71 0 0031.57 29h14.94a31.71 31.71 0 0031.58-29z"/><path class="cls-4" d="M900.82 358.2a12.09 12.09 0 0111.52 9.93l3.4 21.8a1.87 1.87 0 01-2.85 1.74 1.6 1.6 0 01-.72-1.19c-1.14-7.29-2.21-14.59-3.41-21.88a8.38 8.38 0 00-8-6.78c-11.28 0-22.56-.07-33.84 0a8.28 8.28 0 00-7.92 6.82l-3.41 21.84a2.42 2.42 0 01-.56 1.06 1.9 1.9 0 01-3-1.21 1.79 1.79 0 010-.4c1.14-7.29 2.26-14.58 3.41-21.86a12 12 0 0111-9.85h.4c11.37-.09 22.68-.05 33.98-.02z"/><path class="cls-7" d="M419.24 227.28h362.8v6.9h-362.8z"/><path fill="#262626" d="M429.29 39.36h342.7v187.92h-342.7z"/><path class="cls-4" d="M440.14 216.42h321V50.22h-321zM772 227.28H429.29V39.36H772z"/><path d="M749 208.19a6.37 6.37 0 00-6.36-6.37h-37.16a6.37 6.37 0 00-6.37 6.37v12.73a6.37 6.37 0 006.37 6.36h37.16a6.36 6.36 0 006.36-6.36z" fill="#ffe9b5" fill-rule="evenodd"/><path fill="#d39542" d="M823.18 70.2h142.29v133.14H823.18z"/><path class="cls-11" d="M837.36 84.95h39.04v48.95h-39.04z"/><path class="cls-12" d="M847.43 81.65h19.09v7.29h-19.09z"/><path class="cls-11" transform="rotate(-15.01 903.016 108.153)" d="M889.52 87.79h27.33v40.75h-27.33z"/><path class="cls-12" d="M843.77 157.12H870v26.38h-26.23zm38.37-13.19h26.23v26.38h-26.23z"/><path class="cls-11" d="M893.49 157.69h26.23v26.38h-26.23z"/><path class="cls-11" transform="rotate(-76.67 942.955 173.009)" d="M929.81 159.87h26.38v26.23h-26.38z"/><path class="cls-11" d="M929.89 103.84h26.23v26.38h-26.23z"/><path class="cls-12" d="M937.04 100.88h12.58v7.29h-12.58z"/><path fill="#86e0fd" d="M258.3 85.06h86.52v67.12H258.3z"/><path class="cls-7" d="M262.24 88.67H339v57.55h-76.76zM251.9 67.08a11.16 11.16 0 00-11.23 11.09c0 2.12 1.21 4.51 2.54 7 1.17 2.15 2.48 4.57 2.48 6.14a45.38 45.38 0 01-1.65 7.8c-1.49 5.61-3.37 12.62-3.37 18.36s1.83 12.49 3.29 18a46.21 46.21 0 011.73 8.17c0 1.75-1.3 4.21-2.48 6.37-1.3 2.37-2.54 4.65-2.54 6.75a11.16 11.16 0 0011.23 11.09c1.68 0 4.13-.78 8-2s8.84-2.84 12-2.84c2.52 0 4.21 1 6.14 2.25s4.12 2.62 7.12 2.62 5.44-1.25 7.94-2.48 4.94-2.39 7.57-2.39 4.2 1 6.14 2.25 4.11 2.62 7.12 2.62 6.27-1.46 9.36-2.85c2.3-1 4.67-2 6.15-2 1.84 0 6.56 1.4 10.34 2.54 4.77 1.46 7.79 2.33 9.58 2.33a11.17 11.17 0 0011.24-11.09c0-2.12-1.22-4.51-2.55-7-1.16-2.16-2.47-4.57-2.47-6.15a49.27 49.27 0 011.73-8.24c1.46-5.62 3.29-12.59 3.29-17.91s-1.79-12.13-3.22-17.62c-.95-3.62-1.8-7-1.8-8.54 0-1.75 1.29-4.21 2.47-6.37 1.3-2.37 2.55-4.65 2.55-6.75a11.17 11.17 0 00-11.24-11.09c-1.68 0-4.13.76-7.94 2s-8.86 2.92-12 2.92c-2.51 0-4.21-1-6.15-2.25s-4.1-2.7-7.11-2.7-5.51 1.31-8 2.55S303.23 72 300.6 72s-4.13-1-6.07-2.25-4.18-2.7-7.19-2.7-6.27 1.45-9.37 2.85c-2.29 1-4.67 2.1-6.14 2.1-1.83 0-6.56-1.39-10.34-2.55-4.77-1.45-7.78-2.37-9.59-2.37z"/><path d="M273.92 278.94l5.5 25.83a2.08 2.08 0 002.11 1.72h38.13a2.09 2.09 0 002.12-1.72l5.5-25.83zm28.8-14.73h-31.78a2 2 0 00-2.12 2.11v10.6a2 2 0 002.12 2.12h59.32a2 2 0 002.11-2.12v-10.6a2 2 0 00-2.11-2.11z" fill="#c7342b"/><path d="M277.3 214.8a69.63 69.63 0 00-21.85 3.58 2 2 0 00-1.45 2.38c.21 1.28 5.27 32.19 27.93 32.19a33.61 33.61 0 007.88-.86 13.08 13.08 0 001.92-.6c-6.36-12.5-21.63-22.5-21.85-22.72a2.13 2.13 0 112.32-3.57c13.77 8.26 23.3 24.39 23.3 24.17a17.4 17.4 0 013 9.54v4.63a1.33 1.33 0 000 .2v.47h4.24v-.67c.7-14.73 25.44-26.08 26.28-26.29a2.05 2.05 0 012.71 1.06 2.13 2.13 0 01-1.06 2.78c-.21 0-13.55 5.74-20.12 15.7.42.21.64.4.86.4a28.52 28.52 0 0010.19 1.92c20.77.21 25.62-25.42 25.62-25.63a2.19 2.19 0 00-1.25-2.39c-.43-.21-8.28-3.57-19.93-3.57-6.36 0-11.43 1.88-15 5.69a22.58 22.58 0 00-5.76 15.5 20.88 20.88 0 00-3.44 4.44 28.94 28.94 0 00-3.31-7 23.24 23.24 0 00-.86-21.46c-4.07-6.31-11.26-9.89-20.37-9.89z" fill="#66b42d"/><path class="cls-16" d="M545.82 331.72S527.6 364 523.4 392.38c-1.92 13-6.92 26.2-8.24 29.53a1.05 1.05 0 00.39 1.28l2.16 1.44a1.06 1.06 0 00.9.13 1 1 0 00.66-.62l2.16-5.38s-.87 6.47-1.2 8.94a1 1 0 00.82 1.1l2.13.36a1 1 0 001.11-.72c.65-2.41 2.41-9 2.41-9v11.06a1.15 1.15 0 001.42 1.11l3-.76a1.15 1.15 0 00.87-1.05c.14-2.91.61-12.34.61-12.34l1.83 10.37a1 1 0 001 .84h2.78a1 1 0 001-1c.13-4 .62-18.79.62-18.79 2.66-2.48 5.26.54 7.86 3.24a2.07 2.07 0 002.83.12l2.65-2.27a.57.57 0 00.2-.43.54.54 0 00-.2-.43l-8.06-6.83-8.37-6.87a2.29 2.29 0 01-.83-1.82c.25-5.72 2.14-32.64 16.45-57.91.14-.16-6.54-3.96-6.54-3.96z"/><path class="cls-17" d="M539 345.13c3.81-8.15 6.79-13.41 6.79-13.41s6.68 3.8 6.59 3.95a117.42 117.42 0 00-7.84 16.91 24.26 24.26 0 01-5.54-7.45z"/><path class="cls-16" d="M658.21 331.72s18.21 32.27 22.41 60.66c1.92 13 6.93 26.2 8.25 29.53a1.07 1.07 0 01-.39 1.28l-2.16 1.44a1.06 1.06 0 01-1.57-.49l-2.15-5.38 1.19 8.94a1 1 0 01-.81 1.1l-2.14.36a1 1 0 01-1.11-.72l-2.4-9v11.06a1.14 1.14 0 01-.44.9 1.12 1.12 0 01-1 .21l-3-.76a1.15 1.15 0 01-.86-1.05c-.15-2.91-.62-12.34-.62-12.34l-1.83 10.37a1 1 0 01-1 .84h-2.77a1 1 0 01-1-1c-.13-4-.63-18.79-.63-18.79-2.65-2.48-5.25.54-7.85 3.24a2.07 2.07 0 01-2.83.12l-2.7-2.24a.59.59 0 01-.19-.43.54.54 0 01.2-.43l8.06-6.83 8.37-6.87a2.28 2.28 0 00.82-1.82c-.24-5.72-2.14-32.64-16.44-57.91-.09-.19 6.59-3.99 6.59-3.99z"/><path class="cls-17" d="M665 345.13c-3.82-8.15-6.79-13.41-6.79-13.41s-6.68 3.8-6.59 3.95a119.61 119.61 0 017.84 16.91 24.42 24.42 0 005.54-7.45z"/><path class="cls-18" d="M582.22 421.75s-18.9-.09-18.9 0c-1.32 43.32 9.07 115 9.07 115s9.84.28 9.83 0c-4.37-93.99 0-115 0-115zm39.94 0s18.9-.09 18.9 0c1.32 43.32-9.07 115-9.07 115s-9.84.28-9.83 0c4.37-93.99 0-115 0-115z"/><path class="cls-18" d="M602.23 408.13c21.51 0 39 6.27 39 14s-17.46 14-39 14-39-6.26-39-14 17.49-14 39-14z"/><path fill="#744a20" d="M563.28 389.08h77.9v32.62h-77.9z"/><path d="M640.81 389.08l.37.53V409c-6.28 9.4-21.42 16-39.08 16-17.42 0-32.39-6.44-38.82-15.64v-20.13l.05-.07v-.08z" fill="#633e15" fill-rule="evenodd"/><path class="cls-21" d="M644.4 395.6c7.73 19.82-28 24.12-42.06 24.12s-50.07-4.3-42.34-24.12c10.24-26.25 8.3-67.19 8.3-67.19-2.91 2.64-5.06 6.85-6.71 12.14-.54 1.72-2.26 2.22-4 2.53-7.83 1.37-24-4.89-26-15.87a3.62 3.62 0 01.76-2.95c19.5-23.94 47.84-40.3 69.54-39.63h.76c21.7-.67 50 15.69 69.57 39.61a3.71 3.71 0 01.76 3c-2 11-18.55 17.78-26.07 15.88-1.75-.45-3.5-.82-4-2.54-1.64-5.3-3.8-9.51-6.7-12.15-.11-.02-2.05 40.92 8.19 67.17z"/><path d="M602.2 281.31c7.4 0 13.41 1.93 13.41 7.8s-6 10.63-13.41 10.63-13.41-4.76-13.41-10.63 6.01-7.8 13.41-7.8z" fill="#c61625" fill-rule="evenodd"/><path class="cls-16" d="M611.38 260.43H593v26.94c0 4.05 2.67 6.29 6.55 7.41a9.41 9.41 0 005.26 0c3.87-1.1 6.54-3.32 6.54-7.34.03-8.68.03-27.01.03-27.01z"/><path class="cls-17" d="M611.38 262.41H593v15.18c0 2.28 2.67 3.54 6.55 4.17a16.57 16.57 0 005.26 0c3.87-.62 6.54-1.86 6.54-4.13.03-4.9.03-15.22.03-15.22z"/><path class="cls-16" d="M694.3 111.37a42 42 0 00-22.84-40.26c-48-24.34-94.38-23.79-139.24-.32a42 42 0 00-22.34 40c2.47 36.94 7.09 68.47 9.65 106.5a41.92 41.92 0 0027.26 36.5l43.53 16.13a32.27 32.27 0 0022.26.06l44.63-16.27a41.94 41.94 0 0027.47-36.58c2.55-37.86 7.12-68.74 9.62-105.76z"/><path class="cls-16" d="M694.3 111.37a42 42 0 00-22.84-40.26c-48-24.34-94.38-23.79-139.24-.32a42 42 0 00-22.34 40c2.47 36.94 7.09 68.47 9.65 106.5a41.92 41.92 0 0027.26 36.5l43.53 16.13a32.27 32.27 0 0022.26.06l44.63-16.27a41.94 41.94 0 0027.47-36.58c2.55-37.86 7.12-68.74 9.62-105.76z"/><path class="cls-17" d="M522.84 230.67c20.86 16.27 48.76 26.21 79.4 26.21s58.47-9.92 79.32-26.14a41.91 41.91 0 01-24.21 23L612.72 270a32.24 32.24 0 01-22.25-.06l-43.53-16.13a41.88 41.88 0 01-24.1-23.14zM543.09 94A60.14 60.14 0 01530 121.64c-10.25 11.93-9.78 30.3-13.42 47.12-2.46-11.15-3.27-22.24-9-36.45-5.69-14-1-80.6 10.75-80.24 4.38-21.68 142.8-20.83 142.8-20.83 20.71 8.52 34 50.38 34 50.38a160.71 160.71 0 01-8.63 83.55c-2.64.92-8-61.51-24.53-73.23s-48.16 9.33-74.62 2.93c4.17 3.57 10 6.86 17.42 9.91-18.14 3.72-37.19.71-52.79-6.24a83 83 0 01-8.89-4.54z"/><path class="cls-18" d="M541 87.14a59.24 59.24 0 01-13.59 27.69c-10.62 11.93-10.13 30.3-13.91 47.12-2.54-11.15-3.38-22.24-9.34-36.45-5.9-14-3.14-30.48-1.64-46.79l-5.38-.09a2.38 2.38 0 01-2-1.12c-.44-.68-.18-1.47-.16-2.29.26-13.18 8.11-30.31 20.31-29.95 4.53-21.68 21.87-36.64 51.5-45.17a2.41 2.41 0 012.91 1.44c1.22 3.09 3.39 8.63 3.39 8.63 30-9.72 61.47-8.76 94.65 4.12a2.42 2.42 0 01.94 3.83l-5.5 6.32c21.4 8.57 37.21 23.57 44.61 48.2a2.41 2.41 0 01-2.63 3.08l-6.76-.9a155.54 155.54 0 01-8.95 83.55l-15.69-41.88s7.6-9.79-9.71-31.35c-1.2-.54-8.9-1.59-11.41-1.71-26.13-1.22-38.47 11-65.86 4.64 4.31 3.57 10.37 6.86 18 9.91-22.49 4.45-46.36-.75-63.78-10.83z"/><path class="cls-16" d="M508.17 155c11.46 0 20.76 7.83 20.76 17.47S519.63 190 508.17 190s-20.76-7.83-20.76-17.48 9.3-17.52 20.76-17.52z"/><path class="cls-17" d="M488.07 168.09c2.66 10.54 13 18.41 25.37 18.41a28.21 28.21 0 009.27-1.55 22.82 22.82 0 01-14.54 5c-11.46 0-20.76-7.83-20.76-17.48a15 15 0 01.66-4.38z"/><path class="cls-23" d="M517.57 173.65s-8.05-11.12-21.21-5.13m7.26-.81s-5.42 6.82 1 9.54"/><path class="cls-16" d="M696.07 155c-11.46 0-20.76 7.83-20.76 17.47s9.3 17.53 20.76 17.53 20.76-7.83 20.76-17.48-9.3-17.52-20.76-17.52z"/><path class="cls-17" d="M716.17 168.09c-2.66 10.54-13 18.41-25.37 18.41a28.21 28.21 0 01-9.27-1.55 22.82 22.82 0 0014.54 5c11.46 0 20.76-7.83 20.76-17.48a15 15 0 00-.66-4.38z"/><path class="cls-23" d="M686.67 173.65s8.05-11.12 21.21-5.13m-7.26-.81s5.42 6.82-1 9.54"/><path d="M571.52 530.42c-1.86-.65-28.25 4.93-27.85 8.86a6.07 6.07 0 004.62 5.27c4.06.77 12.19.22 16.47-.66a82 82 0 009.24-3.29l4.33 1.23a1 1 0 00.58 0l4-1a1.1 1.1 0 00.82-1.28c-.5-2.64-1.77-9.45-1.77-9.45zm61.27 0c1.86-.65 28.25 4.93 27.85 8.86a6.07 6.07 0 01-4.62 5.27c-4.06.77-12.19.22-16.47-.66a82 82 0 01-9.23-3.29l-4.32 1.23a1 1 0 01-.57 0l-4-1a1.12 1.12 0 01-.82-1.28c.5-2.64 1.77-9.45 1.77-9.45z" fill="#231f20" fill-rule="evenodd"/><ellipse class="cls-11" cx="557.53" cy="143.49" rx="23.84" ry="19.94"/><circle class="cls-25" cx="557.53" cy="143.49" r="11.81"/><path class="cls-21" d="M555.11 136.33a4 4 0 11-4 4 4 4 0 014-4z"/><ellipse class="cls-11" cx="645.52" cy="143.49" rx="23.84" ry="19.94"/><circle class="cls-25" cx="645.52" cy="143.49" r="11.81"/><path class="cls-21" d="M643.1 136.33a4 4 0 11-4 4 4 4 0 014-4z"/><path d="M549.15 169.34a2 2 0 11-2 2 2 2 0 012-2zm90.85.26a2 2 0 11-2 2 2 2 0 012-2zm-84 5.4a2 2 0 11-2 2 2 2 0 012-2zm90.86-.41a2 2 0 11-2 2 2 2 0 012-2zm-84.68-4.99a2 2 0 11-2 2 2 2 0 012-2zm90.82.26a2 2 0 11-2 2 2 2 0 012-2z" fill="#edc594" fill-rule="evenodd"/><ellipse cx="600.93" cy="177.93" rx="19.5" ry="17.34" fill="#edc594"/><ellipse cx="597.81" cy="173.2" rx="19.5" ry="17.34" fill="#fdd3a1"/><path d="M640.75 211.78a1.77 1.77 0 00-1.55-2.6l-75.56-.57a1.77 1.77 0 00-1.56 2.64c16.92 29.92 62.4 30.52 78.67.53z" fill="#934826" fill-rule="evenodd"/><g clip-path="url(#clip-path)"><path class="cls-11" d="M586.48 201.9h10.45a3.23 3.23 0 013.23 3.23v6.46a3.22 3.22 0 01-3.22 3.22h-10.46a3.22 3.22 0 01-3.22-3.22v-6.46a3.23 3.23 0 013.22-3.23zm19.32 0h10.46a3.22 3.22 0 013.22 3.22v6.46a3.23 3.23 0 01-3.23 3.23H605.8a3.22 3.22 0 01-3.22-3.22v-6.46a3.23 3.23 0 013.22-3.23z"/><path d="M601.37 224.59c10 0 18.11 5.12 18.11 11.43s-8.12 11.43-18.11 11.43-18.11-5.12-18.11-11.43 8.11-11.43 18.11-11.43z" fill="#e5776d" fill-rule="evenodd"/></g></g></g></svg>