<svg xmlns="http://www.w3.org/2000/svg" viewBox="0 0 441.37 499"><defs><clipPath id="clip-path"><path class="cls-1" d="M0 0h441.37v499H0z"/></clipPath><clipPath id="clip-path-2"><path class="cls-1" d="M135.36 230.39h180.12v71.04H135.36z"/></clipPath><style>.cls-1{fill:none}.cls-5{fill:#595959}.cls-11,.cls-12,.cls-13,.cls-14,.cls-23,.cls-25,.cls-26,.cls-27,.cls-28,.cls-30,.cls-7{fill-rule:evenodd}.cls-7{fill:#744a20}.cls-11{fill:#fff}.cls-12{fill:#c61625}.cls-13{fill:#fdd3a1}.cls-14{fill:#efc897}.cls-15{fill:#edc594}.cls-23{fill:#ad1323}.cls-25{fill:#e8e8bf}.cls-26{fill:#508c23}.cls-27{fill:#ffffdf}.cls-28{fill:#4f7078}.cls-30{fill:#272727}</style></defs><g id="Layer_2" data-name="Layer 2"><g clip-path="url(#clip-path)" id="Layer_1-2" data-name="Layer 1"><path d="M272.81 235a12.2 12.2 0 00-12.17-13.19H180.3A12.2 12.2 0 00168.13 235c2.16 26.78 7 87.08 9 112.11a12.21 12.21 0 0012.17 11.23h62.3a12.21 12.21 0 0012.17-11.23c2.02-25.11 6.88-85.37 9.04-112.11z" fill-rule="evenodd" fill="#595959"/><path fill="#4d4d4d" d="M215.81 357.84h9.33v75.26h-9.33z"/><rect class="cls-5" x="199.32" y="357.18" width="42.3" height="11.62" rx="2.9"/><rect class="cls-5" x="187.86" y="428.79" width="65.21" height="8.63" rx="2.16"/><rect x="171.49" y="344.05" width="97.96" height="17.51" rx="4.38" fill="#737373"/><path class="cls-7" d="M209.13 339.34s-14.87-6-14.91-6a48.17 48.17 0 00-8.06 29c1.75 24.78 3.81 26.94 3.81 26.94h6.7s-.27-14 .17-25.64c.67-17.54 12.29-24.3 12.29-24.3zm22.68 0s14.87-6 14.91-6a48.17 48.17 0 018.06 29C253 387.11 251 389.27 251 389.27h-6.7s.27-14-.17-25.64c-.7-17.53-12.32-24.29-12.32-24.29z"/><path class="cls-7" d="M198.54 344.81c-2.73-1.5-4.33-3.29-4.33-5.21 0-5.26 11.9-9.54 26.56-9.54s26.56 4.28 26.56 9.54c0 1.92-1.59 3.71-4.33 5.21z"/><path fill="#744a20" d="M194.22 317.09h53.1v22.23h-53.1z"/><path d="M247.07 317.09l.25.36v13.21c-4.28 6.4-14.6 10.91-26.64 10.91-11.87 0-22.07-4.39-26.46-10.65v-13.83z" fill="#633e15" fill-rule="evenodd"/><path d="M190.84 385.86c-1.31.32-14.29 13.34-12.6 15.43a4.13 4.13 0 004.6 1.29 38 38 0 009.16-6.52 54.66 54.66 0 004-5.32l2.89-.89a.94.94 0 00.39-.25l1.79-1.93a.9.9 0 000-1.22l-4.44-4.64zm59.26 0c1.31.32 14.29 13.34 12.6 15.43a4.13 4.13 0 01-4.6 1.29 38 38 0 01-9.16-6.52 54.66 54.66 0 01-4-5.32l-2.89-.89a.94.94 0 01-.39-.25l-1.79-1.93a.9.9 0 010-1.22l4.44-4.64z" fill="#231f20" fill-rule="evenodd"/><path class="cls-11" d="M254.5 318.31c6.23 15.95-22.53 19.41-33.85 19.41s-40.31-3.46-34.09-19.41c8.25-21.12 6.69-54.06 6.69-54.06-2.34 2.12-4.08 5.51-5.4 9.77-.44 1.38-1.82 1.79-3.25 2-6.3 1.1-19.34-3.94-21-12.76a3 3 0 01.61-2.38c15.7-19.27 38.51-32.42 56-31.89h.61c17.47-.53 40.28 12.62 56 31.87a3 3 0 01.61 2.4c-1.64 8.82-14.93 14.31-21 12.77-1.41-.35-2.82-.65-3.26-2-1.31-4.26-3.05-7.65-5.39-9.77.04-.01-1.52 32.93 6.72 54.05z"/><path class="cls-12" d="M220.53 226.35c6 0 10.8 1.55 10.8 6.27s-4.84 8.56-10.8 8.56-10.79-3.83-10.79-8.56 4.84-6.27 10.79-6.27z"/><path class="cls-13" d="M227.93 209.55h-14.79v21.68c0 3.25 2.15 5.06 5.28 6a7.64 7.64 0 004.24 0c3.11-.89 5.25-2.67 5.25-5.91.02-7.03.02-21.77.02-21.77z"/><path class="cls-14" d="M227.93 211.14h-14.79v12.22c0 1.83 2.15 2.84 5.28 3.35a13.4 13.4 0 004.24 0c3.11-.51 5.25-1.51 5.25-3.33.02-3.93.02-12.24.02-12.24z"/><path class="cls-13" d="M294.67 89.61a33.84 33.84 0 00-18.39-32.4c-38.64-19.57-76-19.13-112.07-.25a33.81 33.81 0 00-18 32.18c2 29.72 5.71 55.09 7.77 85.69a33.74 33.74 0 0021.95 29.37l35 13a26 26 0 0017.92 0l35.92-13.08a33.74 33.74 0 0022.11-29.44c2.12-30.44 5.78-55.28 7.79-85.07z"/><path class="cls-13" d="M294.67 89.61a33.84 33.84 0 00-18.39-32.4c-38.64-19.57-76-19.13-112.07-.25a33.81 33.81 0 00-18 32.18c2 29.72 5.71 55.09 7.77 85.69a33.74 33.74 0 0021.95 29.37l35 13a26 26 0 0017.92 0l35.92-13.08a33.74 33.74 0 0022.11-29.44c2.12-30.44 5.78-55.28 7.79-85.07z"/><path class="cls-14" d="M156.65 185.6c16.8 13.09 39.26 21.09 63.92 21.09s47.06-8 63.85-21a33.79 33.79 0 01-19.5 18.48L229 217.22a26 26 0 01-17.91 0l-35-13a33.75 33.75 0 01-19.44-18.62zM173 75.6a48.3 48.3 0 01-10.56 22.27c-8.25 9.61-7.88 24.38-10.81 37.92-2-9-2.63-17.9-7.26-29.33s-.88-64.85 8.63-64.56c3.52-17.44 114.94-16.76 114.94-16.76 16.67 6.85 27.41 40.53 27.41 40.53a129.33 129.33 0 01-7 67.23c-2.12.74-6.44-49.49-19.74-58.92s-38.77 7.51-60.06 2.35c3.35 2.87 8.07 5.53 14 8-14.6 3-29.93.57-42.49-5A67.53 67.53 0 01173 75.6z"/><path class="cls-7" d="M171.24 70.11a47.66 47.66 0 01-10.94 22.28c-8.54 9.61-8.16 24.38-11.19 37.92-2.05-9-2.72-17.9-7.53-29.33s-2.52-24.53-1.31-37.65l-4.34-.07a2 2 0 01-1.61-.9c-.35-.55-.14-1.19-.12-1.84.21-10.61 6.53-24.39 16.35-24.1C154.2 19 168.15 6.93 192 .07a2 2 0 012.34 1.16l2.73 7c24.13-7.83 49.48-7 76.19 3.31a1.94 1.94 0 011.18 1.34 2 2 0 01-.42 1.74l-4.44 5.09c17.27 6.85 30 18.92 35.94 38.78a1.91 1.91 0 01-.38 1.81 2 2 0 01-1.73.67l-5.41-.78a125.05 125.05 0 01-7.21 67.23l-12.63-33.7s6.13-7.88-7.81-25.22a57 57 0 00-9.18-1.37c-21-1-31 8.88-53 3.72 3.47 2.87 8.35 5.53 14.52 8-18.18 3.56-37.4-.63-51.45-8.74z"/><path class="cls-13" d="M144.85 124.72c9.22 0 16.71 6.3 16.71 14.06s-7.49 14.06-16.71 14.06-16.72-6.3-16.72-14.06 7.49-14.06 16.72-14.06z"/><path class="cls-14" d="M128.67 135.25c2.13 8.48 10.47 14.81 20.42 14.81a22.84 22.84 0 007.46-1.24 18.38 18.38 0 01-11.7 4c-9.23 0-16.72-6.3-16.72-14.06a11.89 11.89 0 01.54-3.51z"/><path class="cls-15" d="M140.09 135.09a14 14 0 00-4.46 1.17s-1.58-.21-.86-1.11c.88-1.11 4.07-1.71 6.81-1.7a14.82 14.82 0 0111.4 5.81.9.9 0 010 .93c-.7.84-2-1.13-3.32-2.23a13.08 13.08 0 00-7.7-2.91 2.87 2.87 0 01-.31.5c-1.25 1.75-2.33 4.19-.5 5.72a6.25 6.25 0 001.2.71c.7.38.39 1.8-.94 1.17a4.42 4.42 0 01-2.6-3.21 6.58 6.58 0 011.28-4.85z"/><path class="cls-13" d="M296.09 124.72c-9.22 0-16.71 6.3-16.71 14.06s7.49 14.06 16.71 14.06 16.72-6.3 16.72-14.06-7.49-14.06-16.72-14.06z"/><path class="cls-14" d="M312.27 135.25c-2.14 8.48-10.47 14.81-20.42 14.81a22.84 22.84 0 01-7.46-1.24 18.38 18.38 0 0011.7 4c9.23 0 16.72-6.3 16.72-14.06a11.89 11.89 0 00-.54-3.51z"/><path class="cls-15" d="M299.15 135.05a13.36 13.36 0 00-9.77 4.77c-1.27 1.5-1.52.45-1.57 0-.1-.8 1.23-1.9 2.56-3a14.59 14.59 0 019-3.38h.22a16.05 16.05 0 016.2 1.43 1 1 0 01.52.51c.19.62-.25 1.2-1.23.76a14.09 14.09 0 00-4.15-1.06 11.73 11.73 0 01.88 2.1 4.67 4.67 0 01-1 5.16 8 8 0 01-1.56.94c-.53.21-.59 0-.79-.13-.39-.37-.22-1 .43-1.3a3.12 3.12 0 001.78-1.83c.49-1.7-.57-3.5-1.46-4.64a1.93 1.93 0 01-.06-.33z"/><path d="M441.37 488.89a10.11 10.11 0 00-10.11-10.1H10.11a10.11 10.11 0 100 20.21h421.15a10.11 10.11 0 0010.11-10.11z" fill-rule="evenodd" opacity=".06"/><path fill="#d39542" d="M20.88 301.43h400.11v16.24H20.88z"/><path d="M107.78 317.67H69.16L20.88 488.89h16.1l70.8-171.22zm226.32 0h38.62L421 488.89h-16.1l-70.8-171.22z" fill="#d39542" fill-rule="evenodd"/><path d="M90.47 359.53l-29.25-13.68 7.94-28.18h38.62l-17.31 41.86zm260.94 0l29.26-13.68-7.95-28.18H334.1l17.31 41.86z" fill="#bf8334" fill-rule="evenodd"/><path d="M219.56 289.76a3.4 3.4 0 11-3.4 3.39 3.39 3.39 0 013.4-3.39z" fill="#828c9f" fill-rule="evenodd"/><g clip-path="url(#clip-path-2)"><path class="cls-23" d="M220.8 267.48l-80.74-21.23v68.18l80.74 21.93v-68.88z"/><path class="cls-12" d="M220.8 267.48l80.75-21.23v68.18l-80.75 21.93v-68.88z"/><path fill="#981623" fill-rule="evenodd" d="M140.06 246.25l3.36-1.53 77.38 19.65v3.11l-80.74-21.23z"/><path class="cls-23" d="M301.55 246.25l-3.36-1.53-77.39 19.65v3.11l80.75-21.23z"/><path class="cls-25" d="M147.86 245.85l8.3-5.4c24.62 2.62 48.62 5.76 64.64 15.65v8.27z"/><path class="cls-25" d="M293.74 245.85l-8.29-5.4c-24.62 2.62-48.63 5.76-64.65 15.65v8.27z"/></g><path class="cls-13" d="M140.06 266.9s.21 1.29.73 1.47c2.69.92 11.08 2.91 15.4 4a1.83 1.83 0 011.32 2.16c-.07.28-.13.56-.19.82a1.82 1.82 0 01-1.86 1.42l-8.64-.42 9.91 2.77a2 2 0 011.49 1.92v.74a2 2 0 01-2.49 2l-8.37-1.9 6.68 3.51a1.74 1.74 0 01.81 2.22c0 .09-.07.18-.1.26a1.76 1.76 0 01-2.24 1l-6.76-2.52 3.31 2.29a1.89 1.89 0 01.23 2.92l-.3.27a1.89 1.89 0 01-2.36.19 130.47 130.47 0 00-23.47-12.61c-1.74-.67-4.71-5.35 2.53-11 1.65-1.28 10.39-6 10.39-6l4-3zm161.25 0s-.21 1.29-.73 1.47c-2.69.92-11.08 2.91-15.41 4a1.83 1.83 0 00-1.31 2.16c.06.28.13.56.19.82a1.82 1.82 0 001.86 1.42l8.63-.42-9.9 2.77a2 2 0 00-1.49 1.92v.74a2 2 0 002.48 2L294 282l-6.68 3.51a1.76 1.76 0 00-.81 2.22l.11.26a1.76 1.76 0 002.24 1l6.76-2.52-3.31 2.29a1.86 1.86 0 00-.81 1.4 1.91 1.91 0 00.58 1.52l.29.27a1.9 1.9 0 002.37.19 130.11 130.11 0 0123.47-12.61c1.74-.67 4.71-5.35-2.53-11-1.65-1.28-10.39-6-10.39-6l-4-3z"/><path class="cls-26" d="M112 275H26a11.88 11.88 0 00-11.89 11.89v2.63A11.88 11.88 0 0026 301.43h86z"/><path class="cls-27" d="M112 278.91H28.78a9.31 9.31 0 00-9.31 9.31 9.31 9.31 0 009.31 9.32H112z"/><path class="cls-25" d="M28.78 278.91H112v2.77H31a9.31 9.31 0 00-9.31 9.32 9.23 9.23 0 001.06 4.32 9.29 9.29 0 01-3.28-7.08 9.31 9.31 0 019.31-9.33z"/><path class="cls-26" d="M114.79 275.02h-2.76v3.9l2.76-3.9zm0 26.41h-2.76v-3.89l2.76 3.89z"/><path class="cls-12" d="M119.38 251.79H44.91a11.62 11.62 0 000 23.23h74.47z"/><path class="cls-27" d="M119.38 255.22H46.2a8.19 8.19 0 00-8.2 8.19 8.19 8.19 0 008.19 8.18h73.18z"/><path class="cls-25" d="M46.2 255.22h73.18v2.43H48.14a8.19 8.19 0 00-8.14 8.19 8.12 8.12 0 00.93 3.8 8.18 8.18 0 01-2.93-6.23 8.19 8.19 0 018.2-8.19z"/><path class="cls-12" d="M121.81 251.79h-2.43v3.43l2.43-3.43zm0 23.23h-2.43v-3.43l2.43 3.43z"/><path class="cls-7" d="M130.65 232.49h-61.9a9.66 9.66 0 00-9.65 9.65 9.65 9.65 0 009.65 9.65h61.9z"/><path class="cls-27" d="M130.65 235.34H69.82a6.81 6.81 0 00-6.81 6.8 6.81 6.81 0 006.81 6.86h60.83z"/><path class="cls-25" d="M69.82 235.34h60.83v2H71.43a6.81 6.81 0 00-6.8 6.8 6.69 6.69 0 00.78 3.16 6.77 6.77 0 01-2.4-5.18 6.81 6.81 0 016.81-6.78z"/><path class="cls-7" d="M132.67 232.49h-2.02v2.85l2.02-2.85zm0 19.3h-2.02v-2.84l2.02 2.84z"/><path class="cls-28" d="M119.79 213.19h-61.9a9.65 9.65 0 00-9.65 9.65 9.66 9.66 0 009.65 9.65h61.9z"/><path class="cls-27" d="M119.79 216H59a6.81 6.81 0 00-6.81 6.81 6.8 6.8 0 006.81 6.8h60.83z"/><path class="cls-25" d="M59 216h60.83v2H60.57a6.8 6.8 0 00-6.8 6.8 6.72 6.72 0 00.78 3.16 6.79 6.79 0 01-2.4-5.18A6.81 6.81 0 0159 216z"/><path class="cls-28" d="M121.81 213.19h-2.02v2.84l2.02-2.84zm0 19.3h-2.02v-2.85l2.02 2.85zm252.27 65.27h-51.73l-1.44 3.49h53.17v-3.49zm0 0h51.73l1.44 3.49h-53.17v-3.49z"/><path class="cls-25" d="M374.08 290.88a3 3 0 00-3-3h-41.21l-4.48 9.92h48.69zm0 0a3 3 0 013-3h41.17l4.48 9.92h-48.65z"/><ellipse cx="185.06" cy="132.32" rx="19.19" ry="16.04" fill="#fff"/><path class="cls-30" d="M185.06 127.58a9.51 9.51 0 11-9.51 9.51 9.51 9.51 0 019.51-9.51z"/><path class="cls-11" d="M183.11 131.32a3.2 3.2 0 11-3.2 3.19 3.19 3.19 0 013.2-3.19zm72.77-15.04c10.59 0 19.19 7.19 19.19 16s-8.6 16.05-19.19 16.05-19.18-7.19-19.18-16.05 8.59-16 19.18-16z"/><path class="cls-30" d="M255.88 127.53a9.5 9.5 0 11-9.5 9.5 9.51 9.51 0 019.5-9.5z"/><path class="cls-11" d="M253.93 131.26a3.2 3.2 0 11-3.19 3.2 3.2 3.2 0 013.19-3.2z"/><path d="M178.31 153.12a1.65 1.65 0 11-1.64 1.64 1.64 1.64 0 011.64-1.64zm73.12.21a1.64 1.64 0 11-1.64 1.64 1.64 1.64 0 011.64-1.64zm-67.59 4.3a1.65 1.65 0 11-1.64 1.65 1.64 1.64 0 011.64-1.65zm73.16-.29a1.65 1.65 0 11-1.64 1.64 1.65 1.65 0 011.64-1.64zm-68.21-4.01a1.64 1.64 0 11-1.64 1.64 1.63 1.63 0 011.64-1.64zm73.12.2a1.65 1.65 0 11-1.64 1.65 1.64 1.64 0 011.64-1.65z" fill="#edc594" fill-rule="evenodd"/><ellipse class="cls-15" cx="219.99" cy="160.04" rx="15.69" ry="13.95"/><ellipse cx="217.48" cy="156.23" rx="15.69" ry="13.95" fill="#fdd3a1"/><path class="cls-13" d="M253.1 194.92c-13-16.15-53.07-16.48-65.48-.3"/><path d="M253.1 195.64a.74.74 0 01-.57-.27c-6.08-7.57-18.92-12.17-33.5-12a55.61 55.61 0 00-18 3c-5.62 2-10.06 5-12.83 8.64a.72.72 0 11-1.15-.87c5.77-7.52 17.72-12.1 32-12.26 15-.17 28.29 4.63 34.65 12.54a.72.72 0 01-.11 1 .69.69 0 01-.49.22z" fill="#e1ba8b"/></g></g></svg>