<svg xmlns="http://www.w3.org/2000/svg" viewBox="0 0 529.23 494.16"><defs><style>.cls-2{fill:#efc897}.cls-15,.cls-2,.cls-22,.cls-23,.cls-5,.cls-7{fill-rule:evenodd}.cls-3,.cls-7{fill:#fdd3a1}.cls-21,.cls-5{fill:#fff}.cls-11{fill:#33691e}.cls-15{fill:#744a20}.cls-19,.cls-23{fill:#edc594}.cls-22{fill:#272727}.cls-24{fill:#e1ba8b}</style></defs><g id="Layer_2" data-name="Layer 2"><g id="Layer_1-2" data-name="Layer 1"><path d="M265.54 50.12c-78.66-4.46-162.84 6.35-212.93 56.68s-66 140.49-40.92 209.74 90.66 117.81 160.73 147.79 144.38 41.74 198.34 14.47 87.83-93.36 104.29-163.9S490.8 169.34 453.89 122 344.07 54.71 265.54 50.12z" fill="#cbd2df"/><path class="cls-2" d="M207.54 243.32a4 4 0 00.13-5.61l-7-7.31a4 4 0 10-5.74 5.48l7 7.3a4 4 0 005.61.14z"/><path class="cls-3" d="M234.16 295.08a6.48 6.48 0 01-5.34-2.81l-31.49-45.95A6.47 6.47 0 11208 239l27.94 40.76 10.23-6.6a6.47 6.47 0 017 10.87l-15.52 10a6.51 6.51 0 01-3.49 1.05z"/><path d="M176.88 141.16a6.78 6.78 0 00-8.11-5.11L81.5 155.89a6.77 6.77 0 00-5.1 8.11l28.33 124.62a6.78 6.78 0 008.11 5.11l87.27-19.84a6.77 6.77 0 005.1-8.11z" fill="#e5e5e5" fill-rule="evenodd"/><path class="cls-5" d="M186.76 135.88a6.78 6.78 0 00-7.82-5.54l-88.23 15a6.79 6.79 0 00-5.54 7.82l21.47 126a6.78 6.78 0 007.82 5.54l88.23-15a6.78 6.78 0 005.54-7.82z"/><path d="M105.31 170.36a1.45 1.45 0 01-.33.67.93.93 0 01-.52.28.88.88 0 01-.67-.16 1.12 1.12 0 01-.46-.71 19.82 19.82 0 010-3.16 28.74 28.74 0 01.49-3.33 25 25 0 01.9-3.24 20.13 20.13 0 011.26-2.88L99.16 159a1.21 1.21 0 01-.83-.23.92.92 0 01-.19-1.29 1.17 1.17 0 01.78-.46l8.94-1.46a1 1 0 011 .83 1.74 1.74 0 010 .54l-.53.91c-.18.3-.34.61-.5.94a27 27 0 00-2 5.66 21.79 21.79 0 00-.48 3 19.69 19.69 0 00-.04 2.92zm9.63-10.26a1.43 1.43 0 01-.25 1.13 1.4 1.4 0 01-1 .59 1.48 1.48 0 01-1.1-.25 1.5 1.5 0 01-.61-1 1.45 1.45 0 01.27-1.1 1.46 1.46 0 012-.34 1.49 1.49 0 01.69.97zm1.25 7.38a1.42 1.42 0 01-.23 1.06 1.33 1.33 0 01-.93.58 1.36 1.36 0 01-1.06-.26 1.38 1.38 0 01-.59-.92 1.4 1.4 0 01.26-1.1 1.36 1.36 0 01.92-.57 1.34 1.34 0 011.07.24 1.48 1.48 0 01.56.97zm4.11-.33a1.27 1.27 0 01-.53-.82.93.93 0 01.15-.73 1 1 0 01.68-.39 1.19 1.19 0 01.46 0 6.1 6.1 0 001.4.43 4.21 4.21 0 001.46 0 3.25 3.25 0 001.14-.41 3.09 3.09 0 00.88-.77 2.86 2.86 0 00.53-1.06 2.79 2.79 0 000-1.26 2 2 0 00-.49-1.09 2.49 2.49 0 00-.91-.63 3.55 3.55 0 00-1.08-.25 4.58 4.58 0 00-1.06 0 5.38 5.38 0 00-.79.2 5.06 5.06 0 00-.78.31 1.36 1.36 0 00-.24.24 2.5 2.5 0 01-.18.24.7.7 0 01-.22.2.8.8 0 01-.31.11 1 1 0 01-.7-.15 1.34 1.34 0 01-.51-.78c-.17-.81-.32-1.63-.47-2.44s-.31-1.64-.48-2.48a1.07 1.07 0 01-.49-.73 1.14 1.14 0 01.17-.77 1.06 1.06 0 01.79-.47l.69-.13 1.18-.22 1.44-.26 1.42-.25 1.19-.22.68-.12a1.17 1.17 0 01.76.29 1.11 1.11 0 01.32.59 1 1 0 01-.15.69 1.41 1.41 0 01-.66.52c-.89.18-1.78.34-2.65.49s-1.74.3-2.62.47l.3 1.54c.1.52.21 1 .31 1.56a7.28 7.28 0 01.86-.32 6.55 6.55 0 01.9-.21 5.52 5.52 0 012.19 0 4.91 4.91 0 013 2.15 4.35 4.35 0 01.56 3.48 5.43 5.43 0 01-.8 1.75 5.81 5.81 0 01-1.34 1.55 4.78 4.78 0 01-2 .78 6.41 6.41 0 01-2 0 7.65 7.65 0 01-2-.63zm19.18-9.48a1 1 0 01-.24.93 1.67 1.67 0 01-.94.42l-6.33 1a1.69 1.69 0 01-1-.1 1 1 0 01-.54-.8.83.83 0 01.14-.54c.13-.3.5-.5 1.11-.59l6.33-1a1.27 1.27 0 011.19.23 1.36 1.36 0 01.28.45zm.68 3.83a1.19 1.19 0 01-.18 1.15 1.71 1.71 0 01-1 .47l-6.38 1a1.67 1.67 0 01-1.05-.11.9.9 0 01-.48-.69.86.86 0 01.27-.8 1.69 1.69 0 01.93-.44l6.38-1q1.18-.19 1.51.42zm7.43.75a.88.88 0 01.31.55.87.87 0 01-.14.64 1.41 1.41 0 01-.66.5l-3.69.6a1.11 1.11 0 01-.84-.22.94.94 0 01-.35-.59 1 1 0 01.17-.71 1 1 0 01.77-.46l.7-.11-1.62-9.91a1.2 1.2 0 01-.68.36.85.85 0 01-.7-.17.93.93 0 01-.36-.59 1.34 1.34 0 010-.48 1.29 1.29 0 01.28-.49l1.48-1.35a1.52 1.52 0 01.51-.2 1 1 0 011.1.68l1.92 11.83 1-.17a1.22 1.22 0 01.8.29zm7.87 2.2a1.26 1.26 0 01.38.7.85.85 0 01-.1.62 1 1 0 01-.51.39 1.16 1.16 0 01-.8 0c-.22-.14-.45-.28-.68-.4a2.42 2.42 0 01-.62-.47 12.57 12.57 0 01-2.18-2.86 16.94 16.94 0 01-1.46-3.45 18.07 18.07 0 01-.69-3.72 15.41 15.41 0 01.13-3.67 14.16 14.16 0 01.31-1.39c.13-.44.27-.87.43-1.29s.34-.84.54-1.25l.6-1.3a1.26 1.26 0 01.65-.42.9.9 0 01.63.05.94.94 0 01.43.47 1.25 1.25 0 01.06.8c-.19.44-.38.84-.55 1.21s-.34.73-.48 1.08-.27.73-.39 1.11a9.81 9.81 0 00-.28 1.28 13.22 13.22 0 00-.09 3 17.79 17.79 0 00.57 3.35 16.11 16.11 0 001.23 3.15 7.45 7.45 0 001.85 2.36 4.89 4.89 0 00.5.35zm7.54-15.12a2 2 0 00-.63-.64 1.3 1.3 0 00-.71-.22 3.41 3.41 0 00-1.83.87 8.71 8.71 0 00-1.37 1.59 1.2 1.2 0 01-.68.36.85.85 0 01-.7-.17 1 1 0 01-.37-.66 1.5 1.5 0 01.09-.78c.26-.37.53-.74.83-1.11a6.82 6.82 0 011-1 6.07 6.07 0 011.14-.78 4.06 4.06 0 011.27-.43 3.4 3.4 0 011.49.09 3.45 3.45 0 011.31.72 4.66 4.66 0 011 1.28 5.27 5.27 0 01.58 1.73 3.48 3.48 0 010 .66 4.61 4.61 0 01-.51 1.93 6.42 6.42 0 01-1 1.38 12.84 12.84 0 01-1.23 1.11 10.13 10.13 0 00-1.17 1.09 4.94 4.94 0 00-.88 1.34 4.11 4.11 0 00-.32 1.83l4.56-.74a.93.93 0 00.42-.15 1.92 1.92 0 00.19-.17l.21-.33a1.53 1.53 0 01.25-.34.92.92 0 01.26-.14l.27-.07a.94.94 0 01.75.19 1.06 1.06 0 01.38.67.93.93 0 010 .41.61.61 0 01-.07.21 4 4 0 01-.9 1.22 2.58 2.58 0 01-1.34.63l-5.71.93a1.11 1.11 0 01-1.21-1c0-.54-.05-1.07 0-1.59a8.74 8.74 0 01.17-1.53 6.21 6.21 0 01.46-1.42 4.72 4.72 0 01.85-1.29 8.73 8.73 0 011.13-1 11.59 11.59 0 001.23-1.08 5 5 0 00.93-1.27 2.59 2.59 0 00.21-1.58 1.62 1.62 0 00-.18-.49 1.1 1.1 0 00-.17-.26zm6.85 12.77l.39-.47a4.2 4.2 0 00.37-.49 7.49 7.49 0 001-2.82 15.78 15.78 0 00.16-3.38 17 17 0 00-.52-3.36 13.24 13.24 0 00-1-2.81 7.71 7.71 0 00-.67-1.12q-.36-.5-.72-.93c-.25-.3-.51-.59-.78-.88l-.93-1a1.29 1.29 0 01-.2-.77 1 1 0 01.27-.59.91.91 0 01.57-.25 1.28 1.28 0 01.76.2l1 1c.32.33.62.68.91 1s.55.71.81 1.09a11 11 0 01.74 1.22 15.78 15.78 0 011.29 3.43 18.32 18.32 0 01.53 3.75 17.33 17.33 0 01-.29 3.74 12.52 12.52 0 01-1.16 3.4 2.52 2.52 0 01-.44.64c-.18.19-.35.39-.52.6a1.19 1.19 0 01-.75.27 1 1 0 01-.6-.21.86.86 0 01-.3-.55 1.38 1.38 0 01.08-.71zM112.43 194a1 1 0 01-.64.39.86.86 0 01-.65-.15 1.25 1.25 0 01-.48-.74l-.44-2.67-2.7.41-2.51.37c-.71 0-1.11-.26-1.2-.86a1.07 1.07 0 010-.32c.62-1.73 1.26-3.43 1.9-5.1s1.29-3.37 1.93-5.08a1.35 1.35 0 01.37-.53 1.14 1.14 0 01.5-.23.93.93 0 01.67.16.92.92 0 01.42.67 1 1 0 01-.06.53c-.54 1.42-1.08 2.83-1.61 4.25s-1.07 2.83-1.61 4.25l1.72-.24 1.87-.27-.44-2.66a1.46 1.46 0 01.26-.77.83.83 0 01.55-.32 1.06 1.06 0 01.65.1 1.23 1.23 0 01.5.6l.45 2.75 1.41-.23a1.57 1.57 0 01.77.32.94.94 0 01.31.54.89.89 0 01-.15.66 1.44 1.44 0 01-.67.51l-.65.11-.7.09.42 2.56a1.24 1.24 0 01-.19.9zm10.29-14a2 2 0 00-.63-.63 1.25 1.25 0 00-.72-.23 3.48 3.48 0 00-1.82.87 8.71 8.71 0 00-1.37 1.59 1.2 1.2 0 01-.68.36.82.82 0 01-.7-.17 1 1 0 01-.37-.66 1.5 1.5 0 01.09-.78c.25-.37.53-.74.83-1.11a7.28 7.28 0 011-1 6.14 6.14 0 011.15-.78 4.33 4.33 0 011.27-.43 3.4 3.4 0 011.49.09 3.45 3.45 0 011.31.72 4.66 4.66 0 011 1.28 5.51 5.51 0 01.58 1.73 3.57 3.57 0 010 .66 4.61 4.61 0 01-.51 1.93 6.42 6.42 0 01-1 1.38 12.84 12.84 0 01-1.23 1.11 10.18 10.18 0 00-1.17 1.09 4.94 4.94 0 00-.88 1.34 4.13 4.13 0 00-.32 1.84l4.56-.75a.93.93 0 00.42-.15 1.92 1.92 0 00.19-.17 3.5 3.5 0 00.21-.33 1.2 1.2 0 01.25-.33.93.93 0 01.26-.15l.27-.06a.9.9 0 01.75.18 1.08 1.08 0 01.38.67.93.93 0 010 .41.61.61 0 01-.07.21 4 4 0 01-.9 1.22 2.61 2.61 0 01-1.34.63l-5.71.93a1.09 1.09 0 01-1.21-1v-1.58a8.64 8.64 0 01.17-1.53 6.81 6.81 0 01.45-1.43 5.23 5.23 0 01.85-1.29 10.52 10.52 0 011.14-1 11.5 11.5 0 001.23-1.07 5.24 5.24 0 00.93-1.28 2.59 2.59 0 00.21-1.58 1.72 1.72 0 00-.18-.49 1.4 1.4 0 00-.18-.26zm11.89 8.51a1 1 0 01.32.55.88.88 0 01-.15.64 1.43 1.43 0 01-.65.5l-3.7.6a1.1 1.1 0 01-.83-.22.93.93 0 01-.19-1.3 1.07 1.07 0 01.77-.46l.7-.11-1.62-9.91a1.17 1.17 0 01-.68.36.86.86 0 01-.7-.17.9.9 0 01-.36-.59 1.21 1.21 0 01.31-1l1.48-1.35a1.45 1.45 0 01.51-.21 1 1 0 011.1.68l1.93 11.83 1-.17a1.19 1.19 0 01.76.33zm2.15-3.35a.92.92 0 01-.35-.58 1 1 0 01.17-.7 1.13 1.13 0 01.77-.46L140 183l-.58-3.52a1.42 1.42 0 01.27-.78.84.84 0 01.56-.34.87.87 0 01.62.12 1.18 1.18 0 01.51.61l.58 3.59 3.19-.52a1.22 1.22 0 01.74.29.93.93 0 01.31.55.86.86 0 01-.14.64 1.41 1.41 0 01-.66.5l-3.12.51.59 3.6a1.13 1.13 0 01-.19.88.94.94 0 01-.61.38.92.92 0 01-.67-.15 1.16 1.16 0 01-.48-.72l-.6-3.67-2.74.45a1.2 1.2 0 01-.82-.26zm17.67.12a1 1 0 01.31.55.92.92 0 01-.14.64 1.52 1.52 0 01-.66.5l-3.7.6a1.1 1.1 0 01-.83-.22.93.93 0 01-.19-1.3 1.07 1.07 0 01.77-.46l.7-.11-1.62-9.91a1.17 1.17 0 01-.68.36.86.86 0 01-.7-.17.93.93 0 01-.36-.59 1.15 1.15 0 010-.48 1.26 1.26 0 01.27-.49l1.48-1.35a1.6 1.6 0 01.51-.2 1 1 0 011.1.68l1.93 11.83 1-.17a1.25 1.25 0 01.81.29zm10.64.12a1 1 0 01-.64.4.87.87 0 01-.65-.15 1.33 1.33 0 01-.48-.75l-.43-2.66-2.71.4-2.51.37c-.7 0-1.1-.25-1.2-.86a1.68 1.68 0 010-.32q.93-2.58 1.9-5.1t1.93-5.08a1.32 1.32 0 01.37-.53 1 1 0 01.49-.22.92.92 0 01.68.16.9.9 0 01.42.67 1.13 1.13 0 01-.07.52c-.54 1.42-1.07 2.84-1.6 4.26s-1.07 2.83-1.61 4.25l1.72-.25 1.86-.26-.43-2.67a1.42 1.42 0 01.25-.76.91.91 0 01.55-.33 1.05 1.05 0 01.65.11 1.11 1.11 0 01.5.59l.45 2.76 1.42-.23a1.53 1.53 0 01.76.32.84.84 0 01.31.54.87.87 0 01-.15.65 1.55 1.55 0 01-.66.52l-.65.1c-.23 0-.46.07-.7.09l.42 2.57a1.2 1.2 0 01-.19.89zm4.24-2.09a1.29 1.29 0 01-.53-.83.94.94 0 01.15-.73 1 1 0 01.67-.39 1.24 1.24 0 01.47 0 6.67 6.67 0 001.4.44 4.47 4.47 0 001.46 0 3.23 3.23 0 001.14-.4 3.13 3.13 0 00.88-.78 2.89 2.89 0 00.53-1.05 2.84 2.84 0 00.05-1.27 2.07 2.07 0 00-.49-1.09 2.49 2.49 0 00-.91-.63 3.55 3.55 0 00-1.08-.25 4.06 4.06 0 00-1.06 0 4.33 4.33 0 00-.79.19 5.06 5.06 0 00-.78.31 1.12 1.12 0 00-.24.25l-.18.24a.82.82 0 01-.22.19.67.67 0 01-.31.11 1 1 0 01-.7-.15 1.34 1.34 0 01-.51-.78c-.17-.81-.32-1.62-.47-2.44s-.31-1.64-.48-2.48a1 1 0 01-.49-.73 1.08 1.08 0 011-1.24l.7-.13 1.18-.22 1.44-.25 1.42-.26 1.18-.22.69-.12a1.22 1.22 0 01.76.29 1.11 1.11 0 01.32.59 1 1 0 01-.15.69 1.41 1.41 0 01-.67.53q-1.33.27-2.64.48c-.87.14-1.74.3-2.62.47l.3 1.54c.1.52.21 1 .31 1.57a5.89 5.89 0 01.86-.33 6.55 6.55 0 01.9-.21 5.72 5.72 0 012.19.05 4.91 4.91 0 013 2.15 4.36 4.36 0 01.56 3.48 5.43 5.43 0 01-.8 1.75 5.64 5.64 0 01-1.43 1.41 4.78 4.78 0 01-2 .78 6.41 6.41 0 01-2 0 7.63 7.63 0 01-2.01-.53zM113 217.4a1.45 1.45 0 01-.33.67 1 1 0 01-.52.28 1 1 0 01-.67-.16 1.17 1.17 0 01-.46-.72 19.84 19.84 0 010-3.16 29.39 29.39 0 01.49-3.33 25.91 25.91 0 01.9-3.24 19.51 19.51 0 011.26-2.87l-6.84 1.13a1.18 1.18 0 01-.83-.24.91.91 0 01-.19-1.28 1.13 1.13 0 01.78-.46l8.94-1.46a1 1 0 011 .82 1.81 1.81 0 010 .55l-.53.91c-.18.3-.34.61-.5.93a25.1 25.1 0 00-1.13 2.75 24.37 24.37 0 00-.84 2.92 21.64 21.64 0 00-.48 3 19.82 19.82 0 00-.05 2.96zm14.3-12.93a1.15 1.15 0 01.75-.44 1 1 0 01.68.16 1 1 0 01.37.59 1.24 1.24 0 01-.19.86c-.49.67-1 1.35-1.45 2s-.93 1.38-1.37 2.07c.79.66 1.56 1.34 2.29 2s1.43 1.46 2.1 2.24a1.14 1.14 0 01.14.78.9.9 0 01-.91.77 1.35 1.35 0 01-.75-.27 25.16 25.16 0 00-1.87-2c-.66-.64-1.35-1.25-2-1.85a48.11 48.11 0 00-2.35 4.65 1.13 1.13 0 01-.65.57 1 1 0 01-.71 0 .93.93 0 01-.47-.54 1.17 1.17 0 01.06-.89q.56-1.29 1.2-2.55t1.35-2.49c-.6-.48-1.22-.95-1.84-1.41s-1.26-.93-1.89-1.41a1.21 1.21 0 01-.53-.71.87.87 0 01.12-.68 1 1 0 01.57-.42 1.16 1.16 0 01.87.12l1.9 1.4q.94.69 1.86 1.41c.43-.68.87-1.35 1.34-2s.89-1.3 1.38-1.96zm6.55 8.76a1.29 1.29 0 01-.53-.83.91.91 0 01.15-.72 1 1 0 01.68-.4 1.77 1.77 0 01.46 0 6.13 6.13 0 001.4.44 4.21 4.21 0 001.46 0 3.46 3.46 0 001.14-.41 3.09 3.09 0 00.88-.77 2.94 2.94 0 00.53-1.06 2.84 2.84 0 000-1.27 2 2 0 00-.49-1.08 2.49 2.49 0 00-.91-.63 3.56 3.56 0 00-1.08-.26 5.17 5.17 0 00-1.06 0 5.35 5.35 0 00-.79.19 6.32 6.32 0 00-.78.31 1.39 1.39 0 00-.24.25l-.18.24a.85.85 0 01-.22.2.8.8 0 01-.31.11 1 1 0 01-.7-.16 1.28 1.28 0 01-.51-.78c-.17-.81-.32-1.62-.47-2.43s-.31-1.64-.48-2.49a1 1 0 01-.49-.73 1.16 1.16 0 01.17-.77 1.09 1.09 0 01.79-.47l.69-.12 1.18-.22 1.44-.26 1.42-.26 1.19-.21.68-.13a1.23 1.23 0 01.76.3 1.08 1.08 0 01.32.59.93.93 0 01-.15.68 1.43 1.43 0 01-.66.53c-.9.18-1.78.34-2.65.48s-1.74.3-2.62.48l.3 1.54c.1.51.21 1 .31 1.56a5.86 5.86 0 01.86-.32 6.55 6.55 0 01.9-.21 5.52 5.52 0 012.19.05 4.81 4.81 0 013 2.15 4.47 4.47 0 01.65 1.69 4.55 4.55 0 01-.09 1.79 5.38 5.38 0 01-.8 1.74 5.68 5.68 0 01-1.43 1.42 5.06 5.06 0 01-2 .78 6.41 6.41 0 01-2.05 0 7.65 7.65 0 01-1.86-.53zm19.15-9.48a1 1 0 01-.24.92 1.75 1.75 0 01-.94.43l-6.33 1a1.77 1.77 0 01-1-.1 1 1 0 01-.54-.8.74.74 0 01.14-.54c.13-.3.5-.5 1.1-.6l6.34-1a1.27 1.27 0 011.19.22 1.36 1.36 0 01.28.47zm.68 3.83a1.19 1.19 0 01-.18 1.15 1.77 1.77 0 01-1 .47l-6.38 1a1.6 1.6 0 01-1-.12.93.93 0 01-.21-1.49 1.68 1.68 0 01.93-.43l6.38-1q1.16-.16 1.49.42zm3.14 1.42a1.21 1.21 0 01-.39-.7.88.88 0 01.16-.7.92.92 0 01.63-.36 1.07 1.07 0 01.68.12c.25.11.51.24.78.38s.55.26.84.37a1.75 1.75 0 00.88.08 2.4 2.4 0 001.12-.46 2.6 2.6 0 00.75-.87 3.5 3.5 0 00.36-1.12 4.46 4.46 0 000-1.21 1.43 1.43 0 00-.59-1 3.07 3.07 0 00-1.14-.48 5.77 5.77 0 00-1.31-.13 8.82 8.82 0 00-1.15.09 1.22 1.22 0 01-.73-.29 1 1 0 01-.32-.55.93.93 0 01.15-.63 1.38 1.38 0 01.65-.51 9.33 9.33 0 00.89-.3 9.2 9.2 0 00.89-.44 3.66 3.66 0 00.75-.6 1.73 1.73 0 00.45-.77l-.07-.61-.18-.48a.77.77 0 00-.31-.4 1.28 1.28 0 00-.51-.18 2.44 2.44 0 00-.61 0 5.54 5.54 0 00-.6.06 6.77 6.77 0 00-1.19.31 3.1 3.1 0 00-.91.43c-.16.16-.3.29-.43.4a.93.93 0 01-.46.21.86.86 0 01-.7-.19 1.25 1.25 0 01-.42-.83 1.15 1.15 0 01.29-.76 2.52 2.52 0 01.73-.59 6.73 6.73 0 01.94-.43c.33-.12.63-.21.9-.29a4.47 4.47 0 01.63-.15h.13a5.72 5.72 0 011.64-.06 3.79 3.79 0 011.41.41 3 3 0 011.06.92 3.46 3.46 0 01.58 1.48c0 .12 0 .29.06.51a2.91 2.91 0 010 .76 3.17 3.17 0 01-.36.92 4.42 4.42 0 01-.85 1 5.42 5.42 0 011 .45 4.3 4.3 0 01.87.67 3.71 3.71 0 01.67.89 3.28 3.28 0 01.38 1.09 4.13 4.13 0 01-.13 1.87 6 6 0 01-.82 1.75 5.79 5.79 0 01-1.32 1.34 3.64 3.64 0 01-1.61.7 4.06 4.06 0 01-2.1-.2 10.94 10.94 0 01-2.06-.92zm12.38-1.54a1.27 1.27 0 01-.53-.82 1 1 0 01.15-.73 1 1 0 01.68-.39 1.24 1.24 0 01.47 0 6 6 0 001.4.43 4.15 4.15 0 001.45 0 3.1 3.1 0 001.14-.4 3.33 3.33 0 00.89-.78 2.84 2.84 0 00.52-1.06 2.94 2.94 0 00.06-1.26 2.08 2.08 0 00-.5-1.09 2.54 2.54 0 00-.9-.63 3.68 3.68 0 00-1.09-.25 4.49 4.49 0 00-1.05 0 5.2 5.2 0 00-.8.2 5 5 0 00-.77.31 1.18 1.18 0 00-.25.25l-.18.23a.8.8 0 01-.21.2.86.86 0 01-.32.11 1 1 0 01-.7-.15 1.34 1.34 0 01-.51-.78c-.16-.81-.32-1.62-.47-2.44s-.31-1.64-.48-2.48a1.1 1.1 0 01-.49-.73 1.14 1.14 0 01.17-.77 1.06 1.06 0 01.79-.47l.69-.13 1.19-.22 1.43-.25 1.42-.26 1.19-.22.68-.12a1.2 1.2 0 01.76.29 1 1 0 01.32.59 1 1 0 01-.15.69 1.44 1.44 0 01-.66.53l-2.64.48c-.88.14-1.75.3-2.62.47l.3 1.54.3 1.57a6.36 6.36 0 01.86-.33 7.32 7.32 0 01.9-.21 5.52 5.52 0 012.19.05 4.83 4.83 0 011.78.81 5.06 5.06 0 011.27 1.34 4.52 4.52 0 01.64 1.69 4.19 4.19 0 01-.09 1.79 5.22 5.22 0 01-.8 1.75 5.64 5.64 0 01-1.43 1.41 4.78 4.78 0 01-2 .78 6.35 6.35 0 01-2 0 7.61 7.61 0 01-2-.54zm-55.99 32.78a1.27 1.27 0 01-.39-.7.89.89 0 01.16-.7.92.92 0 01.63-.36 1.11 1.11 0 01.69.12l.77.38a7.91 7.91 0 00.84.37 1.68 1.68 0 00.89.09 2.42 2.42 0 001.11-.47 2.6 2.6 0 00.75-.87 3.5 3.5 0 00.34-1.1 4.09 4.09 0 000-1.21 1.43 1.43 0 00-.59-1 3.35 3.35 0 00-1.14-.48 6.4 6.4 0 00-1.31-.13 8.82 8.82 0 00-1.15.09 1.22 1.22 0 01-.73-.29.88.88 0 01-.31-.55.87.87 0 01.14-.63 1.38 1.38 0 01.65-.51 9.33 9.33 0 00.89-.3 6.69 6.69 0 00.89-.44 4 4 0 00.75-.59 2 2 0 00.46-.78l-.08-.6-.18-.49a.71.71 0 00-.31-.39 1.15 1.15 0 00-.51-.19 2.44 2.44 0 00-.61 0 5.54 5.54 0 00-.6.06 6.68 6.68 0 00-1.18.31 3.18 3.18 0 00-.92.43 5 5 0 01-.43.4.94.94 0 01-.45.21.87.87 0 01-.71-.19 1.25 1.25 0 01-.42-.83 1.15 1.15 0 01.29-.76 2.66 2.66 0 01.73-.59 7.26 7.26 0 01.94-.42l.9-.3a4.47 4.47 0 01.63-.15h.13a5.73 5.73 0 011.64-.06 3.79 3.79 0 011.41.41 3 3 0 011.06.92 3.45 3.45 0 01.58 1.49c0 .11 0 .28.06.5a2.91 2.91 0 010 .76 3.17 3.17 0 01-.36.92 4 4 0 01-.85 1 5.42 5.42 0 011 .45 4.3 4.3 0 01.87.67 3.92 3.92 0 01.67.89 3.07 3.07 0 01.38 1.09 4.13 4.13 0 01-.13 1.87 5.73 5.73 0 01-.82 1.75 5.64 5.64 0 01-1.32 1.35 3.74 3.74 0 01-1.61.69 4.06 4.06 0 01-2.1-.2 10.94 10.94 0 01-2.04-.94zm15.92-12.96a2 2 0 00-.63-.64 1.32 1.32 0 00-.72-.23 3.5 3.5 0 00-1.82.88 8.71 8.71 0 00-1.37 1.59 1.2 1.2 0 01-.68.36.85.85 0 01-.7-.17 1 1 0 01-.37-.67 1.53 1.53 0 01.09-.78c.25-.37.53-.74.83-1.1a8 8 0 011-1 6.6 6.6 0 011.15-.77 3.82 3.82 0 011.27-.43 3.12 3.12 0 011.49.09 3.45 3.45 0 011.31.72 4.61 4.61 0 011 1.27 5.6 5.6 0 01.58 1.73 3.57 3.57 0 010 .66 4.52 4.52 0 01-.51 1.93 6.25 6.25 0 01-1 1.39 12.84 12.84 0 01-1.23 1.11 9.37 9.37 0 00-1.17 1.09 4.89 4.89 0 00-.88 1.33 4.15 4.15 0 00-.32 1.84l4.56-.74a.82.82 0 00.42-.16l.19-.16.21-.33a1.31 1.31 0 01.25-.34.72.72 0 01.26-.14 1.8 1.8 0 01.27-.07.9.9 0 01.75.19 1.06 1.06 0 01.38.66 1 1 0 010 .42.83.83 0 01-.07.21 4.16 4.16 0 01-.9 1.22 2.53 2.53 0 01-1.34.62l-5.71.93a1.09 1.09 0 01-1.21-1c0-.53-.05-1.06 0-1.58a8.64 8.64 0 01.17-1.53 6.29 6.29 0 01.46-1.43A4.87 4.87 0 01126 233a9.57 9.57 0 011.14-1 12.84 12.84 0 001.23-1.08 5.18 5.18 0 00.93-1.27 2.62 2.62 0 00.21-1.59 1.57 1.57 0 00-.18-.48 1.1 1.1 0 00-.2-.3zm16.12 3.55a13.52 13.52 0 01-.33 2 9.86 9.86 0 01-.73 2.08 6.8 6.8 0 01-1.21 1.76 3.78 3.78 0 01-1.73 1.06 7.25 7.25 0 01-1.32.28 3.16 3.16 0 01-1.34-.17c-.37-.12-.72-.24-1.06-.37a2.5 2.5 0 01-.93-.61 7.48 7.48 0 01-1.19-1.5 8.73 8.73 0 01-.8-1.76 10.86 10.86 0 01-.46-1.89 12.77 12.77 0 01-.15-1.94 10.4 10.4 0 01.19-2.17 8.85 8.85 0 01.72-2.16 6.27 6.27 0 011.31-1.78 4.06 4.06 0 012-1 8.67 8.67 0 011.07-.16 2.81 2.81 0 011.07.11 8.52 8.52 0 011 .37 4.22 4.22 0 011 .56 5.8 5.8 0 011.35 1.49 9 9 0 01.86 1.83 12.07 12.07 0 01.5 2 15.3 15.3 0 01.18 1.97zm-2 .08c0-.49-.06-1-.12-1.46a7.58 7.58 0 00-.33-1.45c-.14-.4-.29-.81-.46-1.21a4.42 4.42 0 00-.68-1.09 3.13 3.13 0 00-1.07-.86 2.87 2.87 0 00-1.23-.31 2.76 2.76 0 00-1.22.28 3.12 3.12 0 00-1.07.87 5.14 5.14 0 00-.94 2.21 10 10 0 00-.15 2.8 9.87 9.87 0 00.61 2.72 4.56 4.56 0 001.3 2 2.32 2.32 0 001 .51 7.34 7.34 0 001.11.08 3.79 3.79 0 001.49-.74 4.1 4.1 0 001-1.14 5.59 5.59 0 00.55-1.45 10.66 10.66 0 00.24-1.63zm6.1.98a1.21 1.21 0 01-.83-.24 1 1 0 01-.36-.58 1 1 0 01.94-1.16l1.22-.2 2-.34 2-.33 1.22-.2a1.21 1.21 0 01.73.28.91.91 0 01.31.56.88.88 0 01-.14.64 1.48 1.48 0 01-.66.5l-3.2.53zm15.37-.01a.93.93 0 01.31.55.86.86 0 01-.14.64 1.41 1.41 0 01-.66.5l-3.69.6a1.07 1.07 0 01-.84-.22 1 1 0 01-.36-.59 1.08 1.08 0 01.17-.71 1.06 1.06 0 01.78-.45l.69-.12-1.61-9.91a1.23 1.23 0 01-.68.36.84.84 0 01-.71-.17.89.89 0 01-.35-.59 1 1 0 010-.47 1.16 1.16 0 01.28-.49l1.48-1.35a1.53 1.53 0 01.5-.21 1 1 0 011.1.68l2.01 11.83 1-.17a1.25 1.25 0 01.72.29zm7.36.02a1.45 1.45 0 01-.33.67 1 1 0 01-.52.28.92.92 0 01-.67-.16 1.18 1.18 0 01-.46-.72 21.09 21.09 0 01.05-3.16 29.39 29.39 0 01.49-3.33 25.3 25.3 0 01.9-3.23 19.19 19.19 0 011.26-2.88l-6.86 1.12a1.2 1.2 0 01-.84-.24.93.93 0 01-.36-.58 1 1 0 01.17-.7 1.13 1.13 0 01.78-.46l8.95-1.46a1 1 0 011 .82 1.8 1.8 0 010 .55l-.53.91c-.17.3-.34.61-.5.93a27.25 27.25 0 00-1.13 2.75 24.92 24.92 0 00-.84 2.92 21.62 21.62 0 00-.47 3 19.84 19.84 0 00-.09 2.97zm11.04-15.27a13.58 13.58 0 00-1.74 2.73 12.29 12.29 0 00-1.06 3.22 5.32 5.32 0 012.76-1.37 5.57 5.57 0 011.73 0 3.84 3.84 0 011.49.6 4 4 0 011.12 1.17 4.71 4.71 0 01.61 1.74 5.31 5.31 0 010 2 4 4 0 01-.68 1.6 4.06 4.06 0 01-1.27 1.13 5.08 5.08 0 01-1.77.61 5.4 5.4 0 01-2.23-.08 3.91 3.91 0 01-1.87-1c-.27-.26-.49-.48-.65-.66a3.14 3.14 0 01-.4-.52 6.49 6.49 0 01-.31-.59c-.09-.22-.21-.5-.35-.86a4.27 4.27 0 01-.2-.82 8.81 8.81 0 010-2.57 13.22 13.22 0 01.61-2.67 16.3 16.3 0 011.13-2.57 16 16 0 011.51-2.25 1.29 1.29 0 01.74-.44.9.9 0 01.69.16.91.91 0 01.37.6 1.33 1.33 0 01-.23.84zm-2.49 8.78a1.27 1.27 0 01-.13.19l-.13.14a1.81 1.81 0 00.2.5 4.52 4.52 0 01.25.49 4.26 4.26 0 001.61 1.2 3.06 3.06 0 001.49.14 2.68 2.68 0 001.39-.56 2.21 2.21 0 00.62-.86 2 2 0 00.15-.89 6.41 6.41 0 00-.05-.64 2.8 2.8 0 00-.37-1.06 1.89 1.89 0 00-.63-.63 2.29 2.29 0 00-.77-.27 3.22 3.22 0 00-.82 0 3.39 3.39 0 00-1.63.75 4.56 4.56 0 00-1.18 1.5zm-60.84 40.12l-.16.06h-.16a1.1 1.1 0 01-.8-.14.87.87 0 01-.38-.58 1.11 1.11 0 01.34-.94 10 10 0 002.43-2.42 8.63 8.63 0 001.34-3 6.7 6.7 0 01-2.41.93 5.34 5.34 0 01-2.2-.06 4.65 4.65 0 01-1.69-.8 4.55 4.55 0 01-1.13-1.27 4.49 4.49 0 01-.55-1.49 4.87 4.87 0 01.06-1.86 4.69 4.69 0 01.77-1.76 5.37 5.37 0 011.49-1.43A5.64 5.64 0 01119 250a3.58 3.58 0 011.13 0 4.86 4.86 0 011.85.54 4.22 4.22 0 011.24 1.05A5 5 0 01124 253a10.5 10.5 0 01.55 4.89 10.22 10.22 0 01-.78 2.89 10.82 10.82 0 01-1.59 2.58 12.28 12.28 0 01-2.39 2.17zm-2.57-8.53a3.27 3.27 0 001.19.55 3.23 3.23 0 001.24 0 4.12 4.12 0 001.55-.58 5.82 5.82 0 001.29-1s.05 0 0-.1a2.15 2.15 0 000-.23v-.25a.88.88 0 010-.2 7.54 7.54 0 00-.35-1.34 3.44 3.44 0 00-.61-1.12 2.37 2.37 0 00-1-.69 2.47 2.47 0 00-1.37-.1 3.33 3.33 0 00-1.2.44 3.4 3.4 0 00-.94.83 3.21 3.21 0 00-.55 1.11 2.87 2.87 0 00-.07 1.27 2.59 2.59 0 00.26.77 2 2 0 00.56.64zm17.78-5.48a1.21 1.21 0 01.75-.44.92.92 0 011.05.75 1.17 1.17 0 01-.18.86c-.5.67-1 1.35-1.46 2s-.93 1.38-1.37 2.08c.8.65 1.56 1.34 2.29 2.05s1.43 1.45 2.1 2.23a1.11 1.11 0 01.14.79.91.91 0 01-.31.55.88.88 0 01-.6.21 1.19 1.19 0 01-.74-.27c-.59-.69-1.22-1.36-1.88-2s-1.35-1.25-2-1.84a50.26 50.26 0 00-2.34 4.64 1.18 1.18 0 01-.66.58 1 1 0 01-.71-.05.91.91 0 01-.47-.54 1.15 1.15 0 01.06-.88c.37-.87.77-1.72 1.2-2.56s.88-1.67 1.36-2.49c-.61-.47-1.22-.94-1.85-1.41l-1.89-1.4a1.2 1.2 0 01-.52-.72.87.87 0 01.03-.66 1 1 0 01.57-.41 1.11 1.11 0 01.87.11l1.9 1.4q1 .7 1.86 1.41c.43-.67.88-1.35 1.34-2s.95-1.33 1.46-1.99zm10.84 7.6a1 1 0 01.31.56.85.85 0 01-.14.63 1.42 1.42 0 01-.66.51l-3.69.6a1.15 1.15 0 01-.84-.22 1 1 0 01-.36-.6 1 1 0 01.95-1.16l.69-.11-1.61-9.91a1.37 1.37 0 01-.68.36.91.91 0 01-.71-.17.93.93 0 01-.35-.6 1 1 0 010-.47 1.22 1.22 0 01.28-.49l1.48-1.35a1.48 1.48 0 01.5-.2 1 1 0 011.1.68l1.96 11.82 1-.16a1.24 1.24 0 01.77.28zm7.61-11.64a2.17 2.17 0 00-.64-.64 1.27 1.27 0 00-.71-.23 3.57 3.57 0 00-1.83.88 8.66 8.66 0 00-1.36 1.59 1.23 1.23 0 01-.68.36.87.87 0 01-.71-.17 1 1 0 01-.37-.67 1.44 1.44 0 01.1-.78c.25-.37.53-.74.83-1.1a8 8 0 011-1 6.52 6.52 0 011.14-.77 3.9 3.9 0 011.27-.43 3.17 3.17 0 011.5.09 3.45 3.45 0 011.31.72 4.61 4.61 0 011 1.27 5.34 5.34 0 01.57 1.73 2.86 2.86 0 010 .66 4.83 4.83 0 01-.51 1.93 6.28 6.28 0 01-1 1.39 12.73 12.73 0 01-1.22 1.11 10.23 10.23 0 00-1.18 1.09 5.13 5.13 0 00-.88 1.33 4.16 4.16 0 00-.31 1.84l4.56-.74a.75.75 0 00.41-.16l.2-.16.2-.33a1.27 1.27 0 01.26-.34.65.65 0 01.26-.14 1.8 1.8 0 01.27-.07.88.88 0 01.74.19 1 1 0 01.38.66 1.21 1.21 0 010 .42.76.76 0 01-.08.21 3.83 3.83 0 01-.9 1.22 2.49 2.49 0 01-1.33.62l-5.71.93a1.1 1.1 0 01-1.22-1v-1.58a9.68 9.68 0 01.17-1.53 6.29 6.29 0 01.46-1.43 5.18 5.18 0 01.85-1.28 8.22 8.22 0 011.14-1 12.84 12.84 0 001.23-1.08 4.9 4.9 0 00.92-1.27 2.48 2.48 0 00.21-1.59 1.18 1.18 0 00-.18-.48 1.28 1.28 0 00-.16-.27zm14.38 2.16a1 1 0 01-.24.92 1.75 1.75 0 01-.94.43l-6.33 1a1.77 1.77 0 01-1-.1 1 1 0 01-.54-.8.77.77 0 01.14-.54c.13-.3.5-.5 1.1-.6l6.34-1a1.3 1.3 0 011.19.22 1.36 1.36 0 01.28.47zm.68 3.83a1.19 1.19 0 01-.18 1.15 1.77 1.77 0 01-1 .47l-6.38 1a1.67 1.67 0 01-1.05-.11.92.92 0 01-.48-.69.89.89 0 01.27-.81 1.75 1.75 0 01.93-.43l6.38-1q1.18-.2 1.51.42zm7.43.74a.91.91 0 01.31.56.88.88 0 01-.14.64 1.48 1.48 0 01-.66.5l-3.69.6a1.15 1.15 0 01-.84-.22.94.94 0 01-.35-.6 1 1 0 01.94-1.16l.7-.11-1.62-9.91a1.26 1.26 0 01-.68.36.89.89 0 01-.7-.17 1 1 0 01-.36-.6 1.15 1.15 0 01.31-1l1.48-1.35a1.45 1.45 0 01.51-.2 1 1 0 011.1.68l1.92 11.83 1-.17a1.21 1.21 0 01.77.32zm12.31-6.21a13.52 13.52 0 01-.33 2 9.86 9.86 0 01-.73 2.08 6.83 6.83 0 01-1.22 1.76 3.75 3.75 0 01-1.72 1.06 7.25 7.25 0 01-1.32.28 3.38 3.38 0 01-1.35-.16l-1.05-.37a2.53 2.53 0 01-.93-.62 7.14 7.14 0 01-1.19-1.5 8.65 8.65 0 01-.8-1.75 11.2 11.2 0 01-.46-1.9 14.08 14.08 0 01-.16-1.93 11.26 11.26 0 01.2-2.18 8.85 8.85 0 01.72-2.16 6.08 6.08 0 011.31-1.78 4.06 4.06 0 012-1 10.66 10.66 0 011.07-.16 3.05 3.05 0 011.07.11 10.6 10.6 0 011 .37 4.16 4.16 0 011 .56 5.66 5.66 0 011.36 1.49 9.55 9.55 0 01.86 1.83 12.33 12.33 0 01.5 2 17.54 17.54 0 01.17 1.97zm-2 .08a14.13 14.13 0 00-.11-1.46 7.07 7.07 0 00-.34-1.45q-.19-.6-.45-1.2a4.3 4.3 0 00-.68-1.1 3.36 3.36 0 00-1.07-.86 2.72 2.72 0 00-1.23-.3 2.62 2.62 0 00-1.22.27 3 3 0 00-1.07.88 5 5 0 00-.94 2.21 10 10 0 00-.15 2.79 10.15 10.15 0 00.6 2.72 4.52 4.52 0 001.31 2 2.19 2.19 0 001 .52 6.2 6.2 0 001.12.12 4 4 0 001.49-.73 4.1 4.1 0 001-1.15 5.08 5.08 0 00.56-1.44 12.45 12.45 0 00.23-1.64zm4.66 1.61c0-.5.07-1 .11-1.42a2.82 2.82 0 01.57-1.37 4.41 4.41 0 01.79-1c.3-.29.62-.57 1-.86a7.37 7.37 0 01-2-1.46 4 4 0 01-1.06-2.18 2.5 2.5 0 01.21-1.6 3.57 3.57 0 011-1.19 5.36 5.36 0 011.5-.79 8.74 8.74 0 011.65-.43 6 6 0 011.41-.07 4.19 4.19 0 011.37.29 2.85 2.85 0 011.11.77 2.64 2.64 0 01.61 1.35 4.39 4.39 0 010 1.4 4 4 0 01-.4 1.2 5 5 0 01-.8 1.09 13.32 13.32 0 01-1.14 1.07c.46.19.91.4 1.37.63a7.88 7.88 0 011.26.78 4.69 4.69 0 011 1 2.83 2.83 0 01.51 1.26 2.62 2.62 0 01-.15 1.34 4.71 4.71 0 01-.73 1.31 5.58 5.58 0 01-1.11 1.06 4.37 4.37 0 01-1.23.66 10 10 0 01-1.68.45 5.78 5.78 0 01-1.71 0 6.07 6.07 0 01-1.76-.61 2.14 2.14 0 01-1.06-1c-.18-.43-.35-.88-.51-1.34zm1.57-7.91a6 6 0 001.14 1.07 11.39 11.39 0 001.38.81 10.24 10.24 0 001.24-1.22 5.44 5.44 0 00.91-1.47v-.4a2.26 2.26 0 010-.37.82.82 0 01-.1-.24.87.87 0 00-.1-.24 1.91 1.91 0 00-1-.48 4 4 0 00-1.14 0 6.1 6.1 0 00-.79.2 4.27 4.27 0 00-.81.37 2.31 2.31 0 00-.65.54 1.06 1.06 0 00-.28.71c0 .11.07.22.1.34s.06.27.1.38zm.54 6.83v.82a3.45 3.45 0 01.14.42c0 .14.09.27.14.4a2.82 2.82 0 00.69.59 2.64 2.64 0 00.72.27 2.48 2.48 0 00.71 0l.63-.08a4.69 4.69 0 00.93-.26 3.61 3.61 0 00.91-.53 3.12 3.12 0 00.69-.83 2.76 2.76 0 00.32-1.16 1.73 1.73 0 00-.58-.79 6.88 6.88 0 00-.95-.65c-.35-.19-.72-.37-1.1-.53l-1-.44a17.68 17.68 0 00-1.3 1.29 5 5 0 00-.97 1.48z" fill="#7daebc"/><path class="cls-7" d="M207.82 242.2a4 4 0 00-2.22-5.2l-6.6-2.58a4 4 0 10-2.94 7.37l6.58 2.62a4 4 0 005.18-2.21z"/><path class="cls-7" d="M204.56 237.3s-5.65 10.74 1.15 18.83-1.15-18.83-1.15-18.83z"/><path class="cls-7" d="M203.12 232.51c1.47-1.29 3.14-2.09 4.55-1 3.75 2.77 12.11 16.45 9.16 23.44-2.73 6.45-6.89 2.45-10.47-3.39z"/><path class="cls-3" d="M365.73 296.53a6.51 6.51 0 01-3.5-1l-15.52-10a6.47 6.47 0 117-10.87l10.24 6.6 27.94-40.76a6.47 6.47 0 1110.67 7.31l-31.5 46a6.48 6.48 0 01-5.33 2.72z"/><path d="M524 191.63L407.4 171.7l-15 87.47a14.83 14.83 0 0012.09 17.07l87.48 15a14.84 14.84 0 0017.07-12.09z" fill="#616161"/><path d="M516.93 145.41l-87.48-15a14.83 14.83 0 00-17.07 12.09l-5.61 32.8 116.64 19.94 5.6-32.8a14.82 14.82 0 00-12.08-17.03z" fill="#424242"/><path d="M510.7 181.85l-87.48-14.95a3.49 3.49 0 01-3-4.27l3.12-18.22a3.48 3.48 0 014.26-3l87.48 15a3.5 3.5 0 013 4.27L515 178.83a3.49 3.49 0 01-4.3 3.02z" fill="#9ccc65"/><path class="cls-11" transform="rotate(-80.29 505.3 169.666)" d="M501.58 165.97h7.4v7.4h-7.4z"/><path class="cls-11" transform="rotate(-80.29 490.723 167.172)" d="M487 163.48h7.4v7.4H487z"/><path d="M505.09 214.66l-10.94-1.87a3.5 3.5 0 01-3-4.27l1.25-7.29a3.49 3.49 0 014.27-3l10.93 1.87a3.49 3.49 0 013 4.27l-1.24 7.28a3.5 3.5 0 01-4.27 3.01z" fill="#ff5252"/><path d="M428.55 201.57l-10.94-1.87a3.49 3.49 0 01-3-4.26l1.25-7.29a3.49 3.49 0 014.27-3L431 187a3.49 3.49 0 013 4.27l-1.24 7.29a3.49 3.49 0 01-4.21 3.01zm25.51 4.36l-10.93-1.86a3.49 3.49 0 01-3-4.27l1.24-7.29a3.5 3.5 0 014.27-3l10.94 1.88a3.49 3.49 0 013 4.26l-1.25 7.29a3.49 3.49 0 01-4.27 2.99zm25.52 4.37l-10.94-1.87a3.5 3.5 0 01-3-4.27l1.25-7.29a3.49 3.49 0 014.27-3l10.93 1.87a3.49 3.49 0 013 4.26l-1.25 7.29a3.49 3.49 0 01-4.26 3.01zm-54.77 13.14l-10.93-1.87a3.49 3.49 0 01-3-4.27l1.22-7.3a3.5 3.5 0 014.27-3l10.93 1.87a3.5 3.5 0 013 4.27l-1.25 7.29a3.49 3.49 0 01-4.24 3.01zm25.51 4.36l-10.93-1.87a3.48 3.48 0 01-3-4.26l1.25-7.29a3.49 3.49 0 014.26-3l10.94 1.87a3.5 3.5 0 013 4.27l-1.25 7.29a3.49 3.49 0 01-4.27 2.99zm25.52 4.36l-10.94-1.87a3.49 3.49 0 01-3-4.26l1.25-7.29a3.48 3.48 0 014.26-3l10.94 1.86a3.49 3.49 0 013 4.27l-1.24 7.29a3.49 3.49 0 01-4.27 3zm-54.77 13.15l-10.93-1.87a3.49 3.49 0 01-3-4.27l1.24-7.29a3.5 3.5 0 014.27-3l10.93 1.87a3.5 3.5 0 013 4.27l-1.25 7.29a3.49 3.49 0 01-4.26 3zm25.52 4.36l-10.94-1.87a3.5 3.5 0 01-3-4.27l1.25-7.28a3.49 3.49 0 014.26-3l10.94 1.87a3.5 3.5 0 013 4.27l-1.25 7.29a3.48 3.48 0 01-4.26 2.99zM472.1 254l-10.93-1.87a3.49 3.49 0 01-3-4.26l1.25-7.29a3.5 3.5 0 014.27-3l10.93 1.87a3.49 3.49 0 013 4.27l-1.25 7.28a3.49 3.49 0 01-4.27 3zm-54.76 13.18l-10.94-1.87a3.49 3.49 0 01-3-4.27l1.25-7.29a3.49 3.49 0 014.26-3l10.94 1.87a3.5 3.5 0 013 4.27l-1.25 7.29a3.49 3.49 0 01-4.26 3zm25.51 4.36l-10.94-1.87a3.5 3.5 0 01-3-4.27l1.25-7.29a3.5 3.5 0 014.27-3l10.91 1.89a3.49 3.49 0 013 4.27l-1.24 7.29a3.5 3.5 0 01-4.25 2.98zm25.51 4.36l-10.93-1.9a3.49 3.49 0 01-3-4.27l1.24-7.28a3.5 3.5 0 014.27-3l10.93 1.87a3.5 3.5 0 013 4.27l-1.25 7.29a3.49 3.49 0 01-4.26 3.02z" fill="#e0e0e0"/><path d="M501.35 236.52l-10.93-1.86a3.49 3.49 0 01-3-4.27l1.24-7.29a3.49 3.49 0 014.27-3l10.91 1.9a3.49 3.49 0 013 4.26l-1.25 7.29a3.49 3.49 0 01-4.24 2.97zm-3.74 21.87l-10.93-1.87a3.48 3.48 0 01-3-4.26l1.22-7.26a3.49 3.49 0 014.27-3l10.93 1.86a3.51 3.51 0 013 4.27l-1.25 7.29a3.49 3.49 0 01-4.24 2.97zm-3.73 21.87l-10.94-1.87a3.49 3.49 0 01-3-4.26l1.25-7.29a3.49 3.49 0 014.26-3l10.94 1.87a3.5 3.5 0 013 4.27l-1.25 7.29a3.48 3.48 0 01-4.26 2.99z" fill="#bdbdbd"/><path class="cls-7" d="M392.08 243.65a4 4 0 012.22-5.16l6.58-2.62a4 4 0 112.93 7.37l-6.57 2.62a4 4 0 01-5.16-2.21z"/><path class="cls-7" d="M395.33 238.75s5.66 10.74-1.14 18.83 1.14-18.83 1.14-18.83z"/><path class="cls-7" d="M396.77 234c-1.47-1.29-3.14-2.09-4.55-1.05-3.74 2.78-12.1 16.46-9.15 23.45 2.72 6.45 6.89 2.45 10.46-3.39z"/><path class="cls-15" d="M283.43 352.41s-15.79-.07-15.8 0c-1.1 36.2 7.59 96 7.59 96s8.22.23 8.21 0c-3.65-78.41 0-96 0-96zm33.39 0s15.8-.07 15.8 0c1.1 36.2-7.58 96-7.58 96s-8.23.23-8.22 0c3.65-78.41 0-96 0-96z"/><path class="cls-15" d="M300.16 341c18 0 32.57 5.24 32.57 11.69s-14.59 11.69-32.57 11.69-32.57-5.24-32.57-11.69S282.18 341 300.16 341z"/><path fill="#744a20" d="M267.6 325.11h65.12v27.26H267.6z"/><path d="M332.41 325.11l.31.45v16.2c-5.25 7.85-17.91 13.39-32.67 13.39-14.56 0-27.07-5.39-32.45-13.07v-16.9l.05-.07z" fill="#633e15" fill-rule="evenodd"/><path class="cls-5" d="M335.41 330.56c6.47 16.56-23.4 20.16-35.16 20.16s-41.86-3.6-35.39-20.16c8.56-21.94 6.94-56.14 6.94-56.14-2.43 2.2-4.24 5.72-5.61 10.14-.45 1.44-1.89 1.86-3.37 2.12-6.54 1.13-20.09-4.1-21.77-13.26a3 3 0 01.63-2.47c16.31-20 40-33.67 58.14-33.12h.63c18.14-.55 41.83 13.11 58.15 33.1a3.07 3.07 0 01.64 2.49c-1.71 9.16-15.5 14.86-21.79 13.27-1.46-.37-2.93-.68-3.38-2.12-1.37-4.43-3.17-7.95-5.6-10.15 0 0-1.62 34.2 6.94 56.14z"/><path d="M300.13 235.06c6.19 0 11.21 1.61 11.21 6.52s-5 8.88-11.21 8.88-11.21-4-11.21-8.88 5.08-6.52 11.21-6.52z" fill="#c61625" fill-rule="evenodd"/><path class="cls-7" d="M307.81 217.62h-15.35v22.51c0 3.38 2.23 5.25 5.48 6.19a8 8 0 004.4 0c3.23-.93 5.46-2.78 5.46-6.14.01-7.25.01-22.56.01-22.56z"/><path class="cls-2" d="M307.81 219.27h-15.35V232c0 1.9 2.23 3 5.48 3.49a14.11 14.11 0 004.4 0c3.23-.52 5.46-1.56 5.46-3.46.01-4.14.01-12.76.01-12.76z"/><path class="cls-7" d="M377.12 93.06A35.1 35.1 0 00358 59.42c-40.13-20.34-78.89-19.88-116.39-.27A35.11 35.11 0 00223 92.57c2.07 30.86 5.93 57.21 8.07 89a35.06 35.06 0 0022.79 30.51l36.39 13.47a26.92 26.92 0 0018.6.05l37.26-13.6a35 35 0 0023-30.57c2.1-31.64 5.89-57.43 8.01-88.37z"/><path class="cls-7" d="M377.12 93.06A35.1 35.1 0 00358 59.42c-40.13-20.34-78.89-19.88-116.39-.27A35.11 35.11 0 00223 92.57c2.07 30.86 5.93 57.21 8.07 89a35.06 35.06 0 0022.79 30.51l36.39 13.47a26.92 26.92 0 0018.6.05l37.26-13.6a35 35 0 0023-30.57c2.1-31.64 5.89-57.43 8.01-88.37z"/><path class="cls-2" d="M233.79 192.75c17.45 13.59 40.77 21.89 66.38 21.89s48.87-8.28 66.3-21.84a35 35 0 01-20.24 19.2l-37.3 13.59a26.92 26.92 0 01-18.6-.05l-36.39-13.47a35.06 35.06 0 01-20.15-19.32zM250.72 78.5a50.15 50.15 0 01-11 23.14c-8.57 10-8.18 25.32-11.22 39.37-2.05-9.31-2.73-18.58-7.55-30.45s-.85-67.35 9-67.05c3.66-18.11 119.36-17.4 119.36-17.4 17.31 7.11 28.46 42.09 28.46 42.09a134.22 134.22 0 01-7.2 69.8c-2.2.77-6.69-51.4-20.5-61.19s-40.26 7.79-62.37 2.44c3.48 3 8.38 5.74 14.56 8.28-15.17 3.11-31.09.6-44.13-5.21a69 69 0 01-7.41-3.82z"/><path class="cls-15" d="M248.94 72.81A49.45 49.45 0 01237.58 96c-8.87 10-8.47 25.32-11.62 39.37-2.12-9.31-2.83-18.58-7.81-30.45s-2.63-25.47-1.37-39.1l-4.5-.07a2 2 0 01-1.67-.94c-.37-.57-.15-1.23-.13-1.91.21-11 6.78-25.33 17-25 3.76-18.19 18.25-30.7 43.03-37.82a2 2 0 012.42 1.2l2.84 7.21c25.06-8.13 51.38-7.32 79.12 3.44a2 2 0 01.78 3.2l-4.6 5.28c17.93 7.12 31.14 19.66 37.32 40.28a2 2 0 01-.4 1.88 2 2 0 01-1.79.69l-5.65-.75a130.05 130.05 0 01-7.48 69.82l-13.07-35s6.36-8.18-8.12-26.2c-1-.45-7.43-1.32-9.53-1.42-21.84-1-32.16 9.22-55.06 3.87 3.61 3 8.68 5.74 15.08 8.28-18.88 3.72-38.84-.62-53.43-9.05z"/><path class="cls-7" d="M221.53 129.52c9.58 0 17.36 6.55 17.36 14.6s-7.78 14.61-17.36 14.61-17.35-6.55-17.35-14.61 7.82-14.6 17.35-14.6z"/><path class="cls-2" d="M204.73 140.46c2.22 8.8 10.88 15.38 21.21 15.38a23.51 23.51 0 007.75-1.3 19.08 19.08 0 01-12.16 4.19c-9.57 0-17.35-6.55-17.35-14.61a12.43 12.43 0 01.55-3.66z"/><path class="cls-19" d="M216.6 140.29a14.19 14.19 0 00-4.63 1.22s-1.65-.22-.9-1.16c.91-1.15 4.23-1.77 7.07-1.77a15.4 15.4 0 0111.84 6s.32.57 0 1c-.72.87-2-1.16-3.44-2.31a13.56 13.56 0 00-8-3 3.59 3.59 0 01-.33.52c-1.29 1.81-2.42 4.35-.52 5.94a6.61 6.61 0 001.25.73c.73.4.41 1.88-1 1.21a4.59 4.59 0 01-2.71-3.32 6.83 6.83 0 011.37-5.06z"/><path class="cls-7" d="M378.6 129.52c-9.58 0-17.35 6.55-17.35 14.6s7.77 14.61 17.35 14.61 17.4-6.55 17.4-14.61-7.82-14.6-17.4-14.6z"/><path class="cls-2" d="M395.4 140.46c-2.22 8.8-10.88 15.38-21.21 15.38a23.45 23.45 0 01-7.74-1.3 19.07 19.07 0 0012.15 4.19c9.58 0 17.36-6.55 17.36-14.61a12.12 12.12 0 00-.56-3.66z"/><path class="cls-19" d="M381.77 140.24a13.86 13.86 0 00-10.14 5c-1.31 1.56-1.58.47-1.64 0-.1-.84 1.29-2 2.66-3.1a15.15 15.15 0 019.35-3.52h.22a16.7 16.7 0 016.44 1.49 1 1 0 01.54.53c.19.64-.26 1.24-1.28.79a14.48 14.48 0 00-4.31-1.1 11.65 11.65 0 01.92 2.18 4.86 4.86 0 01-1.06 5.36 8.26 8.26 0 01-1.63 1c-.54.21-.61 0-.81-.14-.4-.39-.24-1 .44-1.35a3.23 3.23 0 001.85-1.91c.51-1.75-.59-3.63-1.51-4.81a1.65 1.65 0 01-.04-.42z"/><path d="M274.49 443.22c-1.56-.55-23.62 4.11-23.28 7.39a5.06 5.06 0 003.86 4.41c3.4.65 10.19.19 13.77-.55a68.34 68.34 0 007.72-2.75l3.61 1a.87.87 0 00.48 0l3.32-.83a.93.93 0 00.69-1.07c-.41-2.21-1.48-7.9-1.48-7.9zm51.21 0c1.56-.55 23.62 4.11 23.28 7.39a5.05 5.05 0 01-3.85 4.41c-3.4.65-10.2.19-13.78-.55a68.73 68.73 0 01-7.71-2.75l-3.62 1a.87.87 0 01-.48 0l-3.32-.83a.94.94 0 01-.69-1.07C316 448.65 317 443 317 443z" fill="#231f20" fill-rule="evenodd"/><ellipse class="cls-21" cx="262.8" cy="119.9" rx="19.92" ry="16.66"/><path class="cls-22" d="M262.8 110a9.87 9.87 0 11-9.87 9.87 9.88 9.88 0 019.87-9.87z"/><path class="cls-5" d="M260.77 113.91a3.32 3.32 0 11-3.32 3.32 3.32 3.32 0 013.32-3.32zm75.58-10.67c11 0 19.92 7.47 19.92 16.66s-8.92 16.66-19.92 16.66-19.92-7.46-19.92-16.66 8.92-16.66 19.92-16.66z"/><path class="cls-22" d="M336.35 110a9.87 9.87 0 11-9.87 9.87 9.87 9.87 0 019.87-9.87z"/><path class="cls-5" d="M334.33 113.91a3.32 3.32 0 11-3.32 3.32 3.32 3.32 0 013.32-3.32z"/><path class="cls-23" d="M255.79 141.5a1.71 1.71 0 110 3.41 1.71 1.71 0 010-3.41zm75.93.21a1.71 1.71 0 110 3.41 1.71 1.71 0 010-3.41z"/><circle class="cls-19" cx="261.53" cy="147.89" r="1.7" transform="rotate(-89.79 261.526 147.898)"/><path class="cls-23" d="M337.47 145.88a1.71 1.71 0 11-1.71 1.71 1.71 1.71 0 011.71-1.71zm-70.79-4.17a1.71 1.71 0 11-1.71 1.71 1.71 1.71 0 011.71-1.71zm75.93.22a1.71 1.71 0 11-1.71 1.7 1.71 1.71 0 011.71-1.7z"/><ellipse class="cls-19" cx="299.07" cy="148.68" rx="16.3" ry="14.49"/><ellipse class="cls-3" cx="296.47" cy="144.73" rx="16.3" ry="14.49"/><rect class="cls-21" x="285.32" y="177.75" width="14.13" height="10.78" rx="2.7"/><rect class="cls-21" x="301.46" y="177.75" width="14.13" height="10.78" rx="2.7"/><path class="cls-7" d="M256.3 163.16c17.1 27.91 69.9 28.5 86.26.51"/><path class="cls-24" d="M256.44 162.42c.72.22.33.09.9 1 7.5 11.6 21.5 18 34.75 19.7 18.31 2.35 38.59-2.55 48.94-18.4.42-.64 1-1.55 1-1.55.61-.54 1.71 0 1.11 1.06l-.4.66c-7 11.33-20.71 17.89-33.79 19.67-15.93 2.17-33.07-1.31-45.31-11.75a39.19 39.19 0 01-7.75-8.91c-.07-.07-.7-1.57.55-1.48z"/><path class="cls-24" d="M258.16 157.79c.55 0 1.36.11 1.36.11.57.12.53.3.6.56.13.53-.36 1-1 .9-2-.25-4.25.2-5.38 1.86s-1 3.52-.76 5.25c0 0-.07.75-.63.85-.93.15-1-1.32-1-2.39-.05-2.79 1.31-5.86 4.24-6.78a8.87 8.87 0 012.57-.36zm83.58.69a6.78 6.78 0 015.69 2.59 7.78 7.78 0 011 5.63s-.18.54-.61.61-.94-.38-.85-1c.25-2-.18-4.21-1.82-5.36s-3.53-1-5.29-.79a1 1 0 01-.76-.39c-.39-.77.96-1.29 2.64-1.29z"/></g></g></svg>