<svg xmlns="http://www.w3.org/2000/svg" viewBox="0 0 492.72 548"><defs><clipPath id="clip-path"><path fill="none" d="M0 0h492.72v548H0z"/></clipPath><clipPath id="clip-path-2"><path d="M233.35 194.29a1.55 1.55 0 000-1.53A1.58 1.58 0 00232 192l-66.74-.5a1.57 1.57 0 00-1.38 2.33c14.96 26.4 55.12 26.93 69.47.46z" clip-rule="evenodd" fill="none"/></clipPath><style>.cls-6{fill:#595959}.cls-13,.cls-15,.cls-16,.cls-19,.cls-20,.cls-9{fill-rule:evenodd}.cls-15,.cls-8{fill:#fdd3a1}.cls-9{fill:#744a20}.cls-13,.cls-18{fill:#fff}.cls-16{fill:#efc897}.cls-17,.cls-20{fill:#edc594}.cls-19{fill:#272727}.cls-24{fill:#c7342b}.cls-33{fill:#828c9f}</style></defs><g id="Layer_2" data-name="Layer 2"><g clip-path="url(#clip-path)" id="Layer_1-2" data-name="Layer 1"><path d="M247.38 257.83A13.41 13.41 0 00234 243.35h-88.14a13.41 13.41 0 00-13.36 14.48c2.37 29.38 7.71 95.54 9.93 123a13.39 13.39 0 0013.35 12.32h68.32a13.4 13.4 0 0013.36-12.32c2.21-27.46 7.54-93.62 9.92-123z" fill-rule="evenodd" fill="#595959"/><path fill="#4d4d4d" d="M184.82 392.67h10.23v82.58h-10.23z"/><rect class="cls-6" x="166.73" y="391.94" width="46.41" height="12.75" rx="3.19"/><rect class="cls-6" x="154.16" y="470.51" width="71.56" height="9.47" rx="2.37"/><rect x="136.2" y="377.53" width="107.49" height="19.22" rx="4.8" fill="#737373"/><path class="cls-8" d="M139.18 287.2a6.11 6.11 0 015.51 5.17 6.8 6.8 0 01-2.46 5.58c-3.69 3.51-7.2 7.38-9.19 12-.78 1.82-1.41 3.91.26 5.2a9.14 9.14 0 002.1 1.16 7.17 7.17 0 01.91.48 5.87 5.87 0 01-5 10.54c-6.39-2-11.5-8.25-10.81-15.67.52-5.61 3.59-10.63 7-15a63.53 63.53 0 017.3-7.9l.29-.25a6.16 6.16 0 014.09-1.31zm100.6 0a6.11 6.11 0 00-5.51 5.17 6.8 6.8 0 002.46 5.58c3.69 3.51 7.2 7.38 9.19 12 .78 1.82 1.41 3.91-.26 5.2a9.14 9.14 0 01-2.1 1.16 7.17 7.17 0 00-.91.48 5.87 5.87 0 005 10.54c6.39-2 11.5-8.25 10.81-15.67-.52-5.61-3.59-10.63-7-15a63.53 63.53 0 00-7.3-7.9l-.29-.25a6.16 6.16 0 00-4.09-1.31z"/><path class="cls-9" d="M177.49 372.36s-16.31-6.61-16.35-6.56a52.84 52.84 0 00-8.85 31.79c1.92 27.19 4.19 29.56 4.19 29.56h7.35s-.3-15.38.19-28.13c.72-19.24 13.47-26.66 13.47-26.66zm24.9 0s16.32-6.61 16.35-6.56a52.77 52.77 0 018.85 31.79c-1.92 27.19-4.18 29.56-4.18 29.56h-7.35s.29-15.38-.19-28.13c-.73-19.24-13.48-26.66-13.48-26.66z"/><path class="cls-9" d="M165.88 378.37c-3-1.65-4.75-3.61-4.75-5.73 0-5.77 13.06-10.46 29.14-10.46s29.15 4.69 29.15 10.46c0 2.12-1.75 4.08-4.75 5.73z"/><path fill="#744a20" d="M161.14 347.94h58.26v24.39h-58.26z"/><path d="M219.13 347.94c.1.13.19.27.28.4v14.49c-4.7 7-16 12-29.23 12-13 0-24.23-4.82-29-11.69v-15.2z" fill="#633e15" fill-rule="evenodd"/><path d="M157.42 423.41c-1.43.35-15.68 14.64-13.82 16.93a4.53 4.53 0 005.05 1.42c2.86-1.18 7.73-4.85 10-7.16a61.79 61.79 0 004.43-5.83l3.18-1a1 1 0 00.43-.27l1.95-2.11a1 1 0 000-1.34l-4.83-5.05zm65.04 0c1.43.35 15.68 14.64 13.82 16.93a4.53 4.53 0 01-5.05 1.42c-2.86-1.18-7.72-4.85-10-7.16a61.79 61.79 0 01-4.43-5.83l-3.18-1a.9.9 0 01-.42-.27l-2-2.11a1 1 0 010-1.34l4.87-5.09z" fill="#231f20" fill-rule="evenodd"/><path class="cls-13" d="M227.29 349.29c6.83 17.5-24.73 21.3-37.15 21.3s-44.23-3.8-37.4-21.3c9-23.18 7.33-59.32 7.33-59.32-2.57 2.33-4.47 6-5.93 10.72-.48 1.51-2 2-3.56 2.23-6.91 1.2-21.22-4.33-23-14a3.23 3.23 0 01.67-2.61c17.23-21.14 42.26-35.58 61.43-35h.66c19.18-.59 44.2 13.85 61.45 35a3.25 3.25 0 01.68 2.63c-1.81 9.68-16.38 15.7-23 14-1.54-.39-3.09-.72-3.57-2.24-1.47-4.7-3.38-8.4-5.9-10.7 0 0-1.76 36.11 7.29 59.29z"/><path d="M190 248.38c6.54 0 11.85 1.7 11.85 6.88s-5.31 9.39-11.85 9.39-11.84-4.2-11.84-9.39 5.31-6.88 11.84-6.88z" fill="#c61625" fill-rule="evenodd"/><path class="cls-15" d="M198.12 230H181.9v23.78c0 3.57 2.36 5.55 5.79 6.54a8.36 8.36 0 004.65 0c3.41-1 5.77-2.93 5.77-6.48.01-7.72.01-23.84.01-23.84z"/><path class="cls-16" d="M198.12 231.69H181.9v13.4c0 2 2.36 3.12 5.79 3.69a15.11 15.11 0 004.65 0c3.41-.55 5.77-1.65 5.77-3.65.01-4.33.01-13.44.01-13.44z"/><path class="cls-15" d="M271.36 98.33a37.09 37.09 0 00-20.18-35.55c-42.4-21.48-83.35-21-123-.27a37.07 37.07 0 00-19.73 35.31c2.18 32.61 6.26 60.45 8.52 94a37 37 0 0024.08 32.23l38.45 14.24a28.46 28.46 0 0019.66.05L238.6 224a37 37 0 0024.26-32.3c2.25-33.42 6.3-60.7 8.5-93.37z"/><path class="cls-15" d="M271.36 98.33a37.09 37.09 0 00-20.18-35.55c-42.4-21.48-83.35-21-123-.27a37.07 37.07 0 00-19.73 35.31c2.18 32.61 6.26 60.45 8.52 94a37 37 0 0024.08 32.23l38.45 14.24a28.46 28.46 0 0019.66.05L238.6 224a37 37 0 0024.26-32.3c2.25-33.42 6.3-60.7 8.5-93.37z"/><path class="cls-16" d="M119.91 203.67C138.34 218 163 226.8 190.05 226.8s51.64-8.75 70.06-23.08A37 37 0 01238.72 224l-39.42 14.36a28.44 28.44 0 01-19.65-.05l-38.45-14.24a37 37 0 01-21.29-20.4zM137.8 83a53.07 53.07 0 01-11.6 24.45c-9 10.54-8.63 26.75-11.85 41.6-2.17-9.84-2.89-19.64-8-32.18s-.91-71.16 9.49-70.84C119.74 26.84 242 27.58 242 27.58c18.29 7.52 30.07 44.48 30.07 44.48a141.82 141.82 0 01-7.63 73.78c-2.33.81-7.07-54.32-21.67-64.66s-42.53 8.24-65.9 2.58c3.68 3.15 8.85 6.06 15.39 8.76-16 3.28-32.85.62-46.63-5.51A73.08 73.08 0 01137.8 83z"/><path class="cls-9" d="M135.92 76.94a52.24 52.24 0 01-12 24.45c-9.37 10.53-8.94 26.75-12.28 41.6-2.24-9.84-3-19.64-8.25-32.18s-2.77-26.92-1.45-41.31l-4.75-.08a2.13 2.13 0 01-1.77-1c-.38-.61-.15-1.3-.14-2 .23-11.64 7.17-26.77 17.94-26.45 4-19.14 19.32-32.35 45.49-39.88a2.13 2.13 0 012.57 1.27c1.07 2.73 3 7.62 3 7.62 26.48-8.58 54.29-7.73 83.6 3.64a2.13 2.13 0 01.82 3.38l-4.86 5.58c18.94 7.52 32.9 20.77 39.43 42.56a2.12 2.12 0 01-2.27 2.7l-6-.79a137.4 137.4 0 01-7.9 73.77l-13.86-37s6.72-8.64-8.58-27.68c-1.06-.48-7.86-1.4-10.08-1.5-23.07-1.09-34 9.75-58.17 4.09 3.81 3.15 9.16 6.06 15.93 8.75-19.92 3.95-41-.64-56.42-9.54z"/><path class="cls-15" d="M107 136.86c10.12 0 18.34 6.91 18.34 15.43s-8.22 15.43-18.34 15.43-18.34-6.91-18.34-15.43 8.18-15.43 18.34-15.43z"/><path class="cls-16" d="M89.2 148.41c2.35 9.31 11.5 16.26 22.42 16.26a25 25 0 008.18-1.37 20.19 20.19 0 01-12.8 4.42c-10.12 0-18.34-6.91-18.34-15.43a13.21 13.21 0 01.54-3.88z"/><path class="cls-17" d="M101.74 148.24a15.26 15.26 0 00-4.89 1.28s-1.74-.23-.95-1.22c1-1.22 4.47-1.87 7.47-1.87a16.26 16.26 0 0112.51 6.39 1 1 0 010 1c-.76.92-2.15-1.23-3.64-2.45a14.32 14.32 0 00-8.45-3.18 3.36 3.36 0 01-.34.54c-1.37 1.92-2.56 4.6-.55 6.28a6.31 6.31 0 001.32.77c.77.42.43 2-1 1.29a4.85 4.85 0 01-2.86-3.52 7.24 7.24 0 011.38-5.31z"/><path class="cls-15" d="M272.92 136.86c-10.12 0-18.34 6.91-18.34 15.43s8.22 15.43 18.34 15.43 18.34-6.91 18.34-15.43-8.21-15.43-18.34-15.43z"/><path class="cls-16" d="M290.68 148.41c-2.35 9.31-11.5 16.26-22.41 16.26a25 25 0 01-8.19-1.37 20.19 20.19 0 0012.84 4.42c10.13 0 18.34-6.91 18.34-15.43a13.21 13.21 0 00-.58-3.88z"/><path class="cls-17" d="M276.28 148.19a14.65 14.65 0 00-10.72 5.24c-1.39 1.65-1.67.49-1.73 0-.11-.89 1.36-2.09 2.81-3.27a16 16 0 019.87-3.72h.24a17.38 17.38 0 016.8 1.57 1 1 0 01.57.56c.2.67-.28 1.31-1.35.83a14.88 14.88 0 00-4.55-1.16 12.55 12.55 0 011 2.3 5.13 5.13 0 01-1.12 5.66 9 9 0 01-1.72 1c-.57.22-.65 0-.86-.15-.43-.4-.25-1.09.47-1.42a3.45 3.45 0 002-2c.53-1.85-.63-3.84-1.61-5.08a2.44 2.44 0 01-.1-.36z"/><ellipse class="cls-18" cx="159.71" cy="132.87" rx="21.05" ry="17.6"/><path class="cls-19" d="M165.35 127.91a10.43 10.43 0 11-10.43 10.42 10.43 10.43 0 0110.43-10.42z"/><path class="cls-13" d="M163.21 132a3.51 3.51 0 11-3.51 3.5 3.5 3.5 0 013.51-3.5z"/><ellipse class="cls-18" cx="237.43" cy="132.87" rx="21.05" ry="17.6"/><path class="cls-19" d="M243.07 127.91a10.43 10.43 0 11-10.43 10.42 10.43 10.43 0 0110.43-10.42z"/><path class="cls-13" d="M240.93 132a3.51 3.51 0 11-3.51 3.5 3.5 3.5 0 013.51-3.5z"/><path class="cls-20" d="M152.31 155.69a1.81 1.81 0 11-1.8 1.81 1.81 1.81 0 011.8-1.81zm80.23.23a1.8 1.8 0 11-1.8 1.8 1.8 1.8 0 011.8-1.8zm-74.16 4.73a1.8 1.8 0 11-1.81 1.8 1.8 1.8 0 011.81-1.8zm80.23-.33a1.81 1.81 0 11-1.8 1.81 1.81 1.81 0 011.8-1.81z"/><circle class="cls-17" cx="163.81" cy="157.72" r="1.8" transform="rotate(-.22 161.175 153.967)"/><path class="cls-20" d="M244 156.15a1.8 1.8 0 11-1.8 1.8 1.8 1.8 0 011.8-1.8z"/><ellipse class="cls-17" cx="198.04" cy="163.28" rx="17.22" ry="15.31"/><ellipse class="cls-8" cx="195.29" cy="159.11" rx="17.22" ry="15.31"/><path d="M233.35 194.29a1.55 1.55 0 000-1.53A1.58 1.58 0 00232 192l-66.74-.5a1.57 1.57 0 00-1.38 2.33c14.96 26.4 55.12 26.93 69.47.46z" fill="#934826" fill-rule="evenodd"/><g clip-path="url(#clip-path-2)"><rect class="cls-18" x="182.57" y="185.56" width="14.93" height="11.39" rx="2.85"/><rect class="cls-18" x="199.64" y="185.56" width="14.93" height="11.39" rx="2.85"/><path d="M198.57 205.6c8.83 0 16 4.52 16 10.09s-7.17 10.09-16 10.09-16-4.52-16-10.09 7.17-10.09 16-10.09z" fill="#e5776d" fill-rule="evenodd"/></g><rect class="cls-24" x="212.88" y="309.81" width="15.04" height="4.88" rx="1.22"/><rect class="cls-24" x="149.96" y="309.81" width="15.04" height="4.88" rx="1.22"/><rect x="148.57" y="313.87" width="82.12" height="17.28" rx="4.32" fill="#616773"/><path class="cls-15" d="M172.31 327.16a2.91 2.91 0 110 5.81H170a2.84 2.84 0 01.35 1.39 2.9 2.9 0 01-2.9 2.91h-1.53a2.69 2.69 0 01.12.81 2.91 2.91 0 01-2.91 2.9h-1.62a2.91 2.91 0 01-2.91 2.91h-12c-5.12 0-10.87-2.44-13.44-5.25-3.22-3.54-4.41-11.41-2.16-16.41s10.95-11.05 15.7-13.58c3.81-2 10.75-1.79 12.83-1.63.87.06.71 3.13.11 3.76-1.15 1.23-7.08 2-8.81 3.91s-3.73 10.2-.13 12.47 21.61 0 21.61 0zm33.26 0a2.91 2.91 0 100 5.81h2.29a2.84 2.84 0 00-.35 1.39 2.9 2.9 0 002.9 2.91h1.53a2.69 2.69 0 00-.12.81 2.91 2.91 0 002.91 2.9h1.62a2.91 2.91 0 002.91 2.91h12c5.12 0 10.87-2.44 13.44-5.25 3.22-3.54 4.41-11.41 2.16-16.41s-11-11.05-15.7-13.58c-3.81-2-10.75-1.79-12.83-1.63-.87.06-.71 3.13-.11 3.76 1.15 1.23 7.08 2 8.81 3.91s3.73 10.2.13 12.47-21.59 0-21.59 0z"/><path d="M484.32 536.91a11.1 11.1 0 00-11.09-11.09H11.09a11.09 11.09 0 100 22.18h462.14a11.1 11.1 0 0011.09-11.09z" fill-rule="evenodd" opacity=".06"/><path fill="#d39542" d="M22.92 331.21h439.05v17.82H22.92z"/><path d="M118.27 349.03H75.89L22.92 536.91h17.66l77.69-187.88zm248.34 0h42.38l52.97 187.88h-17.65l-77.7-187.88z" fill="#d39542" fill-rule="evenodd"/><path d="M99.28 394.96l-32.11-15.01 8.72-30.92h42.38l-18.99 45.93zm286.33 0l32.1-15.01-8.72-30.92h-42.38l19 45.93z" fill="#bf8334" fill-rule="evenodd"/><path d="M294.31 178.37h192.42a6 6 0 016 6v122.9a6 6 0 01-6 6H294.31a6 6 0 01-6-6V184.36a6 6 0 016-5.99z" fill="#cbd2df"/><path d="M288.32 294.28c0 3.31 2.4 6 5.36 6h193.67c3 0 5.37-2.69 5.37-6v13c0 3.31-2.41 6-5.37 6H293.68c-3 0-5.36-2.69-5.36-6z" fill="#b8c1d3" fill-rule="evenodd"/><path class="cls-33" d="M369.25 226.41h42.53a1.73 1.73 0 011.73 1.73v35.36a1.72 1.72 0 01-1.72 1.72h-42.54a1.73 1.73 0 01-1.73-1.73v-35.36a1.72 1.72 0 011.73-1.72z"/><path class="cls-33" d="M380.61 228.13h19.82a1 1 0 011 1v97.51a1 1 0 01-1 1h-19.82a1 1 0 01-1-1V229.1a1 1 0 011-.97z"/><path class="cls-33" d="M344.09 323.93h92.85a.33.33 0 01.33.33v6.63a.33.33 0 01-.33.33h-92.85a.32.32 0 01-.32-.32v-6.63a.33.33 0 01.32-.34z"/><path d="M188.94 318a3.73 3.73 0 11-3.73 3.73 3.73 3.73 0 013.73-3.73z" fill="#828c9f" fill-rule="evenodd"/><path d="M284 392.29a24.18 24.18 0 01-11.26-2.89 38.54 38.54 0 01-14.24-13.75 40.85 40.85 0 01-6.36-18.79 1.34 1.34 0 010-.2c-6.48-2.54-14-6-22.37-10.31-21.21-10.89-41.23-23.71-41.43-23.84a1.16 1.16 0 111.26-1.95c.2.12 20.13 12.89 41.24 23.73 8 4.08 15.07 7.38 21.27 9.86.18-5.64 2.1-10.36 5.6-13.74 2.36-2.29 6.13-3.06 10.62-2.16a23.84 23.84 0 0111 5.56c5.16 4.75 5.91 10.44 2 15.22-3.05 3.74-9.76 4-20.5.71q-3-.9-6.33-2.16a39.06 39.06 0 005.95 16.83 36 36 0 0013.35 12.93 20.72 20.72 0 0017.07 1.4c7.89-2.87 13.32-9.15 16.6-19.21 4.11-12.61 4.91-31.71 2.36-56.77a1.16 1.16 0 112.31-.23c2.62 25.74 1.81 44.62-2.46 57.72-3.52 10.78-9.41 17.55-18 20.68a22.49 22.49 0 01-7.68 1.36zm-29.59-37.23c2.54 1 4.92 1.79 7.12 2.46 9.46 2.87 15.7 2.88 18 0 1.81-2.22 4-6.73-1.77-12-5.12-4.71-14.5-7.29-18.48-3.45s-4.88 8.93-4.89 12.99z" fill="#4b5059"/><path d="M315.28 305.44h-8.59v6a3.18 3.18 0 003.17 3.16h2.26a3.16 3.16 0 003.16-3.16z" fill="#4b5059" fill-rule="evenodd"/></g></g></svg>