<svg xmlns="http://www.w3.org/2000/svg" viewBox="0 0 198.78 234.21"><g data-name="Layer 2"><path d="M179 129.57a142.9 142.9 0 005-59.48l1.06.14a5.52 5.52 0 006-7c-5.69-19-17.12-32.31-34.89-40.59l1.46-1.68a5.51 5.51 0 00-2.17-8.75C128.71 1.78 102.38.28 77.16 7.69L75.51 3.5A5.51 5.51 0 0068.86.21C43.87 7.4 28.78 20.12 24 38a16.34 16.34 0 00-8.57 4.73C9.76 48.41 6 58.71 6.31 67.85a4.47 4.47 0 00.8 2.49 5.53 5.53 0 004.43 2.36h.71l-.15 1.48c-1.23 12-2.5 24.49 2.14 35.53a92 92 0 015.49 19.85C8.76 130.08 0 138 0 147.62c0 10 9.36 18.11 20.86 18.11a23.85 23.85 0 004.4-.41c.66 7.24 1.18 13.67 1.6 20a38.59 38.59 0 0025.07 33.55l36.38 13.48a30.55 30.55 0 0021 .05l37.3-13.59a38.57 38.57 0 0025.26-33.62c.43-6.28.94-12.67 1.59-19.85a23.52 23.52 0 004.44.42c11.5 0 20.86-8.13 20.86-18.11.02-9.65-8.76-17.59-19.76-18.08zm-1.07 29.16a16.43 16.43 0 01-6.21-1.21l-4.36-1.77-.44 4.68c-.86 9-1.49 16.71-2 24.26a31.56 31.56 0 01-20.67 27.51l-37.31 13.59a23.47 23.47 0 01-16.19 0l-36.39-13.51a31.61 31.61 0 01-20.52-27.46c-.5-7.55-1.14-15.3-2-24.37l-.45-4.68-4.39 1.76a16.46 16.46 0 01-6.18 1.2c-7.64 0-13.86-5-13.86-11.11s6.22-11.1 13.86-11.1H21c0 .23.08.46.13.69a4.15 4.15 0 004.12 3.37 4.21 4.21 0 004.11-3.42c.55-2.92 1-5.94 1.43-8.85 1.53-10.35 3-20.13 8.69-26.54a52.26 52.26 0 0011-20.26c15.81 7.9 34.83 10.62 51.75 7.28L114 86.5l-11-4.39-.18-.07a94.39 94.39 0 0016-2.63c6.8-1.54 13.83-3.12 22.74-2.71 1.61.08 5.81.65 7.67 1 10.76 13.81 7.7 20.34 7.33 21l-1.29 1.3 13.12 37.1a4.26 4.26 0 004 2.79 4.26 4.26 0 004-2.77c.07-.18.13-.37.2-.56.44 0 .88-.06 1.31-.06 7.64 0 13.86 5 13.86 11.1s-6.2 11.13-13.84 11.13z" fill="#1c1c1c" fill-rule="evenodd" data-name="Layer 1"/></g></svg>