<svg xmlns="http://www.w3.org/2000/svg" viewBox="0 0 627 640.36"><defs><clipPath id="clip-path"><path class="cls-1" d="M215.57 145.8c10.31 0 18.68 5.35 18.68 11.95s-8.37 11.95-18.68 11.95-18.68-5.36-18.68-11.95 8.37-11.95 18.68-11.95z"/></clipPath><clipPath id="clip-path-2"><path class="cls-1" d="M461 174.86c-3.85 6-13.55 12-23.11 12S418.84 181 415 175a108.82 108.82 0 0046-.14z"/></clipPath><clipPath id="clip-path-3"><path class="cls-1" d="M372.33 396.6a1.85 1.85 0 00-1.59-2.78l-53.59-.41a1.89 1.89 0 00-1.63.94 1.86 1.86 0 000 1.88c12.7 20.77 44.63 21.21 56.81.37z"/></clipPath><style>.cls-1{fill:none;clip-rule:evenodd}.cls-14,.cls-3{fill:#fdd3a1}.cls-11,.cls-12,.cls-15,.cls-17,.cls-19,.cls-20,.cls-21,.cls-23,.cls-27,.cls-3,.cls-4,.cls-5,.cls-7,.cls-9{fill-rule:evenodd}.cls-4{fill:#efc897}.cls-5,.cls-6{fill:#744a20}.cls-7{fill:#633e15}.cls-9{fill:#c61625}.cls-11,.cls-30{fill:#fff}.cls-12,.cls-22{fill:#272727}.cls-13,.cls-23{fill:#edc594}.cls-15{fill:#231f20}.cls-17{fill:#934826}.cls-19{fill:#478abf}.cls-21{fill:#3d7fb0}.cls-27{fill:#98c369}</style></defs><g id="Layer_2" data-name="Layer 2"><g id="Layer_1-2" data-name="Layer 1"><path d="M328.2 54.35C251.65 60 182 131.68 115.05 210.75 48.09 289.66-16 375.64 3.6 435.06c19.49 59.42 122.92 92.12 212.52 123.87 89.45 31.75 165.21 62.4 239.4 44.17s147-85.2 166.15-165.37c19.18-80.32-15.24-174-74.19-251-59.1-77.21-142.57-137.88-219.28-132.38z" fill="#cbd2df"/><path class="cls-3" d="M137.68 274.76s-25.35 44.89-31.19 84.39c-2.73 18.48-9.94 37.22-11.59 41.36a1.11 1.11 0 00.41 1.34l3.62 2.41a1.09 1.09 0 00.94.14 1.1 1.1 0 00.7-.65c1-2.51 3.17-7.91 3.17-7.91s-1.28 9.62-1.71 12.77a1 1 0 00.86 1.16l3.59.6a1 1 0 001.17-.76c.82-3.06 3.43-12.85 3.43-12.85v15.9a1.2 1.2 0 001.48 1.16l5-1.25a1.2 1.2 0 00.91-1.1c.18-3.67.87-17.46.87-17.46l2.6 14.71a1.06 1.06 0 001 .88h4.49a1.06 1.06 0 001.07-1c.17-5 .88-26.48.88-26.48 3.85-3.6 7.63 1.14 11.4 5a2.17 2.17 0 003 .11l4.38-3.75a.55.55 0 00.2-.45.58.58 0 00-.21-.45l-11.39-9.64-11.94-9.81a2.35 2.35 0 01-.87-1.89c.27-7 2.65-45.19 22.9-80.95.15-.29-9.17-5.53-9.17-5.53z"/><path class="cls-4" d="M128.23 293.41c5.31-11.33 9.45-18.65 9.45-18.65s9.3 5.28 9.17 5.5a166 166 0 00-10.91 23.52 34 34 0 01-7.71-10.37z"/><path class="cls-3" d="M294.1 274.76s25.35 44.89 31.19 84.39c2.73 18.48 9.93 37.22 11.58 41.36a1.1 1.1 0 01-.41 1.34l-3.62 2.41a1.08 1.08 0 01-.94.14 1.1 1.1 0 01-.7-.65c-1-2.51-3.16-7.91-3.16-7.91l1.7 12.77a1 1 0 01-.85 1.16l-3.59.6a1 1 0 01-1.17-.76c-.82-3.06-3.43-12.85-3.43-12.85v15.9a1.2 1.2 0 01-1.49 1.16l-5-1.25a1.18 1.18 0 01-.9-1.1c-.19-3.67-.88-17.46-.88-17.46l-2.59 14.71a1.07 1.07 0 01-1.05.88h-4.5a1.06 1.06 0 01-1.06-1c-.17-5-.89-26.48-.89-26.48-3.85-3.6-7.63 1.14-11.4 5a2.17 2.17 0 01-3 .11c-1.41-1.2-3.43-2.93-4.37-3.75a.59.59 0 01-.21-.45.62.62 0 01.21-.45l11.43-9.67 12-9.81a2.37 2.37 0 00.86-1.89c-.27-7-2.64-45.19-22.9-80.95-.16-.26 9.14-5.5 9.14-5.5z"/><path class="cls-4" d="M303.54 293.41c-5.31-11.33-9.44-18.65-9.44-18.65s-9.3 5.28-9.18 5.5a165 165 0 0110.92 23.52 34 34 0 007.7-10.37z"/><path class="cls-5" d="M188.34 399.93s-26.3-.16-26.3 0c-1.84 86.65 12.62 229.89 12.62 229.89s13.7.56 13.68 0c-6.07-187.82 0-229.89 0-229.89zm55.59 0s26.3-.16 26.3 0c1.84 86.65-12.62 229.89-12.62 229.89s-13.7.56-13.68 0c6.07-187.82 0-229.89 0-229.89z"/><ellipse class="cls-6" cx="216.19" cy="400.69" rx="54.23" ry="27.98"/><path class="cls-6" d="M161.98 372.71h108.41v27.15H161.98z"/><path class="cls-7" d="M269.89 354.57l.51.73v27c-8.75 13.07-29.82 22.29-54.39 22.29-24.24 0-45.07-9-54-21.76v-28l.08-.1.07-.1z"/><path d="M274.88 363.63c10.76 27.58-39 33.56-58.53 33.56s-69.7-6-58.93-33.56c14.25-36.52 11.58-93.47 11.58-93.47-4 3.68-7.05 9.53-9.34 16.89-.75 2.4-3.14 3.09-5.61 3.52-10.89 1.9-33.44-6.81-36.24-22.08a5.08 5.08 0 011-4.11c27.15-33.3 66.58-56 96.79-55.13h1c30.21-.92 69.64 21.83 96.82 55.11a5.08 5.08 0 011.07 4.14c-2.85 15.26-25.82 24.74-36.28 22.09-2.44-.62-4.88-1.13-5.63-3.53-2.28-7.37-5.28-13.22-9.32-16.9.07 0-2.63 56.95 11.62 93.47z" fill="#524a42" fill-rule="evenodd"/><path class="cls-9" d="M216.15 204.64c10.3 0 18.66 2.68 18.66 10.84s-8.36 14.8-18.66 14.8-18.66-6.63-18.66-14.8 8.36-10.84 18.66-10.84z"/><path class="cls-3" d="M228.93 175.59h-25.56v37.48c0 5.63 3.72 8.74 9.12 10.31a13.2 13.2 0 007.32 0c5.39-1.53 9.1-4.62 9.1-10.21.02-12.09.02-37.58.02-37.58z"/><path class="cls-4" d="M228.93 178.35h-25.56v21.1c0 3.17 3.72 4.93 9.12 5.81a23.34 23.34 0 007.32 0c5.39-.87 9.1-2.6 9.1-5.75.02-6.81.02-21.16.02-21.16z"/><path class="cls-3" d="M282.79 51.25a30.41 30.41 0 00-16.54-29.14c-34.77-17.62-68.34-17.22-100.83-.23a30.41 30.41 0 00-16.18 29c1.79 26.74 5.14 76.46 7 104A30.36 30.36 0 00176 181.24l31.52 11.67a23.39 23.39 0 0016.12 0l32.32-11.77a30.38 30.38 0 0019.89-26.48c1.82-27.37 5.15-76.61 6.94-103.41z"/><path class="cls-5" d="M201 72.52a1.67 1.67 0 011.92 1.63v4.14a1.66 1.66 0 01-1.45 1.64L163 84.79a1.71 1.71 0 01-1.22-.33 1.68 1.68 0 01-.63-1.11c0-.22 0-.45-.08-.67a1.64 1.64 0 011.29-1.82l31-6.71.49 2.35 1.1-.08-.18-2.57 1.53-.33.87 4.17 1.1-.08-.3-4.45 1.28-.28 1 5.55 1.09-.08zm35.32 1.63l31.06 6.71a1.66 1.66 0 011.29 1.82l-.09.67a1.67 1.67 0 01-.62 1.11 1.72 1.72 0 01-1.22.33l-38.45-4.86a1.66 1.66 0 01-1.44-1.64v-4.14a1.63 1.63 0 01.61-1.28 1.67 1.67 0 011.31-.35l-.41 5.83 1.1.08 1-5.55 1.29.28-.31 4.45 1.1.08.87-4.17 1.53.33-.18 2.57 1.1.08z"/><path class="cls-4" d="M158.62 164.51c15.11 11.77 35.32 19 57.5 19s42.34-7.18 57.45-18.93a30.38 30.38 0 01-17.57 16.6L223.71 193a23.36 23.36 0 01-16.11 0l-31.52-11.67a30.41 30.41 0 01-17.46-16.82z"/><path d="M212.86 95.46L233 135.25a2.77 2.77 0 01-.22 2.88 2.8 2.8 0 01-2.67 1.12l-20.67-3.08" fill="#ebc393" fill-rule="evenodd"/><path class="cls-3" d="M208.05 83.36l19.48 49a2.78 2.78 0 01-2.59 3.81h-16.89"/><path class="cls-11" d="M185.63 87c9.53 0 17.26 6.47 17.26 14.43s-7.73 14.43-17.26 14.43-17.26-6.47-17.26-14.43S176.11 87 185.63 87z"/><path class="cls-12" d="M185.63 92.85a8.55 8.55 0 11-8.55 8.55 8.55 8.55 0 018.55-8.55z"/><path class="cls-11" d="M183.88 96.21a2.88 2.88 0 11-2.88 2.88 2.87 2.87 0 012.88-2.88zM247.47 87c9.53 0 17.26 6.47 17.26 14.43s-7.73 14.43-17.26 14.43-17.26-6.47-17.26-14.43S237.94 87 247.47 87z"/><path class="cls-12" d="M247.47 92.85a8.55 8.55 0 11-8.55 8.55 8.55 8.55 0 018.55-8.55z"/><path class="cls-11" d="M245.71 96.21a2.88 2.88 0 11-2.87 2.88 2.88 2.88 0 012.87-2.88z"/><path class="cls-4" d="M265.5 61.49a6.32 6.32 0 00-3.6-2.49 19.94 19.94 0 00-3.51-.51c-18.11-.89-26.66 8-45.65 3.35a46.77 46.77 0 0012.5 7.16c-20 4.13-41.57-3.23-53.31-14.78a4.52 4.52 0 00-6.09-.33c-19.76 16.16-4.33 65.26-4.33 65.26l-6.86.32s-30.74-53-4.57-71.55c-4.28-.16 7.31-18 8.2-14.8 4.13-18 28.91-26.73 51.21-27.37 24.7-.7 42.43 4.27 55.14 12 31.5 19.12 17.64 83.49 14.86 101.73h-8.57C274.9 93 270.89 69 265.5 61.49z"/><path class="cls-5" d="M266.75 55.64a6.33 6.33 0 00-3.48-2.29 21.29 21.29 0 00-3.86-.57c-18.92-.89-27.86 8-47.7 3.35a49.37 49.37 0 0013.06 7.18c-21 4.15-43.63-3.3-55.86-14.94A4.54 4.54 0 00163 48c-21.09 15.93-4.81 65.5-4.81 65.5l-7.17.31s-32.12-53-4.78-71.55a75.65 75.65 0 01-9.57-1.1 58.33 58.33 0 0112.73-6.07c-3.47-3.13-9.47-5.83-9.47-5.83s3.79-1.21 10.37-.45a20.49 20.49 0 013.16-12.27 36.64 36.64 0 001.36 10.93C159.14 9.44 185 .7 208.32.07c25.8-.7 44.32 4.27 57.6 12 32.91 19.12 18.43 83.48 15.53 101.72h-8.95c4.18-26.64-.08-50.74-5.75-58.15z"/><path class="cls-3" d="M148 109.73c8.3 0 15 5.67 15 12.65S156.3 135 148 135s-15-5.66-15-12.65 6.7-12.62 15-12.62z"/><path class="cls-4" d="M133.45 119.21c1.92 7.63 9.42 13.32 18.37 13.32a20.49 20.49 0 006.71-1.12A16.54 16.54 0 01148 135c-8.3 0-15-5.66-15-12.65a10.5 10.5 0 01.45-3.14z"/><path class="cls-13" d="M145.06 117.29a13.8 13.8 0 0110.39 5.21c.66.84-.44 2.49-1.53 1.13a11.89 11.89 0 00-14.08-3.25s-2.15-.19-1.13-1.46 3.88-1.63 6.35-1.63z"/><path class="cls-13" d="M144.76 118c1.11.08.6 1.2-.23 3.12a3.52 3.52 0 00-.16.39 2.77 2.77 0 001.45 3.48s.75.53.53 1.17c-.55 1.63-3.79-.68-4.09-2.71a6.73 6.73 0 011.74-5.12.82.82 0 01.76-.33z"/><ellipse class="cls-14" cx="284.07" cy="122.38" rx="15.04" ry="12.65"/><path class="cls-4" d="M298.63 119.21c-1.93 7.63-9.43 13.32-18.38 13.32a20.58 20.58 0 01-6.71-1.12 16.56 16.56 0 0010.53 3.59c8.3 0 15-5.66 15-12.65a10.82 10.82 0 00-.44-3.14z"/><path class="cls-13" d="M287.21 117.29a14.68 14.68 0 015.81 1.37 1.18 1.18 0 01.55.89c0 .7-.78 1.07-1.65.69a11.75 11.75 0 00-13.84 3.48c-.66.87-2.66.18-1.19-1.53a13.4 13.4 0 0110.32-4.9z"/><path class="cls-13" d="M287.42 118c.88.07 1.38 1.27 1.83 2.29a4.75 4.75 0 01-2.25 6.44 1.19 1.19 0 01-.79 0c-.69-.33-.69-1.37.27-1.83 1.82-.88 1.59-3.38.11-5.39 0-.04-.23-1.51.83-1.51z"/><path class="cls-15" d="M173.46 620.2c-2.6-.91-39.33 6.85-38.76 12.31a8.42 8.42 0 006.42 7.34c5.65 1.07 17 .31 22.93-.91 3.66-.75 12.84-4.59 12.84-4.59l6.11 1.75a1.26 1.26 0 00.61 0l6-1.5a1.15 1.15 0 00.86-1.34l-2.52-13.5zm85.26 0c2.59-.91 39.32 6.85 38.76 12.31a8.45 8.45 0 01-6.42 7.34c-5.66 1.07-17 .31-22.94-.91-3.65-.75-12.84-4.59-12.84-4.59l-6.12 1.75a1.22 1.22 0 01-.6 0l-6-1.5a1.16 1.16 0 01-.86-1.34l2.53-13.5z"/><path d="M194.31 152.35c1.52.13 2.61 1.19 3.6 2.48 5.5 7.07 13.76 12.87 22.09 10.47 5.94-1.71 10.37-6.56 13.89-11.37 0 0 2.34-2.19 4.55-1.32a4 4 0 011.6 6.11c-.13.19-.27.38-.41.56-6.75 9-16.88 16.74-29.09 13.69-8.17-2-15.09-8-19.62-14.49a4.82 4.82 0 01-.64-2.95 4 4 0 013.27-3.15 2.59 2.59 0 01.76-.03z" fill="#e1a68b"/><path class="cls-17" d="M215.57 145.8c10.31 0 18.68 5.35 18.68 11.95s-8.37 11.95-18.68 11.95-18.68-5.36-18.68-11.95 8.37-11.95 18.68-11.95z"/><g clip-path="url(#clip-path)"><path class="cls-11" d="M233.58 158a29.74 29.74 0 01-1.16 6.39 24.52 24.52 0 01-34.1 0 29.74 29.74 0 01-1.16-6.39z"/></g><path class="cls-5" d="M211.64 143c-8.85-2.47-22.47 8.95-29.39 9.2-5.11.19-12.12-7.67-12.12-7.67s4 13.91 10.94 16.57c7.24 2.76 27.36 3 32.46 0s6.96-15.62-1.89-18.1z"/><path class="cls-5" d="M220.39 143c8.85-2.47 22.47 8.95 29.39 9.2 5.11.19 12.12-7.67 12.12-7.67s-4 13.91-10.95 16.57c-7.23 2.76-27.35 3-32.45 0s-6.96-15.62 1.89-18.1z"/><path class="cls-19" d="M388.57 412.85c5.05 37.27 11 57.24 17.84 85.49-8.74 38.35 1.35 90.21 6.86 134.25l8.77-.32c4.58-43.84 8.69-100.76 8.42-144.91 2.05-18.75 4-72.06 4.16-72z"/><path class="cls-20" d="M408.2 635v-.14c0-3.07 3.91-5.55 8.73-5.55s8.73 2.48 8.73 5.55v5.54H408.2z"/><path class="cls-21" d="M395.62 453.57c-2.52-11.71-4.87-24.6-7.05-40.72l46.05 2.49c-.1 0-1.05 24.79-2.29 46.52a59.22 59.22 0 01-7 .41 52.78 52.78 0 01-29.71-8.7z"/><path class="cls-19" d="M485.8 412.85c-5.05 37.27-11 57.24-17.84 85.49 8.74 38.35-1.35 90.21-6.86 134.25l-8.77-.32c-4.58-43.84-8.69-100.76-8.42-144.91-2.05-18.75-4-72.06-4.16-72z"/><path class="cls-20" d="M466.17 635v-.14c0-3.07-3.91-5.55-8.73-5.55s-8.73 2.48-8.73 5.55v5.54h17.46z"/><path class="cls-21" d="M478.75 453.57c2.52-11.71 4.86-24.6 7.05-40.72l-46.05 2.49c.1 0 1.05 24.79 2.29 46.52a59.09 59.09 0 007 .41 52.78 52.78 0 0029.71-8.7z"/><path class="cls-9" d="M474.86 173a41.21 41.21 0 018-16.93 39.54 39.54 0 1137.65-15.31 41.33 41.33 0 019.11 79.73 42.23 42.23 0 01.54 6.69 41.32 41.32 0 01-64.8 34h-87.63v-.38A38.14 38.14 0 01347 210.87a38.12 38.12 0 019.56-70.87 38.11 38.11 0 1142.35 20.18A37.85 37.85 0 01402.7 173z"/><path class="cls-14" d="M410.06 235.59c5.22.35 9.12 6.76 6 11.56a7.67 7.67 0 01-1.86 1.95 6.88 6.88 0 01-.76.48c-21.13 11.74-42.31 23.68-61.21 38.55-2.12 1.66-4.19 3.39-6.19 5.19 0 0-3.07 2.37-6.29 1.81a7.76 7.76 0 01-6-9.08c.86-3.6 4.57-5.92 7.8-8.52 11.37-9.16 23.77-17 36.31-24.63 9-5.47 18.15-10.71 27.36-15.85l1-.53a8.31 8.31 0 013.84-.93zm54.39-.01c2.13.25 4 1.48 5.92 2.54 20.74 11.62 41.46 23.5 60 38.05 2.32 1.82 4.6 3.7 6.8 5.66 0 0 3.1 2.89 2.86 6.43-.39 5.51-7.86 9.16-12.64 4.87l-.54-.49c-13.11-11.58-28-20.55-43-29.47q-11.28-6.72-22.76-13.09l-.95-.52a8.9 8.9 0 01-.76-.49c-3.83-2.78-4-9.5.29-12.29a7.82 7.82 0 014.78-1.2z"/><path class="cls-3" d="M449.93 199.49h-23.64v34.65c0 5.21 3.45 8.09 8.44 9.54a12.27 12.27 0 006.77 0c5-1.42 8.41-4.27 8.41-9.45.02-11.17.02-34.74.02-34.74z"/><path class="cls-4" d="M449.93 202h-23.64v19.52c0 2.93 3.45 4.56 8.44 5.37a21.36 21.36 0 006.77 0c5-.8 8.41-2.41 8.41-5.32.02-6.26.02-19.57.02-19.57z"/><path class="cls-3" d="M494.06 95.86a28.11 28.11 0 00-15.3-26.95c-32.14-16.29-51.84-15.91-81.88-.21a28.11 28.11 0 00-15 26.77c.08 1.22.16 2.49.25 3.8 1.7 25.41-1.1 56.8.53 81A28.08 28.08 0 00401 204.71l29.15 10.79a21.57 21.57 0 0014.9 0l29.89-10.89a28.06 28.06 0 0018.39-24.49c1.67-25.29-.94-59.48.73-84.26z"/><path class="cls-4" d="M384.92 189.24c14 10.88 32.66 17.54 53.17 17.54s39.15-6.64 53.12-17.5A28.11 28.11 0 01475 204.65l-29.88 10.89a21.57 21.57 0 01-14.9 0l-29.15-10.79a28.07 28.07 0 01-16.15-15.51z"/><path class="cls-11" d="M409.89 117.54c8.81 0 16 6 16 13.34s-7.16 13.35-16 13.35-16-6-16-13.35 7.19-13.34 16-13.34z"/><circle class="cls-22" cx="409.89" cy="129.25" r="7.9" transform="rotate(-89.86 409.874 129.253)"/><path class="cls-11" d="M408.27 124.45a2.66 2.66 0 11-2.66 2.66 2.66 2.66 0 012.66-2.66zm56.52-6.91c8.81 0 16 6 16 13.34s-7.15 13.35-16 13.35-16-6-16-13.35 7.21-13.34 16-13.34z"/><path class="cls-12" d="M464.79 121.34a7.91 7.91 0 11-7.9 7.91 7.91 7.91 0 017.9-7.91z"/><path class="cls-11" d="M463.17 124.45a2.66 2.66 0 11-2.66 2.66 2.66 2.66 0 012.66-2.66z"/><path class="cls-3" d="M375.1 138.59c7.67 0 13.9 5.24 13.9 11.69S382.77 162 375.1 162s-13.91-5.24-13.91-11.7 6.23-11.71 13.91-11.71z"/><path class="cls-4" d="M361.64 147.35c1.78 7.05 8.71 12.32 17 12.32a18.85 18.85 0 006.2-1 15.27 15.27 0 01-9.74 3.33c-7.68 0-13.91-5.24-13.91-11.7a9.91 9.91 0 01.45-2.95z"/><path class="cls-13" d="M372.38 145.5a12.77 12.77 0 019.75 5 1.18 1.18 0 01.12 1c-.3.64-1.18.69-1.78 0a11 11 0 00-12.9-2.93s-.86.19-1.2-.38c-.61-1 1.44-1.88 3.08-2.27a12.56 12.56 0 012.93-.42z"/><path class="cls-13" d="M372.12 146.14c1.17.12.21 1.53-.4 3.6a2.43 2.43 0 001.43 2.89s1.1 1.49-.21 1.77-2.86-1.46-3.17-2.88a5.36 5.36 0 011.71-5.19.83.83 0 01.64-.19z"/><path class="cls-3" d="M500.92 138.59c-7.67 0-13.9 5.24-13.9 11.69s6.23 11.7 13.9 11.7 13.91-5.24 13.91-11.7-6.23-11.69-13.91-11.69z"/><path class="cls-4" d="M514.38 147.35c-1.78 7.05-8.71 12.32-17 12.32a18.85 18.85 0 01-6.2-1 15.27 15.27 0 009.73 3.35c7.68 0 13.91-5.24 13.91-11.7a9.91 9.91 0 00-.44-2.97z"/><path class="cls-13" d="M503.82 145.5a13.83 13.83 0 015.4 1.27s1.16 1.21 0 1.73c-.59.26-1.27-.24-2-.49a10.63 10.63 0 00-11.82 3.62 1.19 1.19 0 01-1 .36c-.75-.16-.95-1.07-.12-2a12.78 12.78 0 019.54-4.49z"/><path class="cls-13" d="M504 146.14c.85.05 1.34 1.18 1.78 2.16a4.49 4.49 0 01-2.12 6s-1.56 0-1.3-1.1 2.19-1.12 2.08-2.74a5.32 5.32 0 00-1.21-2.83 1 1 0 01.77-1.49z"/><path class="cls-4" d="M394.47 127.14c1.81-5.7 8-9.9 15.42-9.9 6.92 0 12.82 3.69 15 8.83-2.52-.08-5.09-.13-7.69-.13a210.7 210.7 0 00-22.73 1.2zm85.83 0c-1.81-5.7-8-9.9-15.42-9.9-6.92 0-12.81 3.69-15 8.83 2.52-.08 5.09-.13 7.69-.13a210.56 210.56 0 0122.73 1.2z"/><path class="cls-9" d="M440 36.62a23.55 23.55 0 0138.64 14.27 26.09 26.09 0 015.56-.6 25.62 25.62 0 11-25.6 27.48 23.81 23.81 0 01-3.29.23 23.33 23.33 0 01-10.18-2.32 26.16 26.16 0 01-2.75 2.82 22.24 22.24 0 01-28.07 19.58 23.05 23.05 0 01.27 3.45 22.22 22.22 0 11-43.3-7 29.83 29.83 0 0130.13-49A26.68 26.68 0 01440 36.62z"/><path class="cls-23" d="M438 144.23c6.54 0 11.85 4.72 11.85 10.53s-5.31 10.53-11.85 10.53-11.85-4.72-11.85-10.53 5.29-10.53 11.85-10.53z"/><path class="cls-3" d="M438.17 141.12c9.06 0 16.42 4.72 16.42 10.53s-7.36 10.53-16.42 10.53-16.42-4.72-16.42-10.53 7.36-10.53 16.42-10.53z"/><path d="M462 174a25.06 25.06 0 01-48.19 0c6.84.25 9.1-.6 15.88-1.84 3.07-.55 6 .92 8.32.89s5.36-1.53 7.74-1c7.16 1.63 9.57 2.05 16.25 1.95z" fill="#eb4a42" fill-rule="evenodd"/><path d="M461 174.86c-3.85 6-13.55 12-23.11 12S418.84 181 415 175a108.82 108.82 0 0046-.14z" fill="#4c0900" fill-rule="evenodd"/><g clip-path="url(#clip-path-2)"><path class="cls-11" d="M456.11 174.86a29.74 29.74 0 01-1.16 6.39 24.52 24.52 0 01-34.1 0 29.74 29.74 0 01-1.16-6.39z"/></g><path class="cls-27" d="M384.08 279.47c-1.36-11.2-.61-49.26 52.73-49.26s54.44 38.74 52.73 49.26c-.74 4.55-1.21 8.93-3.34 12.66-2.44 25.25-11.46 49.8-10.77 55.15 4.55 35.45 23.35 54.76 15.63 86.41-1.69 6.93-31 11.18-54.25 11.18s-52.56-4.25-54.25-11.18c-7.73-31.65 11.07-51 15.63-86.41.69-5.37-8.41-29.95-10.81-55.21-2.1-3.71-2.75-8.07-3.3-12.6z"/><path d="M407.56 250.38a27 27 0 11-26.74 27 26.88 26.88 0 0126.74-27zm58.5 0a27 27 0 11-26.74 27 26.88 26.88 0 0126.74-27z" fill="#8bb55b" fill-rule="evenodd"/><path class="cls-27" d="M407.56 246.41a27 27 0 11-26.74 27 26.89 26.89 0 0126.74-27zm58.5 0a27 27 0 11-26.74 27 26.88 26.88 0 0126.74-27z"/><path class="cls-3" d="M408.53 235.12c7.21-3 16.45-4.91 28.28-4.91 12.22 0 21.7 2 29 5.3l-28.48 31.06zm-27.14 125.53c-2-4.34 1.89-7.2 3.35-6.58a3.1 3.1 0 002.78-.19l7.41-4.33s1.49-.8 3.17-1.75c-.17 1.51-.89 4.91.36 6.07 2.47 2.29 10.76 6.14 14.46 7.65a1.4 1.4 0 01.79 1.8c-.15.42-.32.88-.47 1.28a1.41 1.41 0 01-1.58.9l-8.34-1.5 9.23 3.95a1.58 1.58 0 01.95 1.62c-.05.43-.1.93-.16 1.41a1.58 1.58 0 01-2.11 1.31l-8.08-3 6.08 4.29a1.36 1.36 0 01.4 1.79l-.42.74a1.36 1.36 0 01-1.82.53l-6.32-3.35 3.14 2.84a1.45 1.45 0 01-.12 2.26l-.86.62a1.44 1.44 0 01-1.83-.1c-2.73-2.41-15.54-8.57-20.01-18.26zm110.83-.03c2-4.34-1.9-7.2-3.35-6.58a3.1 3.1 0 01-2.78-.19l-7.41-4.33s-1.49-.8-3.17-1.75c.17 1.51.89 4.91-.36 6.07-2.48 2.29-10.76 6.14-14.47 7.66a1.41 1.41 0 00-.79 1.79c.16.42.33.88.48 1.29a1.4 1.4 0 001.57.89l8.35-1.51-9.23 4a1.57 1.57 0 00-.95 1.62c.05.43.1.93.16 1.41a1.57 1.57 0 002.11 1.31l8.08-3-6.09 4.29a1.38 1.38 0 00-.39 1.8l.42.73a1.36 1.36 0 001.82.53l6.32-3.35-3.14 2.84a1.45 1.45 0 00.12 2.26l.85.62a1.45 1.45 0 001.84-.1c2.73-2.45 15.54-8.61 20.01-18.3z"/><path class="cls-14" d="M341.6 280.31a7.92 7.92 0 015.72 3.17l48.05 68.42c3.16 4.79-.72 12.42-6.95 11.72a7.56 7.56 0 01-4.71-2.43 6.36 6.36 0 01-.56-.7l-48.06-68.42a8.81 8.81 0 01-.47-.77c-2.24-4.19.62-10.28 5.63-10.93a6.49 6.49 0 011.35-.06zm191.31-.02a6.46 6.46 0 013 .87 7.72 7.72 0 013.09 10.11 6.17 6.17 0 01-.48.77l-48.05 68.42C487 365 478.53 364 477.08 357.9a7.56 7.56 0 01.68-5.26 8.81 8.81 0 01.47-.77l48.06-68.42a7.91 7.91 0 016.62-3.16z"/><path class="cls-3" d="M303.08 483.8s-13.38 23.7-16.46 44.55a107.53 107.53 0 01-6 21.44 1.09 1.09 0 00.41 1.33l1 .68a1.1 1.1 0 001 .14 1.13 1.13 0 00.7-.65l1.43-3.57s-.58 4.28-.84 6.27a1 1 0 00.85 1.16l1 .16a1 1 0 001.16-.75l1.7-6.36v7.67a1.2 1.2 0 001.49 1.16l1.52-.38a1.21 1.21 0 00.91-1.1l.44-8.8s.92 5.23 1.29 7.35a1.07 1.07 0 001.06.88h1.46a1.06 1.06 0 001.06-1l.45-13.49c1.81-1.69 3.58.09 5.34 1.93a2.18 2.18 0 003 .14l1.32-1.14a.57.57 0 00.21-.45.6.6 0 00-.21-.45l-5.76-4.88-5.87-4.82a2.37 2.37 0 01-.87-1.92c.24-4.87 1.83-24.09 12.06-42.16.07-.15-4.85-2.94-4.85-2.94z"/><path class="cls-4" d="M298.09 493.65c2.81-6 5-9.85 5-9.85s4.91 2.79 4.84 2.91a88.56 88.56 0 00-5.76 12.41 18 18 0 01-4.08-5.47z"/><path class="cls-3" d="M385.65 483.8s13.38 23.7 16.46 44.55a107.53 107.53 0 006 21.44 1.1 1.1 0 01-.41 1.33c-.31.21-.68.46-1 .68a1.08 1.08 0 01-.94.14 1.13 1.13 0 01-.7-.65l-1.43-3.57s.57 4.28.84 6.27a1.05 1.05 0 01-.86 1.16l-1 .16a1 1 0 01-1.17-.75l-1.69-6.36v7.67a1.2 1.2 0 01-1.55 1.13l-1.52-.38a1.21 1.21 0 01-.91-1.1l-.44-8.8s-.92 5.23-1.3 7.35a1.06 1.06 0 01-1 .88h-1.46a1.07 1.07 0 01-1.07-1c-.11-3.32-.44-13.49-.44-13.49-1.81-1.69-3.58.09-5.35 1.93a2.17 2.17 0 01-3 .14l-1.33-1.14a.59.59 0 01-.2-.45.6.6 0 01.21-.45l5.76-4.88 5.87-4.82a2.4 2.4 0 00.87-1.92c-.24-4.87-1.83-24.09-12.06-42.16-.09-.12 4.82-2.91 4.82-2.91z"/><path class="cls-4" d="M390.63 493.65c-2.8-6-5-9.85-5-9.85s-4.91 2.79-4.84 2.91a88.56 88.56 0 015.76 12.41 17.79 17.79 0 004.08-5.47z"/><path class="cls-5" d="M329.82 549.91s-13.88-.06-13.88 0c-1 31.82 6.66 84.42 6.66 84.42s7.23.2 7.22 0c-3.2-68.98 0-84.42 0-84.42zm29.35 0s13.88-.06 13.88 0c1 31.82-6.66 84.42-6.66 84.42s-7.23.2-7.22 0c3.2-68.98 0-84.42 0-84.42z"/><path class="cls-5" d="M344.52 539.92c15.8 0 28.63 4.6 28.63 10.27s-12.83 10.27-28.63 10.27-28.62-4.6-28.62-10.27 12.83-10.27 28.62-10.27z"/><path class="cls-6" d="M315.91 525.93h57.22v23.96h-57.22z"/><path class="cls-7" d="M372.87 525.93l.27.39v14.24c-4.62 6.89-15.74 11.76-28.71 11.76-12.8 0-23.79-4.73-28.52-11.48v-14.95z"/><path class="cls-11" d="M375.5 530.71c5.68 14.56-20.56 17.72-30.89 17.72s-36.79-3.16-31.11-17.72c7.52-19.27 6.1-49.33 6.1-49.33-2.14 1.94-3.72 5-4.93 8.91-.4 1.27-1.66 1.63-3 1.86-5.75 1-17.65-3.6-19.13-11.65a2.65 2.65 0 01.56-2.17c14.33-17.58 35.14-29.59 51.08-29.1h.56c15.94-.49 36.76 11.52 51.11 29.08a2.75 2.75 0 01.56 2.19c-1.51 8.05-13.63 13.06-19.15 11.66-1.29-.33-2.58-.6-3-1.86-1.19-3.89-2.78-7-4.91-8.92.06 0-1.35 30.06 6.15 49.33z"/><path class="cls-9" d="M344.5 446.79c5.44 0 9.85 1.41 9.85 5.73s-4.41 7.81-9.85 7.81-9.85-3.5-9.85-7.81 4.41-5.73 9.85-5.73z"/><path class="cls-3" d="M351.25 431.46h-13.49v19.78c0 3 2 4.62 4.81 5.44a7 7 0 003.87 0c2.84-.81 4.8-2.44 4.8-5.39.01-6.38.01-19.83.01-19.83z"/><path class="cls-4" d="M351.25 432.91h-13.49v11.15c0 1.67 2 2.59 4.81 3.06a12.25 12.25 0 003.87 0c2.84-.45 4.8-1.37 4.8-3 .01-3.63.01-11.21.01-11.21z"/><path class="cls-3" d="M412.16 322a30.86 30.86 0 00-16.78-29.57c-35.27-17.86-69.33-17.46-102.28-.23a30.85 30.85 0 00-16.42 29.37c1.82 27.12 5.21 50.28 7.09 78.2a30.79 30.79 0 0020 26.8l32 11.85a23.69 23.69 0 0016.35 0l32.78-11.94a30.81 30.81 0 0020.18-26.87c1.92-27.75 5.25-50.43 7.08-77.61z"/><path class="cls-3" d="M412.16 322a30.86 30.86 0 00-16.78-29.57c-35.27-17.86-69.33-17.46-102.28-.23a30.85 30.85 0 00-16.42 29.37c1.82 27.12 5.21 50.28 7.09 78.2a30.79 30.79 0 0020 26.8l32 11.85a23.69 23.69 0 0016.35 0l32.78-11.94a30.81 30.81 0 0020.18-26.87c1.92-27.75 5.25-50.43 7.08-77.61z"/><path class="cls-4" d="M286.2 409.61c15.33 11.94 35.83 19.24 58.33 19.24s43-7.28 58.27-19.2a30.78 30.78 0 01-17.8 16.87l-32.78 11.94a23.69 23.69 0 01-16.35 0l-32-11.85a30.76 30.76 0 01-17.67-17zm14.88-100.4a44.14 44.14 0 01-9.65 20.33c-7.52 8.76-7.18 22.25-9.86 34.6-1.8-8.18-2.39-16.33-6.63-26.76s-.75-59.19 7.9-58.92c3.22-15.92 104.9-15.3 104.9-15.3 15.21 6.26 25 37 25 37a117.93 117.93 0 01-6.35 61.36c-1.94.67-5.88-45.17-18-53.78s-35.37 6.86-54.81 2.15a48 48 0 0012.8 7.28c-13.33 2.73-27.32.52-38.78-4.58a59.54 59.54 0 01-6.52-3.38z"/><path class="cls-5" d="M299.52 304.21a43.56 43.56 0 01-10 20.33c-7.8 8.76-7.44 22.25-10.21 34.6-1.87-8.18-2.49-16.33-6.87-26.76s-2.3-22.39-1.2-34.36l-4-.07a1.76 1.76 0 01-1.46-.82c-.32-.51-.13-1.08-.12-1.68.19-9.68 6-22.26 14.92-22 3.33-15.92 16.06-26.92 37.83-33.17a1.78 1.78 0 012.14 1.05l2.49 6.34c22-7.14 45.16-6.43 69.53 3a1.74 1.74 0 011.07 1.23 1.77 1.77 0 01-.38 1.59l-4 4.64c15.75 6.25 27.36 17.27 32.79 35.39a1.76 1.76 0 01-.35 1.66 1.78 1.78 0 01-1.58.6l-5-.66a114.26 114.26 0 01-6.57 61.36l-11.53-30.76s5.59-7.19-7.14-23a51.85 51.85 0 00-8.37-1.25c-19.2-.9-28.26 8.1-48.39 3.4a50 50 0 0013.25 7.28c-16.5 3.28-34.03-.54-46.85-7.94z"/><path class="cls-3" d="M275.43 354c8.42 0 15.25 5.75 15.25 12.83s-6.83 12.84-15.25 12.84-15.25-5.75-15.25-12.84S267 354 275.43 354z"/><path class="cls-4" d="M260.66 363.65c1.95 7.74 9.56 13.52 18.64 13.52a20.62 20.62 0 006.81-1.14 16.79 16.79 0 01-10.68 3.68c-8.42 0-15.25-5.75-15.25-12.84a10.82 10.82 0 01.48-3.22z"/><path class="cls-13" d="M282.33 368.39a.65.65 0 01-.53-.27c-.24-.33-5.73-7.66-14.78-3.55a.66.66 0 01-.87-.33.65.65 0 01.33-.87c10-4.57 16.33 3.89 16.39 4a.66.66 0 01-.15.92.69.69 0 01-.39.1z"/><path class="cls-13" d="M272.84 371a.8.8 0 01-.26-.05 4.09 4.09 0 01-2.6-2.72c-.63-2.48 1.5-5.2 1.59-5.31a.66.66 0 111 .82s-1.81 2.33-1.34 4.17a2.77 2.77 0 001.84 1.82.66.66 0 01-.26 1.27z"/><path class="cls-3" d="M413.46 354c-8.42 0-15.25 5.75-15.25 12.83s6.83 12.84 15.25 12.84 15.25-5.75 15.25-12.84S421.88 354 413.46 354z"/><path class="cls-4" d="M428.23 363.65c-2 7.74-9.57 13.52-18.64 13.52a20.57 20.57 0 01-6.81-1.14 16.79 16.79 0 0010.68 3.68c8.42 0 15.25-5.75 15.25-12.84a11.15 11.15 0 00-.48-3.22z"/><path class="cls-13" d="M406.55 368.39a.65.65 0 01-.53-1c.06-.09 6.34-8.55 16.39-4a.66.66 0 11-.54 1.2c-9.08-4.13-14.73 3.47-14.78 3.55a.65.65 0 01-.54.25z"/><path class="cls-13" d="M416.05 371a.66.66 0 01-.26-1.27 2.79 2.79 0 001.84-1.82c.47-1.84-1.33-4.15-1.35-4.17a.67.67 0 01.11-.93.65.65 0 01.92.11c.1.11 2.23 2.83 1.6 5.31a4.11 4.11 0 01-2.61 2.77.74.74 0 01-.25 0z"/><path class="cls-15" d="M322 629.72c-1.37-.48-20.76 3.61-20.46 6.5a4.43 4.43 0 003.39 3.87c3 .57 9 .16 12.1-.48a60.92 60.92 0 006.78-2.42l3.09.88a1.11 1.11 0 00.6 0l2.51-.63a1.15 1.15 0 00.86-1.34c-.39-2.12-1.23-6.62-1.23-6.62zm45 0c1.37-.48 20.76 3.61 20.46 6.5a4.45 4.45 0 01-3.39 3.87c-3 .57-9 .16-12.1-.48a60.92 60.92 0 01-6.78-2.42l-3.09.88a1.11 1.11 0 01-.6 0l-2.51-.63a1.15 1.15 0 01-.86-1.34c.39-2.12 1.23-6.62 1.23-6.62z"/><path class="cls-11" d="M311.69 331c9.66 0 17.51 6.56 17.51 14.64s-7.85 14.64-17.51 14.64-17.51-6.56-17.51-14.64S302 331 311.69 331z"/><circle class="cls-22" cx="311.69" cy="345.59" r="8.67" transform="rotate(-76.72 311.671 345.588)"/><path class="cls-11" d="M309.91 340.32a2.92 2.92 0 11-2.92 2.92 2.92 2.92 0 012.92-2.92zm66.42-9.32c9.66 0 17.51 6.56 17.51 14.64s-7.85 14.64-17.51 14.64-17.51-6.56-17.51-14.64S366.66 331 376.33 331z"/><path class="cls-12" d="M376.33 336.92a8.67 8.67 0 11-8.67 8.67 8.67 8.67 0 018.67-8.67z"/><path class="cls-11" d="M374.55 340.32a2.92 2.92 0 11-2.92 2.92 2.91 2.91 0 012.92-2.92z"/><path class="cls-23" d="M305.53 364.57a1.5 1.5 0 11-1.5 1.5 1.5 1.5 0 011.5-1.5zm66.73.19a1.5 1.5 0 11-1.5 1.5 1.5 1.5 0 011.5-1.5zm-61.68 3.93a1.5 1.5 0 11-1.5 1.5 1.5 1.5 0 011.5-1.5zm66.73-.27a1.5 1.5 0 11-1.5 1.5 1.5 1.5 0 011.5-1.5zm-62.21-3.66a1.5 1.5 0 11-1.5 1.5 1.5 1.5 0 011.5-1.5zm66.73.18a1.5 1.5 0 11-1.5 1.5 1.5 1.5 0 011.5-1.5zm-38.26-6.79c7.91 0 14.32 5.7 14.32 12.73s-6.41 12.73-14.32 12.73-14.32-5.71-14.32-12.73 6.42-12.73 14.32-12.73z"/><path class="cls-3" d="M341.28 354.67c7.91 0 14.32 5.71 14.32 12.74s-6.41 12.73-14.32 12.73S327 374.43 327 367.41s6.37-12.74 14.28-12.74z"/><path class="cls-17" d="M372.33 396.6a1.85 1.85 0 00-1.59-2.78l-53.59-.41a1.89 1.89 0 00-1.63.94 1.86 1.86 0 000 1.88c12.7 20.77 44.63 21.21 56.81.37z"/><g clip-path="url(#clip-path-3)"><rect class="cls-30" x="330.59" y="388.48" width="12.42" height="9.48" rx="2.37"/><rect class="cls-30" x="344.78" y="388.48" width="12.42" height="9.48" rx="2.37"/><path d="M343.89 405.14c7.34 0 13.31 3.76 13.31 8.39s-6 8.39-13.31 8.39-13.3-3.76-13.3-8.39 5.96-8.39 13.3-8.39z" fill="#e5776d" fill-rule="evenodd"/></g></g></g></svg>