<svg id="Layer_1" data-name="Layer 1" xmlns="http://www.w3.org/2000/svg" viewBox="0 0 1200 1200"><defs><style>.cls-1,.cls-16{fill:#2c5fb9}.cls-18,.cls-2{fill:#92b0e5}.cls-3{fill:#d2def4}.cls-10,.cls-4{fill:#1d3e79}.cls-13,.cls-5{fill:#de1717}.cls-6{fill:#fad2d2}.cls-14,.cls-7{fill:#a41111}.cls-8{fill:#f17676}.cls-10,.cls-13,.cls-14,.cls-15,.cls-16,.cls-18{fill-rule:evenodd}.cls-11{fill:#c20016}.cls-12,.cls-15{fill:#fff}</style></defs><path class="cls-1" d="M672.57 604.43s-1.68 6.74-8.43 6.74-8.43-6.74-8.43-6.74-18.55 3.35-18.55 21.92h54c0-18.51-18.55-21.92-18.55-21.92"/><path class="cls-2" d="M664.14 614.55c-8.43 0-8.43-10.12-8.43-10.12v-10.12h16.86v10.12s0 10.12-8.43 10.12zM652.34 584.2a3.38 3.38 0 10-3.37 3.37 3.37 3.37 0 003.37-3.37m30.35 0a3.38 3.38 0 11-3.37-3.38 3.37 3.37 0 013.37 3.38"/><path class="cls-3" d="M679.32 574.08c0-12.87-30.35-8.38-30.35 0v11.8a15.18 15.18 0 1030.35 0z"/><path class="cls-4" d="M662.92 559.28c-11.12.24-15.64 7.93-15.64 18.17v3.86l3.37 2.89v-8.43l20.24-6.77 6.74 6.75v8.43l3.37-2.94v-3.81c0-6.79-1.75-13.51-10.11-15.17a10.63 10.63 0 00-7.97-2.98zM664.14 614.55c8.43 0 11.37-6.63 11.72-9.16a23 23 0 00-3.29-1s-1.68 6.74-8.43 6.74-8.43-6.74-8.43-6.74a22 22 0 00-3.29 1c.34 2.52 3.29 9.16 11.72 9.16z"/><path class="cls-1" d="M566.83 604.43s-1.68 6.74-8.43 6.74-8.43-6.74-8.43-6.74-18.55 3.35-18.55 21.92h54c0-18.51-18.55-21.92-18.55-21.92"/><path class="cls-2" d="M558.4 614.55c-8.43 0-8.43-10.12-8.43-10.12v-10.12h16.86v10.12s0 10.12-8.43 10.12zM546.6 584.2a3.38 3.38 0 10-3.37 3.37 3.37 3.37 0 003.37-3.37m30.35 0a3.37 3.37 0 11-3.37-3.38 3.37 3.37 0 013.42 3.38"/><path class="cls-3" d="M573.58 574.08c0-12.87-30.35-8.38-30.35 0v11.8a15.18 15.18 0 1030.35 0z"/><path class="cls-4" d="M557.18 559.28c-11.12.24-15.64 7.93-15.64 18.17v3.86l3.37 2.89v-8.43l20.24-6.77 6.74 6.75v8.43l3.37-2.94v-3.81c0-6.79-1.75-13.51-10.11-15.17a10.63 10.63 0 00-7.97-2.98zM558.4 614.55c8.43 0 11.38-6.63 11.72-9.16a23 23 0 00-3.29-1s-1.68 6.74-8.43 6.74-8.43-6.74-8.43-6.74a22 22 0 00-3.29 1c.32 2.52 3.32 9.16 11.72 9.16z"/><path class="cls-5" d="M625.67 589.68S622.85 601 611.56 601s-14.1-11.28-14.1-11.28-31 5.6-31 36.67h90.25c0-31-31-36.67-31-36.67"/><path class="cls-6" d="M611.56 606.61c-14.1 0-14.1-16.93-14.1-16.93v-16.92h28.21v16.92s0 16.93-14.11 16.93zM591.82 555.84a5.64 5.64 0 10-5.64 5.64 5.65 5.65 0 005.64-5.64m50.77 0a5.64 5.64 0 11-5.64-5.65 5.64 5.64 0 015.64 5.65"/><path class="cls-6" d="M637 538.91c0-21.53-50.77-14-50.77 0v19.75a25.39 25.39 0 0050.77 0z"/><path class="cls-7" d="M609.52 514.15c-18.6.42-26.16 13.27-26.16 30.4V551l5.64 4.84v-14.11l33.85-11.28 11.28 11.28v14.11l5.64-4.92v-6.37c0-11.35-2.93-22.61-16.92-25.38 0 0-4.58-5.17-13.33-5.02z"/><path class="cls-8" d="M611.56 606.61c14.11 0 19-11.09 19.61-15.31a37.91 37.91 0 00-5.5-1.62S622.85 601 611.56 601s-14.1-11.28-14.1-11.28a37.51 37.51 0 00-5.5 1.6c.57 4.18 5.5 15.29 19.6 15.29z"/><path class="cls-2" transform="rotate(-18.29 605.143 638.957)" d="M571.16 620.11h68.18v37.88h-68.18z"/><path class="cls-4" d="M581.24 663l-9.51-28.78 57.54-19 9.51 28.77zm-14.3-31.18l11.89 36 64.74-21.39-11.89-36z"/><path d="M639.1 638.86a4.72 4.72 0 00-4.2 8.35l6.28-2.07z" fill="#388e3c"/><path class="cls-4" d="M580.35 657.25a4.75 4.75 0 00-2.39 1.81l2.07 6.28 6.27-2.07a4.63 4.63 0 000-3 4.73 4.73 0 00-5.95-3.02zM571.41 639.24a4.66 4.66 0 003 0 4.74 4.74 0 003-6 4.66 4.66 0 00-1.81-2.39l-6.26 2.15zM630.16 620.85a4.7 4.7 0 002.39-1.81l-2.07-6.28-6.28 2.08a4.66 4.66 0 000 3 4.73 4.73 0 005.96 3.01z"/><path class="cls-2" transform="rotate(-18.29 619.16 645.706)" d="M585.17 626.84h68.18v37.88h-68.18z"/><path class="cls-4" d="M595.24 669.67l-9.51-28.77 57.55-19 9.51 28.78zM581 638.49l11.88 36 64.74-21.4-11.88-36z"/><path class="cls-10" d="M598.29 648.72a3.79 3.79 0 11-2.41 4.78 3.78 3.78 0 012.41-4.78zM637.85 635.64a3.79 3.79 0 11-2.41 4.79 3.8 3.8 0 012.41-4.79zM615.69 635a11.37 11.37 0 11-7.22 14.35 11.37 11.37 0 017.22-14.35z"/><path class="cls-4" d="M653.11 645.59a4.6 4.6 0 00-3 0 4.72 4.72 0 00-3 6 4.61 4.61 0 001.81 2.39l6.27-2.07zM594.36 664a4.73 4.73 0 00-2.4 1.81l2.08 6.28 6.27-2.08a4.71 4.71 0 00-5.95-6zM585.41 646a4.71 4.71 0 006-6 4.67 4.67 0 00-1.81-2.4l-6.27 2.08zM644.16 627.57a4.67 4.67 0 002.4-1.81l-2.08-6.27-6.27 2.07a4.71 4.71 0 005.95 6z"/><path class="cls-5" d="M304.41 796.07h102.38a13.69 13.69 0 0113.65 13.65v61.43H290.76v-61.43a13.7 13.7 0 0113.65-13.65z"/><path class="cls-1" d="M290.76 871.15h129.68V878a13.69 13.69 0 01-13.65 13.65H304.41A13.7 13.7 0 01290.76 878z"/><rect class="cls-11" x="362.43" y="772.19" width="44.36" height="30.71" rx="6.83"/><path class="cls-11" d="M311.24 802.9h40.95v13.65h-40.95z"/><path class="cls-3" d="M352.19 761.95l-6.83 3.41-6.82-3.41-6.83 3.41-6.82-3.41-6.83 3.41-6.82-3.41v47.77h40.95v-47.77z"/><path class="cls-12" d="M369.25 779.01h30.71v17.06h-30.71z"/><path class="cls-6" d="M307.83 823.38h13.65v13.65h-13.65zM328.3 823.38h13.65v13.65H328.3zM348.78 823.38h13.65v13.65h-13.65zM369.25 823.38h13.65v13.65h-13.65zM389.73 823.38h13.65v13.65h-13.65zM307.83 843.85h13.65v13.65h-13.65zM328.3 843.85h13.65v13.65H328.3zM348.78 843.85h13.65v13.65h-13.65zM369.25 843.85h13.65v13.65h-13.65zM389.73 843.85h13.65v13.65h-13.65z"/><path class="cls-10" d="M379.81 879.78A1.79 1.79 0 00378 878h-44.81a1.8 1.8 0 00-1.8 1.8v3.6a1.81 1.81 0 001.8 1.8H378a1.8 1.8 0 001.8-1.8z"/><path class="cls-13" d="M875.5 298.09l5.93 94.78h-33.98v-.01h-69.37v-60.1h73.13l2.17-34.67h22.12z"/><path class="cls-7" d="M788.74 358.74h12.37v12.37h-12.37zM808.51 358.74h12.37v12.37h-12.37z"/><path class="cls-14" d="M799.67 318.01l-21.59 14.75h21.59v-14.75z"/><path class="cls-14" d="M820.96 318.01l-21.58 14.75h21.58v-14.75z"/><path class="cls-14" d="M842.26 318.01l-21.59 14.75h21.59v-14.75z"/><rect class="cls-4" x="814.56" y="415.1" width="15" height="20" rx="2.5"/><rect class="cls-4" x="894.58" y="415.1" width="15" height="20" rx="2.5"/><path class="cls-1" d="M912.08 387.6h-100a2.5 2.5 0 00-2.5 2.5v5a2.5 2.5 0 002.5 2.5h100a2.49 2.49 0 002.5-2.5v-5a2.49 2.49 0 00-2.5-2.5z"/><path class="cls-1" d="M904.58 395.1l-5-2.49h-75l-5 2.5c-2.76 0-5 4.74-5 7.5v20a2.5 2.5 0 002.5 2.5h90a2.5 2.5 0 002.5-2.5v-20c0-2.77-2.24-7.51-5-7.51z"/><path class="cls-1" d="M901.55 395.1c-.36-2.22-1-5.7-2-11.25-2.5-13.76-7.28-23.76-16.25-23.76h-42.48c-9 0-13.91 11.25-16.26 23.76-1 5.44-1.62 9-2 11.25z"/><rect class="cls-4" x="819.56" y="405.1" width="85.02" height="12.5" rx="2.5"/><path class="cls-15" d="M825.81 407.6a3.75 3.75 0 11-3.75 3.75 3.75 3.75 0 013.75-3.75z"/><circle class="cls-12" cx="898.33" cy="411.35" r="3.75"/><path class="cls-12" d="M894.66 384.74c-2.21-12.15-5.45-19.65-11.33-19.65h-42.51c-5.47 0-9.22 8.35-11.34 19.68-.62 3.28-1.07 5.83-1.42 7.83h68c-.35-1.98-.8-4.54-1.4-7.86z"/><path class="cls-4" d="M583.15 429.46H638a2.42 2.42 0 012.42 2.42v4.85a2.43 2.43 0 01-2.43 2.43h-54.84a2.42 2.42 0 01-2.42-2.42v-4.85a2.43 2.43 0 012.42-2.43z"/><rect class="cls-4" x="604" y="414.59" width="13.14" height="19.72" rx="3.28"/><rect class="cls-1" x="541.36" y="305.36" width="138.42" height="113.42" rx="5.67"/><path class="cls-12" d="M548.22 311.86h124.7v87.06h-124.7z"/><circle class="cls-2" cx="668.74" cy="408.48" r="4.18" transform="rotate(-76.72 668.71 408.484)"/><path class="cls-7" d="M610.4 349.18a5.93 5.93 0 110 11.85 5.93 5.93 0 010-11.85zm.09-8.25a14.18 14.18 0 1014.19 14.18 14.21 14.21 0 00-14.19-14.18zm0-4.58a18.76 18.76 0 11-18.76 18.76 18.77 18.77 0 0118.76-18.76zm-4.39-15.81l-1.62 10.24a25 25 0 00-6.91 2.78l-8.44-6-6.11 6.1 5.93 8.44a24.92 24.92 0 00-2.87 6.91l-10.15 1.71v8.62l10.15 1.79A25 25 0 00589 368l-6 8.43 6.11 6.11 8.44-5.93a25.05 25.05 0 006.91 2.79l1.71 10.23h8.61l1.89-10.23a24.69 24.69 0 006.82-2.88l8.53 6 6.11-6.11L632 368a24.86 24.86 0 002.87-6.83l10.24-1.88v-8.62L634.82 349a24.92 24.92 0 00-2.87-6.82l6-8.53-6.11-6.1-8.44 6.1a25.41 25.41 0 00-6.91-2.87l-1.8-10.24z"/><path class="cls-5" d="M610.49 336.35a18.76 18.76 0 11-18.76 18.76 18.77 18.77 0 0118.76-18.76zm-4.39-15.81l-1.62 10.24a25 25 0 00-6.91 2.78l-8.44-6-6.11 6.1 5.93 8.44a24.92 24.92 0 00-2.87 6.91l-10.15 1.71v8.62l10.15 1.79A25 25 0 00589 368l-6 8.43 6.11 6.11 8.44-5.93a25.05 25.05 0 006.91 2.79l1.71 10.23h8.61l1.89-10.23a24.69 24.69 0 006.82-2.88l8.53 6 6.11-6.11L632 368a24.86 24.86 0 002.87-6.83l10.24-1.88v-8.62L634.82 349a24.92 24.92 0 00-2.87-6.82l6-8.53-6.11-6.1-8.44 6.1a25.41 25.41 0 00-6.91-2.87l-1.8-10.24z"/><path class="cls-3" d="M917.43 633.72h-25.19a1.58 1.58 0 01-1.58-1.57V607a1.58 1.58 0 011.58-1.58h25.19A1.58 1.58 0 01919 607v25.19a1.58 1.58 0 01-1.57 1.53z"/><path class="cls-2" d="M902.47 605.38h4.72v5.51h-4.72zM908.76 629.79h7.08v.79h-7.08zM913.49 625.85h1.57V629h-1.57z"/><path class="cls-2" d="M914.28 624.27l-1.58 2.37h3.15l-1.57-2.37zM909.55 625.85h1.57V629h-1.57z"/><path class="cls-2" d="M910.34 624.27l-1.58 2.37h3.15l-1.57-2.37z"/><path class="cls-3" d="M917.43 600.62h-25.19a1.58 1.58 0 01-1.58-1.58v-25.19a1.58 1.58 0 011.58-1.57h25.19a1.58 1.58 0 011.57 1.57V599a1.58 1.58 0 01-1.57 1.62z"/><path class="cls-2" d="M902.47 572.28h4.72v5.51h-4.72zM908.76 596.68h7.08v.79h-7.08zM913.49 592.75h1.57v3.15h-1.57z"/><path class="cls-2" d="M914.28 591.17l-1.58 2.36h3.15l-1.57-2.36zM909.55 592.75h1.57v3.15h-1.57z"/><path class="cls-2" d="M910.34 591.17l-1.58 2.36h3.15l-1.57-2.36z"/><path class="cls-5" d="M917.43 567.52h-25.19a1.58 1.58 0 01-1.58-1.58v-25.19a1.58 1.58 0 011.58-1.57h25.19a1.58 1.58 0 011.57 1.57v25.19a1.58 1.58 0 01-1.57 1.58z"/><path class="cls-8" d="M902.47 539.18h4.72v5.51h-4.72zM908.76 563.58h7.08v.79h-7.08zM913.49 559.64h1.57v3.15h-1.57z"/><path class="cls-8" d="M914.28 558.07l-1.58 2.36h3.15l-1.57-2.36zM909.55 559.64h1.57v3.15h-1.57z"/><path class="cls-8" d="M910.34 558.07l-1.58 2.36h3.15l-1.57-2.36z"/><path class="cls-2" d="M804.82 599.35v-20.2a3.36 3.36 0 016.62-.82l3.48 16.15v4.87zM877.2 638.07h30.3v6.73h-30.3z"/><path class="cls-7" d="M852 616.19v-8.42c0-14-10.86-40.44-14.19-48.21-4-8.69-12.11-14.07-21.16-14.07h-18.56v57.23H788v-67.33h28.6a33.56 33.56 0 0130.6 20c2.5 5.78 14.85 35.21 14.85 52.41v8.42z"/><path class="cls-5" d="M786.31 643.12a5.06 5.06 0 01-5-5V601a5 5 0 015-5h36.3l12.75 13.46h28.37a11.79 11.79 0 0111.78 11.78v16.84a5.06 5.06 0 01-5 5z"/><path class="cls-2" d="M878.88 532.03h6.73v111.09h-6.73z"/><path class="cls-4" d="M804.82 656.58a13.47 13.47 0 1113.47-13.46 13.48 13.48 0 01-13.47 13.46z"/><path class="cls-16" d="M804.82 638.07a5 5 0 11-5.05 5 5 5 0 015.05-5z"/><path class="cls-4" d="M872.14 656.58a13.47 13.47 0 1113.47-13.46 13.48 13.48 0 01-13.47 13.46z"/><path class="cls-16" d="M872.14 638.07a5 5 0 11-5 5 5.06 5.06 0 015-5z"/><path d="M642.36 754.73l26 26v92a4.51 4.51 0 01-4.51 4.52h-85.23a4.51 4.51 0 01-4.51-4.52V759.24a4.53 4.53 0 014.51-4.51z" fill-rule="evenodd" fill="#fad2d2"/><path class="cls-12" d="M584.85 762.37h33.07v4.08h-33.07zM584.85 769.89h29.26v4.08h-29.26zM584.85 777.41h22.93v4.08h-22.93zM584.85 816.02h72.78v9.86h-72.78zM584.85 830.15h72.78v9.86h-72.78zM584.85 844.28h72.78v9.86h-72.78zM584.85 858.42h72.78v9.86h-72.78zM584.85 792.74h10.02v5.39h-10.02zM584.85 801.14h10.02v5.39h-10.02zM599.1 792.74h10.02v5.39H599.1zM599.1 801.14h10.02v5.39H599.1zM635.67 792.74h21.97v5.39h-21.97zM635.67 801.14h21.97v5.39h-21.97z"/><path class="cls-13" d="M642.36 776.24a4.53 4.53 0 004.51 4.52h21.51l-26-26z"/><path class="cls-1" d="M629 822.73h-80v60a10 10 0 0010 10h60a10 10 0 0010-10z"/><path class="cls-4" d="M619 792.72h-60a10 10 0 00-10 10v22.51h80v-22.51a10 10 0 00-10-10z"/><rect class="cls-12" x="556.5" y="800.22" width="65.02" height="17.51" rx="2.5"/><path class="cls-12" d="M614.2 854.91h-16.07a5 5 0 01-5.36-5.32V839a5 5 0 015.36-5.32h16.07a5 5 0 015.36 5.32v10.63a5 5 0 01-5.36 5.28zM579.88 854.91h-16.07a5 5 0 01-5.36-5.32V839a5 5 0 015.36-5.32h16.07a5 5 0 015.36 5.32v10.63a5 5 0 01-5.36 5.28zM579.88 883.42h-16.07a5 5 0 01-5.36-5.32v-10.63a5 5 0 015.36-5.32h16.07a5 5 0 015.36 5.32v10.63a5 5 0 01-5.36 5.32zM613.32 883.42h-16.07a5 5 0 01-5.36-5.32v-10.63a5 5 0 015.36-5.32h16.07a5 5 0 015.36 5.32v10.63a5 5 0 01-5.36 5.32z"/><path class="cls-3" d="M614.73 803.13a3 3 0 012.53 1.16c.73.91 1.09 2.43 1.09 4.54a7.44 7.44 0 01-1.09 4.56 3.06 3.06 0 01-2.53 1.14 3.21 3.21 0 01-2.63-1.25c-.66-.84-1-2.33-1-4.47a7.4 7.4 0 011.1-4.54 3 3 0 012.53-1.14zm0 1.78a1.07 1.07 0 00-.69.24 1.69 1.69 0 00-.48.89 12.62 12.62 0 00-.22 2.79 12.24 12.24 0 00.2 2.7 1.88 1.88 0 00.5 1 1 1 0 00.69.25 1.08 1.08 0 00.69-.25 1.69 1.69 0 00.47-.89 12 12 0 00.22-2.79 12.32 12.32 0 00-.19-2.69 2 2 0 00-.5-1 1.07 1.07 0 00-.69-.25z"/><path class="cls-5" d="M612.18 841.17l-3.42.62a2.51 2.51 0 00-.79-1.55 2.41 2.41 0 00-1.59-.52 2.57 2.57 0 00-2.06.9 4.54 4.54 0 00-.78 3 5.25 5.25 0 00.79 3.3 2.57 2.57 0 002.1 1 2.32 2.32 0 001.62-.57 3.35 3.35 0 00.89-1.93l3.41.58a6 6 0 01-2 3.55 6.35 6.35 0 01-4 1.19 6 6 0 01-4.59-1.81 8.28 8.28 0 010-10.09 6.13 6.13 0 014.65-1.81 6.35 6.35 0 013.81 1 5.67 5.67 0 011.96 3.14z"/><path class="cls-2" d="M564.57 871.1h14.56v3.37h-14.56zM598 873.84h14.56v3.37H598zM598 868.36h14.56v3.37H598z"/><path class="cls-18" d="M564.16 842.59h5.6v-5.6h3.37v5.6h5.59v3.37h-5.59v5.6h-3.37v-5.6h-5.6v-3.37z"/><path class="cls-5" d="M288.74 525.24h32.89v103.72h-32.89z"/><path class="cls-7" d="M288.74 624h32.89v4.96h-32.89z"/><path class="cls-12" d="M295.67 546.09h19.03v31h-19.03z"/><path class="cls-5" d="M299.25 549.63h11.88v3.4h-11.88z"/><path class="cls-6" d="M299.25 556.29h11.88v3.4h-11.88zM299.25 562.94h11.88v3.4h-11.88zM299.25 569.6h11.88v3.4h-11.88z"/><path class="cls-14" d="M305.19 604.33a5.94 5.94 0 11-5.94 5.94 5.94 5.94 0 015.94-5.94z"/><path class="cls-8" d="M305.19 617a6.77 6.77 0 116.76-6.76 6.77 6.77 0 01-6.76 6.76zm0-11.88a5.12 5.12 0 105.11 5.12 5.13 5.13 0 00-5.11-5.09zM325.79 525.24h32.89v103.72h-32.89z"/><path class="cls-5" d="M325.79 624h32.89v4.96h-32.89z"/><path class="cls-12" d="M332.72 546.09h19.03v31h-19.03z"/><path class="cls-5" d="M336.29 549.63h11.88v3.4h-11.88z"/><path class="cls-6" d="M336.29 556.29h11.88v3.4h-11.88zM336.29 562.94h11.88v3.4h-11.88zM336.29 569.6h11.88v3.4h-11.88z"/><path class="cls-14" d="M342.23 604.33a5.94 5.94 0 11-5.94 5.94 5.94 5.94 0 015.94-5.94z"/><path class="cls-6" d="M342.23 617a6.77 6.77 0 116.77-6.76 6.76 6.76 0 01-6.77 6.76zm0-11.88a5.12 5.12 0 105.12 5.12 5.12 5.12 0 00-5.12-5.09z"/><path class="cls-8" d="M362.83 525.24h32.89v103.72h-32.89z"/><path class="cls-5" d="M362.83 624h32.89v4.96h-32.89z"/><path class="cls-12" d="M369.76 546.09h19.03v31h-19.03z"/><path class="cls-5" d="M373.34 549.63h11.88v3.4h-11.88z"/><path class="cls-6" d="M373.34 556.29h11.88v3.4h-11.88zM373.34 562.94h11.88v3.4h-11.88zM373.34 569.6h11.88v3.4h-11.88z"/><path class="cls-14" d="M379.28 604.33a5.94 5.94 0 11-5.94 5.94 5.94 5.94 0 015.94-5.94z"/><path class="cls-6" d="M379.28 617a6.77 6.77 0 116.76-6.76 6.77 6.77 0 01-6.76 6.76zm0-11.88a5.12 5.12 0 105.11 5.12 5.13 5.13 0 00-5.11-5.09z"/><path class="cls-10" d="M420.94 564.62a1.89 1.89 0 00-1.89-1.89H353a10.72 10.72 0 00-10.72 10.72v79.2A10.72 10.72 0 00353 663.37h66.1a1.89 1.89 0 001.89-1.89z"/><path class="cls-16" d="M426.19 585.1a1.4 1.4 0 00-1.41-1.41h-65.22v79.68h65.22a1.4 1.4 0 001.41-1.41z"/><path class="cls-15" d="M415.65 567.19h-60.31a8.25 8.25 0 00-8.25 8.25 8.26 8.26 0 008.25 8.25h60.31z"/><path class="cls-12" d="M373.24 594.03h39.26v22.02h-39.26z"/><path class="cls-3" d="M378.02 598.74h30.66v4.02h-30.66zM378.02 606.9h30.66v4.02h-30.66z"/><rect class="cls-1" x="281" y="311.79" width="152.38" height="121.23" rx="6.14"/><path class="cls-13" d="M433.38 317.93a6.13 6.13 0 00-6.13-6.14H287.14a6.14 6.14 0 00-6.14 6.14v42.34h152.38z"/><path class="cls-12" d="M338.57 341.05l-.1.09-3.56-.06-2.82.05v-.09s1.93-8.66 2.24-10l.08-.08h2.93l.08.08-1.74 7.89h.2c1.6 0 1.89.05 3.13 0l.08.08zM324.84 331l-.41 1.81-.58 2.62c-.64 2.89-1 4.06-2 4.85a5.8 5.8 0 01-5.53.28 2.7 2.7 0 01-1.23-2.42 12.67 12.67 0 01.39-2.59l1-4.55.1-.08h2.83l.07.08-.54 2.4-.46 2.21a12.27 12.27 0 00-.39 2.33 1 1 0 001.06 1.08 1.25 1.25 0 001.11-.6c.32-.48.43-1 1-3.27l.5-2.21.41-1.94.09-.08h2.52zM330.51 341l-.1.1h-6.18l-.06-.09.6-2.82S326 333 326.4 331l.07-.1h6.13l.08.08-.42 1.94-.09.1h-3.3l-.42 1.95h3.05l.06.11-.4 1.76-.09.16H328l-.43 1.86h3.29l.09.08zM304.67 341.05l1.39-6.22c.39-1.8.5-2.28.83-3.8l.11-.09h2.34c2.13 0 5.21-.1 5.21 3.75a7.46 7.46 0 01-1.24 4.17c-1.28 1.79-3.11 2.25-5.34 2.25h-3.25zm3.51-2.34h.17a2.48 2.48 0 002.19-.85 5.79 5.79 0 001-3.11c0-1.59-.9-1.66-1.88-1.64h-.22l-.43 2.05z"/><path class="cls-12" d="M313.37 343.52a56.92 56.92 0 01-5.57 2.48c-8.31-3.76-10.27-10.31-8.49-15.2 1.05-2.91 3.37-4.81 5.89-4.81a7.44 7.44 0 015.08 2.4.9.9 0 001.16 0 11.92 11.92 0 016.24-2.41c2.15 0 3.81.65 4.2 3.46h3.24c-.14-4.17-2.73-6.69-6.53-6.69a13.63 13.63 0 00-7.19 2.59 9.6 9.6 0 00-6.33-2.64c-3.84 0-7.32 2.76-8.88 7.06-2.32 6.36.1 14.83 10.68 19.43a1 1 0 00.37.08 1.18 1.18 0 00.39-.08 59.31 59.31 0 006-2.69 4.72 4.72 0 01-.27-3"/><path class="cls-4" d="M295.18 372.41h21.73v47.79h-21.73zM320.75 372.41h21.73v47.79h-21.73zM346.33 372.41h21.73v47.79h-21.73zM371.9 372.41h21.73v47.79H371.9zM397.47 372.41h21.73v47.79h-21.73z"/><path class="cls-12" d="M298.62 376.09h14.85v35.66h-14.85zM324.19 376.09h14.85v35.66h-14.85zM349.77 376.09h14.85v35.66h-14.85zM375.34 376.09h14.85v35.66h-14.85zM400.91 376.09h14.85v35.66h-14.85z"/><path class="cls-18" d="M306.05 380.59a3.76 3.76 0 11-3.72 3.75 3.73 3.73 0 013.72-3.75z"/><path class="cls-13" d="M331.62 380.59a3.76 3.76 0 11-3.71 3.75 3.73 3.73 0 013.71-3.75z"/><path class="cls-18" d="M357.19 380.59a3.76 3.76 0 11-3.71 3.75 3.74 3.74 0 013.71-3.75zM382.77 380.59a3.76 3.76 0 11-3.72 3.75 3.74 3.74 0 013.72-3.75zM408.34 380.59a3.76 3.76 0 11-3.71 3.75 3.73 3.73 0 013.71-3.75z"/><path class="cls-3" d="M301.63 396.88h1.44v11.84h-1.44zM327.2 396.88h1.44v11.84h-1.44zM352.77 396.88h1.44v11.84h-1.44zM378.34 396.88h1.44v11.84h-1.44zM403.92 396.88h1.44v11.84h-1.44zM304.09 396.88h1.44v11.84h-1.44zM329.67 396.88h1.44v11.84h-1.44zM355.24 396.88h1.44v11.84h-1.44zM380.81 396.88h1.44v11.84h-1.44zM406.38 396.88h1.44v11.84h-1.44zM306.56 396.88H308v11.84h-1.44zM332.13 396.88h1.44v11.84h-1.44zM357.7 396.88h1.44v11.84h-1.44zM383.28 396.88h1.44v11.84h-1.44zM408.85 396.88h1.44v11.84h-1.44zM309.02 396.88h1.44v11.84h-1.44zM334.6 396.88h1.44v11.84h-1.44zM360.17 396.88h1.44v11.84h-1.44zM385.74 396.88h1.44v11.84h-1.44zM411.32 396.88h1.44v11.84h-1.44z"/><path class="cls-7" d="M355.96 323.45h63.12v2.88h-63.12zM355.96 329.02h63.12v2.88h-63.12zM355.96 334.59h63.12v2.88h-63.12zM355.96 340.17h63.12v2.88h-63.12zM355.96 345.74h63.12v2.88h-63.12z"/><path class="cls-15" d="M871.14 767.43l28.24 28.24v99.87a4.9 4.9 0 01-4.9 4.9H802a4.9 4.9 0 01-4.9-4.9V772.33a4.91 4.91 0 014.9-4.9z"/><path class="cls-2" d="M894.48 901.91H802a6.37 6.37 0 01-6.37-6.37V772.33A6.35 6.35 0 01802 766h69.19a1.46 1.46 0 011 .43l28.24 28.24a1.5 1.5 0 01.43 1v99.87a6.37 6.37 0 01-6.38 6.37zM802 768.9a3.44 3.44 0 00-3.43 3.43v123.21A3.44 3.44 0 00802 899h92.5a3.44 3.44 0 003.43-3.43v-99.29l-27.4-27.38z"/><path class="cls-18" d="M871.14 790.77a4.91 4.91 0 004.9 4.9h23.34l-28.24-28.24z"/><path class="cls-15" d="M863.82 760.28l28.25 28.25v99.87a4.9 4.9 0 01-4.9 4.9h-92.51a4.9 4.9 0 01-4.9-4.9V765.18a4.93 4.93 0 014.9-4.9z"/><path class="cls-4" d="M887.17 894.77h-92.5a6.38 6.38 0 01-6.38-6.37V765.18a6.37 6.37 0 016.35-6.37h69.19a1.48 1.48 0 011 .43l28.25 28.25a1.5 1.5 0 01.43 1v99.91a6.38 6.38 0 01-6.34 6.37zm-92.5-133a3.45 3.45 0 00-3.44 3.43v123.2a3.44 3.44 0 003.44 3.43h92.5a3.44 3.44 0 003.43-3.43v-99.26l-27.38-27.39z"/><path class="cls-10" d="M863.82 783.63a4.92 4.92 0 004.9 4.9h23.35l-28.25-28.25z"/><path class="cls-5" d="M804.24 836.98h15.82v42.25h-15.82z"/><path class="cls-7" d="M804.24 863.13h15.82v16.1h-15.82z"/><path class="cls-5" d="M824.18 818.78H840v60.45h-15.82z"/><path class="cls-7" d="M824.18 846.23H840v33h-15.82z"/><path class="cls-5" d="M844.13 794.73h15.82v84.5h-15.82z"/><path class="cls-7" d="M844.13 836.98h15.82v42.25h-15.82z"/><path class="cls-5" d="M864.07 823.9h15.82v55.33h-15.82z"/><path class="cls-7" d="M864.07 858.18h15.82v21.05h-15.82z"/></svg>