<svg id="Layer_1" data-name="Layer 1" xmlns="http://www.w3.org/2000/svg" viewBox="0 0 1200 1200"><defs><style>.cls-1{fill:#ddd}.cls-2{fill:#1d1d1b}.cls-3{fill:#fdfdfd}</style></defs><path class="cls-1" d="M388.9 490.63c-11 4.6-19.58 11.83-22.86 23.8-3.67 13.39 1.87 22.76 9 33.4 5.87 8.82 6.4 19.45 14.41 27.23 9.32 9.08 24.12 11.85 35.15 4.35 18.72-12.72 1-43.38-17.85-30.54q10.36 5.13 6.73-.38l-2.1-6.34a58.59 58.59 0 00-4.5-10.26c-1.46-2.43-3.89-6.37-6.11-8.22-1.72-1.43 1.28-.48-2.44 1.07 8.81-3.69 15.12-11.7 12.35-21.75-2.28-8.31-12.89-16.07-21.75-12.36zM322.19 778.63c.62 42.46 43.19 47.51 76.13 42.14 25.59-4.18 48.52.14 73.9 3.31a629 629 0 0082.42 4.92c52-.36 103.14-10.09 155.17-8.72s103.26 6.53 155.2-.51c22.45-3 12.89-37.13-9.41-34.11-43.87 6-88.07 1.48-132.06-.29-41.58-1.67-81.72 2.92-123 6.25a618.62 618.62 0 01-123.72-2.32c-19-2.31-38.57-7.06-57.85-6.61-12.58.29-61.08 15.55-61.36-4-.34-22.74-35.71-22.81-35.37 0z"/><path class="cls-2" d="M660.66 639.62c-4.81 0-10.57.76-15.12-1.11-6-2.47-10.15-8.79-6.81-15.18 2.48-4.75 7.47-6.66 12.49-7.06 4.51-.35 10.92-.62 15.12 1.11 5.24 2.15 9.56 7.82 7.66 13.74-1.78 5.52-8.16 8.14-13.34 8.5-2.71.18-2.54 8.66 0 8.49 13.35-.91 20.34-14.24 17-26.53-3.47-12.59-15.07-14.53-26.4-13.8-13.37.87-20.32 14.26-17 26.52 3.61 13.15 15 13.81 26.39 13.81 2.62 0 2.65-8.49.01-8.49z"/><circle class="cls-1" cx="812.06" cy="518.29" r="18.86"/><path class="cls-2" d="M790.86 518.29c.65 12.07 7.64 24.17 21.2 24.17 13.06 0 21.2-12.07 21.2-24.17 0-11.78-7.59-23.43-20.17-24.11-14-.76-21.56 11.69-22.23 24.11-.34 6.32 4.33 6.28 4.67 0 1-17.71 33.06-17.79 33.06 0s-32.11 17.74-33.06 0c-.34-6.2-5.02-6.39-4.67 0z"/><circle class="cls-1" cx="394.82" cy="518.29" r="18.86"/><path class="cls-2" d="M411.35 518.29c-1 17.72-33.06 17.79-33.06 0s32.11-17.74 33.06 0c.33 6.21 5 6.39 4.67 0-.65-12.07-7.64-24.17-21.2-24.17-13.06 0-21.2 12.07-21.2 24.17 0 11.79 7.59 23.44 20.17 24.12 14 .76 21.56-11.7 22.23-24.12.34-6.29-4.33-6.29-4.67 0z"/><rect class="cls-1" x="393.2" y="479.85" width="420.47" height="79.34" rx=".83"/><path class="cls-2" d="M794 553.88H431.91c-5.14 0-13.14 1.54-18.1 0-20.88-6.47-20.56-29.21-18.27-47.14 3.6-28.27 32.87-21.58 52.86-21.58h325.47c5.54 0 14.48-1.81 19.83 0 2.25.75 17 14.12 17.64 16 1.08 3 0 8.44 0 11.59 0 14.59 5.08 37.55-17.33 41.16-3.48.56-2.94 11.08 0 10.61 20.14-3.25 22-18.76 22-36.09 0-14.53 4.55-39-9.21-49.34-13.58-10.15-43.54-4.52-58.94-4.52H487.08c-23.75 0-49.38-2.77-73 0-15 1.77-21.91 10.64-23.2 25.32-1.22 13.86-3.29 35 1.32 48.55 7.46 22 36.78 16.08 54.8 16.08h347c3.28-.03 3.31-10.64 0-10.64z"/><path class="cls-3" d="M448.39 374.45h313.92v284.74H448.39z"/><path class="cls-2" d="M765.55 371H451.63c-2.63 0-7.89 2.47-7.89 5.66V661.4a1.36 1.36 0 001.42 1.24h313.91c2.63 0 7.89-2.47 7.89-5.67V372.23c0-3.24-9.3 1.1-9.3 4.43V661.4l7.89-5.66H504.26c-15 0-33.47 3-48.23 0-3.91-.79-3.49-.13-3 .57-1.43-2 0-10.6 0-12.89V372.23l-7.89 5.67h313.93c2.98 0 10.5-6.9 6.48-6.9z"/><ellipse class="cls-1" cx="607.15" cy="576.51" rx="76.2" ry="31.87"/><path class="cls-2" d="M681.1 575.1c-5.23 40.6-146.1 37.75-145.1 1.41 1-37.32 139.93-38.64 145.09 1.41.92 7.12 5.11 1.91 4.5-2.82-4.27-33.21-57.84-36.23-82.6-35.67-21.86.5-74.39 5.36-74.39 37.08 0 30.35 48.84 36 70.24 37 25.32 1.13 82.32-1.12 86.75-35.57.62-4.72-3.59-9.94-4.49-2.84z"/><path class="cls-3" d="M842 762.93l-476 2.38 53.61-192.53c6.27-22.53 24-37.77 44.11-37.87l59.3-.3c14.38-.07 27.37 10.21 32.79 26L566 590.13l75.45-.37 17.88-35.65c6.29-12.55 17.7-20.27 30-20.33l54.57-.27c20.26-.1 38.29 15.25 44.64 38z"/><path class="cls-2" d="M501.31 639.62c-4.81 0-10.56.76-15.11-1.11-6-2.47-10.15-8.79-6.81-15.18 2.47-4.75 7.47-6.66 12.49-7.06 4.51-.35 10.92-.62 15.12 1.11 5.24 2.15 9.56 7.82 7.65 13.74-1.77 5.52-8.16 8.14-13.34 8.5-2.7.18-2.53 8.66 0 8.49 13.35-.91 20.35-14.24 17-26.53-3.47-12.59-15.07-14.53-26.39-13.8-13.37.87-20.33 14.26-17 26.52 3.61 13.15 15 13.81 26.39 13.81 2.62 0 2.69-8.49 0-8.49z"/><path class="cls-1" d="M468.69 743.24c38.81 12.26 83.73 7.4 123.84 6.66q67.15-1.24 134.15-5.91c18.07-1.23 18.21-29.53 0-28.3q-62.37 4.24-124.89 5.73c-40.17.88-86.86 6.76-125.58-5.47-17.4-5.5-24.85 21.81-7.52 27.29z"/><path class="cls-2" d="M554.43 639.62c-4.81 0-10.57.76-15.12-1.11-6-2.47-10.15-8.79-6.81-15.18 2.48-4.75 7.47-6.66 12.49-7.06 4.51-.35 10.92-.62 15.12 1.11 5.24 2.15 9.56 7.82 7.66 13.74-1.78 5.52-8.16 8.14-13.34 8.5-2.71.18-2.54 8.66 0 8.49 13.35-.91 20.34-14.24 17-26.53-3.47-12.59-15.07-14.53-26.4-13.8-13.37.87-20.32 14.26-17 26.52 3.61 13.15 15 13.81 26.39 13.81 2.58 0 2.65-8.49.01-8.49zM607.54 639.62c-4.81 0-10.56.76-15.11-1.11-6-2.47-10.15-8.79-6.81-15.18 2.47-4.75 7.47-6.66 12.49-7.06 4.51-.35 10.92-.62 15.12 1.11 5.24 2.15 9.56 7.82 7.65 13.74-1.77 5.52-8.16 8.14-13.34 8.5-2.7.18-2.53 8.66 0 8.49 13.35-.91 20.35-14.24 17-26.53-3.47-12.59-15.07-14.53-26.39-13.8-13.37.87-20.33 14.26-17 26.52 3.61 13.15 15 13.81 26.39 13.81 2.62 0 2.65-8.49 0-8.49zM660.66 639.62c-4.81 0-10.57.76-15.12-1.11-6-2.47-10.15-8.79-6.81-15.18 2.48-4.75 7.47-6.66 12.49-7.06 4.51-.35 10.92-.62 15.12 1.11 5.24 2.15 9.56 7.82 7.66 13.74-1.78 5.52-8.16 8.14-13.34 8.5-2.71.18-2.54 8.66 0 8.49 13.35-.91 20.34-14.24 17-26.53-3.47-12.59-15.07-14.53-26.4-13.8-13.37.87-20.32 14.26-17 26.52 3.61 13.15 15 13.81 26.39 13.81 2.62 0 2.65-8.49.01-8.49zM713.77 639.62c-4.81 0-10.56.76-15.11-1.11-6-2.47-10.15-8.79-6.81-15.18 2.47-4.75 7.47-6.66 12.49-7.06 4.51-.35 10.92-.62 15.12 1.11 5.24 2.15 9.56 7.82 7.65 13.74-1.78 5.52-8.16 8.14-13.34 8.5-2.7.18-2.53 8.66 0 8.49 13.35-.91 20.35-14.24 17-26.53-3.47-12.59-15.07-14.53-26.39-13.8-13.37.87-20.33 14.26-17 26.52 3.61 13.15 15 13.81 26.39 13.81 2.62 0 2.65-8.49 0-8.49zM529.61 682.06c-4.81 0-10.57.77-15.12-1.1-6-2.48-10.14-8.79-6.81-15.18 2.48-4.75 7.47-6.67 12.5-7.06 4.5-.36 10.91-.63 15.11 1.1 5.25 2.16 9.57 7.82 7.66 13.75-1.78 5.52-8.16 8.14-13.34 8.49-2.71.19-2.53 8.66 0 8.49 13.35-.9 20.34-14.23 17-26.52-3.47-12.59-15.07-14.54-26.39-13.8-13.38.86-20.33 14.25-17 26.52 3.61 13.15 15 13.8 26.39 13.8 2.62 0 2.64-8.49 0-8.49zM476 682.06c-4.81 0-10.56.77-15.11-1.1-6-2.48-10.15-8.79-6.81-15.18 2.47-4.75 7.47-6.67 12.49-7.06 4.51-.36 10.92-.63 15.12 1.1 5.24 2.16 9.56 7.82 7.65 13.75-1.77 5.52-8.16 8.14-13.34 8.49-2.7.19-2.53 8.66 0 8.49 13.35-.9 20.35-14.23 17-26.52-3.47-12.59-15.07-14.54-26.39-13.8-13.37.86-20.33 14.25-17 26.52 3.61 13.15 15 13.8 26.39 13.8 2.57 0 2.6-8.49 0-8.49zM582.72 682.06c-4.81 0-10.56.77-15.11-1.1-6-2.48-10.15-8.79-6.81-15.18 2.48-4.75 7.47-6.67 12.49-7.06 4.51-.36 10.92-.63 15.12 1.1 5.24 2.16 9.56 7.82 7.65 13.75-1.77 5.52-8.15 8.14-13.34 8.49-2.7.19-2.53 8.66 0 8.49 13.35-.9 20.35-14.23 17-26.52-3.47-12.59-15.06-14.54-26.39-13.8-13.37.86-20.32 14.25-17 26.52 3.61 13.15 15 13.8 26.39 13.8 2.62 0 2.65-8.49 0-8.49zM726.49 734.83H506.72c-9.91 0-36.85 3.7-30.25-14.74 4.74-13.23 22.76-9.86 34.14-9.86H709.4c5.37 0 12.81-1.32 18.07 0 .87.21 1.93-.26 2.79 0 18.2 5.37 9.71 21.83-4.11 24.64-.76.15 2.29 7.62 4.57 7.15 20.76-4.21 20-30.12 1.95-37.77-10.86-4.59-28.29-1.25-39.5-1.25H529.69c-13.87 0-29.73-2.17-43.48 0-18.13 2.86-21.85 22.1-8.84 33.74 9.13 8.16 24.85 5.32 36.11 5.32h216.9c1.34 0-1.81-7.23-3.89-7.23zM635.84 682.06c-4.81 0-10.57.77-15.12-1.1-6-2.48-10.14-8.79-6.81-15.18 2.48-4.75 7.47-6.67 12.5-7.06 4.5-.36 10.91-.63 15.11 1.1 5.25 2.16 9.57 7.82 7.66 13.75-1.78 5.52-8.16 8.14-13.34 8.49-2.71.19-2.53 8.66 0 8.49 13.35-.9 20.34-14.23 17-26.52-3.47-12.59-15.07-14.54-26.39-13.8-13.38.86-20.33 14.25-17 26.52 3.61 13.15 15 13.8 26.39 13.8 2.62 0 2.64-8.49 0-8.49zM689 682.06c-4.81 0-10.56.77-15.11-1.1-6-2.48-10.15-8.79-6.81-15.18 2.48-4.75 7.47-6.67 12.49-7.06 4.51-.36 10.92-.63 15.12 1.1 5.24 2.16 9.56 7.82 7.65 13.75-1.77 5.52-8.15 8.14-13.34 8.49-2.7.19-2.53 8.66 0 8.49 13.35-.9 20.35-14.23 17-26.52-3.47-12.59-15.06-14.54-26.39-13.8-13.37.86-20.32 14.25-17 26.52 3.61 13.15 15 13.8 26.39 13.8 2.57 0 2.6-8.49 0-8.49zM742.07 682.06c-4.81 0-10.57.77-15.12-1.1-6-2.48-10.15-8.79-6.81-15.18 2.48-4.75 7.47-6.67 12.5-7.06 4.5-.36 10.91-.63 15.11 1.1 5.25 2.16 9.57 7.82 7.66 13.75-1.78 5.52-8.16 8.14-13.34 8.49-2.71.19-2.53 8.66 0 8.49 13.35-.9 20.34-14.23 17-26.52-3.47-12.59-15.07-14.54-26.39-13.8-13.38.86-20.33 14.25-17 26.52 3.61 13.15 15 13.8 26.39 13.8 2.62 0 2.64-8.49 0-8.49zM856.41 800l-462.6.18c-11.43 0-23.24.85-34.64 0s-16.91-1.92-16.91-16.5c0-14.88 5.59-15.52 16.9-16.51s23.25 0 34.64 0L671 767h140.62c12.39 0 25.64-1.35 38 0 2 .22 4.63-.6 6.53 0 12 3.8 13.12 29.53.24 33-3.51 1-2.62 11.32 0 10.61 15.46-4.19 16.08-26.85 12.67-40.43-3-12.1-8.87-13.26-19.45-13.81-32.27-1.68-65.1 0-97.41 0l-320 .13c-25.26 0-55.59-4.66-80.54 0-21.91 4.11-20.87 50.53.9 54.23 26.69 4.54 58.13 0 85.1 0l158.74-.06 260-.1c3.29.03 3.32-10.57.01-10.57z"/><path class="cls-2" d="M371.79 754.57q22.08-79.26 44.14-158.52c2.15-7.71 3.85-15.75 6.65-23.26 9.93-26.67 30.06-32.52 55.2-32.65 14.89-.07 30.47-1.55 45.3-.22 27.94 2.49 33.33 30.83 40.92 52.9.31.89.77 2.62 2 2.62l75.46-.38c.83 0 1.34-.95 1.64-1.56 6.6-13.17 12-28.9 21-40.68 13.61-17.92 37.4-13.8 57.14-13.89 22-.11 42.92-1.54 57.6 18.91 7 9.79 9.52 22.62 12.7 34l45.75 164c1.86 0 3.71.14 5.56.21q-23.05-82.64-46.1-165.29c-6.76-24.2-13-52.48-40.68-60.78-14.14-4.23-31.63-1.72-46.15-1.65-15.46.08-31.15-1.87-43.37 9.79-10.14 9.66-15.64 25.71-21.78 38-2.91 5.8-3.72 7.66-5.51 8.35-5 2-14.73.07-20.11.1-15.14.08-35.34 3.72-50.16.25-1.17-.27-2.06-.19-2.28.21-1.05-2.4-1.76-6.5-2.27-8-2.25-6.53-4.17-13.3-6.78-19.69-14.84-36.38-53.09-28.22-85.46-27.79-31.32.41-47.92 17.79-56.36 47-17.17 59.27-33.18 118.91-49.69 178.38 1.85-.15 3.73-.3 5.64-.36zM395.94 502.38a153.11 153.11 0 0021.43-11.75c.46-.31.33-2.44-.28-2.16a156.74 156.74 0 00-21.34 12.42c-.32.22-.24 1.69.19 1.49zM391.7 513.94c5.71-2.65 11.28-6.62 16.59-10 .58-.36.34-2.89-.32-2.55-5.71 3-11.84 6.79-16.43 11.32-.2.2-.23 1.42.16 1.24zM391.32 522c3.4-2.58 6.86-5.08 10.42-7.43s7.62-4.42 10.86-7.23c.21-.19.23-1.56-.11-1.45-3.74 1.25-7.18 4-10.38 6.24-3.77 2.66-7.41 5.47-11 8.38-.34.28-.12 1.73.19 1.49zM392.51 527.87c6.86-5 14.22-9.26 21.09-14.21.37-.27.24-2-.23-1.77-7.49 3.89-14.39 9.43-21 14.59-.31.25-.11 1.6.18 1.39zM393.62 532.63c6.59-3.63 13-7.58 19.58-11.27.6-.34.33-2.85-.31-2.52a128.51 128.51 0 00-19.49 12.06c-.36.27-.24 2 .22 1.73zM396.48 537.66a179.46 179.46 0 0120.24-11.72c.53-.26.36-2.52-.29-2.26a65.66 65.66 0 00-20.12 12.67c-.24.23-.15 1.53.17 1.31zM396.09 542.17c6.48-3.58 13.29-7 19.44-11.12.34-.22.27-1.93-.13-1.8-7.07 2.24-13.73 6.77-19.51 11.33-.33.25-.23 1.83.2 1.59zM400.58 546.16c7.12-4.14 13.82-8 21.48-11.14.61-.25.36-2.83-.2-2.67a52.92 52.92 0 00-21.53 11.83c-.34.32-.29 2.3.25 2zM402.33 553.68c3.37-2.26 6.54-4.79 10-6.92s7.49-3.79 10.89-6.19c.32-.22.34-2-.14-1.87-7.49 1.51-15.79 7.94-21 13.35-.26.28-.21 1.91.21 1.63zM412 554c5.11-2.58 10.19-5.4 15.22-8.16.52-.28.33-2.54-.29-2.26a77.85 77.85 0 00-15.12 8.9c-.31.23-.23 1.73.19 1.52z"/><path class="cls-2" d="M475.45 724.76c2.08-1.33 4-2.85 6-4.31a50 50 0 006-4.65c.38-.38.38-2.75-.31-2.37a43.72 43.72 0 00-6 4.52c-2 1.59-4 3.15-6 4.86-.37.33-.24 2.27.26 2zM478 731.58c4.37-4.12 9.05-7.85 13.47-11.9.39-.36.23-2.4-.26-2-4.91 3.35-9.3 7.69-13.47 11.89-.43.43-.09 2.39.26 2.06zM483.73 732c4.28-3.35 8.84-6.6 12.63-10.51.29-.31.19-2-.23-1.74-4.54 3.28-8.49 7.58-12.5 11.47-.15.14-.07.91.1.78zM488.48 736.94a155.11 155.11 0 0113.75-12.26c.48-.39.28-2.74-.3-2.37a51.22 51.22 0 00-13.66 13.52c-.15.22 0 1.31.21 1.11zM498.3 735c2.28-.63 4.29-2.75 6.12-4.17a78.26 78.26 0 006.75-5.57c.36-.34.28-2.39-.26-2a71.19 71.19 0 00-6.8 5.21c-2.06 1.68-4.39 3.24-5.95 5.42-.11.15-.18 1.25.14 1.16zM507.86 736.28c2.13-1 3.95-2.95 5.82-4.37 2-1.53 4.21-2.87 6.18-4.47.4-.32.35-2.38-.27-2.09a33.4 33.4 0 00-6.54 4.48 25.28 25.28 0 00-5.41 5.27c-.12.19-.17 1.36.22 1.18zM519 735.54a60.68 60.68 0 006-4.81c2-1.66 4.18-3.2 6.18-4.91.45-.38.23-2.55-.28-2.2a55.92 55.92 0 00-12.06 10.91c-.12.16-.1 1.18.19 1zM528.7 737.38c3.56-2.89 7.31-5.66 10.61-8.85.34-.33.2-2.23-.25-1.91-3.74 2.64-7.13 5.88-10.6 8.85-.43.36-.13 2.21.24 1.91zM540.32 738.14a52.68 52.68 0 019.61-10.14c.44-.36.18-2.37-.26-2a38.47 38.47 0 00-9.67 10.78c-.2.32 0 1.83.33 1.36zM547.4 738.37A168 168 0 01563 724.6c.45-.37.24-2.54-.29-2.19a74.89 74.89 0 00-15.49 14.15c-.33.39 0 2.1.23 1.81zM557.64 738.46a143.69 143.69 0 0014.12-12.19c.41-.39.15-2.4-.26-2.06a155.47 155.47 0 00-14 12.72c-.26.27-.18 1.79.19 1.53zM568.74 738.46c4.89-4.2 10.43-8.23 14.62-13.14.23-.28.26-2-.22-1.7-5.38 3.4-10 8.7-14.64 13-.38.36-.11 2.1.24 1.81zM579.65 738c4.07-4.54 9.1-8 13.38-12.29.31-.31.3-2.22-.24-1.91-5.29 3-9.42 8.37-13.31 12.92-.25.29 0 1.48.17 1.28zM590.76 738.09a109.67 109.67 0 0012.77-12c.28-.32.23-2.18-.23-1.84-4.63 3.39-8.81 7.87-12.78 12-.33.35-.14 2.12.24 1.81zM601.12 738.37a140.93 140.93 0 0015.41-15.11c.36-.39.13-2.32-.25-2a153.68 153.68 0 00-15.45 15.49c-.24.28-.07 1.91.29 1.61zM612.81 737c5.82-4.62 11.25-9.87 16.66-15 .41-.39.1-2.25-.24-1.95-5.64 5-11.38 10-16.62 15.4-.27.28-.13 1.79.2 1.52zM624.25 738.68c4.63-4.58 9.35-9.15 13.57-14.12.34-.41.13-2.5-.27-2.13-4.82 4.4-9.17 9.35-13.56 14.16-.41.44-.08 2.43.26 2.09zM633.6 738.51a191.93 191.93 0 0014.93-13.73c.46-.47.13-2.76-.3-2.38a204 204 0 00-14.87 14.23c-.32.35-.16 2.2.24 1.88zM645.84 736.53C651 732 656.62 727.4 661 722.05c.22-.28.12-2-.32-1.71-5.55 3.9-10.31 9.6-15 14.46-.34.34-.1 2 .22 1.73zM657.25 736.28c4.57-3.86 9.77-7.54 13.58-12.18.17-.2.15-1.52-.24-1.3-5 2.77-9.32 7.66-13.59 11.49-.43.39-.12 2.3.25 2zM667.41 737.47a64.08 64.08 0 015.61-6c1.93-1.8 4.11-3.37 6-5.23.32-.33.4-2.38-.27-2.1-4.8 2-8.9 7.19-11.8 11.35-.32.45-.07 2.71.49 2zM677.85 737.51a175.67 175.67 0 0014.08-13.06c.37-.4.2-2.54-.27-2.16a165 165 0 00-14.1 13c-.44.44-.15 2.6.29 2.23zM691.26 736.61a169.57 169.57 0 0013.66-13.55c.26-.29.15-1.92-.2-1.63A156.7 156.7 0 00691 734.77c-.36.37-.09 2.14.23 1.84zM698 737.51A188.17 188.17 0 00713.24 724c.39-.4.19-2.53-.28-2.16a185.71 185.71 0 00-15.17 13.84c-.37.36-.14 2.19.23 1.88zM710.32 736.22c5.31-2.88 10.13-7.76 14.27-12.1.41-.43.13-2.55-.28-2.2-4.69 4.14-9.82 8.05-14.22 12.49-.29.29-.3 2.09.23 1.81zM724.34 738.32A79.19 79.19 0 01738 726.18c.43-.3.16-2.14-.24-1.87a65 65 0 00-13.6 12.48c-.28.34 0 1.75.19 1.53zM339.38 781.69c1.59 1 3.72-1 5.14-1.91a27.63 27.63 0 006.19-4.46c.27-.29.4-2.52-.17-2.31-2.05.77-3.81 2.32-5.63 3.52-2 1.33-4.52 2.32-5.57 4.53-.07.14-.12.53 0 .63zM339.44 789.16a114.51 114.51 0 0017.23-10.77c.45-.35.34-2.62-.29-2.3a115.36 115.36 0 00-17.17 11.3c-.36.28-.26 2 .23 1.77zM361 784.23a156.57 156.57 0 01-22.12 10c.28.44.59.83.85 1.3.07.13.12.26.18.39a65.43 65.43 0 0021.37-9.41c.5-.38.31-2.59-.28-2.28zM347.14 804.25c1.61-4.07 6.26-6.22 9.71-8.4 4.11-2.59 8.19-5.2 12.19-8 .58-.4.29-2.89-.32-2.51-5.11 3.14-10.08 6.49-15.05 9.85-3.09 2.1-5.84 4.07-7 7.73-.12.38.16 2.17.5 1.29zM359.44 801.44c7.09-3.93 14.49-8 20.87-13 .41-.32.3-2.39-.27-2.09-7.23 3.85-14 8.89-20.81 13.46-.37.25-.21 1.9.21 1.67zM369.91 801.85c7.14-3.39 14.35-8.93 20.42-14 .45-.37.32-2.61-.28-2.27a111.64 111.64 0 00-20.36 14.53c-.28.26-.29 1.94.22 1.7zM383 801.92c5.24-4.37 10.49-8.71 15.45-13.4.32-.3.13-1.85-.2-1.59-5.35 4.25-10.38 8.86-15.45 13.43-.33.3-.09 1.81.2 1.56zM394.23 802.34c0-1.37 2.3-2.51 3.22-3.21 1.37-1 2.7-2.11 4.05-3.17 2.62-2.06 5.18-4.16 7.59-6.46.4-.39.27-2.63-.29-2.27a119.05 119.05 0 00-10.8 8.33c-2.23 1.85-4.72 3.38-4.52 6.52 0 .83.72 1.53.76.26zM404.88 803.22c5.94-4.84 12-9.49 17.68-14.67.33-.31.14-2-.22-1.7-6.14 4.62-11.81 9.85-17.65 14.85-.34.29-.09 1.76.19 1.52zM418.19 804.36a148.3 148.3 0 0118.05-14.84c.47-.34.26-2.47-.27-2.16a76.91 76.91 0 00-18 15c-.38.41-.07 2.29.25 2zM432.41 802.07c5.72-5.58 12.34-9.75 18.42-14.84.23-.2.21-1.61-.11-1.49-7.15 2.72-13.41 8.87-18.56 14.35-.38.41-.06 2.28.25 2zM441.06 803.77c-.41-1.8 7.28-6.42 8.54-7.31 2.95-2.07 6-4.05 9-6.05.37-.25.24-2-.22-1.73a68.23 68.23 0 00-14.51 9.82c-2 1.78-4 3.34-3.17 6.17.21.7.44-.65.39-.9zM450.25 806.18c6.77-7.27 14.65-12.07 22.92-17.35.27-.17.18-1.47-.1-1.38-9 3.12-16.79 10.16-23 17.13-.31.35 0 1.83.2 1.6zM462.52 805.34c7.83-5.7 16.6-10.76 23.81-17.23.3-.27.29-1.94-.21-1.7-8.65 4.19-16.43 11.47-23.76 17.58-.29.24-.12 1.55.16 1.35zM476.22 806.92q3.91-4 8-7.9c2.77-2.57 5.9-4.88 8.44-7.68.19-.22.21-1.61-.18-1.38-3.12 1.81-5.85 4.73-8.5 7.19s-5.42 5.19-8 7.89c-.4.41 0 2.15.23 1.88zM487.4 804.89c6.07-5.68 12.42-11 18.79-16.38.4-.34.12-2.13-.23-1.85a199.82 199.82 0 00-18.73 16.89c-.27.27-.05 1.55.17 1.34zM503 806.11c5-8 11.64-13.76 19.34-19 .4-.27.27-2.13-.24-1.88-8.26 4-14.84 11.14-19.56 18.89-.29.48.05 2.61.46 2zM515.05 804.88c6.51-5.47 13-10.91 19.46-16.47.34-.29.08-1.75-.19-1.52-6.54 5.44-13 11-19.45 16.54-.32.28-.07 1.67.18 1.45zM532.23 803.3c6.35-5.47 12.68-10.94 18.86-16.59.31-.29.09-1.72-.19-1.49-6.4 5.35-12.64 10.88-18.87 16.41-.37.33-.08 1.91.2 1.67zM548.45 799.42l-.5-.32-.15 1.24c.62-1.2 2.06-2.11 3-3l3.09-2.87a36.16 36.16 0 005.53-5.74c.22-.34.29-2.54-.4-2.18-2.11 1.09-3.85 3.29-5.51 5s-3.81 3.55-5.43 5.53c-.55.66-1.82 4.46.36 3.62.28-.11.31-1.19 0-1.22zM554.64 801.38c6.72-3.25 13-8.46 18.93-12.94.58-.43.24-2.93-.32-2.55-6.36 4.39-13.22 8.83-18.77 14.22-.21.2-.22 1.45.16 1.27zM564.92 805.23a66.1 66.1 0 0115.15-13.45c.43-.29.28-2.21-.25-1.95a41.5 41.5 0 00-15.24 14c-.2.31 0 1.86.34 1.39zM576.52 806.39c6-5.7 12.12-11.41 17.7-17.56.37-.41.13-2.45-.27-2.09-6.21 5.58-11.93 11.75-17.67 17.81-.36.37-.08 2.13.24 1.84zM589.53 806.46A218.5 218.5 0 01605.44 790c.39-.36.2-2.35-.26-2a64.74 64.74 0 00-15.93 16.91c-.2.31 0 1.82.28 1.55zM606.44 801.29c-.92-1 13.81-14.68 15.36-16.38.27-.3.09-1.78-.2-1.52-4.88 4.46-9.46 9.34-14 14.15-1.13 1.19-2.83 3.13-1.27 4.63.15.15.26-.71.11-.88zM616.12 804.18c2.43-2.68 4.7-5.47 7.21-8.08s5.57-5.08 8-7.89c.28-.32.34-2.36-.26-2-3.22 1.89-6 5.07-8.46 7.8a66.9 66.9 0 00-6.8 8.58c-.2.31 0 1.9.29 1.61zM627.67 804.4a116 116 0 0116-14.31c.54-.39.2-2.65-.29-2.3a70 70 0 00-16 15.07c-.23.3 0 1.81.28 1.54zM640 806.85c6.43-6.26 13.48-11.72 20.17-17.67.31-.27.2-1.84-.2-1.59-7.46 4.73-14 11.12-20.21 17.35-.4.4 0 2.2.24 1.91zM657.17 803.08a166.35 166.35 0 0019.45-16.49c.25-.25.09-1.53-.16-1.31-6.46 5.55-12.71 11.29-19.46 16.52-.29.23-.09 1.47.17 1.28zM671.19 805.1c6.22-6.72 13.26-13.21 18.72-20.55.21-.29.07-2-.3-1.65-6.86 5.8-12.61 13.48-18.68 20.11-.43.46 0 2.39.26 2.09zM681.42 804.34c4.37-6 9.71-10.41 14.85-15.6.26-.26.26-1.89-.21-1.62-6.14 3.4-11.15 10-15 15.76-.23.34 0 2 .35 1.46zM695.45 802.48c4.82-6.22 10.66-11.14 16-16.82.26-.28.26-2-.22-1.74-6.56 3.9-11.82 11-16.13 17.13-.22.33 0 1.9.34 1.43zM705.39 802.59c4.87-6.44 10.76-11.46 16.21-17.31.28-.3.31-2.19-.24-1.88-6.66 3.78-12.17 11.12-16.41 17.35-.29.42 0 2.46.44 1.84zM718.12 802.4c5.13-5.58 10-11 15.82-15.91.43-.36.19-2.37-.26-2.06a59.59 59.59 0 00-15.84 16.4c-.19.29 0 1.87.28 1.57zM734.67 799.55v.82l.92-.85a28 28 0 002.31-2.19c1.38-1.32 2.77-2.62 4.17-3.93 2.82-2.64 5.62-5.32 8.37-8 .46-.45.15-2.72-.3-2.33q-4.08 3.48-8 7.16c-2.55 2.41-5.71 4.78-7.85 7.56-.59.77-1.74 5 .54 3.94.43-.21.33-2.23-.16-2.13zM748.3 800.94a15.87 15.87 0 002.77-2.19l4.23-3.36a87 87 0 007.94-6.77c.35-.35.29-2.42-.27-2.06a95.1 95.1 0 00-9.85 8c-1.89 1.62-5.42 3.44-5.9 6 0 .18-.1 1.24.28 1.19.59-.07.51.1.85-.38 0-.05.06-.44-.05-.41zM757.12 803.44c2.94-2.18 5.48-5.07 8.18-7.56s5.77-5.14 8.63-7.74c.42-.38.22-2.45-.27-2.09-6.07 4.41-12.46 10-16.77 16.15-.14.19-.09 1.48.23 1.24zM770.56 802.94c-.75-1.81 8.11-9.28 9.34-10.56 2.88-3 5.72-6 8.36-9.17.21-.26 0-1.71-.27-1.44a195.22 195.22 0 00-15.65 15.6c-2 2.08-3.63 4.23-2.16 7 .3.56.51-1.12.38-1.42zM781.75 803.47A69.09 69.09 0 01796 786.16c.5-.44.14-2.6-.29-2.24a57.24 57.24 0 00-14.32 18.16c-.17.33.06 1.88.35 1.39zM793.11 804.78a84.23 84.23 0 015.54-8c2.1-2.61 4.87-4.81 6.71-7.59.17-.27.26-1.91-.31-1.68-2.67 1.1-4.86 4.42-6.62 6.67a51.48 51.48 0 00-5.7 9.08c-.16.33 0 2.07.38 1.51zM805.25 805.62a110.9 110.9 0 018.81-11.45c2.66-3 5.79-5.64 8.31-8.76.15-.2.11-1.42-.23-1.21-3.74 2.32-6.85 6.35-9.69 9.69a114.57 114.57 0 00-7.6 10.08c-.27.41 0 2.2.4 1.65zM816.89 803.86c5.49-6.16 11.37-11.91 17.18-17.75.28-.28.1-1.69-.18-1.45a166.79 166.79 0 00-17.23 17.43c-.35.4 0 2 .23 1.77zM829.35 803.94c6.5-7.34 13.8-13.76 20.58-20.81.26-.27.17-1.78-.19-1.52-7.7 5.69-14.35 13.34-20.62 20.52-.36.42 0 2.08.23 1.81zM844.76 801.39c7.12-4.39 14.36-9.35 19.93-15.65.32-.36.22-2.43-.26-2-6.69 5.14-12.84 10.69-20 15.25-.58.37-.25 2.79.31 2.45zM452 672.94c2.08-4.22 8.17-7.1 11.83-9.8a139 139 0 0012.55-9.88c.29-.28.25-2-.22-1.73-5.28 3-10.08 6.93-14.89 10.59-3.55 2.71-8 5.08-9.71 9.38-.14.34.17 2 .44 1.44zM452.7 676.07c8.93-6.35 18-12.54 26.59-19.37.36-.29.17-2-.22-1.74-9.13 6-17.8 12.83-26.59 19.37-.39.3-.14 2 .22 1.74zM457.06 677.76c9.11-5.72 17.75-12.34 26.86-18.14.42-.27.26-2.16-.24-1.91-9.46 4.76-19.37 11.21-26.77 18.85-.19.2-.16 1.4.15 1.2zM464.45 679.57A154.1 154.1 0 00490.82 661c.28-.26.14-1.72-.19-1.49-8.8 6.11-17.43 12.46-26.4 18.32-.41.27-.21 2 .22 1.77zM469.09 683.64c7.65-6.37 15.64-12.27 23.66-18.16.42-.31.18-2.19-.24-1.91a231.45 231.45 0 00-23.66 18.19c-.42.36-.1 2.17.24 1.88zM473.27 684.29c6.41-3.74 12.42-8.33 18.38-12.74.46-.33.2-2.35-.25-2a217.31 217.31 0 00-18.4 12.87c-.36.3-.24 2.15.24 1.87zM475.53 632.57c8.51-6.94 17.08-13.8 25.34-21 .34-.3.1-1.83-.2-1.59-8.63 6.93-16.92 14.25-25.29 21.5-.25.21-.07 1.31.15 1.13zM479 633.27A255.31 255.31 0 00507.43 613c.42-.34.23-2.36-.26-2a263.92 263.92 0 00-28.35 20.74c-.31.26-.2 1.84.2 1.59zM511 612.83a145.7 145.7 0 00-29.77 23.44c-.45.45-.07 2.49.27 2.16a180.19 180.19 0 0130.74-23.53c-.39-.69-.8-1.38-1.24-2.07zM514.77 618.83a10.92 10.92 0 01-.7-.91c-10 5.67-19.08 13.06-27.5 20.75-.45.41-.11 2.41.26 2.09 9-7.73 18.68-14.28 28.4-21zM516.61 622.52a159.12 159.12 0 00-23.53 18.12c-.36.34-.07 2 .22 1.7a189.86 189.86 0 0124.29-18.2c-.33-.52-.67-1.05-.98-1.62zM504.32 674.41a218 218 0 0025.58-19c.36-.31.2-2.16-.23-1.87A220.63 220.63 0 00504.14 673c-.27.23-.18 1.63.18 1.42zM508.61 679.91c8-7 16.32-13.57 24.77-20 .32-.24.13-1.66-.18-1.45a222 222 0 00-24.76 20.1c-.29.27-.06 1.55.17 1.35zM515.1 682.42c7.68-6.48 15.38-12.94 23-19.51.35-.3.09-1.83-.2-1.6-7.72 6.4-15.35 12.92-23 19.41-.38.32-.08 1.95.22 1.7zM520.43 684.35a179.08 179.08 0 0021.27-15.79c.48-.42.1-2.51-.28-2.19a215.67 215.67 0 01-21.24 16c-.48.32-.2 2.31.25 2zM531.09 631.8c.53-3.83 6.54-6.61 9.37-8.65 3.66-2.65 7.29-5.29 10.74-8.2.41-.34.24-2.37-.25-2.05-5.07 3.23-9.86 6.92-14.61 10.6-2.77 2.16-5.5 4.08-5.73 7.79 0 .35.36 1.34.48.51zM534.68 635.92a154.47 154.47 0 0122.87-22.43c.38-.32.16-2.08-.23-1.81a113 113 0 00-23.07 22.43c-.33.41 0 2.4.43 1.81zM536.8 637.77c8.11-8.4 17-15.86 26.09-23.21.31-.25.12-1.63-.17-1.42-9.55 6.89-18 15.08-26 23.68-.19.21 0 1.1.12.95zM541 640.57c7.91-8.16 16.57-15.24 25.36-22.41.35-.28.17-1.92-.21-1.66-9.3 6.31-17.62 14.25-25.36 22.37-.35.37 0 2 .21 1.7zM545.19 643.6c7.34-7.06 15.08-13.62 23-20 .42-.34.14-2.16-.23-1.88a235.63 235.63 0 00-23 20c-.4.39-.06 2.12.23 1.85zM569.41 628.5q-6.92 5.28-13.78 10.61c-.3.24-.09 1.51.17 1.31q7.07-5.43 14.08-10.94a8.81 8.81 0 01-.47-.98zM556.88 676.4c1.86-4.09 8.22-7 11.78-9.33 4.56-3 9.18-6 13.69-9.1.5-.34.31-2.62-.29-2.3A146.61 146.61 0 00566 666c-3.43 2.47-8.13 4.87-9.48 9.11-.09.29.18 1.84.41 1.32zM561.08 682.42c9.25-8.3 19-15.9 28.95-23.35.46-.34.18-2.35-.25-2.05a253.44 253.44 0 00-28.92 23.7c-.36.34-.07 2 .22 1.7zM565.14 685.25c9.31-7.17 18.71-14.22 27.8-21.66.37-.31.14-2-.21-1.71-9.44 7-18.57 14.44-27.8 21.74-.37.29-.11 1.87.21 1.63zM582.32 679.57c5.92-4.31 12-8.47 17.67-13.11.33-.27.17-1.87-.21-1.63-6.1 4-11.85 8.5-17.7 12.83-.45.33-.16 2.2.24 1.91zM607.94 611c-7.84 4-15.24 9.88-22.36 15.4a7.88 7.88 0 01-.83 2.88c8-5.08 16.4-10.3 23.4-16.54.31-.27.27-1.98-.21-1.74zM584 637a213 213 0 0131.92-22c.54-.31.3-2.64-.28-2.34a139.59 139.59 0 00-31.85 22.7c-.34.32-.09 1.92.21 1.66zM619.72 615.48c-10.82 6.15-20.49 14-29.46 22.6-.41.39-.08 2.24.24 1.95a268.27 268.27 0 0129.71-22.61c.07 0 .1-.18.13-.29-.22-.55-.42-1.13-.62-1.65zM621.89 621.52c-10.21 6.12-19.47 14.11-27.93 22.36-.25.24 0 1.38.15 1.2 8.78-8.3 18.37-15.13 28.21-22-.1-.48-.32-1.02-.43-1.56zM622.82 627.89a207.27 207.27 0 00-20.73 15.41c-.49.41-.12 2.55.28 2.23a252.38 252.38 0 0120.51-15c0-.88-.03-1.76-.06-2.64zM636.49 632.15A249.09 249.09 0 01659 617.31c.52-.29.32-2.58-.28-2.3a77.33 77.33 0 00-22.41 15.69c-.24.25-.14 1.68.18 1.45zM639.2 637.76a239.57 239.57 0 0132.19-22.46c.36-.2.23-1.78-.19-1.59a109.53 109.53 0 00-32.2 22.67c-.25.26-.09 1.6.17 1.38zM645.29 640c8.79-8.72 18.66-14.54 29-21.07.36-.23.2-2-.14-1.85-11 4.21-20.95 12.77-29.12 21.08-.38.38 0 2.1.23 1.84zM648.94 642.78c8-7 16.8-12.37 25.87-17.8.29-.17.18-1.47-.16-1.31-9.49 4.39-18 10.94-25.87 17.8-.29.25 0 1.5.16 1.31zM676.31 630.32c0-.25.17-.71.27-1.07q-7.49 5.09-14.88 10.32c-.35.24-.12 1.7.18 1.49q7.26-5 14.45-10.12a3.19 3.19 0 01-.02-.62zM614.75 674.74c6.66-6 13.65-11.51 20.49-17.25.35-.29.14-1.92-.21-1.67a219.52 219.52 0 00-20.48 17.32c-.34.32-.06 1.84.2 1.6zM615.19 680c9.21-7 18.61-13.84 27.36-21.41.42-.36.19-2.37-.25-2.06-9.46 6.69-18.3 14.27-27.3 21.59-.4.33-.13 2.12.23 1.84zM622.43 683.61c7.31-6.41 14.77-12.69 21.81-19.39.36-.34.11-2.05-.22-1.77-7.49 6.24-14.58 13-21.8 19.53-.35.32-.08 1.88.21 1.63zM627.13 684.82a240.12 240.12 0 0021.2-19.64c.25-.27.07-1.6-.17-1.38-7.12 6.39-14 13-21.25 19.28-.39.33-.09 2 .22 1.74zM682.85 652.41a3 3 0 01-1.05-.17c-6.4 5-12.67 10.22-18.88 15.33-.48.39-.29 2.71.3 2.34a148.65 148.65 0 0022.61-17.58c-.99.01-1.99.07-2.98.08zM664.88 678.31q13.7-10.24 27.19-20.75c.59-.46.17-2.9-.32-2.52q-13.65 10.66-27.08 21.64c-.36.3-.13 1.89.21 1.63zM673.73 682.08c8.47-7.44 17.19-14.57 25.95-21.67.55-.44.17-2.81-.3-2.44-9 6.91-17.55 14.32-25.93 21.95-.47.43-.11 2.5.28 2.16zM703.21 661.45c-7.37 5.93-14.43 12.24-21.52 18.49-.45.4-.13 2.37.26 2 7.38-6.14 14.79-12.27 21.89-18.74-.2-.55-.42-1.15-.63-1.75zM705.47 667.71A149.42 149.42 0 00690 681.22c-.41.4-.07 2.21.24 1.92 5.13-4.87 10.54-9.39 15.88-14-.24-.47-.45-.95-.65-1.43zM689.37 634.65c9.62-6.29 18.9-13.53 28-20.61.35-.28.17-1.91-.21-1.67a198.17 198.17 0 00-27.86 21.32c-.18.17-.12 1.11.12 1zM699.48 636.27c8.34-6.73 16.82-13.33 24.86-20.42.4-.35.15-2.2-.23-1.91-8.52 6.57-16.62 13.69-24.84 20.63-.38.32-.11 2 .21 1.7zM702.56 641.66c8.41-7.19 17.22-13.81 26-20.56.34-.26.14-1.79-.19-1.56a262.71 262.71 0 00-26 20.6c-.33.29-.07 1.75.19 1.52zM729 625.05c-5.75 4.68-11.2 9.75-16.73 14.67-.48.43-.09 2.52.28 2.2 5.7-5 11.46-9.94 17-15.17a3.17 3.17 0 01-.55-1.7zM739.54 651c-8.7 4.83-17.16 11.66-24.83 18.18a3.36 3.36 0 01.71 2.05c9-5.58 18.42-11.91 26-19.06a13.54 13.54 0 00-1.88-1.17zM717.31 677.76c9.07-6.65 18.31-13.12 27.1-20.14.34-.28.15-1.87-.2-1.63-9.27 6.3-18.14 13.23-27.14 19.93-.42.32-.13 2.11.24 1.84zM726.14 677.78c6.91-5.46 14-10.75 20.61-16.59.35-.31.15-2-.22-1.77-7.13 5.12-13.82 10.91-20.63 16.44-.43.35-.12 2.2.24 1.92zM726.1 685c9.29-7.36 19.45-14.28 27.77-22.72.24-.24.21-1.76-.19-1.52-10 5.94-18.84 14.49-27.88 21.79-.55.45-.15 2.81.3 2.45zM732.71 689.31c9.12-7 18.29-14 27.09-21.46.4-.33.17-2.23-.24-1.94-9.28 6.69-18.17 13.89-27.14 21-.55.43-.16 2.76.29 2.41zM762.63 537.54c2.84-2.68 5.53-5.52 8.4-8.17s6.12-5.18 8.88-8.06c.39-.4.36-2.84-.32-2.4-6.47 4.13-12.46 10.7-17.36 16.56-.34.4 0 2.47.4 2.07zM766.39 540.4c3.28-3.72 6.71-7.32 10.3-10.75 3.31-3.15 7-6 10.11-9.32.3-.33.33-2.34-.26-2-4.22 2.55-7.8 6.52-11.24 10-3.26 3.31-6.36 6.75-9.36 10.29-.34.4-.07 2.33.45 1.74zM770.32 544.36c7.11-6.89 14.31-13.69 21.1-20.89.24-.25.08-1.46-.16-1.24-7.3 6.6-14.17 13.65-21.15 20.57-.34.34-.06 1.82.21 1.56zM773.5 549.82c6.34-8.47 13.91-15.25 22.06-21.9.45-.37.25-2.48-.28-2.13-8.76 5.8-16.06 13.93-22.21 22.38-.29.4 0 2.22.43 1.65zM778.68 551c5.89-7.19 12.79-13 19.3-19.53.33-.33.34-2.35-.27-2-7.85 4.38-14.37 12.36-19.53 19.58-.33.45-.06 2.65.5 2zM779.82 555.69c6.14-6.82 12.74-13.14 19.46-19.38.4-.37.12-2.15-.24-1.84A187.67 187.67 0 00779.59 554c-.34.39 0 2 .23 1.7zM785.71 558.09c5.15-5.46 10.34-10.89 15.32-16.51.35-.39.06-2.11-.24-1.81-5.23 5.39-10.25 11-15.32 16.52-.37.4 0 2.1.24 1.8zM793.43 559.27c5.14-4.86 10.47-9.5 15.34-14.63.35-.38.14-2.22-.25-1.88-5.37 4.67-10.23 9.87-15.31 14.84-.36.36-.07 1.94.22 1.67zM761.9 503.49c6.25-5.05 12.44-10.28 18.58-15.48.35-.29.21-2-.22-1.73A98.07 98.07 0 00761.7 502c-.26.28-.15 1.8.2 1.52zM762.19 511.3c5.4-7.19 12.11-12.21 18.81-18 .35-.29.29-2.12-.23-1.84-7.65 4.1-13.82 11.67-18.91 18.54-.24.32 0 1.78.33 1.33zM762 517.71c6-7.32 13.15-12.87 20.36-18.88.37-.3.3-2.2-.25-1.91-8.27 4.32-15 11.83-20.51 19.21-.27.36-.05 2.12.4 1.58zM761.57 526.92c8-5.71 15.64-11.95 21.86-19.63.26-.33 0-2-.32-1.71-7 6.79-13.92 13.63-21.78 19.47-.44.32-.17 2.17.24 1.87zM668.91 558.28c7.43-.27 15.37-1.15 22.38-3.77.42-.15.36-1.85 0-1.8-7.49 1-14.87 2.7-22.38 3.66-.47.06-.4 1.93 0 1.91zM668.29 564.46c7.13-1.09 14.28-2 21.29-3.78.42-.11.34-1.73 0-1.7-7.18.74-14.23 2.28-21.3 3.68-.47.09-.34 1.86 0 1.8zM671.26 568.12c5.11-.56 10.25-.94 15.33-1.69.45-.06.36-1.79 0-1.76-5.12.39-10.23 1.17-15.33 1.75-.44.05-.34 1.74 0 1.7zM664.77 574.67a114.29 114.29 0 0119.46-1.74c.46 0 .44-2-.05-2a71.9 71.9 0 00-19.45 1.81c-.51.11-.34 2 0 1.92zM661.83 580.1a136.07 136.07 0 0117.68-1.88c.47 0 .43-1.94 0-2a83.28 83.28 0 00-17.68 1.66c-.59.11-.4 2.25.05 2.17zM659.48 586.17a81.81 81.81 0 0015.33-.46c.71-.09.54-2.79-.07-2.72a99.39 99.39 0 01-15.33.61c-.58 0-.61 2.54.07 2.57zM419.32 574.62c8.57-5.57 16.93-10.93 26-15.7.26-.13.09-1.33-.08-1.27a77.57 77.57 0 00-26 16.15c-.13.13-.07.93.1.82zM417.88 582.77c7.61-3.92 15.35-7.66 22.77-11.93.28-.16.15-1.47-.14-1.33-7.74 3.65-15.23 7.87-22.78 11.88-.31.16-.15 1.54.15 1.38zM415.3 589c8-4 16.71-7.36 24.29-12 .22-.14.14-1.34-.09-1.28-8.47 2.48-16.73 7.61-24.34 12-.29.16-.15 1.47.14 1.33zM413.68 593c8.19-3.39 16.52-6.6 24.5-10.48.3-.15.1-1.51-.1-1.43-8.31 3.2-16.37 7.14-24.48 10.83-.24.11-.06 1.14.08 1.08zM410.1 599.8c8.62-4.08 17.49-7.24 26.35-10.72.39-.16.22-1.68 0-1.61-9.15 2.66-17.94 6.78-26.45 11-.29.14-.15 1.44.14 1.3zM432.75 595.34c-8.4 3.86-16.71 7.89-25 11.9 0 .56-.13 1.08-.17 1.63 8.48-4 17-7.89 25.38-12 .3-.15.14-1.69-.21-1.53zM429.22 601.65a118 118 0 00-21.89 9.16q-.13.81-.33 1.59a183.84 183.84 0 0122.26-9.2c.39-.13.2-1.62-.04-1.55zM429.17 606.65a245.18 245.18 0 00-24.29 11.14c-.24.46-.46.91-.73 1.35.06.27.15.49.27.43 8.17-4 16.55-7.5 24.79-11.32.4-.18.18-1.68-.04-1.6zM425 615c-7.53 2.88-14.87 6.29-22.26 9.52.1.52.16 1 .22 1.56 7.4-3.15 14.89-6.16 22.13-9.65.33-.18.12-1.54-.09-1.43zM426 619.36c-7.78 2.7-15.33 6.23-22.88 9.55 0 .68-.08 1.36-.16 2 7.76-3.17 15.67-6.18 23.15-9.91.34-.13.13-1.73-.11-1.64zM423 627c-7 .91-14 3.78-20.53 6.86-.17.72-.38 1.43-.61 2.13 7-2.82 14.17-4.89 21.17-7.72.24-.13.2-1.27-.03-1.27zM419.36 634.28c-7.1 1.08-13.86 3.93-20.2 7.31a18.87 18.87 0 01-2.06 2.74c7.17-3.81 14.6-6.17 22.29-8.61.35-.11.27-1.49-.03-1.44zM397.2 651.2c7.16-5 14.87-8 23.21-10.47.32-.1.24-1.4 0-1.36-8.49 1.36-16.4 5.34-23.34 10.31-.34.24-.1 1.7.17 1.52zM420.37 644.07c-8.11 2.85-16.05 6.19-24 9.43 0 .39-.08.78-.14 1.17 8.1-3 16.24-6 24.18-9.36.3-.13.14-1.31-.04-1.24zM416.74 650.65a208.23 208.23 0 00-21.74 8.56 20.44 20.44 0 01-1.09 2.27c7.56-3.24 15.21-6.26 22.87-9.29.39-.19.22-1.62-.04-1.54zM393 667.35c7.44-3.37 15-6.57 22.26-10.27.25-.13.07-1.18-.07-1.11-7.56 3.2-14.89 6.94-22.29 10.48-.21.1-.12 1 .1.9zM417.27 664c-10 .94-19.71 5-28.56 9.65-.13.52-.23 1-.36 1.55 9.35-4.7 18.91-7.38 28.94-10.35.21-.11.17-.92-.02-.85zM417.83 666.5c-10.72 2.41-20.92 7.2-30.45 12.63 0 .1-.05.2-.07.3-.1.41-.22.8-.32 1.2 10-5.21 20.32-9 30.87-12.91.29-.11.2-1.27-.03-1.22zM409 675.63c-8.06 1.59-15.75 5.08-23 9-.12.48-.25 1-.37 1.43 7.59-3.75 15.43-6.47 23.4-9.39.2-.09.13-1.09-.03-1.04zM410.66 679.79c-9.34 1.64-18.39 6.53-26.42 11.43-.13.45-.23.91-.36 1.37.05.09.11.14.17.11 8.54-5 17.59-8 26.64-11.84.24-.1.2-1.11-.03-1.07zM405.33 688.42c-8.11 1.33-16.16 5.76-23.14 10.5-.2.7-.38 1.39-.57 2.09 7.57-4.68 15.48-7.62 23.75-11.15.32-.14.27-1.49-.04-1.44zM383.22 705.56a158.71 158.71 0 0123.79-13c.37-.17.12-1.75-.12-1.66A116.66 116.66 0 00383 704c-.35.25-.11 1.77.19 1.57zM381.09 709.94c8.51-4.21 17.45-7.05 26.41-10.1.31-.1.23-1.32 0-1.27-9.42 1.78-18.12 5.75-26.51 10.26-.25.13-.13 1.24.13 1.11zM402.9 707.64c-8.86 1.33-17.78 6-25.63 10.53-.16.68-.34 1.37-.5 2.06 8.54-4.36 17.59-7.23 26.22-11.31.24-.12.18-1.32-.09-1.28zM392.92 718.09c-5.71 2.81-11.54 5.29-17.43 7.64-.16.67-.31 1.34-.47 2a96 96 0 0018.08-8.15c.33-.17.18-1.67-.18-1.49zM373.83 732.89l-.45 2c6.7-3.14 13.53-5.94 20.2-9.14.29-.14.14-1.43-.1-1.36a125 125 0 00-19.65 8.5zM390.33 732.91a99.74 99.74 0 00-17.88 5.79c-.16.69-.33 1.37-.49 2.06 6.1-2.19 12.28-4.12 18.4-6.3.39-.14.29-1.62-.03-1.55zM370.74 749.3c6.13-3.15 12.44-5.88 18.67-8.83.2-.09.08-1-.07-.92a139.07 139.07 0 00-18.74 8.6c-.25.14-.12 1.28.14 1.15zM369.23 756.22c7.48-4.35 15.12-8.38 22.78-12.4.33-.18.18-1.66-.18-1.49-7.79 3.78-15.33 8-22.77 12.45-.33.19-.14 1.61.17 1.44zM380.63 757.29c5.79-5 12.27-8.69 19.12-12 .27-.13.13-1.34-.09-1.27-7.18 2.48-13.55 6.81-19.21 11.83-.31.28-.05 1.68.18 1.49zM394.6 756.14c4.73-2.68 9.45-5.33 14-8.36.22-.15.12-1.16-.12-1-4.81 2.49-9.38 5.37-14 8.21-.27.16-.12 1.34.13 1.19zM425.07 560.58c7-2.86 13.91-6.06 20.68-9.5.36-.18.12-1.69-.11-1.6-7 2.93-13.93 6.13-20.67 9.61-.33.17-.12 1.58.1 1.49zM417.91 579c4.37-2.42 8.63-5 12.9-7.6.36-.22.13-1.73-.18-1.54-4.31 2.67-8.62 5.33-12.83 8.16-.21.14-.11 1.1.11 1zM425.58 564.5a53.65 53.65 0 0110.89-6.59c.3-.13.2-1.31 0-1.24a23.56 23.56 0 00-11 6.64c-.19.2-.08 1.36.14 1.19z"/></svg>