<svg id="Layer_1" data-name="Layer 1" xmlns="http://www.w3.org/2000/svg" viewBox="0 0 1200 1200"><defs><clipPath id="clip-path"><path fill="none" d="M0 0h1200v1200H0z"/></clipPath><style>.cls-3{fill:#eae7f4}.cls-16,.cls-4{opacity:.1}.cls-16,.cls-5{fill:#7964ac}.cls-6{fill:#fff}.cls-7{fill:#eede78}.cls-10{fill:#fadbcb}.cls-11{fill:#f17706}.cls-12{fill:#c2bca0}.cls-14,.cls-15{fill:#1c1c1c}.cls-14{fill-rule:evenodd}.cls-17{fill:#453684}</style></defs><g clip-path="url(#clip-path)"><path class="cls-3" d="M-212.82-106h1600v1318h-1600z"/><g class="cls-4"><path class="cls-5" d="M711.71 375.47C771.5 422 806.08 492.62 820.41 573.4c14.41 80.6 8.68 171.34-38.41 208.46S646.81 802.57 578.23 779s-117.5-54.58-146-99.35S395.75 576 407.34 507.78s42.82-145.73 101.05-173.34S651.8 329 711.71 375.47z"/></g><path class="cls-6" d="M704.34 262.44C777 318.92 819 404.72 836.36 502.81c17.49 97.91 10.53 208.07-46.63 253.16s-164.2 25.15-247.47-3.53S399.56 686.15 365 631.79 320.64 506 334.72 423.13s52-177 122.72-210.51 174.16-6.62 246.9 49.82z"/><g class="cls-4"><path class="cls-5" d="M999.91 317c34.27-4.28 68.19 7.35 98.86 28.77s58 52.44 54.83 79.59-36.92 50.27-66.64 64.76-55.48 20.29-79.1 15-45.17-21.63-63.43-47.37-33.17-60.75-23.3-88.45 44.48-47.99 78.78-52.3z"/></g><g class="cls-4"><path class="cls-5" d="M245.15 745.6c33.23 25.85 52.45 65.1 60.41 110s4.82 95.21-21.34 115.85-75.13 11.5-113.24-1.62-65.3-30.33-81.13-55.21S69.57 857 76 819.13s23.8-81 56.16-96.33 79.7-3.02 112.99 22.8z"/></g><g class="cls-4"><path class="cls-5" d="M274.68 230.77c3.09 19.3-2.82 38.73-14.34 56.49s-28.54 33.86-44 32.57-29.15-19.9-37.93-36.43-12.56-31-10.06-44.46 11.36-26 25.56-36.8 33.75-20 49.6-14.91 28.05 24.22 31.17 43.54z"/></g><g class="cls-4"><path class="cls-5" d="M1128.92 595.48c2.93 18.27-2.67 36.65-13.58 53.47s-27 32-41.61 30.84-27.6-18.85-35.91-34.5-11.89-29.33-9.51-42.08 10.75-24.59 24.19-34.84 31.94-18.89 47-14.12 26.5 22.94 29.42 41.23z"/></g><g class="cls-4"><path class="cls-5" d="M984.31 734.86c-6.6 7.75-16.28 12-27.21 13.43s-23.05.16-27.75-6.38-2-18.27 1.58-27.33 8-15.45 14.19-19 14.12-4.3 23.21-2.34 19.31 6.6 22.68 14.58-.11 19.27-6.7 27.04z"/></g><path class="cls-7" d="M859.37 299.08a56.09 56.09 0 018.19 3.46 53 53 0 01-8.58.75h-1.08l-.18 1.08a104.17 104.17 0 01-2.23 11.45 77.61 77.61 0 01-.23-11.22v-1.1l-1.08-.21a46.85 46.85 0 01-6.57-1.82 39.06 39.06 0 017.42-.85l1.1-.05.13-1.08a67.51 67.51 0 012-10.42 57.7 57.7 0 01.2 8.7v1zM853 252.18a71.22 71.22 0 0110.83 4.13 69.93 69.93 0 01-11.5.92h-1.08l-.18 1.05c-.9 5.47-2.28 11.71-3.31 14.27-.64-2.61-.82-8.7-.57-14l.06-1.13-1.11-.2a61 61 0 01-8.93-2.23 52.47 52.47 0 0110.11-1.11h1.08l.13-1.08c.72-5.11 2-10.94 3-12.89.52 1.75.75 6.29.49 11v1z"/><path d="M833.13 283.93l.59.08h-.61l-.08.11-.1.18-1.08 2.05c-1.67 3.21-3.41 6.39-5.13 9.55-.8 1.46-1.62 2.92-2.41 4.39a29.59 29.59 0 00-7-3.65c.31-.56.62-1.15.93-1.74 1.72-3.16 3.44-6.37 5.21-9.5l1.33-2.36a6.8 6.8 0 00.52-.82c.15-.26.23-.59.59-.72a5 5 0 013.9-.67 4.59 4.59 0 013.16 2.11 1.52 1.52 0 01.2.66v.31z" fill="#573b20"/><path d="M823 302.57c-2.2 4-4.39 8-6.54 11.91-6.7 12.17-13.14 23.87-19.28 35-12.17 22.3-23.13 42-31.6 58.86a43.16 43.16 0 00-7.42-.7c8.81-16.5 19.41-36.45 31.32-58.75 5.93-11.22 12.19-23 18.69-35.27 2.59-4.83 5.18-9.71 7.85-14.66a26.74 26.74 0 016.98 3.61z" fill="#b2a090"/><path class="cls-7" d="M801.79 250.69c5.8 1.79 12.4 4.28 14.43 5.7-2.31.77-9.3 1.33-15.35 1.41h-1.08l-.16 1.08c-1.28 7.65-3.26 16.37-4.59 19-1-2.82-1.34-11.27-1-18.74l.05-1.13-1.1-.2c-4.77-.85-10.22-2.23-12.17-3.24 2.18-.82 8.32-1.51 13.68-1.66l1.08-.06.16-1.05c1-7.42 3-15.89 4.16-17.15.89 1.39 1.33 7.91 1 14.76v1z"/><path class="cls-10" d="M769.83 412.9c.08.15.36.64-.44 1.79-2 3-6.82 4-10.62 3.62-2.78-.28-5.11-1.23-6.34-2.56v-.08a.52.52 0 00-.13-.05 1.7 1.7 0 01-.31-.41 6.14 6.14 0 004.77-2.57 6.66 6.66 0 001.18-2.44c4.83.05 10.86.8 11.89 2.7zM766 420.06c.64 1.41 1.33 3.49.79 4.59-.1.21-.38.77-1.67 1-5.16.82-13.76.59-16.48-2.08a2.42 2.42 0 01-.74-2.24 3.94 3.94 0 011.44-2.9 2.66 2.66 0 011.72-.38 13.29 13.29 0 007.44 2.79 13.83 13.83 0 001.85.11 17.51 17.51 0 005.65-.89zM764.57 428.32a3 3 0 01.82 2.16c-.15.77-1.16 1.28-1.95 1.59-3.7 1.44-13 .93-15.22-2-.26-.3-1-1.28.43-3.33 2.85 1.49 7 1.92 10.58 1.92a46.91 46.91 0 005.34-.34z"/><path class="cls-11" d="M758.84 646.34c.26.44.49.85.72 1.26a3.22 3.22 0 01-.33.28l-3.18 2.41c-4 2.85-7.73 5.4-11.68 7.83-4.68 2.8-10 6-16 7.65a20.73 20.73 0 01-9.26.41 12.35 12.35 0 01-7.76-4.49 6.86 6.86 0 01-.94-1.69c0-1 0-2.16-.06-3.31a103.42 103.42 0 00-1.25-12.43 183.54 183.54 0 00-6.1-25.92c-.42-1.31-.72-2.11-1.44-1.9s-.57 1-.23 2.36a217 217 0 014.51 25.9 110.46 110.46 0 01.7 12v2.44a45.69 45.69 0 01-.93 8.26l-.25 1.23a4.46 4.46 0 01-.24.83v.12a1.86 1.86 0 01-.38.65 2.27 2.27 0 01-.49.51 9.7 9.7 0 01-3.34 1.74 40 40 0 01-7.49 1.6c-3.06.41-5.62.66-7.47.84-.34 0-.64.08-.93.11 0-1.29-.15-2.57-.23-3.83-.67-9.39-1.59-18.4-2.62-27s-2.23-16.86-3.62-24.67c-.69-3.9-1.43-7.7-2.28-11.37-.44-1.82-.9-3.65-1.44-5.44-.25-.88-.56-1.77-.9-2.67a11.34 11.34 0 00-1.51-2.88 6.25 6.25 0 00-2.26-1.51 7.05 7.05 0 00-1.13-.41c2-19.77 2.93-43.74-.95-70.18-.51-3.44-1.15-6.91-1.85-10.43l-.25-1.2v-.16c-.08-.13.13-.13.15-.15l4.6-1.77c1.72-.67 3.41-1.34 5.16-2s3.36-1.57 5.06-2.37c3.38-1.59 6.85-3.13 10.16-5.1a163.92 163.92 0 0018.92-12.12c.23 1.8.54 4.11 1 6.88.51 3.34 1.18 7.26 2 11.63 2.13 11.22 4.72 22.82 7.72 34.5 4.39 17 9.14 32.78 14.51 48.18 3.57 10.22 7.13 19.56 10.91 28.52.67 1.64 1.38 3.26 2.13 4.88.38.87.79 1.77 1.18 2.64 1.1 2.52 2.26 5.08 3.54 7.68l1.31 2.62c.82 1.72 1.64 3.44 2.57 5.13z"/><path class="cls-10" d="M755.17 407.46a4.52 4.52 0 01-.56 3.69 3.8 3.8 0 01-3.44 1.85 7.21 7.21 0 01-4.29-1.82c-.69-.54-1.46-1.18-2-.59s.18 1.25.83 1.87a8.66 8.66 0 004.72 2.62l-1.21.51v.11a4.21 4.21 0 00-1.31.56 6.3 6.3 0 00-2.61 4.72 5 5 0 001.25 4.19c-2.23 3.15-1.23 5.36-.43 6.44 1.59 2.08 4.9 3.18 8.39 3.59a34.84 34.84 0 01-4.62 2.67 1.75 1.75 0 01-.13-.28 14.47 14.47 0 00-2.31-2.8 18.18 18.18 0 00-2.46-1.92 36.16 36.16 0 00-5.11-2.8c-.87-.38-1.75-.74-2.62-1.1l-1.31-.49a2.81 2.81 0 00-.31-.1c.21-1.47.52-3.73 1.08-6.58a63.24 63.24 0 013.78-13.24c1-2.21 2.36-4.85 4.44-5.78a2.83 2.83 0 011.38-.23l2.21.28a12.75 12.75 0 014.11 1.47 5.16 5.16 0 012.53 3.16z"/><path class="cls-12" d="M745.08 440.06l-.07.2c-.34.77-.75 1.57-1.13 2.36a91.68 91.68 0 01-5.39 9.37 124.32 124.32 0 01-13.81 17.43 141 141 0 01-15.17 13.84 161.09 161.09 0 01-21.08 14.07c-3.18 1.92-6.52 3.46-9.81 5.05-1.64.8-3.26 1.62-4.9 2.36l-5 2-5.42 2.2c-1.43.75-4 .83-2.77 2.91l.88 3.82c.74 3.39 1.43 6.78 2 10.14 4.31 25.59 4.13 49.16 3.11 68.77-.72-.18-1.44-.31-2.16-.46-2.41-.44-4.77-.77-7.06-1-4.57-.54-8.91-.93-13-1.24-8.29-.59-15.73-1-22.59-1.2-13.71-.49-25-.62-35.76-.67-10.37-.26-21.33-.44-34.6-.39-6.65 0-13.86.13-21.9.44-4 .15-8.21.36-12.68.69-2.23.18-4.52.41-6.88.72-1 .16-2 .31-3 .54-.18-12 1.28-25.75 4-41.38q2.07-12.12 5.21-25.85 1.58-6.86 3.39-14.17c.61-2.41 1.26-4.88 1.9-7.39 1-3.7 2.08-7.47 3.13-11.32h-.46a28.73 28.73 0 00-7.55 1.08c-.51.21-1.05.39-1.59.57l-1.18.46c-.8.36-1.62.72-2.44 1.1a78.51 78.51 0 00-10.13 5.89 71 71 0 00-10.27 8.45 31.85 31.85 0 00-2.39 2.8 9.49 9.49 0 00-1.87 3.92 8.17 8.17 0 00.84 4.44 19 19 0 002 3.32 48.34 48.34 0 005.72 6.49c.92.92 1.85 1.75 2.64 2.49.36.31.7.59 1 .87-2 2.31-3.62 4.21-5 5.8l-2.26 2.6c-.16.18-.31.38-.49.56s-.05 0-.05 0l-.26-.2-1.78-1.37c-1.15-.95-2.28-1.92-3.38-2.87-2.24-2-4.42-3.88-6.5-5.86-2.49-2.31-4.9-4.67-7.13-7.06a1.11 1.11 0 00-.65-.66 96.559 96.559 0 01-3.72-4.29c-.85-1-1.56-2.11-2.36-3.16a29.36 29.36 0 01-1.85-3.21 12.77 12.77 0 01-.69-1.61 15.45 15.45 0 00-.39-1.52 5.13 5.13 0 01.88-2.44c2.54-3.82 6.57-7.06 10.26-10 1.44-1.13 2.91-2.21 4.34-3.26 6.16-4.52 12.32-8.48 18.15-12.15q10.2-6.32 19.2-11.47a95.6 95.6 0 007.6 6.42c1.9 1.31 3.85 2.54 5.73 3.8 1 .61 1.84 1.28 2.84 1.82s2 1 3 1.54c2 1 3.87 2.13 5.85 3l5.93 2.41a41.16 41.16 0 005.88 2l5.77 1.75c3.88.77 7.63 1.64 11.27 2.18 3.67.36 7.19.87 10.58 1l9.7.18a126.35 126.35 0 0047.29-8 105.69 105.69 0 0015-6.78l.59 1 .77 1.54c.36.84.79 1.77 1.26 2.82.84 0 1.74-.05 2.64-.08.67 0 1.34-.13 2-.2 1.26-.23 2.54-.36 3.83-.67a68 68 0 007.7-2.16 89.48 89.48 0 0015.48-7.08 135.43 135.43 0 0025.95-19.77c1.23-1.18 2.46-2.38 3.67-3.62s2.36-2.38 3.54-3.59 2.26-2.54 3.42-3.82c2.21-2.6 4.62-5.14 6.7-8 1.08-1.36 2.15-2.77 3.26-4.16l1.49-1.93s0-.07.1 0l1.49.56c.77.31 1.56.64 2.31 1a32.37 32.37 0 014.34 2.42 17.26 17.26 0 011.79 1.43 10 10 0 01.72.77 6.7 6.7 0 01.46.62z"/><path class="cls-5" d="M735.92 331a37.57 37.57 0 01-.13 11.5 65.53 65.53 0 01-7.47 21.08 102.09 102.09 0 01-10.91 16.27 21.39 21.39 0 00-4.67-1.43 27.37 27.37 0 00-15.33 1.72 74.71 74.71 0 00-3-7.32 89 89 0 00-10.19-16.53 15.57 15.57 0 001.77-2 7.61 7.61 0 00.67-1.06l.23-.43a5.07 5.07 0 00.41-2 13.44 13.44 0 00-.46-3 30.34 30.34 0 00-4.34-9.26 37.66 37.66 0 00-5.49-6.45 91.28 91.28 0 0110.83 4.42c3.95 2 7.68 4.26 10 7.13a6 6 0 011.67 4.47 7.07 7.07 0 01-2.44 4 12.47 12.47 0 00-1.24 1.08 9.17 9.17 0 00-1 .82c-.56.51-.84.92-.74 1.13s.59.2 1.36 0a11.42 11.42 0 001.33-.49 17.32 17.32 0 001.57-.95 8.92 8.92 0 003.75-5.16 8.62 8.62 0 00-1.7-6.8c-2.64-3.83-6.52-6.49-10.6-9-8-4.62-17.35-8.06-27.54-10.93-.36-.13-.75-.24-1.13-.34-21.28-5.72-46.16-8.67-72.52-8.29-24.33.46-47.36 4.77-66.79 12.24-1.67.62-3.31 1.29-4.93 2-10.19 4.34-19.31 9.55-26.44 16.05-3.54 3.23-6.65 6.82-8.4 11a14.07 14.07 0 00-1.25 6.54 10.71 10.71 0 002.2 5.89 16.38 16.38 0 001.25 1.38 6.24 6.24 0 001.19.82c.69.41 1.15.52 1.3.34s0-.64-.43-1.26c-.21-.31-.46-.67-.75-1.05s-.54-.9-.84-1.36a9.8 9.8 0 01.28-9.91c1.77-3.39 4.8-6.42 8.24-9.19A68.49 68.49 0 01500 342a35.28 35.28 0 00-5.88 10.06 15.89 15.89 0 00-1.08 7.06.63.63 0 010 .23 2.14 2.14 0 00.23 1l.15.36a7.94 7.94 0 00.47.9l.28.33a9.07 9.07 0 001.08 1.13 22.43 22.43 0 002.28 1.77 103.63 103.63 0 00-6.16 15.61 26.92 26.92 0 00-16-2.05 18.37 18.37 0 00-9.29 4.41 10.49 10.49 0 00-1.34 1.49 79 79 0 01-7.62-16.53 56.13 56.13 0 01-2.72-22 42 42 0 018.7-21.56 62.06 62.06 0 0119.71-15.87c1.88-1.15 4-1.95 6-2.95l3.05-1.44 3.21-1.23c2.16-.79 4.26-1.69 6.47-2.41s4.47-1.36 6.73-2.06 4.54-1.25 6.88-1.82l1.77-.43c1.72-.44 3.46-.88 5.23-1.29 4.75-.87 9.55-1.87 14.43-2.64a426.17 426.17 0 0146.93-4.47c4.77-.2 9.6-.36 14.45-.44 20.33-.33 40.2.06 59.14 2 .82.05 1.62.15 2.42.23 2.46.28 4.9.51 7.34.85s4.8.77 7.18 1.12c4.83.65 9.43 1.85 14.05 2.83 9.08 2.36 17.89 5.08 25.64 9.24S728.27 313 732.1 320l1.38 2.62a21.76 21.76 0 011 2.75 29.1 29.1 0 011.44 5.63zM733.4 233.28a42.55 42.55 0 01.88 9c-.11 1.92-.29 5.52-1.9 6.08a5 5 0 01-2.88-.49 20.66 20.66 0 01-3.75-2.15 63.27 63.27 0 01-7.21-6 189.59 189.59 0 01-13.24-14.14c-7.53-8.81-15.25-18.67-24.26-31-2.26-3.15-3.7-5.13-4.7-6.34a38.32 38.32 0 006.16-11.65c.44-2.13.64-3.34-.46-3.6s-1.49.93-2 2.88c-1.59 4.29-4.49 8.06-7.42 11.5a107.78 107.78 0 01-8.75 8.88c-3.08 2.8-5.65 4.9-7.24 6.16-.8.67-1.54 1.21-2.13 1.67l-.9.64a16.22 16.22 0 00-11.11-5.7.92.92 0 00-1 .59.93.93 0 00.57 1.06 19.17 19.17 0 018.85 8.62 6.69 6.69 0 010 .87l.08.34c.15.43.36 1 .44 1.33l.43 1.62c.11.41.21.8.29 1.21.28 1.25.56 2.51.77 3.77.43 2.44.82 4.9 1.1 7.37.64 5 1 9.73 1.31 13.53.46 7.21.77 14.32.9 21.74.1 5.54.15 10.09.15 13.73a227.75 227.75 0 00-40.17-5.18 21.54 21.54 0 00-.8-6.55 16.57 16.57 0 00-8.73-9.7 31.44 31.44 0 00-13.65-2.9 25.82 25.82 0 00-13.68 3.31 17.11 17.11 0 00-7.76 10.45 26.12 26.12 0 00-.69 5.41c-21.13 1.21-36.17 6.09-43.51 9 5.77-9.53 14.09-23.05 24.69-39.61 7.83-12.17 16.43-25.39 26.24-39.41l7.8-10.91c1-1.28 2-2.59 3-3.9 1.77-2.36 3.59-4.8 5.52-7.16l4.52-5.52c1-1.18 2-2.28 3.05-3.39.59-.64 1.21-1.31 1.82-2a26.75 26.75 0 013.44-3.28c.57-.49 1.13-1 1.72-1.52a24.91 24.91 0 012.8-2.21l3.54-2.59c8.12-5.9 16.51-12 25.62-17.17 11.45-6.5 21-9.37 29.86-9 .49.05 1 .1 1.51.13.82.08 1.64.13 2.39.26a12 12 0 013 1.15 34.82 34.82 0 016.23 4.83 96.54 96.54 0 0111 13.11 242.82 242.82 0 0118.59 30.78 275 275 0 0114.81 34.07 124.52 124.52 0 014.86 17.98z"/><path class="cls-10" d="M723 393.34c.54 6.36-3.83 11.75-8.7 14.29a19.72 19.72 0 01-7.55 2.34 20.35 20.35 0 01-5.16-.23c.08-1.62.18-3.23.26-4.83-.06-2.38-.16-4.75-.39-7.06a70.36 70.36 0 00-1.46-8.77c2.49-.93 6.16-2.47 10.32-2.31a10.57 10.57 0 012.79.43 9.72 9.72 0 011.57 6c-.1 3-1.18 5.57-1.64 7.29a.3.3 0 00.1.36c.1.07.23 0 .33-.1a12.63 12.63 0 003-7.47 8.58 8.58 0 00-1-4.68 5.13 5.13 0 00-.46-.72 8.41 8.41 0 011.15.62 15.14 15.14 0 013.57 3.24c.16.17.31.28.41.23s.13-.26 0-.47a10.35 10.35 0 00-3.18-4.18 11.38 11.38 0 00-6.57-2.39 16 16 0 00-6.78 1.31 18.92 18.92 0 00-3.8 2.11c-.54-2.29-1.15-4.5-1.87-6.63a28.79 28.79 0 0114.12-.33 15.93 15.93 0 017.49 3.93 12.18 12.18 0 013.45 8.02z"/><path class="cls-11" d="M706.86 412.38h.8c-1.57 9.75-2.6 27.95.25 43.38a137.82 137.82 0 01-24 19.12 89.87 89.87 0 01-14.66 7.32 68 68 0 01-7.26 2.34c-1.18.36-2.39.54-3.57.79l-1.67.26a7.77 7.77 0 01-1 .08c-.23-.49-.46-.9-.64-1.29-.31-.61-.59-1.13-.87-1.61a11.66 11.66 0 00-.62-1c2.88-1.64 5.75-3.44 8.58-5.37a96 96 0 0022.66-21.53c6.45-8.63 11.53-18.13 14-28a48.15 48.15 0 001.62-7.36c.23-1.21.44-2.44.67-3.65a29.77 29.77 0 00.28-3.67v-.54a19.41 19.41 0 005.43.73z"/><path class="cls-10" d="M698.39 398.14c.18 2.23.26 4.49.26 6.77-.16 2.26-.31 4.57-.47 6.91a29 29 0 01-.33 3.49l-.69 3.52c-.52 2.31-.72 4.75-1.62 7-2.44 9.42-7.37 18.48-13.55 26.75a94.45 94.45 0 01-21.75 20.89 113 113 0 01-24.77 13.3 133.28 133.28 0 01-46.18 9.35c-12.11-.47-26.95-2.16-42.1-8.48-1.87-.79-3.77-1.61-5.67-2.43s-3.72-2-5.62-3c-.93-.52-1.88-1-2.83-1.54s-1.82-1.21-2.72-1.8l-5.46-3.72a94.46 94.46 0 01-19.08-19.77A86.7 86.7 0 01494 430.69q-.89-3.24-1.72-6.4c-.44-2.13-.72-4.28-1.05-6.39-.18-1-.36-2.1-.52-3.15s-.13-2.11-.2-3.14c-.13-2.1-.26-4.15-.39-6.18a87.77 87.77 0 013.11-22.77 114.58 114.58 0 015.72-16.94 37 37 0 0013.27 4.85 27.55 27.55 0 003.75.25 24.75 24.75 0 004.6-.43l.77-.23a17 17 0 006.29-3.24c.3-.25.64-.54 1-.82l.31-.26a41 41 0 009.91 2.8 46.16 46.16 0 007.39.57c1.51 0 3.05-.08 4.59-.21a42.61 42.61 0 007.47-1.36 24.73 24.73 0 004.11-1.57l.28-.15a6.67 6.67 0 00.95-.54 16.82 16.82 0 006.58 3.59 35.62 35.62 0 0010.78 1.47c1.28 0 2.59-.05 3.92-.16a35 35 0 009.07-1.92 13.78 13.78 0 003.74-2 34.38 34.38 0 006.16 2.75 28.92 28.92 0 009.09 1.59 22 22 0 004.24-.39 14.19 14.19 0 007.83-4 8.6 8.6 0 002-3.21 28.88 28.88 0 004.11 2.41 26 26 0 0011.34 2.6 22.31 22.31 0 002.26-.11 26.73 26.73 0 008.32-2.13l.31-.12a22.46 22.46 0 003.85-2.16 6.54 6.54 0 002.28-4.36 24.55 24.55 0 0010.53 2.56c.1 0 .23.05.28 0a21.17 21.17 0 0011.34-3.46c.44-.31.85-.62 1.24-.93a91.7 91.7 0 019.26 16.43 76.52 76.52 0 016.22 24.31zm-30.09 30.54a23.65 23.65 0 004.7-19.35 32 32 0 00-2.93-8.78 17.29 17.29 0 00-1.13-1.9l2.36-3.88-2.18-1.33-1.87 3.05a16.39 16.39 0 00-2.93-2.67c-.2-.12-.41-.28-.61-.41l1.13-3.56-2.44-.8-1 3.13a19.59 19.59 0 00-4.54-1.44l.41-4.21-2.54-.25-.41 4.08a37.36 37.36 0 00-4.78-.18H649l-.87-4-2.52.54.77 3.64a23.46 23.46 0 00-4 .72c-.47.13-1 .28-1.42.46l-2.54-3.54-2.1 1.49 2.16 3.06a25.37 25.37 0 00-3.42 2 4.82 4.82 0 00-.46.36l-3.11-2.65-1.66 1.95 2.74 2.34a24.18 24.18 0 00-7.44 12.76 24.88 24.88 0 00-.21 9.93 21.51 21.51 0 004.42 9.53c4.52 5.75 12 8.9 19.48 9.06a24.07 24.07 0 0019.48-9.15zm-47.82 17.74a1.26 1.26 0 00-1.1-1.41 1.28 1.28 0 00-1.44 1.1c-2 16.36-16.63 21.77-28.6 21.34-13.5-.41-28.23-8-29-21.26a1.29 1.29 0 10-2.57.16c.87 14.78 16.86 23.23 31.5 23.66h1.23c12.81-.01 27.9-6.08 29.98-23.59zm-19.3-14.81a9.59 9.59 0 00.79-5.78 12.81 12.81 0 00-1.51-4.26c-.23-.38-.51-.59-.75-.51s-.3.46-.23.87c.47 2.36.85 5.68-.87 8.27s-5.36 4.05-9.34 4-7.76-1.59-9.53-4.11a7.78 7.78 0 01-1.36-4.13 15.19 15.19 0 01.49-4c.1-.41 0-.77-.21-.87s-.51.1-.74.49a12.3 12.3 0 00-1.64 4.23 9.44 9.44 0 001 5.81c2.16 4 7.09 6.13 12 6.23a15.92 15.92 0 007-1.49 10.29 10.29 0 004.9-4.75zm-43.38-8.11a24.26 24.26 0 000-10 24.51 24.51 0 00-7-12.65l2.67-2.26-1.67-2-3 2.54a7.41 7.41 0 00-.9-.69 21.94 21.94 0 00-2.95-1.77l2-2.85-2.1-1.46-2.26 3.2c-.67-.25-1.34-.48-2-.66a25.76 25.76 0 00-3.6-.72l.67-3.13-2.52-.52-.74 3.49h-1.18a28.53 28.53 0 00-4.37.2l-.35-3.54-2.57.26.41 3.8a20.43 20.43 0 00-4.54 1.72l-.95-3-2.44.77 1.13 3.57c-.34.23-.65.49-1 .75a19 19 0 00-2.57 2.33l-1.87-3-2.1 1.26 2.31 3.75a30.49 30.49 0 00-5.19 10.85 39.24 39.24 0 00-.95 4.78 18.08 18.08 0 00.08 5.24 18.57 18.57 0 004.75 9.62c5.06 5.37 12.58 8.14 20.15 8.22s15.25-2.9 20-8.55a22.08 22.08 0 004.65-9.55z"/><path class="cls-12" d="M691.13 853.19a10.52 10.52 0 01-1.49 6.34 14 14 0 01-5.09 4.88 22.87 22.87 0 01-10.93 2.49h-3a5.05 5.05 0 00-1 0h-.51c-5.49.38-11 .59-16.28.64a127.69 127.69 0 01-15.47-.67 30.11 30.11 0 01-6.86-1.46 8.67 8.67 0 01-1.26-.64l-.41-.31c-.1-.13-.2-.28-.31-.41a4.54 4.54 0 01-.82-2.36 32 32 0 01.23-6.7c.31-2.37.59-4.7.85-7a103.62 103.62 0 00.77-13.68 87.3 87.3 0 00-2.95-21.59 56.88 56.88 0 006.55.49 41.69 41.69 0 008-.47 70.29 70.29 0 00.1 22.23 68.46 68.46 0 003.52 13.4 31.3 31.3 0 003.46 6.75 9.84 9.84 0 003.34 3.21 4.35 4.35 0 001.54.49l.82.1.54-.05 2-.15a25.11 25.11 0 008-1.9 18.21 18.21 0 006.93-5.19c1.85-2.13 3.24-4.33 4.78-5.34a8.16 8.16 0 015.85-.84 12.56 12.56 0 013.31.84 14 14 0 011.52.67l1.3.93a8.64 8.64 0 012.97 5.3z"/><path class="cls-11" d="M683.53 350.88a1.08 1.08 0 010 .46l-.16.31a2.37 2.37 0 01-.31.54 13.11 13.11 0 01-2.13 2.41 11.05 11.05 0 01-1.13 1 18.11 18.11 0 01-9.52 3.56 22.75 22.75 0 01-10.58-1.82 26.16 26.16 0 00-1.87-8.62 36.39 36.39 0 00-4.67-8.71c-.49-.61-1.11-1.36-1.72-.92s-.08 1.31.31 1.9a37.17 37.17 0 013.59 8.57 22.41 22.41 0 011.08 8.5 3.61 3.61 0 01-1.26 2.59 18.1 18.1 0 01-3.47 1.62 22.58 22.58 0 01-7.13 1.44 22 22 0 01-11.19-2.47 24.41 24.41 0 01-5.32-3.69 2.92 2.92 0 00-.87-.54.51.51 0 000-.21 42 42 0 00-2-6.21c-.28-.82-.59-1.64-.87-2.49a43.56 43.56 0 01-2.18-8.75c-.1-.72-.16-1.67-1-1.65s-.75 1.06-.72 1.77a42.25 42.25 0 001.38 9.37q.36 1.43.75 2.85a46.79 46.79 0 011.31 5.7 13.43 13.43 0 01.13 2.39l-.05.05v.28a.22.22 0 000 .11 6.4 6.4 0 01-.08.89 4.45 4.45 0 01-1.51 2.44 11 11 0 01-5.83 2.52 22.75 22.75 0 01-11-1.46 36.1 36.1 0 01-5.32-2.52 13.08 13.08 0 00-.2-2.57 37.83 37.83 0 00-1.54-5.9c-.41-1.31-.82-2.67-1.13-4a20.24 20.24 0 010-9.85c.23-.85.46-1.8-.26-2s-1.1.69-1.38 1.51a21.36 21.36 0 00-1 10.86c.26 1.59.62 3.08.95 4.55a34.89 34.89 0 011 5.28 12.36 12.36 0 010 2.06 1.78 1.78 0 01-.62 1 9.8 9.8 0 01-3.41 1.72 32 32 0 01-8 1.31 36.65 36.65 0 01-12.94-1.59c-3.74-1.26-5.1-3.08-5.23-3.24a1.67 1.67 0 00-.77-.77 40.25 40.25 0 01-.36-7.47 32.76 32.76 0 013.54-14.14c.44-.8.92-1.67.28-2.08s-1.23.38-1.74 1.15a34.61 34.61 0 00-5.09 14.84 61.17 61.17 0 00-.41 7.83v.98c0 .15 0 .23-1.08.77l-.23.12a19.91 19.91 0 01-3.41 1.16 41 41 0 01-6.73 1 44.74 44.74 0 01-10.86-.62 37.73 37.73 0 01-10.27-3.36l-.38-.18a4 4 0 00-.67-.28c0-.93 0-2 .08-3.21.38-5.75 2-10.3 4.7-13.53 1.43-1.49 1.87-2 1.36-2.52s-1.06-.13-2.62 1.34c-3.21 3.39-5.21 8.24-6 14.45a42.74 42.74 0 00-.34 5.65v2.05a1.27 1.27 0 00-.21.15 9.68 9.68 0 01-2.28 1.37 10 10 0 01-2.52.89c-.28.08-.56.13-.77.21a21.45 21.45 0 01-7-.08 33.79 33.79 0 01-12.38-5A17.21 17.21 0 01498 360a3.26 3.26 0 01-.51-.54c-.1-.13-.2-.26-.23-.26s-.08-.15-.1-.56a11.52 11.52 0 01.95-5 31.86 31.86 0 015.39-8.8 49.57 49.57 0 0112.24-10.42c.44-.26.85-.49 1.26-.7.69-.28 1.39-.56 2.08-.82 19.92-7.49 44-11.88 69.69-12.37s50.09 2 71 6.67c1 .24 1.9.44 2.82.7a50.84 50.84 0 015.78 3.26A40.39 40.39 0 01679 341a26.15 26.15 0 014.11 7.82 9.71 9.71 0 01.42 2.06z"/><path class="cls-5" d="M680.16 676c.44 7.91.7 16 .39 24.31-.1 2.44-.28 4.9-.59 7.29a21 21 0 01-1.57 6.47c-.25.46-.18.31-.23.36s0 .05-.2 0a8.4 8.4 0 01-2.65-1.2c-2-1.24-4-2.83-6.24-4.39a34 34 0 00-3.51-2.34 14.82 14.82 0 00-2.18-1 7 7 0 00-3.06-.46 13.72 13.72 0 00-4.72 1.54c-1.34.7-2.52 1.44-3.7 2.21-2.31 1.51-4.49 3.16-6.62 4.41a10.49 10.49 0 01-1.39.72 10.49 10.49 0 01-2.21-1.92c-1.49-1.57-3-3.42-4.72-5.21-.28-.31-.59-.62-.9-.93-2.13-2-4.54-4.28-8.29-5a10.76 10.76 0 00-5.49.33 13.71 13.71 0 00-4.47 2.64c-2.44 2.13-4.16 4.44-6 6.14s-3.41 2.49-5.21 2-4.11-2-6.11-3.65-4-3.75-6.44-5.75a11.92 11.92 0 00-2.14-1.51 5.53 5.53 0 00-3.79-.8 7.53 7.53 0 00-3 1.28 18.11 18.11 0 00-2 1.44c-2.44 2-4.52 4-6.65 5.91a31.75 31.75 0 01-6.21 4.67 2.15 2.15 0 01-.82.23 4.21 4.21 0 01-1-.36 17.81 17.81 0 01-3-2.16c-2-1.77-4-3.8-6.09-5.82-1-1-2.1-2-3.31-3a23.1 23.1 0 00-2-1.47 13 13 0 00-1.28-.69 8 8 0 00-1.88-.51 8.57 8.57 0 00-3.23.59 18.72 18.72 0 00-2.24 1c-1.36.72-2.59 1.49-3.82 2.26s-2.52 1.64-3.75 2.41-2.18 1.41-3.26 2.08c-2.26 1.34-4.75 2.75-6.62 3.08a1.89 1.89 0 01-.85 0 1.08 1.08 0 00-.33-.13 3.06 3.06 0 00-.47-.33 13 13 0 01-2-2.6c-1.29-2.15-2.41-4.67-4-7.21a13.62 13.62 0 00-3.44-3.72 7.38 7.38 0 00-6-1 28.3 28.3 0 00-7.83 4.14c-2.18 1.54-4.31 3.08-6.47 4.62a25.31 25.31 0 01-6 3.41 1.46 1.46 0 01-.2 0h-.08s-.08 0-.1-.1l-.1-.36-.21-.72c-.15-.49-.2-1.1-.33-1.64a49.91 49.91 0 01-.41-7.22 243.86 243.86 0 012.44-28.9c1.2-9.35 2.64-18.36 4.1-27s3-16.84 4.55-24.62c.77-3.9 1.56-7.67 2.36-11.34.44-1.83.85-3.62 1.26-5.37.2-.87.43-1.75.64-2.59l.36-1.26.15-.62.11-.23c0-.2.28-.33.38-.36a11.89 11.89 0 011.49-.43c1.08-.26 2.21-.46 3.34-.62 2.26-.33 4.49-.56 6.67-.77 4.36-.38 8.55-.64 12.53-.85 8-.41 15.17-.61 21.77-.77 13.24-.28 24.18-.33 34.55-.3 10.7.28 22 .66 35.65 1.38 6.83.39 14.25.85 22.44 1.54 4.11.36 8.39.77 12.86 1.39q3.39.42 6.83 1.08c.82.18 1.67.36 2.49.59a8.46 8.46 0 01.9.23 6.8 6.8 0 012.41 1.05 10.72 10.72 0 01.85 1.82c.28.77.54 1.59.77 2.42.46 1.69.87 3.44 1.26 5.23.77 3.57 1.43 7.32 2.07 11.17 1.24 7.73 2.29 15.91 3.21 24.49s1.75 17.56 2.31 26.85c.11 1.45.22 2.95.27 4.45zm-117.95-38.36l1.77-.75c-.18-.43-.61-1.46-6.49-1.23-.18-1-.39-1.95-.64-2.92a25.79 25.79 0 00-2-5.37 7 7 0 00-2.15-2.54 11.32 11.32 0 00-2.67-1.34 30.68 30.68 0 00-8.29-1.51 20.48 20.48 0 01.2-3.34l-1.9-.3a22.46 22.46 0 00-.23 3.54h-.1a51.81 51.81 0 00-8.16.41c-.16-1.57-.31-3-.41-3.9l-1.93.2c0 .18.21 1.88.41 4a35.25 35.25 0 00-8.19 2.28c-2.59 1.13-5.26 2.75-6.36 5.54a42.18 42.18 0 00-2.31 12c-1.75.16-3.62.26-5.4.34l.08 1.92c1.08 0 3-.13 5.19-.31 0 1-.11 1.9-.13 2.85 0 1.54 0 3.13.05 4.75-1.67.05-3.44 0-5.11 0l-.08 1.92c.77 0 2 .05 3.44.05h1.83a46.13 46.13 0 001.05 8c-2.39.57-4.29 1.16-4.44 1.21l.59 1.85c.05 0 1.95-.62 4.31-1.19a29.08 29.08 0 001 3.16 20.83 20.83 0 001.28 2.54 9.22 9.22 0 002.06 2.31 14.22 14.22 0 005.36 2.67 35.42 35.42 0 005.37 1c-.13 2.51.28 4.8 2.13 5.49l.66-1.8c-.77-.28-1-1.71-.87-3.54 1.36.08 2.75.11 4.13.08s2.8-.08 4.21-.21c-.12 2.85.26 5.09 1.75 5.5l.56-1.83c-.36-.33-.46-1.82-.3-3.85 1.82-.18 3.67-.43 5.51-.79a43.46 43.46 0 006-1.52l1.51-.64a9.78 9.78 0 001.65-1 7.32 7.32 0 002-3.51 43.82 43.82 0 001.18-10.71 11.47 11.47 0 013.36.31l.72-1.8a13.34 13.34 0 00-4.06-.46c0-3.16-.2-6.26-.49-9.29a9.9 9.9 0 013.88-.18l.62-1.82a11 11 0 00-4.68.07c-.23-2.11-.51-4.21-.89-6.27 2.28-.1 4-.05 4.54.26a1.18 1.18 0 01-.12-.33z"/><path class="cls-6" d="M670 409.89a20.87 20.87 0 01-21.08 24.26c-6.62-.13-13-2.85-16.89-7.6s-5-11.09-3.9-16.66a22.2 22.2 0 018.34-13.42 23.37 23.37 0 016.45-3.49 25.34 25.34 0 016.67-1.26c4.34.23 9.37.95 13.32 4.06s6.19 8.31 7.09 14.11zm-6.73 3.6a13.89 13.89 0 00-.23-2.6 8.46 8.46 0 11-11.93-11.52 14.76 14.76 0 00-2.11-.15 14.27 14.27 0 1014.27 14.27z"/><path class="cls-7" d="M656.29 277.41V282a420.88 420.88 0 00-42.92-2.21 22.17 22.17 0 002.54-7.65 224.78 224.78 0 0140.38 5.27z"/><path class="cls-12" d="M644.77 806.21c.05.11 0 .13-.06.57a2.45 2.45 0 01-.59 1.08 4.5 4.5 0 01-2.64 1.23 43.09 43.09 0 01-8.14.41 48.33 48.33 0 01-8.21-.69 9.1 9.1 0 01-3.11-1.13 1.45 1.45 0 01-.54-.62 1 1 0 01.08-.67c.13-.43 1.21-.92 2.21-1.15a22.7 22.7 0 013.23-.57c2.16-.23 4.24-.35 6.09-.53 1.87.18 3.95.3 6.1.53a28.82 28.82 0 013.29.52 4.56 4.56 0 012.29 1.02z"/><path class="cls-10" d="M638.48 802.29c-2 0-3.75.18-5.39.31-1.65-.13-3.44-.29-5.42-.31-.77-9-1.72-18.2-2.7-28-2.28-22.25-4.62-45.23-4.87-65.41.38-.38.77-.77 1.15-1.1 1.8-1.54 3.57-2.16 5.42-1.8s3.8 1.85 5.59 3.6a5.89 5.89 0 01.65.67c.33 11.36 1.87 55.43 5.57 92.04z"/><path class="cls-7" d="M612.55 264a20.51 20.51 0 01.9 9.8 24 24 0 01-1.65 6h-4.62a13.92 13.92 0 002.06-9.55 10.18 10.18 0 00-2-4.57 11.72 11.72 0 00-4-3.26 22.2 22.2 0 00-9.88-2.18 19.33 19.33 0 00-10 2.23 11.48 11.48 0 00-5.62 8.06 15 15 0 001.88 10c-1.52.08-3 .16-4.5.26a21.47 21.47 0 01-1.66-5.83 24 24 0 01.79-9.93 14.49 14.49 0 016.73-8.29c3.33-1.93 7.54-2.67 11.88-2.65a30.28 30.28 0 0112.2 2.36 14 14 0 017.49 7.55z"/><path d="M606.21 270.86a11.91 11.91 0 01-.57 6.86 13.81 13.81 0 01-1.07 2.1c-2.26 0-4.5 0-6.76.08-5.28.08-10.52.26-15.73.51a13.27 13.27 0 01-1.28-9.26 8.4 8.4 0 014.33-5.62 16.29 16.29 0 018.19-1.65 20.51 20.51 0 018.4 1.65 7.73 7.73 0 014.49 5.33z" fill="#c088bd"/><path class="cls-7" d="M570.94 272.2a21.57 21.57 0 002.69 8.7c-13 .85-25.77 2.26-38.17 4.29-4.64.77-9.24 1.77-13.81 2.67l.62-1c.79-1.33 1.72-2.82 2.72-4.49 4.9-2.16 21.41-8.73 45.95-10.17z"/><path class="cls-5" d="M555.48 646.57c.21 2.83.34 5.73.34 8.65-1.82.11-3.34.26-3.7.29l.18 1.92c1-.1 2.23-.18 3.49-.26a40.71 40.71 0 01-1.08 9.58 4.94 4.94 0 01-.77 1.69c-.25.13-.59.34-1 .52l-1.2.51a47.84 47.84 0 01-5.42 1.41c-1.46.28-3 .52-4.44.69.15-1 .33-2.07.57-3.15l-1.88-.41c-.25 1.23-.51 2.51-.69 3.77-1.57.18-3.11.26-4.65.31h-3.57a33.12 33.12 0 01.93-3.54l-1.82-.62a41.62 41.62 0 00-1.08 4c-5.32-.36-10.22-1.72-11.71-6.28-.33-.85-.64-1.7-.9-2.55a19.3 19.3 0 013.83-.33l.1-1.93a22.28 22.28 0 00-4.47.39 50.16 50.16 0 01-1.25-7.5c2.82-.18 5.44-.61 6.36-1.48l-1.36-1.37c-.46.47-2.51.77-5.16.93-.1-1.59-.18-3.13-.23-4.65v-3.1c3-.34 5.9-.93 6.75-1.88l-1.41-1.28c-.44.44-2.54.87-5.29 1.21a41.79 41.79 0 011.51-11.17c.9-2 3.21-3.36 5.7-4.26a33.87 33.87 0 017.7-1.72c.31 2.57.64 5.13.85 5.93l1.87-.46c-.18-.7-.48-3.11-.77-5.68a52.22 52.22 0 017.73-.1.61.61 0 01.23 0c0 3 .21 5.82.23 6l1.9-.1c0-.08-.15-2.83-.2-5.78a29.4 29.4 0 017.21 1.54 8.94 8.94 0 011.9 1 4 4 0 011.18 1.49 22.54 22.54 0 011.54 4.7c.18.77.33 1.54.49 2.31-1.21.1-2.59.25-4.13.43l.23 1.93c1.38-.15 2.85-.31 4.23-.44.36 2.08.64 4.24.85 6.45v.38c-1.7.41-3 .8-3.37.9l.57 1.85c.95-.2 1.98-.48 3.08-.74z"/><path class="cls-6" d="M554.77 414a19.87 19.87 0 01-4.34 16.73c-4 4.7-10.6 7.24-17.3 7.22s-13.35-2.54-17.61-7a15.43 15.43 0 01-4.06-7.8 21.52 21.52 0 01.59-8.7c1.34-5.73 4.11-10.81 8-14.09a21.21 21.21 0 0113.14-4.88 25.46 25.46 0 016.75 1.26 23.25 23.25 0 016.49 3.56 22.35 22.35 0 018.34 13.7zm-7.35 3.23a15 15 0 00-.25-2.59 8.44 8.44 0 01-15.56-4.57 8.37 8.37 0 013.65-6.93 14.77 14.77 0 00-2.11-.18 14.27 14.27 0 1014.27 14.27z"/><path class="cls-10" d="M552.64 706.51a26.72 26.72 0 012.25 2.06c-.2 20.25-2.56 43.4-4.85 65.79-1 9.75-1.95 19-2.72 27.93-2 0-3.77.18-5.41.31-1.65-.13-3.42-.29-5.4-.31 3.78-37.33 5.29-82.4 5.6-92.62.82-.54 1.62-1 2.44-1.57 1.15-.72 2.31-1.43 3.44-2a9.82 9.82 0 011.62-.77c.25-.11.43-.11.64-.21s.15 0 .18 0 0 0 0-.05v-.28.33c.05 0 0-.05.13 0l.56.3a12.72 12.72 0 011.52 1.09z"/><path class="cls-12" d="M553.43 806.39a.86.86 0 01.08.67 1.14 1.14 0 01-.52.62 8.91 8.91 0 01-3.13 1.13 47.83 47.83 0 01-8.19.69 43.36 43.36 0 01-8.16-.41 4.6 4.6 0 01-2.64-1.23 2.24 2.24 0 01-.57-1.08c-.1-.44-.13-.46-.07-.57a4.47 4.47 0 012.31-1 27.32 27.32 0 013.26-.52c2.18-.23 4.23-.35 6.11-.53 1.87.18 3.92.3 6.1.53a23.62 23.62 0 013.24.57c1 .21 2.05.74 2.18 1.13zM546.94 854.94a32.08 32.08 0 01.25 6.7 4.73 4.73 0 01-.84 2.36c-.11.13-.21.28-.31.41l-.41.31a7.74 7.74 0 01-1.26.64 29.45 29.45 0 01-6.85 1.46 128 128 0 01-15.48.67c-5.32 0-10.76-.26-16.25-.64h-.52a5.38 5.38 0 00-1 0h-2.92a22.87 22.87 0 01-10.94-2.49c-2-1.31-4-2.8-5.08-4.88a10.26 10.26 0 01-1.51-6.34 8.75 8.75 0 012.92-5.36l1.31-.93a10.21 10.21 0 011.52-.67 12.05 12.05 0 013.28-.84 8.24 8.24 0 015.88.84c1.54 1 2.93 3.21 4.75 5.34a18.52 18.52 0 006.93 5.19 25.36 25.36 0 008 1.9l2 .15.54.05.82-.1a4.39 4.39 0 001.56-.49 10.22 10.22 0 003.34-3.21 30.75 30.75 0 003.44-6.75 66.41 66.41 0 003.52-13.4 68.56 68.56 0 00.1-22.23 41.84 41.84 0 008 .47 56.89 56.89 0 006.57-.49 86.83 86.83 0 00-2.95 21.59 103.49 103.49 0 00.74 13.68c.28 2.36.56 4.69.85 7.06z"/><path class="cls-11" d="M517.49 497.92v.26c-.33 1.26-.64 2.51-1 3.75-.61 2.54-1.23 5-1.82 7.47-1.16 4.93-2.21 9.7-3.18 14.35q-1.67 7.92-2.9 15.35a34.68 34.68 0 00-5.47-5.55c0-.05.07-.07.1-.13s0 0 .08-.07c-.64-.52-1.34-1.08-2-1.7-.44-.38-.47-.43-.7-.64l-.54-.54c-.74-.72-1.59-1.54-2.44-2.46a45.79 45.79 0 01-5.08-6.21 14.72 14.72 0 01-1.49-2.73 4.72 4.72 0 01-.46-2.25 5.85 5.85 0 011.21-2.11 21 21 0 012.1-2.26 68.11 68.11 0 019.83-7.57 79.17 79.17 0 019.6-5.34c.75-.33 1.49-.64 2.21-.92s1.13-.44 1.67-.62a1.11 1.11 0 01.28-.08z"/><path class="cls-10" d="M507.92 542.89c-.39 2.41-.75 4.78-1.08 7.09-.67 4.54-1.21 8.9-1.64 13.14a27.22 27.22 0 01-11.61 12.91c-5.85 3.06-12.37 3.72-17.48 1.77a11.54 11.54 0 01-6-5.13 11.13 11.13 0 01-1.26-7.39 10.34 10.34 0 013.6-6.11 9.56 9.56 0 01.87-.67 5.13 5.13 0 00.51-.39 14.05 14.05 0 011.39-.66 1.57 1.57 0 011.74.33 13.07 13.07 0 012.62 4.21c.26.51.52 1 .77 1.57l.18.3a10.44 10.44 0 002.42 3.29 5.39 5.39 0 004.1 1.18 3.83 3.83 0 001.21-.23 15.55 15.55 0 006.06-3.65l.28-.23a34.43 34.43 0 004.13-4.49c.52-.67 1.11-1.44 1.65-2.26.25-.38.48-.77.71-1.15a6.53 6.53 0 00.7-2 7.91 7.91 0 00-1.57-5.16l-.26-.36a27.18 27.18 0 00-4-4.39l-.25-.2c-.18-.16-.34-.29-.46-.42.43-.59.92-1.2 1.46-1.89 1.41-1.8 3-3.88 4.9-6.32 1.71 1.48 4.95 4.42 6.31 7.31z"/><path class="cls-11" d="M502.84 457.51a91.44 91.44 0 0010.52 12.32c-6 3.08-12.35 6.55-19 10.48-5.08 3-10.4 6.23-15.79 9.91 1.18-8.63 2.13-18.56 1.23-24.7l-.66-4.59-3.55 3c-1.79 1.51-4.54 1.1-6.64.43 12.62-15.35 15.76-38.63 13.88-52.08a21.69 21.69 0 004.47-.93v.44c0 1.08.08 2.18.13 3.26s.31 2.18.49 3.28c.33 2.19.59 4.42 1 6.63.57 2.21 1.13 4.41 1.7 6.67a87.33 87.33 0 0012.22 25.88zM504.76 568.15a27.5 27.5 0 01-9.88 10.24 27 27 0 01-13.22 3.67A20.9 20.9 0 01475 581a15.17 15.17 0 01-8-6.44 15 15 0 01-1.92-9.88 13.46 13.46 0 01.59-2.41 14.16 14.16 0 014.13-6.14 15.81 15.81 0 011.26-1l.56-.41a11.68 11.68 0 012.34-1.18 5.79 5.79 0 015.78 1 12.56 12.56 0 012.87 3.64l1.75 3.37a6.65 6.65 0 001.48 2.15 1.41 1.41 0 001.26.05 12.62 12.62 0 004.37-2.92 31.62 31.62 0 003.54-3.95c.51-.67 1-1.31 1.39-2 .2-.3.38-.61.53-.89l.11-.26a4.58 4.58 0 00-1-2.08 23.65 23.65 0 00-3.54-3.72l-.39-.34c-.15.21-.36.44-.54.65l-3.26-2.57-1.77-1.46c-1.15-1-2.31-2-3.46-2.91-2.26-2-4.49-3.92-6.62-5.92-1.78-1.67-3.52-3.34-5.19-5.06-1.23 5.21-3.65 15.35-8.21 31.16-.54 1.8-1.08 3.67-1.67 5.62-3.83 12.74-7.63 24.11-12 35.81-2.74 7.42-5.77 14.92-9 22.28-1.77 4.11-3.72 8.27-5.59 12.17L429.19 648l.18.26s.36.33.64.59l1.33 1.23a92 92 0 007.94 6.45 72.75 72.75 0 0013.24 7.75 50.13 50.13 0 009 3.11l.95.23c.54.12 1.05.25 1.59.36l4.08.51h3l.26-.31 1.25-1.72a43.74 43.74 0 002.57-4.49c.33-.67.69-1.39 1-2.16a67 67 0 003.44-9.57 91.74 91.74 0 002.23-11.24c.41-4.16.61-5.62 2.13-5.5s1.51 1.57 1.31 5.81a96.65 96.65 0 01-1.67 12 78.66 78.66 0 01-3.08 10.4c.2 1.28 1.51 8 6 9.44.1-.77.21-1.56.31-2.33 1.33-9.42 2.85-18.46 4.44-27.11s3.24-16.87 4.93-24.67c.85-3.9 1.69-7.7 2.57-11.4.46-1.82.92-3.64 1.36-5.41.25-.9.48-1.8.72-2.67l.41-1.34.2-.67.39-1a4.07 4.07 0 012.28-1.87 1.56 1.56 0 00.21-.08 162.47 162.47 0 01.36-24.45z"/><path class="cls-10" d="M490.9 381.94v.08c-.56 2-1.1 4-1.56 6a18.15 18.15 0 00-11-3.24 12.9 12.9 0 00-6.86 2.52 11.82 11.82 0 00-3.51 4.16c-.13.23-.13.43 0 .49s.28 0 .44-.21a16.86 16.86 0 014.44-3.49c-.08.1-.13.23-.21.33a8.85 8.85 0 00-1.05 4.68 12.82 12.82 0 003 7.47.28.28 0 00.36.1c.1-.05.13-.21.1-.36a31 31 0 01-1.67-7.29 9.81 9.81 0 011.49-5.85 12.71 12.71 0 013.59-.72 25.69 25.69 0 0110.66 2.18 73.87 73.87 0 00-2.08 16.61c.05 1.38.1 2.77.18 4.16a20.1 20.1 0 01-5.88.38 19.56 19.56 0 01-7.55-2.34c-4.87-2.54-9.26-7.93-8.7-14.29a12.22 12.22 0 013.41-8 15.87 15.87 0 017.5-3.93 28.94 28.94 0 0114.9.56z"/><path class="cls-14" d="M589.27 496.12c-12.1-.47-26.95-2.16-42.08-8.46l-5.7-2.45c-1.91-.86-3.71-2-5.6-3l-2.84-1.54c-.95-.52-1.8-1.19-2.72-1.79l-5.46-3.73a94.37 94.37 0 01-19.06-19.77A86.47 86.47 0 01494 430.65c-.58-2.14-1.14-4.27-1.71-6.38s-.7-4.29-1.06-6.39l-.51-3.15c-.07-1.06-.13-2.11-.2-3.15-.12-2.09-.25-4.15-.37-6.19a87.9 87.9 0 013.09-22.77 113.17 113.17 0 016.58-18.85l-1.39-.68a104.42 104.42 0 00-7.57 18.91 86.17 86.17 0 00-3.86 23.41c.09 2.1.17 4.23.26 6.39.05 1.08.09 2.17.14 3.26s.32 2.17.47 3.27c.34 2.19.6 4.42 1 6.64l1.7 6.66a87.35 87.35 0 0012.22 25.85 94.62 94.62 0 0020 20.49c1.89 1.32 3.82 2.55 5.71 3.81 1 .6 1.86 1.28 2.85 1.81l2.95 1.55c2 1 3.87 2.12 5.85 3l5.92 2.41a45.35 45.35 0 005.88 2l5.78 1.73c3.88.79 7.62 1.64 11.27 2.19 3.67.36 7.18.88 10.57 1l9.71.17zM681.21 354.92a97.12 97.12 0 0111 18.86 77.11 77.11 0 016.19 24.34c.17 2.22.25 4.48.25 6.76q-.24 3.42-.48 6.91a29.75 29.75 0 01-.33 3.51c-.22 1.16-.45 2.32-.68 3.49a46.73 46.73 0 01-1.62 7c-2.45 9.44-7.36 18.49-13.55 26.77a94.45 94.45 0 01-21.76 20.88 113.26 113.26 0 01-24.77 13.3 133.46 133.46 0 01-46.18 9.35v1.54a126.12 126.12 0 0047.28-8 112.07 112.07 0 0025.67-13.31 95.39 95.39 0 0022.67-21.55c6.44-8.62 11.52-18.12 14-28a49.74 49.74 0 001.61-7.37l.66-3.66a29.76 29.76 0 00.29-3.65q.19-3.66.38-7.21-.06-3.57-.39-7a76.92 76.92 0 00-7.05-25 92 92 0 00-12-18.82z"/><path class="cls-14" d="M488.22 409.34a20.46 20.46 0 01-6.89.6 19.74 19.74 0 01-7.55-2.32c-4.88-2.56-9.25-7.95-8.7-14.3a12.12 12.12 0 013.41-8 15.85 15.85 0 017.5-3.92 28.86 28.86 0 0115 .54l.58-1.44a27.28 27.28 0 00-16.21-2.11 18.29 18.29 0 00-9.28 4.41 15.3 15.3 0 00-4.61 10.31 16.5 16.5 0 003.06 10.77 20 20 0 007.89 6.5 21 21 0 008.82 2 19.87 19.87 0 007.54-1.57z"/><path class="cls-14" d="M467.94 392c.11.06.28 0 .44-.2a15 15 0 0110.07-5.13c4.71-.27 8.85 1.49 11.44 2.46.23.08.43.07.48 0s0-.27-.23-.41a18.37 18.37 0 00-11.82-3.84 12.86 12.86 0 00-6.83 2.5 12 12 0 00-3.54 4.16c-.11.15-.11.35-.01.46z"/><path class="cls-14" d="M475.53 386.09a.28.28 0 00-.37 0 6.23 6.23 0 00-2.55 2.54 8.7 8.7 0 00-1.05 4.67 12.69 12.69 0 003 7.47.28.28 0 00.34.11.3.3 0 00.11-.36c-.46-1.74-1.54-4.35-1.66-7.3a9.85 9.85 0 012.1-6.73.33.33 0 00.08-.4zM699.31 410.79a19.82 19.82 0 007.53 1.57 21 21 0 008.82-2 20 20 0 007.89-6.5 16.44 16.44 0 003.06-10.77 15.3 15.3 0 00-4.61-10.3 18.26 18.26 0 00-9.28-4.41 27.28 27.28 0 00-16.21 2.11l.58 1.44a28.86 28.86 0 0115-.54 15.93 15.93 0 017.51 3.92 12.16 12.16 0 013.4 8c.55 6.35-3.82 11.74-8.69 14.3a19.84 19.84 0 01-7.56 2.32 20.4 20.4 0 01-6.88-.6z"/><path class="cls-14" d="M720.12 392c.11-.05.13-.25 0-.47a10.44 10.44 0 00-3.12-4.23 11.38 11.38 0 00-6.58-2.38 15.65 15.65 0 00-6.77 1.31 21.91 21.91 0 00-4.48 2.57c-.19.14-.28.3-.22.41s.25.12.47 0c2.5-.87 6.43-2.69 10.92-2.51a12 12 0 015.82 1.75 14.73 14.73 0 013.57 3.24c.12.22.27.31.39.31z"/><path class="cls-14" d="M712.53 386.09a.33.33 0 00.05.36 9.75 9.75 0 012.1 6.73 30.39 30.39 0 01-1.66 7.3.32.32 0 00.11.36c.11.06.24 0 .35-.11a12.76 12.76 0 003-7.47 8.7 8.7 0 00-1-4.67 6.23 6.23 0 00-2.55-2.54.28.28 0 00-.4.04zM533.22 395.49a26.1 26.1 0 016.75 1.26 23.36 23.36 0 016.5 3.57 22.45 22.45 0 018.29 13.68 19.89 19.89 0 01-4.34 16.72c-4 4.7-10.62 7.24-17.32 7.21s-13.34-2.53-17.61-7a15.47 15.47 0 01-4-7.8 21.16 21.16 0 01.6-8.7c1.33-5.74 4.09-10.81 8-14.11a21.24 21.24 0 0113.15-4.87v-1.55a22.57 22.57 0 00-14.67 4.54c-4.59 3.49-7.87 9.06-9.49 15.23a36.57 36.57 0 00-.95 4.79 18 18 0 00.07 5.23 18.7 18.7 0 004.76 9.62c5.06 5.38 12.56 8.14 20.14 8.23s15.25-2.91 20-8.57a21.89 21.89 0 004.7-9.53 24.31 24.31 0 000-10.05 24.57 24.57 0 00-17.2-18.59 26.49 26.49 0 00-7.35-.9zM649.58 391.7c4.34.22 9.36.94 13.31 4.05s6.2 8.32 7.1 14.11a20.87 20.87 0 01-21.08 24.27c-6.63-.13-13-2.85-16.88-7.61s-5-11.09-3.92-16.64a22.22 22.22 0 018.36-13.44 23.58 23.58 0 016.44-3.5 25.89 25.89 0 016.67-1.24v-1.55a26.68 26.68 0 00-7.27.87 25.18 25.18 0 00-7.27 3.46 24.51 24.51 0 00-9.94 14.76 24.76 24.76 0 00-.18 9.94 21.34 21.34 0 004.4 9.54c4.51 5.74 12 8.91 19.5 9a24.11 24.11 0 0019.47-9.12 23.62 23.62 0 004.71-19.3 31.9 31.9 0 00-2.93-8.77 19.11 19.11 0 00-5.75-6.72c-4.8-3.38-10.26-3.74-14.75-3.66z"/><path class="cls-14" d="M540.05 418.54a8.45 8.45 0 01-4.82-15.4 14.63 14.63 0 00-2.1-.17 14.27 14.27 0 1014.27 14.27 13.79 13.79 0 00-.25-2.59 8.41 8.41 0 01-7.1 3.89zM655.91 414.76a8.46 8.46 0 01-4.82-15.41 14.26 14.26 0 1012.17 14.1 14.76 14.76 0 00-.24-2.59 8.45 8.45 0 01-7.11 3.9z"/><path class="cls-15" transform="rotate(-31.58 514.322 400.67)" d="M513.12 398.05h2.57v5.31h-2.57z"/><path class="cls-15" transform="rotate(-17.49 520.252 395.927)" d="M519.03 393.67h2.57v4.6h-2.57z"/><path class="cls-15" transform="rotate(-5.86 527.114 392.804)" d="M526.16 390.73h2.57v4.62h-2.57z"/><path class="cls-15" transform="rotate(-77.94 535.993 392.784)" d="M533.87 391.5h4.18v2.57h-4.18z"/><path class="cls-15" transform="rotate(-54.94 544.582 394.985)" d="M542.16 393.7h4.75v2.57h-4.75z"/><path class="cls-15" transform="rotate(-40.41 550.7 399.108)" d="M548.3 397.83h4.89v2.57h-4.89z"/><path class="cls-15" transform="rotate(-58.42 668.87 396.345)" d="M666.18 395.06h5.31v2.57h-5.31z"/><path class="cls-15" transform="rotate(-72.49 662.892 391.622)" d="M660.63 390.34h4.6v2.57h-4.6z"/><path class="cls-15" transform="rotate(-84.17 655.773 388.691)" d="M653.49 387.4h4.62v2.57h-4.62z"/><path class="cls-15" transform="rotate(-12.06 647.22 388.418)" d="M646 386.34h2.57v4.18H646z"/><path class="cls-15" transform="rotate(-35.11 638.68 390.627)" d="M637.43 388.25H640V393h-2.57z"/><path class="cls-15" transform="rotate(-49.63 632.568 394.775)" d="M631.21 392.32h2.57v4.89h-2.57z"/><path class="cls-14" d="M578.65 421c-.21-.1-.51.09-.75.48a12 12 0 00-1.64 4.24 9.26 9.26 0 001 5.8c2.16 4 7.08 6.14 12 6.23a16.23 16.23 0 007.06-1.47 10.52 10.52 0 004.92-4.73 9.66 9.66 0 00.78-5.78 12.65 12.65 0 00-1.51-4.26c-.22-.4-.51-.6-.73-.51s-.31.44-.24.86c.46 2.37.84 5.68-.87 8.27s-5.37 4.05-9.35 4-7.76-1.59-9.52-4.11a7.83 7.83 0 01-1.37-4.14 15.14 15.14 0 01.49-4c.08-.38-.05-.74-.27-.88z"/><path class="cls-15" d="M590.47 470h-1.23c-14.62-.45-30.62-8.89-31.48-23.67A1.27 1.27 0 01559 445a1.29 1.29 0 011.36 1.2c.77 13.25 15.51 20.84 29 21.25 12 .43 26.64-5 28.61-21.32a1.28 1.28 0 012.54.3c-2.14 17.46-17.23 23.57-30.04 23.57z"/><path class="cls-14" d="M486.69 369.41c.15-.18 0-.65-.43-1.27l-.75-1.05c-.24-.42-.52-.87-.85-1.35a9.77 9.77 0 01.3-9.91c1.76-3.37 4.78-6.42 8.24-9.18 7-5.53 16-10.06 25.89-13.8 19.94-7.5 44.06-11.88 69.69-12.37s50.09 2 71 6.69c10.41 2.42 20 5.32 28.08 9.28 4 2 7.68 4.27 10 7.13a6.06 6.06 0 011.69 4.48 6.92 6.92 0 01-2.46 4c-.45.38-.86.74-1.22 1.08a12.91 12.91 0 00-1 .83c-.55.51-.83.92-.73 1.14s.59.2 1.35 0c.38-.11.83-.27 1.33-.47s1-.59 1.57-1a9.16 9.16 0 003.76-5.16 8.74 8.74 0 00-1.69-6.8c-2.66-3.84-6.53-6.5-10.61-9-8.28-4.8-18.06-8.32-28.67-11.26-21.29-5.72-46.17-8.69-72.52-8.29s-51.32 5.55-71.73 14.21c-10.18 4.35-19.31 9.56-26.45 16-3.52 3.25-6.62 6.83-8.39 11a14.11 14.11 0 00-1.26 6.53 11.05 11.05 0 002.14 5.87c.44.52.87 1 1.26 1.38a7.06 7.06 0 001.18.82c.67.54 1.13.66 1.28.47z"/><path class="cls-14" d="M466.06 386.36a76.56 76.56 0 01-8.95-18.63 55.65 55.65 0 01-2.72-22 42 42 0 018.69-21.56 61.82 61.82 0 0119.73-15.85c1.87-1.16 4-2 6-3l3.06-1.44 3.2-1.22c2.15-.79 4.26-1.7 6.47-2.41l6.72-2.06c2.23-.75 4.55-1.27 6.88-1.83l7-1.71c4.77-.86 9.55-1.87 14.44-2.64a453 453 0 0161.42-4.87c21.18-.37 41.87.07 61.55 2.23 2.45.29 4.91.51 7.33.84l7.2 1.15c4.82.64 9.42 1.85 14 2.8 9.08 2.37 17.9 5.11 25.65 9.26S728.25 313 732.08 320l1.38 2.62a21.12 21.12 0 011 2.74 29 29 0 011.41 5.65 38.14 38.14 0 01-.14 11.49 65.25 65.25 0 01-7.48 21.07 100.45 100.45 0 01-11.68 17.24l2.27 2.11a100 100 0 0012.91-17.38 68.13 68.13 0 008.75-22.23 42.88 42.88 0 00.53-13 34.21 34.21 0 00-1.46-6.63 26 26 0 00-1.14-3.25l-1.54-3.13c-4.34-8.37-12-14.56-20.25-19.23s-17.53-7.69-27-10.3c-4.76-1.06-9.56-2.38-14.48-3.09l-7.4-1.27c-2.49-.37-5-.62-7.5-.94-20.13-2.4-41.08-2.93-62.52-2.56a429.65 429.65 0 00-62.35 5.28c-5 .84-9.91 1.93-14.79 2.88l-7.21 1.85c-2.39.61-4.77 1.18-7.09 2l-6.95 2.25c-2.29.78-4.51 1.77-6.75 2.64l-3.33 1.34-3.22 1.58c-2.11 1.11-4.31 2-6.31 3.28a66.69 66.69 0 00-21.13 17.86 46.76 46.76 0 00-9.1 24.53 58.9 58.9 0 003.81 23.6 77.32 77.32 0 0010.26 19.18z"/><path class="cls-15" d="M738.69 232.31a128.24 128.24 0 00-4.9-18.91 270.72 270.72 0 00-14.7-35 243.4 243.4 0 00-18.76-31.82 105 105 0 00-11.72-14.11 40.73 40.73 0 00-7.58-5.91 18.09 18.09 0 00-5-1.91 27.92 27.92 0 00-3.18-.38c-.49 0-1-.07-1.58-.14a50.28 50.28 0 00-18 2.64 85.72 85.72 0 00-15.72 7.08c-9.54 5.36-18.05 11.49-26.28 17.42l-3.72 2.73a29.78 29.78 0 00-3.07 2.42c-.55.49-1.12 1-1.68 1.46a36.17 36.17 0 00-4.14 4c-.58.64-1.17 1.27-1.75 1.89-1.15 1.23-2.29 2.45-3.37 3.72l-4.65 5.66c-2 2.45-3.89 5-5.72 7.38-1 1.31-2 2.61-3 3.92l-7.92 11c-10 14.28-18.61 27.52-26.42 39.7-14.42 22.57-24.51 39.39-29.93 48.43l-4.06 7c-.23.44-.84 1.6.24 2.22l3.67 2.17a1.36 1.36 0 00.65.19c.7 0 1.17-.71 1.41-1.07l4.42-7.19c5.42-9 15.52-25.67 29.71-47.85 7.83-12.18 16.43-25.39 26.25-39.42l7.81-10.95c1-1.28 2-2.6 3-3.92 1.77-2.36 3.6-4.8 5.52-7.15l4.53-5.54c1-1.16 2-2.27 3.05-3.38.6-.65 1.19-1.29 1.82-2a29 29 0 013.43-3.3c.57-.49 1.14-1 1.72-1.52a27.24 27.24 0 012.79-2.2l3.56-2.6c8.12-5.89 16.51-12 25.61-17.15 11.46-6.5 21-9.38 29.86-9 .49 0 1 .09 1.52.12a19.64 19.64 0 012.39.26 11.64 11.64 0 013 1.15 33.56 33.56 0 016.22 4.83 96.31 96.31 0 0111.06 13.1 246.09 246.09 0 0118.57 30.8 269.79 269.79 0 0114.8 34.05 123.91 123.91 0 015 18 42.61 42.61 0 01.86 9c-.1 1.93-.27 5.51-1.89 6.07a4.72 4.72 0 01-2.86-.47 20.67 20.67 0 01-3.77-2.15 63.27 63.27 0 01-7.21-6 188 188 0 01-13.24-14.15c-7.53-8.8-15.24-18.65-24.26-31-2.26-3.14-3.7-5.12-4.69-6.33a38.48 38.48 0 006.16-11.66c.43-2.13.63-3.34-.47-3.6s-1.48.94-2 2.87c-1.59 4.29-4.51 8.07-7.41 11.5a104.65 104.65 0 01-8.76 8.88c-3.09 2.82-5.64 4.92-7.25 6.19-.8.65-1.53 1.2-2.14 1.66l-.88.64a16.81 16.81 0 00-2-2 15.51 15.51 0 00-9.15-3.72.85.85 0 00-.42 1.65 19.32 19.32 0 018.85 8.61c0 .39 0 .65-.05.89l.06.33a14.16 14.16 0 01.45 1.35l.44 1.62c.1.39.2.78.29 1.18.28 1.27.55 2.52.76 3.79.44 2.43.81 4.9 1.11 7.36.64 5 1 9.72 1.29 13.53.47 7.21.77 14.33.91 21.74.19 9.74.14 16.4.12 20.39v2.42c0 1.51 0 2.8 1.12 2.83h5.54l.29-.28c.2-.21.44-.45.43-2.56v-1.8c0-3.79-.06-10.85-.45-21.22-.29-7.5-.74-14.72-1.39-22.07-.45-4.57-.92-9.06-1.66-13.85-.37-2.57-.83-5.15-1.35-7.66a72.04 72.04 0 00-.92-4c-.11-.45-.24-.91-.37-1.37l-.8-2.47.49-.53 2.78-2.6c2.47-2.31 4.75-4.57 7-6.89s4.84-5.19 7.47-8.54c.83 1.31 2 3.13 3.82 5.72 8.71 12.54 16.26 22.64 23.76 31.78a191.13 191.13 0 0013.29 14.76 69.77 69.77 0 007.66 6.61 25.83 25.83 0 004.65 2.74 11.86 11.86 0 002.88.89 7.28 7.28 0 003.6-.2c2.55-.76 4.08-3.32 4.62-5.27a22.43 22.43 0 00.81-5.4 48.51 48.51 0 00-.88-10.13z"/><path class="cls-14" d="M576.75 284.34c.19-.16 0-.74-.49-1.48a21 21 0 01-2.77-7.91 23.92 23.92 0 01.8-9.94 14.53 14.53 0 016.72-8.3 23.66 23.66 0 0111.89-2.63 30.18 30.18 0 0112.18 2.36 13.92 13.92 0 017.46 7.56 20.56 20.56 0 01.88 9.82 23.33 23.33 0 01-2.64 8c-.4.77-.61 1.36-.42 1.51s.74-.22 1.29-.95A22.26 22.26 0 00615.3 263a16.57 16.57 0 00-8.72-9.68 31.44 31.44 0 00-13.65-2.9 25.91 25.91 0 00-13.68 3.3 17.15 17.15 0 00-7.77 10.45c-1.91 8 .49 15.28 3.94 19.26.58.73 1.16 1.06 1.33.91z"/><path class="cls-14" d="M584.31 283.3a13 13 0 01-3.53-12.19 8.53 8.53 0 014.33-5.62 16.68 16.68 0 018.2-1.64 20.59 20.59 0 018.39 1.66 7.77 7.77 0 014.5 5.32 12 12 0 01-.58 6.85 13.42 13.42 0 01-3.55 5.09L603 284a14 14 0 006.21-13.78 10.16 10.16 0 00-2-4.57 11.87 11.87 0 00-4-3.27 22.45 22.45 0 00-9.9-2.18 19.08 19.08 0 00-10 2.25 11.47 11.47 0 00-5.61 8c-1 6.18 1.9 11.64 5.6 14z"/><path class="cls-15" d="M659.61 278.17c-13.41-3.37-27.65-5.29-44.82-6.07l.12-2.56c17.34.78 31.74 2.73 45.33 6.14zM523.47 283.08l-1.18-2.28c.76-.4 19-9.7 49.7-11.26l.13 2.56c-30.12 1.53-48.47 10.9-48.65 10.98z"/><path class="cls-14" d="M515.25 468.8c-6.55 3.35-13.53 7.15-20.94 11.49a244.68 244.68 0 00-23.15 15.16c-3.89 3.09-8 6.13-11.29 10.95a8.5 8.5 0 00-1.47 4.92l.54 2.33a16.82 16.82 0 00.87 2.08 30 30 0 002.15 3.76c.84 1.14 1.65 2.32 2.54 3.41a123.11 123.11 0 0011.88 12.47c2.13 2 4.36 4 6.62 5.92l3.47 2.91 1.77 1.45 3.26 2.59c.53-.63 1.1-1.23 1.68-2l1.34-1.68 2.11-2.7 6.58-8.47.07-.09c-.64-.5-1.32-1.06-2-1.69-.44-.38-.46-.43-.68-.63s-.36-.36-.55-.54c-.75-.73-1.59-1.56-2.44-2.47a45.69 45.69 0 01-5.08-6.2 14.72 14.72 0 01-1.49-2.73 4.71 4.71 0 01-.47-2.26 6.1 6.1 0 011.22-2.09 24.62 24.62 0 012.09-2.28 68.83 68.83 0 019.84-7.58 76.9 76.9 0 019.61-5.32c.75-.34 1.48-.65 2.2-.94l1.68-.61a1.21 1.21 0 01.27-.09v.26c-.32 1.26-.64 2.51-.95 3.75q-.93 3.79-1.82 7.48-1.73 7.38-3.17 14.33-2.89 13.9-4.65 26.22c-2.41 16.41-3.32 30.86-2.38 43.47l2.32-.14c-.27-12.36 1.18-26.53 4-42.7q2.1-12.15 5.22-25.87 1.56-6.87 3.38-14.15c.63-2.43 1.26-4.89 1.91-7.4l3.11-11.32H524a28.76 28.76 0 00-7.54 1.1l-1.58.55-1.2.48c-.8.33-1.6.7-2.42 1.09a77 77 0 00-10.12 5.98 69.66 69.66 0 00-10.26 8.44 29.85 29.85 0 00-2.38 2.78 9.35 9.35 0 00-1.88 3.94 8.13 8.13 0 00.85 4.43 18.17 18.17 0 002 3.31 48.58 48.58 0 005.72 6.51c.93.92 1.83 1.74 2.64 2.47l1 .88-5 5.8c-.83.95-1.57 1.82-2.24 2.6l-.49.57v.06c0 .06 0 0 0 0l-.27-.22-1.83-1.42-3.39-2.88c-2.22-1.94-4.41-3.87-6.49-5.84a121.71 121.71 0 01-11.49-12c-.84-1-1.58-2.1-2.36-3.14a28 28 0 01-1.86-3.22 14.3 14.3 0 01-.69-1.6c-.11-.51-.24-1-.38-1.52a5.17 5.17 0 01.87-2.44c2.54-3.82 6.57-7.07 10.26-10 7.61-5.91 15.31-10.86 22.5-15.4s14-8.56 20.37-12.18z"/><path class="cls-15" d="M508 559.42l-.15-.27-.28-.07c-.62-.14-.76.22-1.37 1.73l-.33.84c-2.69 6.53-7.05 11.65-12.28 14.41-5.85 3.06-12.39 3.73-17.48 1.77a11.67 11.67 0 01-6-5.14 11.12 11.12 0 01-1.25-7.4 10.34 10.34 0 013.58-6.1c.28-.24.58-.45.88-.66l.51-.38a8.67 8.67 0 011.39-.67 1.57 1.57 0 011.74.32 13.42 13.42 0 012.63 4.21c.26.51.51 1 .78 1.56l.17.32a10.27 10.27 0 002.4 3.27 4.84 4.84 0 002.76 1.19 4.7 4.7 0 001.35 0 5 5 0 001.22-.23 15.77 15.77 0 006-3.65l.29-.24a35.88 35.88 0 004.14-4.49c.51-.65 1.09-1.42 1.63-2.25.26-.38.5-.77.72-1.16a5.7 5.7 0 00.69-2 7.78 7.78 0 00-1.57-5.15l-.24-.37a27 27 0 00-4-4.38l-.24-.21c-1.79-1.58-2.09-1.45-2.49-1.05l-2 2.64-.2.21v.28c0 .35.15.49 1.48 1.64a23.94 23.94 0 013.55 3.71 4.39 4.39 0 011 2.1l-.08.24c-.17.29-.34.6-.55.91-.41.64-.88 1.29-1.38 2a31.09 31.09 0 01-3.55 4 12.62 12.62 0 01-4.37 2.92c-.42.12-1 .21-1.25 0a7 7 0 01-1.49-2.18l-1.76-3.34a12 12 0 00-2.86-3.67 5.83 5.83 0 00-5.77-1 12 12 0 00-2.35 1.18l-.56.42c-.43.33-.87.65-1.27 1a14.43 14.43 0 00-4.71 8.54 14.87 14.87 0 001.94 9.88 15.21 15.21 0 008 6.46 21.1 21.1 0 006.71 1.07 27 27 0 0013.22-3.68c5.6-3.28 10.08-9 12.61-16.1.72-2.4.51-2.83.44-2.98zM508.33 543.93c-1.33-4.37-8-9.25-8-9.3l1.52-2.07c.3.22 7.39 5.43 9 10.62z"/><path class="cls-14" d="M668.64 597.76c2.12-20.22 3.38-45.12-.69-72.7-.5-3.44-1.14-6.92-1.84-10.42l-.26-1.23v-.15c-.07-.11.12-.13.15-.14l4.6-1.78 5.16-2c1.69-.74 3.37-1.57 5.07-2.36 3.39-1.59 6.85-3.14 10.14-5.1a152.16 152.16 0 0037.7-28.74A125.17 125.17 0 00743 454.9a96 96 0 005.66-9.95c.41-.87.84-1.7 1.21-2.61l.46-1.08.47-1.25a11 11 0 00-1-2.44 12.75 12.75 0 00-2.31-2.8 22.62 22.62 0 00-2.45-1.94 36.18 36.18 0 00-5.12-2.79c-.86-.39-1.73-.75-2.61-1.09l-1.31-.49c-.63-.21-1.4-.5-2.22-.73l-1.21-.37c-.19 0-.45-.25-.57-.06l-.4.49q-.79 1-1.59 2l-1.72 2.25-3.13 4.13c-2 2.79-4.31 5.28-6.44 7.87-1.09 1.26-2.13 2.57-3.25 3.78l-3.38 3.58a143.08 143.08 0 01-28.19 23.39 90.67 90.67 0 01-14.66 7.32 62.48 62.48 0 01-7.27 2.34c-1.2.36-2.4.53-3.58.8l-1.67.25a5 5 0 01-.94.08c-.24-.48-.45-.91-.64-1.28-.31-.61-.6-1.14-.88-1.62a18.24 18.24 0 00-1.67-2.51l-1.77 1.51a18.1 18.1 0 011.3 2.18l.78 1.55c.37.83.79 1.75 1.27 2.8a26 26 0 002.63-.06l2-.21c1.26-.22 2.56-.35 3.82-.67a64.42 64.42 0 007.71-2.15 91 91 0 0015.48-7.08 140.67 140.67 0 0029.64-23.39l3.54-3.6c1.17-1.22 2.25-2.54 3.39-3.82 2.23-2.6 4.63-5.13 6.71-7.95 1.08-1.38 2.17-2.77 3.25-4.17l1.51-1.93s0-.08.1 0l1.47.57c.79.31 1.57.65 2.33 1a31.14 31.14 0 014.33 2.41 17.73 17.73 0 011.8 1.44c.28.25.48.51.73.76s.43.63.45.61c0 .08 0-.13-.09.19-.33.79-.75 1.59-1.13 2.38a90.86 90.86 0 01-5.4 9.36 122.88 122.88 0 01-13.8 17.44 151.57 151.57 0 01-36.25 27.9c-3.18 1.93-6.52 3.47-9.8 5.06-1.64.78-3.26 1.6-4.9 2.35l-5 2-5.42 2.19c-1.42.76-4 .82-2.77 2.91l.88 3.82c.74 3.4 1.43 6.78 2 10.14 4.52 26.92 4.08 51.6 2.92 71.78z"/><path class="cls-15" d="M758 406.52a8 8 0 00-1.3-2.89l-.12-.15a11.08 11.08 0 00-2.1-2 15.36 15.36 0 00-5.19-2.23l-2.57-.47a6.75 6.75 0 00-3.21.37 10.4 10.4 0 00-4.42 3.48 24.88 24.88 0 00-2.48 4.08 64.69 64.69 0 00-4.55 14.11c-.85 3.94-1.25 6.78-1.42 8-.12.84-.17 1.6.55 1.74l3.34.38.29.05.23-.17c.19-.14.34-.32.47-1.36.16-1.29.51-4 1.21-7.68a65.37 65.37 0 013.78-13.25c1-2.2 2.38-4.84 4.44-5.76a2.82 2.82 0 011.39-.24l2.23.29a12.18 12.18 0 014.09 1.46 5 5 0 012.47 3.16 4.57 4.57 0 01-.56 3.68 3.82 3.82 0 01-3.44 1.85 7.13 7.13 0 01-4.29-1.82c-.69-.55-1.46-1.18-2-.59s.18 1.25.83 1.87a8.86 8.86 0 005.28 2.73 6.18 6.18 0 005.76-2.54 7.38 7.38 0 001.29-6.1z"/><path class="cls-15" d="M760.35 420.93a18.4 18.4 0 01-1.86-.09c-4.62-.47-8.08-2.44-9.26-5.28l2.37-1c.79 1.9 3.59 3.36 7.15 3.72 3.79.4 8.57-.59 10.63-3.61.79-1.17.52-1.66.43-1.82-1.15-2.08-8.69-2.82-13.69-2.65l-.08-2.56c2.25-.08 13.71-.22 16 4 .51.93.82 2.46-.56 4.49-2.41 3.57-7.16 4.8-11.13 4.8z"/><path class="cls-15" d="M759.2 428.6c-4.46 0-9.75-.66-12.35-3.2a5 5 0 01-1.51-4.43 6.35 6.35 0 012.62-4.74 5.89 5.89 0 014.49-.59l-.75 2.46a3.22 3.22 0 00-2.37.31 4 4 0 00-1.45 2.91 2.46 2.46 0 00.76 2.24c2.71 2.65 11.31 2.9 16.47 2.06 1.3-.21 1.57-.79 1.66-1 .67-1.44-.57-4.36-1.27-5.55l2.21-1.31c.29.5 2.81 4.91 1.39 7.94a4.42 4.42 0 01-3.57 2.43 41.82 41.82 0 01-6.33.47z"/><path class="cls-15" d="M757.85 435.38c-4.5 0-9.6-1.06-11.69-3.81-.82-1.08-1.83-3.38.6-6.67l2.06 1.53c-1.65 2.23-.87 3.25-.61 3.59 2.25 3 11.51 3.45 15.21 2 .8-.31 1.79-.83 2-1.6.21-1-.92-2.37-1.23-2.67l1.8-1.84c.25.25 2.47 2.51 1.95 5-.32 1.52-1.51 2.69-3.55 3.47a19.59 19.59 0 01-6.54 1z"/><path class="cls-15" d="M748.29 441.18l-.59-2.5c3-.7 8-4.2 9.71-5.49l1.56 2c-.26.24-6.53 5.02-10.68 5.99z"/><path class="cls-14" d="M758.1 407.76c8.8-16.53 19.46-36.52 31.39-58.91 5.94-11.21 12.21-23 18.71-35.28q4.92-9.18 10-18.69c1.72-3.15 3.44-6.35 5.22-9.48l1.34-2.36c.22-.35.35-.53.51-.83s.23-.59.57-.72a5 5 0 013.92-.66 4.64 4.64 0 013.15 2.09 2.34 2.34 0 01.21.67v.31c-1.42-.13 2.13.22.94.12a4.52 4.52 0 00-1-.07l-.06.09-.12.19-1.06 2.05c-1.66 3.2-3.42 6.38-5.13 9.53l-10.2 18.58-19.27 35c-12.17 22.3-23.13 42-31.63 58.87l1.42.62c8.94-16.27 20.44-35.92 32.9-58l19.63-34.79q5.07-9.11 10.31-18.55c1.73-3.17 3.48-6.32 5.19-9.59.58-1.25 2.72-4.16 1.13-6.72a8.17 8.17 0 00-5.63-4 8.72 8.72 0 00-6.67 1.17 3.69 3.69 0 00-1.23 1.28c-.35.48-.74 1-1 1.47l-1.37 2.41c-1.82 3.21-3.52 6.4-5.24 9.57l-9.92 18.77-18.35 35.49c-11.56 22.59-21.74 42.84-30 59.62z"/><path class="cls-15" d="M824.58 303.73a26.89 26.89 0 00-9.8-5.18l.57-2.5a28.79 28.79 0 0110.87 5.7zM794.92 281a1.88 1.88 0 01-1.4-.66c-2.52-2.8-2.27-15.63-2.09-20.22-8.39-1.59-13-3.27-13.62-5a1.8 1.8 0 01.29-1.78c1.73-2.17 10.54-2.82 15.25-3 1.78-12.2 4-18.39 6.67-18.39a2.19 2.19 0 011.61.73c2.16 2.28 2 11.72 1.85 15.84 5 1.56 14.45 4.82 15.59 7.21a1.82 1.82 0 01.07 1.46c-.29.71-1.14 2.83-17.18 3.13-2.21 13.05-4.4 20-6.53 20.61a1.79 1.79 0 01-.51.07zm-14.11-26.44c2 1 7.42 2.37 12.18 3.23l1.11.21-.06 1.12c-.36 7.48-.07 15.92 1 18.73 1.34-2.62 3.33-11.35 4.6-19l.17-1.06h1.07c6-.08 13-.64 15.35-1.41-2-1.4-8.63-3.89-14.43-5.68l-.95-.29v-1c.36-6.85-.08-13.36-1-14.77-1.17 1.27-3.13 9.74-4.17 17.15l-.15 1.07h-1.08c-5.3.14-11.45.85-13.64 1.69zM847.59 276.08a1.76 1.76 0 01-1.31-.61c-2-2.22-1.89-11.66-1.73-15.91-10-1.89-10.58-3.52-10.78-4.07a1.67 1.67 0 01.28-1.66c1.38-1.72 7.74-2.28 12.07-2.46 2.15-14.52 4.67-14.52 5.51-14.52a2 2 0 011.47.66c1.73 1.82 1.71 8.72 1.55 12.49 5.35 1.67 11.45 3.94 12.33 5.76a1.72 1.72 0 01.06 1.37c-.27.66-1 2.38-13.64 2.64-2.65 15.46-4.66 16.05-5.33 16.24a1.59 1.59 0 01-.48.07zM837.18 255a57.11 57.11 0 008.93 2.25l1.11.2-.06 1.12c-.26 5.29-.07 11.39.55 14 1-2.57 2.43-8.81 3.33-14.28l.18-1.06h1.07a70.54 70.54 0 0011.49-.94 71 71 0 00-10.78-4.13l-1-.3v-1c.25-4.67 0-9.21-.5-11-1 1.94-2.32 7.78-3 12.88l-.15 1.07h-1.08a57 57 0 00-10.09 1.19zM855.29 320.26a1.65 1.65 0 01-1.28-.65c-1.57-2-1.5-10.23-1.37-14-7.63-1.66-8.2-3.11-8.4-3.59a1.69 1.69 0 01.2-1.61c1.08-1.52 5.51-2.09 9.44-2.29 1.7-12.86 3.64-12.86 4.58-12.86a1.78 1.78 0 011.31.58c1.42 1.49 1.47 7.25 1.33 11.14 3.59 1.28 8.79 3.39 9.6 5.08a1.67 1.67 0 01.09 1.31c-.24.67-.79 2.22-10.69 2.47-2.09 13.78-3.64 14.2-4.39 14.4a1.52 1.52 0 01-.42.02zm-7.64-18.8a42.07 42.07 0 006.56 1.82l1.08.22v1.1a77.52 77.52 0 00.24 11.22 108.81 108.81 0 002.24-11.47l.16-1.08H859a52.75 52.75 0 008.56-.74 56 56 0 00-8.17-3.48l-.9-.31v-1a55 55 0 00-.21-8.7 68.47 68.47 0 00-2 10.41l-.13 1.08h-1.1a41.19 41.19 0 00-7.4.93z"/><path class="cls-14" d="M585.89 590c-10.38-.27-21.33-.46-34.61-.39-6.64 0-13.86.14-21.89.43-4 .16-8.23.36-12.68.71-2.23.17-4.51.39-6.88.71-1.19.16-2.39.35-3.64.64a13.66 13.66 0 00-2 .56 4.18 4.18 0 00-2.3 1.87l-.37 1-.21.67-.4 1.33c-.24.88-.49 1.77-.73 2.67-.44 1.78-.9 3.6-1.35 5.44q-1.32 5.52-2.58 11.38-2.53 11.7-4.93 24.68c-1.58 8.64-3.11 17.68-4.44 27.1a249 249 0 00-2.72 29.53 53.41 53.41 0 00.42 8c.14.71.18 1.37.4 2.13l.33 1.12.17.56c.11.25.26.53.4.79a12.22 12.22 0 001 1.5 5.38 5.38 0 001.56.9 5.71 5.71 0 001.8.24 4.31 4.31 0 001-.09 5.52 5.52 0 00.71-.16 17.55 17.55 0 004.17-1.89c1.21-.72 2.34-1.47 3.45-2.24l6.45-4.54a24.64 24.64 0 016.23-3.36c.43-.09.77-.17 1-.06s.47.15.76.31a8.22 8.22 0 012 2.27c1.32 2 2.41 4.51 3.92 7.06a16.43 16.43 0 003 3.88c.39.32.8.62 1.22.9a12 12 0 001.56.67 7.35 7.35 0 003.24.1 17.56 17.56 0 004.61-1.62c1.37-.66 2.63-1.39 3.86-2.13 2.47-1.49 4.81-3.06 7.14-4.53 1.16-.73 2.33-1.45 3.45-2a14.23 14.23 0 011.62-.75 6.42 6.42 0 01.64-.2c.13-.06.16 0 .17 0s0 0 0-.06v-.4.45s0-.05.12 0l.57.31a16 16 0 011.42 1.07c1 .81 2 1.76 3 2.74 2 2 4 4 6.32 6a23.33 23.33 0 004 2.87 8.45 8.45 0 003.11 1 6.16 6.16 0 001.86-.15 7.63 7.63 0 001.49-.51 20.41 20.41 0 004.25-2.68c1.23-1 2.34-2 3.45-2.94 2.2-2 4.3-4 6.4-5.69.52-.42 1-.79 1.51-1.11a8.76 8.76 0 01.9-.49l.28.15a10.85 10.85 0 011.37 1c2 1.66 4.06 3.78 6.35 5.71s4.81 4 8.52 4.8a9.43 9.43 0 005.74-.49 14.29 14.29 0 004.32-2.91c2.26-2.19 3.94-4.42 5.76-6a6.16 6.16 0 015.41-1.81c1.8.28 3.78 1.85 5.58 3.59s3.5 3.88 5.51 6a13 13 0 004.12 3.19 14.2 14.2 0 001.94.4c.65-.13 1.32-.18 1.94-.37a18.53 18.53 0 002.22-1.15c2.53-1.53 4.64-3.15 6.82-4.58s4.47-2.77 6-2.92a.64.64 0 01.36 0s.3.08.48.14a8.69 8.69 0 011.44.65c1 .57 2 1.28 3.07 2 2.09 1.47 4.18 3.1 6.6 4.57a13 13 0 004.43 1.86 4.52 4.52 0 001.76 0 3.58 3.58 0 001.73-.56 5.12 5.12 0 002.29-2.4 17 17 0 001.46-4.28c.3-1.37.49-2.69.65-4 .31-2.62.46-5.18.55-7.72.3-10.14-.21-19.87-.86-29.26s-1.58-18.41-2.62-27-2.23-16.86-3.61-24.66c-.69-3.9-1.43-7.69-2.29-11.36-.43-1.84-.89-3.65-1.43-5.44-.27-.89-.56-1.78-.91-2.68a11.51 11.51 0 00-1.51-2.88 6 6 0 00-2.26-1.51 17.15 17.15 0 00-2-.68c-1.28-.37-2.51-.61-3.72-.85-2.43-.45-4.77-.77-7.07-1.05-4.57-.56-8.91-.93-13-1.23-8.26-.61-15.71-1-22.57-1.21-13.71-.49-25-.63-35.76-.67v2.32c10.7.3 22 .68 35.65 1.41 6.83.37 14.24.82 22.44 1.53 4.1.36 8.39.78 12.87 1.37 2.24.31 4.53.64 6.82 1.1 1.14.24 2.3.48 3.39.81a7 7 0 012.41 1 9.31 9.31 0 01.84 1.83c.28.77.54 1.58.77 2.42.48 1.67.89 3.43 1.28 5.22.77 3.58 1.43 7.33 2.06 11.18 1.24 7.73 2.29 15.92 3.23 24.49s1.73 17.55 2.31 26.85 1 18.94.6 28.75c-.11 2.44-.27 4.89-.58 7.29a21.46 21.46 0 01-1.57 6.47c-.25.46-.18.29-.24.36s0 .05-.2 0a8.93 8.93 0 01-2.64-1.21c-2-1.23-4-2.83-6.23-4.39a40.5 40.5 0 00-3.52-2.32 13.14 13.14 0 00-2.19-1.05 7 7 0 00-3.05-.45 13.64 13.64 0 00-4.73 1.54 39.51 39.51 0 00-3.69 2.2c-2.32 1.51-4.51 3.15-6.62 4.41a13.16 13.16 0 01-1.39.73h-.06a9.78 9.78 0 01-2.21-1.91c-1.74-1.85-3.49-4.06-5.6-6.14s-4.57-4.29-8.31-5.06a10.7 10.7 0 00-5.5.34 14.07 14.07 0 00-4.47 2.64c-2.43 2.12-4.15 4.43-6 6.14s-3.43 2.49-5.22 2-4.09-2-6.12-3.64-4-3.76-6.42-5.77a15.45 15.45 0 00-2.13-1.52 5.58 5.58 0 00-3.8-.78 7.88 7.88 0 00-3 1.27c-.72.47-1.37 1-2 1.44-2.43 2-4.52 4-6.64 5.9a29.83 29.83 0 01-6.2 4.67 1.84 1.84 0 01-.83.23 3.18 3.18 0 01-1-.36 17.76 17.76 0 01-3-2.15c-2-1.76-4-3.79-6.09-5.81-1-1-2.1-2-3.31-3a19.42 19.42 0 00-2-1.48c-.38-.24-.87-.47-1.3-.69a7.78 7.78 0 00-1.86-.5 8.16 8.16 0 00-3.25.59 21.94 21.94 0 00-2.22 1c-1.37.73-2.6 1.5-3.82 2.26-2.42 1.54-4.72 3.1-7 4.49s-4.72 2.75-6.61 3.09a2.13 2.13 0 01-.85 0 1 1 0 00-.34-.13 2.87 2.87 0 00-.44-.34 11.87 11.87 0 01-2-2.59c-1.3-2.15-2.43-4.69-4-7.21a13 13 0 00-3.43-3.73 7.29 7.29 0 00-6-1 28.2 28.2 0 00-7.84 4.14l-6.47 4.61a24.88 24.88 0 01-6 3.43l-.23.06s-.07 0-.1-.11l-.1-.37-.22-.72a15.41 15.41 0 01-.31-1.64 47.29 47.29 0 01-.42-7.21 246.2 246.2 0 012.42-28.91c1.22-9.35 2.65-18.35 4.11-27s3-16.84 4.56-24.63q1.15-5.85 2.36-11.34c.42-1.82.84-3.62 1.24-5.39l.66-2.59.34-1.25.18-.6.08-.25c0-.2.3-.32.41-.36a13.2 13.2 0 011.48-.44c1.08-.25 2.21-.44 3.33-.61 2.25-.33 4.48-.57 6.67-.76 4.37-.4 8.55-.65 12.53-.85 8-.41 15.16-.61 21.78-.77 13.24-.28 24.17-.34 34.54-.32z"/><path class="cls-14" d="M516.52 630.91c.91-2 3.22-3.35 5.69-4.26a35.7 35.7 0 018.24-1.8 55.49 55.49 0 019.16-.23 32.47 32.47 0 019.35 1.72 8.26 8.26 0 011.92 1 3.78 3.78 0 011.17 1.48 23.46 23.46 0 011.55 4.69 81.31 81.31 0 011.66 10.68c.34 3.68.55 7.46.53 11.28a47 47 0 01-1.09 11.24 5.31 5.31 0 01-.78 1.69c-.24.14-.59.35-.93.52l-1.22.5a39.88 39.88 0 01-5.42 1.41 67 67 0 01-11.09 1.23c-7.06 0-15.21-.33-17.25-6.45-2.44-6-2.87-12.59-3.08-18.48 0-5.92.16-11.62 1.59-16.23l-1.44-.57c-1.89 5-2.34 10.67-2.57 16.8 0 6.12.08 12.79 2.68 19.69a23.48 23.48 0 001.29 2.55 9.86 9.86 0 002 2.3 14.56 14.56 0 005.37 2.67 42.33 42.33 0 0011.44 1.21 69.18 69.18 0 0011.71-1.17 43.52 43.52 0 006-1.53l1.53-.63a12 12 0 001.64-1 7.16 7.16 0 002-3.51 47.8 47.8 0 001.2-12.27 110.66 110.66 0 00-.66-11.63 79.84 79.84 0 00-1.91-11.13 26 26 0 00-1.94-5.38 6.87 6.87 0 00-2.15-2.52 10.88 10.88 0 00-2.68-1.35 34.75 34.75 0 00-10.32-1.63 55.62 55.62 0 00-9.6.61 36 36 0 00-8.66 2.34c-2.62 1.14-5.29 2.76-6.39 5.55z"/><path class="cls-15" d="M507.47 644.61l-.07-1.93c5.59-.2 12.1-1 12.89-1.81l1.43 1.28c-1.72 1.85-11.34 2.35-14.25 2.46zM510.83 653.84c-1.43 0-2.67 0-3.43-.06l.07-1.92c5.49.2 12-.13 12.86-1l1.34 1.38c-1.39 1.35-6.88 1.6-10.84 1.6zM509.85 664.84l-.59-1.84c.31-.1 7.6-2.39 11.79-2.18l-.1 1.92c-3.95-.18-11.03 2.07-11.1 2.1zM531.38 680.83c-4.07-1.53-1.2-11.05-.58-12.94l1.83.59c-1.3 4-2.23 9.92-.57 10.54zM541.28 680.85c-2.66-.72-1.84-7.39-.69-12.86l1.89.39c-1.06 5-1.36 10-.63 10.64zM552.3 657.41l-.19-1.92c.92-.09 9-.85 11.34.06l-.72 1.79c-1.4-.55-7.14-.25-10.43.07zM552.49 647.34l-.57-1.84c.88-.27 8.7-2.62 11.48-1.7l-.62 1.82c-1.65-.55-7.19.76-10.29 1.72zM550.19 638.2l-.23-1.91c13.09-1.58 13.76 0 14 .57l-1.77.76a.43.43 0 00.17.21c-.92-.57-7.04-.25-12.17.37zM530.78 630.86c-.43-1.75-1.49-11.87-1.54-12.3l1.92-.2c.3 2.89 1.16 10.69 1.49 12zM540.05 630.68c0-.37-.54-9.11 0-12.38l1.9.33c-.52 3 0 11.85 0 11.94zM486.68 676.37c-9.55-1.45-11.19-13.76-11.26-14.28l5.09-.65c0 .1 1.24 9 6.94 9.86z"/><path class="cls-15" d="M484 633.43c-1.52-.13-1.72 1.34-2.13 5.5a89.7 89.7 0 01-2.19 11.31 69.24 69.24 0 01-3.42 9.58 46.21 46.21 0 01-3.61 6.64l-1.26 1.73-.25.29h-3l-4.07-.52c-.54-.1-1.07-.22-1.6-.35l-.95-.22a52 52 0 01-9-3.1 74.44 74.44 0 01-13.24-7.77 91.94 91.94 0 01-7.94-6.44L430 648.8c-.28-.26-.62-.59-.65-.59l-.18-.25 5.53-10.61c1.87-3.89 3.84-8.06 5.61-12.15 3.23-7.38 6.26-14.87 9-22.28 4.38-11.72 8.19-23.1 12-35.81 5.74-19.31 8.57-31.29 9.92-37l.66-3c.2-1 .44-2.2-.82-2.49l-3.27-.76c-1.24-.3-1.59.89-1.87 1.87l-.75 2.93c-1.38 5.69-4.27 17.53-10 36.6-3.84 12.58-7.63 23.82-12 35.4-2.71 7.31-5.69 14.69-8.86 22-1.71 4-3.64 8.08-5.47 11.91l-3.08 6.15-2.74 5.09c-.33.58-.59 1.15-.86 1.71l-.8 1.67.65.65c.21.2.42.43.67.68.46.48 1 1 1.68 1.69l2.74 2.51a108.67 108.67 0 008.56 6.76 80.56 80.56 0 0014.41 8.25 56.33 56.33 0 0010.18 3.27l.93.2c.63.15 1.27.3 2 .41l4.61.52h2.08c1 0 2.35 0 3.43-.07h.62l1.55-2.22 1.6-2.65a60.06 60.06 0 003.48-7.57 75.34 75.34 0 003.09-10.4 93 93 0 001.68-12c.18-4.22.17-5.68-1.33-5.79zM477.79 495.13l-5.07-.8c1.64-10.38 2.41-18.88 2.25-24.52-5.45 1.27-11.33-2.11-11.64-2.29l-2.8-1.66 2.26-2.34c13.81-14.31 16.93-39.42 14.69-51.88l5-.91c2.36 13.13-.48 37.66-13.62 53.63 2.1.68 4.85 1.09 6.66-.44l3.53-3 .67 4.59c1.12 7.33-.44 20.15-1.93 29.62zM710.39 656.65a102.94 102.94 0 00-1.26-12.4 184.2 184.2 0 00-6.13-25.94c-.42-1.31-.71-2.1-1.44-1.9s-.56 1-.23 2.36a217.83 217.83 0 014.52 25.9 110.61 110.61 0 01.68 12.05 50.42 50.42 0 01-1 10.7l-.27 1.23a4 4 0 01-.21.81l-.07.15a1.7 1.7 0 01-.37.62 1.86 1.86 0 01-.48.51 9.83 9.83 0 01-3.36 1.77 42.39 42.39 0 01-7.5 1.59c-3 .4-5.6.65-7.46.83l-2.39.25c-1.38.16-1.52.33-1.64.48l-.17.22.45 3.66c0 .48.43.61.95.61a9.37 9.37 0 001-.08l2.1-.25c1.92-.21 4.55-.5 7.87-1h.25a43.12 43.12 0 008.09-2 14 14 0 004.81-2.78 5.6 5.6 0 001.1-1.27 5.15 5.15 0 00.85-1.61 5.92 5.92 0 00.42-1.57l.25-1.34a51.55 51.55 0 00.64-11.6z"/><path class="cls-15" d="M767.74 648.63c-.87-1.85-1.88-3.77-2.86-5.62l-2-3.81c-.84-1.61-1.61-3.24-2.37-4.85-.44-.92-.87-1.84-1.31-2.75-1.19-2.41-2.27-4.89-3.39-7.48-.38-.9-.78-1.8-1.18-2.69-.69-1.57-1.38-3.12-2-4.71-3.65-8.83-7.13-18.05-10.65-28.18-5.27-15.16-10-30.73-14.5-47.59-3.06-11.54-5.74-23-8-34-.87-4.29-1.58-8.12-2.12-11.41-.51-2.8-.83-5.09-1.08-6.83l-.49-3.16c-.2-1.11-.41-2.23-1.65-2.08l-4.1.49-.33.39c-.39.46-.35.91-.25 2l.36 3.13c.23 1.82.52 4.2 1 7.08.49 3.35 1.17 7.27 2 11.64 2.12 11.21 4.72 22.82 7.71 34.49 4.41 17 9.16 32.8 14.52 48.17 3.56 10.24 7.13 19.58 10.91 28.53.65 1.64 1.38 3.26 2.12 4.89.39.87.79 1.75 1.18 2.65 1.11 2.49 2.25 5.07 3.56 7.66l1.29 2.63c.82 1.7 1.65 3.42 2.56 5.12l2.11 3.9.73 1.27-.33.28-3.2 2.42c-3.95 2.85-7.73 5.38-11.68 7.81-4.66 2.8-10 6-15.92 7.66a20.85 20.85 0 01-9.29.4 12.35 12.35 0 01-7.75-4.48 8.36 8.36 0 01-1.44-3.21 1.86 1.86 0 00-.84-1.35l-.65-.53-.83.73c-.83.73-1 3.33.91 6.32a16.09 16.09 0 009.75 6.41 22.23 22.23 0 005.48.66 28.35 28.35 0 005.67-.6 48.28 48.28 0 009.62-3.37c2.67-1.21 5.39-2.59 8.09-4.08 4.87-2.66 9-5.17 12.32-7.28l8.75-5.74zM708.27 457.76c-3.49-16.57-2.16-37.07-.41-46.81l2.53.46c-1.72 9.54-3 29.61.39 45.81zM686.83 347.76a30.12 30.12 0 00-4.36-9.27A43.12 43.12 0 00671 327.16a49.51 49.51 0 00-7.41-4.23l-.35-.17c-1.12-.53-1.34-.45-1.52-.39l-.26.1-1.46 3.39c-.29.68.5 1 1.19 1.37l.37.17a48 48 0 016.79 3.72A40.49 40.49 0 01679 341a27.33 27.33 0 014.12 7.83 10.34 10.34 0 01.43 2.07 1.1 1.1 0 01-.06.46c-.05.1-.1.2-.14.3a3.07 3.07 0 01-.31.54 14.44 14.44 0 01-3.26 3.38 18.08 18.08 0 01-9.52 3.58 22.84 22.84 0 01-10.58-1.82 26.42 26.42 0 00-1.87-8.63 37.13 37.13 0 00-4.68-8.71c-.49-.6-1.1-1.35-1.73-.91s-.07 1.3.31 1.89a37.37 37.37 0 013.61 8.57 22.82 22.82 0 011.08 8.5 3.73 3.73 0 01-1.26 2.6 20.07 20.07 0 01-3.46 1.61 23.83 23.83 0 01-7.16 1.45 22.11 22.11 0 01-11.19-2.47 25.61 25.61 0 01-5.32-3.69 2.6 2.6 0 00-.85-.55 1.33 1.33 0 000-.21 47.28 47.28 0 00-2-6.21c-.29-.82-.59-1.65-.88-2.48a43.8 43.8 0 01-2.18-8.76c-.09-.72-.14-1.67-1-1.64s-.75 1-.73 1.76a41.75 41.75 0 001.38 9.38c.24 1 .5 1.91.75 2.85a49.65 49.65 0 011.32 5.69 14.42 14.42 0 01.12 2.39l-.06.07v.28a.37.37 0 000 .09c0 .3 0 .62-.08.89a4.38 4.38 0 01-1.5 2.45 10.9 10.9 0 01-5.84 2.52 22.68 22.68 0 01-11-1.47 32 32 0 01-5.3-2.52 13.89 13.89 0 00-.2-2.57 39.1 39.1 0 00-1.54-5.89c-.41-1.31-.84-2.67-1.15-4a20.24 20.24 0 01.06-9.85c.22-.84.47-1.8-.27-2s-1.08.7-1.38 1.51a21.48 21.48 0 00-1 10.87c.24 1.57.6 3.08.95 4.54a37.28 37.28 0 011 5.28 12.09 12.09 0 010 2.05 1.67 1.67 0 01-.62 1 9.49 9.49 0 01-3.4 1.74 31.77 31.77 0 01-8 1.3 36.1 36.1 0 01-12.94-1.59c-3.76-1.27-5.11-3.07-5.23-3.25a2 2 0 00-.78-.77 39.22 39.22 0 01-.35-7.44 32.71 32.71 0 013.54-14.17c.43-.77.93-1.65.26-2.06s-1.21.38-1.74 1.16c-3.31 4.91-4.58 10.77-5.07 14.82a59.47 59.47 0 00-.41 7.84v.96c0 .16 0 .24-1.09.79l-.22.12a21 21 0 01-3.42 1.15 37.47 37.47 0 01-6.72 1 43.79 43.79 0 01-10.86-.62 37.71 37.71 0 01-10.27-3.34l-.38-.18a5 5 0 00-.67-.29c0-.93 0-2 .08-3.22.38-5.73 2-10.29 4.69-13.52 1.45-1.48 1.87-2 1.37-2.53s-1.05-.11-2.63 1.34c-3.2 3.39-5.21 8.26-6 14.47a44.4 44.4 0 00-.33 5.63v2.06l-.2.15a9.94 9.94 0 01-2.27 1.37 10.15 10.15 0 01-2.52.88l-.77.21a22 22 0 01-7-.06 34.09 34.09 0 01-12.38-5A19.61 19.61 0 01498 360a3.78 3.78 0 01-.51-.55 1.77 1.77 0 00-.23-.26c-.08-.13-.09-.15-.1-.55a11.63 11.63 0 011-5.05 32 32 0 015.39-8.79 49.5 49.5 0 0112.23-10.42 47.53 47.53 0 018-3.8c1.38-.52 2-.79 1.81-1.47l-1.17-3.5-.25-.12c-.21-.1-.38-.18-2.1.47a50.44 50.44 0 00-8.8 4.3A53 53 0 00500 341.91a35.27 35.27 0 00-5.93 10.16 15.27 15.27 0 00-1.07 7.06v.23a2.28 2.28 0 00.21.95l.17.38a8.51 8.51 0 00.46.89l.27.33a8 8 0 001.1 1.14 22.18 22.18 0 002.95 2.21 37.53 37.53 0 0014 5.29 30.79 30.79 0 003.75.25 23.61 23.61 0 004.57-.44l.78-.23a13.56 13.56 0 003.26-1.25 13.28 13.28 0 003-2l1-.83.32-.24v-.05a42.92 42.92 0 009.92 2.78 47.44 47.44 0 007.39.58c1.52 0 3.06-.08 4.61-.22a40.05 40.05 0 007.46-1.37 23.51 23.51 0 004.1-1.54l.3-.16a10.55 10.55 0 00.94-.54 17 17 0 006.57 3.6 35.93 35.93 0 0010.87 1.53c1.29 0 2.61-.06 3.94-.17a34.48 34.48 0 009.06-1.91 15.1 15.1 0 003.76-2 34.39 34.39 0 006.15 2.74 28.59 28.59 0 009.08 1.6 22.57 22.57 0 004.23-.39 14.38 14.38 0 007.85-4 8.65 8.65 0 002-3.21 31.88 31.88 0 004.09 2.41 26 26 0 0011.34 2.6c.74 0 1.49 0 2.26-.1a26.93 26.93 0 008.34-2.14l.31-.14a21.21 21.21 0 003.84-2.14 6.59 6.59 0 002.3-4.36 24.44 24.44 0 0010.5 2.57h.3a21 21 0 0011.33-3.48 17.68 17.68 0 004.3-4 6.07 6.07 0 00.66-1.06l.24-.43a5 5 0 00.39-2 13.25 13.25 0 00-.44-3.05zM550.53 803.64l-3.32-.28c.79-9.32 1.77-18.9 2.81-29 2.37-23.19 4.83-47.17 4.89-67.94h3.34c-.07 20.94-2.53 45-4.91 68.27-1.04 10.1-2.02 19.66-2.81 28.95z"/><path class="cls-14" d="M531 811a69.72 69.72 0 01-1 23.3 67.64 67.64 0 01-3.81 12.48 28.34 28.34 0 01-3.14 5.72 6.36 6.36 0 01-1.82 1.77.26.26 0 01-.17 0h-.44l-1.71-.18c-4.62-.5-8.77-2.08-11.6-5.73-1.54-1.75-2.82-4.24-5.62-6.32a10.45 10.45 0 00-2.29-1.21l-1.24-.43-1.23-.21a9.49 9.49 0 00-2.41-.16 9.92 9.92 0 00-2.32.18 17.24 17.24 0 00-4.54 1.12 13.59 13.59 0 00-2.21 1l-2.07 1.41a14 14 0 00-4.87 8.82 15.7 15.7 0 002.17 9.77c1.61 3 4.32 5.11 7.07 6.86a26 26 0 009.07 2.88 24.61 24.61 0 004.59.28l2.27-.09h1.13H505.42q8.44.51 16.61.49a125.13 125.13 0 0016.14-1 33.1 33.1 0 008-2 13.73 13.73 0 002.09-1.11c.35-.26.71-.57 1.05-.87l.82-1.06a9.12 9.12 0 001.59-4.56 33.54 33.54 0 00-.47-7.8c-.36-2.37-.73-4.7-1.08-7a106 106 0 01-1.17-13.16 92 92 0 012.24-23.39l-2.25-.58a87.61 87.61 0 00-3.62 24 105.08 105.08 0 00.75 13.68q.42 3.47.85 7a30.75 30.75 0 01.25 6.7 4.63 4.63 0 01-.83 2.35 4.56 4.56 0 00-.31.42l-.41.31a7.4 7.4 0 01-1.26.62 29.77 29.77 0 01-6.85 1.48 128 128 0 01-15.48.67c-5.32-.05-10.77-.27-16.27-.64h-.51a5.92 5.92 0 00-1 0h-1l-1.94.06a19.57 19.57 0 01-3.83-.24 20.73 20.73 0 01-7.12-2.24c-2-1.32-4-2.81-5.07-4.88a10.4 10.4 0 01-1.5-6.35 8.72 8.72 0 012.91-5.36l1.31-.91a8.55 8.55 0 011.51-.67 12.16 12.16 0 013.29-.86 8.21 8.21 0 015.87.84c1.54 1 2.93 3.21 4.76 5.35a18.56 18.56 0 006.94 5.19 25 25 0 007.95 1.9l2 .15h.53l.83-.08a4.63 4.63 0 001.55-.5 10.2 10.2 0 003.34-3.2 32.42 32.42 0 003.45-6.75 67.56 67.56 0 003.51-13.4 68.46 68.46 0 00-.28-24.36z"/><path class="cls-15" d="M536.35 803.68l-3.32-.35c4.38-42.28 5.78-95.37 5.8-95.9l3.33.08c-.01.49-1.42 53.75-5.81 96.17z"/><path class="cls-14" d="M541.89 804.12c1.87.16 3.94.3 6.1.53a24.77 24.77 0 013.23.56c1 .24 2.06.73 2.21 1.15a.94.94 0 01.06.68 1.09 1.09 0 01-.52.6 8.63 8.63 0 01-3.11 1.13 47.19 47.19 0 01-8.21.71 43.11 43.11 0 01-8.15-.42 4.79 4.79 0 01-2.65-1.22 2.53 2.53 0 01-.58-1.09c-.08-.42-.11-.45-.06-.55a4.37 4.37 0 012.3-1 28.11 28.11 0 013.27-.51c2.18-.23 4.24-.37 6.11-.53v-1.55c-1.87-.16-3.94-.31-6.23-.34a30.8 30.8 0 00-3.63.19 6.51 6.51 0 00-4.29 2 3.76 3.76 0 00-.58 3.14 5.78 5.78 0 001.13 2.43 7.75 7.75 0 004.43 2.52 38.54 38.54 0 009 .66 42.88 42.88 0 008.92-.94 11.27 11.27 0 004.39-1.93 4.3 4.3 0 001.61-2.59 4 4 0 00-.65-3 4.6 4.6 0 00-2.13-1.61 8.79 8.79 0 00-2.06-.55 23.79 23.79 0 00-3.66-.25c-2.3 0-4.37.17-6.24.33z"/><path class="cls-15" d="M624.43 803.64c-.78-9.3-1.77-18.87-2.8-29-2.38-23.26-4.84-47.31-4.91-68.24h3.34c.06 20.76 2.51 44.73 4.89 67.91 1 10.14 2 19.73 2.81 29.06z"/><path class="cls-14" d="M641.68 810.54a71.64 71.64 0 003.23 37.76 31.94 31.94 0 003.45 6.75 10.2 10.2 0 003.34 3.2 4.63 4.63 0 001.55.5l.83.08h.53l1.95-.15a25 25 0 008-1.9 18.56 18.56 0 006.94-5.19c1.83-2.14 3.22-4.33 4.76-5.35a8.19 8.19 0 015.86-.84 12.13 12.13 0 013.3.86 8.55 8.55 0 011.51.67l1.31.91a8.72 8.72 0 012.91 5.36 10.4 10.4 0 01-1.5 6.35c-1.06 2.07-3.06 3.56-5.07 4.88a20.73 20.73 0 01-7.12 2.24 19.57 19.57 0 01-3.83.24l-1.94-.06h-1a5.92 5.92 0 00-1 0h-.52c-5.49.37-10.94.59-16.26.64a128 128 0 01-15.48-.67 29.77 29.77 0 01-6.85-1.48 7.4 7.4 0 01-1.26-.62l-.41-.31a4.56 4.56 0 00-.31-.42 4.63 4.63 0 01-.83-2.35 30.75 30.75 0 01.25-6.7c.28-2.37.57-4.71.85-7a105.08 105.08 0 00.75-13.68 88 88 0 00-3.62-24l-2.25.58a92 92 0 012.25 23.35 107.9 107.9 0 01-1.25 13.17q-.54 3.45-1.09 7a34.12 34.12 0 00-.46 7.8 9.11 9.11 0 001.58 4.56l.83 1.06c.34.3.7.61 1 .87a12.85 12.85 0 002.09 1.11 33 33 0 008 2 125.13 125.13 0 0016.14 1q8.17 0 16.61-.49h1.74l2.27.09a24.61 24.61 0 004.59-.28 26 26 0 009.07-2.88c2.75-1.75 5.46-3.85 7.07-6.86a15.7 15.7 0 002.17-9.77 14 14 0 00-4.87-8.82l-2.07-1.41a13.59 13.59 0 00-2.21-1 17.34 17.34 0 00-4.54-1.12 9.92 9.92 0 00-2.32-.18 9.49 9.49 0 00-2.41.16l-1.23.21-1.24.43a10.45 10.45 0 00-2.29 1.21c-2.81 2.08-4.09 4.57-5.62 6.32-2.83 3.65-7 5.23-11.6 5.73l-1.71.18h-.46a.26.26 0 01-.17 0 6.36 6.36 0 01-1.82-1.77 28.87 28.87 0 01-3.15-5.72 68.38 68.38 0 01-3.8-12.48 69.72 69.72 0 01-1-23.3z"/><path class="cls-15" d="M638.62 803.68c-4.4-42.42-5.8-95.64-5.81-96.17l3.33-.08c0 .53 1.42 53.62 5.8 95.9z"/><path class="cls-14" d="M633.08 802.57c-1.87-.16-3.94-.32-6.24-.33a23.71 23.71 0 00-3.66.25 8.67 8.67 0 00-2.06.55 4.6 4.6 0 00-2.13 1.61 4 4 0 00-.65 3 4.3 4.3 0 001.61 2.59 11.27 11.27 0 004.39 1.93 42.86 42.86 0 008.91.94 38.59 38.59 0 009-.66 7.75 7.75 0 004.43-2.52 5.78 5.78 0 001.13-2.43 3.76 3.76 0 00-.58-3.14 6.51 6.51 0 00-4.29-2 30.91 30.91 0 00-3.63-.19c-2.29 0-4.36.18-6.23.34v1.55c1.87.16 3.93.3 6.11.53a27.62 27.62 0 013.26.51 4.37 4.37 0 012.31 1c0 .1 0 .13-.07.55a2.42 2.42 0 01-.57 1.09 4.82 4.82 0 01-2.65 1.22 43.11 43.11 0 01-8.15.42 47.1 47.1 0 01-8.21-.71 8.63 8.63 0 01-3.11-1.13 1.09 1.09 0 01-.52-.6.89.89 0 01.06-.68c.14-.42 1.2-.91 2.21-1.15a24.91 24.91 0 013.22-.56c2.17-.23 4.24-.37 6.11-.53z"/><path class="cls-16" d="M197 394.15c9.89 3.06 21.12 7.3 24.58 9.71-3.94 1.31-15.83 2.27-26.15 2.4h-1.84l-.26 1.84c-2.18 13-5.55 27.89-7.82 32.35-1.8-4.81-2.28-19.19-1.67-31.92l.09-1.92-1.88-.35c-8.13-1.44-17.4-3.8-20.72-5.51 3.71-1.4 14.16-2.58 23.3-2.84l1.84-.09.26-1.79c1.75-12.63 5.12-27.06 7.08-29.21 1.53 2.37 2.28 13.47 1.66 25.14l-.08 1.71zM133.62 106.7c9.88 3.06 21.12 7.3 24.57 9.7-3.93 1.31-15.82 2.28-26.14 2.41h-1.84l-.26 1.83c-2.19 13-5.55 27.9-7.83 32.36-1.79-4.81-2.27-19.2-1.66-31.92l.09-1.92-1.88-.35c-8.13-1.45-17.4-3.81-20.72-5.51 3.71-1.4 14.16-2.58 23.3-2.84l1.84-.09.26-1.79c1.75-12.64 5.11-27.07 7.08-29.21 1.53 2.36 2.28 13.47 1.66 25.14l-.08 1.7z"/><path class="cls-3" d="M110.93 621.2c9.88 3.06 21.12 7.3 24.57 9.7-3.94 1.31-15.83 2.28-26.15 2.41h-1.83l-.26 1.83c-2.19 13-5.56 27.9-7.83 32.36-1.79-4.81-2.27-19.2-1.66-31.92l.09-1.92-1.86-.35c-8.14-1.45-17.41-3.81-20.73-5.51 3.72-1.4 14.17-2.58 23.3-2.84l1.84-.09.26-1.79c1.75-12.64 5.12-27.07 7.09-29.21 1.53 2.36 2.27 13.47 1.66 25.14l-.09 1.7zM992.38 392.19c9.88 3.06 21.12 7.3 24.57 9.71-3.93 1.31-15.83 2.27-26.14 2.4H989l-.26 1.84c-2.19 13-5.56 27.89-7.83 32.35-1.79-4.81-2.27-19.19-1.66-31.91l.09-1.93-1.88-.35c-8.14-1.44-17.4-3.8-20.73-5.51 3.72-1.39 14.17-2.57 23.31-2.84l1.83-.08.26-1.8c1.75-12.63 5.12-27.06 7.09-29.2 1.53 2.36 2.27 13.46 1.66 25.14l-.09 1.7zM196.38 782.89c9.88 3.06 21.12 7.3 24.57 9.71-3.93 1.31-15.83 2.27-26.14 2.4H193l-.26 1.84c-2.19 13-5.56 27.89-7.83 32.35-1.79-4.81-2.27-19.19-1.66-31.92l.09-1.92-1.88-.35c-8.14-1.44-17.4-3.8-20.73-5.51 3.72-1.4 14.17-2.58 23.31-2.84l1.83-.09.26-1.79c1.75-12.64 5.12-27.06 7.09-29.21 1.53 2.36 2.27 13.47 1.66 25.14l-.09 1.71zM253.38 867.89c9.88 3.06 21.12 7.3 24.57 9.71-3.93 1.31-15.83 2.27-26.14 2.4H250l-.26 1.84c-2.19 13-5.56 27.89-7.83 32.35-1.79-4.81-2.27-19.19-1.66-31.92l.09-1.92-1.88-.35c-8.14-1.44-17.4-3.8-20.73-5.51 3.72-1.4 14.17-2.58 23.31-2.84l1.83-.09.26-1.79c1.75-12.64 5.12-27.06 7.09-29.21 1.53 2.36 2.27 13.47 1.66 25.14l-.09 1.71zM1080.44 443.23c5.6 1.73 12 4.14 13.93 5.5-2.23.74-9 1.29-14.82 1.36h-1l-.15 1c-1.24 7.39-3.15 15.81-4.44 18.34-1-2.72-1.28-10.88-.94-18.09v-1.09l-1.06-.2c-4.61-.81-9.87-2.15-11.75-3.12 2.11-.79 8-1.46 13.21-1.61l1-.05.15-1c1-7.17 2.9-15.34 4-16.56.87 1.34 1.29 7.63.94 14.25v1zM1066.78 380.88c5.6 1.73 12 4.14 13.93 5.5-2.23.74-9 1.29-14.82 1.36h-1l-.15 1c-1.24 7.39-3.14 15.81-4.43 18.34-1-2.73-1.29-10.88-.94-18.09v-1.09l-1.06-.2c-4.61-.82-9.86-2.15-11.75-3.12 2.11-.79 8-1.46 13.21-1.61l1-.05.15-1c1-7.16 2.9-15.33 4-16.55.87 1.34 1.29 7.63 1 14.25l-.05 1z"/><path class="cls-16" d="M320.43 699.12c7.78 2.41 16.62 5.75 19.33 7.64-3.09 1-12.45 1.79-20.57 1.89h-1.44l-.21 1.45c-1.72 10.25-4.37 21.94-6.16 25.45-1.41-3.78-1.78-15.1-1.3-25.11l.07-1.51-1.48-.28c-6.4-1.13-13.7-3-16.31-4.33 2.92-1.1 11.15-2 18.34-2.24l1.44-.07.21-1.41c1.37-9.94 4-21.29 5.57-23 1.2 1.86 1.79 10.6 1.31 19.78l-.07 1.34zM1090.87 172.41c14 4.32 29.82 10.3 34.69 13.7-5.55 1.85-22.34 3.21-36.91 3.4h-2.6l-.37 2.59c-3.08 18.39-7.84 39.38-11 45.68-2.53-6.79-3.21-27.1-2.34-45.06l.12-2.72-2.65-.49c-11.49-2-24.57-5.38-29.27-7.78 5.25-2 20-3.65 32.91-4l2.59-.12.37-2.53c2.47-17.84 7.22-38.21 10-41.24 2.16 3.34 3.21 19 2.35 35.5l-.12 2.41zM1089.34 839.15c11.23 3.48 24 8.3 27.93 11-4.47 1.49-18 2.59-29.72 2.74h-2.09l-.29 2.08c-2.49 14.81-6.32 31.71-8.9 36.78-2-5.47-2.58-21.82-1.89-36.28l.1-2.19-2.14-.39c-9.24-1.64-19.78-4.33-23.55-6.26 4.22-1.6 16.1-2.94 26.49-3.24l2.08-.09.3-2c2-14.36 5.82-30.76 8-33.2 1.74 2.68 2.59 15.31 1.89 28.58l-.1 1.93zM67.4 275.85c15.27 4.73 32.64 11.28 38 15-6.09 2-24.46 3.51-40.41 3.72h-2.86l-.4 2.83c-3.38 20.14-8.58 43.11-12.1 50-2.77-7.43-3.51-29.66-2.57-49.32l.14-3-2.91-.54c-12.56-2.23-26.89-5.88-32-8.52 5.74-2.16 21.89-4 36-4.39l2.84-.13.4-2.77c2.71-19.53 7.91-41.83 10.95-45.14 2.37 3.65 3.51 20.81 2.57 38.85l-.14 2.64zM448.14 107.88c8.65 2.68 18.49 6.39 21.51 8.49-3.44 1.15-13.86 2-22.89 2.11h-1.61l-.23 1.61c-1.91 11.4-4.86 24.42-6.85 28.32-1.57-4.21-2-16.8-1.45-27.94l.07-1.68-1.64-.31c-7.12-1.26-15.24-3.33-18.15-4.82 3.26-1.23 12.41-2.26 20.41-2.49l1.6-.08.23-1.57c1.53-11.06 4.48-23.69 6.2-25.57 1.34 2.07 2 11.79 1.46 22l-.08 1.5zM915.22 154.81c8.65 2.68 18.48 6.39 21.51 8.5-3.45 1.14-13.86 2-22.89 2.1h-1.61L912 167c-1.91 11.41-4.86 24.42-6.85 28.32-1.57-4.21-2-16.8-1.45-27.94l.07-1.68-1.64-.31c-7.12-1.26-15.24-3.33-18.15-4.82 3.26-1.23 12.4-2.26 20.4-2.49L906 158l.23-1.57c1.53-11.06 4.48-23.69 6.2-25.57 1.34 2.07 2 11.79 1.46 22l-.08 1.5zM371 883.47c8.65 2.68 18.49 6.4 21.51 8.5-3.44 1.15-13.86 2-22.89 2.11H368l-.23 1.6c-1.91 11.41-4.86 24.43-6.85 28.33-1.57-4.21-2-16.8-1.45-27.94l.07-1.69-1.64-.3c-7.12-1.27-15.24-3.33-18.15-4.83 3.26-1.22 12.41-2.25 20.41-2.48l1.6-.08.23-1.57c1.53-11.06 4.48-23.69 6.2-25.57 1.34 2.07 2 11.79 1.46 22l-.08 1.49z"/></g><path class="cls-17" d="M223.77 1038.73q-1.92-2-1.92-7.51a68.49 68.49 0 01.72-9q.72-5.28 2.52-16 .24-1.44 1.93-11.71T230 973a127.59 127.59 0 001.2-14.42q0-5.4-4-5.4-3 0-7.51 3.18t-9.67 10.15a4.71 4.71 0 01-3.73 2.28 3.67 3.67 0 01-2.94-1.62 5.81 5.81 0 01-1.26-3.66 10.8 10.8 0 01.72-3.91 21 21 0 012.64-4.5 46.16 46.16 0 0113.1-12.44 28.69 28.69 0 0115.13-4.38q6.62 0 9.91 4.08t3.31 11.9a152.06 152.06 0 01-1.9 20.14q6-17.77 15.25-27a29.86 29.86 0 0121.75-9.16q9.84 0 14.83 5.59t5 14.95a65.43 65.43 0 01-1.56 12.86L293 1006a54 54 0 00-1.2 10.34q0 5 2.34 7.56a8.46 8.46 0 006.55 2.53 13.37 13.37 0 007.75-2.65 50.54 50.54 0 008.94-8.77 4.25 4.25 0 013.25-1.68 2.77 2.77 0 012.46 1.44 7.48 7.48 0 01.9 4 11.37 11.37 0 01-2.28 7.45q-6.26 7.56-12.37 11a25.68 25.68 0 01-12.86 3.48q-10.21 0-16-6.06t-5.76-16.28a62.21 62.21 0 01.66-8.65q.66-4.69 2.22-11.89l4.81-22q.24-1.08.84-3.84c.4-1.84.72-3.59 1-5.23a33.53 33.53 0 00.36-4.86 8.54 8.54 0 00-2.16-6.13 8 8 0 00-6.13-2.28q-7.22 0-14.42 7.68T248.52 986q-6.12 17.12-9.61 43.79c-.56 4.08-1.38 6.93-2.46 8.53s-3.19 2.4-6.31 2.4c-2.96-.01-5.09-.67-6.37-1.99z"/><path class="cls-17" d="M370.27 1014.76a7.48 7.48 0 01.9 4c0 3.2-.76 5.69-2.28 7.45a44.08 44.08 0 01-12.55 10 34.89 34.89 0 01-17.36 4.56q-12.62 0-19.58-6.85t-7-18.74a34.77 34.77 0 013.48-15.43 28.58 28.58 0 019.67-11.36 24.36 24.36 0 0114-4.2q7 0 11.17 4.14t4.2 11.24a19.42 19.42 0 01-5.94 14.23q-6 6-20.12 9.43 3 5.53 11.41 5.53 5.4 0 12.31-3.78a40.77 40.77 0 0012-9.92 4.21 4.21 0 013.24-1.68 2.77 2.77 0 012.45 1.38zM330 1001.07a24.09 24.09 0 00-3.07 12.49v.24a27.36 27.36 0 0011.18-5c2.72-2.24 4.08-4.85 4.08-7.81a5.26 5.26 0 00-1.26-3.67 4.4 4.4 0 00-3.42-1.38q-4.42-.04-7.51 5.13z"/><path class="cls-17" d="M431.54 1014.76a7.48 7.48 0 01.9 4c0 3.2-.76 5.69-2.28 7.45a58.35 58.35 0 01-10.81 10.27q-5.89 4.26-11.66 4.26-9.13 0-13.93-10.69-5.06 6.38-8.83 8.53a17.53 17.53 0 01-8.83 2.16 15.31 15.31 0 01-12.08-5.46q-4.74-5.48-4.74-14.24a39.61 39.61 0 014.08-17.84 36.49 36.49 0 0111.24-13.45 32.57 32.57 0 0116-6.19q2.28-23.31 8.71-39.82t16.88-16.52a10.29 10.29 0 018.59 4.68q3.42 4.7 3.42 14.18 0 13.46-6.6 31.47a233.65 233.65 0 01-17.66 37q.48 7 2.1 10t4.14 3a10.22 10.22 0 006.61-2.89 86.81 86.81 0 009-9.61 4.22 4.22 0 013.25-1.68 2.77 2.77 0 012.5 1.39zm-46.67 12a35.3 35.3 0 005.76-6.91 80.33 80.33 0 01-1.2-14.54q0-2.88.24-9.37a20.18 20.18 0 00-11 8.83 27.24 27.24 0 00-4.38 15.08q0 8.78 6 8.77a7.25 7.25 0 004.58-1.9zm25.46-79.65a148.23 148.23 0 00-3.9 21.2q-1.62 13.1-2.34 27.39 13.46-29.31 13.45-47.09a25.18 25.18 0 00-.78-7.09Q416 939 414.9 939q-2.28 0-4.57 8.07z"/><path class="cls-17" d="M478.75 1014.76a7.48 7.48 0 01.9 4c0 3.2-.76 5.69-2.28 7.45a44.14 44.14 0 01-12.56 10 34.82 34.82 0 01-17.35 4.56q-12.61 0-19.59-6.85t-7-18.74a34.77 34.77 0 013.48-15.43 28.58 28.58 0 019.67-11.36 24.36 24.36 0 0114-4.2q7 0 11.17 4.14t4.2 11.24a19.42 19.42 0 01-5.94 14.23q-6 6-20.13 9.43 3 5.53 11.42 5.53 5.4 0 12.31-3.78a40.6 40.6 0 0012-9.92 4.23 4.23 0 013.25-1.68 2.77 2.77 0 012.45 1.38zm-36-40.6q-2-2.16-3.12-6.85l-5.29-21.62A11 11 0 01434 943a5.63 5.63 0 012-4.62 7.28 7.28 0 014.75-1.62 6.77 6.77 0 014.44 1.38q1.68 1.38 2.17 5.11l2.76 21.26 10.45-21.26a12.15 12.15 0 013.84-5 8.27 8.27 0 014.57-1.32 6.48 6.48 0 014 1.14 3.9 3.9 0 011.51 3.3 8.69 8.69 0 01-1.33 4.33l-13.45 23.18a16.78 16.78 0 01-4.87 5.59 11 11 0 01-6.42 1.86 7.39 7.39 0 01-5.65-2.17zm-4.26 26.91a24 24 0 00-3.07 12.49v.24a27.25 27.25 0 0011.17-5c2.73-2.24 4.09-4.85 4.09-7.81a5.26 5.26 0 00-1.26-3.67 4.41 4.41 0 00-3.42-1.42q-4.43 0-7.49 5.17z"/><path class="cls-17" d="M517.91 1014.76a7.48 7.48 0 01.9 4c0 3.2-.76 5.69-2.28 7.45a51.8 51.8 0 01-11.23 10.45 24.1 24.1 0 01-13.76 4.08q-10.57 0-15.67-9.61t-5.11-24.87a170.9 170.9 0 013.78-33.39q3.79-18.75 11.18-32.2t17.6-13.45q5.76 0 9.07 5.34t3.3 15.32q0 14.29-7.93 33.16a183.79 183.79 0 01-21.5 37.36c.56 3.28 1.48 5.63 2.76 7a6.51 6.51 0 005.05 2.1 13.85 13.85 0 008.64-2.83 65.43 65.43 0 009.5-9.67 4.21 4.21 0 013.24-1.68 2.77 2.77 0 012.46 1.44zm-23.48-65.71a162.86 162.86 0 00-6.13 24.75 179.31 179.31 0 00-2.88 28.35A155 155 0 00499 974q5-14.12 5.05-25.77 0-9.13-3.37-9.13-2.77-.02-6.25 9.95z"/><path class="cls-17" d="M511.18 1035.91q-1.86-4.82-1.86-15.38a97.61 97.61 0 014.45-29.67 9.05 9.05 0 013.54-5.11 12.5 12.5 0 016.91-1.62 6.76 6.76 0 013.36.6 2.48 2.48 0 011 2.28c0 1.28-.6 4.17-1.8 8.65q-1.2 4.82-1.92 8.41a86.32 86.32 0 00-1.2 8.89 68.24 68.24 0 018.89-16.82q4.92-6.48 9.67-9.25a17.57 17.57 0 018.71-2.76q7.8 0 7.8 7.81 0 4.68-2.64 16.94-2.28 10.44-2.28 13.81 0 4.82 3.48 4.81c1.6 0 3.51-1 5.71-3a96.57 96.57 0 008.83-9.55 4.21 4.21 0 013.24-1.68 2.79 2.79 0 012.47 1.44 7.48 7.48 0 01.9 4c0 3.2-.77 5.69-2.29 7.45a53 53 0 01-11.15 10.47 23.31 23.31 0 01-13.51 4.08q-6.13 0-9.25-3.54t-3.13-10.27a74.41 74.41 0 011.69-12 62.17 62.17 0 001.56-10.45q0-1.92-1.32-1.92-1.57 0-4.39 4a65.45 65.45 0 00-5.77 10.64 82.72 82.72 0 00-4.74 13.93q-1.32 5.65-3.06 7.63t-5.47 2c-3.04-.02-5.19-1.62-6.43-4.82z"/><path class="cls-17" d="M568.42 1039.15q-1.44-1.56-1.44-4.93 0-1 .24-3.36a263.53 263.53 0 016.37-40 8.6 8.6 0 013.18-5.23c1.48-1 3.87-1.5 7.15-1.5 3.44 0 5.17 1.4 5.17 4.2a19.63 19.63 0 01-.24 2.29q-5.42 25.71-6.49 43.12-.24 3.85-2.28 5.41t-6.37 1.56q-3.84 0-5.29-1.56zM581 974.94a4.17 4.17 0 01-1.26-3.06 6.49 6.49 0 01.6-2.29l11.17-25a8.09 8.09 0 012.82-3.55 7 7 0 013.91-1.14 7.65 7.65 0 015.34 2.16 7.08 7.08 0 012.34 5.41 10.9 10.9 0 01-2.64 6.73l-15.49 19.94a4.71 4.71 0 01-3.85 2 4 4 0 01-2.94-1.2zM693.78 1014.76a7.48 7.48 0 01.9 4c0 3.2-.76 5.69-2.28 7.45a53.45 53.45 0 01-11.11 10.45 23.34 23.34 0 01-13.52 4.08 13 13 0 01-10.33-4.56 26.7 26.7 0 01-14.3 4.56q-1.56 23.19-7.08 38.74T619.84 1095q-6.5 0-9.61-4.68t-3.13-13q0-11.77 5.41-27.45t16.7-34.54q0-17.54-.24-24.38a6.16 6.16 0 012.76-5.53 12.18 12.18 0 017.21-2 5.41 5.41 0 013.66 1c.76.68 1.18 2 1.27 4s0 3.48.12 4.44a27.44 27.44 0 017.56-6.91 15.93 15.93 0 017.93-2.1 13.35 13.35 0 0111 5.41q4.28 5.4 4.27 14.17a38.15 38.15 0 01-2 12.37 40.8 40.8 0 01-5.65 10.94 15.87 15.87 0 004.2.72 11.9 11.9 0 007.57-2.89 71.61 71.61 0 009.25-9.61 4.23 4.23 0 013.25-1.68 2.77 2.77 0 012.41 1.48zm-67.57 54.36A293.82 293.82 0 00629 1034a175.89 175.89 0 00-8.17 23q-3 10.93-3 18.38a15.18 15.18 0 00.9 5.89q.9 2 2.1 2 3.17-.03 5.38-14.15zm25.52-44.69a27.37 27.37 0 005.83-9.37 32.14 32.14 0 002.16-11.71 8.85 8.85 0 00-1.44-5.47 4.61 4.61 0 00-3.84-1.86q-4.34 0-10.45 9.13c-.09 3.53-.12 8.69-.12 15.5 0 3.68 0 6.53-.12 8.53a15.86 15.86 0 007.98-4.75z"/><path class="cls-17" d="M748.62 1004.79a8.34 8.34 0 01.84 4q0 5.76-3.49 6.84a54.37 54.37 0 01-15.85 2.89 30.12 30.12 0 01-9 16.16 22.19 22.19 0 01-15.26 6.06 21.33 21.33 0 01-12.31-3.48 22.08 22.08 0 01-7.75-9.25 29.68 29.68 0 01-2.64-12.5 36.69 36.69 0 013.48-16.27 27.42 27.42 0 019.6-11.24 24.24 24.24 0 0113.58-4q9.12 0 14.71 6.31a27 27 0 016.55 15.55 72.82 72.82 0 0013.45-2.4 7.05 7.05 0 011.68-.24 2.63 2.63 0 012.41 1.57zm-35.14 20.06q2.82-3.12 3.78-9a16.57 16.57 0 01-5.7-6.6 19.58 19.58 0 01-2-8.65 21 21 0 01.36-3.85h-.61q-4.8 0-8 4.63t-3.19 13q0 6.61 2.59 10.09t6.06 3.49a8.7 8.7 0 006.71-3.11z"/><path class="cls-17" d="M808.26 1014.76a7.48 7.48 0 01.9 4c0 3.2-.76 5.69-2.28 7.45a63.41 63.41 0 01-11.35 10.45 22.6 22.6 0 01-13.28 4.08q-6.12 0-9.25-3.54t-3.12-10.27a75.22 75.22 0 011.68-12 62.17 62.17 0 001.56-10.45q0-1.92-1.32-1.92-1.56 0-4.44 4a58.57 58.57 0 00-5.77 10.64 86.31 86.31 0 00-4.68 13.93q-2.29 9.62-11.3 9.61-3.6 0-4.74-2.58c-.76-1.72-1.14-4.83-1.14-9.31 0-2.56 0-4.61.12-6.13l.12-9.61a208.34 208.34 0 013.78-38.56q3.78-20.06 11.17-33.7t17.72-13.63a10.55 10.55 0 019 4.74q3.43 4.76 3.43 12.32 0 12.13-7.09 25.16t-23.07 30.46q-.36 6.24-.36 12.85a69.58 69.58 0 018.83-16.64q4.88-6.42 9.61-9.19a17.63 17.63 0 018.71-2.76q7.82 0 7.81 7.81 0 4.68-2.64 16.94-2.28 10.44-2.28 13.81 0 4.82 3.48 4.81 2.4 0 5.71-3a95.52 95.52 0 008.82-9.55 4.25 4.25 0 013.25-1.68 2.77 2.77 0 012.41 1.46zm-43-69.49a104.72 104.72 0 00-5.1 16.7 222.59 222.59 0 00-4 22.88 85.85 85.85 0 0012.32-19.1q4.86-10.34 4.86-18.74a16.16 16.16 0 00-.84-5.89q-.84-2-2.4-2-2.1-.04-4.79 6.15z"/><path class="cls-17" d="M802.31 1035.31q-4.44-5.41-4.44-14.18a39.09 39.09 0 014.44-18.2 38 38 0 0111.84-13.81 26.63 26.63 0 0115.67-5.23c1.76 0 2.95.34 3.55 1a8.61 8.61 0 011.5 3.67 28.19 28.19 0 015.29-.49c3.92 0 5.88 1.41 5.88 4.21q0 2.52-1.8 12-2.76 13.82-2.76 19.22a4.38 4.38 0 00.9 2.89 2.9 2.9 0 002.34 1.08q2.28 0 5.53-3A102.94 102.94 0 00859 1015a4.21 4.21 0 013.24-1.68 2.77 2.77 0 012.46 1.44 7.48 7.48 0 01.9 4c0 3.2-.76 5.69-2.28 7.45a60.57 60.57 0 01-10.45 10.33q-5.52 4.2-10.69 4.2a11.23 11.23 0 01-7.27-2.7 16.58 16.58 0 01-5-7.39q-6.24 10.1-15.73 10.09a14.63 14.63 0 01-11.87-5.43zm21.27-9.85a20.34 20.34 0 003.48-8.29l4.45-22.11a14.5 14.5 0 00-9.31 3.79 25.34 25.34 0 00-6.79 9.67 32.56 32.56 0 00-2.52 12.73c0 2.48.5 4.33 1.5 5.53a5.1 5.1 0 004.14 1.8q2.64 0 5.05-3.12zm4.42-50.52a4.17 4.17 0 01-1.26-3.06 6.49 6.49 0 01.6-2.29l11.17-25a8.11 8.11 0 012.83-3.55 7 7 0 013.9-1.14 7.68 7.68 0 015.35 2.16 7.08 7.08 0 012.34 5.41 10.9 10.9 0 01-2.64 6.73l-15.5 19.94a4.68 4.68 0 01-3.84 2 4 4 0 01-2.95-1.2z"/><path class="cls-17" d="M926.59 1014.76a7.48 7.48 0 01.9 4c0 3.2-.76 5.69-2.28 7.45a58.35 58.35 0 01-10.81 10.27q-5.89 4.26-11.66 4.26-9.12 0-13.93-10.69-5.05 6.38-8.83 8.53a17.51 17.51 0 01-8.83 2.16 15.27 15.27 0 01-12.07-5.46q-4.76-5.48-4.75-14.24a39.61 39.61 0 014.08-17.84 36.49 36.49 0 0111.24-13.45 32.57 32.57 0 0116-6.19q2.28-23.31 8.71-39.82t16.88-16.52a10.29 10.29 0 018.59 4.68q3.42 4.7 3.43 14.18 0 13.46-6.61 31.47a233.65 233.65 0 01-17.66 37q.48 7 2.1 10t4.15 3a10.22 10.22 0 006.6-2.89 86.81 86.81 0 009-9.61 4.22 4.22 0 013.25-1.68 2.77 2.77 0 012.5 1.39zm-46.67 12a35.3 35.3 0 005.76-6.91 80.33 80.33 0 01-1.2-14.54q0-2.88.24-9.37a20.18 20.18 0 00-11 8.83 27.24 27.24 0 00-4.38 15.08q0 8.78 6 8.77a7.25 7.25 0 004.58-1.9zm25.47-79.65a146.66 146.66 0 00-3.91 21.2q-1.62 13.1-2.34 27.39 13.46-29.31 13.45-47.09a25.18 25.18 0 00-.78-7.09Q911 939 910 939q-2.33 0-4.61 8.07z"/><path class="cls-17" d="M989.66 1014.76a7.48 7.48 0 01.9 4c0 3.2-.76 5.69-2.28 7.45a58.75 58.75 0 01-10.94 10.57 21.88 21.88 0 01-13.09 4q-9.25 0-14.9-5.28t-5.64-14.06q0-4.68 4.8-6.73 5.29-2.28 7.57-4.86a9.18 9.18 0 002.28-6.31 5 5 0 00-.9-3.24 2.78 2.78 0 00-2.22-1.08c-2.16 0-4.55 1.56-7.15 4.68a53.54 53.54 0 00-7.27 12.08 86.5 86.5 0 00-5.28 15.19c-.88 3.77-1.91 6.31-3.07 7.63s-3 2-5.46 2a6 6 0 01-5.47-2.7c-1.16-1.8-1.94-4.59-2.34-8.35s-.6-9.29-.6-16.58a208.34 208.34 0 013.78-38.56q3.79-20.06 11.18-33.7t17.72-13.63a10.54 10.54 0 018.94 4.74q3.43 4.76 3.43 12.32 0 12.13-7.09 25.16t-23.06 30.37q-.36 6.24-.36 12.85 5.76-15 13.21-21.8t13.94-6.79a12.39 12.39 0 019.67 4.08 14.59 14.59 0 013.66 10.1 22.9 22.9 0 01-3.36 12.13q-3.37 5.52-11.54 9.85a8 8 0 002.95 5.23 9.18 9.18 0 005.94 2 11.18 11.18 0 007.21-2.89A78.69 78.69 0 00984 1015a4.21 4.21 0 013.24-1.68 2.79 2.79 0 012.42 1.44zM944 945.27a103.57 103.57 0 00-5.11 16.7 222.69 222.69 0 00-4 22.88 85.81 85.81 0 0012.31-19.1Q952 955.42 952 947a16.38 16.38 0 00-.84-5.89c-.57-1.36-1.37-2-2.41-2q-2.16-.03-4.75 6.16z"/><path class="cls-17" d="M1026.72 984.85a2.67 2.67 0 011.08 2.4q0 2.89-3.13 20.55-2.76 16.94-3.24 20.06-4.44 30.87-12.25 48.89t-20.78 18a13.64 13.64 0 01-10-3.78 13.31 13.31 0 01-3.84-9.91 28.63 28.63 0 012.58-11.54q2.58-5.88 9.61-13.51a158.82 158.82 0 0119.89-17.48l.36-2.76q.84-4.45 1.92-12.74-2.41 8.65-6.73 13.16t-9.13 4.5q-5.4 0-8.83-5a21.5 21.5 0 01-3.42-12.44 105.14 105.14 0 011.2-16.52 103.68 103.68 0 014-15.91 10.08 10.08 0 013.37-5.17q2.16-1.56 6.84-1.56a6 6 0 013.67.84 3.07 3.07 0 011 2.52 49.46 49.46 0 01-1.32 6.49c-.8 3-1.44 5.65-1.92 8-.65 3.28-1.21 6.43-1.69 9.43a48.71 48.71 0 00-.72 7.39q0 4.56 2.53 4.56 1.8 0 4.5-3.6a53.48 53.48 0 005.77-10.93 146.35 146.35 0 005.94-18 9.42 9.42 0 012.95-5.17q2-1.56 5.94-1.56a7.4 7.4 0 013.85.79zm-30.28 91.3q3.73-7 7.45-23.18-9.25 7.8-13.39 14.23t-4.15 11.23a6.57 6.57 0 00.78 3.37 2.78 2.78 0 002.59 1.32q3 0 6.72-6.97z"/></svg>