<svg id="Layer_1" data-name="Layer 1" xmlns="http://www.w3.org/2000/svg" viewBox="0 0 1200 1200"><defs><clipPath id="clip-path"><path id="SVGID" fill="none" d="M272.86 211.49H941.3v743.44H272.86z"/></clipPath><clipPath id="clip-path-2"><path id="SVGID-2" data-name="SVGID" d="M589.44 475.07a2.12 2.12 0 00-1.85-3.12l-90.59-.67a2.11 2.11 0 00-1.86 3.15c20.35 35.84 74.8 36.57 94.3.64z" clip-rule="evenodd" fill="none"/></clipPath><linearGradient id="linear-gradient" x1="-103.7" y1="263.04" x2="1264.88" y2="918.64" gradientUnits="userSpaceOnUse"><stop offset="0" stop-color="#fedc77"/><stop offset="1" stop-color="#fecc52"/></linearGradient><style>.cls-8{fill:#595959}.cls-11,.cls-14,.cls-15,.cls-17,.cls-18,.cls-21,.cls-22,.cls-29,.cls-30{fill-rule:evenodd}.cls-10,.cls-17{fill:#fdd3a1}.cls-11{fill:#744a20}.cls-14,.cls-38{fill:#231f20}.cls-15,.cls-20{fill:#fff}.cls-18{fill:#efc897}.cls-19,.cls-22{fill:#edc594}.cls-21{fill:#272727}.cls-26{fill:#c7342b}.cls-29{fill:#d39542}.cls-30{fill:#bf8334}.cls-33{fill:#828c9f}.cls-37{fill:#ed1b2d}</style></defs><path fill="url(#linear-gradient)" d="M-.3-.01h1200v1200H-.3z"/><path d="M481.11 329.36C375 362.9 265 419.2 233.12 506.67c-32.12 87.38 13.8 205.94 86.61 280.1s172.32 104 275.76 111.72 210.44-6.71 269.29-68.68 69.42-171.41 49.31-271.74c-20.16-100.49-71.06-192-147.73-232.36s-179.12-29.88-285.25 3.65z" fill="#fff797"/><g clip-path="url(#clip-path)"><path d="M608.47 561.28a18.19 18.19 0 00-18.12-19.65h-119.6a18.19 18.19 0 00-18.12 19.65c3.21 39.85 10.45 129.61 13.46 166.89a18.18 18.18 0 0018.12 16.72h92.68A18.18 18.18 0 00595 728.17c3-37.28 10.25-127.04 13.47-166.89z" fill-rule="evenodd" fill="#595959"/><path fill="#4d4d4d" d="M523.61 744.2h13.88v112.04h-13.88z"/><rect class="cls-8" x="499.06" y="743.22" width="62.97" height="17.3" rx="4.32"/><rect class="cls-8" x="482.01" y="849.81" width="97.08" height="12.85" rx="3.21"/><rect x="457.63" y="723.66" width="145.83" height="26.07" rx="6.52" fill="#737373"/><path class="cls-10" d="M461.68 601.12a8.28 8.28 0 017.48 7c.34 2.86-1.22 5.57-3.34 7.58-5 4.76-9.77 10-12.47 16.3-1.06 2.46-1.92 5.3.35 7.06a12.76 12.76 0 002.85 1.57 10.8 10.8 0 011.23.64 8 8 0 01-6.72 14.31c-8.66-2.76-15.6-11.19-14.67-21.26.71-7.61 4.87-14.42 9.5-20.34a84.65 84.65 0 019.91-10.73l.39-.34a8.42 8.42 0 015.49-1.79zM598.16 601.12a8.27 8.27 0 00-7.47 7c-.35 2.86 1.21 5.57 3.33 7.58 5 4.76 9.77 10 12.47 16.3 1.06 2.46 1.92 5.3-.35 7.06a12.76 12.76 0 01-2.85 1.57 10.8 10.8 0 00-1.23.64 8 8 0 006.72 14.31c8.67-2.76 15.61-11.19 14.67-21.26-.71-7.61-4.87-14.42-9.49-20.34a85.47 85.47 0 00-9.96-10.72l-.38-.34a8.45 8.45 0 00-5.46-1.8z"/><path class="cls-11" d="M513.66 716.65s-22.14-9-22.18-8.9c-7.61 10.72-13.08 28-12 43.12 2.61 36.89 5.68 40.11 5.68 40.11h10s-.4-20.86.26-38.16c.94-26.1 18.24-36.17 18.24-36.17zM547.44 716.65s22.13-9 22.18-8.9c7.6 10.72 13.08 28 12 43.12C579 787.76 576 791 576 791h-10s.39-20.86-.26-38.16c-1.01-26.12-18.3-36.19-18.3-36.19z"/><path class="cls-11" d="M497.91 724.8c-4.08-2.23-6.45-4.9-6.45-7.76 0-7.83 17.72-14.19 39.54-14.19s39.54 6.36 39.54 14.19c0 2.86-2.38 5.53-6.45 7.76z"/><path fill="#744a20" d="M491.48 683.53h79.04v33.09h-79.04z"/><path d="M570.15 683.53c.13.17.25.35.37.53v19.67c-6.38 9.53-21.74 16.25-39.66 16.25-17.67 0-32.85-6.54-39.38-15.86V683.6l.05-.07z" fill="#633e15" fill-rule="evenodd"/><path class="cls-14" d="M486.43 785.91c-1.94.48-21.27 19.85-18.75 23a6.17 6.17 0 006.85 1.92c3.88-1.6 10.48-6.58 13.63-9.71a81.11 81.11 0 006-7.91l4.32-1.34a1.29 1.29 0 00.58-.37l2.65-2.86a1.33 1.33 0 000-1.82l-6.61-6.91zM574.66 785.91c2 .48 21.27 19.85 18.75 23a6.15 6.15 0 01-6.84 1.92c-3.88-1.6-10.49-6.58-13.64-9.71a82.81 82.81 0 01-6-7.91l-4.31-1.34a1.29 1.29 0 01-.58-.37l-2.66-2.86a1.32 1.32 0 010-1.82c2-2.06 6.61-6.91 6.61-6.91z"/><path class="cls-15" d="M581.21 685.35c9.27 23.74-33.54 28.89-50.4 28.89s-60-5.15-50.74-28.89c12.27-31.45 9.95-80.48 9.95-80.48-3.48 3.16-6.07 8.21-8 14.55-.65 2.06-2.7 2.65-4.83 3-9.38 1.64-28.79-5.86-31.21-19a4.42 4.42 0 01.91-3.54c23.38-28.68 57.33-48.27 83.34-47.48h.9c26-.79 60 18.8 83.37 47.45a4.43 4.43 0 01.92 3.57c-2.46 13.14-22.23 21.31-31.24 19-2.1-.53-4.2-1-4.85-3-2-6.34-4.55-11.39-8-14.55-.07 0-2.39 49.03 9.88 80.48z"/><path d="M530.64 548.45c8.87 0 16.07 2.31 16.07 9.34s-7.2 12.74-16.07 12.74-16.07-5.71-16.07-12.74 7.2-9.34 16.07-9.34z" fill="#c61625" fill-rule="evenodd"/><path class="cls-17" d="M541.65 523.45h-22v32.27c0 4.84 3.2 7.53 7.86 8.87a11.43 11.43 0 006.3 0c4.63-1.32 7.83-4 7.83-8.79.01-10.41.01-32.35.01-32.35z"/><path class="cls-18" d="M541.65 525.82h-22V544c0 2.73 3.2 4.24 7.86 5a19.87 19.87 0 006.3 0c4.63-.74 7.83-2.23 7.83-5 .01-5.82.01-18.18.01-18.18z"/><path class="cls-17" d="M641 344.89a50.31 50.31 0 00-27.37-48.22c-57.53-29.15-113.08-28.49-166.84-.38a50.31 50.31 0 00-26.79 47.9c3 44.25 8.5 82 11.56 127.56a50.23 50.23 0 0032.67 43.73l52.16 19.32a38.76 38.76 0 0026.67.07l53.47-19.49a50.2 50.2 0 0032.92-43.82c3.08-45.34 8.55-82.33 11.55-126.67z"/><path class="cls-17" d="M641 344.89a50.31 50.31 0 00-27.37-48.22c-57.53-29.15-113.08-28.49-166.84-.38a50.31 50.31 0 00-26.79 47.9c3 44.25 8.5 82 11.56 127.56a50.23 50.23 0 0032.67 43.73l52.16 19.32a38.76 38.76 0 0026.67.07l53.47-19.49a50.2 50.2 0 0032.92-43.82c3.08-45.34 8.55-82.33 11.55-126.67z"/><path class="cls-18" d="M435.54 487.8c25 19.48 58.44 31.38 95.15 31.38s70.06-11.87 95-31.31a50.22 50.22 0 01-29 27.51l-53.48 19.49a38.76 38.76 0 01-26.67-.07l-52.16-19.32a50.24 50.24 0 01-28.84-27.68zM459.81 324c-2.64 12.91-7.84 24-15.73 33.17-12.28 14.29-11.72 36.29-16.08 56.43-2.94-13.34-3.92-26.64-10.82-43.65-6.82-16.83-1.23-96.55 12.88-96.11 5.25-26 171.11-25 171.11-25C626 259.12 642 309.25 642 309.25a192.48 192.48 0 01-10.35 100.09c-3.17 1.1-9.6-73.68-29.4-87.72s-57.7 11.18-89.4 3.51c5 4.28 12 8.22 20.87 11.87-21.74 4.45-44.56.85-63.26-7.47a101.08 101.08 0 01-10.65-5.53z"/><path class="cls-11" d="M457.26 315.87c-2.73 12.92-8.11 24-16.29 33.17-12.72 14.29-12.14 36.29-16.66 56.43-3-13.34-4.05-26.64-11.2-43.65-7.07-16.83-3.76-36.51-2-56l-6.45-.11a2.9 2.9 0 01-2.39-1.34c-.53-.83-.21-1.77-.19-2.74.31-15.79 9.72-36.32 24.33-35.88 5.44-26 26.21-43.9 61.72-54.11a2.9 2.9 0 013.48 1.72l4.07 10.34c35.92-11.64 73.65-10.49 113.41 4.94a2.88 2.88 0 011.13 4.59l-6.6 7.57c25.7 10.2 44.64 28.17 53.5 57.73a2.89 2.89 0 01-3.15 3.69l-8.1-1.08a186.28 186.28 0 01-10.72 100.08L616.39 351s9.11-11.72-11.64-37.55c-1.44-.65-10.66-1.9-13.67-2-31.3-1.45-46.08 13.19-78.92 5.55 5.17 4.28 12.44 8.22 21.61 11.88-26.99 5.3-55.59-.94-76.51-13.01z"/><path class="cls-17" d="M418 397.16c13.73 0 24.88 9.38 24.88 20.93S431.7 439 418 439s-24.88-9.38-24.88-20.94 11.12-20.9 24.88-20.9z"/><path class="cls-18" d="M393.88 412.84c3.19 12.62 15.6 22.05 30.41 22.05a33.75 33.75 0 0011.1-1.86A27.36 27.36 0 01418 439c-13.73 0-24.88-9.38-24.88-20.94a17.71 17.71 0 01.76-5.22z"/><path class="cls-19" d="M410.89 412.6a20.67 20.67 0 00-6.63 1.74s-2.36-.31-1.29-1.66c1.31-1.65 6.06-2.53 10.13-2.53a22 22 0 0117 8.66 1.31 1.31 0 010 1.38c-1 1.24-2.92-1.68-4.93-3.32a19.53 19.53 0 00-11.47-4.33 3.93 3.93 0 01-.47.74c-1.85 2.61-3.47 6.24-.74 8.52a9 9 0 001.79 1.05c1 .57.58 2.69-1.4 1.74a6.6 6.6 0 01-3.88-4.77 9.87 9.87 0 011.89-7.22z"/><path class="cls-17" d="M643.12 397.16c-13.73 0-24.88 9.38-24.88 20.93S629.39 439 643.12 439 668 429.65 668 418.09s-11.14-20.93-24.88-20.93z"/><path class="cls-18" d="M667.21 412.84c-3.18 12.62-15.59 22.05-30.4 22.05A33.77 33.77 0 01625.7 433a27.36 27.36 0 0017.42 6c13.74 0 24.88-9.38 24.88-20.94a17.71 17.71 0 00-.79-5.22z"/><path class="cls-19" d="M647.67 412.53a19.86 19.86 0 00-14.54 7.11c-1.88 2.24-2.26.67-2.34 0-.15-1.2 1.84-2.83 3.81-4.44a21.71 21.71 0 0113.39-5h.32a23.74 23.74 0 019.23 2.14 1.4 1.4 0 01.78.76c.27.91-.38 1.78-1.84 1.13a20.32 20.32 0 00-6.18-1.58 17.4 17.4 0 011.33 3.12c.91 2.55.71 5.76-1.53 7.68a12.2 12.2 0 01-2.33 1.41c-.77.3-.88.06-1.16-.21-.58-.54-.34-1.48.63-1.92a4.7 4.7 0 002.66-2.73c.72-2.52-.85-5.21-2.18-6.91a2.55 2.55 0 01-.05-.56z"/><ellipse class="cls-20" cx="489.53" cy="391.75" rx="28.56" ry="23.88"/><path class="cls-21" d="M497.18 385A14.15 14.15 0 11483 399.16 14.15 14.15 0 01497.18 385z"/><path class="cls-15" d="M494.28 390.58a4.76 4.76 0 11-4.76 4.75 4.76 4.76 0 014.76-4.75z"/><ellipse class="cls-20" cx="594.97" cy="391.75" rx="28.56" ry="23.88"/><path class="cls-21" d="M602.62 385a14.15 14.15 0 11-14.15 14.14A14.15 14.15 0 01602.62 385z"/><path class="cls-15" d="M599.72 390.58a4.76 4.76 0 11-4.76 4.75 4.75 4.75 0 014.76-4.75z"/><path class="cls-22" d="M479.49 422.71a2.45 2.45 0 11-2.44 2.45 2.45 2.45 0 012.44-2.45zM588.34 423a2.45 2.45 0 11-2.44 2.44 2.44 2.44 0 012.44-2.44zM487.72 429.43a2.45 2.45 0 11-2.44 2.45 2.45 2.45 0 012.44-2.45zM596.57 429a2.45 2.45 0 11-2.44 2.44 2.45 2.45 0 012.44-2.44z"/><circle class="cls-19" cx="495.1" cy="425.46" r="2.44" transform="rotate(-.22 483.61 417.626)"/><path class="cls-22" d="M604 423.33a2.45 2.45 0 11-2.45 2.44 2.44 2.44 0 012.45-2.44z"/><ellipse class="cls-19" cx="541.54" cy="433" rx="23.36" ry="20.77"/><ellipse class="cls-10" cx="537.8" cy="427.34" rx="23.36" ry="20.77"/><path d="M589.44 475.07a2.12 2.12 0 00-1.85-3.12l-90.59-.67a2.11 2.11 0 00-1.86 3.15c20.35 35.84 74.8 36.57 94.3.64z" fill="#934826" fill-rule="evenodd"/><g clip-path="url(#clip-path-2)"><rect class="cls-20" x="520.55" y="463.24" width="20.26" height="15.46" rx="3.86"/><rect class="cls-20" x="543.7" y="463.24" width="20.26" height="15.46" rx="3.86"/><path d="M542.25 490.42c12 0 21.71 6.13 21.71 13.68s-9.73 13.69-21.71 13.69-21.7-6.13-21.7-13.69 9.72-13.68 21.7-13.68z" fill="#e5776d" fill-rule="evenodd"/></g><rect class="cls-26" x="561.66" y="631.8" width="20.4" height="6.62" rx="1.66"/><rect class="cls-26" x="476.31" y="631.8" width="20.4" height="6.62" rx="1.66"/><rect x="474.42" y="637.31" width="111.4" height="23.44" rx="5.86" fill="#616773"/><path class="cls-17" d="M506.63 655.32a3.95 3.95 0 010 7.89h-3.11a3.9 3.9 0 01.48 1.89 3.94 3.94 0 01-3.94 3.94H498a4 4 0 01.16 1.1 3.94 3.94 0 01-3.95 3.94H492a4 4 0 01-3.94 3.95h-16.29c-6.94 0-14.74-3.31-18.23-7.13-4.36-4.79-6-15.48-2.92-22.26s14.84-15 21.3-18.42c5.16-2.75 14.57-2.43 17.4-2.21 1.17.09 1 4.25.15 5.1-1.57 1.66-9.6 2.75-12 5.3s-5.07 13.84-.18 16.91 29.34 0 29.34 0zM551.75 655.32a3.95 3.95 0 100 7.89h3.11a3.94 3.94 0 003.46 5.83h2.07a4 4 0 00-.16 1.1 3.94 3.94 0 003.95 3.94h2.19a4 4 0 004 3.95h16.29c6.94 0 14.74-3.31 18.22-7.13 4.37-4.79 6-15.48 2.93-22.26s-14.85-15-21.3-18.42c-5.16-2.75-14.57-2.43-17.4-2.21-1.18.09-1 4.25-.15 5.1 1.56 1.66 9.6 2.75 12 5.3s5.06 13.84.18 16.91-29.39 0-29.39 0z"/><path fill="#d39542" d="M303.95 660.82h595.63V685H303.95z"/><path class="cls-29" d="M433.31 685h-57.49l-71.87 254.89h23.96L433.31 685zM770.23 685h57.49l71.86 254.89h-23.95L770.23 685z"/><path class="cls-30" d="M407.55 747.31l-43.56-20.36L375.82 685h57.49l-25.76 62.31zM795.99 747.31l43.56-20.36L827.72 685h-57.49l25.76 62.31z"/><path d="M672.14 453.47h261a8.13 8.13 0 018.13 8.13v166.75a8.14 8.14 0 01-8.14 8.14h-261a8.14 8.14 0 01-8.14-8.14V461.61a8.14 8.14 0 018.15-8.14z" fill="#cbd2df"/><path d="M664 610.73c0 4.49 3.25 8.13 7.27 8.13H934c4 0 7.28-3.64 7.28-8.13v17.62c0 4.49-3.26 8.13-7.28 8.13H671.28c-4 0-7.27-3.64-7.27-8.13z" fill="#b8c1d3" fill-rule="evenodd"/><rect class="cls-33" x="771.46" y="518.65" width="62.38" height="52.66" rx="2.34"/><rect class="cls-33" x="787.9" y="520.99" width="29.52" height="134.91" rx="1.31"/><rect class="cls-33" x="739.23" y="650.95" width="126.85" height="9.87" rx=".44"/><path d="M529.19 642.84a5.06 5.06 0 11-5.06 5 5.06 5.06 0 015.06-5z" fill="#828c9f" fill-rule="evenodd"/><path d="M658.13 743.69a32.89 32.89 0 01-15.28-3.92c-7.33-3.83-14.2-10.46-19.33-18.66s-8.13-17.15-8.62-25.49v-.26c-8.79-3.46-18.94-8.14-30.35-14-28.76-14.77-55.92-32.16-56.19-32.34a1.57 1.57 0 111.7-2.65c.27.17 27.32 17.49 56 32.2 10.8 5.54 20.45 10 28.85 13.38.26-7.65 2.85-14.05 7.6-18.65 3.2-3.1 8.32-4.14 14.41-2.93a32.42 32.42 0 0115 7.55c7 6.45 8 14.16 2.7 20.65-4.14 5.07-13.24 5.38-27.81 1-2.68-.82-5.55-1.79-8.59-2.93a53 53 0 008.06 22.84c4.84 7.73 11.28 14 18.12 17.54 7.62 4 15.62 4.63 23.15 1.9 10.71-3.89 18.08-12.42 22.53-26.07 5.58-17.11 6.66-43 3.21-77a1.57 1.57 0 113.13-.32c3.55 34.92 2.45 60.53-3.34 78.31-4.78 14.63-12.77 23.8-24.45 28.05a30.32 30.32 0 01-10.5 1.8zM618 693.18q5.17 2 9.66 3.33c12.84 3.9 21.3 3.92 24.45.06 2.47-3 5.43-9.13-2.4-16.33-6.94-6.38-19.67-9.9-25.06-4.68S618 687.63 618 693.18z" fill="#4b5059"/><path d="M700.59 625.86h-11.65V634a4.27 4.27 0 004.29 4.29h3.07a4.28 4.28 0 004.29-4.29z" fill="#4b5059" fill-rule="evenodd"/></g><path class="cls-37" d="M415.11 1019.62h-5.89v-44.31h5.89zm4.6 0V979h7.42c11.13.08 13.77 4.4 13.84 10.3.06 4.72-1.35 7.45-3.92 8.77q-3.51 1.82-12.81 1.82l14.86 19.77z"/><path class="cls-38" d="M779.14 1019.62h-5.9v-44.31h5.9zm4.6 0V979h7.42c11.13.08 13.76 4.4 13.84 10.3 0 4.72-1.35 7.45-3.92 8.77-2.34 1.21-6.62 1.82-12.81 1.82l14.86 19.77z"/><path class="cls-37" d="M472.01 1016.99h-23.74v-18.36h17.17v-5.06h-17.17v-14.59h21.17l2.57 38.01zM490.33 979.77q10.86 0 16.35 5.78c3.17 3.33 4.75 8.92 4.75 14.53 0 5.31-1.91 10.86-5.73 14.39a17.75 17.75 0 01-12.5 4.94H481v-39.64z"/><path class="cls-38" d="M534.62 1020.49h-6.25v-42h6.25zm17.7-7l-14.93-35.09 30 .11zm23.94 7H570v-42h6.25zM587.91 984.9a17.09 17.09 0 0112.16-5.18 16.7 16.7 0 0112.39 5.35 18.54 18.54 0 015.2 13.41q0 9-6.24 13.85a18.72 18.72 0 01-11.79 3.88 16 16 0 01-11-4.64q-6.08-5.55-6.07-14.88c0-4.41 1.79-8.33 5.37-11.79M623.9 1019.73v-35.88l24.26 35.88zm26.76-8l-23.78-34.36 23.78.11zM709.56 1019.75h-13.08v-37.59h13.08zm19.57.44h-13.31v-38h13.31zM761.79 1017.98h-22.16v-19.05h16.96v-5.2h-16.96v-15.2h24.43l-2.27 39.45zM660.8 1018.41l-.08-44h23.83a15.55 15.55 0 00-.16 2.14c-13.78-.36-14.38 5.76-14.83 8.83a9.09 9.09 0 004.05 9.18 36.11 36.11 0 008 3.43q5 1.58 6.31 3.6a9.14 9.14 0 011 2.24 8 8 0 01.29 2.18 6.94 6.94 0 01-2.62 5.49 8.85 8.85 0 01-5.91 2.24 7.4 7.4 0 01-5.12-1.92 10.7 10.7 0 01-3.13-6.27H666c-.1 12.24 13.3 12.8 13.3 12.8zm20.43-38.55a5.46 5.46 0 105.47 5.46 5.46 5.46 0 00-5.47-5.46"/></svg>