<svg id="Layer_1" data-name="Layer 1" xmlns="http://www.w3.org/2000/svg" viewBox="0 0 1200 1200"><defs><style>.cls-2{fill:#d9dadb}.cls-3{fill:#b2917f}.cls-4{fill:#9dbd16}.cls-5{fill:#7c7c7c}.cls-6{fill:#d3b39e}.cls-7{fill:#bebfc3}.cls-8{fill:#58585a}.cls-10{fill:#7ea8c4}.cls-11{fill:#a2c7e4}.cls-13{fill:#bddbef}.cls-14{fill:#e0ccc1}.cls-15{fill:#414143}.cls-17{fill:#3e3d40}.cls-18{fill:#bfbfbf}.cls-20{fill:none;stroke:#bebfc3;stroke-miterlimit:10;stroke-width:1.56px}.cls-21{fill:#fff}.cls-23{fill:#70b5f1}.cls-26{fill:#ffe7cc}</style></defs><path fill="#d6e8f2" opacity=".4" d="M-1 0h1201v1201H-1z"/><path class="cls-2" d="M894.15 492.09c-40.3.81-58.84 15.53-59.64 42.13s40.29 16.21 41.1 29.91-45.94 108.2 43.52 104.56c40.28-1.64 79.64-29.6 79.8-84.5.17-59.64-64.48-92.91-104.78-92.1zm-8.47 49.38c-13.13 0-23.77-6.78-23.77-15.15s10.64-15.16 23.77-15.16 23.78 6.79 23.78 15.16-10.64 15.15-23.78 15.15z"/><path class="cls-3" d="M920.5 636.87A15.46 15.46 0 11905 621.4a15.46 15.46 0 0115.5 15.47z"/><path class="cls-4" d="M965 622.51a15.46 15.46 0 11-15.46-15.46A15.46 15.46 0 01965 622.51z"/><path class="cls-5" d="M982.51 578.22a15.46 15.46 0 11-15.46-15.46 15.46 15.46 0 0115.46 15.46z"/><path class="cls-6" d="M845.28 623.54c28.54 24.49-32.8 33.31-32.8 33.31s12.36-9.54 13.29-18.22 5.82-26.84 19.51-15.09z"/><path class="cls-7" d="M880.66 574.57c-26.56 27.28-39 46.31-39 46.31L852 631.21s17.55-11.83 45.84-39.5z"/><path class="cls-8" d="M902.84 586.74c31.23-31.23 84.16-96.29 84.16-96.29s4.36-7.18 2.72-8.8-8.73 2.8-8.73 2.8-65.68 55.44-95.52 85.29c-1.65 1.64-3.22 3.24-4.77 4.83l17.15 17.14c1.6-1.6 3.27-3.25 4.99-4.97z"/><path d="M897.23 573.77a3.19 3.19 0 01-4.5-.21 3.18 3.18 0 01.2-4.5l73.65-67.2c1.3-1.19-69.35 71.91-69.35 71.91z" opacity=".5" fill="#d9dadb"/><path class="cls-2" d="M877 585.51a2.67 2.67 0 013.77.18 2.67 2.67 0 01-.17 3.76l-30.36 25.78c-1.12.99 26.76-29.72 26.76-29.72z"/><rect class="cls-10" x="205.51" y="532.79" width="162.03" height="106.97" rx="4.33"/><path class="cls-11" d="M367.27 636.9l-80.73-64.38-80.75 64.38a4.3 4.3 0 004.06 2.86h153.36a4.31 4.31 0 004.06-2.86z"/><path d="M286.16 626.77l81.34-90.1a4.32 4.32 0 00-4.29-3.88H209.85a4.33 4.33 0 00-4.34 4.33v.28z" fill="#4d7c96" opacity=".3"/><path class="cls-13" d="M206.67 534.52l79.57 77.74 80.15-78.32a4.29 4.29 0 00-2.92-1.15H210.11a4.32 4.32 0 00-3.44 1.73z"/><path class="cls-6" d="M201.86 537.55c-44 89 13.88 116.65 20 115.06 10.63-2.75 24.19-28.44 19.47-39.33s-23.71-7.27-28.93-22.6 2.6-34.13 7.6-44.17 15.19-27.65 30.55-32.81 24 12.13 35.52 9.28 23.73-29.22 19.47-39.33c-2.49-5.83-59.64-35.06-103.68 53.9z"/><path class="cls-14" d="M212 543.6c14.61-30.25 37.18-52.87 61.25-64.39-18.77 1.63-44.34 14.1-67.26 60.38-22.82 46.12-16.92 73.8-8 88.89.47.79 1 1.54 1.44 2.27-5.63-25.85-1.88-57.22 12.57-87.15z"/><path class="cls-15" d="M536.41 321.3a5.66 5.66 0 01-2.79 7.51l-170.69 78.33a5.67 5.67 0 01-7.51-2.79L305.56 295.7a5.67 5.67 0 012.79-7.51L479 209.87a5.67 5.67 0 017.52 2.78z"/><path transform="rotate(-24.65 430.465 304.016)" fill="#eceded" d="M353.48 251.1h154.1v105.89h-154.1z"/><path class="cls-17" d="M356.69 340.11a10 10 0 11-13.24-4.91 10 10 0 0113.24 4.91z"/><path class="cls-17" transform="rotate(-24.64 339.311 326.243)" d="M329.37 322.53h19.98v7.5h-19.98z"/><path class="cls-17" transform="rotate(-24.66 334.598 315.952)" d="M324.65 312.23h19.98v7.5h-19.98z"/><path class="cls-17" transform="rotate(-24.65 329.839 305.647)" d="M319.92 301.94h19.98v7.5h-19.98z"/><path class="cls-17" transform="rotate(-24.65 365.264 382.847)" d="M355.36 379.16h19.98v7.5h-19.98z"/><path class="cls-17" transform="rotate(-24.64 360.67 372.643)" d="M350.63 368.87h19.98v7.5h-19.98z"/><path class="cls-17" transform="rotate(-24.65 355.828 362.276)" d="M345.91 358.57h19.98v7.5h-19.98z"/><path class="cls-18" d="M355 338.42a10 10 0 11-13.25-4.92 10 10 0 0113.25 4.92z"/><path class="cls-18" transform="rotate(-24.64 337.617 324.554)" d="M327.67 320.83h19.98v7.5h-19.98z"/><path class="cls-18" transform="rotate(-24.66 332.905 314.264)" d="M322.95 310.53h19.98v7.5h-19.98z"/><path class="cls-18" transform="rotate(-24.65 328.15 303.935)" d="M318.22 300.24h19.98v7.5h-19.98z"/><path class="cls-18" transform="rotate(-24.65 363.57 381.158)" d="M353.66 377.46h19.98v7.5h-19.98z"/><path class="cls-18" transform="rotate(-24.64 358.977 370.954)" d="M348.94 367.17h19.98v7.5h-19.98z"/><path class="cls-18" transform="rotate(-24.65 354.135 360.587)" d="M344.21 356.87h19.98v7.5h-19.98z"/><path class="cls-15" d="M463.25 274.68a7.1 7.1 0 00-7.1-7.1h-2a7.1 7.1 0 00-7.1 7.1v6a7.1 7.1 0 007.1 7.1h2a7.1 7.1 0 007.1-7.1zM464.55 389.54l-9.39 16.26-9.39-16.26h18.78z"/><rect class="cls-4" x="443.86" y="275.49" width="22.61" height="119.66" rx="8.36"/><path d="M453.55 377.78c0 2.15-1 3.89-2.24 3.89-1.24 0-2.24-1.74-2.24-3.89v-89.33c0-2.15 1-3.89 2.24-3.89 1.24 0 2.24 1.74 2.24 3.89z" fill="#c5dd33" opacity=".5"/><path class="cls-20" d="M369.9 311.44l-7.77-16.95 16.95-7.77M451.5 253.53l16.95-7.77 7.77 16.95M492.3 297.78l7.77 16.96-16.96 7.77M410.7 355.7l-16.96 7.77-7.77-16.96"/><path class="cls-8" d="M784.47 561.17a178.29 178.29 0 11-178.28-178.29 178.29 178.29 0 01178.28 178.29z"/><path class="cls-21" d="M750.86 561.17a144.69 144.69 0 11-144.67-144.68 144.68 144.68 0 01144.67 144.68z"/><path class="cls-7" d="M721.25 561.17A115.07 115.07 0 11606.19 446.1a115.06 115.06 0 01115.06 115.07z"/><path class="cls-21" d="M684.64 561.17a78.46 78.46 0 11-78.45-78.45 78.46 78.46 0 0178.45 78.45z"/><path class="cls-7" d="M645.56 561.17a39.37 39.37 0 11-39.37-39.37 39.37 39.37 0 0139.37 39.37z"/><path class="cls-10" d="M893.5 283.17s65.62 1.82 68.58 30.57-51.62 43.9-51.62 43.9z"/><path class="cls-13" d="M893.5 283.17s-11.06-63.41-38.33-64.17-42 57.51-42 57.51z"/><path class="cls-2" d="M650.09 505.51l-51.43 64.31 66.84-44.55-15.41-19.76z"/><path class="cls-8" d="M681.35 450c-23.59 14-52.54 70.6-40 81.65s64.34-6.44 81.3-37.41z"/><path class="cls-11" d="M893.5 283.17L681.35 450s-12.73 44.53 41.29 44.24z"/><path class="cls-10" d="M893.5 283.17s-73.36-56-106.72-29.49-15.87 125.9-15.87 125.9z"/><path class="cls-13" d="M893.5 283.17s42.76 50.5 26.54 96.41-125.44 25.77-125.44 25.77z"/><path d="M706.8 708.34a178.72 178.72 0 0066.07-83.89l-174.21-54.63z" fill="#1a171b" opacity=".2"/><path class="cls-2" d="M950.71 843c-1.85-3.46-15-4.53-15-4.53a47.42 47.42 0 00-1-10.54s12.68-3.65 13.81-7.4c1.88-6.25-6.1-21.13-12.35-23-3.75-1.13-13.8 7.4-13.8 7.4a47.6 47.6 0 00-8.21-6.69s6.39-11.56 4.53-15c-3.08-5.75-19.24-10.63-25-7.54-3.45 1.85-4.53 15-4.53 15a47.39 47.39 0 00-10.53 1s-3.66-12.68-7.4-13.81c-6.26-1.88-21.13 6.1-23 12.35-1.14 3.75 7.4 13.8 7.4 13.8a47.07 47.07 0 00-6.69 8.2s-11.56-6.38-15-4.53c-5.75 3.09-10.63 19.25-7.54 25 1.85 3.46 15 4.53 15 4.53a46.26 46.26 0 001 10.54s-12.68 3.65-13.81 7.4c-1.88 6.25 6.1 21.12 12.35 23 3.74 1.13 13.8-7.4 13.8-7.4a47 47 0 008.2 6.68s-6.38 11.56-4.53 15c3.09 5.76 19.25 10.63 25 7.54 3.46-1.85 4.53-15 4.53-15a47.27 47.27 0 0010.53-1s3.66 12.67 7.41 13.8c6.25 1.89 21.12-6.09 23-12.34 1.13-3.75-7.4-13.8-7.4-13.8a47.09 47.09 0 006.68-8.21s11.56 6.39 15 4.53c5.76-3.08 10.64-19.24 7.55-24.98zm-67.35 12a17.85 17.85 0 1122.24-12 17.86 17.86 0 01-22.24 12z"/><path class="cls-7" d="M926.16 866.29l-23.45-17.64a17.83 17.83 0 01-28.49-21.44l-23.45-17.64c-.65.87-1.29 1.77-1.89 2.69 0 0-11.56-6.38-15-4.53-5.75 3.09-10.63 19.25-7.54 25 1.85 3.46 15 4.53 15 4.53a46.26 46.26 0 001 10.54s-12.68 3.65-13.81 7.4c-1.88 6.25 6.1 21.12 12.35 23 3.74 1.13 13.8-7.4 13.8-7.4a47 47 0 008.2 6.68s-6.38 11.56-4.53 15c3.09 5.76 19.25 10.63 25 7.54 3.46-1.85 4.53-15 4.53-15a47.27 47.27 0 0010.53-1s3.66 12.67 7.41 13.8c6.25 1.89 21.12-6.09 23-12.34 1.13-3.75-7.4-13.8-7.4-13.8a47.22 47.22 0 004.74-5.39z"/><path class="cls-23" d="M862.34 797.47c-3.12-3.12-17.69 0-17.69 0a52.6 52.6 0 00-4.55-11s12.5-8.08 12.5-12.49c0-7.36-13.46-20.82-20.82-20.82-4.42 0-12.5 12.49-12.5 12.49a52.16 52.16 0 00-11-4.55s3.13-14.56 0-17.69c-5.21-5.2-24.24-5.2-29.45 0-3.12 3.13 0 17.69 0 17.69a52.6 52.6 0 00-11 4.55s-8.08-12.49-12.5-12.49c-7.36 0-20.81 13.46-20.81 20.82 0 4.41 12.49 12.49 12.49 12.49a52.6 52.6 0 00-4.55 11s-14.56-3.12-17.69 0c-5.21 5.21-5.21 24.24 0 29.45 3.13 3.13 17.69 0 17.69 0A52.9 52.9 0 00747 838s-12.5 8.07-12.49 12.49c0 7.36 13.45 20.82 20.81 20.82 4.42 0 12.5-12.5 12.5-12.5a52.6 52.6 0 0011 4.55s-3.12 14.57 0 17.7c5.21 5.2 24.24 5.2 29.45 0 3.13-3.13 0-17.7 0-17.7a52.16 52.16 0 0011-4.55s8.08 12.5 12.5 12.5c7.36 0 20.82-13.46 20.82-20.82 0-4.42-12.5-12.49-12.5-12.49a52.9 52.9 0 004.55-11s14.57 3.13 17.69 0c5.22-5.29 5.22-24.32.01-29.53zm-68.82 34.85a20.13 20.13 0 1120.13-20.12 20.12 20.12 0 01-20.13 20.12z"/><path class="cls-21" d="M793.52 779.28a32.92 32.92 0 1032.92 32.92 32.92 32.92 0 00-32.92-32.92zm0 50.69a17.77 17.77 0 1117.78-17.77 17.77 17.77 0 01-17.78 17.8z"/><path class="cls-8" d="M793.52 784a28.22 28.22 0 1028.23 28.22A28.21 28.21 0 00793.52 784zm0 43.46a15.24 15.24 0 1115.24-15.24 15.24 15.24 0 01-15.24 15.22z"/><path class="cls-13" d="M562.76 841.41l-25.08 25.08v131.56h121.24V841.41h-96.16z"/><path class="cls-10" d="M537.68 866.49l25.09.17-.01-25.25"/><path class="cls-11" d="M637.37 872.51l21.55 18.68v106.86h-81.47l59.92-125.54z"/><path class="cls-21" d="M637.37 872.51l-25.9 16.17-7.69 15.31 28.38 14.26 7.69-15.31-2.48-30.43z"/><path class="cls-6" transform="rotate(-63.33 594.617 958.21)" d="M531.53 949.74h126.15v16.94H531.53z"/><path class="cls-3" d="M583.68 1015.89l-9.82 2.48 56.62-112.73 9.82-2.47-56.62 112.72z"/><path class="cls-14" d="M554.85 1001.41l3.87 9.35 56.63-112.72-3.88-9.36-56.62 112.73z"/><path d="M637.37 872.51l-15.82 9.88a18.07 18.07 0 0017.34 8.71z" fill="#212121"/><path d="M400.36 851.16a7.78 7.78 0 01-1.76-1c-3-2.16-3.53-6-3.47-8.66 9.91-4.78 17.45-14.87 20-27.23 2.23.57 4.95-2.37 6.1-6.6s.28-8.2-2-8.8c-1.09-.3-2.31.26-3.41 1.41 0-.32-.06-.65-.1-1a34.71 34.71 0 00.27-4.1 33.91 33.91 0 10-67.54 4.06v.53a3.27 3.27 0 00-2.9-.94c-2.24.6-3.11 4.55-2 8.8 1.06 3.88 3.44 6.65 5.55 6.65 2.6 12.39 10.2 22.5 20.16 27.25.05 2.64-.47 6.45-3.47 8.59a8 8 0 01-1.76 1c-7.1 2.68-44.6 4-44.6 44.65a346.83 346.83 0 00125.46 0c.11-40.58-37.43-41.93-44.53-44.61z" fill="#c6c7c8"/><path class="cls-5" d="M378.82 854.87a9.07 9.07 0 01-2.09-1.14c-3.6-2.57-4.19-7.15-4.12-10.3 11.77-5.68 20.73-17.67 23.8-32.35 2.65.67 5.89-2.82 7.26-7.85s.33-9.74-2.33-10.46c-1.31-.36-2.75.31-4.06 1.68l-.12-1.15a41.2 41.2 0 00.33-4.87 40.3 40.3 0 10-80.27 4.83l-.06.63a3.85 3.85 0 00-3.44-1.12c-2.66.72-3.71 5.4-2.33 10.46 1.25 4.61 4.08 7.9 6.59 7.9 3.09 14.73 12.12 26.74 23.95 32.38.06 3.14-.55 7.67-4.12 10.22a8.86 8.86 0 01-2.09 1.14c-8.44 3.2-53 4.8-53 53.07a412.6 412.6 0 00149.09 0c.01-48.27-44.55-49.87-52.99-53.07z"/><path class="cls-23" d="M351.63 860.62a10.58 10.58 0 01-2.31-1.26l-21.44 19-21.44-19a10.36 10.36 0 01-2.31 1.26c-9.3 3.52-58.4 5.28-58.4 58.48a454.25 454.25 0 00164.3 0c-.03-53.2-49.1-54.96-58.4-58.48z"/><path class="cls-26" d="M349.32 859.36c-6.44-4.61-4.15-15.08-4.15-15.08h-34.58s2.29 10.47-4.15 15.08l21.44 19z"/><path class="cls-26" d="M349.32 859.36c-6.44-4.61-4.15-15.08-4.15-15.08h-34.58s2.29 10.47-4.15 15.08"/><path class="cls-26" d="M372.28 800c0 28.67-19.92 51.9-44.49 51.9S283.3 828.71 283.3 800s19.92-51.91 44.49-51.91 44.49 23.28 44.49 51.91z"/><path class="cls-26" d="M287.93 800.82c1.52 5.57.37 10.74-2.56 11.53s-6.54-3.07-8.05-8.64-.32-10.71 2.56-11.53 6.54 3.07 8.05 8.64zM368.39 800.82c-1.52 5.57-.37 10.74 2.57 11.53s6.53-3.07 8.05-8.64.36-10.74-2.57-11.53-6.54 3.07-8.05 8.64z"/><path class="cls-6" d="M327.79 743a44.31 44.31 0 00-42.27 57.91c1.7.76 4.2 1.72 5 1.24 6.06-3.54-3.41-31.09 13-31.56s19.35 5.5 26.06 6.45c6.37.9 24.1-3 29.45.53 6 4 2.92 23.55 10.08 24.58a1 1 0 00.57-.12 44.42 44.42 0 00-41.94-59z"/></svg>