<svg xmlns="http://www.w3.org/2000/svg" viewBox="0 0 176.18 51.5"><g data-name="Layer 2"><g data-name="Layer 1"><path d="M132.34 0a62.84 62.84 0 010 26.51 49.89 49.89 0 01-3.46 11c-1.36 3.74 6.74 9.9 11.1 9.54.23 0 .23.07 0 .1-4 1.07-10.29-2.16-12-4.88a10.09 10.09 0 00-4.34 9.22H3.84A3.79 3.79 0 010 47.72v-44A3.75 3.75 0 013.74 0H126c1.67 0 2.73.26 3.4 1.91.61 1.49 1.17 3 1.65 4.5l.21.74.2.76.18.79.17.81.15.84.14.86.12.89.11.91.09.92.07 1 .05 1v5.08l.06-.56.12-1.26.09-1.28.07-1.3.05-1.32v-5.16l-.06-1.24-.09-1.22-.11-1.19A41.19 41.19 0 00131.53 0z" fill-rule="evenodd" fill="#005aaa"/><path d="M139.36 13.35c3.64 4.22 10.69 8.65 19.38 11.74a63 63 0 0012.61 3.15 35.6 35.6 0 004.83.39v2a26.62 26.62 0 01-4.88-.46 64.71 64.71 0 01-12.84-3.81c-8.72-3.56-15.73-8.39-19.28-12.85-.2-.19-.07-.39.18-.12zm-1.77-3.59c-.15-.26-.29-.5-.4-.72a6.37 6.37 0 01-.52-1.85v.07-.24c.26-1 1.86-.76 2.45-.73a24.09 24.09 0 015.18 1.35l.54.2-1.36 6.62L146 8.29a58.87 58.87 0 0113.19 7.3c.62.47.89.73 1.63 1.31l4.93-3.9s.06 0 0 0L158 21.52c5.13 1.87 9.42 3.08 14 1.06.33-.14.64-.29.95-.45v2.65c0 1.44-1.44 1.31-2.17 1.23a52.89 52.89 0 01-11-2.49c-6.51-2-15.26-6.41-19.29-10.24a18.35 18.35 0 01-2.82-3.52zm35.29 28.64c-.84-.1-1.68-.24-2.5-.39-12.75-2.4-27.38-8.43-35.38-18.35-.66 4.89-1.55 9.73-2.58 14.56a99.05 99.05 0 003.88-12.08c2.66 4.67 8.82 10 15.13 13 .47.24.62.32 1.1.53-3.15 2.63-6.15 5.39-9.09 8.23 3.62-2.56 7.3-5 11.07-7.33 1.13.55 2 .86 3 1.25-4.38 2.65-11.65 6.36-18.52 13.59h1.25a66.52 66.52 0 017.35-6.28c.16-.14.19-.1 0 0a56.79 56.79 0 00-5 4.82c-.64.71-.71 1.44.52 1.44h26a3.75 3.75 0 003.74-3.74V38.4zm0-29.75c-4.44-4-12.94-6.9-21.5-8.65h17.76a3.75 3.75 0 013.74 3.74v4.91z" fill="#ed1c24" fill-rule="evenodd"/><path d="M82.08 14.94a9.53 9.53 0 01-1.1.34 5.32 5.32 0 01-1.2.14 3.79 3.79 0 01-1.24-.2 2.7 2.7 0 01-1-.58 2.56 2.56 0 01-.63-.91 3 3 0 01-.23-1.22 3.5 3.5 0 01.2-1.19 2.86 2.86 0 01.58-1 2.77 2.77 0 01.91-.62 3 3 0 011.18-.22 4.56 4.56 0 011.23.16 5.1 5.1 0 011.18.49l.19-2c-.44-.13-.89-.24-1.34-.33a6.37 6.37 0 00-1.39-.14 7.4 7.4 0 00-2.1.29 4.68 4.68 0 00-1.68.9 4 4 0 00-1.1 1.51 5.24 5.24 0 00-.4 2.1 4.66 4.66 0 00.48 2.21 4.26 4.26 0 001.25 1.46 5 5 0 001.7.81 7.57 7.57 0 001.87.25 8.72 8.72 0 001.56-.07c.42-.08.81-.16 1.16-.25l-.12-1.93zM82 5.4h-1.5l-1.1 1-1-1h-1.51l1.44 1.9h2.14L82 5.4zm1.5 11.68h6.63v-1.74h-4.22v-2.09h3.82v-1.74h-3.82v-1.9h4V7.87h-6.45v9.21zm8.14-.24a8.78 8.78 0 001.36.3 11.8 11.8 0 001.39.1 8.29 8.29 0 001.5-.14 3.81 3.81 0 001.3-.48 2.62 2.62 0 00.91-.93 2.93 2.93 0 00.34-1.49 2.47 2.47 0 00-.32-1.33 2.72 2.72 0 00-.81-.81 4.13 4.13 0 00-1-.46l-1-.3a3.15 3.15 0 01-.8-.35.61.61 0 01-.32-.56.63.63 0 01.17-.48 1.11 1.11 0 01.42-.26 2.26 2.26 0 01.53-.1h.53a5.16 5.16 0 011 .1 3.89 3.89 0 011 .32l.16-1.9a6.65 6.65 0 00-1.08-.25 9.15 9.15 0 00-1.3-.09 7.63 7.63 0 00-1.41.13 4.48 4.48 0 00-1.29.45 2.76 2.76 0 00-.94.86 2.41 2.41 0 00-.37 1.38 2.54 2.54 0 00.32 1.35 2.68 2.68 0 00.81.8 4.52 4.52 0 001 .46l1 .33a3.14 3.14 0 01.8.39.75.75 0 01.33.66.73.73 0 01-.13.45.83.83 0 01-.33.28 1.54 1.54 0 01-.49.13 5.46 5.46 0 01-.57 0 5.23 5.23 0 01-1.41-.18 4.85 4.85 0 01-1.12-.43l-.22 2zm8.46.24h2.45v-4.19l2.86 4.19h3.13l-3.67-4.92 3.4-4.29h-3l-2.77 3.76V7.87h-2.45v9.21zm11.63 0h2.45v-3.47l3.38-5.74h-2.86l-1.79 3.69-1.8-3.69h-2.83l3.41 5.74v3.47zm.13-9.78h1.66l1.71-1.9h-2.47l-.9 1.9zM10.19 30.89h3.88a7.82 7.82 0 001.26-.1 3.35 3.35 0 001.15-.41 2.27 2.27 0 00.85-.81 2.44 2.44 0 00.33-1.34 2 2 0 00-1.86-2 2.74 2.74 0 001.2-.83 2.11 2.11 0 00.42-1.4 2.25 2.25 0 00-.23-1 1.9 1.9 0 00-.62-.73 3 3 0 00-1-.42 4.59 4.59 0 00-1.2-.15h-4.18v9.21zM12.64 27h1.39a2 2 0 01.58.14.94.94 0 01.43.33 1 1 0 01.16.59.9.9 0 01-.16.57.91.91 0 01-.42.32 1.76 1.76 0 01-.59.15h-1.39V27zm0-3.57h.71a5.88 5.88 0 01.6 0 1.91 1.91 0 01.51.12.91.91 0 01.37.27.86.86 0 01.13.51.76.76 0 01-.14.48 1 1 0 01-.38.3 1.87 1.87 0 01-.52.15 3.81 3.81 0 01-.59 0h-.69v-1.9zm5.6 7.47h2.5l.72-2h3.46l.69 2h2.69l-3.55-9.21h-3l-3.5 9.21zm6.1-3.71H22l1.19-3.6 1.1 3.6zm5.12 3.71h3.36a9.25 9.25 0 002.18-.25 4.67 4.67 0 001.73-.79 3.7 3.7 0 001.14-1.44 5.15 5.15 0 00.41-2.17 5.51 5.51 0 00-.4-2.22 3.52 3.52 0 00-1.13-1.41 4.55 4.55 0 00-1.75-.73 10.74 10.74 0 00-2.2-.21h-3.34v9.21zm2.46-7.39h.95a3 3 0 012.11.7 2.72 2.72 0 01.75 2.09 2.7 2.7 0 01-.73 2.07 3 3 0 01-2.12.7h-.95V23.5zm7.95 7.39h2.4l-.05-7.07 2.24 7.07h2.26l2.35-7.07v7.07h2.4v-9.22h-3.71l-2 6.12-1.95-6.12h-3.94v9.21zm13.59 0h2.45v-9.22h-2.45v9.21zm4.53 0h2.25l-.08-6.29 3.22 6.29h3v-9.22h-2.16v6.26l-3.12-6.26H58v9.21zm12 0h2.46v-7.4h2.27v-1.82h-7v1.82H70v7.39zm5.62-4.6a6.15 6.15 0 00.29 2 3.87 3.87 0 002.33 2.45 6.17 6.17 0 004 0 3.86 3.86 0 001.45-.95 4 4 0 00.89-1.5 6.15 6.15 0 00.29-2 6.23 6.23 0 00-.29-2 3.82 3.82 0 00-2.33-2.44 5.55 5.55 0 00-2-.33 5.63 5.63 0 00-2 .33 3.84 3.84 0 00-2.32 2.44 6.23 6.23 0 00-.29 2zm2.53 0a5.09 5.09 0 01.12-1.13 2.93 2.93 0 01.37-.94 1.87 1.87 0 01.64-.64 1.81 1.81 0 011-.24 1.79 1.79 0 011 .24 1.9 1.9 0 01.65.64 2.93 2.93 0 01.37.94 5.24 5.24 0 010 2.23 2.93 2.93 0 01-.37.94 2 2 0 01-.65.66 1.79 1.79 0 01-1 .24 1.81 1.81 0 01-1-.24 1.93 1.93 0 01-.64-.66 2.93 2.93 0 01-.37-.94 5.08 5.08 0 01-.12-1.1zm8.32 4.6h2.25l-.07-6.29 3.22 6.29h3v-9.22H92.7v6.26l-3.1-6.26h-3.13v9.21zm10.22-4.6a6.14 6.14 0 00.3 2 3.82 3.82 0 002.32 2.45 5.59 5.59 0 002 .33 5.48 5.48 0 002-.33 3.89 3.89 0 001.46-.95 4 4 0 00.88-1.5 6.14 6.14 0 00.3-2 6.23 6.23 0 00-.3-2 3.88 3.88 0 00-.88-1.49 3.82 3.82 0 00-1.44-.95 5.63 5.63 0 00-2-.33 5.55 5.55 0 00-2 .33A3.77 3.77 0 0097 24.29a6.23 6.23 0 00-.3 2zm2.53 0a5.09 5.09 0 01.12-1.13 2.93 2.93 0 01.37-.94 1.9 1.9 0 01.65-.64 1.79 1.79 0 011-.24 1.81 1.81 0 011 .24 1.87 1.87 0 01.64.64 2.93 2.93 0 01.37.94 5.24 5.24 0 010 2.23 2.93 2.93 0 01-.37.94 1.93 1.93 0 01-.64.66 1.81 1.81 0 01-1 .24 1.79 1.79 0 01-1-.24 2 2 0 01-.65-.66 2.93 2.93 0 01-.37-.94 5.08 5.08 0 01-.12-1.1zm10.38 4.6h3l3.14-9.21h-2.52l-2.06 7.23-2-7.23h-2.62l3.09 9.21zm9.53 0h2.46v-3.48l3.42-5.74h-2.83l-1.78 3.7-1.81-3.7h-2.82l3.4 5.74v3.47zm.14-9.78h1.66l1.7-1.9h-2.47l-.89 1.9zm-37.2 23.53a8.29 8.29 0 001.36.3 11.49 11.49 0 001.38.1 8.29 8.29 0 001.5-.14 4 4 0 001.3-.49 2.46 2.46 0 00.91-.93 2.87 2.87 0 00.35-1.49 2.38 2.38 0 00-.33-1.33 2.48 2.48 0 00-.8-.81 4.13 4.13 0 00-1-.46l-1.05-.3a3.4 3.4 0 01-.81-.35.63.63 0 01-.32-.56.65.65 0 01.17-.48 1.29 1.29 0 01.42-.26 2.35 2.35 0 01.54-.1 4.79 4.79 0 01.52 0 5.33 5.33 0 011 .1 3.7 3.7 0 011 .32l.16-1.9a5.56 5.56 0 00-1.08-.25 8.91 8.91 0 00-1.28-.1 7.47 7.47 0 00-1.41.13 4.28 4.28 0 00-1.29.45 2.68 2.68 0 00-.94.86 2.41 2.41 0 00-.36 1.38 2.45 2.45 0 00.32 1.35 2.55 2.55 0 00.8.8 4.52 4.52 0 001 .46l1 .33a3.39 3.39 0 01.81.39.76.76 0 01.32.66.79.79 0 01-.12.45.93.93 0 01-.34.28 1.67 1.67 0 01-.49.13 5.17 5.17 0 01-.57 0 5.24 5.24 0 01-1.41-.17 5 5 0 01-1.12-.43l-.21 2zm10.68.24h3l3.14-9.22H96.4l-2.06 7.24-2-7.24h-2.69l3.09 9.22zm5.56 0h2.5l.72-2H105l.69 2h2.69l-3.55-9.22h-3l-3.5 9.22zm6.1-3.71h-2.31l1.19-3.61 1.1 3.61zm12.18-5.51h-7.06v1.83h4.27l-4.39 5.43v2h7.21v-1.86h-4.54l4.51-5.44v-2z" fill="#fff"/></g></g></svg>