<svg xmlns="http://www.w3.org/2000/svg" viewBox="0 0 800 669.43"><defs><style>.cls-1,.cls-16{fill:#2c5fb9}.cls-18,.cls-2{fill:#92b0e5}.cls-3{fill:#d2def4}.cls-10,.cls-4{fill:#1d3e79}.cls-13,.cls-5{fill:#de1717}.cls-6{fill:#fad2d2}.cls-14,.cls-7{fill:#a41111}.cls-8{fill:#f17676}.cls-10,.cls-13,.cls-14,.cls-15,.cls-16,.cls-18{fill-rule:evenodd}.cls-11{fill:#c20016}.cls-12,.cls-15{fill:#fff}</style></defs><g id="Layer_2" data-name="Layer 2"><g id="Layer_1-2" data-name="Layer 1"><path class="cls-1" d="M472.74 339.15s-1.69 6.76-8.45 6.76-8.45-6.76-8.45-6.76-18.59 3.36-18.59 22h54.08c0-18.54-18.59-22-18.59-22"/><path class="cls-2" d="M464.29 349.29c-8.45 0-8.45-10.14-8.45-10.14V329h16.9v10.14s0 10.15-8.45 10.15zM452.46 318.87a3.38 3.38 0 10-3.38 3.38 3.39 3.39 0 003.38-3.38m30.42 0a3.38 3.38 0 11-3.38-3.38 3.38 3.38 0 013.38 3.38"/><path class="cls-3" d="M479.5 308.73c0-12.9-30.42-8.4-30.42 0v11.83a15.21 15.21 0 1030.42 0z"/><path class="cls-4" d="M463.06 293.9c-11.14.24-15.67 8-15.67 18.21V316l3.38 2.89v-8.45l20.28-6.76 6.76 6.76v8.45l3.38-2.94v-3.82c0-6.8-1.76-13.54-10.14-15.21a10.68 10.68 0 00-7.99-3.02zM464.29 349.29c8.45 0 11.4-6.64 11.74-9.17a22.43 22.43 0 00-3.29-1s-1.69 6.76-8.45 6.76-8.45-6.76-8.45-6.76a22.9 22.9 0 00-3.3 1c.34 2.52 3.3 9.17 11.75 9.17z"/><path class="cls-1" d="M366.76 339.15s-1.69 6.76-8.45 6.76-8.45-6.76-8.45-6.76-18.59 3.36-18.59 22h54.08c0-18.54-18.59-22-18.59-22"/><path class="cls-2" d="M358.31 349.29c-8.45 0-8.45-10.14-8.45-10.14V329h16.9v10.14s0 10.15-8.45 10.15zM346.48 318.87a3.38 3.38 0 10-3.38 3.38 3.39 3.39 0 003.38-3.38m30.42 0a3.38 3.38 0 11-3.38-3.38 3.38 3.38 0 013.38 3.38"/><path class="cls-3" d="M373.52 308.73c0-12.9-30.42-8.4-30.42 0v11.83a15.21 15.21 0 0030.42 0z"/><path class="cls-4" d="M357.08 293.9c-11.14.24-15.67 8-15.67 18.21V316l3.38 2.89v-8.45l20.28-6.76 6.76 6.76v8.45l3.38-2.94v-3.82c0-6.8-1.76-13.54-10.14-15.21a10.68 10.68 0 00-7.99-3.02zM358.31 349.29c8.45 0 11.4-6.64 11.74-9.17a22.43 22.43 0 00-3.29-1s-1.69 6.76-8.45 6.76-8.45-6.76-8.45-6.76a22.9 22.9 0 00-3.3 1c.34 2.52 3.3 9.17 11.75 9.17z"/><path class="cls-5" d="M425.73 324.37s-2.83 11.31-14.14 11.31-14.13-11.31-14.13-11.31-31.1 5.62-31.1 36.75h90.46c0-31-31.09-36.75-31.09-36.75"/><path class="cls-6" d="M411.59 341.33c-14.13 0-14.13-17-14.13-17v-17h28.27v17s0 17-14.14 17zM391.8 290.45a5.66 5.66 0 10-5.65 5.65 5.65 5.65 0 005.65-5.65m50.89 0a5.66 5.66 0 11-5.66-5.66 5.65 5.65 0 015.66 5.66"/><path class="cls-6" d="M437 273.49c0-21.59-50.88-14.06-50.88 0v19.79a25.44 25.44 0 1050.88 0z"/><path class="cls-7" d="M409.54 248.67c-18.64.41-26.22 13.3-26.22 30.47v6.46l5.66 4.85v-14.14L422.9 265l11.31 11.31v14.14l5.65-4.93v-6.38c0-11.38-2.93-22.66-17-25.44.04 0-4.55-5.23-13.32-5.03z"/><path class="cls-8" d="M411.59 341.33c14.14 0 19.07-11.11 19.65-15.34a38.2 38.2 0 00-5.51-1.62s-2.83 11.31-14.14 11.31-14.13-11.31-14.13-11.31a37.68 37.68 0 00-5.52 1.6c.57 4.23 5.52 15.36 19.65 15.36z"/><path class="cls-2" transform="rotate(-18.29 405.209 373.808)" d="M371.1 354.87h68.34v37.97H371.1z"/><path class="cls-4" d="M381.19 397.81L371.66 369l57.68-19.07 9.53 28.84zm-14.32-31.26l11.91 36.05 64.89-21.44-11.91-36.05z"/><path d="M439.19 373.66a4.72 4.72 0 00-6 6A4.67 4.67 0 00435 382l6.29-2.08z" fill="#388e3c"/><path class="cls-4" d="M380.31 392.1a4.63 4.63 0 00-2.4 1.81l2.09 6.29 6.28-2.07a4.63 4.63 0 000-3 4.74 4.74 0 00-5.97-3.03zM371.34 374.05a4.73 4.73 0 004.21-8.37l-6.29 2.08zM430.23 355.61a4.78 4.78 0 002.4-1.81l-2.08-6.29-6.29 2.07a4.73 4.73 0 006 6z"/><path class="cls-2" transform="rotate(-18.29 419.226 380.558)" d="M385.13 361.61h68.34v37.97h-68.34z"/><path class="cls-4" d="M395.23 404.55l-9.53-28.84 57.68-19.06 9.53 28.84zm-14.33-31.26l11.92 36 64.88-21.39-11.91-36z"/><path class="cls-10" d="M398.29 383.54a3.8 3.8 0 11-2.42 4.8 3.8 3.8 0 012.42-4.8zM437.94 370.44a3.8 3.8 0 11-2.41 4.8 3.8 3.8 0 012.41-4.8zM415.73 369.78a11.39 11.39 0 11-7.24 14.39 11.4 11.4 0 017.24-14.39z"/><path class="cls-4" d="M453.23 380.4a4.73 4.73 0 00-4.21 8.37l6.29-2.08zM394.34 398.84a4.73 4.73 0 00-2.4 1.81l2.08 6.29 6.29-2.07a4.69 4.69 0 000-3 4.75 4.75 0 00-5.97-3.03zM385.38 380.79a4.72 4.72 0 006-6 4.67 4.67 0 00-1.81-2.4l-6.29 2.08zM444.26 362.35a4.68 4.68 0 002.4-1.81l-2.07-6.29-6.29 2.08a4.66 4.66 0 000 3 4.74 4.74 0 005.96 3.02z"/><path class="cls-5" d="M23.47 563.34h102.61A13.72 13.72 0 01139.76 577v61.56H9.78V577a13.73 13.73 0 0113.69-13.66z"/><path class="cls-1" d="M9.78 638.59h130v6.85a13.72 13.72 0 01-13.68 13.68H23.47a13.73 13.73 0 01-13.69-13.68z"/><rect class="cls-11" x="81.61" y="539.4" width="44.46" height="30.78" rx="6.84"/><path class="cls-11" d="M30.31 570.19h41.05v13.68H30.31z"/><path class="cls-3" d="M71.35 529.14l-6.84 3.42-6.84-3.42-6.84 3.42-6.84-3.42-6.84 3.42-6.84-3.42v47.89h41.04v-47.89z"/><path class="cls-12" d="M88.45 546.24h30.78v17.1H88.45z"/><path class="cls-6" d="M26.89 590.71h13.68v13.68H26.89zM47.41 590.71h13.68v13.68H47.41zM67.93 590.71h13.68v13.68H67.93zM88.45 590.71h13.68v13.68H88.45zM108.98 590.71h13.68v13.68h-13.68zM26.89 611.23h13.68v13.68H26.89zM47.41 611.23h13.68v13.68H47.41zM67.93 611.23h13.68v13.68H67.93zM88.45 611.23h13.68v13.68H88.45zM108.98 611.23h13.68v13.68h-13.68z"/><path class="cls-10" d="M99 647.24a1.8 1.8 0 00-1.8-1.8H52.31a1.8 1.8 0 00-1.81 1.8v3.61a1.81 1.81 0 001.81 1.8h44.93a1.81 1.81 0 001.8-1.8z"/><path class="cls-13" d="M756.4 0l5.95 95h-34.06v-.01h-69.53V34.76h73.3L734.23 0h22.17z"/><path class="cls-7" d="M669.44 60.79h12.4v12.4h-12.4zM689.26 60.79h12.4v12.4h-12.4z"/><path class="cls-14" d="M680.39 19.96l-21.63 14.8h21.63v-14.8z"/><path class="cls-14" d="M701.74 19.96l-21.64 14.8h21.64v-14.8z"/><path class="cls-14" d="M723.08 19.96l-21.63 14.8h21.63v-14.8z"/><rect class="cls-4" x="695.32" y="117.29" width="15.04" height="20.05" rx="2.51"/><rect class="cls-4" x="775.52" y="117.29" width="15.04" height="20.05" rx="2.51"/><path class="cls-1" d="M793.07 89.72H692.82a2.5 2.5 0 00-2.51 2.5v5a2.5 2.5 0 002.51 2.5h100.25a2.5 2.5 0 002.5-2.5v-5a2.5 2.5 0 00-2.5-2.5z"/><path class="cls-1" d="M785.55 97.24l-5-2.5h-75.2l-5 2.51c-2.76 0-5 4.75-5 7.51v20a2.51 2.51 0 002.51 2.51h90.23a2.5 2.5 0 002.5-2.51v-20c-.03-2.76-2.27-7.52-5.04-7.52z"/><path class="cls-1" d="M782.51 97.24c-.36-2.23-1-5.72-2-11.28-2.51-13.79-7.3-23.81-16.29-23.81h-42.58c-9 0-13.94 11.28-16.29 23.81-1 5.45-1.63 9-2 11.28z"/><rect class="cls-4" x="700.33" y="107.26" width="85.21" height="12.53" rx="2.51"/><path class="cls-15" d="M706.6 109.77a3.76 3.76 0 11-3.76 3.76 3.76 3.76 0 013.76-3.76z"/><circle class="cls-12" cx="779.28" cy="113.53" r="3.76"/><path class="cls-12" d="M775.6 86.85c-2.21-12.17-5.46-19.69-11.35-19.69h-42.61c-5.49 0-9.24 8.37-11.37 19.72-.61 3.29-1.07 5.84-1.41 7.85H777c-.34-1.99-.79-4.55-1.4-7.88z"/><rect class="cls-4" x="380.69" y="131.68" width="59.81" height="9.72" rx="2.43"/><rect class="cls-4" x="404.01" y="116.77" width="13.17" height="19.77" rx="3.29"/><rect class="cls-1" x="341.22" y="7.29" width="138.73" height="113.68" rx="5.68"/><path class="cls-12" d="M348.1 13.81h124.99v87.26H348.1z"/><circle class="cls-2" cx="468.9" cy="110.65" r="4.19" transform="rotate(-76.72 468.882 110.654)"/><path class="cls-7" d="M410.43 51.21a5.94 5.94 0 110 11.88 5.94 5.94 0 110-11.88zm.09-8.27a14.22 14.22 0 1014.22 14.21 14.24 14.24 0 00-14.22-14.21zm0-4.59a18.81 18.81 0 11-18.81 18.8 18.8 18.8 0 0118.81-18.8zm-4.41-15.84l-1.62 10.26a25 25 0 00-6.93 2.79l-8.46-6-6.1 6.09 5.94 8.46A25.32 25.32 0 00386 51l-10.16 1.71v8.64L386 63.18a25.38 25.38 0 002.88 6.93l-6 8.46 6.12 6.12 8.46-5.94a25.3 25.3 0 006.93 2.79l1.71 10.26h8.64l1.89-10.26a24.94 24.94 0 006.84-2.88l8.54 6 6.12-6.12-6.13-8.43a24.94 24.94 0 002.88-6.84l10.26-1.89v-8.64L434.9 51a24.88 24.88 0 00-2.9-6.8l6-8.55-6.12-6.12-8.45 6.12a25.69 25.69 0 00-6.93-2.88l-1.8-10.26z"/><path class="cls-5" d="M410.52 38.35a18.81 18.81 0 11-18.81 18.8 18.8 18.8 0 0118.81-18.8zm-4.41-15.84l-1.62 10.26a25 25 0 00-6.93 2.79l-8.46-6-6.1 6.09 5.94 8.46A25.32 25.32 0 00386 51l-10.16 1.71v8.64L386 63.18a25.38 25.38 0 002.88 6.93l-6 8.46 6.12 6.12 8.46-5.94a25.3 25.3 0 006.93 2.79l1.71 10.26h8.64l1.89-10.26a24.94 24.94 0 006.84-2.88l8.54 6 6.12-6.12-6.13-8.43a24.94 24.94 0 002.88-6.84l10.26-1.89v-8.64L434.9 51a24.88 24.88 0 00-2.9-6.8l6-8.55-6.12-6.12-8.45 6.12a25.69 25.69 0 00-6.93-2.88l-1.8-10.26z"/><path class="cls-3" d="M798.42 368.51h-25.24a1.59 1.59 0 01-1.59-1.58v-25.24a1.59 1.59 0 011.59-1.58h25.24a1.58 1.58 0 011.58 1.58v25.24a1.58 1.58 0 01-1.58 1.58z"/><path class="cls-2" d="M783.43 340.11h4.73v5.52h-4.73zM789.74 364.57h7.1v.79h-7.1zM794.47 360.62h1.58v3.16h-1.58z"/><path class="cls-2" d="M795.27 359.04l-1.58 2.37h3.15l-1.57-2.37zM790.53 360.62h1.58v3.16h-1.58z"/><path class="cls-2" d="M791.32 359.04l-1.58 2.37h3.16l-1.58-2.37z"/><path class="cls-3" d="M798.42 335.33h-25.24a1.59 1.59 0 01-1.59-1.57v-25.25a1.59 1.59 0 011.59-1.58h25.24a1.58 1.58 0 011.58 1.58v25.25a1.58 1.58 0 01-1.58 1.57z"/><path class="cls-2" d="M783.43 306.93h4.73v5.52h-4.73zM789.74 331.39h7.1v.79h-7.1zM794.47 327.44h1.58v3.16h-1.58z"/><path class="cls-2" d="M795.27 325.87l-1.58 2.36h3.15l-1.57-2.36zM790.53 327.44h1.58v3.16h-1.58z"/><path class="cls-2" d="M791.32 325.87l-1.58 2.36h3.16l-1.58-2.36z"/><path class="cls-5" d="M798.42 302.15h-25.24a1.59 1.59 0 01-1.59-1.57v-25.25a1.59 1.59 0 011.59-1.58h25.24a1.58 1.58 0 011.58 1.58v25.25a1.58 1.58 0 01-1.58 1.57z"/><path class="cls-8" d="M783.43 273.75h4.73v5.52h-4.73zM789.74 298.21h7.1v.79h-7.1zM794.47 294.27h1.58v3.16h-1.58z"/><path class="cls-8" d="M795.27 292.69l-1.58 2.36h3.15l-1.57-2.36zM790.53 294.27h1.58v3.16h-1.58z"/><path class="cls-8" d="M791.32 292.69l-1.58 2.36h3.16l-1.58-2.36z"/><path class="cls-2" d="M685.56 334.07v-20.25a3.37 3.37 0 016.63-.82l3.49 16.18v4.89zM758.1 372.87h30.37v6.75H758.1z"/><path class="cls-7" d="M732.8 350.94v-8.44c0-14-10.89-40.53-14.23-48.31-4-8.72-12.14-14.11-21.2-14.11h-18.56v57.36h-10.12V270h28.68A33.63 33.63 0 01728 290c2.51 5.79 14.89 35.29 14.89 52.53v8.44z"/><path class="cls-5" d="M667 377.93a5.07 5.07 0 01-5.06-5.06v-37.12a5.07 5.07 0 015.06-5.06h36.39l12.77 13.5h28.44A11.82 11.82 0 01756.41 356v16.87a5.06 5.06 0 01-5 5.06z"/><path class="cls-2" d="M759.79 266.59h6.75v111.34h-6.75z"/><path class="cls-4" d="M685.56 391.42a13.5 13.5 0 1113.5-13.49 13.51 13.51 0 01-13.5 13.49z"/><path class="cls-16" d="M685.56 372.87a5.06 5.06 0 11-5.06 5.06 5.06 5.06 0 015.06-5.06z"/><path class="cls-4" d="M753 391.42a13.5 13.5 0 1113.5-13.49 13.51 13.51 0 01-13.5 13.49z"/><path class="cls-16" d="M753 372.87a5.06 5.06 0 11-5.06 5.06 5.06 5.06 0 015.06-5.06z"/><path d="M442.45 521.91L468.54 548v92.24a4.53 4.53 0 01-4.53 4.53h-85.43a4.53 4.53 0 01-4.53-4.53V526.43a4.54 4.54 0 014.53-4.52z" fill-rule="evenodd" fill="#fad2d2"/><path class="cls-12" d="M384.82 529.57h33.14v4.09h-33.14zM384.82 537.1h29.33v4.09h-29.33zM384.82 544.63h22.99v4.09h-22.99zM384.82 583.34h72.95v9.88h-72.95zM384.82 597.5h72.95v9.88h-72.95zM384.82 611.66h72.95v9.88h-72.95zM384.82 625.83h72.95v9.88h-72.95zM384.82 560h10.04v5.4h-10.04zM384.82 568.42h10.04v5.4h-10.04zM399.09 560h10.04v5.4h-10.04zM399.09 568.42h10.04v5.4h-10.04zM435.75 560h22.02v5.4h-22.02zM435.75 568.42h22.02v5.4h-22.02z"/><path class="cls-13" d="M442.45 543.47A4.55 4.55 0 00447 548h21.56l-26.09-26.09z"/><path class="cls-1" d="M429.09 590.06h-80.21v60.16a10.05 10.05 0 0010 10h60.16a10.06 10.06 0 0010-10z"/><path class="cls-4" d="M419.06 560H358.9a10.05 10.05 0 00-10 10v22.56h80.21V570a10.06 10.06 0 00-10.05-10z"/><rect class="cls-12" x="356.4" y="567.5" width="65.16" height="17.55" rx="2.51"/><path class="cls-12" d="M414.23 622.32h-16.11a5.05 5.05 0 01-5.37-5.33v-10.66a5.06 5.06 0 015.37-5.34h16.11a5.07 5.07 0 015.38 5.34V617a5.06 5.06 0 01-5.38 5.32zM379.83 622.32h-16.1a5 5 0 01-5.37-5.33v-10.66a5.06 5.06 0 015.37-5.34h16.1a5.07 5.07 0 015.38 5.34V617a5.06 5.06 0 01-5.38 5.32zM379.83 650.89h-16.1a5 5 0 01-5.37-5.33V634.9a5 5 0 015.37-5.33h16.1a5.06 5.06 0 015.38 5.33v10.66a5.06 5.06 0 01-5.38 5.33zM413.35 650.89h-16.11a5 5 0 01-5.37-5.33V634.9a5 5 0 015.37-5.33h16.11a5.05 5.05 0 015.37 5.33v10.66a5.05 5.05 0 01-5.37 5.33z"/><path class="cls-3" d="M414.76 570.42a3 3 0 012.54 1.16c.73.91 1.1 2.43 1.1 4.55a7.46 7.46 0 01-1.1 4.57 3.07 3.07 0 01-2.54 1.14 3.19 3.19 0 01-2.63-1.25c-.67-.84-1-2.33-1-4.48a7.44 7.44 0 011.1-4.55 3 3 0 012.53-1.14zm0 1.78a1.07 1.07 0 00-.69.24 1.73 1.73 0 00-.48.89 12.79 12.79 0 00-.22 2.8 12.29 12.29 0 00.2 2.71 1.88 1.88 0 00.5 1 1.08 1.08 0 00.69.25 1.13 1.13 0 00.7-.25 1.69 1.69 0 00.47-.89 12.06 12.06 0 00.22-2.8 11.64 11.64 0 00-.2-2.7 2 2 0 00-.5-1 1.07 1.07 0 00-.69-.25z"/><path class="cls-5" d="M412.21 608.54l-3.43.62a2.54 2.54 0 00-.79-1.55 2.41 2.41 0 00-1.59-.52 2.58 2.58 0 00-2.07.9 4.57 4.57 0 00-.78 3 5.29 5.29 0 00.79 3.31 2.59 2.59 0 002.11 1 2.32 2.32 0 001.62-.57 3.35 3.35 0 00.89-1.94l3.42.59a6.14 6.14 0 01-2 3.55 6.34 6.34 0 01-4 1.2 6 6 0 01-4.6-1.82 8.29 8.29 0 010-10.11 6.12 6.12 0 014.66-1.81 6.36 6.36 0 013.82 1 5.8 5.8 0 011.95 3.15z"/><path class="cls-2" d="M364.48 638.54h14.6v3.38h-14.6zM398 641.29h14.6v3.38H398zM398 635.8h14.6v3.38H398z"/><path class="cls-18" d="M364.08 609.97h5.61v-5.61h3.38v5.61h5.61v3.37h-5.61v5.61h-3.38v-5.61h-5.61v-3.37z"/><path class="cls-5" d="M7.76 259.78h32.97v103.96H7.76z"/><path class="cls-7" d="M7.76 358.77h32.97v4.97H7.76z"/><path class="cls-12" d="M14.71 280.68h19.07v31.07H14.71z"/><path class="cls-5" d="M18.29 284.23H30.2v3.41H18.29z"/><path class="cls-6" d="M18.29 290.9H30.2v3.41H18.29zM18.29 297.57H30.2v3.41H18.29zM18.29 304.24H30.2v3.41H18.29z"/><path class="cls-14" d="M24.24 339.05a6 6 0 11-5.95 5.95 6 6 0 015.95-5.95z"/><path class="cls-8" d="M24.24 351.78A6.78 6.78 0 1131 345a6.79 6.79 0 01-6.76 6.78zm0-11.9a5.13 5.13 0 105.13 5.12 5.13 5.13 0 00-5.13-5.12zM44.89 259.78h32.97v103.96H44.89z"/><path class="cls-5" d="M44.89 358.77h32.97v4.97H44.89z"/><path class="cls-12" d="M51.84 280.68h19.07v31.07H51.84z"/><path class="cls-5" d="M55.42 284.23h11.91v3.41H55.42z"/><path class="cls-6" d="M55.42 290.9h11.91v3.41H55.42zM55.42 297.57h11.91v3.41H55.42zM55.42 304.24h11.91v3.41H55.42z"/><path class="cls-14" d="M61.37 339.05a6 6 0 11-5.95 5.95 6 6 0 015.95-5.95z"/><path class="cls-6" d="M61.37 351.78a6.78 6.78 0 116.78-6.78 6.79 6.79 0 01-6.78 6.78zm0-11.9A5.13 5.13 0 1066.5 345a5.13 5.13 0 00-5.13-5.12z"/><path class="cls-8" d="M82.02 259.78h32.97v103.96H82.02z"/><path class="cls-5" d="M82.02 358.77h32.97v4.97H82.02z"/><path class="cls-12" d="M88.97 280.68h19.07v31.07H88.97z"/><path class="cls-5" d="M92.55 284.23h11.91v3.41H92.55z"/><path class="cls-6" d="M92.55 290.9h11.91v3.41H92.55zM92.55 297.57h11.91v3.41H92.55zM92.55 304.24h11.91v3.41H92.55z"/><path class="cls-14" d="M98.5 339.05a6 6 0 11-6 5.95 6 6 0 016-5.95z"/><path class="cls-6" d="M98.5 351.78a6.78 6.78 0 116.78-6.78 6.79 6.79 0 01-6.78 6.78zm0-11.9a5.13 5.13 0 105.13 5.12 5.13 5.13 0 00-5.13-5.12z"/><path class="cls-10" d="M140.26 299.25a1.89 1.89 0 00-1.9-1.89H72.12a10.74 10.74 0 00-10.75 10.74v79.38a10.75 10.75 0 0010.75 10.75h66.24a1.9 1.9 0 001.9-1.9z"/><path class="cls-16" d="M145.52 319.77a1.41 1.41 0 00-.41-1 1.39 1.39 0 00-1-.41H78.74v79.86h65.37a1.43 1.43 0 001-.41 1.45 1.45 0 00.41-1z"/><path class="cls-15" d="M135 301.82H74.51a8.28 8.28 0 00-8.27 8.27 8.28 8.28 0 008.27 8.27H135z"/><path class="cls-12" d="M92.45 328.73h39.35v22.07H92.45z"/><path class="cls-3" d="M97.24 333.45h30.73v4.03H97.24zM97.24 341.63h30.73v4.03H97.24z"/><rect class="cls-1" y="13.74" width="152.73" height="121.51" rx="6.15"/><path class="cls-13" d="M152.73 19.89a6.15 6.15 0 00-6.15-6.15H6.15A6.16 6.16 0 000 19.89v42.44h152.73z"/><path class="cls-12" d="M57.7 43.07l-.1.08-3.6-.05h-2.83l-.05-.09s1.93-8.68 2.24-10l.09-.08h2.93l.08.08-1.75 7.91H55c1.61 0 1.9.05 3.15 0l.08.09zM43.94 33l-.41 1.81-.53 2.63c-.65 2.9-1 4.07-2 4.86a4.64 4.64 0 01-3 .85 4.83 4.83 0 01-2.54-.56 2.73 2.73 0 01-1.23-2.43 12.86 12.86 0 01.39-2.61l1-4.55.1-.08h2.84l.07.08-.54 2.41-.47 2.21a12.33 12.33 0 00-.43 2.38 1 1 0 001.06 1 1.27 1.27 0 001.12-.6c.32-.48.43-1 1-3.28l.5-2.22.4-1.9.08-.08h2.53zM49.62 43.05l-.1.1H43.32v-.08l.6-2.83S45.09 35 45.51 33l.06-.1h6.15l.08.08-.42 1.94-.1.1H48l-.42 2h3.06l.05.11-.39 1.78-.1.16h-3.09l-.43 1.86H50l.08.09zM23.72 43.07l1.4-6.24c.39-1.81.5-2.28.83-3.81l.11-.09h2.34c2.14 0 5.23-.1 5.23 3.76a7.42 7.42 0 01-1.25 4.18c-1.28 1.8-3.11 2.25-5.35 2.25h-3.25zm3.52-2.35h.17a2.48 2.48 0 002.19-.85 5.78 5.78 0 001-3.13c0-1.59-.91-1.65-1.88-1.63h-.22l-.44 2z"/><path class="cls-12" d="M32.44 45.54a56.16 56.16 0 01-5.58 2.53c-8.33-3.77-10.29-10.34-8.51-15.24 1-2.92 3.38-4.83 5.9-4.83a7.48 7.48 0 015.1 2.41.89.89 0 001.15 0A12 12 0 0136.76 28c2.16 0 3.82.65 4.21 3.47h3.26c-.15-4.17-2.75-6.7-6.55-6.7a13.66 13.66 0 00-7.21 2.59 9.69 9.69 0 00-6.34-2.64c-3.85 0-7.35 2.77-8.9 7.07-2.33 6.39.09 14.87 10.7 19.48a1 1 0 00.37.08 1.18 1.18 0 00.39-.08 59.66 59.66 0 006-2.69 4.7 4.7 0 01-.28-3"/><path class="cls-4" d="M14.21 74.5h21.78v47.9H14.21zM39.84 74.5h21.78v47.9H39.84zM65.48 74.5h21.78v47.9H65.48zM91.11 74.5h21.78v47.9H91.11zM116.74 74.5h21.78v47.9h-21.78z"/><path class="cls-12" d="M17.66 78.18h14.89v35.75H17.66zM43.29 78.18h14.89v35.75H43.29zM68.92 78.18h14.89v35.75H68.92zM94.56 78.18h14.89v35.75H94.56zM120.19 78.18h14.89v35.75h-14.89z"/><path class="cls-18" d="M25.1 82.69a3.77 3.77 0 11-3.72 3.76 3.75 3.75 0 013.72-3.76z"/><path class="cls-13" d="M50.74 82.69A3.77 3.77 0 1147 86.45a3.75 3.75 0 013.74-3.76z"/><path class="cls-18" d="M76.37 82.69a3.77 3.77 0 11-3.72 3.76 3.75 3.75 0 013.72-3.76zM102 82.69a3.77 3.77 0 11-3.72 3.76 3.75 3.75 0 013.72-3.76zM127.63 82.69a3.77 3.77 0 11-3.72 3.76 3.75 3.75 0 013.72-3.76z"/><path class="cls-3" d="M20.67 99.02h1.45v11.86h-1.45zM46.3 99.02h1.45v11.86H46.3zM71.94 99.02h1.45v11.86h-1.45zM97.57 99.02h1.45v11.86h-1.45zM123.2 99.02h1.45v11.86h-1.45zM23.15 99.02h1.45v11.86h-1.45zM48.78 99.02h1.45v11.86h-1.45zM74.41 99.02h1.45v11.86h-1.45zM100.04 99.02h1.45v11.86h-1.45zM125.67 99.02h1.45v11.86h-1.45zM25.62 99.02h1.45v11.86h-1.45zM51.25 99.02h1.45v11.86h-1.45zM76.88 99.02h1.45v11.86h-1.45zM102.51 99.02h1.45v11.86h-1.45zM128.14 99.02h1.45v11.86h-1.45zM28.09 99.02h1.45v11.86h-1.45zM53.72 99.02h1.45v11.86h-1.45zM79.35 99.02h1.45v11.86h-1.45zM104.98 99.02h1.45v11.86h-1.45zM130.62 99.02h1.45v11.86h-1.45z"/><path class="cls-7" d="M75.13 25.42h63.26v2.89H75.13zM75.13 31.01h63.26v2.89H75.13zM75.13 36.59h63.26v2.89H75.13zM75.13 42.18h63.26v2.89H75.13zM75.13 47.76h63.26v2.89H75.13z"/><path class="cls-15" d="M752 534.63l28.3 28.31V663a4.91 4.91 0 01-4.91 4.91h-92.68a4.91 4.91 0 01-4.91-4.91V539.54a4.93 4.93 0 014.91-4.91z"/><path class="cls-2" d="M775.42 669.43h-92.71a6.4 6.4 0 01-6.39-6.39v-123.5a6.38 6.38 0 016.36-6.38H752a1.46 1.46 0 011 .43l28.3 28.31a1.45 1.45 0 01.44 1V663a6.4 6.4 0 01-6.32 6.43zM682.71 536.1a3.46 3.46 0 00-3.44 3.44V663a3.44 3.44 0 003.44 3.44h92.71a3.44 3.44 0 003.44-3.44v-99.45l-27.44-27.45z"/><path class="cls-18" d="M752 558a4.92 4.92 0 004.91 4.91h23.39L752 534.63z"/><path class="cls-15" d="M744.7 527.47l28.3 28.31v100.1a4.91 4.91 0 01-4.91 4.92h-92.71a4.91 4.91 0 01-4.91-4.92v-123.5a4.93 4.93 0 014.91-4.91z"/><path class="cls-4" d="M768.09 662.27h-92.71a6.4 6.4 0 01-6.39-6.39v-123.5a6.38 6.38 0 016.37-6.38h69.34a1.46 1.46 0 011 .43l28.31 28.31a1.5 1.5 0 01.43 1v100.1a6.4 6.4 0 01-6.35 6.43zM675.38 529a3.44 3.44 0 00-3.44 3.43v123.5a3.44 3.44 0 003.44 3.44h92.71a3.44 3.44 0 003.44-3.44v-99.54L744.09 529z"/><path class="cls-10" d="M744.7 550.87a4.92 4.92 0 004.91 4.91H773l-28.3-28.31z"/><path class="cls-5" d="M684.98 604.35h15.86v42.35h-15.86z"/><path class="cls-7" d="M684.98 630.55h15.86v16.14h-15.86z"/><path class="cls-5" d="M704.97 586.1h15.86v60.59h-15.86z"/><path class="cls-7" d="M704.97 613.62h15.86v33.08h-15.86z"/><path class="cls-5" d="M724.96 562h15.86v84.69h-15.86z"/><path class="cls-7" d="M724.96 604.35h15.86v42.35h-15.86z"/><path class="cls-5" d="M744.95 591.23h15.86v55.46h-15.86z"/><path class="cls-7" d="M744.95 625.59h15.86v21.1h-15.86z"/></g></g></svg>