<svg xmlns="http://www.w3.org/2000/svg" viewBox="0 0 800 230.02"><defs><style>.cls-1{fill:#ddd}.cls-2{fill:#1d1d1b}.cls-3{fill:#fdfdfd}.cls-4{fill:#fff}</style></defs><g id="Layer_2" data-name="Layer 2"><g id="Layer_1-2" data-name="Layer 1"><path class="cls-1" d="M27.58 90.14C23 92 19.49 95 18.13 100c-1.52 5.53.77 9.41 3.71 13.81 2.43 3.64 2.65 8 6 11.25 3.85 3.75 10 4.9 14.53 1.8 7.74-5.26.43-17.93-7.38-12.62q4.27 2.11 2.78-.16l-.87-2.62a23.21 23.21 0 00-1.9-4.26 15.08 15.08 0 00-2.52-3.4c-.71-.59.52-.2-1 .44 3.64-1.52 6.25-4.84 5.1-9-.94-3.44-5.32-6.64-9-5.11zM0 209.2c.26 17.55 17.86 19.64 31.48 17.42 10.58-1.73 20.06.06 30.55 1.37a258.68 258.68 0 0034.07 2c21.48-.15 42.64-4.17 64.15-3.61s42.69 2.7 64.16-.21c9.28-1.25 5.33-15.35-3.89-14.1-18.14 2.46-36.41.62-54.6-.12-17.19-.69-33.78 1.21-50.87 2.58a254.85 254.85 0 01-51.14-.95C56 212.65 48 210.69 40 210.87c-5.2.12-25.25 6.43-25.37-1.67-.13-9.4-14.76-9.43-14.62 0z"/><path class="cls-2" d="M139.93 151.73c-2 0-4.37.32-6.25-.46-2.49-1-4.2-3.63-2.82-6.27a6 6 0 015.17-2.92c1.86-.15 4.51-.26 6.25.46 2.16.89 3.95 3.23 3.16 5.68-.73 2.28-3.37 3.37-5.51 3.51-1.12.08-1.05 3.58 0 3.51 5.52-.37 8.41-5.88 7-11s-6.23-6-10.91-5.71c-5.53.36-8.41 5.89-7 11 1.49 5.43 6.2 5.7 10.91 5.7 1.07.01 1.07-3.5 0-3.5z"/><circle class="cls-1" cx="202.52" cy="101.57" r="7.8"/><path class="cls-2" d="M193.75 101.57c.27 5 3.16 10 8.77 10 5.4 0 8.76-5 8.76-10s-3.14-9.68-8.34-10c-5.79-.32-8.91 4.83-9.19 10-.14 2.62 1.79 2.6 1.93 0 .4-7.32 13.67-7.35 13.67 0s-13.27 7.34-13.67 0c-.13-2.57-2.07-2.64-1.93 0z"/><circle class="cls-1" cx="30.03" cy="101.57" r="7.8"/><path class="cls-2" d="M36.86 101.57c-.39 7.33-13.67 7.36-13.67 0s13.28-7.33 13.67 0c.14 2.57 2.07 2.65 1.93 0-.27-5-3.16-10-8.76-10-5.4 0-8.77 5-8.77 10s3.14 9.69 8.34 10c5.8.32 8.92-4.83 9.19-10 .14-2.57-1.79-2.57-1.93 0z"/><rect class="cls-1" x="29.36" y="85.68" width="173.83" height="32.8" rx=".83"/><path class="cls-2" d="M195.05 116.29H45.36c-2.13 0-5.43.63-7.48 0-8.63-2.68-8.5-12.08-7.56-19.49 1.49-11.69 13.6-8.92 21.86-8.92h134.55c2.29 0 6-.75 8.2 0 .93.31 7 5.84 7.29 6.6.45 1.23 0 3.49 0 4.79 0 6 2.1 15.52-7.17 17-1.43.23-1.21 4.58 0 4.38 8.33-1.34 9.1-7.75 9.1-14.92 0-6 1.88-16.14-3.81-20.39s-18-1.87-24.36-1.87H68.17c-9.82 0-20.41-1.15-30.18 0-6.21.73-9.06 4.4-9.6 10.46-.5 5.74-1.35 14.47.55 20.08 3.08 9.07 15.21 6.64 22.66 6.64h143.45c1.36.02 1.37-4.36 0-4.36z"/><path class="cls-3" d="M52.18 42.11h129.77v117.71H52.18z"/><path class="cls-2" d="M183.29 40.68H53.51c-1.08 0-3.26 1-3.26 2.35v117.71a.56.56 0 00.59.51h129.77c1.09 0 3.26-1 3.26-2.34V41.19c0-1.34-3.84.46-3.84 1.84v117.71l3.26-2.34h-108c-6.21 0-13.83 1.23-19.94 0-1.61-.33-1.44-.06-1.23.23-.59-.81 0-4.38 0-5.33V41.19l-3.26 2.34h129.75c1.23 0 4.39-2.85 2.68-2.85z"/><ellipse class="cls-1" cx="117.81" cy="125.64" rx="31.5" ry="13.17"/><path class="cls-2" d="M148.38 125.06c-2.16 16.78-60.4 15.61-60 .58.43-15.43 57.85-16 60 .59.38 2.94 2.11.79 1.86-1.17-1.77-13.73-23.91-15-34.15-14.75-9 .21-30.75 2.22-30.75 15.33 0 12.55 20.19 14.9 29 15.29 10.47.47 34-.46 35.87-14.7.28-1.95-1.45-4.13-1.83-1.17z"/><path class="cls-3" d="M214.9 202.71l-196.77 1 22.16-79.61c2.59-9.31 9.93-15.62 18.23-15.66l24.48-.12c5.95 0 11.31 4.22 13.55 10.73l4.21 12.22 31.19-.15 7.39-14.74c2.6-5.19 7.32-8.38 12.43-8.4l22.55-.12c8.38 0 15.84 6.31 18.46 15.72z"/><path class="cls-2" d="M74.05 151.73c-2 0-4.37.32-6.25-.46-2.48-1-4.19-3.63-2.81-6.27a6 6 0 015.16-2.92c1.87-.15 4.52-.26 6.25.46 2.17.89 4 3.23 3.17 5.68-.74 2.28-3.38 3.37-5.52 3.51-1.12.08-1 3.58 0 3.51 5.52-.37 8.41-5.88 7-11s-6.23-6-10.91-5.71c-5.52.36-8.4 5.89-7 11 1.49 5.43 6.2 5.7 10.91 5.7 1.08.01 1.1-3.5 0-3.5z"/><path class="cls-1" d="M60.57 194.57c16 5.07 34.61 3.06 51.19 2.75 18.51-.34 37-1.19 55.46-2.44 7.47-.51 7.53-12.21 0-11.7-17.19 1.17-34.4 2-51.63 2.37-16.61.36-35.91 2.79-51.91-2.26-7.2-2.27-10.28 9-3.11 11.28z"/><path class="cls-2" d="M96 151.73c-2 0-4.37.32-6.25-.46-2.48-1-4.19-3.63-2.81-6.27a6 6 0 015.16-2.92c1.86-.15 4.51-.26 6.25.46 2.17.89 4 3.23 3.17 5.68-.74 2.28-3.38 3.37-5.52 3.51-1.12.08-1.05 3.58 0 3.51 5.52-.37 8.41-5.88 7-11s-6.23-6-10.91-5.71c-5.53.36-8.4 5.89-7 11 1.49 5.43 6.2 5.7 10.91 5.7 1.09.01 1.1-3.5 0-3.5zM118 151.73c-2 0-4.37.32-6.25-.46-2.49-1-4.2-3.63-2.82-6.27a6 6 0 015.17-2.92c1.86-.15 4.51-.26 6.25.46 2.17.89 4 3.23 3.16 5.68-.73 2.28-3.37 3.37-5.51 3.51-1.12.08-1 3.58 0 3.51 5.52-.37 8.41-5.88 7-11s-6.23-6-10.91-5.71c-5.53.36-8.4 5.89-7 11 1.49 5.43 6.2 5.7 10.91 5.7 1.05.01 1.06-3.5 0-3.5zM139.93 151.73c-2 0-4.37.32-6.25-.46-2.49-1-4.2-3.63-2.82-6.27a6 6 0 015.17-2.92c1.86-.15 4.51-.26 6.25.46 2.16.89 3.95 3.23 3.16 5.68-.73 2.28-3.37 3.37-5.51 3.51-1.12.08-1.05 3.58 0 3.51 5.52-.37 8.41-5.88 7-11s-6.23-6-10.91-5.71c-5.53.36-8.41 5.89-7 11 1.49 5.43 6.2 5.7 10.91 5.7 1.07.01 1.07-3.5 0-3.5zM161.89 151.73c-2 0-4.37.32-6.25-.46-2.49-1-4.2-3.63-2.82-6.27a6 6 0 015.17-2.92c1.86-.15 4.51-.26 6.24.46 2.17.89 4 3.23 3.17 5.68-.73 2.28-3.37 3.37-5.51 3.51-1.12.08-1 3.58 0 3.51 5.51-.37 8.41-5.88 7-11s-6.23-6-10.91-5.71c-5.53.36-8.41 5.89-7 11 1.5 5.43 6.2 5.7 10.92 5.7 1.1.01 1.1-3.5-.01-3.5zM85.75 169.28c-2 0-4.37.32-6.25-.46-2.48-1-4.19-3.63-2.81-6.27a6 6 0 015.16-2.92c1.86-.15 4.51-.26 6.25.45 2.17.9 4 3.24 3.17 5.69-.74 2.28-3.38 3.36-5.52 3.51-1.12.07-1 3.58 0 3.51 5.52-.38 8.41-5.89 7-11s-6.23-6-10.91-5.7c-5.53.36-8.4 5.89-7 11 1.49 5.44 6.2 5.71 10.91 5.71 1.08-.01 1.09-3.52 0-3.52zM63.57 169.28c-2 0-4.37.32-6.25-.46-2.49-1-4.2-3.63-2.82-6.27a6 6 0 015.17-2.92c1.86-.15 4.51-.26 6.25.45 2.17.9 4 3.24 3.16 5.69-.73 2.28-3.37 3.36-5.51 3.51-1.12.07-1 3.58 0 3.51 5.52-.38 8.41-5.89 7-11s-6.23-6-10.91-5.7c-5.53.36-8.4 5.89-7 11 1.49 5.44 6.2 5.71 10.91 5.71 1.08-.01 1.09-3.52 0-3.52zM107.71 169.28c-2 0-4.37.32-6.25-.46-2.49-1-4.2-3.63-2.82-6.27a6 6 0 015.17-2.92c1.86-.15 4.51-.26 6.25.45 2.17.9 4 3.24 3.16 5.69-.73 2.28-3.37 3.36-5.51 3.51-1.12.07-1 3.58 0 3.51 5.52-.38 8.41-5.89 7-11s-6.23-6-10.91-5.7c-5.53.36-8.4 5.89-7 11 1.49 5.44 6.2 5.71 10.91 5.71 1.08-.01 1.09-3.52 0-3.52zM167.14 191.09H76.29c-4.1 0-15.24 1.53-12.51-6.09 2-5.47 9.41-4.08 14.12-4.08h82.18c2.22 0 5.29-.54 7.47 0 .36.09.8-.1 1.15 0 7.53 2.22 4 9-1.7 10.19-.31.06.95 3.15 1.89 3 8.58-1.75 8.28-12.46.81-15.62-4.49-1.9-11.7-.52-16.33-.52H85.78c-5.73 0-12.28-.89-18 0-7.49 1.19-9 9.14-3.65 13.95 3.77 3.38 10.27 2.2 14.92 2.2h89.67c.58-.04-.72-3.03-1.58-3.03zM129.67 169.28c-2 0-4.37.32-6.25-.46-2.49-1-4.2-3.63-2.82-6.27a6 6 0 015.17-2.92c1.86-.15 4.51-.26 6.25.45 2.16.9 3.95 3.24 3.16 5.69-.73 2.28-3.37 3.36-5.51 3.51-1.12.07-1 3.58 0 3.51 5.52-.38 8.41-5.89 7-11s-6.23-6-10.91-5.7c-5.53.36-8.41 5.89-7 11 1.49 5.44 6.2 5.71 10.91 5.71 1.08-.01 1.09-3.52 0-3.52zM151.63 169.28c-2 0-4.37.32-6.25-.46-2.49-1-4.2-3.63-2.82-6.27a6 6 0 015.17-2.92c1.86-.15 4.51-.26 6.24.45 2.17.9 4 3.24 3.17 5.69-.73 2.28-3.37 3.36-5.51 3.51-1.12.07-1 3.58 0 3.51 5.51-.38 8.41-5.89 7-11s-6.23-6-10.91-5.7c-5.53.36-8.41 5.89-7 11 1.49 5.44 6.19 5.71 10.91 5.71 1.08-.01 1.09-3.52 0-3.52zM173.58 169.28c-2 0-4.36.32-6.25-.46-2.48-1-4.19-3.63-2.81-6.27a6 6 0 015.16-2.92c1.87-.15 4.52-.26 6.25.45 2.17.9 4 3.24 3.17 5.69-.74 2.28-3.37 3.36-5.52 3.51-1.11.07-1 3.58 0 3.51 5.52-.38 8.41-5.89 7-11s-6.22-6-10.91-5.7c-5.52.36-8.4 5.89-7 11 1.5 5.44 6.2 5.71 10.91 5.71 1.09-.01 1.1-3.52 0-3.52zM220.85 218l-191.24.07c-4.72 0-9.61.36-14.32 0s-7-.79-7-6.82 2.31-6.42 7-6.83 9.62 0 14.33 0l114.61-.05h58.13c5.12 0 10.6-.56 15.7 0 .81.09 1.92-.25 2.7 0 4.95 1.57 5.43 12.21.1 13.65-1.45.39-1.08 4.68 0 4.39 6.39-1.74 6.65-11.1 5.24-16.72-1.25-5-3.67-5.48-8-5.71-13.34-.69-26.91 0-40.27 0l-132.31.05c-10.44 0-23-1.92-33.29 0-9.06 1.7-8.63 20.89.37 22.42 11 1.87 24 0 35.18 0H220.9c1.31-.04 1.32-4.45-.05-4.45z"/><path class="cls-2" d="M20.51 199.25q9.12-32.76 18.25-65.53c.88-3.19 1.59-6.51 2.74-9.62 4.11-11 12.43-13.44 22.82-13.49 6.16 0 12.6-.64 18.73-.1 11.55 1 13.78 12.75 16.92 21.88.13.36.32 1.08.84 1.08l31.19-.16c.35 0 .56-.39.68-.64 2.73-5.45 5-11.95 8.67-16.82 5.62-7.41 15.46-5.7 23.62-5.74 9.09 0 17.74-.64 23.81 7.81 2.91 4 3.94 9.36 5.25 14.07q9.45 33.9 18.91 67.8l2.3.09q-9.53-34.15-19.06-68.33c-2.79-10-5.36-21.7-16.81-25.13-5.85-1.75-13.08-.71-19.08-.68-6.39 0-12.88-.77-17.93 4.05-4.19 4-6.47 10.63-9 15.69-1.21 2.39-1.54 3.16-2.28 3.45-2.09.81-6.09 0-8.32 0-6.26 0-14.61 1.54-20.73.1-.49-.11-.86-.07-1 .09-.43-1-.72-2.69-.93-3.3-.93-2.7-1.73-5.5-2.81-8.14-6.13-15-22-11.66-35.33-11.49-12.94.17-19.8 7.36-23.3 19.42-7.04 24.54-13.66 49.19-20.49 73.78.83-.05 1.55-.11 2.34-.14zM30.49 95a64.53 64.53 0 008.86-4.86c.19-.13.14-1-.11-.89a65.27 65.27 0 00-8.83 5.13c-.13.09-.1.7.08.62zM28.74 99.78a63.09 63.09 0 006.86-4.14c.24-.15.14-1.2-.14-1.06a29.12 29.12 0 00-6.79 4.68c-.08.09-.09.59.07.52zM28.58 103.11C30 102 31.42 101 32.89 100a42.7 42.7 0 004.49-3c.09-.08.09-.65-.05-.6A17.93 17.93 0 0033 99c-1.55 1.1-3.06 2.26-4.54 3.46-.14.12-.05.72.08.62zM29.07 105.53c2.84-2.06 5.88-3.82 8.72-5.87.15-.11.1-.83-.09-.73a59.71 59.71 0 00-8.7 6c-.13.1-.05.66.07.57zM29.53 107.5c2.73-1.5 5.38-3.13 8.1-4.66.24-.14.13-1.18-.13-1a53 53 0 00-8.06 5c-.15.11-.1.82.09.71zM30.72 109.58a73.19 73.19 0 018.36-4.84c.22-.11.15-1-.12-.94a27 27 0 00-8.31 5.2c-.1.09-.07.63.07.54zM30.55 111.45c2.68-1.49 5.5-2.89 8-4.6.14-.09.11-.8-.05-.75a26.57 26.57 0 00-8.07 4.69c-.13.1-.09.75.08.66zM32.41 113.1a69.79 69.79 0 018.88-4.61c.25-.1.15-1.17-.08-1.1a21.69 21.69 0 00-8.9 4.89c-.15.13-.13 1 .1.82zM33.13 116.2c1.4-.93 2.71-2 4.14-2.86s3.09-1.56 4.5-2.55c.13-.1.14-.82-.06-.78-3.09.63-6.53 3.28-8.66 5.52-.11.11-.09.79.08.67zM37.15 116.33c2.11-1.06 4.21-2.23 6.29-3.37.21-.12.14-1-.12-.94a32.67 32.67 0 00-6.25 3.68c-.13.1-.1.72.08.63z"/><path class="cls-2" d="M63.36 186.93c.86-.55 1.67-1.18 2.49-1.78a22.15 22.15 0 002.48-1.92c.16-.16.16-1.14-.13-1a17.83 17.83 0 00-2.48 1.86c-.83.66-1.68 1.31-2.46 2-.16.14-.11.94.1.81zM64.43 189.75c1.8-1.7 3.74-3.25 5.57-4.92.16-.15.09-1-.11-.85a40 40 0 00-5.57 4.92c-.18.18 0 1 .11.85zM66.78 189.92a49.52 49.52 0 005.22-4.35c.13-.12.08-.84-.09-.71a48.25 48.25 0 00-5.17 4.74c-.06.06 0 .37 0 .32zM68.75 192a63.35 63.35 0 015.68-5.06c.2-.17.12-1.14-.12-1a21.16 21.16 0 00-5.65 5.59c-.06.09 0 .54.09.45zM72.81 191.16a8.41 8.41 0 002.53-1.72 34.06 34.06 0 002.79-2.3c.15-.14.11-1-.11-.85a30.71 30.71 0 00-2.81 2.15 12.81 12.81 0 00-2.46 2.24c0 .06-.07.52.06.48zM76.76 191.69a14.82 14.82 0 002.41-1.8c.83-.64 1.74-1.19 2.55-1.85.17-.14.14-1-.11-.87A14.75 14.75 0 0078.9 189a10.53 10.53 0 00-2.23 2.19c0 .07-.07.55.09.48zM81.36 191.38a24.61 24.61 0 002.47-2c.84-.69 1.73-1.33 2.56-2 .18-.16.09-1.06-.12-.91a23 23 0 00-5 4.51c0 .06 0 .49.08.41zM85.38 192.15c1.47-1.2 3-2.34 4.38-3.66.14-.14.09-.92-.1-.79-1.55 1.09-3 2.43-4.39 3.66-.17.15 0 .91.11.79zM90.18 192.46a21.85 21.85 0 014-4.18c.18-.15.08-1-.11-.85a15.84 15.84 0 00-4 4.47c-.08.13 0 .75.14.56zM93.11 192.55a70.62 70.62 0 016.42-5.68c.19-.16.11-1.06-.11-.91a30.72 30.72 0 00-6.42 5.85c-.14.16 0 .87.1.74zM97.34 192.59a58.31 58.31 0 005.84-5c.17-.16.06-1-.11-.85a64.41 64.41 0 00-5.81 5.26c-.11.11-.07.74.08.63zM101.93 192.59a52.81 52.81 0 006-5.43c.1-.11.11-.83-.09-.7-2.22 1.4-4.13 3.59-6 5.38-.16.15 0 .87.1.75zM106.44 192.39c1.68-1.87 3.76-3.31 5.53-5.08.13-.12.12-.92-.1-.79-2.18 1.25-3.89 3.46-5.5 5.35-.1.12 0 .61.07.52zM111 192.44a45.82 45.82 0 005.28-4.95c.11-.13.09-.9-.1-.76a42.66 42.66 0 00-5.28 5c-.13.15-.05.88.1.75zM115.31 192.56a58.82 58.82 0 006.38-6.25c.14-.16 0-1-.11-.82a63.29 63.29 0 00-6.39 6.4c-.1.12 0 .79.12.67zM120.15 192c2.4-1.91 4.65-4.08 6.89-6.19.17-.16 0-.93-.11-.8-2.33 2.05-4.7 4.13-6.86 6.36-.12.12-.06.74.08.63zM124.88 192.69c1.91-1.9 3.86-3.79 5.6-5.84.15-.17.06-1-.11-.88-2 1.81-3.79 3.86-5.6 5.85-.17.18 0 1 .11.87zM128.74 192.61a78.78 78.78 0 006.17-5.67c.19-.2.06-1.14-.12-1-2.13 1.87-4.22 3.82-6.15 5.89-.13.14-.06.91.1.77zM133.8 191.8a54.47 54.47 0 006.25-6c.1-.12.06-.84-.12-.71a46.84 46.84 0 00-6.22 6c-.14.14 0 .83.09.72zM138.52 191.69a41.29 41.29 0 005.61-5c.07-.09.06-.63-.1-.54-2.08 1.15-3.85 3.17-5.62 4.75-.17.16 0 .95.11.82zM142.72 192.19a25 25 0 012.32-2.5c.8-.75 1.7-1.39 2.46-2.17.14-.13.17-1-.11-.86-2 .84-3.67 3-4.87 4.69-.13.19 0 1.12.2.84zM147 192.2a70.86 70.86 0 005.83-5.4c.15-.16.08-1.05-.12-.89a70.36 70.36 0 00-5.83 5.37c-.18.18-.06 1.08.12.92zM152.58 191.83a74.63 74.63 0 005.65-5.6c.1-.12.06-.8-.09-.68a67 67 0 00-5.66 5.52c-.15.15 0 .88.1.76zM155.38 192.2a77.61 77.61 0 006.28-5.61c.16-.16.08-1-.11-.89a77.27 77.27 0 00-6.27 5.73c-.15.14-.06.9.1.77zM160.46 191.67a26.1 26.1 0 005.9-5c.17-.18 0-1.06-.12-.91-1.94 1.71-4.06 3.32-5.88 5.16-.12.12-.12.87.1.75zM166.25 192.53a33.23 33.23 0 015.65-5c.18-.13.06-.89-.1-.78a26.79 26.79 0 00-5.62 5.17c-.12.14 0 .72.07.62zM7.11 210.47c.66.4 1.54-.43 2.12-.79a11.23 11.23 0 002.56-1.85c.11-.12.17-1-.07-1a12.17 12.17 0 00-2.32 1.45c-.83.55-1.87 1-2.31 1.87v.27zM7.13 213.55a47.26 47.26 0 007.13-4.45c.18-.14.14-1.08-.12-.95A47.79 47.79 0 007 212.82c-.15.12-.11.84.09.73zM16.05 211.52a65.65 65.65 0 01-9.14 4.11c.11.19.24.35.35.54a1.11 1.11 0 01.07.16 27.06 27.06 0 008.84-3.89c.2-.14.12-1.05-.12-.92zM10.32 219.79c.66-1.68 2.58-2.57 4-3.47 1.7-1.07 3.39-2.15 5-3.29.24-.17.12-1.2-.13-1-2.12 1.3-4.17 2.68-6.22 4.07a6.29 6.29 0 00-2.91 3.2c0 .16.07.9.21.53zM15.4 218.63a63.56 63.56 0 008.6-5.39c.17-.14.12-1-.11-.86a100.2 100.2 0 00-8.61 5.56c-.15.1-.08.79.09.69zM19.73 218.8a43.18 43.18 0 008.44-5.8c.19-.15.13-1.08-.12-.94a46.15 46.15 0 00-8.41 6c-.12.11-.12.8.09.7zM25.12 218.83c2.17-1.81 4.34-3.6 6.39-5.54.13-.12 0-.77-.08-.66-2.22 1.76-4.29 3.66-6.39 5.55-.14.13 0 .75.08.65zM29.79 219c0-.56.94-1 1.33-1.32.56-.43 1.11-.88 1.67-1.32 1.08-.85 2.14-1.72 3.14-2.67.16-.16.11-1.09-.12-.94a48.32 48.32 0 00-4.47 3.45c-.92.76-1.95 1.39-1.87 2.69 0 .35.3.64.32.11zM34.19 219.37c2.45-2 5-3.93 7.3-6.07.14-.13.07-.82-.08-.7-2.54 1.91-4.89 4.07-7.3 6.14-.14.12 0 .72.08.63zM39.69 219.84a61.78 61.78 0 017.46-6.14c.2-.14.11-1-.11-.89a31.75 31.75 0 00-7.46 6.19c-.15.17 0 .94.11.82zM45.57 218.89c2.36-2.31 5.1-4 7.61-6.14.1-.08.09-.66 0-.61-3 1.12-5.55 3.66-7.67 5.93-.16.17 0 .94.1.82zM49.14 219.59c-.17-.74 3-2.65 3.53-3 1.22-.86 2.47-1.67 3.71-2.5.16-.1.1-.81-.09-.72a28.32 28.32 0 00-6 4.07c-.84.73-1.66 1.38-1.31 2.55.09.29.19-.27.16-.38zM52.94 220.59c2.8-3 6.06-5 9.48-7.17.11-.08.07-.61 0-.57-3.71 1.29-6.94 4.2-9.52 7.08-.13.14 0 .75.08.66zM58 220.24c3.23-2.36 6.86-4.45 9.84-7.12.12-.11.12-.8-.09-.7-3.57 1.73-6.79 4.74-9.82 7.27-.12.09-.05.64.07.55zM63.68 220.89c1.08-1.11 2.18-2.2 3.32-3.26s2.44-2 3.49-3.17c.08-.09.09-.67-.07-.58a21.14 21.14 0 00-3.51 3q-1.71 1.57-3.33 3.26c-.16.17 0 .89.1.77zM68.3 220.06c2.51-2.35 5.14-4.57 7.77-6.78.16-.14.05-.87-.1-.76a82.51 82.51 0 00-7.74 7c-.11.12 0 .64.07.56zM74.76 220.56a26.58 26.58 0 018-7.85c.16-.11.11-.87-.1-.77a20.26 20.26 0 00-8.09 7.81c-.12.19 0 1.08.2.81zM79.73 220.05c2.69-2.26 5.39-4.51 8-6.81.14-.12 0-.72-.08-.63-2.7 2.25-5.37 4.55-8 6.84-.13.12 0 .69.07.6zM86.83 219.4c2.63-2.26 5.25-4.52 7.8-6.86.13-.12 0-.71-.08-.62-2.64 2.22-5.22 4.5-7.8 6.79-.15.13 0 .79.08.69zM93.54 217.8l-.21-.14-.06.51a5.5 5.5 0 011.26-1.24l1.27-1.19a14.66 14.66 0 002.29-2.37c.09-.14.12-1.05-.17-.9a10.49 10.49 0 00-2.27 2.05c-.75.75-1.58 1.46-2.25 2.28-.22.28-.75 1.84.15 1.5.12-.05.13-.49 0-.5zM96.1 218.61a51.12 51.12 0 007.83-5.35c.24-.18.09-1.22-.14-1.06a59.27 59.27 0 00-7.79 5.88c-.08.08-.09.6.07.53zM100.35 220.2a27 27 0 016.26-5.56c.18-.12.12-.92-.1-.81a17.17 17.17 0 00-6.3 5.79c-.09.13 0 .77.14.58zM105.14 220.68c2.49-2.36 5-4.72 7.32-7.26.16-.17.06-1-.11-.87-2.57 2.31-4.93 4.86-7.3 7.36-.15.16 0 .89.09.77zM110.52 220.7a91.69 91.69 0 016.58-6.79c.16-.15.08-1-.11-.84a26.74 26.74 0 00-6.58 7c-.09.12 0 .75.11.63zM117.51 218.57c-.38-.44 5.71-6.07 6.35-6.77.12-.13 0-.74-.08-.63-2 1.84-3.91 3.86-5.79 5.85-.46.49-1.17 1.29-.52 1.91.06.06.1-.29 0-.36zM121.52 219.76c1-1.1 1.94-2.26 3-3.34s2.3-2.1 3.31-3.26c.12-.13.14-1-.11-.83a16.4 16.4 0 00-3.49 3.22 26.73 26.73 0 00-2.81 3.55c-.09.12 0 .78.12.66zM126.29 219.85a49 49 0 016.63-5.91c.23-.16.09-1.1-.12-.95a28.84 28.84 0 00-6.63 6.23c-.09.12 0 .75.12.63zM131.4 220.87c2.66-2.59 5.57-4.85 8.34-7.31.12-.11.08-.76-.08-.66a50.18 50.18 0 00-8.36 7.18c-.16.16 0 .9.1.79zM138.48 219.31a68.93 68.93 0 008.05-6.82c.1-.1 0-.63-.07-.54-2.68 2.29-5.25 4.67-8 6.83-.12.09 0 .61.06.53zM144.28 220.14c2.57-2.78 5.48-5.46 7.74-8.49.09-.12 0-.81-.12-.68-2.84 2.4-5.22 5.57-7.73 8.31-.17.19 0 1 .11.86zM148.51 219.83a58.51 58.51 0 016.14-6.45c.11-.11.11-.78-.09-.67-2.54 1.41-4.61 4.14-6.19 6.52-.1.14 0 .8.14.6zM154.31 219.06c2-2.57 4.41-4.6 6.62-6.95.11-.12.11-.84-.09-.72-2.71 1.61-4.89 4.53-6.67 7.08-.09.13 0 .79.14.59zM158.42 219.11c2-2.67 4.45-4.74 6.7-7.16.12-.12.13-.9-.1-.78-2.75 1.56-5 4.6-6.78 7.18-.12.17 0 1 .18.76zM163.68 219a72.53 72.53 0 016.54-6.58c.18-.15.08-1-.1-.85a24.62 24.62 0 00-6.56 6.78c-.07.12 0 .77.12.65zM170.52 217.85v.34l.38-.35a10.21 10.21 0 001-.91l1.73-1.62c1.16-1.1 2.32-2.2 3.46-3.33.19-.19.06-1.12-.13-1q-1.68 1.44-3.29 3a29 29 0 00-3.24 3.12c-.25.32-.72 2.08.22 1.63.18-.09.14-.92-.07-.88zM176.16 218.42a6.35 6.35 0 001.15-.9l1.74-1.39a35.23 35.23 0 003.29-2.8c.14-.15.12-1-.12-.85a39.83 39.83 0 00-4.07 3.29c-.78.66-2.24 1.42-2.44 2.49 0 .07 0 .51.12.49s.21 0 .35-.16v-.17zM179.81 219.46c1.21-.91 2.26-2.1 3.38-3.13s2.38-2.12 3.57-3.2c.17-.16.09-1-.12-.86a30.07 30.07 0 00-6.93 6.67c-.06.08 0 .62.1.52zM185.36 219.25c-.31-.75 3.35-3.84 3.86-4.36 1.19-1.24 2.37-2.47 3.46-3.8.09-.1 0-.7-.11-.59a77.21 77.21 0 00-6.47 6.5c-.81.86-1.5 1.74-.9 2.89.13.23.21-.47.16-.59zM190 219.47a28.59 28.59 0 015.89-7.16c.21-.18.06-1.07-.12-.92a23.61 23.61 0 00-5.92 7.5c-.07.14 0 .78.15.58zM194.68 220a35.91 35.91 0 012.29-3.3c.87-1.08 2-2 2.78-3.14.07-.11.1-.79-.13-.69-1.1.45-2 1.82-2.74 2.75a21.44 21.44 0 00-2.35 3.75c-.07.14 0 .86.15.63zM199.7 220.36a46.42 46.42 0 013.64-4.73c1.1-1.25 2.4-2.34 3.44-3.63.06-.08.05-.58-.09-.5a19.06 19.06 0 00-4 4 45.45 45.45 0 00-3.14 4.17c-.12.16 0 .91.16.68zM204.52 219.63c2.26-2.55 4.69-4.92 7.1-7.34.11-.11 0-.7-.08-.6a69.24 69.24 0 00-7.12 7.21c-.15.17 0 .84.1.73zM209.67 219.66c2.68-3 5.7-5.69 8.51-8.6.1-.11.06-.74-.09-.63a56.52 56.52 0 00-8.52 8.49c-.15.17 0 .85.1.74zM216 218.61a36.51 36.51 0 008.25-6.47c.13-.15.09-1-.11-.85-2.77 2.13-5.31 4.42-8.26 6.31-.24.15-.11 1.15.12 1zM53.68 165.51c.86-1.75 3.38-2.94 4.89-4a57.25 57.25 0 005.19-4.09c.12-.11.1-.82-.09-.72a55.12 55.12 0 00-6.16 4.3c-1.46 1.11-3.29 2.1-4 3.87-.06.14.07.82.18.6zM54 166.8c3.69-2.63 7.44-5.18 11-8 .15-.12.07-.82-.09-.71-3.78 2.5-7.36 5.3-11 8-.17.13-.06.83.09.72zM55.76 167.5c3.77-2.36 7.34-5.1 11.1-7.5.18-.11.11-.89-.1-.79A42.22 42.22 0 0055.7 167c-.08.08-.07.58.06.5zM58.81 168.25a64 64 0 0010.9-7.69c.12-.11.07-.71-.07-.62-3.64 2.53-7.21 5.15-10.92 7.58-.17.11-.09.83.09.73zM60.73 169.93c3.16-2.63 6.47-5.07 9.78-7.51.18-.13.08-.9-.1-.79a96.18 96.18 0 00-9.78 7.52c-.17.15 0 .9.1.78zM62.46 170.2a82.33 82.33 0 007.6-5.27c.19-.14.08-1-.11-.85-2.57 1.7-5.2 3.4-7.59 5.34-.15.13-.1.9.1.78zM63.39 148.82c3.52-2.87 7.07-5.71 10.48-8.7.14-.12 0-.76-.08-.66-3.57 2.87-7 5.9-10.46 8.89-.1.09 0 .54.06.47zM64.84 149.11a106.17 106.17 0 0011.74-8.39c.17-.14.1-1-.1-.85a109.8 109.8 0 00-11.73 8.58c-.13.11-.08.76.09.66zM78.06 140.66a60.26 60.26 0 00-12.3 9.69c-.19.19 0 1 .11.89a74.61 74.61 0 0112.71-9.73c-.17-.28-.34-.57-.52-.85zM79.62 143.14a3.8 3.8 0 01-.29-.38A64.36 64.36 0 0068 151.34c-.19.17 0 1 .11.87a136.33 136.33 0 0111.74-8.69zM80.38 144.66a65.32 65.32 0 00-9.73 7.5c-.15.14 0 .8.09.7a79.19 79.19 0 0110-7.53 6.24 6.24 0 01-.36-.67zM75.29 166.11a89 89 0 0010.58-7.83c.15-.13.08-.89-.1-.78a92.25 92.25 0 00-10.55 8c-.11.09-.07.67.07.58zM77.07 168.39c3.29-2.91 6.75-5.61 10.24-8.27.13-.1 0-.69-.08-.6A92.58 92.58 0 0077 167.83c-.12.11 0 .64.07.56zM79.75 169.43c3.18-2.68 6.36-5.35 9.5-8.07.15-.12 0-.76-.08-.66-3.19 2.65-6.34 5.34-9.51 8-.16.14 0 .81.09.71zM82 170.22a73.49 73.49 0 008.79-6.52c.2-.18 0-1-.11-.91a89.58 89.58 0 01-8.79 6.6c-.2.13-.08 1 .11.83zM86.36 148.5c.22-1.58 2.71-2.73 3.88-3.58 1.51-1.09 3-2.18 4.44-3.38.17-.15.1-1-.11-.85-2.09 1.33-4.07 2.86-6 4.38-1.15.89-2.28 1.68-2.37 3.22 0 .14.14.55.19.21zM87.85 150.2a63.72 63.72 0 019.45-9.27c.16-.13.07-.86-.09-.75a46.62 46.62 0 00-9.54 9.28c-.14.16 0 1 .18.74zM88.72 151a118.36 118.36 0 0110.79-9.6c.13-.1 0-.67-.07-.58a74.5 74.5 0 00-10.77 9.78c-.08.09 0 .46 0 .4zM90.48 152.13a119.7 119.7 0 0110.52-9.27c.15-.12.07-.79-.08-.69a65.88 65.88 0 00-10.49 9.25c-.15.16 0 .81.09.71zM92.19 153.38c3-2.92 6.24-5.63 9.52-8.27.17-.14.05-.89-.1-.78a96.18 96.18 0 00-9.51 8.29c-.17.15 0 .87.09.76zM102.2 147.14q-2.85 2.18-5.69 4.38c-.13.1 0 .63.07.54q2.92-2.24 5.82-4.52c-.07-.13-.14-.26-.2-.4zM97 166.94c.76-1.69 3.39-2.88 4.87-3.86 1.88-1.26 3.79-2.48 5.66-3.76.2-.14.12-1.08-.12-.95a58.86 58.86 0 00-6.67 4.26c-1.41 1-3.36 2-3.91 3.76 0 .12.07.76.17.55zM98.76 169.42c3.82-3.42 7.86-6.57 12-9.65.19-.14.08-1-.1-.85a106 106 0 00-12 9.8c-.15.14 0 .81.09.7zM100.44 170.59c3.85-3 7.74-5.87 11.49-9 .16-.13.06-.81-.08-.7-3.91 2.9-7.68 6-11.5 9-.15.12 0 .78.09.67zM107.54 168.25c2.45-1.78 5-3.5 7.3-5.42.14-.11.08-.78-.08-.67-2.52 1.64-4.9 3.51-7.32 5.3-.19.14-.06.91.1.79zM118.13 139.9a62.55 62.55 0 00-9.24 6.37 3.35 3.35 0 01-.34 1.19 73.83 73.83 0 009.67-6.84c.13-.11.11-.82-.09-.72zM108.24 150.63a87.7 87.7 0 0113.2-9.1c.22-.13.12-1.09-.12-1a58.07 58.07 0 00-13.16 9.38c-.14.13 0 .8.08.69zM123 141.75a62.39 62.39 0 00-12.17 9.34c-.17.17 0 .93.1.81a109.41 109.41 0 0112.28-9.34.32.32 0 00.05-.13c-.09-.22-.17-.43-.26-.68zM123.9 144.25a64.36 64.36 0 00-11.55 9.24c-.1.1 0 .57.07.5a96.13 96.13 0 0111.66-9.07c-.08-.22-.08-.45-.18-.67zM124.29 146.88a86.08 86.08 0 00-8.57 6.37c-.21.17-.06 1.06.11.93a102.69 102.69 0 018.48-6.19c0-.38-.01-.74-.02-1.11zM129.94 148.64a102.92 102.92 0 019.3-6.13c.22-.12.13-1.07-.11-.95a32 32 0 00-9.27 6.48c-.1.11-.06.7.08.6zM131.06 151a97.27 97.27 0 0113.31-9.29c.14-.09.09-.74-.08-.66a45.22 45.22 0 00-13.3 9.37c-.11.11 0 .66.07.58zM133.57 151.87c3.64-3.61 7.72-6 12-8.71.16-.1.09-.82 0-.76-4.56 1.74-8.66 5.27-12 8.71-.16.16 0 .87.09.76zM135.08 153a73.31 73.31 0 0110.7-7.36c.12-.07.07-.61-.07-.54a46 46 0 00-10.71 7.4c-.12.1 0 .62.06.54zM146.4 147.89c0-.1.07-.3.11-.44-2.06 1.4-4.11 2.83-6.15 4.26-.14.1-.05.7.07.62 2-1.39 4-2.78 6-4.19a1 1 0 01-.03-.25zM121 166.25c2.75-2.47 5.64-4.76 8.47-7.13.14-.12.06-.79-.09-.69a90.17 90.17 0 00-8.46 7.16c-.14.13 0 .76.08.66zM121.13 168.41c3.81-2.9 7.69-5.72 11.31-8.85.17-.15.08-1-.1-.85-3.91 2.78-7.58 5.91-11.3 8.94-.17.14-.06.88.09.76zM124.12 169.92c3-2.65 6.11-5.25 9-8 .15-.14.05-.84-.09-.73-3.1 2.58-6 5.36-9 8.07-.15.14 0 .78.08.68zM126.07 170.42a99 99 0 008.76-8.12c.1-.11 0-.66-.07-.57-2.94 2.64-5.78 5.39-8.78 8-.16.14 0 .82.09.72zM149.1 157a1.21 1.21 0 01-.43-.07c-2.65 2.06-5.24 4.22-7.81 6.34-.2.16-.12 1.12.13 1a61.27 61.27 0 009.34-7.26zM141.67 167.73q5.67-4.24 11.24-8.58c.25-.19.07-1.2-.13-1q-5.64 4.41-11.19 8.95c-.15.12-.06.78.08.67zM145.33 169.29c3.51-3.08 7.11-6 10.73-9 .23-.19.07-1.16-.13-1-3.71 2.86-7.25 5.92-10.71 9.07-.2.18-.05 1 .11.9zM157.52 160.76c-3.05 2.45-6 5.06-8.9 7.64-.19.16-.05 1 .11.85 3.05-2.54 6.12-5.07 9.05-7.75-.08-.25-.17-.5-.26-.74zM158.45 163.34a62.94 62.94 0 00-6.4 5.59c-.17.17 0 .91.1.79 2.12-2 4.36-3.88 6.56-5.79-.09-.19-.17-.39-.26-.59zM151.8 149.68c4-2.6 7.81-5.59 11.55-8.52.15-.12.07-.79-.08-.69a80.92 80.92 0 00-11.52 8.81c-.08.07-.05.46.05.4zM156 150.35c3.45-2.79 7-5.51 10.28-8.44.16-.15.05-.92-.1-.79-3.52 2.71-6.87 5.65-10.27 8.52-.16.14 0 .81.09.71zM157.25 152.58c3.48-3 7.12-5.71 10.74-8.51.14-.1.06-.73-.08-.64a110 110 0 00-10.74 8.57c-.14.12 0 .72.08.63zM168.18 145.71c-2.38 1.94-4.63 4-6.92 6.07-.2.17 0 1 .11.9 2.36-2.06 4.74-4.11 7-6.27a1.27 1.27 0 01-.19-.7zM172.54 156.43a67.19 67.19 0 00-10.27 7.51 1.38 1.38 0 01.3.85 68 68 0 0010.75-7.88 6.78 6.78 0 00-.78-.48zM163.35 167.5c3.75-2.75 7.57-5.43 11.2-8.33.14-.11.06-.77-.08-.67-3.83 2.6-7.5 5.47-11.22 8.24-.18.13-.06.87.1.76zM167 167.51c2.85-2.26 5.79-4.45 8.52-6.86.14-.13.06-.84-.09-.73-3 2.12-5.71 4.51-8.53 6.8-.18.14-.05.9.1.79zM167 170.51c3.84-3 8-5.9 11.48-9.39.1-.1.09-.73-.08-.63-4.13 2.46-7.79 6-11.52 9-.23.18-.06 1.16.12 1zM169.72 172.27c3.76-2.91 7.56-5.79 11.19-8.87.17-.14.07-.92-.09-.8-3.84 2.77-7.52 5.74-11.23 8.68-.22.18-.06 1.14.13 1zM182.08 109.53c1.18-1.11 2.29-2.28 3.48-3.37s2.53-2.15 3.67-3.34c.16-.16.15-1.17-.14-1a34.19 34.19 0 00-7.17 6.84c-.14.17 0 1 .16.86zM183.64 110.71c1.36-1.53 2.77-3 4.26-4.44s2.9-2.46 4.18-3.85c.12-.14.13-1-.11-.82a25.39 25.39 0 00-4.65 4.14 77.623 77.623 0 00-3.87 4.25c-.14.17 0 1 .19.72zM185.26 112.35c2.94-2.85 5.92-5.66 8.73-8.63.09-.11 0-.61-.07-.52-3 2.73-5.86 5.64-8.74 8.51-.14.14 0 .75.08.64zM186.58 114.61a52.48 52.48 0 019.12-9.06c.18-.15.1-1-.12-.87a37 37 0 00-9.18 9.25c-.12.16 0 .91.18.68zM188.72 115.11c2.43-3 5.29-5.37 8-8.07.13-.14.14-1-.11-.84-3.25 1.81-5.94 5.12-8.08 8.1-.13.19 0 1.09.21.81zM189.19 117c2.54-2.82 5.27-5.44 8.05-8 .16-.15 0-.89-.1-.76a77.54 77.54 0 00-8 8.07c-.15.17 0 .82.09.71zM191.62 118c2.13-2.26 4.28-4.5 6.34-6.83.14-.16 0-.87-.1-.74-2.16 2.22-4.24 4.53-6.33 6.82-.16.17 0 .87.09.75zM194.82 118.52c2.12-2 4.32-3.93 6.34-6 .14-.16.05-.92-.1-.78-2.22 1.93-4.23 4.08-6.33 6.14-.15.14 0 .8.09.69zM181.78 95.46c2.59-2.09 5.14-4.26 7.68-6.4.15-.13.09-.84-.09-.72a40.34 40.34 0 00-7.67 6.49c-.11.11-.06.74.08.63zM181.9 98.68c2.24-3 5-5 7.78-7.45.14-.12.12-.88-.1-.76-3.16 1.69-5.71 4.83-7.82 7.66-.09.14 0 .74.14.55zM181.81 101.33a59.81 59.81 0 018.42-7.8c.15-.13.12-.91-.1-.79-3.42 1.78-6.2 4.89-8.49 7.94-.11.15 0 .88.17.65zM181.65 105.14a45 45 0 009-8.11c.11-.14 0-.84-.13-.71a92.71 92.71 0 01-9 8.05c-.19.13-.07.89.1.77zM143.34 118.11a30.27 30.27 0 009.25-1.56c.17-.07.15-.77 0-.75-3.09.41-6.15 1.12-9.25 1.51-.2 0-.17.8 0 .8zM143.08 120.66c2.95-.45 5.91-.84 8.8-1.56.18 0 .14-.72 0-.7-3 .3-5.88.94-8.81 1.52-.19 0-.14.77 0 .74zM144.31 122.17c2.11-.23 4.24-.38 6.34-.69.18 0 .15-.75 0-.73-2.12.16-4.23.48-6.34.72-.18 0-.14.72 0 .7zM141.63 124.88a48.16 48.16 0 018-.72c.19 0 .19-.81 0-.82a29.78 29.78 0 00-8 .75c-.21 0-.14.82 0 .79zM140.41 127.13a56.12 56.12 0 017.31-.78c.2 0 .18-.8 0-.81a34.56 34.56 0 00-7.31.69c-.24 0-.16.93 0 .9zM139.44 129.64a34.45 34.45 0 006.34-.19c.29 0 .22-1.16 0-1.13a40.66 40.66 0 01-6.34.25c-.24 0-.25 1.05 0 1.07zM40.15 124.86c3.55-2.3 7-4.52 10.76-6.49.1-.05 0-.55 0-.52a32 32 0 00-10.75 6.67c-.06.06 0 .39 0 .34zM39.56 128.23c3.15-1.62 6.35-3.17 9.42-4.93.11-.07.06-.61-.06-.55-3.2 1.51-6.3 3.25-9.42 4.91-.13.07-.06.63.06.57zM38.5 130.8c3.3-1.64 6.9-3 10-5 .09-.06.05-.56 0-.53-3.5 1-6.92 3.15-10.06 5-.12.07-.06.61.06.55zM37.82 132.46c3.39-1.41 6.83-2.73 10.13-4.34.13-.06 0-.62 0-.59-3.43 1.32-6.77 2.95-10.12 4.48-.1 0 0 .47 0 .45zM36.35 135.27c3.56-1.68 7.23-3 10.89-4.43.16-.07.09-.7 0-.66a65.66 65.66 0 00-10.93 4.55c-.12.06-.06.6.06.54zM45.71 133.43c-3.47 1.59-6.91 3.26-10.35 4.92 0 .23 0 .44-.07.67 3.5-1.64 7-3.26 10.49-5 .14-.02.07-.66-.07-.59zM44.25 136a48.48 48.48 0 00-9 3.78c0 .22-.08.44-.14.66a74.63 74.63 0 019.21-3.8c.11-.02.03-.64-.07-.64zM44.23 138.1a101 101 0 00-10 4.61c-.1.19-.19.38-.3.56s.06.2.11.17c3.38-1.65 6.84-3.1 10.25-4.68.12-.07.03-.69-.06-.66zM42.51 141.54c-3.11 1.19-6.15 2.6-9.2 3.94 0 .21.07.43.09.64 3.06-1.3 6.16-2.54 9.15-4 .13-.05.04-.61-.04-.58zM42.91 143.36c-3.21 1.11-6.33 2.57-9.46 3.95a7.91 7.91 0 01-.06.84c3.21-1.31 6.48-2.55 9.57-4.1.14-.05.04-.73-.05-.69zM41.66 146.51a29.22 29.22 0 00-8.48 2.83c-.08.3-.16.59-.26.88 2.89-1.16 5.86-2 8.75-3.19.12-.03.1-.54-.01-.52zM40.17 149.52a26.52 26.52 0 00-8.35 3 8.15 8.15 0 01-.85 1.13 54.56 54.56 0 019.22-3.56c.14-.02.11-.58-.02-.57zM31 156.52a31.88 31.88 0 019.6-4.33c.13 0 .09-.58 0-.56a23.18 23.18 0 00-9.65 4.26c-.14.1 0 .71.07.63zM40.59 153.57c-3.35 1.18-6.64 2.56-9.93 3.9 0 .16 0 .32-.05.48 3.34-1.25 6.71-2.46 10-3.86.12-.09.06-.54-.02-.52zM39.09 156.29a87.8 87.8 0 00-9 3.54 7.33 7.33 0 01-.45.94c3.13-1.34 6.29-2.59 9.46-3.84.17-.06.09-.67-.01-.64zM29.26 163.2c3.08-1.4 6.2-2.72 9.21-4.25.1 0 0-.49 0-.46-3.13 1.32-6.16 2.87-9.22 4.33-.08 0 0 .42 0 .38zM39.31 161.79a32.55 32.55 0 00-11.81 4c-.05.21-.09.43-.15.64a70.76 70.76 0 0112-4.28c.05-.03.04-.37-.04-.36zM39.54 162.85A46.07 46.07 0 0027 168.07v.12c0 .17-.09.33-.13.5a106.41 106.41 0 0112.76-5.34c.04-.05 0-.52-.09-.5zM35.87 166.62a34.46 34.46 0 00-9.51 3.72l-.15.59a96.54 96.54 0 019.67-3.88c.12-.05.12-.45-.01-.43zM36.58 168.34c-3.86.68-7.61 2.7-10.93 4.72 0 .19-.09.38-.14.57 0 0 0 .06.07 0 3.53-2 7.27-3.31 11-4.89.11 0 .09-.42 0-.4zM34.37 171.91a25.13 25.13 0 00-9.56 4.34l-.24.86a71.6 71.6 0 019.82-4.61c.13-.06.11-.61-.02-.59zM25.23 179a66.92 66.92 0 019.84-5.36c.15-.07 0-.72 0-.68a48.15 48.15 0 00-9.86 5.39c-.15.1-.05.74.07.65zM24.35 180.81a87.41 87.41 0 0110.92-4.18c.13 0 .1-.55 0-.53a38.6 38.6 0 00-11 4.24c-.1.06-.05.52.05.47zM33.37 179.85c-3.66.55-7.35 2.49-10.6 4.35-.06.29-.14.57-.2.86 3.53-1.81 7.27-3 10.84-4.68.09-.05.07-.54-.04-.53zM29.24 184.17c-2.36 1.17-4.77 2.19-7.2 3.16-.07.28-.13.56-.2.83a39.53 39.53 0 007.48-3.36c.13-.08.07-.7-.08-.63zM21.35 190.29l-.18.81c2.76-1.3 5.59-2.46 8.35-3.78.11-.06.06-.59 0-.56a51.64 51.64 0 00-8.17 3.53zM28.17 190.3a41.36 41.36 0 00-7.39 2.39c-.07.29-.14.57-.2.85 2.52-.9 5.08-1.7 7.61-2.6.16-.06.12-.67-.02-.64zM20.07 197.07c2.54-1.3 5.15-2.43 7.72-3.64.08 0 0-.41 0-.38A56.9 56.9 0 0020 196.6c-.11.06-.06.53.05.47zM19.45 199.93c3.09-1.79 6.25-3.46 9.42-5.12.13-.07.07-.69-.08-.62-3.22 1.56-6.34 3.32-9.41 5.15-.14.08-.06.67.07.59zM24.16 200.38a36.35 36.35 0 017.91-5c.11-.06 0-.56 0-.53a24.07 24.07 0 00-7.94 4.89c-.13.12 0 .7.07.62zM29.94 199.9c1.95-1.11 3.91-2.2 5.77-3.45.09-.06 0-.48-.05-.43-2 1-3.87 2.21-5.78 3.39-.11.07-.05.55.06.49zM42.53 119.06c2.91-1.19 5.76-2.51 8.55-3.93.15-.07.05-.7 0-.66-2.9 1.21-5.76 2.53-8.55 4-.13.07-.05.65 0 .62zM39.57 126.68c1.81-1 3.57-2.07 5.34-3.14.14-.09.05-.71-.08-.64-1.78 1.11-3.56 2.21-5.3 3.38-.09.06-.05.45 0 .4zM42.75 120.68a21.7 21.7 0 014.5-2.73c.12 0 .08-.54 0-.51a9.75 9.75 0 00-4.55 2.74c-.08.09 0 .57.06.5z"/><path class="cls-1" d="M330.07 215.32a21.68 21.68 0 0013.4 11.19c5.86 1.73 4.57.78 10.54 1.81 4.28.73 8.88 1.82 13.22 1.69 5.78-.16 11.39-2.33 17.14-2.88 12.41-1.18 24.92 1.61 37.34 1.64a184 184 0 0044.2-5.54c18.28-4.47 10.54-32.68-7.77-28.2a150 150 0 01-34.65 4.5c-10.54.09-20.92-1.63-31.43-1.85-8.55-.18-16.57 2.52-24.83 3.09-2.18.15-4.87-.56-7.54-1-1.24-.21-2.47-.46-3.71-.65s-2.25-.35-3.38-.49q-5.4-1 2.72 2c-8.22-16.92-33.45-2.11-25.25 14.76z"/><path class="cls-2" d="M362.54 25.19c-11.83-7.62-35.54-22.88-50.15-13.3-8 5.21-7.64 16.35-5.84 24.57 3.7 17 14.3 32.71 25 46.07a210.28 210.28 0 0054.08 48.24c1.28.78 1.2-2.75 1.09-3.22L363.12 26.2c-.64-2.76-2 .82-1.67 2.22L385 129.76l1.09-3.22c-29.62-18.12-57.76-45.68-72.64-77.54-4.51-9.66-11.92-28.31 1.8-34.15 14.81-6.3 35 7 46.78 14.55 1.12.75 1.68-3.46.51-4.21z"/><path class="cls-2" d="M348 81.41c-6.56-6.71-41.73-49.19-16.81-50.59 4.46-.25 9.09 1.57 13.11 3.3 2.6 1.13 9.79 3.65 11.18 5.79s1.46 6.25 2 8.6l12.7 54.58 1.09-3.22A134.91 134.91 0 01348 81.41c-1.31-1.28-1.88 2.91-1 3.79a137.76 137.76 0 0023.74 18.9c1.27.79 1.2-2.75 1.09-3.22l-7.6-32.67-5.1-21.91c-.59-2.53-.7-7.14-2.22-9.33-4.09-5.92-19.44-11.19-26.76-10.52-5.39.48-8.67 3.85-9.61 9.06C317.27 53.6 335.86 73.75 347 85.2c1.3 1.3 1.89-2.89 1-3.79zM450.43 29.42c11.77-7.58 32-20.85 46.79-14.55C510.91 20.7 503.54 39.33 499 49c-14.88 31.85-43 59.4-72.67 77.52l1.09 3.22L451 28.42c.32-1.4-1-5-1.67-2.22l-23.57 101.35c-.12.52-.16 4 1.09 3.22a209.88 209.88 0 0053-46.94C491 70.14 502.09 54 505.92 36.46c1.73-7.93 2.15-18.64-5.11-24.09-14.29-10.74-39.21 5.3-50.89 12.82-1.15.74-.62 4.97.51 4.23z"/><path class="cls-2" d="M465.43 85.2c11.21-11.49 29.76-31.58 26.47-49.69-.95-5.21-4.23-8.57-9.62-9.06-7.42-.68-22.63 4.55-26.76 10.55-1.5 2.17-1.64 6.85-2.22 9.33l-5.09 21.91-7.6 32.67c-.12.51-.16 4 1.09 3.22a138.07 138.07 0 0023.73-18.9c.89-.86.35-5.08-1-3.79a135.37 135.37 0 01-23.28 18.46l1.09 3.22L455 48.51c.51-2.17.63-6.58 2-8.42 3.41-4.74 17.65-9.1 23.31-9.27 26.67-.83-9.45 44.1-15.78 50.59-.94.89-.38 5.1.9 3.79zM463.77 218.11H352.93a37.74 37.74 0 01-4 0c-9.43-1-11.81-12-8.7-19.76 3.18-7.89 12.61-6.2 19.63-6.2h99.46a24.48 24.48 0 016.62.49c6.43 1.71 7.39 6.75 7.39 12.49 0 6.7-1.81 12.09-9.58 13-1.42.17-1.27 4.53 0 4.39 12-1.39 13.59-15.68 11.1-25.52-2.42-9.59-11-9.22-18.73-9.22h-81.91c-8.17 0-16.77-.79-24.92 0-12 1.16-12.62 12.31-11.89 22 .74 10.05 7.64 12.74 16.34 12.74h110c1.38-.02 1.39-4.41.03-4.41z"/><path class="cls-2" d="M359.84 187.44c1.34-9.56 13-15.53 20-20.8 6.06-4.6 11.37-10 12.76-17.75 2-11.31-7.27-25.42 6.33-32.2s25.11 5.14 21.71 18.94c-4.18 19.76 11.34 27.6 24.15 39 5.56 4.93 7.85 9.32 7.91 13.17h2.1A21.81 21.81 0 00450 175c-9.64-11.95-31.68-18.21-27.68-37.19 2.14-8.64 2-19.38-6.39-24.71a18.08 18.08 0 00-22.5 3.12c-9.65 10.81 1.32 23.68-3.9 35.1-5 10.82-18.14 14.75-25.73 23.24a23.85 23.85 0 00-5.83 12.83z"/><ellipse class="cls-4" cx="406.34" cy="143.94" rx="19.18" ry="10.59"/><path class="cls-2" d="M424.59 143.35c-1.5 12.29-35.44 12.39-35.44.59s33.94-11.71 35.44.58c.36 2.95 2.1.79 1.86-1.17-2.06-16.91-40.26-16.94-40.26.59s38.2 17.5 40.26.58c.24-1.94-1.45-4.13-1.86-1.17z"/><path class="cls-4" d="M354.29 10.44c.83 74.9 23.81 135 52 135s51.22-60 52.05-134.95z"/><path class="cls-2" d="M353.33 10.44c.42 27 3.16 54.11 10.45 80.15 4.72 16.88 11.31 35.7 24.17 48.25 27.91 27.22 50.65-16.44 58.15-39.07 9.51-28.67 12.77-59.25 13.25-89.33 0-.55-.13-2.2-1-2.2H354.29c-1.35 0-1.36 4.39 0 4.39h104.1l-1-2.19c-.5 31.61-4 64.31-15.46 94-5.68 14.74-16.62 38.74-35.62 38.74s-29.94-24-35.62-38.74c-11.45-29.7-15-62.41-15.46-94-.01-2.59-1.94-2.63-1.9 0z"/><rect class="cls-1" x="346.96" y="2.43" width="118.75" height="8.6" rx=".22"/><path class="cls-2" d="M462.69 9.28h-98.92c-3.21 0-10.6 1.44-13.6 0-9.53-4.58 7.43-5.1 8.72-5.1h90.67c3.16 0 6.62-.4 9.76 0 1.93.25 11.39 1.75 3.16 5.16-1 .4-.7 3.85.41 3.39C468.5 10.4 467.57 2.1 462 .67c-5.93-1.51-14.21 0-20.3 0H368c-5.12 0-12.85-1.48-17.8 0-5.42 1.62-5.65 10.33-.2 12.12 4.44 1.46 11.94 0 16.53 0h96.17c1.07 0 1.08-3.51-.01-3.51zM355.39 21.3c2.89-1.72 5.78-3.38 8.7-5.05.22-.13.13-1.16-.09-1.08a29.69 29.69 0 00-8.74 5c-.26.22-.14 1.29.13 1.13zM355.28 23.14c-.15.11-.11.84.09.74 2.45-1.23 5-2.26 7.43-3.5.18-.09.15-.91-.06-.87a19.72 19.72 0 00-7.46 3.63zM354.75 27.85a82.83 82.83 0 019.12-5c.17-.08.09-.8-.06-.75a39.42 39.42 0 00-9.14 5.1c-.14.14-.05.74.08.65zM364 25.94a43 43 0 00-9.32 4.28c-.16.09-.1.81.09.71 3.06-1.48 6.23-2.73 9.29-4.21.19-.09.12-.83-.06-.78zM363.78 28.78a48 48 0 00-9.06 3.91 5 5 0 01.23.65c2.93-1.33 6-2.4 8.89-3.72.16-.09.16-.89-.06-.84zM355.55 35.51a47.6 47.6 0 008.54-3.7c.15-.1.12-.88-.07-.83a45.57 45.57 0 00-8.52 3.77c-.17.09-.09.81.05.76zM355.73 37.13c-.18.08-.11.81.09.73a75.74 75.74 0 017.57-2.86c.29-.09.16-1 0-1a59.48 59.48 0 00-7.66 3.13zM356.42 39.91c2.71-.93 5.52-1.42 8.23-2.28.2-.06.18-.77 0-.76a31.76 31.76 0 00-8.27 2.47c-.14.05-.07.66.04.57zM364.48 39.76c.19-.09.11-.87-.1-.77a41 41 0 01-7.76 2.71c-.16 0-.12.62 0 .6a25.55 25.55 0 007.86-2.54zM356.42 45.61a57.9 57.9 0 009.75-3.36c.14-.07.09-.73-.06-.68-3.29.94-6.46 2.37-9.71 3.47-.16.05-.1.6.02.57zM365.9 44.2a81.52 81.52 0 00-9.51 3.41c-.12.06-.08.62 0 .59a77.23 77.23 0 009.49-3.08c.29-.12.2-.98.02-.92zM357.28 50.42c-.15.06-.1.61 0 .58a48.69 48.69 0 008.42-2.9c.15-.07.09-.76 0-.72-2.88.8-5.65 2.01-8.42 3.04zM357.87 54.27a86.6 86.6 0 018.49-3.72c.17-.06.14-.7 0-.67a18.62 18.62 0 00-8.57 3.61c-.16.12-.13.88.08.78zM359.83 56.22c2.27-1 4.55-2 6.76-3.18.15-.07.1-.73-.08-.65-2.29 1-4.52 2.08-6.76 3.16-.16.08-.09.75.08.67zM357.65 60.83c3.18-1.51 6.4-2.87 9.59-4.33.15-.07.11-.78-.05-.75a26.8 26.8 0 00-9.64 4.25c-.17.11-.11.93.1.83zM358.57 64.56c3.19-1.74 6.52-3.2 9.72-4.91.17-.09.09-.82-.05-.77a59.94 59.94 0 00-9.78 4.81c-.2.11-.1.98.11.87zM367.59 63.09a51 51 0 00-8 3.9c.07.15.13.33.2.5 2.58-1.31 5.23-2.43 7.85-3.66.17-.07.08-.83-.05-.74zM366.91 66.45c-2.21 1-4.36 2.13-6.49 3.3.06.28.11.55.16.83 2.18-1 4.36-2.1 6.43-3.32.18-.11.12-.91-.1-.81zM367.3 69.93c-2.15.9-4.28 1.86-6.41 2.84 0 .23.05.46.07.69 2.17-.85 4.32-1.71 6.46-2.63.21-.09.13-1.01-.12-.9zM367.39 74.5c-1.59.57-3.17 1.2-4.74 1.84a13.59 13.59 0 00-1.35.55l.09.73a28.86 28.86 0 013-1c1-.4 2.08-.81 3.1-1.24.16-.13.04-.93-.1-.88zM370.14 77a33.76 33.76 0 00-8.23 3.68c.06.3.13.6.2.9 2.64-1.37 5.37-2.52 8.09-3.74.18-.04.1-.84-.06-.84zM371.4 80.48a38.24 38.24 0 00-8.84 3c.06.24.13.49.2.73 2.88-1 5.88-1.86 8.68-3.1.13-.06.09-.65-.04-.63zM371.8 83.31a30.49 30.49 0 00-8.32 3.39c0 .15.06.29.08.44s.06.27.1.4c2.67-1.29 5.42-2.29 8.16-3.43.18-.11.18-.83-.02-.8zM372.27 86.71c-2.76.55-5.5 2.2-7.95 3.71.06.25.1.51.14.76 2.58-1.38 5.34-2.43 7.85-3.91.1-.06.08-.59-.04-.56zM366.8 93.84c1.84-1.19 3.91-2 5.72-3.21.09-.06.08-.56 0-.53-2.05.45-4.05 1.91-5.75 3.08-.19.11-.1.75.03.66zM364.89 98.15c2.69-1.39 5.45-2.71 8-4.29.15-.1.1-.83-.09-.74-2.76 1.2-5.4 2.71-8.06 4.11-.17.12-.07 1.04.15.92zM367 100.63c3.07-1.94 6.52-3.31 9.53-5.31.11-.07.1-.68 0-.64-3.42.77-6.76 3.19-9.58 5.18-.21.14-.11.87.05.77zM376.31 99.53c.14-.06.07-.67 0-.63a33.41 33.41 0 00-8.06 4c-.14.09-.06.69.07.61a61.35 61.35 0 017.99-3.98zM369.36 107.21c2.75-1.53 5.49-3.06 8.21-4.65.2-.11.1-1-.1-.84-2.75 1.55-5.48 3.15-8.21 4.75-.17.11-.08.84.1.74zM371 110.08c2.63-1.28 5.24-2.59 7.83-4 .16-.09.09-.8-.09-.72-2.63 1.32-5.22 2.69-7.81 4.09-.11.12-.05.7.07.63zM372.53 114.07c3.17-2.12 6.56-3.9 9.71-6 .13-.1.07-.77-.05-.72a55.54 55.54 0 00-9.78 5.81c-.21.11-.07 1.03.12.91zM375.07 119.35c3.17-2.53 6.58-4.11 10.14-5.95.17-.09.13-.92-.06-.88-3.76.84-7.37 3.38-10.18 5.92-.19.16-.06 1.04.1.91zM384.66 116.6a37.6 37.6 0 00-7.12 4.12c-.11.09-.09.71 0 .66a35.59 35.59 0 007.16-4.15c.17-.09.12-.71-.04-.63zM380.76 123.27c2.8-2.07 5.83-3.75 8.69-5.71.12-.09.06-.69-.05-.65a39.93 39.93 0 00-8.73 5.6c-.17.13-.05.87.09.76zM381 126.63c3.24-1.93 6.65-3.49 9.92-5.34.13-.08.06-.69 0-.65a63 63 0 00-10 5.31c-.19.05-.1.77.08.68zM383.5 131.52c3.36-2.18 6.77-4.32 9.94-6.77.15-.12.08-.87-.09-.77-3.45 2-6.69 4.43-9.94 6.74-.18.13-.08.92.09.8zM386.69 134.11c2.48-1.54 5-3.05 7.37-4.74.16-.11.09-.84-.09-.74-2.53 1.42-5 3-7.39 4.61-.2.13-.09.99.11.87zM387.92 137.86a80.1 80.1 0 007.22-5.21c.19-.15.09-1.07-.12-.93a80.71 80.71 0 00-7.21 5.28c-.17.14-.09 1 .11.86zM390.25 139.75c3.42-2.11 7.07-4.37 9.8-7.36.1-.11.09-.8-.09-.69-3.44 2.1-6.47 4.94-9.82 7.21-.14.09-.08.96.11.84zM395 142a99.76 99.76 0 008.66-7c.21-.19.11-1.28-.14-1.11a96.86 96.86 0 00-8.64 7c-.26.29-.14 1.29.12 1.11zM397.45 144.85c2.23-1.86 4.47-3.71 6.54-5.74.15-.14.07-.91-.09-.78-2.3 1.77-4.41 3.75-6.55 5.71-.17.15-.05.96.1.81zM404.24 144.07q2.75-2.31 5.5-4.61c.22-.19 0-1.14-.12-1l-5.5 4.69c-.2.18-.04 1.05.12.92zM409.73 144c1.85-1.52 3.68-3.07 5.5-4.62.2-.17 0-1-.11-.9-1.85 1.55-3.68 3.1-5.49 4.68-.18.19-.05 1 .1.84zM391.25 142.24c-.64.29-1.21.76-1.82 1.11a20.27 20.27 0 01-2 .94c-.17.07-.09.82.06.77a8 8 0 003.84-2.17c.09-.1.12-.74-.08-.65zM387.73 148.05c1.66-1 3.43-1.78 5.08-2.77.15-.09.13-.85-.05-.82a14 14 0 00-5.14 2.7c-.18.14-.1 1.01.11.89zM388.79 151.58c2-1.42 4.1-2.61 6.15-3.93.18-.12.12-1-.1-.85a35.77 35.77 0 00-6.14 4c-.17.2-.06.89.09.78zM392 152.73c2.18-1.91 4.67-3.24 7-4.92.14-.1.09-.82-.05-.76-2.67 1-5 3.22-7 5.2-.15.1-.08.55.05.48zM396 153.71a17.3 17.3 0 012.45-2.39 33.08 33.08 0 002.86-2.07c.07-.08.13-.64-.05-.62-1.07.12-2.13 1.13-2.92 1.8a18.74 18.74 0 00-2.46 2.58c-.14.15.02.8.12.7zM399.6 154.29a20.88 20.88 0 012-2.13c.72-.68 1.54-1.24 2.25-1.93.15-.15.17-1.12-.13-1-1.7.8-3.13 2.58-4.27 4-.2.28.04 1.21.15 1.06zM403.37 155c1.48-1.63 3.17-3 4.68-4.65.11-.11.09-.8-.09-.69a25.11 25.11 0 00-4.68 4.59c-.15.14-.01.83.09.75zM408.05 154.46a36 36 0 014.41-4.58c.14-.12.07-.83-.08-.71a20.05 20.05 0 00-4.47 4.72c-.09.11-.01.76.14.57zM413 152.48c-.17.18 0 1 .11.85a39.27 39.27 0 004.25-4.6c.06-.08 0-.63-.09-.53a13.09 13.09 0 00-2.14 2.07zM419 152a17.93 17.93 0 003.65-3.68c0-.07 0-.57-.09-.48a20.88 20.88 0 00-1.75 1.77c-.61.59-1.24 1.16-1.89 1.7-.14.12-.02.78.08.69zM343.72 195.12a32.28 32.28 0 00-4.61 3c-.22.15-.42.3-.61.45a3.25 3.25 0 01.2.74c.7-.51 1.63-1 2-1.21a26.74 26.74 0 003.1-2.3c.12-.09.11-.8-.08-.68zM344.78 197.12a20.12 20.12 0 00-6.19 4.45c0 .23 0 .45-.07.68a33.12 33.12 0 016.32-4.63c.16-.06.06-.56-.06-.5zM345.4 199.11a32.43 32.43 0 00-7 5v.83c2.29-1.84 4.7-3.48 7.16-5.09.09-.11.02-.85-.16-.74zM346.46 201.27a30.1 30.1 0 00-8.22 5.95v.85a62.43 62.43 0 018.32-6.17c.11-.08.06-.7-.1-.63zM347.69 202a44.79 44.79 0 00-6.52 4.51 20.35 20.35 0 00-3 2.59v.71a21.93 21.93 0 014-3.17c1.85-1.35 3.76-2.6 5.6-4 .13-.04.08-.71-.08-.64zM347.29 205.44a44.27 44.27 0 00-8.93 6.91c-.15.14 0 .82.09.71a89.33 89.33 0 018.93-6.91c.15-.15.08-.8-.09-.71zM345.21 210.2a14.8 14.8 0 00-5.43 3.65c-.09.09 0 .58.06.51a19.7 19.7 0 015.39-3.23c.26-.13.1-.99-.02-.93zM347.75 211.58a21.82 21.82 0 00-7.73 4.84c-.09.08 0 .56.06.49a43 43 0 017.73-4.59c.19-.08.06-.79-.06-.74zM349.81 212.7a19.7 19.7 0 00-7.52 5.49c-.12.14 0 .82.08.71a27.27 27.27 0 017.55-5.22c.23-.1.14-1.09-.11-.98zM354.3 213.08a33 33 0 00-9 7.09c-.14.15 0 .79.08.7a51.28 51.28 0 019-7c.17-.13.1-.87-.08-.79zM358.69 213a22.36 22.36 0 00-7.66 6.81c-.11.16 0 .92.16.7a29.24 29.24 0 017.59-6.69c.22-.14.1-.95-.09-.82zM362.75 213.08c-3.28 1.08-5.79 4.09-7.47 7-.07.13 0 .7.12.53 1.82-3.11 4.47-5 7.4-6.9.11-.07.08-.71-.05-.63zM368.43 213.77a38.66 38.66 0 00-6.57 5c-.15.13 0 .77.08.68 2.1-1.83 4.37-3.42 6.55-5.15.1-.11.06-.59-.06-.53zM373.27 214.65a46.37 46.37 0 00-7 6.59c-.14.16 0 .83.09.73a60.45 60.45 0 017-6.48c.2-.15.07-.95-.09-.84zM380.56 212.05c.15-.12.07-.83-.09-.71a50.24 50.24 0 00-6.1 5.19c-1.13 1.12-2.29 2.13-2.22 3.82 0 .33.23.33.22 0-.06-1.73 2.76-3.52 3.94-4.57 1.42-1.25 2.84-2.48 4.25-3.73zM381.3 213.93c1.75-1.46 3.67-2.68 5.42-4.12.15-.13.12-.91-.1-.8a32.44 32.44 0 00-8.09 6.29c-1.37 1.35-2.82 2.59-2.39 4.61.09.43.29-.08.25-.29-.34-1.93 3.61-4.62 4.91-5.69zM388.15 212.18c.1-.1.06-.69-.08-.6a29.92 29.92 0 00-7.23 7.61c-.1.14 0 .81.15.61a67 67 0 017.16-7.62zM392.29 212.2c-3.59 2.18-6.56 5.92-9 9.31-.09.13 0 .71.13.53 2.6-3.56 5.75-6.21 8.91-9.22.15-.1.12-.71-.04-.62zM394.35 214c-2.59 1.58-4.68 4.37-6.29 6.89-.1.16 0 .86.16.64a40.78 40.78 0 016.22-6.84c.11-.11.09-.8-.09-.69zM399.49 213.68a18.39 18.39 0 00-6.15 6.37c-.09.15 0 .8.14.6a24.12 24.12 0 016.09-6.33c.13-.1.08-.73-.08-.64zM404 213.21a60.83 60.83 0 00-5 4.47 4 4 0 00-1.66 3.1c0 .46.3.46.29 0 0-1.43 2.15-2.74 3.1-3.58 1.15-1 2.33-2 3.4-3.14.07-.16.02-.99-.13-.85zM408.85 213.38c.06-.08.07-.55-.06-.47-2.86 1.8-5.25 5.1-7.2 7.81-.09.13 0 .73.13.54a47.92 47.92 0 013.51-4.29c1.16-1.24 2.5-2.32 3.62-3.59zM413.85 211.92a30.51 30.51 0 00-7.22 7.64c-.12.17 0 1 .19.74a50.84 50.84 0 017.13-7.61c.14-.13.05-.89-.1-.77zM418.77 211.15a32.56 32.56 0 00-7.4 6.85c-.13.16 0 .83.13.72a48.26 48.26 0 017.37-6.77c.13-.13.13-.95-.1-.8zM423.17 212a30.33 30.33 0 00-5.74 5.52c-.12.14 0 .74.11.64a40.2 40.2 0 015.71-5.51c.14-.12.05-.76-.08-.65zM428.05 211.66a37.92 37.92 0 00-7 7c-.09.12 0 .57.08.5a58.42 58.42 0 017-7c.07-.11.01-.57-.08-.5zM431.42 213.07c-1.93 2-3.82 4-5.72 6.08-.14.16 0 .82.09.72 1.91-2.06 3.83-4.1 5.71-6.18.11-.14.01-.69-.08-.62zM439.25 211.84a22.92 22.92 0 00-8.1 7.5c-.12.17 0 1 .18.75a36.4 36.4 0 018-7.68c.11-.08.08-.64-.08-.57zM439 215.65l-2.32 3c-.1.12 0 .68.12.51l2.32-3c.09-.11.01-.67-.12-.51zM448.13 210.69a31.46 31.46 0 00-4.52 3.62 13.35 13.35 0 00-3.27 3.88s0 .33.06.31c.7-.2 1.07-.79 1.57-1.3.65-.67 1.31-1.31 2-1.95 1.39-1.29 2.83-2.53 4.27-3.76.15-.14.08-.93-.11-.8zM453.4 210.28a17.93 17.93 0 00-7.27 7c-.1.16 0 .86.15.64a23.41 23.41 0 017.22-6.92c.16-.08.11-.82-.1-.72zM458.88 210.43c-3.07 2.14-6 4.67-7.5 8.15-.07.16.09.86.2.63 1.57-3.45 4.56-5.67 7.39-8 .15-.16.03-.89-.09-.78zM464 211.46c-2.42 1.77-4.35 4.57-6 7-.11.17 0 .94.17.71a92.65 92.65 0 015.91-7.32c.04-.03 0-.47-.08-.39zM467.73 214.71l-1.27 1.69c-.12.16 0 .93.16.71l1.27-1.69c.11-.16.01-.94-.16-.71zM307.58 21.47c1.53-.59 2.89-2.1 4.31-3a31.68 31.68 0 014.87-2.36c.23-.09.1-1-.07-1-3.2 1.11-7.31 3.06-9.16 6-.03.13-.05.4.05.36zM307.25 24.76c2.79-1.94 5.45-3.92 8.4-5.62.17-.1.12-.86-.1-.76a26.78 26.78 0 00-8.39 5.72c-.11.12-.08.77.09.66zM306.94 28a31.45 31.45 0 007.38-4.89c.11-.1.1-.74-.08-.64-2.53 1.41-5 3.15-7.4 4.74-.18.07-.12.85.1.79zM312.9 27.17a33.86 33.86 0 00-6.27 3.47c-.05 0-.06.33 0 .31a29.4 29.4 0 006.37-3.14c.13-.08.08-.72-.1-.64zM313.39 29.67c-2.14 1.06-4.46 2-6.51 3.24-.13.08-.11.7.05.66a21.48 21.48 0 006.57-3c.2-.16.13-1.01-.11-.9zM312.91 33c-1.85.93-3.68 1.89-5.52 2.82-.14.07-.09.65 0 .61a19.18 19.18 0 005.61-2.7c.17-.11.12-.88-.09-.73zM314.23 35.1c-1.08.46-2.09 1.08-3.12 1.64s-2.17 1-3.19 1.67c-.13.08-.1.71.05.67a21.34 21.34 0 006.35-3.25c.15-.11.13-.83-.09-.73zM309.45 40.92c-.11.12-.13.83.09.72.75-.4 1.44-.94 2.19-1.35s1.57-.82 2.35-1.25c.14-.08.11-.78-.06-.73a10 10 0 00-4.57 2.61zM315.29 40.9a51 51 0 01-6.3 3.5 6.44 6.44 0 01.36.63 23.48 23.48 0 006-3.34c.21-.13.12-.9-.06-.79zM315.39 45.16c.16-.1.14-.93-.06-.87a9.94 9.94 0 00-4.2 2.77c-.14.15-.09 1 .1.85.67-.48 1.29-1 2-1.45s1.46-.83 2.16-1.3zM317 46.66c.08-.11.07-.8-.13-.69a24 24 0 00-2.29 1.76c-.8.6-1.62 1.18-2.43 1.79-.12.1-.1.74.09.66a13.9 13.9 0 004.76-3.52zM316.89 49.35a10.27 10.27 0 00-3.52 3.32c-.06.09 0 .63.1.53a22 22 0 013.53-2.93c.22-.14.1-1.05-.11-.92zM318.36 52.4c.13-.09.13-.8-.05-.75a7.53 7.53 0 00-4.24 3.55c-.07.13 0 .82.13.69a16 16 0 011.86-1.89c.73-.61 1.54-1.06 2.3-1.6zM319.37 55.15c.09-.1.11-.71-.07-.61a8.1 8.1 0 00-2 1.67c-.63.63-1.22 1.29-1.79 2-.12.15 0 .73.08.64.57-.65 1.17-1.28 1.8-1.87s1.39-1.17 1.98-1.83zM317.13 61.08c.78-.59 1.5-1.25 2.25-1.88a19.82 19.82 0 002.38-2.2c.08-.09.1-.71-.07-.61a16 16 0 00-2.41 2c-.8.72-1.63 1.42-2.39 2.19a.58.58 0 00-.05.35zM325.17 61.19c.08-.09.07-.68-.07-.58a17.93 17.93 0 00-2.12 2l-2.12 2c-.11.1 0 .61.07.53a46.63 46.63 0 004.24-3.95zM326.76 64.85c.07-.07.09-.55-.06-.49a14.44 14.44 0 00-4.47 3.77c-.08.08 0 .54.06.46.72-.62 1.43-1.25 2.17-1.85a27.82 27.82 0 002.3-1.89zM330.24 70.24c.07-.08.09-.64-.05-.59-1.78.65-3.34 2.47-4.55 3.87-.15.18 0 .89.1.78a21.11 21.11 0 012.12-2.11c.78-.67 1.65-1.19 2.38-1.95zM330.93 72.4a38.25 38.25 0 01-4 3.18c-.21.14-.08 1 .11.89a23.94 23.94 0 004-3.18c.17-.17.04-1.03-.11-.89zM333.86 73.61a7.9 7.9 0 00-2.1 2 23.42 23.42 0 00-1.63 2.22c-.1.14 0 .8.14.6a22.57 22.57 0 011.89-2.37c.59-.64 1.27-1.21 1.8-1.91.04-.07.04-.62-.1-.54zM336.06 76.7c.17-.18 0-1-.11-.84a66.343 66.343 0 00-3.69 3.81c-.11.12 0 .74.08.63 1.29-1.13 2.52-2.36 3.72-3.6zM337.08 80c.09-.11 0-.78-.12-.66a21.13 21.13 0 00-3.32 3.43c-.06.08 0 .58.08.49a19.56 19.56 0 003.36-3.26zM340.1 91.58c.66-.42 1.3-.86 1.94-1.31A12.52 12.52 0 00344 88.8c.12-.13.16-.91-.1-.8a9.92 9.92 0 00-1.94 1.35c-.65.49-1.28 1-1.91 1.5-.19.15-.13.84.05.73zM343 94.08c.62-.65 1.25-1.31 1.9-1.93a19.49 19.49 0 001.85-1.78c.08-.09.07-.72-.12-.62a9 9 0 00-2 1.83c-.6.62-1.17 1.26-1.7 1.93-.18.12-.07.67.07.57zM345.07 96l1.93-2a12.24 12.24 0 001.75-1.92c0-.07.06-.55-.09-.47a8.7 8.7 0 00-1.86 1.73l-1.8 1.91c-.19.16 0 .87.07.75zM347.19 98.53a49.66 49.66 0 013.92-4.77c.09-.11.06-.72-.08-.61a19.81 19.81 0 00-4 4.86c-.03.13.04.69.16.52zM349.65 100.49a48 48 0 003.64-4.55c.08-.12 0-.84-.12-.7a41 41 0 00-3.67 4.61c-.12.15-.02.85.15.64zM352 102.67l1.84-2.08a14.22 14.22 0 001.64-2c.06-.08.06-.71-.11-.6a11.16 11.16 0 00-1.74 1.89l-1.73 2c-.16.19-.01.9.1.79zM354.12 105.22c.58-.89 1.19-1.77 1.85-2.61s1.47-1.63 2.07-2.54c0-.07 0-.56-.09-.47a10 10 0 00-2 2.23 33.88 33.88 0 00-2 2.78c-.08.15.05.83.17.61zM355.9 106.8l1.81-2.11a10.86 10.86 0 001.62-2s.06-.46-.08-.39c-.67.34-1.23 1.29-1.72 1.87l-1.71 2c-.14.12 0 .72.08.63zM358.18 108.39a22.66 22.66 0 004.1-5c.06-.11.05-.91-.13-.75a19 19 0 00-1.8 2.18c-.74.91-1.5 1.79-2.29 2.66-.19.18-.06 1.06.12.91zM361.3 110.13a48.26 48.26 0 004-4.62c.08-.11 0-.82-.12-.69a39.4 39.4 0 00-3.94 4.51c-.24.18-.05.92.06.8zM363.1 112.39l1.69-1.94a13.11 13.11 0 001.5-1.84c0-.08 0-.64-.09-.53a9.26 9.26 0 00-1.53 1.71l-1.68 2c-.11.13.01.69.11.6zM365.47 114.54c1.08-1.25 2.17-2.49 3.21-3.76.12-.14 0-.76-.12-.66-1.08 1.21-2.12 2.46-3.18 3.69-.15.19 0 .84.09.73zM368.43 116.82a39 39 0 003.2-3.84c.09-.13 0-1-.15-.79a30.71 30.71 0 00-3.23 3.68c-.17.21.05 1.13.18.95zM375.05 114.22c.1-.13 0-.8-.15-.61a28.91 28.91 0 01-3.94 4c-.15.12 0 .75.08.65a25.43 25.43 0 002.57-2.4c0 .14.08.26.16.22a103.79 103.79 0 009.5-4.89c.15-.09.07-.76 0-.72a85.23 85.23 0 00-8.78 4.47c.15-.27.37-.48.56-.72zM462.75 31.75c.85-1.28 1.64-2.59 2.39-3.93.08-.15 0-.81-.16-.59-.78 1.3-1.57 2.59-2.4 3.86a19.38 19.38 0 00-2.23 3.62c1.05-.42 1.79-2.05 2.4-2.96zM469 25.22a63.74 63.74 0 00-3.32 6.28c0 .11 0 .59.11.43 1.17-2.07 2.38-4.14 3.34-6.32.07-.09.01-.56-.13-.39zM472.91 23.84a36.59 36.59 0 00-3.61 5.65c0 .08 0 .51.1.37a37.93 37.93 0 003.6-5.59c.07-.09.05-.6-.09-.43zM477.43 20.86a89.66 89.66 0 00-4.77 8.08c0 .07 0 .42.09.31a85.5 85.5 0 004.84-7.78c.08-.15-.01-.84-.16-.61zM481.32 22.15c-1.52 2.11-3 4.25-4.5 6.35-.07.1 0 .54.1.4a43.9 43.9 0 004.55-6.2c.07-.13 0-.7-.15-.55zM484.16 23.82c-1.16 1.18-2.16 2.5-3.22 3.75-.1.12 0 .69.14.51 1.07-1.21 2.21-2.38 3.19-3.67.09-.12 0-.71-.11-.59zM488.35 24.13a48.78 48.78 0 00-3.44 4c-.08.09 0 .53.1.4a51.93 51.93 0 003.42-4c.06-.07.01-.48-.08-.4zM490.48 25.62a286.47 286.47 0 00-3.41 3.56c-.1.1 0 .56.06.48q1.74-1.66 3.45-3.36c.15-.15.01-.79-.1-.68zM492.3 27.44a48.12 48.12 0 00-3.17 3.81c-.09.13 0 .67.11.57a48.92 48.92 0 003.18-3.73c.1-.09 0-.77-.12-.65zM490.39 33.29c-.1.13 0 .74.12.62a22 22 0 003.49-4c0-.07.06-.59-.1-.5a8.57 8.57 0 00-1.69 1.76c-.62.67-1.21 1.38-1.82 2.12zM491.77 35.77c-.07.09 0 .62.1.52a18.64 18.64 0 002.66-3c.06-.09 0-.63-.1-.52a17 17 0 00-2.66 3zM494.45 36.58a9.43 9.43 0 00-2.69 3.77c0 .09 0 .5.12.36a33.59 33.59 0 012.65-3.7c.05-.07.05-.52-.08-.43zM493.71 39.24A12.14 12.14 0 00491 43c-.05.1 0 .56.11.41.8-1.31 1.82-2.39 2.72-3.61.05-.13.02-.66-.12-.56zM492.33 43c-.84 1-1.63 2.11-2.42 3.18-.06.09 0 .51.1.38.82-1 1.65-2.06 2.43-3.12.08-.14.01-.64-.11-.44zM492 47.42c-.83 1.12-1.6 2.29-2.38 3.45-.09.12 0 .66.12.49.81-1.14 1.62-2.28 2.38-3.45.11-.12.04-.67-.12-.49zM439.08 119.88c1.68-3.34 3.41-6.63 5.13-9.94.06-.13 0-.71-.14-.51-1 1.68-1.94 3.44-2.84 5.2-.62 1.21-2 3-2.06 4.37 0-.1-.09-.37-.14-.14l-.12.61c-.02.07.09.62.17.41zM442.4 116.22s0 .06 0 0c.78-.39 1.21-2 1.59-2.72.52-1 1-2.06 1.52-3.11.07-.15-.08-.81-.2-.58-.52 1-1 2-1.53 3.07a12.19 12.19 0 00-1.38 3.34zM445 114.87c1.25-2.67 2.5-5.37 3.56-8.11.05-.16 0-.81-.21-.48-1.29 2.68-2.4 5.49-3.49 8.26-.07.1.01.56.14.33zM448.37 112.74a63.51 63.51 0 013.73-8.34c.08-.15 0-.91-.17-.66a27.44 27.44 0 00-3.72 8.71c-.02.1.07.55.16.29zM451.87 110.39a85.52 85.52 0 003.32-8.13c0-.11-.07-.74-.18-.52a81.68 81.68 0 00-3.3 8.26c-.05.12.04.66.16.39zM455.32 107.74c1.16-2.46 2.51-4.9 3.46-7.45 0-.07 0-.48-.11-.34-1.38 2.33-2.38 5-3.52 7.4-.06.13.05.65.17.39zM459.82 104a65.06 65.06 0 012.68-7.59c.05-.12-.06-.78-.19-.55a30 30 0 00-2.71 7.83c-.04.17.12.69.22.31zM465.82 94.33a10.48 10.48 0 00-1.65 5.24c0 .12.09.28.11.07a12.51 12.51 0 011.67-4.8c.05-.12.05-.7-.13-.51zM451.56 17.88c.21-.06.17-.87 0-.85-3.81.55-7.58 1.31-11.39 1.83-.23 0-.19.88 0 .87a57.71 57.71 0 0011.39-1.85zM451 20.48a73.75 73.75 0 00-10.32 1.59c-.22 0-.17.81 0 .79A76.42 76.42 0 00451 21.18c.19-.04.17-.71 0-.7zM442 26c2.57-.39 5.15-.74 7.69-1.26.19 0 .15-.77 0-.75-2.58.31-5.13.79-7.69 1.23-.22.05-.16.78 0 .78zM441 29.7a81.12 81.12 0 008.77-1.5c.16 0 .14-.68 0-.67a76.93 76.93 0 00-8.77 1.4c-.27.07-.22.79 0 .77zM442.55 33.47c2-.33 4.07-.64 6.09-1.06.21 0 .16-.84 0-.81-2 .29-4.06.69-6.09 1.07-.24.05-.18.83 0 .8zM447.84 35.6l-2.39.52c-.23.06-.15.87 0 .84l2.39-.54c.24-.05.16-.85 0-.82zM444.68 40.43c1.41-.25 2.84-.47 4.24-.81.22 0 .17-.89 0-.86-1.42.19-2.83.5-4.24.78-.27.05-.19.93 0 .89zM444.41 44.72h2.92c.22 0 .21-.9 0-.91-1-.05-1.94-.05-2.91 0-.27-.08-.26.91-.01.91zM421 163.05a30 30 0 003.23-.82c.22-.07.13-.91 0-.87-1.06.26-2.14.5-3.22.72s-2.13.13-2.83.86a.14.14 0 000 .15c.82.57 1.92.14 2.82-.04zM419.69 167.08c2.35-.59 4.67-1.62 7-2.38.18-.06.12-.77 0-.74a24.16 24.16 0 00-7 2.45c-.17.08-.13.71 0 .67zM426.37 167c-1.43.53-2.91 1-4.29 1.66-.13.06-.08.69.05.66 1.44-.36 2.85-.94 4.26-1.43.24-.09.1-.95-.02-.89zM425.33 171.33a13.27 13.27 0 004-1.67c.12-.08 0-.69 0-.65a31.24 31.24 0 01-4 1.41c-.26.06-.16.95 0 .91zM429.53 174.19a4.91 4.91 0 013-1.56c.17 0 .15-.75 0-.76a3.74 3.74 0 00-3 1.42c-.27.2-.09 1 0 .9zM436.48 175.7c.13 0 .09-.69 0-.67a2.47 2.47 0 00-1.62 1c-.18.21 0 1 .1.91a4 4 0 011.52-1.24zM323.65 70.05c1.43-1 2.87-2.08 4.23-3.23.11-.1.06-.65-.07-.56-1.47 1-2.86 2-4.25 3.13-.15.11-.05.77.09.66zM318.48 62.75a35 35 0 003.29-3.27c.17-.17 0-.92-.1-.8a45 45 0 00-3.3 3.46c-.08.1 0 .72.11.61zM335.91 87.37a9.21 9.21 0 014.16-4.25c.19-.1.07-.89-.06-.83a7 7 0 00-4.25 4.58c0 .08 0 .71.15.5zM338.18 89c-.15-.15 2.74-2.75 3-3s.06-.92-.1-.79c-.6.47-1.2.93-1.77 1.44a5.61 5.61 0 00-1.24 1.24c-.28.47-.51 1.42.08 1.74.17.1.15-.54.05-.64z"/><path class="cls-1" d="M655.17 227.45a163.94 163.94 0 0123.93-.26c14.73.61 29.47-.2 44.19-.69 16.07-.53 36.13 5.14 53.42 3.07 2.91-.79 5.78-1.67 8.6-2.7 6.12-3 11.21-7.49 13.76-14.25-1.12-8-7.8-15-17.57-11.5-10.79 3.88-25.29.56-36.46-1.09-21.52-3.18-42.3 3.57-63.85 1.05-11.12-1.31-22.25-3.42-33.5-2.88-4.77.23-10.43 2.27-15.09 1.71-3.9-.48-3.87-1-6.24-4.95-5.38-9-5.68-16.12-3.78-26.23 1.94-10.29 3.34-20.33-.33-30.4-6.39-17.55-34.67-10-28.2 7.77 3.83 10.51-2 22-2.22 32.87-.23 11.41 4.1 22.66 10.14 32.19 6.48 10.22 15 17.28 27.5 18 5.48.33 10.92-1.23 16.36-1.64a78.67 78.67 0 019.34-.07zM612.11 53.94l34.78-9.26 25.68 24.14-33.31 10.76-27.15-25.64zM699 26.53l9.69-2.53a11.07 11.07 0 0110.42 2.63l7.56 7.11a11.06 11.06 0 01-4.18 18.58l-9.26 3a11 11 0 01-11-2.49l-8-7.52A11.06 11.06 0 01699 26.53zM751 25.27L774.6 19c6.11-1.62 7 2.61 11.63 7l3.93 10.84c1.32 10.72-.21 9.43-7.26 11.71l-5.66 2.65a.8.8 0 01-.78-.18L750.67 26.6a.79.79 0 01.33-1.33zM667.85 91.58l-35.98-.4-18.93 29.74 34.94 2.2 19.97-31.54zM736.15 91.42l-35.98-.39-18.93 29.73 34.93 2.21 19.98-31.55zM759.64 121.48l24.4.27c6.33.07 6.17-4.26 9.57-9.6l1.13-11.48c-1.37-10.71-2.53-9.09-9.92-9.55L778.67 90a.77.77 0 00-.7.36l-19 30a.78.78 0 00.67 1.12z"/><path class="cls-2" d="M791.85 88.24h-191.3c-.84 0-1 1.69-1 2.19v91.84c0 13.13-1.34 28.68 12.84 35.29 10.8 5 19.42 4.27 31 4.27h110.53c9.37 0 21.55 1.74 30.36-2.22 14.72-6.63 14.85-21.44 14.85-35.1v-61.58c0-8.47 4.58-32.3-7.28-34.69-1.15-.23-1.46 4.09 0 4.39 6.9 1.39 5.35 7.89 5.35 12.73v72.89c0 16.09 1 36.44-20.51 39.05-7.65.94-15.79.15-23.47.15H652.15c-8.77 0-18.48 1.18-27.19 0-12.47-1.7-22.19-9.4-23.44-22.34-.37-3.76 0-7.74 0-11.52V90.43l-1 2.2h191.3c1.39 0 1.4-4.39.03-4.39z"/><path class="cls-2" d="M775.76 10.62L695.82 32c-31 8.28-62.86 15.19-93.46 25-15.23 4.86-5.45 24.09-2.64 34.62.07.26.37 1.21.83 1.09l166.83-44.63 24.1-6.43c1.17-.32 1.07-2.42.83-3.3-2.46-9.23-3.32-29.07-16.55-27.73-1.41.14-1.28 4.51 0 4.39 11.27-1.15 12.77 17.62 14.88 25.55l.84-3.3-168.74 45.06-15.26 4.07c-1.57.42-5.14 2.16-6.77 1.81-.15 0 1.47 1.66.34-.13-.77-1.21-.88-3.29-1.25-4.67-1.1-4.14-3.15-8.85-3.5-13.12-.57-7 3.32-8.14 8.23-9.55 29-8.33 58.38-15.59 87.55-23.38L775.76 15c1.45-.38 1.09-4.67 0-4.38z"/><path class="cls-2" d="M635 79.47l-24.9-24.19c-1.32-1.28-1.88 2.91-1 3.78l24.89 24.19c1.32 1.28 1.88-2.91 1-3.78zM670.07 70.11l-24.9-24.19c-1.31-1.28-1.88 2.91-1 3.79l24.92 24.19c1.32 1.27 1.88-2.91 1-3.79zM705.11 60.75l-24.9-24.19c-1.31-1.28-1.87 2.91-1 3.79l24.89 24.19c1.32 1.28 1.88-2.91 1-3.79zM740.15 51.4l-24.9-24.19c-1.31-1.28-1.87 2.91-1 3.78l24.89 24.19c1.32 1.28 1.88-2.91 1-3.78zM775.19 42l-24.9-24.19c-1.31-1.28-1.87 2.91-1 3.79l24.9 24.19c1.31 1.27 1.87-2.91 1-3.79zM618.57 122.26l18-29.7c.64-1-.12-5.19-1-3.79l-18 29.7c-.64 1 .12 5.19 1 3.79zM653.51 122.26l18-29.7c.63-1-.12-5.19-1-3.79l-18 29.7c-.63 1 .13 5.19 1 3.79zM688.44 122.26l18-29.7c.64-1-.12-5.19-1-3.79l-18 29.7c-.64 1 .12 5.19 1 3.79zM723.38 122.26l18-29.7c.63-1-.12-5.19-1-3.79l-18 29.7c-.63 1 .13 5.19 1 3.79zM758.31 122.26l18-29.7c.64-1-.12-5.19-1-3.79l-18 29.7c-.64 1 .12 5.19 1 3.79z"/><path class="cls-2" d="M602.2 122.66h196c1.35 0 1.36-4.38 0-4.38h-196c-1.36 0-1.37 4.38 0 4.38zM617.6 55.46a74.053 74.053 0 00-3.36 6.43 4.47 4.47 0 00.41.35c1.25-2.46 2.62-4.83 4.08-7.16zM620.75 54.41a84.94 84.94 0 00-4.53 8.59l.2.06c.14 0 .25.09.38.13C618.4 60 620.13 57 622 54zM624.34 52.74a7.24 7.24 0 01-1.08.72 77.51 77.51 0 00-5.14 10.27c.18.12.34.25.5.38 1.89-3.93 4-7.73 6.22-11.53zM626.08 52.2c-2.24 4.25-4.41 8.53-6.59 12.8a4 4 0 01.27.44c2.36-4.48 4.73-8.94 7-13.45zM630.31 51a145.14 145.14 0 00-9.59 17.2l.34.36c3.08-6.06 6.52-11.88 10.11-17.67zM632.44 50.71c-3.44 6-6.52 12.28-9.58 18.44-.07.15 0 .7.19.42 3.27-6.46 6.86-12.72 10.36-19zM635.63 50.05l-.48.11C631.23 57 627.63 64 624.09 71l.36.33c3.64-7 7.44-13.9 11.16-20.86a1 1 0 00.02-.42zM637.79 49.51a235 235 0 00-11.95 23.12l.3.29c3.83-8 8.09-15.8 12.38-23.6zM640.56 48.75a205.23 205.23 0 00-12.84 25.8l.3.33a248.11 248.11 0 0113.24-26.32zM644.32 47.7a127.43 127.43 0 00-14.91 28.84l.27.37a143.3 143.3 0 0115.44-29.42zM646.28 48.17c-6.16 9.61-10.95 20.35-15.1 31l.28.44c4.32-10.74 9.68-20.8 15.18-31zM648.34 50.44l-.33-.32a262.75 262.75 0 00-14.12 29.63l.43.14c4.28-10 9.06-19.7 14-29.4.02-.01.01-.04.02-.05zM650.27 53.3a276.67 276.67 0 00-12.15 25.79l.46-.19q5.35-12.74 11.87-24.9c.1-.21-.05-.94-.18-.7zM653.08 54.59c-3.65 7.32-6.84 14.87-9.8 22.49l.51-.18c3-7.45 6.25-14.75 9.63-22zM655.12 56.85c-3 6.34-5.81 12.76-8.66 19.16l.61-.19c2.79-6.15 5.6-12.29 8.26-18.5.06-.16-.06-.79-.21-.47zM657.86 58.85c-2.69 5.23-5.12 10.6-7.45 16l.57-.16c2.31-5.21 4.75-10.35 7.21-15.49zM659.34 60.43c-1.87 4.58-3.84 9.1-5.88 13.6l.61-.15c2-4.32 3.85-8.68 5.6-13.1zM661.27 62.59c-1.48 3.46-2.83 7-4.11 10.54l.56-.14c1.29-3.34 2.6-6.66 3.92-10zM660.16 72.43l.48-.1q1.61-3.36 3.23-6.72a4.23 4.23 0 01-.24-.4c-1.16 2.4-2.31 4.79-3.47 7.22zM684.4 36.16q-1 2.33-1.88 4.69c.11.11.22.23.32.35a98.95 98.95 0 012.24-5.19zM688.14 35.24c-1.31 2.73-2.54 5.48-3.66 8.29l.26.33c1.21-3 2.54-5.88 4-8.76zM691 34.5q-2.57 5.58-4.78 11.31l.24.27c1.56-4 3.24-7.85 5-11.71zM693 34c-2 4.35-3.84 8.79-5.51 13.28l.3.36c1.83-4.69 3.85-9.29 6-13.84zM690.74 44.5c1.8-3.78 3.62-7.55 5.42-11.32l-.47.12q-2.55 5.41-5.11 10.83c-.06.13.04.63.16.37zM698 32.7c-2.86 5.8-5.46 11.71-7.75 17.75l.25.27c2.39-6.19 5.1-12.23 8.07-18.16zM701.31 31.86a205.33 205.33 0 00-8.79 20.88l.27.26c2.75-7.31 6-14.39 9.4-21.37zM703.88 31.2a221.56 221.56 0 00-9.35 23.43l.27.23c2.9-8.17 6.31-16 10-23.88zM707.87 30.22l-4.44 10.11-7 16 .27.23q5.87-13.21 11.67-26.45zM710.5 29.56a296.67 296.67 0 00-12 28.57l.23.21c3.71-9.87 8-19.45 12.52-28.95zM715.11 28.43l-.23.05a185.82 185.82 0 00-13.67 32.16l.28.27a242.7 242.7 0 0114-32.14zM716.7 30c-5 10.63-9.4 21.57-13.54 32.56l.22.21c4.18-11 8.85-21.74 13.62-32.48zM718.71 31.92c-3.84 8.84-7.6 17.71-11.39 26.56-.06.14.06.66.17.39C711.33 50 715.21 41.1 719 32.19zM720.65 33.77c-2.81 6.42-5.44 12.93-8 19.47-.06.16.08.75.2.44 2.55-6.6 5.29-13.12 8.08-19.62zM723 35.93q-5.26 12.74-9.9 25.74l.34-.17c3.1-8.51 6.42-16.92 9.87-25.28-.11-.1-.21-.22-.31-.29zM725.71 38.32c-3.37 7.14-6.28 14.59-9 22l.52-.14c2.84-7.24 5.92-14.35 9-21.51zM728.17 40.2c-2.84 6.2-5.36 12.58-7.65 19l.51-.15c2.34-6.26 4.89-12.43 7.5-18.59zM730.41 41.94a329.92 329.92 0 00-6.42 16.3l.53-.15c2-5.3 4.15-10.55 6.32-15.79zM732 43.33q-3.16 7.11-6 14.35l.34-.1c1.91-4.7 3.93-9.35 6-14zM734.79 46.36c-1.4 3.37-2.81 6.74-4.27 10.09l.35-.09q2.13-4.83 4.13-9.72c-.08-.1-.15-.19-.21-.28zM734 55.74l.39-.05c.8-1.92 1.59-3.85 2.35-5.78l-.25-.33c-.79 2.05-1.6 4.11-2.49 6.16zM758.38 16.57c-1.34 2.66-2.71 5.31-4.07 8l.19.22c1.47-2.78 2.94-5.56 4.37-8.37zM759.85 16c-1.67 3.14-3.16 6.39-4.51 9.68l.31.36q2.26-5.31 5-10.35zM762.92 15A115.42 115.42 0 00757 27.61l.29.34a136 136 0 016.55-13.26zM765.7 14.12c-2.68 4.92-5.07 10-7.26 15.17l.27.3c2.34-5.35 4.95-10.55 7.75-15.67zM768.33 13.49a175.63 175.63 0 00-8.33 17.6c.11.11.21.23.31.35 2.6-6.2 5.53-12.22 8.73-18.12zM771.17 12.92a134.2 134.2 0 00-9.46 19.16 3.49 3.49 0 01.34.15 145.87 145.87 0 019.81-19.41c-.22.02-.46.06-.69.1zM772.59 12.72a115.3 115.3 0 00-9 20.78l.11.11.19.23a141.36 141.36 0 019.84-21.17c-.38.01-.73.01-1.14.05zM774.56 12.63a138.42 138.42 0 00-10 22.08l.3.36A185.19 185.19 0 01775.6 12.7c-.34-.03-.68-.06-1.04-.07zM776.88 12.83a124.76 124.76 0 00-10.72 23.73l.25.27a130.38 130.38 0 0111-23.9zM769.13 34.82c3.19-7.26 6.7-14.35 10.45-21.32l-.46-.15Q773.56 23.6 768.9 34.3c-.08.18.1.88.23.52zM781 14.05a170.29 170.29 0 00-12 25.58l.24.25a218.08 218.08 0 0112.24-25.63zM772.22 36.68a212.84 212.84 0 0110.3-21.94l-.45-.24a187 187 0 00-10 21.77c-.07.14.04.73.15.41zM784.3 15.68c-4.45 8.76-8.49 17.75-12.43 26.75.11.11.21.19.32.29 4-9 8.31-17.89 12.51-26.81zM786.23 20.09c-4 7.88-7.53 16.11-10.77 24.32h.43c3.26-7.85 6.87-15.49 10.62-23.08-.1-.42-.18-.83-.28-1.24zM787.44 24.43c-3.18 6.32-6.06 12.79-8.75 19.33l.56-.16c2.64-6.2 5.5-12.27 8.5-18.3-.11-.3-.21-.58-.31-.87zM788.93 28.31c-2.22 4.76-4.34 9.58-6.4 14.42l.37-.09q3-6.95 6.25-13.8c-.08-.17-.15-.36-.22-.53zM789.92 30.42c-1.9 3.9-3.67 7.85-5.39 11.83l.5-.1c1.65-3.77 3.35-7.51 5.13-11.22zM785.78 17.88a265.4 265.4 0 00-12 26.06 2.43 2.43 0 00.28.14q5.29-13 11.83-25.42c-.02-.26-.06-.52-.11-.78z"/><path class="cls-2" d="M622 111.46a90.41 90.41 0 003.62 9.6h.78a79.22 79.22 0 00-4.2-9.82zM623.45 109.54c1.75 3.87 3.69 7.68 5.66 11.44h.46c-1.87-3.95-3.78-7.93-5.88-11.77zM625.49 106.69q3.33 7.14 6.44 14.38h.48c-2-5-4.3-9.9-6.7-14.73zM626.7 105a143.69 143.69 0 018.78 16.36h.43a131 131 0 00-9-16.58zM628.84 102c3 6.41 5.92 12.84 9 19.19h.62c-3-6.55-6.21-13-9.35-19.53zM630.8 99.5c4 7.08 7.64 14.29 11.43 21.46h.52c-3.45-7.46-7.48-14.7-11.62-21.82zM633.42 95.76c4.33 8.2 8.28 16.56 12 25.08h.43a273.6 273.6 0 00-12.25-25.49c-.08.13-.14.27-.18.41zM635.85 92.3c4.56 9.51 9.1 19 13.78 28.49h.5c-4.58-9.73-9.32-19.4-14-29.08a5.86 5.86 0 01-.28.59zM638.18 90c6.17 9.33 9.63 20.22 15.65 29.63l.36-.56c-5.61-9.4-9.35-19.89-15.37-29-.22-.01-.43-.07-.64-.07zM644.22 89.8c4.52 8 8.91 16.15 13.33 24.24l.4-.58c-4.26-8-8.73-15.86-13.22-23.71zM649.24 89.53q5.38 10.62 10.47 21.38l.3-.43c-3.31-7.06-6.79-14-10.37-21zM654.37 89.54q4.46 8.22 8.57 16.61l.29-.43c-2.64-5.46-5.46-10.84-8.36-16.17zM661.39 93.39c1.38 2.88 2.78 5.75 4.17 8.63.09-.13.17-.27.26-.41-1.41-2.92-2.8-5.85-4.21-8.77-.18-.37-.32.35-.22.55zM665.82 92c-.13-.32-.26.3-.19.47l2 4.82c.14.32.27-.31.2-.48zM691.94 112.87q1.24 4.08 2.57 8.13h.5c-.91-2.81-1.83-5.62-2.73-8.43zM694.14 110.22c1.33 3.52 2.67 7 4 10.56h.46q-2.08-5.49-4.21-11c-.07.22-.16.31-.25.44zM696.08 107.22q2.55 6.86 5.22 13.66h.47c-1.83-4.7-3.66-9.4-5.45-14.11zM697.88 104c2.18 5.69 4.37 11.38 6.63 17h.64c-2.29-5.87-4.65-11.71-7-17.55-.1.18-.15.34-.27.55zM699.53 100.71c2.73 6.77 5.45 13.56 8.38 20.24h.91c-2.84-7-5.93-13.9-9-20.81zM701.21 97.5c3.15 7.87 6.53 15.67 10.27 23.28h.61c-3.7-7.83-7.3-15.69-10.64-23.69zM703.41 93.84c3.52 9 7.16 18 11 26.79h.56c-3.88-9-7.69-18-11.34-27.11a4.08 4.08 0 00-.22.32zM706 91c4.08 9.89 8.1 19.8 12.31 29.64h.51c-4.07-10-8.32-19.94-12.52-29.89zM708.18 89.75c4.3 10.36 8.54 20.76 13 31.07l.68.09c-4.37-10.47-8.86-20.91-13.33-31.29zM712 89.07c3.79 10.18 7.85 20.29 12.36 30.18l.33-.58c-4.31-9.77-8.47-19.6-12.25-29.6zM715.42 89.25q5.05 13.66 10.55 27.15c.08-.15.17-.3.26-.45-3.6-8.85-7.12-17.72-10.46-26.66zM718.85 89.61c2.93 7.7 6 15.4 9.38 23l.45-.72q-4.63-11.11-9.39-22.19zM722.29 89.93c2.85 6.26 5.53 12.58 8.27 18.87l.47-.74c-2.57-6.1-5.36-12.12-8.21-18.08zM728 90.44h-.53c1.77 2.78 2.81 6.49 3.92 9.17.66 1.6 1.29 3.21 1.93 4.82l.28-.46q-1.29-3.3-2.67-6.56a65.89 65.89 0 00-2.93-6.97zM731.71 90.72c1.29 3.27 2.62 6.53 4 9.75.12-.19.23-.38.34-.57-1.3-3.05-2.6-6.09-3.88-9.15zM735.58 91c.81 2 1.56 4.07 2.28 6.13.09-.11.16-.24.25-.34-.68-1.94-1.38-3.86-2.14-5.77zM760.7 113.52c.74 2.31 1.52 4.6 2.33 6.89h.45q-1.28-3.66-2.48-7.33zM762.77 110.63q1.71 5.13 3.65 10.18l.54.09q-2-5.34-3.88-10.73zM765.43 106.66q2.16 7.5 4.39 15c.13 0 .28.09.41.15q-2.23-7.81-4.55-15.54zM767.64 103.23c1.72 6.12 3.46 12.23 5.27 18.32l.55-.06c-1.62-6.35-3.46-12.65-5.39-18.93-.14.23-.29.44-.43.67zM769.54 100.29q2.69 10.59 6 21h.43c-2.22-7.08-4.31-14.2-6.2-21.37-.06.08-.15.23-.23.37zM771.64 97.07q3.63 12.21 7.87 24.23h.37c-2.82-8.15-5.52-16.34-8-24.59zM774.09 93.51c2.86 9.43 5.89 18.85 9.37 28.05h.6c-3.21-9.53-6.54-19-9.65-28.57-.11.2-.21.36-.32.52zM776.29 90.66c3.54 10.36 6.88 20.81 10.52 31.13h.82c-3.36-10.61-7.22-21.11-11-31.57zM778.64 90.29v.08c3.51 10.55 7.12 21.12 11.1 31.53h.61c-3.88-10.49-7.78-21-11.36-31.58-.12 0-.24-.02-.35-.03zM781.37 90.46c4 10.32 7.44 20.81 10.45 31.45h.36a315 315 0 00-10.4-31.43zM784.35 90.56c3.5 10.33 6.79 20.72 10 31.14l.37-.06c-3.13-10.43-6.54-20.78-10.07-31.07zM787.45 90.7c2.9 10.16 5.95 20.31 9.39 30.3.14-.07.28-.16.41-.24-3.2-10-6.41-20-9.39-30zM790.88 90.79h-.3q4.11 13.84 8.3 27.65a4.87 4.87 0 00.13-.72c-2.67-8.99-5.4-17.96-8.13-26.93zM798.49 106.55q-2.13-7.87-4.28-15.74h-.26q2.22 8.2 4.44 16.41c.02-.22.06-.46.1-.67zM610.17 126a111.74 111.74 0 00-10.1 5.91 7.53 7.53 0 01.1 1c3.28-2.18 6.61-4.28 10.08-6.24.15-.11.08-.77-.08-.67zM608.61 130.91q-4.2 2.35-8.36 4.77v.73c2.81-1.61 5.62-3.22 8.42-4.87.16-.08.09-.71-.06-.63zM610.6 133.65c-3.5 1.69-6.92 3.56-10.24 5.57v.68q5-3 10.28-5.62c.18-.08.11-.71-.04-.63zM613.17 136.21a70.56 70.56 0 00-12.61 7.25c0 .3 0 .61.05.92a112.5 112.5 0 0112.65-7.44c.16-.08.1-.81-.09-.73zM611.94 140.2a78.87 78.87 0 00-11.16 7c0 .28 0 .57.05.85 3.64-2.55 7.39-5 11.16-7.42.1-.04.06-.49-.05-.43zM609.24 143.74a74.09 74.09 0 00-8.36 5.37l.06.95c2.75-1.95 5.55-3.85 8.37-5.76.12-.08.07-.63-.07-.56zM609.71 147.56a63.65 63.65 0 00-8.65 4.83c0 .29 0 .58.05.87a88.15 88.15 0 018.69-5c.2-.06.09-.78-.09-.7zM610.55 150.61a86.17 86.17 0 00-9.31 5.5v.7q4.53-3 9.34-5.69c.15-.07.1-.57-.03-.51zM608.45 154.39c-2.43 1.46-4.77 3.06-7.08 4.71v.9c2.35-1.67 4.73-3.29 7.15-4.89.18-.11.09-.82-.07-.72zM611 154.94c-3.3 1.9-6.49 4-9.62 6.27v.94c3.2-2.23 6.44-4.43 9.67-6.66.17-.08.11-.63-.05-.55zM611 159.6c-3.28 1.85-6.46 3.89-9.55 6.05v.8c3.17-2.17 6.38-4.27 9.64-6.33.1-.12.04-.59-.09-.52zM611.06 161.87a109.9 109.9 0 00-9.66 6v.68c3.19-2.18 6.44-4.29 9.71-6.38.07 0 .03-.34-.05-.3zM610.21 164.7a39.22 39.22 0 00-8.84 5l-.06 1.08c2.84-2 5.83-3.72 8.94-5.46.13-.09.06-.66-.04-.62zM611.88 166.44c-3.67 2.43-7.24 5-10.8 7.58 0 .26 0 .51-.06.77 3.68-2.58 7.35-5.18 10.91-7.9.07-.07.07-.51-.05-.45zM613.57 168.1c-4.3 2.83-8.45 5.92-12.54 9.08v.58c4.17-3.09 8.41-6.07 12.61-9.12.11-.09.05-.64-.07-.54zM611 173.61c-3.44 2-6.69 4.43-10 6.79v.73c3.4-2.28 6.84-4.53 10-7.09.11-.04.08-.49 0-.43zM611.42 175.69a95 95 0 00-10.42 7.54v.87c3.43-2.67 6.94-5.23 10.46-7.82.16-.09.09-.67-.04-.59zM611 180c-3.42 2.5-6.79 5.08-10.17 7.63a2.5 2.5 0 01-.07.26c0 .15 0 .3.11.26 3.41-2.55 6.83-5.07 10.19-7.67.1-.09.03-.56-.06-.48zM613.07 182.45c-4.54 3.2-8.92 6.66-13.3 10.1V193.38c4.52-3.4 9.07-6.78 13.41-10.39.07-.09 0-.61-.11-.54zM601.69 194.91c-.11.1 0 .59.07.52 4-3.09 8.09-6.09 12-9.35.07-.06 0-.42-.05-.37-4.15 2.9-8.05 6.12-12.02 9.2zM603 197.45c-.12.1 0 .61.06.54 3.13-2.69 6.32-5.31 9.34-8.11.1-.1 0-.58-.06-.51-3.24 2.63-6.28 5.37-9.34 8.08zM614.88 191.07c-4.65 3.07-9.12 6.41-13.48 9.89a4.72 4.72 0 01.48.41c4.3-3.31 8.68-6.5 13.08-9.68.14-.1.04-.69-.08-.62zM603.92 208.62c3.56-3.11 7.24-6.07 11-9 .1-.08 0-.53 0-.46a97.9 97.9 0 00-11.28 9c.04.11.17.28.28.46zM605.37 210.58c3.86-3.29 7.92-6.24 12-9.3.13-.09.08-.7-.08-.62a65.59 65.59 0 00-12.41 9.34c.12.2.32.4.49.58zM609.42 213.8c3.68-3 7.36-6 11-9.1.11-.09 0-.56-.06-.49-3.83 3-7.61 6.17-11.39 9.29.14.1.29.21.45.3zM612.74 215.48c3.54-3 7.1-6.06 10.52-9.23.09-.08 0-.55-.06-.47a143.28 143.28 0 00-11.2 9.38zM617.18 217.17c3.35-2.87 6.71-5.72 10-8.69.1-.1 0-.6-.06-.52-3.6 2.9-7.08 6-10.58 9zM632.16 209.17a128.13 128.13 0 00-10.69 9.48l.68.24q4.9-4.69 10.08-9.15c.12-.1.04-.66-.07-.57zM639.05 209.76a77.66 77.66 0 00-12.74 10.58.36.36 0 000 .23l.33.16a157.13 157.13 0 0112.52-10.51c.05-.08 0-.53-.11-.46zM632.52 221a178.33 178.33 0 0114.25-12.45c.11-.09 0-.6-.06-.53a102.93 102.93 0 00-14.85 13zM638.27 221.13c3.89-3.82 7.9-7.5 11.92-11.24.12-.1 0-.69-.07-.6a106.7 106.7 0 00-12.77 11.78zM644.53 221.47a119.1 119.1 0 0112.74-11.73c.15-.12.05-.8-.09-.7a95.4 95.4 0 00-13.44 12.44zM651 220.65q4.57-4.44 9.34-8.68c.15-.13 0-.76-.08-.67-3.57 3.12-7 6.38-10.36 9.72a6.46 6.46 0 011.1-.37zM657.45 220.38c3.41-3.34 6.93-6.58 10.48-9.81.1-.1 0-.59-.07-.52a127 127 0 00-11.21 10.32zM663.4 220c3.91-3.59 8-7 12.25-10.24.11-.09 0-.59-.07-.52a115.54 115.54 0 00-13 10.85c.31.02.56-.03.82-.09zM670 219.89c4-3.71 8-7.26 12-10.95.08-.07 0-.47 0-.41a93.58 93.58 0 00-13 11.34zM675.79 220.28c3.65-3.36 7.35-6.67 10.76-10.24.07-.08.05-.56-.06-.48a86.3 86.3 0 00-11.85 10.62zM681.53 220.89c2.77-2.77 5.53-5.54 8.25-8.36.13-.14 0-.76-.08-.67-3 2.95-5.92 5.95-8.85 9zM685.74 221.23c4.09-4 8.43-7.73 12.8-11.55.08-.06 0-.47 0-.41a81.29 81.29 0 00-13.48 12zM692.8 221.05c3.39-3.25 6.91-6.36 10.51-9.39.17-.14.05-.89-.09-.77A126.11 126.11 0 00692.06 221zM711.74 211.07c-3.32 2.59-6.53 5.31-9.78 8-.13.1 0 .65.07.57 3.27-2.7 6.57-5.37 9.77-8.16.08-.07.02-.48-.06-.41zM706.45 220.52c3.58-2.88 7.19-5.77 10.55-8.89.08-.08 0-.52 0-.45-4 2.93-7.8 6.22-11.6 9.45zM713.46 219.88c3.58-3.18 7.15-6.37 10.64-9.64.12-.1 0-.61-.06-.53-3.83 3.31-7.58 6.71-11.32 10.12a6 6 0 01.74.05zM718 220.23c3.05-2.88 6.21-5.62 9.43-8.36.09-.09 0-.55-.06-.48a82.84 82.84 0 00-10.12 8.82zM722.56 220.55c3.12-3.14 6.37-6.13 9.63-9.14v-.24a108.11 108.11 0 00-10 9.34zM726.92 221.1c3.21-3.15 6.4-6.3 9.51-9.53.13-.13 0-.73-.08-.64-3.45 3.29-6.82 6.68-10.18 10.07zM733.64 221c4-3.39 8-6.63 12.13-9.94.11-.1.06-.66-.07-.58a94.84 94.84 0 00-13.29 10.57zM739.15 221.15c3.75-3.39 7.56-6.69 11.29-10.1.09-.09 0-.54-.05-.47a135.63 135.63 0 00-12 10.51zM746.09 220.39c4-3.34 8-6.76 11.73-10.46.09-.09 0-.53-.06-.46-4.15 3.65-8.21 7.38-12.43 10.93zM756.43 215.76c2.83-2.69 5.69-5.35 8.5-8.06.1-.1 0-.56-.06-.49-2.86 2.67-5.67 5.39-8.5 8.09-.09.1-.01.52.06.46zM757.41 221.28c3.66-3.65 7.33-7.29 10.92-11 .11-.11 0-.64-.07-.56-3.91 3.79-7.74 7.65-11.58 11.51zM764.67 221.18c3.87-3.69 7.92-7.14 12.07-10.58.12-.1 0-.68-.07-.59a105 105 0 00-12.83 11.22zM783.55 208.86c-3.89 3.17-7.68 6.47-11.5 9.73-.13.12 0 .68.08.6 3.84-3.25 7.71-6.46 11.48-9.79.12-.1.03-.62-.06-.54zM779.26 220.37c3.32-3.06 6.64-6.12 9.85-9.28.12-.11 0-.65-.07-.57-3.6 3.2-7.08 6.53-10.58 9.85zM642 158.18a970.4 970.4 0 01115 .18c.12 0 .13-.65 0-.66a906.59 906.59 0 00-115 .05c-.1 0-.08.44 0 .43zM646.47 176.71c19 .44 38.17-.07 57.24-.18s38.15-.15 57.23-.43c.14 0 .13-.7 0-.71-19.08 0-38.16.13-57.24.26s-38.18-.16-57.23.52c-.11 0-.1.53 0 .54z"/></g></g></svg>