<svg xmlns="http://www.w3.org/2000/svg" viewBox="0 0 500 552.58"><defs><clipPath id="clip-path"><path id="SVGID" fill="none" d="M60.58 0H500v488.72H60.58z"/></clipPath><clipPath id="clip-path-2"><path id="SVGID-2" data-name="SVGID" d="M268.69 173.27a1.39 1.39 0 00-1.22-2.05l-59.47-.44a1.36 1.36 0 00-1.21.68 1.41 1.41 0 000 1.39c13.28 23.56 49.08 24.03 61.9.42z" clip-rule="evenodd" fill="none"/></clipPath><style>.cls-7{fill:#595959}.cls-10,.cls-13,.cls-14,.cls-16,.cls-17,.cls-20,.cls-21,.cls-28,.cls-29{fill-rule:evenodd}.cls-16,.cls-9{fill:#fdd3a1}.cls-10{fill:#744a20}.cls-13,.cls-37{fill:#231f20}.cls-14,.cls-19{fill:#fff}.cls-17{fill:#efc897}.cls-18,.cls-21{fill:#edc594}.cls-20{fill:#272727}.cls-25{fill:#c7342b}.cls-28{fill:#d39542}.cls-29{fill:#bf8334}.cls-32{fill:#828c9f}.cls-36{fill:#ed1b2d}</style></defs><g id="Layer_2" data-name="Layer 2"><g id="Layer_1-2" data-name="Layer 1"><path d="M169.87 116.93c-69.78 22-142 59-163 116.55s9.07 135.39 56.93 184.14S177.06 486 245.06 491.06s138.33-4.41 177-45.15 45.64-112.68 32.42-178.64-46.71-126.22-97.12-152.74-117.73-19.64-187.49 2.4z" fill="#fff797"/><g clip-path="url(#clip-path)"><path d="M281.2 229.94A11.94 11.94 0 00269.29 217h-78.63a11.94 11.94 0 00-11.91 12.91c2.11 26.2 6.87 85.21 8.85 109.71a11.94 11.94 0 0011.91 11h60.93a11.94 11.94 0 0011.91-11c1.98-24.47 6.73-83.48 8.85-109.68z" fill-rule="evenodd" fill="#595959"/><path fill="#4d4d4d" d="M225.41 350.19h9.13v73.65h-9.13z"/><rect class="cls-7" x="209.28" y="349.54" width="41.39" height="11.37" rx="2.84"/><rect class="cls-7" x="198.06" y="419.62" width="63.82" height="8.45" rx="2.11"/><rect x="182.04" y="336.69" width="95.86" height="17.14" rx="4.28" fill="#737373"/><path class="cls-9" d="M184.7 256.13a5.44 5.44 0 014.92 4.61 6.1 6.1 0 01-2.2 5c-3.28 3.13-6.42 6.58-8.19 10.72-.7 1.62-1.26 3.48.23 4.64a7.74 7.74 0 001.87 1 7.18 7.18 0 01.81.43 5.37 5.37 0 012.37 5.11 5.43 5.43 0 01-6.79 4.29c-5.69-1.81-10.26-7.36-9.64-14 .46-5 3.2-9.47 6.24-13.37a55.82 55.82 0 016.52-7l.25-.23a5.6 5.6 0 013.61-1.2zM274.42 256.13a5.44 5.44 0 00-4.91 4.61 6.09 6.09 0 002.19 5c3.29 3.13 6.42 6.58 8.2 10.72.69 1.62 1.26 3.48-.23 4.64a8 8 0 01-1.88 1 7.18 7.18 0 00-.81.43 5.36 5.36 0 00-2.36 5.11 5.42 5.42 0 006.78 4.29c5.7-1.81 10.26-7.36 9.65-14-.47-5-3.21-9.47-6.24-13.37a57.34 57.34 0 00-6.52-7l-.26-.23a5.56 5.56 0 00-3.61-1.2z"/><path class="cls-10" d="M218.87 332.08s-14.55-5.89-14.58-5.85a47 47 0 00-7.89 28.35c1.71 24.25 3.73 26.36 3.73 26.36h6.55s-.26-13.71.17-25.09c.65-17.15 12.02-23.77 12.02-23.77zM241.08 332.08s14.55-5.89 14.58-5.85a47 47 0 017.89 28.35c-1.71 24.25-3.73 26.36-3.73 26.36h-6.56s.27-13.71-.16-25.09c-.65-17.15-12.02-23.77-12.02-23.77z"/><path class="cls-10" d="M208.52 337.44c-2.68-1.47-4.24-3.22-4.24-5.11 0-5.14 11.65-9.32 26-9.32s26 4.18 26 9.32c0 1.89-1.56 3.64-4.24 5.11z"/><path fill="#744a20" d="M204.29 310.3h51.96v21.75h-51.96z"/><path d="M256 310.3l.24.36v12.92c-4.19 6.27-14.29 10.69-26.07 10.69-11.61 0-21.6-4.3-25.89-10.43v-13.49z" fill="#633e15" fill-rule="evenodd"/><path class="cls-13" d="M201 377.61c-1.28.31-14 13.05-12.33 15.1a4 4 0 004.5 1.26 37.1 37.1 0 009-6.38 54.52 54.52 0 003.95-5.21l2.84-.87a1 1 0 00.38-.24l1.75-1.89a.88.88 0 000-1.2l-4.35-4.54zM259 377.61c1.28.31 14 13.05 12.33 15.1a4 4 0 01-4.5 1.26 37.1 37.1 0 01-9-6.38 54.52 54.52 0 01-3.95-5.21l-2.84-.87a.88.88 0 01-.38-.24l-1.75-1.89a.88.88 0 010-1.2l4.35-4.54z"/><path class="cls-14" d="M263.28 311.5c6.09 15.61-22 19-33.13 19s-39.45-3.39-33.36-19c8.07-20.67 6.54-52.9 6.54-52.9-2.28 2.08-4 5.39-5.28 9.56-.43 1.35-1.78 1.75-3.18 2-6.16 1.07-18.92-3.86-20.51-12.5a2.86 2.86 0 01.6-2.32c15.36-18.85 37.68-31.73 54.78-31.21h.59c17.1-.52 39.42 12.36 54.81 31.19a2.93 2.93 0 01.6 2.35c-1.61 8.63-14.61 14-20.54 12.5-1.38-.35-2.76-.64-3.18-2-1.29-4.17-3-7.48-5.28-9.56 0-.01-1.53 32.22 6.54 52.89z"/><path d="M230 221.51c5.83 0 10.56 1.52 10.56 6.14S235.87 236 230 236s-10.57-3.75-10.57-8.37 4.78-6.12 10.57-6.12z" fill="#c61625" fill-rule="evenodd"/><path class="cls-16" d="M237.27 205.07H222.8v21.22c0 3.18 2.11 4.94 5.17 5.83a7.47 7.47 0 004.14 0c3-.86 5.15-2.61 5.15-5.78.01-6.84.01-21.27.01-21.27z"/><path class="cls-17" d="M237.27 206.63H222.8v12c0 1.79 2.11 2.78 5.17 3.28a13.07 13.07 0 004.14 0c3-.49 5.15-1.47 5.15-3.26.01-3.89.01-12.02.01-12.02z"/><path class="cls-16" d="M302.58 87.69a33.07 33.07 0 00-18-31.7c-37.81-19.16-74.34-18.73-109.67-.25a33.07 33.07 0 00-17.6 31.49c1.94 29.09 5.58 53.92 7.6 83.86a33 33 0 0021.47 28.74l34.29 12.7a25.4 25.4 0 0017.53.05l35.16-12.81A33 33 0 00295 171c2-29.84 5.62-54.16 7.58-83.31z"/><path class="cls-16" d="M302.58 87.69a33.07 33.07 0 00-18-31.7c-37.81-19.16-74.34-18.73-109.67-.25a33.07 33.07 0 00-17.6 31.49c1.94 29.09 5.58 53.92 7.6 83.86a33 33 0 0021.47 28.74l34.29 12.7a25.4 25.4 0 0017.53.05l35.16-12.81A33 33 0 00295 171c2-29.84 5.62-54.16 7.58-83.31z"/><path class="cls-17" d="M167.52 181.64c16.44 12.8 38.42 20.63 62.55 20.63s46.05-7.81 62.48-20.58a33 33 0 01-19.07 18.08l-35.16 12.81a25.4 25.4 0 01-17.53-.05l-34.28-12.7a33 33 0 01-18.99-18.19zM183.47 74a47.23 47.23 0 01-10.34 21.8c-8.07 9.4-7.7 23.86-10.57 37.1-1.93-8.77-2.57-17.51-7.11-28.7s-.81-63.46 8.47-63.18C167.37 23.93 276.4 24.6 276.4 24.6c16.31 6.71 26.82 39.67 26.82 39.67a126.56 126.56 0 01-6.8 65.79c-2.08.73-6.31-48.44-19.33-57.66s-37.93 7.35-58.77 2.3A51.19 51.19 0 00232 82.51c-14.29 2.92-29.3.56-41.58-4.92a64.71 64.71 0 01-6.95-3.59z"/><path class="cls-10" d="M181.8 68.62a46.68 46.68 0 01-10.71 21.8c-8.36 9.39-8 23.86-11 37.1-2-8.77-2.67-17.51-7.36-28.7s-2.48-24-1.3-36.84l-4.24-.07a1.89 1.89 0 01-1.57-.88c-.34-.54-.14-1.16-.12-1.8.2-10.38 6.39-23.88 16-23.59 3.62-17.07 17.27-28.86 40.62-35.57a1.88 1.88 0 012.28 1.13l2.68 6.8c23.61-7.66 48.42-6.9 74.55 3.24a1.89 1.89 0 01.74 3l-4.33 5c16.89 6.7 29.34 18.52 35.17 38a1.89 1.89 0 01-2.07 2.42l-5.33-.71a122.52 122.52 0 01-7 65.8l-12.37-33s6-7.71-7.65-24.69a55.83 55.83 0 00-9-1.34c-20.58-1-30.3 8.69-51.88 3.65 3.39 2.81 8.17 5.4 14.2 7.8-17.76 3.48-36.56-.62-50.31-8.55z"/><path class="cls-16" d="M156 122.06c9 0 16.35 6.16 16.35 13.75S165 149.57 156 149.57s-16.36-6.16-16.36-13.76 7.3-13.75 16.36-13.75z"/><path class="cls-17" d="M140.13 132.36c2.1 8.3 10.26 14.49 20 14.49a22.18 22.18 0 007.3-1.22 18 18 0 01-11.43 3.94c-9 0-16.36-6.16-16.36-13.76a11.67 11.67 0 01.49-3.45z"/><path class="cls-18" d="M151.32 132.2a13.67 13.67 0 00-4.37 1.15s-1.55-.21-.84-1.09c.86-1.09 4-1.67 6.66-1.67a14.48 14.48 0 0111.15 5.69s.31.54 0 .91c-.68.82-1.92-1.1-3.25-2.18a12.76 12.76 0 00-7.54-2.84 3.05 3.05 0 01-.3.48c-1.22 1.71-2.28 4.1-.49 5.6a6.1 6.1 0 001.17.69c.69.37.39 1.77-.91 1.15a4.33 4.33 0 01-2.55-3.14 6.48 6.48 0 011.27-4.75z"/><path class="cls-16" d="M304 122.06c-9 0-16.36 6.16-16.36 13.75S295 149.57 304 149.57s16.35-6.16 16.35-13.76S313 122.06 304 122.06z"/><path class="cls-17" d="M319.82 132.36c-2.1 8.3-10.26 14.49-20 14.49a22.14 22.14 0 01-7.3-1.22 18 18 0 0011.48 3.94c9 0 16.35-6.16 16.35-13.76a12 12 0 00-.53-3.45z"/><path class="cls-18" d="M307 132.16a13.07 13.07 0 00-9.56 4.67c-1.24 1.47-1.48.44-1.54 0-.1-.8 1.21-1.87 2.51-2.92a14.23 14.23 0 018.8-3.32h.21a15.35 15.35 0 016.07 1.4.92.92 0 01.51.5c.18.6-.25 1.17-1.21.74a13.42 13.42 0 00-4.06-1 11.55 11.55 0 01.87 2.05 4.58 4.58 0 01-1 5.05 7.56 7.56 0 01-1.54.93c-.5.2-.57 0-.76-.14-.38-.35-.22-1 .42-1.26a3.08 3.08 0 001.74-1.8c.48-1.65-.56-3.42-1.43-4.54a1.74 1.74 0 01-.03-.36z"/><ellipse class="cls-19" cx="203.01" cy="118.5" rx="18.78" ry="15.7"/><path class="cls-20" d="M208 114.07a9.3 9.3 0 11-9.3 9.3 9.31 9.31 0 019.3-9.3z"/><path class="cls-14" d="M206.13 117.73a3.13 3.13 0 11-3.13 3.12 3.13 3.13 0 013.13-3.12z"/><ellipse class="cls-19" cx="272.33" cy="118.5" rx="18.78" ry="15.7"/><path class="cls-20" d="M277.35 114.07a9.3 9.3 0 11-9.3 9.3 9.3 9.3 0 019.3-9.3z"/><path class="cls-14" d="M275.44 117.73a3.13 3.13 0 11-3.12 3.12 3.13 3.13 0 013.12-3.12z"/><path class="cls-21" d="M196.41 138.85a1.61 1.61 0 11-1.61 1.61 1.61 1.61 0 011.61-1.61zM268 139.05a1.61 1.61 0 11-1.61 1.61 1.61 1.61 0 011.61-1.61zM201.82 143.27a1.61 1.61 0 11-1.6 1.61 1.61 1.61 0 011.6-1.61zM273.38 143a1.61 1.61 0 11-1.61 1.61 1.61 1.61 0 011.61-1.61z"/><circle class="cls-18" cx="206.67" cy="140.66" r="1.61" transform="rotate(-.22 202.874 138.42)"/><path class="cls-21" d="M278.22 139.26a1.61 1.61 0 11-1.6 1.6 1.61 1.61 0 011.6-1.6z"/><ellipse class="cls-18" cx="237.2" cy="145.62" rx="15.36" ry="13.65"/><ellipse class="cls-9" cx="234.74" cy="141.89" rx="15.36" ry="13.65"/><path d="M268.69 173.27a1.39 1.39 0 00-1.22-2.05l-59.47-.44a1.36 1.36 0 00-1.21.68 1.41 1.41 0 000 1.39c13.28 23.56 49.08 24.03 61.9.42z" fill="#934826" fill-rule="evenodd"/><g clip-path="url(#clip-path-2)"><rect class="cls-19" x="223.4" y="165.49" width="13.32" height="10.16" rx="2.54"/><rect class="cls-19" x="238.62" y="165.49" width="13.32" height="10.16" rx="2.54"/><path d="M237.67 183.36c7.87 0 14.27 4 14.27 9s-6.4 9-14.27 9-14.27-4-14.27-9 6.4-9 14.27-9z" fill="#e5776d" fill-rule="evenodd"/></g><rect class="cls-25" x="250.43" y="276.3" width="13.41" height="4.35" rx="1.09"/><rect class="cls-25" x="194.32" y="276.3" width="13.41" height="4.35" rx="1.09"/><rect x="193.07" y="279.92" width="73.23" height="15.41" rx="3.85" fill="#616773"/><path class="cls-16" d="M214.25 291.77a2.59 2.59 0 110 5.18h-2a2.6 2.6 0 01-2.28 3.83h-1.36a2.46 2.46 0 01.1.72 2.59 2.59 0 01-2.59 2.6h-1.44a2.6 2.6 0 01-2.6 2.59h-10.7c-4.57 0-9.7-2.17-12-4.69-2.87-3.15-3.93-10.17-1.92-14.63s9.76-9.85 14-12.11c3.39-1.81 9.58-1.59 11.44-1.45.77.06.63 2.79.1 3.35-1 1.09-6.31 1.81-7.85 3.48s-3.33 9.11-.13 11.13 19.23 0 19.23 0zM243.91 291.77a2.59 2.59 0 000 5.18H246a2.49 2.49 0 00-.32 1.24 2.59 2.59 0 002.59 2.59h1.36a2.46 2.46 0 00-.1.72 2.59 2.59 0 002.59 2.6h1.45a2.59 2.59 0 002.59 2.59h10.71c4.56 0 9.69-2.17 12-4.69 2.87-3.15 3.94-10.17 1.92-14.63s-9.76-9.85-14-12.11c-3.39-1.81-9.58-1.59-11.44-1.45-.77.06-.63 2.79-.1 3.35 1 1.09 6.32 1.81 7.86 3.48s3.33 9.11.12 11.13-19.32 0-19.32 0z"/><path fill="#d39542" d="M81.02 295.38h391.55v15.89H81.02z"/><path class="cls-28" d="M166.06 311.27h-37.8L81.02 478.83h15.75l69.29-167.56zM387.53 311.27h37.8l47.24 167.56h-15.75l-69.29-167.56z"/><path class="cls-29" d="M149.12 352.23l-28.63-13.38 7.77-27.58h37.8l-16.94 40.96zM404.47 352.23l28.63-13.38-7.77-27.58h-37.8l16.94 40.96z"/><rect x="317.71" y="159.07" width="182.29" height="120.31" rx="5.35" fill="#cbd2df"/><path d="M317.71 262.45a5.08 5.08 0 004.78 5.34h172.72a5.09 5.09 0 004.79-5.34V274a5.1 5.1 0 01-4.79 5.35H322.49a5.09 5.09 0 01-4.78-5.35z" fill="#b8c1d3" fill-rule="evenodd"/><rect class="cls-32" x="388.35" y="201.92" width="41.01" height="34.62" rx="1.54"/><rect class="cls-32" x="399.15" y="203.45" width="19.4" height="88.69" rx=".86"/><rect class="cls-32" x="367.16" y="288.89" width="83.39" height="6.49" rx=".29"/><path d="M229.08 283.56a3.32 3.32 0 11-3.32 3.32 3.32 3.32 0 013.32-3.32z" fill="#828c9f" fill-rule="evenodd"/><path d="M313.84 349.86a21.7 21.7 0 01-10-2.58A34.46 34.46 0 01291.09 335a36.53 36.53 0 01-5.67-16.76 1 1 0 000-.17c-5.77-2.27-12.45-5.35-20-9.2-18.91-9.71-36.76-21.14-36.94-21.26a1 1 0 011.12-1.74c.18.11 18 11.5 36.78 21.16 7.1 3.65 13.44 6.59 19 8.8.17-5 1.87-9.24 5-12.26 2.11-2 5.47-2.72 9.48-1.92a21.31 21.31 0 019.84 5c4.6 4.24 5.27 9.31 1.78 13.57-2.73 3.33-8.71 3.54-18.29.63q-2.64-.79-5.64-1.92a34.84 34.84 0 005.3 15 32.21 32.21 0 0011.91 11.53 18.48 18.48 0 0015.24 1.23c7-2.56 11.88-8.16 14.81-17.14 3.66-11.24 4.37-28.27 2.11-50.62a1 1 0 01.92-1.14 1 1 0 011.14.93c2.33 22.95 1.61 39.79-2.2 51.48-3.14 9.62-8.4 15.65-16.07 18.44a20.08 20.08 0 01-6.87 1.22zm-26.39-33.21c2.27.86 4.39 1.6 6.35 2.19 8.44 2.56 14 2.58 16.08 0 1.62-2 3.56-6-1.58-10.73-4.57-4.2-12.93-6.51-16.48-3.08s-4.36 7.97-4.37 11.62z" fill="#4b5059"/><path d="M341.76 272.4h-7.66v5.37a2.8 2.8 0 002.82 2.82h2a2.82 2.82 0 002.82-2.82z" fill="#4b5059" fill-rule="evenodd"/></g><path class="cls-36" d="M156.57 552.07h-3.47V526h3.47zm2.71 0v-23.93h4.36c6.56.05 8.11 2.59 8.15 6.07 0 2.78-.79 4.38-2.31 5.16s-3.89 1.07-7.54 1.07l8.75 11.63z"/><path class="cls-37" d="M370.79 552.07h-3.46V526h3.46zm2.71 0v-23.93h4.37c6.55.05 8.1 2.59 8.14 6.07 0 2.78-.79 4.38-2.31 5.16-1.37.71-3.89 1.07-7.53 1.07l8.74 11.63z"/><path class="cls-36" d="M190.06 550.52h-13.98v-10.8h10.11v-2.98h-10.11v-8.59h12.46l1.52 22.37zM200.84 528.62q6.39 0 9.62 3.4c1.86 2 2.8 5.25 2.8 8.55a11.65 11.65 0 01-3.38 8.47 10.43 10.43 0 01-7.36 2.91h-7.2v-23.33z"/><path class="cls-37" d="M226.9 552.58h-3.68v-24.74h3.68zm10.42-4.09l-8.79-20.65 17.64.07zm14.08 4.09h-3.67v-24.74h3.67zM258.26 531.64a10.05 10.05 0 017.15-3 9.85 9.85 0 017.3 3.15 10.87 10.87 0 013.06 7.89 9.76 9.76 0 01-3.67 8.15 11 11 0 01-7 2.28 9.47 9.47 0 01-6.48-2.72 11.3 11.3 0 01-3.57-8.76 9.38 9.38 0 013.16-6.94M279.44 552.14V531l14.28 21.12zm15.75-4.7l-14-20.22 14 .07zM329.85 552.15h-7.7V530h7.7zm11.51.26h-7.83V530h7.83zM360.58 551.1h-13.03v-11.2h9.97v-3.07h-9.97v-8.94h14.37l-1.34 23.21zM301.15 551.36v-25.87h14a9.66 9.66 0 00-.09 1.25c-8.11-.21-8.47 3.39-8.73 5.2a5.34 5.34 0 002.38 5.4 21.53 21.53 0 004.74 2c2 .62 3.21 1.32 3.71 2.12a5.83 5.83 0 01.61 1.32 4.77 4.77 0 01.17 1.28 4.08 4.08 0 01-1.54 3.23 5.2 5.2 0 01-3.48 1.32 4.36 4.36 0 01-3-1.13 6.33 6.33 0 01-1.85-3.69h-3.83c0 7.2 7.83 7.53 7.83 7.53zm12-22.69a3.22 3.22 0 103.22 3.22 3.22 3.22 0 00-3.22-3.22"/></g></g></svg>