<svg xmlns="http://www.w3.org/2000/svg" viewBox="0 0 800 698.35"><defs><style>.cls-1{fill:#d9dadb}.cls-2{fill:#b2917f}.cls-3{fill:#9dbd16}.cls-4{fill:#7c7c7c}.cls-5{fill:#d3b39e}.cls-6{fill:#bebfc3}.cls-7{fill:#58585a}.cls-9{fill:#7ea8c4}.cls-10{fill:#a2c7e4}.cls-12{fill:#bddbef}.cls-13{fill:#e0ccc1}.cls-14{fill:#70b5f1}.cls-15{fill:#fff}.cls-17{fill:#414143}.cls-19{fill:#3e3d40}.cls-20{fill:#bfbfbf}.cls-22{fill:none;stroke:#bebfc3;stroke-miterlimit:10;stroke-width:1.56px}.cls-24{fill:#a3a4a8}.cls-27{fill:#ffe7cc}</style></defs><g id="Layer_2" data-name="Layer 2"><g id="Layer_1-2" data-name="Layer 1"><path class="cls-1" d="M398.58 575.42c-26.68.53-38.95 10.28-39.48 27.89s26.67 10.73 27.2 19.8-30.41 71.61 28.81 69.2c26.66-1.08 52.72-19.59 52.82-55.93.12-39.48-42.68-61.49-69.35-60.96zM393 608.11c-8.69 0-15.74-4.49-15.74-10s7-10 15.74-10 15.74 4.49 15.74 10-7.07 10-15.74 10z"/><path class="cls-2" d="M416 671.25A10.24 10.24 0 11405.78 661 10.24 10.24 0 01416 671.25z"/><path class="cls-3" d="M445.49 661.75a10.24 10.24 0 11-10.24-10.24 10.24 10.24 0 0110.24 10.24z"/><path class="cls-4" d="M457.06 632.43a10.24 10.24 0 11-10.23-10.24 10.23 10.23 0 0110.23 10.24z"/><path class="cls-5" d="M366.23 662.43c18.89 16.21-21.71 22-21.71 22s8.18-6.31 8.79-12.05 3.85-17.73 12.92-9.95z"/><path class="cls-6" d="M389.65 630c-17.58 18.06-25.83 30.66-25.83 30.66l6.84 6.83s11.61-7.83 30.34-26.14z"/><path class="cls-7" d="M404.33 638.07C425 617.4 460 574.34 460 574.34s2.88-4.76 1.8-5.83-5.78 1.85-5.78 1.85-43.48 36.7-63.23 56.46c-1.09 1.08-2.13 2.14-3.15 3.19L401 641.36c1.08-1.06 2.19-2.15 3.33-3.29z"/><path d="M400.61 629.48a2.11 2.11 0 01-3-.13 2.13 2.13 0 01.14-3l48.75-44.47c.88-.78-45.89 47.6-45.89 47.6z" opacity=".5" fill="#d9dadb"/><path class="cls-1" d="M387.2 637.26a1.77 1.77 0 012.5.11 1.77 1.77 0 01-.12 2.49l-20.09 17.07c-.72.65 17.71-19.67 17.71-19.67z"/><rect class="cls-9" x="685.29" y="307.54" width="114.71" height="75.73" rx="3.07"/><path class="cls-10" d="M799.81 381.25l-57.16-45.58-57.17 45.58a3.07 3.07 0 002.88 2h108.57a3.07 3.07 0 002.88-2z"/><path d="M742.38 374.08L800 310.29a3.07 3.07 0 00-3-2.75H688.36a3.07 3.07 0 00-3.07 3.07v.2z" fill="#4d7c96" opacity=".3"/><path class="cls-12" d="M686.1 308.77l56.34 55 56.74-55.44a3 3 0 00-2.06-.82H688.54a3.06 3.06 0 00-2.44 1.26z"/><path class="cls-5" d="M682.7 310.91c-31.17 63 9.83 82.59 14.17 81.47 7.52-1.95 17.12-20.14 13.78-27.85s-16.79-5.15-20.48-16 1.83-24.17 5.35-31.28 10.76-19.57 21.63-23.22 17 8.59 25.15 6.57 16.8-20.69 13.78-27.85c-1.74-4.13-42.2-24.82-73.38 38.16z"/><path class="cls-13" d="M689.88 315.2c10.34-21.42 26.32-37.44 43.37-45.59-13.3 1.15-31.4 10-47.62 42.75s-12 52.25-5.63 62.93c.33.56.67 1.09 1 1.61-4-18.3-1.35-40.52 8.88-61.7z"/><path class="cls-1" d="M799.33 74.76c-1.29-2.41-10.44-3.15-10.44-3.15a33.09 33.09 0 00-.72-7.33s8.82-2.54 9.6-5.15c1.31-4.35-4.24-14.7-8.59-16-2.6-.78-9.6 5.15-9.6 5.15a33.36 33.36 0 00-5.7-4.65s4.44-8 3.15-10.44c-2.15-4-13.39-7.39-17.39-5.25-2.41 1.29-3.15 10.44-3.15 10.44a32.51 32.51 0 00-7.33.73s-2.54-8.82-5.15-9.61c-4.35-1.31-14.69 4.24-16 8.59-.79 2.61 5.15 9.6 5.15 9.6a32.64 32.64 0 00-4.66 5.71s-8-4.44-10.44-3.16c-4 2.15-7.39 13.39-5.24 17.39 1.28 2.41 10.44 3.15 10.44 3.15a32.5 32.5 0 00.74 7.32s-8.82 2.54-9.6 5.15c-1.31 4.35 4.24 14.69 8.58 16 2.61.78 9.6-5.15 9.6-5.15a33 33 0 005.71 4.65s-4.44 8-3.15 10.44c2.14 4 13.38 7.39 17.39 5.25 2.4-1.29 3.15-10.45 3.15-10.45a32.41 32.41 0 007.32-.72s2.55 8.82 5.16 9.6c4.34 1.32 14.69-4.24 16-8.58.79-2.61-5.15-9.6-5.15-9.6a32.59 32.59 0 004.63-5.69s8 4.44 10.45 3.15c4-2.15 7.39-13.39 5.24-17.39zm-46.84 8.31A12.41 12.41 0 11768 74.78a12.4 12.4 0 01-15.51 8.29z"/><path class="cls-6" d="M782.25 91L766 78.69a12.4 12.4 0 01-19.82-14.91l-16.36-12.27c-.46.61-.9 1.23-1.32 1.88 0 0-8-4.44-10.44-3.16-4 2.15-7.39 13.39-5.24 17.39 1.28 2.41 10.44 3.15 10.44 3.15a32.5 32.5 0 00.74 7.33s-8.82 2.54-9.6 5.15c-1.31 4.35 4.24 14.69 8.58 16 2.61.78 9.6-5.15 9.6-5.15a33 33 0 005.71 4.65s-4.44 8-3.15 10.44c2.14 4 13.38 7.39 17.39 5.25 2.4-1.29 3.15-10.45 3.15-10.45a32.41 32.41 0 007.32-.72s2.55 8.82 5.16 9.6c4.34 1.32 14.69-4.24 16-8.58.79-2.61-5.15-9.6-5.15-9.6a31.54 31.54 0 003.24-3.69z"/><path class="cls-14" d="M737.87 43.1c-2.18-2.17-12.31 0-12.31 0a36.93 36.93 0 00-3.16-7.68s8.69-5.61 8.69-8.69c0-5.11-9.36-14.48-14.48-14.48-3.08 0-8.69 8.69-8.69 8.69a36.71 36.71 0 00-7.68-3.16s2.18-10.13 0-12.31c-3.62-3.61-16.86-3.61-20.48 0-2.18 2.18 0 12.31 0 12.31a36.71 36.71 0 00-7.68 3.16s-5.61-8.69-8.69-8.69c-5.12 0-14.48 9.37-14.48 14.48 0 3.08 8.69 8.69 8.69 8.69a36.93 36.93 0 00-3.16 7.68s-10.13-2.17-12.31 0c-3.62 3.62-3.62 16.86 0 20.48 2.18 2.18 12.31 0 12.31 0a36.93 36.93 0 003.16 7.68s-8.69 5.61-8.69 8.68c0 5.12 9.36 14.49 14.48 14.49 3.08 0 8.69-8.69 8.69-8.69a36.71 36.71 0 007.68 3.16s-2.18 10.13 0 12.31c3.62 3.62 16.86 3.62 20.48 0 2.18-2.18 0-12.31 0-12.31a36.71 36.71 0 007.68-3.16s5.61 8.69 8.69 8.69c5.12 0 14.48-9.37 14.48-14.49 0-3.07-8.69-8.68-8.69-8.68a36.93 36.93 0 003.16-7.68s10.13 2.18 12.31 0c3.62-3.58 3.62-16.86 0-20.48zM690 67.34a14 14 0 1114-14 14 14 0 01-14 14z"/><path class="cls-15" d="M690 30.44a22.9 22.9 0 1022.9 22.9 22.9 22.9 0 00-22.9-22.9zm0 35.26a12.36 12.36 0 1112.36-12.36A12.36 12.36 0 01690 65.7z"/><path class="cls-7" d="M690 33.71a19.63 19.63 0 1019.63 19.63A19.63 19.63 0 00690 33.71zm0 30.23a10.6 10.6 0 1110.6-10.6 10.61 10.61 0 01-10.6 10.6z"/><path class="cls-12" d="M17.57 574.43L0 592v92.12h84.9V574.43H17.57z"/><path class="cls-9" d="M0 592l17.57.12v-17.69"/><path class="cls-10" d="M69.81 596.21l15.09 13.08v74.83H27.85l41.96-87.91z"/><path class="cls-15" d="M69.81 596.21l-18.14 11.33-5.38 10.72 19.87 9.98 5.39-10.72-1.74-21.31z"/><path class="cls-5" transform="rotate(-63.33 39.862 656.228)" d="M-4.31 650.29h88.33v11.86H-4.31z"/><path class="cls-2" d="M32.21 696.61l-6.88 1.74 39.65-78.94 6.88-1.73-39.65 78.93z"/><path class="cls-13" d="M12.02 686.47l2.71 6.56 39.66-78.94-2.72-6.55-39.65 78.93z"/><path d="M69.81 596.21l-11.08 6.92a12.64 12.64 0 0012.14 6.1z" fill="#212121"/><path class="cls-17" d="M488.63 354a4 4 0 01-2 5.36l-121.86 55.88a4 4 0 01-5.36-2l-35.59-77.57a4 4 0 012-5.36l121.87-55.93a4 4 0 015.36 2z"/><path transform="rotate(-24.65 412.974 341.602)" fill="#eceded" d="M358.03 303.84h110.02v75.6H358.03z"/><path class="cls-19" d="M360.32 367.39a7.13 7.13 0 11-9.45-3.51 7.13 7.13 0 019.45 3.51z"/><path class="cls-19" transform="rotate(-24.64 347.912 357.48)" d="M340.81 354.83h14.27v5.36h-14.27z"/><path class="cls-19" transform="rotate(-24.66 344.525 350.142)" d="M337.44 347.48h14.26v5.35h-14.26z"/><path class="cls-19" transform="rotate(-24.65 341.127 342.76)" d="M334.07 340.13h14.26v5.35h-14.26z"/><path class="cls-19" transform="rotate(-24.65 366.412 397.892)" d="M359.37 395.27h14.26v5.36h-14.26z"/><path class="cls-19" transform="rotate(-24.64 363.17 390.627)" d="M355.99 387.91h14.27v5.35h-14.27z"/><path class="cls-19" transform="rotate(-24.65 359.676 383.185)" d="M352.62 380.56h14.26v5.35h-14.26z"/><path class="cls-20" d="M359.11 366.17a7.13 7.13 0 11-9.46-3.5 7.14 7.14 0 019.46 3.5z"/><path class="cls-20" transform="rotate(-24.64 346.687 356.277)" d="M339.6 353.62h14.27v5.36H339.6z"/><path class="cls-20" transform="rotate(-24.66 343.33 348.922)" d="M336.23 346.27h14.26v5.35h-14.26z"/><path class="cls-20" transform="rotate(-24.65 339.908 341.534)" d="M332.85 338.92h14.26v5.35h-14.26z"/><path class="cls-20" transform="rotate(-24.65 365.194 396.666)" d="M358.15 394.05h14.26v5.36h-14.26z"/><path class="cls-20" transform="rotate(-24.64 361.97 389.43)" d="M354.78 386.7h14.27v5.35h-14.27z"/><path class="cls-20" transform="rotate(-24.65 358.475 381.987)" d="M351.41 379.35h14.26v5.36h-14.26z"/><rect class="cls-17" x="424.85" y="315.6" width="11.55" height="14.46" rx="5.07"/><path class="cls-17" d="M437.33 402.67l-6.7 11.61-6.71-11.61h13.41z"/><rect class="cls-3" x="422.55" y="321.25" width="16.14" height="85.43" rx="5.97"/><path d="M429.47 394.28c0 1.53-.71 2.78-1.6 2.78-.88 0-1.59-1.25-1.59-2.78V330.5c0-1.53.71-2.78 1.59-2.78.89 0 1.6 1.25 1.6 2.78z" fill="#c5dd33" opacity=".5"/><path class="cls-22" d="M369.75 346.92l-5.55-12.11 12.11-5.55M428.01 305.57l12.1-5.55 5.55 12.1M457.14 337.16l5.54 12.11-12.1 5.55M398.88 378.51l-12.11 5.55-5.55-12.11"/><path class="cls-7" d="M92.18 350.08A46.09 46.09 0 1146.09 304a46.09 46.09 0 0146.09 46.08z"/><path class="cls-15" d="M83.49 350.08a37.4 37.4 0 11-37.4-37.41 37.4 37.4 0 0137.4 37.41z"/><path class="cls-6" d="M75.84 350.08a29.75 29.75 0 11-29.75-29.75 29.75 29.75 0 0129.75 29.75z"/><path class="cls-15" d="M66.37 350.08a20.28 20.28 0 11-20.28-20.29 20.29 20.29 0 0120.28 20.29z"/><path class="cls-6" d="M56.27 350.08a10.18 10.18 0 11-10.18-10.18 10.17 10.17 0 0110.18 10.18z"/><path class="cls-9" d="M120.37 278.21s17 .47 17.73 7.9-13.35 11.35-13.35 11.35z"/><path class="cls-12" d="M120.37 278.21s-2.86-16.4-9.91-16.59-10.87 14.87-10.87 14.87z"/><path class="cls-1" d="M57.44 335.69l-13.29 16.62 17.28-11.51-3.99-5.11z"/><path class="cls-7" d="M65.53 321.33c-6.1 3.63-13.59 18.25-10.35 21.11s16.64-1.66 21-9.67z"/><path class="cls-10" d="M120.37 278.21l-54.84 43.12s-3.3 11.51 10.67 11.44z"/><path class="cls-9" d="M120.37 278.21s-19-14.49-27.59-7.63-4.1 32.55-4.1 32.55z"/><path class="cls-12" d="M120.37 278.21s11.06 13.05 6.86 24.92-32.43 6.66-32.43 6.66z"/><path d="M72.1 388.12a46.2 46.2 0 0017.09-21.69l-45-14.12z" opacity=".2" fill="#1a171b"/><rect class="cls-17" x="389.62" width="88.24" height="116.81" rx="4.63"/><path class="cls-15" d="M397.99 7.89h71.5v95.5h-71.5zM438.08 110a3 3 0 10-2.95 3 2.95 2.95 0 002.95-3z"/><path class="cls-5" d="M404.37 13.97h57.96v38.09h-57.96z"/><path class="cls-14" d="M404.37 59.41h57.96V97.5h-57.96z"/><rect class="cls-15" x="365.73" y="42.75" width="54.01" height="75.37" rx="4.63"/><rect class="cls-1" x="362.26" y="45.95" width="54.01" height="75.37" rx="4.63"/><path class="cls-15" d="M367.39 50.87h43.76v57.95h-43.76zM392.33 114.86a3.06 3.06 0 10-3.06 3 3.06 3.06 0 003.06-3z"/><path class="cls-24" d="M375.11 57.18h28.32v2.54h-28.32zM375.11 63.92h28.32v2.54h-28.32zM375.11 70.65h28.32v2.54h-28.32zM375.11 77.39h28.32v2.54h-28.32z"/><rect class="cls-15" x="335" y="65.14" width="37.84" height="58.96" rx="7.11"/><rect class="cls-17" x="334.59" y="68.92" width="34.75" height="54.14" rx="6.53"/><path class="cls-15" d="M340.03 76.99h23.86v34.56h-23.86zM354.27 117a2.31 2.31 0 10-2.31 2.3 2.31 2.31 0 002.31-2.3zM344.48 72.34h14.97v1.73h-14.97z"/><path opacity=".2" fill="#fff" d="M401.23 102.03V9.11h64.33l-64.33 92.92z"/><path d="M100.23 75.67a5 5 0 01-1.14-.67c-2-1.4-2.29-3.9-2.25-5.61 6.42-3.1 11.31-9.64 13-17.65 1.45.36 3.21-1.54 4-4.28s.18-5.31-1.27-5.71a2.34 2.34 0 00-2.21.92c0-.21 0-.42-.07-.63a21.06 21.06 0 00.18-2.65 22 22 0 10-44 0 20.74 20.74 0 00.18 2.63v.34a2.12 2.12 0 00-1.87-.61c-1.45.4-2 3-1.27 5.71.68 2.52 2.22 4.31 3.59 4.31 1.69 8 6.61 14.58 13.07 17.66 0 1.71-.3 4.18-2.25 5.57a5.17 5.17 0 01-1.14.63c-4.6 1.74-28.91 2.61-28.91 28.94a219.91 219.91 0 0040.66 3.71 219.78 219.78 0 0040.66-3.71c-.06-26.29-24.36-27.16-28.96-28.9z" fill="#c6c7c8"/><path class="cls-4" d="M86.27 78.07a5.53 5.53 0 01-1.36-.74c-2.33-1.66-2.71-4.63-2.67-6.67 7.63-3.68 13.44-11.45 15.43-21 1.72.43 3.82-1.83 4.7-5.09s.22-6.31-1.51-6.78a2.76 2.76 0 00-2.62 1.09c0-.25-.06-.5-.08-.74a27.49 27.49 0 00.21-3.14 26.12 26.12 0 00-52.24 0 24.93 24.93 0 00.21 3.13v.41a2.51 2.51 0 00-2.23-.73c-1.73.47-2.4 3.5-1.51 6.78.81 3 2.65 5.12 4.27 5.12 2 9.55 7.86 17.33 15.53 21 0 2-.36 5-2.67 6.62a5.53 5.53 0 01-1.36.74C52.86 80.14 24 81.18 24 112.47a261.22 261.22 0 0048.32 4.41 261.22 261.22 0 0048.32-4.41c-.02-31.29-28.9-32.33-34.37-34.4z"/><path class="cls-14" d="M68.64 81.8a6.44 6.44 0 01-1.49-.8l-13.9 12.31L39.35 81a6.31 6.31 0 01-1.5.82C31.83 84.08 0 85.23 0 119.71a288.5 288.5 0 0053.25 4.85 288.5 288.5 0 0053.25-4.85c0-34.48-31.83-35.63-37.86-37.91z"/><path class="cls-27" d="M67.15 81c-4.18-3-2.7-9.77-2.7-9.77H42S43.53 78 39.35 81l13.9 12.33z"/><path class="cls-27" d="M67.15 81c-4.18-3-2.7-9.77-2.7-9.77H42S43.53 78 39.35 81"/><path class="cls-27" d="M82 42.53c0 18.58-12.91 33.65-28.84 33.65S24.35 61.11 24.35 42.53 37.26 8.89 53.19 8.89 82 24 82 42.53z"/><path class="cls-27" d="M27.36 43c1 3.61.23 7-1.67 7.47s-4.23-2-5.22-5.6-.23-7 1.67-7.47 4.23 2.03 5.22 5.6zM79.51 43c-1 3.61-.24 7 1.66 7.47s4.24-2 5.22-5.6.24-7-1.66-7.47-4.24 2.03-5.22 5.6z"/><path class="cls-5" d="M53.19 5.56a28.73 28.73 0 00-27.4 37.53c1.11.49 2.72 1.11 3.26.8 3.95-2.29-2.22-20.15 8.44-20.45S50 27 54.39 27.62c4.12.58 15.62-2 19.08.34 3.91 2.6 1.89 15.27 6.54 15.93a.56.56 0 00.36-.07A28.77 28.77 0 0053.19 5.56z"/><circle class="cls-14" cx="687.44" cy="639.14" r="15.69"/><circle class="cls-5" cx="735.87" cy="639.14" r="15.69"/><circle class="cls-3" cx="784.31" cy="639.14" r="15.69"/></g></g></svg>